<?xml version="1.0" encoding="UTF-8" standalone="no"?>
<svg
   xmlns:dc="http://purl.org/dc/elements/1.1/"
   xmlns:cc="http://creativecommons.org/ns#"
   xmlns:rdf="http://www.w3.org/1999/02/22-rdf-syntax-ns#"
   xmlns:svg="http://www.w3.org/2000/svg"
   xmlns="http://www.w3.org/2000/svg"
   xmlns:sodipodi="http://sodipodi.sourceforge.net/DTD/sodipodi-0.dtd"
   xmlns:inkscape="http://www.inkscape.org/namespaces/inkscape"
   height="6415"
   width="7860"
   version="1.1"
   id="svg29"
   sodipodi:docname="BAngle.svg"
   inkscape:version="1.0.2-2 (e86c870879, 2021-01-15)">
  <metadata
     id="metadata33">
    <rdf:RDF>
      <cc:Work
         rdf:about="">
        <dc:format>image/svg+xml</dc:format>
        <dc:type
           rdf:resource="http://purl.org/dc/dcmitype/StillImage" />
        <dc:title></dc:title>
      </cc:Work>
    </rdf:RDF>
  </metadata>
  <sodipodi:namedview
     pagecolor="#ffffff"
     bordercolor="#666666"
     borderopacity="1"
     objecttolerance="10"
     gridtolerance="10"
     guidetolerance="10"
     inkscape:pageopacity="0"
     inkscape:pageshadow="2"
     inkscape:window-width="1920"
     inkscape:window-height="1017"
     id="namedview31"
     showgrid="false"
     inkscape:zoom="0.036598839"
     inkscape:cx="106.99545"
     inkscape:cy="3449.2746"
     inkscape:window-x="-8"
     inkscape:window-y="-8"
     inkscape:window-maximized="1"
     inkscape:current-layer="svg29"
     inkscape:document-rotation="0" />
  <path
     d="M 7609.002,2744.808 7629,2729.809 q -94.9903,394.96 -114.9883,564.943 l -9.999,1459.851 q 9.999,509.948 -29.9969,819.916 l -214.9781,189.981 -294.97,114.988 q -459.9532,144.986 -999.8982,259.974 l -29.9969,9.999 -24.9975,4.999 -169.9827,34.997 -74.9923,19.998 -49.9949,9.999 -649.9339,139.986 -549.944,54.994 h -34.9964 q -374.9618,-134.986 -454.9537,-144.985 v -9.999 q -579.9409,-504.949 -1974.7989,-2544.741 -74.9924,-184.981 704.9282,-1594.8378 394.9598,-734.9252 699.9287,-1099.888 l 264.9731,-134.9863 149.9847,4.9995 144.9852,-19.9979 L 4024.367,855 l -54.9944,59.9939 244.9751,-4.9995 q 904.9079,0 2119.7842,699.9287 1104.8875,634.9354 1229.8747,1169.8809 l 44.9954,-34.996 m -4039.5886,2589.736 414.9577,34.996 -164.9832,-234.976 -204.9791,-284.971 Q 3259.4449,4204.659 3039.4673,2979.784 v -504.949 q 69.9929,-479.9511 254.9741,-779.9205 l 34.9964,-64.9934 -64.9934,79.9919 v 4.9994 l -39.9959,44.9955 -9.999,9.9989 -29.9969,39.996 -259.9736,329.9664 Q 2499.5223,2714.811 2344.5381,3164.765 l -44.9954,84.991 -9.999,29.997 -104.9893,339.965 49.9949,99.99 74.9923,164.984 119.9878,184.981 199.9797,339.965 14.9984,29.997 14.9985,19.998 294.97,399.959 359.9633,449.954 254.9741,24.998 m 2969.6976,139.986 224.9771,-44.996 4.9995,9.999 69.9928,-19.998 14.9985,-4.999 234.9761,-99.99 214.9781,-154.984 h 4.9995 l 104.9893,-114.989 9.999,5 v -394.96 l -4.9995,-839.914 q 0,-709.928 84.9913,-934.905 -99.9898,-384.961 -379.9613,-619.937 l -549.944,-414.9578 q -214.9781,-209.9786 -534.9455,-369.9623 -179.9817,-94.9903 -549.944,-254.9741 -449.9542,-209.9786 -1074.8906,-239.9755 l -494.9496,-9.999 -94.9903,104.9893 -269.9725,304.969 -9.999,9.9989 -14.9985,19.998 -29.9969,34.9964 -89.9909,129.9868 -99.9898,169.9827 -9.999,14.9985 q -219.9776,404.9587 -219.9776,714.9271 -4.9994,509.948 19.998,529.946 99.9898,834.915 244.9751,1194.878 l 314.9679,609.938 154.9842,279.972 189.9807,289.97 59.9939,89.991 224.9771,309.969 9.9989,-34.997 29.997,19.998 4.9995,5 14.9984,-5 19.998,14.999 v 64.993 l -34.9964,-5 v 29.997 q -4.9995,19.998 -19.998,0 l -54.9944,-84.991 -234.9761,-344.965 h -34.9964 l -139.9857,-14.998 -134.9863,-24.998 -124.9873,-19.998 -119.9878,-14.998 h -4.9995 l -94.9903,4.999 429.9562,469.952 44.9955,44.996 64.9933,54.994 q 109.9888,89.991 244.9751,149.985 l 144.9852,54.994 139.9858,34.997 h 4.9995 l 89.9908,9.999 14.9985,-5 69.9929,-19.998 59.9938,-4.999 49.995,-5 784.92,-134.986 54.9944,-9.999 h 4.9995 l 469.9522,-104.989 404.9587,-134.986 49.995,-19.998 184.9811,-54.995 34.9965,-14.998 69.9928,-19.998 389.9603,-124.987 q 124.9873,-99.99 219.9776,-239.976 l 9.999,-54.994 q -104.9893,84.991 -384.9608,164.983 l -134.9863,39.996 -9.9989,-9.999 -59.9939,14.998 -184.9812,44.996 -64.9934,9.999 -79.9918,19.998 -109.9888,24.997 v -4.999 l -179.9817,44.995 h -4.9995 l -4.9995,9.999 h -14.9985 l 4.9995,-5 -34.9964,5 -104.9893,24.997 -1409.8565,314.968 q -54.9944,0 -174.9821,-94.99 l -49.995,-39.996 -94.9903,-84.991 -239.9755,-264.973 294.9699,254.974 q 209.9786,174.982 294.97,174.982 l 684.9302,-134.986 709.9278,-174.983 94.9903,-14.998 49.9949,-14.998 4.9995,-24.998 4.9995,-9.999 4.9995,-74.992 -69.9929,-119.988 -4.9995,-5 -39.9959,-69.992 -4.9995,-5 -139.9858,-214.978 -4.9994,-5 -44.9955,-79.991 v -5 l -9.999,-29.997 -4.9994,-24.997 -14.9985,-89.991 44.9954,89.991 v 4.999 q 154.9842,279.972 269.9725,404.959 l 34.9965,29.997 14.9984,14.998 -4.9995,19.998 64.9934,44.996 -29.9969,59.994 19.9979,24.997 -34.9964,49.995 144.9852,-34.996 104.9893,-14.999 34.9965,-4.999 m -624.9364,-499.949 9.999,29.996 -4.9995,-9.998 -4.9995,-19.998 m -1614.8356,814.917 14.9985,24.997 -4.9995,-19.998 v -4.999 l 4.9995,-5 h -19.998 l 4.9995,5 M 2194.5533,3614.719 v -4.999 9.998 -4.999 m -104.9893,179.982 14.9985,-19.998 -4.9995,-14.999 -9.999,34.997"
     fill="#000000"
     fill-rule="evenodd"
     stroke="none"
     id="path2"
     style="stroke-width:99.9898" />
  <path
     d="m 3589.4113,5379.539 269.9725,324.967 29.997,34.997 79.9918,109.988 34.9965,39.996 149.9847,199.98 q -134.9863,-59.994 -244.9751,-149.985 l -64.9933,-54.994 -44.9955,-44.996 -429.9562,-469.952 94.9903,-4.999 h 4.9995 l 119.9878,14.998 m 2314.7643,-449.954 -9.999,-9.999 -64.9933,-94.99 -214.9781,-384.961 -114.9883,-204.979 -9.999,-39.996 14.9985,-24.997 -189.9807,-414.958 -144.9852,-244.975 q -169.9827,-354.964 -149.9848,-754.923 l -29.9969,-154.985 q 49.9949,-149.984 49.9949,-354.9635 0,-239.9756 -14.9985,-379.9613 l 104.9893,-194.9802 h 34.9965 v 24.9975 l -34.9965,554.9435 -4.9995,84.991 q -174.9821,434.956 224.9771,1364.861 284.971,659.933 654.9334,1124.886 l 124.9872,174.982 44.9954,89.991 v 4.999 l 99.9899,144.986 124.9872,199.979 v 14.999 l 79.9919,-24.998 144.9852,-44.995 39.996,-9.999 -39.996,14.998 -144.9852,44.996 -59.9939,14.998 -19.998,44.996 -144.9852,34.996 34.9964,-49.995 -19.9979,-24.997 29.9969,-59.994 -64.9934,-44.996 4.9995,-19.998 -14.9984,-14.998 -34.9965,-29.997 Q 6074.1583,5159.562 5919.1741,4879.59 v -4.999 l -44.9954,-89.991 14.9985,89.991 4.9994,24.997 9.999,29.997"
     fill="#52524b"
     fill-rule="evenodd"
     stroke="none"
     id="path4"
     style="stroke-width:99.9898" />
  <path
     d="m 3589.4113,5379.539 124.9873,19.998 134.9863,24.998 139.9857,14.998 h 34.9964 l 234.9761,344.965 54.9944,84.991 q 14.9985,19.998 19.998,0 v -29.997 l 34.9964,5 v -64.993 l -19.998,-14.999 -14.9984,5 -4.9995,-5 -29.997,-19.998 -9.9989,34.997 -224.9771,-309.969 -59.9939,-89.991 -189.9807,-289.97 -154.9842,-279.972 -314.9679,-609.938 q -144.9853,-359.963 -244.9751,-1194.878 -24.9974,-19.998 -19.998,-529.946 0,-309.9684 219.9776,-714.9271 l 9.999,-14.9985 99.9898,-169.9827 89.9909,-129.9868 29.9969,-34.9964 14.9985,-19.998 9.999,-9.9989 269.9725,-304.969 94.9903,-104.9893 494.9496,9.999 q 624.9364,29.9969 1074.8906,239.9755 369.9623,159.9838 549.944,254.9741 319.9674,159.9837 534.9455,369.9623 l 549.944,414.9578 q 279.9715,234.976 379.9613,619.937 -84.9913,224.977 -84.9913,934.905 l 4.9995,839.914 v 394.96 l -9.999,-5 -104.9893,114.989 h -4.9995 l -214.9781,154.984 -234.9761,99.99 -14.9985,4.999 -69.9928,19.998 -4.9995,-9.999 -224.9771,44.996 h -19.998 l -14.9985,4.999 -104.9893,14.999 19.998,-44.996 59.9939,-14.998 144.9852,-44.996 39.996,-14.998 -39.996,9.999 -144.9852,44.995 -79.9919,24.998 v -14.999 l -124.9872,-199.979 -99.9899,-144.986 v -4.999 l -44.9954,-89.991 -124.9872,-174.982 Q 5634.2031,4359.643 5349.2321,3699.71 4949.2729,2769.805 5124.255,2334.849 l 4.9995,-84.991 34.9965,-554.9435 v -24.9975 h -34.9965 l -104.9893,194.9802 q 14.9985,139.9857 14.9985,379.9613 0,204.9795 -49.9949,354.9635 l 29.9969,154.985 q -19.9979,399.959 149.9848,754.923 l 144.9852,244.975 189.9807,414.958 -14.9985,24.997 9.999,39.996 114.9883,204.979 214.9781,384.961 64.9933,94.99 9.999,9.999 v 5 l 44.9955,79.991 4.9994,5 139.9858,214.978 4.9995,5 39.9959,69.992 4.9995,5 69.9929,119.988 -4.9995,74.992 -4.9995,9.999 -4.9995,24.998 -49.9949,14.998 -94.9903,14.998 -709.9278,174.983 -684.9302,134.986 q -84.9914,0 -294.97,-174.982 l -294.9699,-254.974 239.9755,264.973 94.9903,84.991 49.995,39.996 q 119.9877,94.99 174.9821,94.99 l 1409.8565,-314.968 104.9893,-24.997 34.9964,-5 -4.9995,5 h 14.9985 l 4.9995,-9.999 h 4.9995 l 179.9817,-44.995 v 4.999 l 109.9888,-24.997 64.9934,-14.999 -484.9507,249.975 -469.9521,229.976 -24.9975,19.998 h -4.9995 l -54.9944,9.999 -784.92,134.986 -49.995,5 -59.9938,4.999 -69.9929,19.998 -14.9985,5 -89.9908,-9.999 h -4.9995 l -139.9858,-34.997 -144.9852,-54.994 -149.9847,-199.98 -34.9965,-39.996 -79.9918,-109.988 -29.997,-34.997 -269.9725,-324.967 m 2324.7633,-404.958 4.9995,19.998 4.9995,9.998 -9.999,-29.996 m -1614.8356,814.917 -4.9995,-5 h 19.998 l -4.9995,5 v 4.999 l 4.9995,19.998 -14.9985,-24.997"
     fill="#2c2c27"
     fill-rule="evenodd"
     stroke="none"
     id="path6"
     style="stroke-width:99.9898" />
  <path
     d="m 2924.479,2139.8692 259.9736,-329.9664 29.9969,-39.996 9.999,-9.9989 39.9959,-44.9955 v -4.9994 l 64.9934,-79.9919 -34.9964,64.9934 q -184.9812,299.9694 -254.9741,779.9205 v 504.949 q 219.9776,1224.875 574.9415,1869.809 l 204.9791,284.971 164.9832,234.976 -414.9577,-34.996 -559.943,-699.929 -24.9975,-24.997 -699.9287,-1094.889 29.9969,-79.992 14.9985,-34.996 104.9893,-264.973 69.9929,-169.983 419.9572,-824.9158"
     fill="url(#gradient0)"
     fill-rule="evenodd"
     stroke="none"
     id="path8"
     style="fill:url(#gradient0);stroke-width:99.9898" />
  <path
     d="m 2924.479,2139.8692 -419.9572,824.9158 -69.9929,169.983 -104.9893,264.973 -14.9985,34.996 -29.9969,79.992 699.9287,1094.889 24.9975,24.997 559.943,699.929 -254.9741,-24.998 -359.9633,-449.954 -294.97,-399.959 -14.9985,-19.998 -14.9984,-29.997 -199.9797,-339.965 -119.9878,-184.981 -74.9923,-164.984 -49.9949,-99.99 104.9893,-339.965 9.999,-29.997 44.9954,-84.991 Q 2499.5223,2714.811 2924.479,2139.8692 M 2194.5533,3614.719 v 4.999 -9.998 4.999 m -104.9893,179.982 9.999,-34.997 4.9995,14.999 -14.9985,19.998"
     fill="#d3cebc"
     fill-rule="evenodd"
     stroke="none"
     id="path10"
     style="stroke-width:99.9898" />
  <path
     d="m 5574.2092,6009.475 24.9975,-19.998 469.9521,-229.976 484.9507,-249.975 -64.9934,14.999 79.9918,-19.998 64.9934,-9.999 184.9812,-44.996 59.9939,-14.998 9.9989,9.999 134.9863,-39.996 q 279.9715,-79.992 384.9608,-164.983 l -9.999,54.994 q -94.9903,139.986 -219.9776,239.976 l -389.9603,124.987 -69.9928,19.998 -34.9965,14.998 -184.9811,54.995 -49.995,19.998 -404.9587,134.986 -469.9522,104.989 m 929.9053,-529.946 14.9985,-4.999 h 19.998 l -34.9965,4.999"
     fill="#3d3f4e"
     fill-rule="evenodd"
     stroke="none"
     id="path12"
     style="stroke-width:99.9898" />
  <defs
     id="defs27">
    <linearGradient
       gradientTransform="matrix(0.9399043,-3.3796559,1.4698503,0.40995826,-7059.505,-5689.3312)"
       gradientUnits="userSpaceOnUse"
       id="gradient0"
       spreadMethod="pad"
       x1="-819.20001"
       x2="819.20001">
      <stop
         offset="0.0"
         stop-color="#635b58"
         id="stop22" />
      <stop
         offset="1.0"
         stop-color="#d3cebc"
         id="stop24" />
    </linearGradient>
  </defs>
</svg>
