<?xml version="1.0" encoding="UTF-8" standalone="no"?>
<svg
   xmlns:dc="http://purl.org/dc/elements/1.1/"
   xmlns:cc="http://creativecommons.org/ns#"
   xmlns:rdf="http://www.w3.org/1999/02/22-rdf-syntax-ns#"
   xmlns:svg="http://www.w3.org/2000/svg"
   xmlns="http://www.w3.org/2000/svg"
   xmlns:sodipodi="http://sodipodi.sourceforge.net/DTD/sodipodi-0.dtd"
   xmlns:inkscape="http://www.inkscape.org/namespaces/inkscape"
   height="6415"
   width="8785"
   version="1.1"
   id="svg43"
   sodipodi:docname="G2Angle.svg"
   inkscape:version="1.0.2-2 (e86c870879, 2021-01-15)">
  <metadata
     id="metadata47">
    <rdf:RDF>
      <cc:Work
         rdf:about="">
        <dc:format>image/svg+xml</dc:format>
        <dc:type
           rdf:resource="http://purl.org/dc/dcmitype/StillImage" />
        <dc:title></dc:title>
      </cc:Work>
    </rdf:RDF>
  </metadata>
  <sodipodi:namedview
     pagecolor="#ffffff"
     bordercolor="#666666"
     borderopacity="1"
     objecttolerance="10"
     gridtolerance="10"
     guidetolerance="10"
     inkscape:pageopacity="0"
     inkscape:pageshadow="2"
     inkscape:window-width="1920"
     inkscape:window-height="1017"
     id="namedview45"
     showgrid="false"
     inkscape:zoom="0.032762044"
     inkscape:cx="10182.482"
     inkscape:cy="3416.339"
     inkscape:window-x="-8"
     inkscape:window-y="-8"
     inkscape:window-maximized="1"
     inkscape:current-layer="svg43"
     inkscape:document-rotation="0" />
  <path
     d="m 4740,1455 -5,-45 20,-20 5,10 10,55 h -30"
     fill="#ff0000"
     fill-rule="evenodd"
     stroke="none"
     id="path4"
     style="stroke-width:100" />
  <path
     d="m 3635,2850 15,10 10,10 355,220 q 555,340 680,340 20,0 965,-715 945,-715 1300,-715 60,0 440,290 l 325,285 q -60,-450 -275,-800 l -45,-65 -80,-110 -15,-20 -65,-80 -110,-115 -55,-50 h -5 q -190,-160 -355,-160 l -720,90 -675,115 -805,140 -15,5 -55,10 h -20 l -10,5 -55,10 -165,30 -40,5 -610,680 -200,225 q 115,215 285,360 M 7440,1475 h 25 q 365,520 365,1245 l -15,330 300,225 670,545 q -315,365 -665,690 l -475,385 q -225,160 -445,315 l -105,185 -285,280 q -385,165 -685,255 -620,200 -1570,365 l -700,120 -75,-15 -375,-325 -75,-95 -215,-205 -10,-15 q 55,-25 55,-155 0,-50 -125,-185 l 45,45 -250,-365 -10,-20 -165,-300 -35,-75 -120,-365 -180,-575 190,-285 900,-1205 q 245,-240 515,-540 l 170,-190 470,-145 380,-60 570,-90 135,-25 405,-50 740,-140 115,40 290,225 q 225,175 240,175 m -3580,3080 -5,-5 v -35 l 35,-20 220,-150 q 380,-270 745,-580 l 125,-100 225,-175 220,-150 1420,-960 320,200 q 355,255 585,420 v -55 l -5,-215 -375,-375 q -345,-300 -400,-300 -320,0 -1280,715 l -1005,715 q -115,0 -690,-375 l -370,-260 q -235,-185 -315,-315 -230,275 -405,555 l -195,270 -195,315 -45,125 5,75 -15,35 -5,25 40,120 45,230 60,190 20,35 5,5 85,200 25,45 70,145 15,25 75,155 75,100 230,325 10,10 65,85 90,105 210,60 q 200,0 550,-140 315,-130 510,-265 225,130 605,275 345,120 535,195 l 255,-75 -15,-5 h -5 q -530,-175 -985,-405 l -110,-55 40,15 -110,-60 20,15 q -300,-165 -570,-350 l -190,-155 -245,-205 m 4760,-590 75,-70 10,-35 q 10,-40 -110,-155 -205,-195 -770,-595 l -15,-10 -65,-50 -840,-565 q -160,5 -1435,895 l -1175,850 -330,260 35,40 205,215 265,225 300,170 20,15 170,90 65,40 h 5 q 735,390 1105,390 225,-10 640,-255 l 465,-310 455,-350 q 495,-395 925,-795 m -410,240 5,5 -470,480 -335,270 -160,120 -175,120 -315,200 -295,155 -95,15 -95,-15 h -5 l -75,-25 q -370,-125 -690,-295 l 25,10 -70,-40 5,5 q -205,-110 -390,-240 l -150,-125 -30,-25 -120,-105 -5,-25 h 5 l 95,-65 295,-215 305,-240 85,-70 155,-125 150,-100 990,-670 q 170,95 225,135 l 665,485 250,205 220,175 M 6430,5495 q 310,-65 1020,-630 l 700,-605 v -25 q 20,-70 -615,-520 l -640,-440 q -110,0 -1000,625 -815,570 -1045,775 h -5 l 90,95 260,240 210,120 q 605,345 905,370 h 50 10 l 45,-5 h 15 m -2330,175 q -485,185 -575,185 l -50,-10 175,185 220,145 85,-5 195,10 710,-140 635,-125 65,-25 150,-35 -515,-195 q -435,-180 -515,-180 -95,0 -580,190"
     fill="#000000"
     fill-rule="evenodd"
     stroke="none"
     id="path10"
     style="stroke-width:100" />
  <path
     d="m 3635,2850 405,-425 q 1050,-980 2120,-980 h 15 l 385,-25 q 230,0 645,105 l 75,20 -35,-45 65,80 15,20 80,110 45,65 q 215,350 275,800 l -325,-285 q -380,-290 -440,-290 -355,0 -1300,715 -945,715 -965,715 -125,0 -680,-340 l -355,-220 -10,-10 -15,-10 m 365,1680 -35,-40 330,-260 1175,-850 q 1275,-890 1435,-895 l 840,565 65,50 15,10 q 565,400 770,595 120,115 110,155 l -10,35 -75,70 -350,205 -545,-490 q -700,-565 -820,-565 -115,0 -1105,675 -775,525 -1165,880 l -325,-65 -310,-75"
     fill="#2c2c27"
     fill-rule="evenodd"
     stroke="none"
     id="path12"
     style="stroke-width:100" />
  <path
     d="m 7245,1500 35,45 -75,-20 q -415,-105 -645,-105 l -385,25 h -15 q -1070,0 -2120,980 l -405,425 q -170,-145 -285,-360 l 200,-225 610,-680 40,-5 165,-30 55,-10 10,-5 h 20 l 55,-10 15,-5 805,-140 675,-115 720,-90 q 165,0 355,160 h 5 l 55,50 110,115"
     fill="#3d3f4e"
     fill-rule="evenodd"
     stroke="none"
     id="path14"
     style="stroke-width:100" />
  <path
     d="m 3625,2850 370,260 q 575,375 690,375 l 1005,-715 q 960,-715 1280,-715 55,0 400,300 l 375,375 5,215 v 55 q -230,-165 -585,-420 l -320,-200 -1420,960 -220,150 -225,175 -125,100 q -365,310 -745,580 l -220,150 -35,20 v 35 l 5,5 q -430,-55 -940,-325 -275,-145 -460,-320 l 15,-35 -5,-75 45,-125 195,-315 100,-40 q 480,-190 540,-240 l 275,-230"
     fill="url(#gradient0)"
     fill-rule="evenodd"
     stroke="none"
     id="path16"
     style="fill:url(#gradient0);stroke-width:100" />
  <path
     d="m 3625,2850 -275,230 q -60,50 -540,240 l -100,40 195,-270 q 175,-280 405,-555 80,130 315,315"
     fill="#807571"
     fill-rule="evenodd"
     stroke="none"
     id="path18"
     style="stroke-width:100" />
  <path
     d="m 4850,4675 q 230,-205 1045,-775 890,-625 1000,-625 l 640,440 q 635,450 615,520 v 25 l -700,605 q -710,565 -1020,630 l 510,-605 -420,-25 80,5 q 175,-105 435,-310 l 450,-390 5,-15 q 10,-45 -395,-335 l -410,-280 q -70,0 -650,400 l -665,495 50,60 165,160 140,75 180,95 -220,-20 -835,-130"
     fill="#cf0e48"
     fill-rule="evenodd"
     stroke="none"
     id="path20"
     style="stroke-width:100" />
  <path
     d="m 5905,4825 -180,-95 -140,-75 -165,-160 -50,-60 665,-495 q 580,-400 650,-400 l 410,280 q 405,290 395,335 l -5,15 -450,390 q -260,205 -435,310 l -80,-5 -615,-40"
     fill="#761432"
     fill-rule="evenodd"
     stroke="none"
     id="path22"
     style="stroke-width:100" />
  <path
     d="m 4000,4530 310,75 325,65 q 390,-355 1165,-880 990,-675 1105,-675 120,0 820,565 l 545,490 350,-205 q -430,400 -925,795 l -455,350 -465,310 q -415,245 -640,255 -370,0 -1105,-390 l 590,115 155,35 -195,-105 -610,-345 -150,-100 -95,5 q -140,0 -415,-120 l -105,-25 -205,-215 m 4210,-325 -220,-175 -250,-205 -665,-485 q -55,-40 -225,-135 l -990,670 -150,100 -155,125 -85,70 -305,240 -295,215 -95,65 h -5 l 5,25 120,105 30,25 150,125 q 185,130 390,240 l -5,-5 70,40 -25,-10 q 320,170 690,295 l 75,25 h 5 l 95,15 95,-15 295,-155 315,-200 175,-120 160,-120 335,-270 470,-480 -5,-5 M 4100,5670 q 485,-190 580,-190 80,0 515,180 l 515,195 -150,35 -65,25 -635,125 -710,140 -195,-10 -85,5 -220,-145 -175,-185 50,10 q 90,0 575,-185"
     fill="#52524b"
     fill-rule="evenodd"
     stroke="none"
     id="path24"
     style="stroke-width:100" />
  <path
     d="m 6430,5495 h -15 l -45,5 h -10 -50 q -300,-25 -905,-370 l -210,-120 -260,-240 -90,-95 h 5 l 835,130 220,20 615,40 420,25 -510,605"
     fill="#f3a68b"
     fill-rule="evenodd"
     stroke="none"
     id="path26"
     style="stroke-width:100" />
  <path
     d="m 5030,5285 h -5 l -65,-40 -170,-90 -20,-15 -300,-170 -265,-225 105,25 q 275,120 415,120 l 95,-5 150,100 610,345 195,105 -155,-35 -590,-115"
     fill="#808279"
     fill-rule="evenodd"
     stroke="none"
     id="path28"
     style="stroke-width:100" />
  <path
     d="m 2460,3910 q 185,175 460,320 510,270 940,325 l 245,205 -45,25 q -320,195 -520,195 -355,0 -705,-195 l -125,-70 -85,-200 -5,-5 -20,-35 -60,-190 -45,-230 -40,-120 5,-25 m 2565,1440 q 455,230 985,405 h 5 l 15,5 -255,75 q -190,-75 -535,-195 -380,-145 -605,-275 -195,135 -510,265 -350,140 -550,140 l -210,-60 -90,-105 40,45 q 190,-245 360,-245 l 750,-115 600,60"
     fill="#d3cebc"
     fill-rule="evenodd"
     stroke="none"
     id="path30"
     style="stroke-width:100" />
  <path
     d="m 4105,4760 190,155 q 270,185 570,350 l -20,-15 110,60 -40,-15 110,55 -600,-60 -750,115 q -170,0 -360,245 l -40,-45 -65,-85 -10,-10 -230,-325 -75,-100 -75,-155 -15,-25 -70,-145 -25,-45 125,70 q 350,195 705,195 200,0 520,-195 l 45,-25"
     fill="#fcfcf8"
     fill-rule="evenodd"
     stroke="none"
     id="path32"
     style="stroke-width:100" />
  <defs
     id="defs41">
    <linearGradient
       gradientTransform="matrix(0.94,-3.38,1.47,0.41,5580,1600)"
       gradientUnits="userSpaceOnUse"
       id="gradient0"
       spreadMethod="pad"
       x1="-819.20001"
       x2="819.20001">
      <stop
         offset="0.0"
         stop-color="#635b58"
         id="stop36" />
      <stop
         offset="1.0"
         stop-color="#d3cebc"
         id="stop38" />
    </linearGradient>
  </defs>
</svg>
