<?xml version="1.0" encoding="UTF-8" standalone="no"?>
<svg
   xmlns:dc="http://purl.org/dc/elements/1.1/"
   xmlns:cc="http://creativecommons.org/ns#"
   xmlns:rdf="http://www.w3.org/1999/02/22-rdf-syntax-ns#"
   xmlns:svg="http://www.w3.org/2000/svg"
   xmlns="http://www.w3.org/2000/svg"
   xmlns:sodipodi="http://sodipodi.sourceforge.net/DTD/sodipodi-0.dtd"
   xmlns:inkscape="http://www.inkscape.org/namespaces/inkscape"
   height="6465"
   width="9355"
   version="1.1"
   id="svg46"
   sodipodi:docname="GAngle.svg"
   inkscape:version="1.0.2-2 (e86c870879, 2021-01-15)">
  <metadata
     id="metadata50">
    <rdf:RDF>
      <cc:Work
         rdf:about="">
        <dc:format>image/svg+xml</dc:format>
        <dc:type
           rdf:resource="http://purl.org/dc/dcmitype/StillImage" />
        <dc:title></dc:title>
      </cc:Work>
    </rdf:RDF>
  </metadata>
  <sodipodi:namedview
     pagecolor="#ffffff"
     bordercolor="#666666"
     borderopacity="1"
     objecttolerance="10"
     gridtolerance="10"
     guidetolerance="10"
     inkscape:pageopacity="0"
     inkscape:pageshadow="2"
     inkscape:window-width="1920"
     inkscape:window-height="1017"
     id="namedview48"
     showgrid="false"
     inkscape:zoom="0.030765852"
     inkscape:cx="-4390.6088"
     inkscape:cy="-92.472709"
     inkscape:window-x="-8"
     inkscape:window-y="-8"
     inkscape:window-maximized="1"
     inkscape:current-layer="svg46"
     inkscape:document-rotation="0" />
  <path
     d="m 7715,765 h -10 l 130,280 260,605 25,40 95,155 90,65 240,175 q 400,325 740,670 l 50,100 20,30 -35,25 q -360,370 -785,715 l -395,300 -10,15 v 5 l -140,300 h 5 l -10,10 -150,340 -235,445 -170,65 -335,140 -290,60 -65,-15 q -110,0 -870,175 l -695,180 -150,15 -305,-5 -115,-90 q -270,-210 -360,-250 -45,-100 -275,-340 l -510,-575 -420,-635 -85,-135 q -15,-85 -260,-515 l -150,-255 15,-30 q 315,-580 380,-735 105,-195 220,-500 120,-120 465,-545 290,-365 405,-545 -340,-20 -300,-135 30,-85 175,-115 h 10 l 90,-15 h 40 l 25,-25 60,-60 135,-120 90,-5 590,-30 q 615,0 1335,180 l 100,25 60,15 h 10 q 550,145 1170,390 l 100,155 h -5 m 55,530 h 5 l -30,-55 -15,-30 L 7470,710 7020,595 6055,355 Q 5495,245 5120,255 l -80,5 -175,5 -465,50 h -15 l -35,30 -105,100 q -10,40 -40,55 l -15,5 -375,405 v 5 l 30,-25 40,-5 -30,25 65,40 10,25 q 590,240 900,415 165,80 200,80 h 5 l 55,20 q 40,0 225,-135 l 470,-280 q 120,-65 230,-125 l 515,-240 55,-20 125,-30 h 5 15 q 60,0 275,125 l 395,255 50,35 120,85 q 5,10 20,10 l 125,85 25,25 40,30 -10,-15 m -3790,1580 10,-20 50,-100 75,-70 670,-600 Q 5510,1515 6635,905 v -5 h 5 l 10,-5 10,5 15,-5 10,5 h 5 v 5 l 1110,660 50,35 50,30 80,55 -15,-45 -25,-10 -10,-20 q -35,-40 -70,-40 l -40,-45 140,95 -145,-255 -150,-110 -110,-75 -170,-125 -405,-260 q -145,-75 -205,-75 -245,0 -710,225 l -215,115 -395,235 40,-20 q -95,65 -200,135 l -215,140 -35,15 q -155,-130 -505,-280 -305,-140 -615,-235 l -225,25 -25,20 h -10 l -5,5 -385,620 -535,945 -115,205 370,635 15,20 65,110 20,30 180,290 140,225 170,255 55,80 85,115 25,25 50,55 h 5 l 20,20 215,25 q 290,-95 585,-235 325,-150 470,-280 l 35,15 200,140 210,145 -55,-30 375,235 q 105,60 200,115 435,225 670,225 55,0 190,-75 265,-155 830,-610 l 75,-125 45,-130 15,-45 q -35,15 -65,40 -500,325 -1115,660 v 15 l -40,5 h -10 l -35,-5 v -15 Q 5845,4385 5260,3975 h 5 l -95,-60 -85,-65 -295,-225 -355,-305 -165,-145 -265,-265 -30,-25 5,-10 m 3645,-865 10,25 55,20 15,35 q 40,20 75,35 l 20,40 70,35 35,5 165,125 510,465 30,65 5,5 15,15 v 5 l -25,15 -545,500 -270,210 -10,10 h -20 l -70,60 -90,80 15,-30 -45,30 q -350,225 -775,455 v 15 h -55 v -15 q -540,-285 -945,-570 h 5 l -65,-45 -60,-45 -205,-155 -245,-215 -110,-100 -185,-185 -20,-15 v -10 l 10,-10 35,-70 50,-50 465,-415 q 500,-400 1280,-825 l 10,-5 5,5 10,-5 10,5 770,460 5,15 30,10 35,20 m -865,2155 q 90,-15 295,-125 l 680,-460 275,-210 285,-245 270,-260 -135,-125 -20,-25 -395,-350 -80,-65 -95,-70 -315,-220 -400,-275 -95,-50 -265,-130 -5,5 -15,-5 -495,275 -15,10 q -500,325 -750,525 l -130,110 -90,75 -130,120 -15,15 -175,165 -15,15 185,170 380,335 145,115 180,125 10,10 500,345 395,200 h 5 15 15 m 2475,-1285 25,-25 -190,-180 -35,-30 -570,-505 Q 8055,1810 7180,1235 l -140,-70 -380,-190 -10,10 -20,-10 q -350,205 -715,395 l -25,15 q -720,470 -1080,755 l -510,440 -20,20 -220,205 -55,50 265,250 550,475 490,365 720,490 570,290 h 30 q 125,0 445,-180 950,-615 1385,-965 l 410,-350 365,-350 m -1515,1585 -360,265 -415,290 q -200,125 -265,125 -155,0 -670,-290 l -215,-125 -445,-280 q -175,-135 -210,-135 l -55,20 h -5 q -30,0 -185,75 -290,180 -850,415 l -10,30 -60,40 30,25 345,350 q 305,250 625,250 l 375,-60 h 15 l 155,-25 950,-165 q 525,-110 940,-285 55,-30 235,-370 l 75,-150 m -3620,700 25,75 -825,50 -235,-20 -315,-5 -10,-20 375,-40 835,-55 150,15"
     fill="#000000"
     fill-rule="evenodd"
     stroke="none"
     id="path8"
     style="stroke-width:100" />
  <path
     d="m 7625,2010 -10,-15 -25,-5 -30,-10 -5,-15 -770,-460 -10,-5 -10,5 -5,-5 -10,5 q -780,425 -1280,825 l -465,415 -50,50 -35,70 -10,10 v 10 l 20,15 185,185 110,100 245,215 205,155 60,45 65,45 h -5 q 405,285 945,570 v 15 h 55 v -15 q 425,-230 775,-455 l 45,-30 -15,30 90,-80 70,-60 h 20 l 10,-10 270,-210 545,-500 25,-15 v -5 h 10 l -25,-20 -15,-30 10,30 -30,-65 -510,-465 -165,-125 -35,-5 -70,-35 -20,-40 q -35,-15 -75,-35 l -15,-35 -55,-20 -10,-25 m -895,2155 h -5 l -395,-200 -500,-345 -10,-10 510,350 245,125 155,80 M 5355,2475 5485,2365 q 250,-200 750,-525 l 15,-10 495,-275 15,5 5,-5 265,130 95,50 400,275 -400,-265 -95,-55 -265,-125 -5,5 -10,-5 q -240,135 -505,270 l -15,10 -745,525 -130,105 m -1295,330 -45,45 h 500 l 130,5 30,-35 -5,10 h 15 l 555,-475 480,-385 355,-240 5,-5 50,-25 660,-325 h 5 q 75,0 1020,695 855,630 960,805 l 460,5 -365,350 -410,350 q -435,350 -1385,965 -320,180 -445,180 h -30 l -570,-290 -720,-490 385,-105 240,25 -535,-415 -500,-425 q -80,155 -265,155 l -285,-55 -80,-20 -265,-250 55,-50 m 3660,1660 -75,150 q -180,340 -235,370 -415,175 -940,285 l -950,165 -155,25 h -15 l -375,60 q -320,0 -625,-250 l -345,-350 -30,-25 60,-40 10,-30 q 560,-235 850,-415 155,-75 185,-75 h 5 l 55,-20 q 35,0 210,135 l 445,280 215,125 q 515,290 670,290 65,0 265,-125 l 415,-290 360,-265"
     fill="#52524b"
     fill-rule="evenodd"
     stroke="none"
     id="path10"
     style="stroke-width:100" />
  <path
     d="m 5040,260 275,55 q 530,85 1215,395 l -515,240 q -110,60 -230,125 l -470,280 q -185,135 -225,135 l -55,-20 h -5 q -35,0 -200,-80 -310,-175 -900,-415 l -10,-25 -65,-40 30,-25 -40,5 -30,25 v -5 l 375,-405 15,-5 q 30,-15 40,-55 l 105,-100 35,-30 h 15 l 465,-50 175,-5 m 2700,1020 30,15 10,15 -40,-30 m 870,1580 -10,-30 15,30 25,20 h -10 l -15,-15 -5,-5 m -480,20 h -5 l -5,-10 -10,-20 10,15 10,15 m -4070,-75 220,-205 20,-20 510,-440 q 360,-285 1080,-755 l 25,-15 q 365,-190 715,-395 l 20,10 10,-10 380,190 140,70 q 875,575 1285,905 l 570,505 35,30 190,180 -25,25 -460,-5 Q 8670,2700 7815,2070 6870,1375 6795,1375 h -5 l -660,325 -50,25 -5,5 -355,240 -480,385 -555,475 h -15 l 5,-10 -30,35 -130,-5 h -500 l 45,-45"
     fill="#2c2c27"
     fill-rule="evenodd"
     stroke="none"
     id="path12"
     style="stroke-width:100" />
  <path
     d="m 5040,260 80,-5 q 375,-10 935,100 l 965,240 450,115 260,500 15,30 30,55 h -5 l -30,-15 -25,-25 -125,-85 q -15,0 -20,-10 l -120,-85 -50,-35 -395,-255 Q 6790,660 6730,660 h -15 -5 l -125,30 -55,20 Q 5845,400 5315,315 l -275,-55"
     fill="#3d3f4e"
     fill-rule="evenodd"
     stroke="none"
     id="path14"
     style="stroke-width:100" />
  <path
     d="m 2625,2870 115,-205 535,-945 385,-620 5,-5 h 10 l 25,-20 225,-25 q 310,95 615,235 350,150 505,280 l 35,-15 215,-140 q 105,-70 200,-135 l -40,20 395,-235 215,-115 q 465,-225 710,-225 60,0 205,75 l 405,260 170,125 110,75 150,110 145,255 -140,-95 40,45 q 35,0 70,40 l 10,20 25,10 15,45 -80,-55 -50,-30 -50,-35 -1110,-660 v -5 h -5 l -10,-5 -15,5 -10,-5 -10,5 h -5 v 5 Q 5510,1515 4785,2085 l -670,600 -75,70 -50,100 -10,20 H 2870 2630 l -5,-5"
     fill="url(#gradient0)"
     fill-rule="evenodd"
     stroke="none"
     id="path16"
     style="fill:url(#gradient0);stroke-width:100" />
  <path
     d="m 7590,1990 25,5 10,15 -35,-20"
     fill="url(#gradient1)"
     fill-rule="evenodd"
     stroke="none"
     id="path18"
     style="fill:url(#gradient1);stroke-width:100" />
  <path
     d="m 7525,2010 315,220 95,70 80,65 395,350 20,25 135,125 -270,260 -285,245 -275,210 -680,460 q -205,110 -295,125 v -500 l 180,-80 595,-415 180,-150 170,-160 -80,-85 -265,-225 -555,-390 -65,-35 -160,-75 h -10 l -315,165 -10,5 -465,330 -265,225 -70,75 h -5 -115 -560 l 175,-165 15,-15 130,-120 90,-75 130,-105 745,-525 15,-10 q 265,-135 505,-270 l 10,5 5,-5 265,125 95,55 400,265 m 605,870 -10,-15 -10,-15 10,20 5,10 h 5"
     fill="#cf0e48"
     fill-rule="evenodd"
     stroke="none"
     id="path20"
     style="stroke-width:100" />
  <path
     d="m 5625,2850 70,-75 265,-225 465,-330 10,-5 315,-165 h 10 l 160,75 65,35 555,390 265,225 80,85 -170,160 -180,150 -595,415 -180,80 v -805 l -240,-20 v 10 l -590,-5 -305,5"
     fill="#761432"
     fill-rule="evenodd"
     stroke="none"
     id="path22"
     style="stroke-width:100" />
  <path
     d="m 3980,2875 -5,10 30,25 265,265 -75,75 -110,100 q -285,215 -600,215 l -430,-55 -60,-5 -370,-635 5,5 h 240 1110 m 1280,1100 q 585,410 1360,825 v 15 l 35,5 h 10 l 40,-5 v -15 q 615,-335 1115,-660 30,-25 65,-40 l -15,45 -45,130 -75,125 q -565,455 -830,610 -135,75 -190,75 -235,0 -670,-225 -95,-55 -200,-115 l -375,-235 55,30 -210,-145 -200,-140 -35,-15 q -145,130 -470,280 -295,140 -585,235 l -215,-25 -20,-20 h -5 l -50,-55 -25,-25 -85,-115 65,-140 q 265,-505 955,-505 l 195,30 70,20 285,50 50,5"
     fill="#d3cebc"
     fill-rule="evenodd"
     stroke="none"
     id="path24"
     style="stroke-width:100" />
  <path
     d="m 6760,4165 h -15 -15 l -155,-80 -245,-125 -510,-350 -180,-125 -145,-115 -380,-335 -185,-170 15,-15 h 560 115 5 l 305,-5 590,5 v -10 l 240,20 v 805 500"
     fill="#f3a68b"
     fill-rule="evenodd"
     stroke="none"
     id="path26"
     style="stroke-width:100" />
  <path
     d="m 5310,3945 -490,-365 -550,-475 80,20 285,55 q 185,0 265,-155 l 500,425 535,415 -240,-25 -385,105"
     fill="#808279"
     fill-rule="evenodd"
     stroke="none"
     id="path28"
     style="stroke-width:100" />
  <path
     d="m 4270,3175 165,145 355,305 295,225 85,65 95,60 h -5 l -50,-5 -285,-50 -70,-20 -195,-30 q -690,0 -955,505 l -65,140 -55,-80 -170,-255 -140,-225 -180,-290 -20,-30 -65,-110 -15,-20 60,5 430,55 q 315,0 600,-215 l 110,-100 75,-75"
     fill="#fcfcf8"
     fill-rule="evenodd"
     stroke="none"
     id="path30"
     style="stroke-width:100" />
  <defs
     id="defs44">
    <linearGradient
       gradientTransform="matrix(0.96,-3.51,1.5,0.42,7060,-625)"
       gradientUnits="userSpaceOnUse"
       id="gradient0"
       spreadMethod="pad"
       x1="-819.20001"
       x2="819.20001">
      <stop
         offset="0.0"
         stop-color="#635b58"
         id="stop34" />
      <stop
         offset="1.0"
         stop-color="#d3cebc"
         id="stop36" />
    </linearGradient>
    <linearGradient
       gradientTransform="matrix(0.67,-2.44,1.04,0.29,7040,440)"
       gradientUnits="userSpaceOnUse"
       id="gradient1"
       spreadMethod="pad"
       x1="-819.20001"
       x2="819.20001">
      <stop
         offset="0.0"
         stop-color="#635b58"
         id="stop39" />
      <stop
         offset="1.0"
         stop-color="#d3cebc"
         id="stop41" />
    </linearGradient>
  </defs>
</svg>
