<?xml version="1.0" encoding="UTF-8" standalone="no"?>
<svg
   xmlns:dc="http://purl.org/dc/elements/1.1/"
   xmlns:cc="http://creativecommons.org/ns#"
   xmlns:rdf="http://www.w3.org/1999/02/22-rdf-syntax-ns#"
   xmlns:svg="http://www.w3.org/2000/svg"
   xmlns="http://www.w3.org/2000/svg"
   xmlns:sodipodi="http://sodipodi.sourceforge.net/DTD/sodipodi-0.dtd"
   xmlns:inkscape="http://www.inkscape.org/namespaces/inkscape"
   height="5140"
   width="7825"
   version="1.1"
   id="svg33"
   sodipodi:docname="PDAngle.svg"
   inkscape:version="1.0.2-2 (e86c870879, 2021-01-15)">
  <metadata
     id="metadata37">
    <rdf:RDF>
      <cc:Work
         rdf:about="">
        <dc:format>image/svg+xml</dc:format>
        <dc:type
           rdf:resource="http://purl.org/dc/dcmitype/StillImage" />
        <dc:title></dc:title>
      </cc:Work>
    </rdf:RDF>
  </metadata>
  <sodipodi:namedview
     pagecolor="#ffffff"
     bordercolor="#666666"
     borderopacity="1"
     objecttolerance="10"
     gridtolerance="10"
     guidetolerance="10"
     inkscape:pageopacity="0"
     inkscape:pageshadow="2"
     inkscape:window-width="1920"
     inkscape:window-height="1017"
     id="namedview35"
     showgrid="false"
     inkscape:zoom="0.10403355"
     inkscape:cx="2891.0231"
     inkscape:cy="2229.1339"
     inkscape:window-x="-8"
     inkscape:window-y="-8"
     inkscape:window-maximized="1"
     inkscape:current-layer="svg33"
     inkscape:document-rotation="0" />
  <path
     d="m 7225,1180 250,300 q 5,75 165,370 185,335 185,515 0,70 -330,785 -375,795 -455,1045 l -60,180 -200,305 -195,260 -55,65 -95,100 -105,35 -375,-40 -115,15 -250,-35 h -5 l -510,-55 -640,-145 -390,-65 -65,-10 -360,-100 -155,-90 -100,35 q -60,0 -185,-95 l -710,-720 -265,-305 -300,-285 -100,-90 -325,-390 50,-235 245,-565 q 345,-770 885,-1145 l 170,-80 660,-215 475,-160 Q 5110,0 5335,0 q 90,0 650,365 460,305 645,510 365,130 555,290 l 40,15 m -4810,685 h 10 10 v -5 h 5 15 l 165,-45 140,-45 15,-5 210,-85 45,-25 30,-10 q 45,-15 70,-40 l 45,-15 25,-40 65,-95 165,-35 285,-15 315,-35 1270,-80 940,105 75,5 460,65 290,65 10,5 115,25 40,5 145,40 h 5 l 10,5 -220,-260 -205,-125 q -155,-85 -310,-150 L 6355,965 6265,940 Q 5920,840 5155,740 l -1040,-115 -75,-10 -250,30 -120,35 -395,105 -30,10 -180,50 -25,15 -95,55 -105,70 -135,95 -125,175 -175,475 -5,20 v 95 q -20,15 15,20 m 1440,-440 -225,25 -155,10 -60,5 q -135,0 -230,120 l 10,5 -60,45 -10,30 v 15 l -5,10 -70,170 -55,200 -75,310 v 505 l 20,120 15,45 q 10,300 50,460 v 20 l 195,310 45,75 5,10 15,20 95,160 q 300,285 710,445 l 490,135 790,125 390,105 h 20 l 20,-5 h 15 60 l 335,50 335,-50 q 215,-240 540,-900 -170,-95 -500,-210 l -450,-145 -20,-5 -85,-50 -105,-105 155,15 q 35,10 65,30 h 10 v 5 q 40,25 65,65 v 5 l 60,55 285,105 q 375,130 470,130 l 105,-15 h 5 l 105,-230 510,-1135 -60,-270 -30,-135 -95,-210 -125,-205 -195,-70 -65,-10 -445,-90 -640,-115 v -10 l -310,-45 -460,-15 -460,20 h -130 l -800,55 -70,10 M 1780,2750 v 10 5 l 110,135 455,485 320,340 q 20,0 50,30 100,-155 200,-220 l -20,-10 30,-10 15,-15 v -20 q -30,-120 -40,-405 l -25,-175 -5,-15 5,-520 115,-455 10,-35 5,-20 120,-190 -140,65 -155,50 -70,20 -80,25 -30,5 -15,5 -55,20 -50,20 -155,30 h -10 l 5,-20 q 60,-455 210,-700 l -75,65 q -200,205 -450,690 -190,375 -250,630 l -5,30 -20,150 m 3895,-1975 275,25 195,35 45,-5 15,-20 -120,-95 -115,-95 -15,-5 -70,-45 -560,-350 -120,25 -40,10 -205,50 -20,5 -15,5 -20,5 -10,5 -25,5 -210,60 -220,65 h 25 l -30,10 -60,10 5,5 h -15 l -160,40 v 35 h 15 l 15,5 245,35 h 20 l 185,30 135,20 125,20 90,15 485,75 120,15 35,5 M 3155,3605 v -90 l 25,175 -25,-85 m 80,350 -25,-35 -220,-365 -15,10 -25,-15 -110,135 -110,110 200,225 260,240 225,210 50,-45 q 0,-100 -205,-430 l -25,-40"
     fill="#000000"
     fill-rule="evenodd"
     stroke="none"
     id="path2"
     style="stroke-width:100" />
  <path
     d="m 7230,1565 -35,-15 Q 6770,1360 6195,1245 5355,1075 4325,1075 l -940,45 -80,10 -100,55 -175,120 -265,210 -350,350 q -35,-5 -15,-20 v -95 l 5,-20 175,-475 125,-175 135,-95 105,-70 95,-55 25,-15 180,-50 30,-10 395,-105 120,-35 250,-30 75,10 1040,115 q 765,100 1110,200 l 90,25 300,110 q 155,65 310,150 l 205,125 220,260 -10,-5 h -5 l -145,-40 m -60,50 -20,20 -80,10 -520,-70 -15,-5 h -25 l -285,30 15,15 30,35 -920,40 -175,30 -10,-15 -160,10 -565,40 -915,60 h -5 l 210,-250 125,-140 70,-10 800,-55 h 130 l 460,-20 460,15 310,45 v 10 l 640,115 445,90"
     fill="#52524b"
     fill-rule="evenodd"
     stroke="none"
     id="path4"
     style="stroke-width:100" />
  <path
     d="m 7230,1565 -40,-5 -115,-25 -10,-5 -290,-65 -460,-65 -75,-5 -940,-105 -1270,80 -315,35 -285,15 -165,35 -65,95 -25,40 -45,15 q -25,25 -70,40 l -30,10 -45,25 -210,85 -15,5 -140,45 -165,45 h -15 -5 v 5 h -10 -10 l 350,-350 265,-210 175,-120 100,-55 80,-10 940,-45 q 1030,0 1870,170 575,115 1000,305 l 35,15 m -60,50 65,10 195,70 125,205 95,210 30,135 60,270 -510,1135 -105,230 h -5 l -105,15 q -95,0 -470,-130 l -285,-105 -60,-55 v -5 q -25,-40 -65,-65 v -5 h -10 q -30,-20 -65,-30 l -155,-15 105,105 85,50 20,5 450,145 q 330,115 500,210 -325,660 -540,900 l -335,50 -335,-50 h -60 -15 l -20,5 h -20 l -390,-105 -790,-125 -490,-135 q -410,-160 -710,-445 l -95,-160 -15,-20 -5,-10 -45,-75 -195,-310 v -20 q -40,-160 -50,-460 l -15,-45 -20,-120 v -505 l 75,-310 55,-200 70,-170 5,-10 v -15 l 10,-30 60,-45 -10,-5 q 95,-120 230,-120 l 60,-5 155,-10 225,-25 -125,140 -210,250 h 5 l 915,-60 565,-40 160,-10 10,15 175,-30 920,-40 -30,-35 -15,-15 285,-30 h 25 l 15,5 520,70 80,-10 20,-20 m -4015,1990 25,85 -25,-175 v 90 m 80,350 25,40 q 205,330 205,430 l -50,45 -225,-210 -260,-240 -200,-225 110,-110 110,-135 25,15 15,-10 220,365 25,35"
     fill="#2c2c27"
     fill-rule="evenodd"
     stroke="none"
     id="path6"
     style="stroke-width:100" />
  <path
     d="m 2375,1905 155,-30 50,-20 55,-20 15,-5 30,-5 80,-25 70,-20 155,-50 140,-65 -120,190 -5,20 -10,35 -115,455 -5,520 5,15 25,175 q 10,285 40,405 v 20 l -15,15 -30,10 20,10 q -100,65 -200,220 -30,-30 -50,-30 l -320,-340 -455,-485 -110,-135 v -5 -10 l 540,-770 55,-75"
     fill="url(#gradient0)"
     fill-rule="evenodd"
     stroke="none"
     id="path8"
     style="fill:url(#gradient0);stroke-width:100" />
  <path
     d="m 2375,1905 -55,75 -540,770 20,-150 5,-30 q 60,-255 250,-630 250,-485 450,-690 l 75,-65 q -150,245 -210,700 l -5,20 h 10"
     fill="#d3cebc"
     fill-rule="evenodd"
     stroke="none"
     id="path10"
     style="stroke-width:100" />
  <path
     d="m 5205,245 120,-25 560,350 70,45 15,5 115,95 120,95 -15,20 -45,5 -195,-35 -275,-25 -160,-130 q -295,-235 -325,-235 -50,0 -245,120 l -170,110 45,5 -135,-20 495,-370 -40,20 65,-30"
     fill="#cf0e48"
     fill-rule="evenodd"
     stroke="none"
     id="path12"
     style="stroke-width:100" />
  <path
     d="m 5205,245 -65,30 40,-20 -495,370 -185,-30 h -20 l -245,-35 -15,-5 h -15 v -35 l 160,-40 h 15 l -5,-5 60,-10 30,-10 h -25 l 220,-65 210,-60 25,-5 10,-5 20,-5 15,-5 20,-5 205,-50 40,-10"
     fill="#f3a68b"
     fill-rule="evenodd"
     stroke="none"
     id="path14"
     style="stroke-width:100" />
  <path
     d="m 4820,645 -45,-5 170,-110 q 195,-120 245,-120 30,0 325,235 l 160,130 -35,-5 -120,-15 -485,-75 -90,-15 -125,-20"
     fill="#761432"
     fill-rule="evenodd"
     stroke="none"
     id="path16"
     style="stroke-width:100" />
  <defs
     id="defs31">
    <linearGradient
       gradientTransform="matrix(0.94,-3.38,1.47,0.41,3960,-7135)"
       gradientUnits="userSpaceOnUse"
       id="gradient0"
       spreadMethod="pad"
       x1="-819.20001"
       x2="819.20001">
      <stop
         offset="0.0"
         stop-color="#635b58"
         id="stop26" />
      <stop
         offset="1.0"
         stop-color="#d3cebc"
         id="stop28" />
    </linearGradient>
  </defs>
</svg>
