<?xml version="1.0" encoding="UTF-8" standalone="no"?>
<svg
   xmlns:dc="http://purl.org/dc/elements/1.1/"
   xmlns:cc="http://creativecommons.org/ns#"
   xmlns:rdf="http://www.w3.org/1999/02/22-rdf-syntax-ns#"
   xmlns:svg="http://www.w3.org/2000/svg"
   xmlns="http://www.w3.org/2000/svg"
   xmlns:sodipodi="http://sodipodi.sourceforge.net/DTD/sodipodi-0.dtd"
   xmlns:inkscape="http://www.inkscape.org/namespaces/inkscape"
   height="8310"
   width="5870"
   version="1.1"
   id="svg46"
   sodipodi:docname="POVAngle.svg"
   inkscape:version="1.0.2-2 (e86c870879, 2021-01-15)">
  <metadata
     id="metadata50">
    <rdf:RDF>
      <cc:Work
         rdf:about="">
        <dc:format>image/svg+xml</dc:format>
        <dc:type
           rdf:resource="http://purl.org/dc/dcmitype/StillImage" />
        <dc:title></dc:title>
      </cc:Work>
    </rdf:RDF>
  </metadata>
  <sodipodi:namedview
     pagecolor="#ffffff"
     bordercolor="#666666"
     borderopacity="1"
     objecttolerance="10"
     gridtolerance="10"
     guidetolerance="10"
     inkscape:pageopacity="0"
     inkscape:pageshadow="2"
     inkscape:window-width="1920"
     inkscape:window-height="1017"
     id="namedview48"
     showgrid="false"
     inkscape:zoom="0.028252894"
     inkscape:cx="12763.038"
     inkscape:cy="10072.151"
     inkscape:window-x="-8"
     inkscape:window-y="-8"
     inkscape:window-maximized="1"
     inkscape:current-layer="svg46"
     inkscape:document-rotation="0" />
  <path
     d="m 5050,5210 20,265 -20,85 q 0,160 305,970 l 85,215 -250,790 v 5 l -20,55 -85,220 -90,75 -25,25 q -160,185 -380,270 l -60,20 -130,35 h -30 l -150,25 -295,30 h -60 l -145,15 -275,-30 h -150 l -725,-80 -430,-85 q -495,-100 -735,-385 l -50,-35 -270,-305 -70,-65 Q 755,6995 380,6360 L 90,5845 40,5740 0,5665 90,5380 145,5205 Q 295,4735 665,3940 l 370,-695 50,-95 270,-315 245,-230 105,-60 210,-55 10,-30 70,-30 55,-10 65,20 410,130 -35,10 h -5 l 135,75 25,20 20,10 575,240 390,175 90,55 q 140,80 275,120 l 95,45 230,200 230,170 5,10 20,15 40,35 80,65 35,40 175,320 20,45 130,750 -5,240 m -1245,2415 595,35 390,-70 315,-70 75,-145 -10,-40 135,-425 q 0,-415 -135,-825 -130,-415 -130,-465 l -30,-310 q 0,-620 -270,-1075 l -325,-465 q -190,-145 -465,-295 l -25,-5 -10,-5 -20,-5 -25,-10 -105,25 -125,40 10,240 -30,150 -35,180 -40,245 q 0,95 -35,300 l -40,255 -50,460 -30,240 q 0,225 85,675 0,110 95,415 l 60,190 105,260 q 15,200 15,410 l -20,85 75,5 m -960,365 h 35 l 160,5 635,40 h 15 170 135 l 105,5 120,-10 155,-25 110,-20 100,-15 15,-5 95,-25 30,-10 105,-45 55,-35 q 95,-65 150,-80 75,-95 95,-200 l -65,10 -520,100 -320,15 h -125 l -330,-5 h -85 l -70,-5 -255,-10 -580,-70 -5,5 -5,-10 -15,-10 5,-15 -5,-10 -45,-95 -225,-580 -205,355 -20,35 -15,-5 -60,-20 v 5 l -20,-10 -110,-70 -620,-365 -5,5 -25,-15 -25,-30 q 40,310 175,605 l 140,310 65,65 q 265,105 570,170 h 15 l 285,45 65,5 150,15 m -1835,-3770 -10,-70 h -5 l 15,-425 -200,320 -55,130 -20,370 v 35 l 20,495 5,35 v 35 l 5,205 v -90 q 70,945 230,1565 l 65,265 240,285 55,55 130,55 -130,-285 -75,-305 q -90,-400 -160,-1080 l -5,-70 -10,-565 -20,-110 -10,-185 -60,-595 -5,-50 v -25 5 M 750,5250 v -40 l -10,-30 -5,-285 -10,-115 v -95 l 20,-485 -525,1415 -10,25 270,550 290,460 225,335 -40,-130 40,100 10,-15 -75,-310 -95,-560 -20,-130 -20,-110 v -20 l -15,-95 -15,-240 -5,10 -10,-5 v -230 m 1230,-2565 -95,30 -60,35 q -145,90 -440,355 l -30,30 -15,15 -155,265 -110,195 35,160 245,-385 120,-135 290,-305 115,-85 25,35 60,75 q 110,130 165,130 l 15,15 v -15 l 20,-10 v -35 l -5,-5 v -5 l 70,-330 20,-85 h -10 l -100,20 -110,25 -45,10 h -5 m -120,230 h -5 l -20,5 -80,60 -290,325 -55,65 -55,70 -95,145 -165,265 -40,-200 -10,10 v 490 25 l 60,785 5,135 5,5 5,60 -5,50 q 0,210 20,235 40,895 175,1455 l 45,165 240,540 v 5 l 5,-5 -125,-305 -120,-475 -15,-120 q -15,-10 15,-10 h 10 l 425,305 250,150 145,70 35,10 15,-5 10,5 5,-10 v -5 l 70,-85 q 65,-95 75,-195 l 25,-35 45,-60 -225,-725 -20,-70 -10,-40 -30,-105 -10,-45 -55,-210 -205,-940 -10,-70 h -5 v -10 l -5,-30 h -5 l 15,-35 15,-175 5,-50 30,-190 10,-65 40,-240 65,-350 65,-315 -110,-110 -120,-125 -40,-25 m 405,-180 v 10 l -90,415 15,15 -20,40 -5,-5 -135,680 -35,200 -15,65 -25,155 -5,50 -35,235 20,75 265,1095 30,115 20,70 5,15 15,45 10,35 45,170 q 240,835 415,1230 l 30,65 15,25 v 5 l 175,15 685,60 q 45,-130 45,-330 l -20,-170 -15,-15 -15,-60 q 0,-40 -50,-155 l -55,-125 -105,-365 q -105,-390 -105,-560 0,-180 215,-1635 l 45,-440 -20,-230 -25,-10 v -25 l -120,-135 -40,-60 -75,-60 q -420,-170 -725,-350 -55,-245 -150,-295 l -80,15 -60,10 -25,115"
     fill="#000000"
     fill-rule="evenodd"
     stroke="none"
     id="path2"
     style="stroke-width:100" />
  <path
     d="m 3925,3470 25,5 q 275,150 465,295 l 325,465 q 270,455 270,1075 l 30,310 q 0,50 130,465 135,410 135,825 l -135,425 10,40 -75,145 -315,70 -390,70 -595,-35 q 60,-125 60,-250 0,-145 -220,-790 -225,-645 -225,-1230 v -10 l 75,-385 q 75,-340 75,-415 0,-145 190,-605 120,-305 165,-470 m 300,4225 -420,60 -90,15 -160,35 -50,10 -65,15 -180,50 -190,55 -225,55 -150,-15 -65,-5 -285,-45 120,-50 q 50,-40 65,-90 l 40,45 -140,-180 -60,-90 -40,-60 -35,-55 -110,-185 v -5 l 60,20 15,5 20,-35 205,-355 225,580 45,95 5,10 -5,15 15,10 5,10 5,-5 580,70 255,10 70,5 h 85 l 330,5 h 125 M 1905,2895 v -5 l 20,-85 50,-115 5,-5 h 5 l 45,-10 110,-25 100,-20 h 10 l -20,85 -70,330 v 5 l 5,5 v 35 l -20,10 v 15 l -15,-15 q -55,0 -165,-130 l -60,-75 m 360,-160 25,-115 60,-10 80,-15 q 95,50 150,295 305,180 725,350 l 75,60 40,60 120,135 v 25 l 25,10 20,230 -45,440 q -215,1455 -215,1635 0,170 105,560 l 105,365 55,125 q 50,115 50,155 l 15,60 15,15 20,170 q 0,200 -45,330 l -685,-60 -175,-15 v -5 l -15,-25 -30,-65 Q 2565,7050 2325,6215 l -45,-170 -10,-35 -15,-45 -5,-15 -20,-70 -30,-115 -265,-1095 -20,-75 35,-235 5,-50 25,-155 15,-65 35,-200 135,-680 5,5 20,-40 -15,-15 90,-415 v -10"
     fill="#2c2c27"
     fill-rule="evenodd"
     stroke="none"
     id="path4"
     style="stroke-width:100" />
  <path
     d="m 4225,7695 320,-15 520,-100 65,-10 q -20,105 -95,200 -55,15 -150,80 l -55,35 -105,45 -30,10 -95,25 -15,5 -100,15 -110,20 -155,25 -120,10 -105,-5 h -135 -170 -15 l -635,-40 -160,-5 h -35 l 225,-55 190,-55 180,-50 65,-15 50,-10 160,-35 90,-15 420,-60"
     fill="#3d3f4e"
     fill-rule="evenodd"
     stroke="none"
     id="path6"
     style="stroke-width:100" />
  <path
     d="m 3805,7625 -75,-5 20,-85 q 0,-210 -15,-410 l -105,-260 -60,-190 q -95,-305 -95,-415 -85,-450 -85,-675 l 30,-240 50,-460 40,-255 q 35,-205 35,-300 l 40,-245 35,-180 30,-150 -10,-240 125,-40 105,-25 25,10 20,5 10,5 q -45,165 -165,470 -190,460 -190,605 0,75 -75,415 l -75,385 v 10 q 0,585 225,1230 220,645 220,790 0,125 -60,250 m -1460,300 h -15 q -305,-65 -570,-170 l -65,-65 -140,-310 q -135,-295 -175,-605 l 25,30 25,15 5,-5 620,365 110,70 20,10 110,185 35,55 40,60 60,90 140,180 -40,-45 q -15,50 -65,90 l -120,50 M 735,4545 l 20,-370 55,-130 200,-320 -15,425 h 5 l 10,70 -60,95 -215,230 m 340,340 10,185 20,110 10,565 5,70 q 70,680 160,1080 l 75,305 130,285 -130,-55 -55,-55 -240,-285 -65,-265 Q 835,6205 765,5260 v 90 l -5,-205 45,-70 q 125,-205 235,-205 l 35,15 m 830,-1990 -25,-35 -115,85 -290,305 -120,135 -245,385 -35,-160 110,-195 155,-265 15,-15 30,-30 q 295,-265 440,-355 l 60,-35 95,-30 -5,5 -50,115 -20,85 v 5"
     fill="#52524b"
     fill-rule="evenodd"
     stroke="none"
     id="path8"
     style="stroke-width:100" />
  <path
     d="m 735,4545 215,-230 60,-95 v -5 25 l 5,50 60,595 -35,-15 q -110,0 -235,205 l -45,70 v -35 l -5,-35 -20,-495 v -35"
     fill="#808279"
     fill-rule="evenodd"
     stroke="none"
     id="path10"
     style="stroke-width:100" />
  <path
     d="m 220,5615 525,-1415 -20,485 v 95 l 10,115 5,285 10,30 v 40 l -145,85 -95,50 -290,230"
     fill="#f3a68b"
     fill-rule="evenodd"
     stroke="none"
     id="path12"
     style="stroke-width:100" />
  <path
     d="m 750,5250 v 230 l 10,5 5,-10 15,240 15,95 v 20 l 20,110 20,130 -90,-140 q -195,-315 -195,-360 0,-95 55,-235 l 145,-85"
     fill="#761432"
     fill-rule="evenodd"
     stroke="none"
     id="path14"
     style="stroke-width:100" />
  <path
     d="m 835,6070 95,560 75,310 -10,15 -40,-100 40,130 -225,-335 -290,-460 -270,-550 10,-25 290,-230 95,-50 q -55,140 -55,235 0,45 195,360 l 90,140"
     fill="#cf0e48"
     fill-rule="evenodd"
     stroke="none"
     id="path16"
     style="stroke-width:100" />
  <path
     d="m 1045,4150 v -490 l 10,-10 40,200 165,-265 95,-145 55,-70 55,-65 290,-325 80,-60 20,-5 h 5 l -160,330 -5,20 -25,55 -80,235 -235,315 q -185,280 -285,280 h -25 m 1140,3070 -145,-70 -250,-150 -425,-305 h -10 q -30,0 -15,10 l 15,120 120,475 125,305 -5,5 v -5 l -240,-540 -45,-165 q -135,-560 -175,-1455 -20,-25 -20,-235 l 5,-50 -5,-60 -5,-5 -5,-135 q 100,-350 235,-605 l 15,115 q 105,610 290,1290 l 120,425 45,145 20,65 135,365 110,255 110,205"
     fill="#d3cebc"
     fill-rule="evenodd"
     stroke="none"
     id="path18"
     style="stroke-width:100" />
  <path
     d="m 1590,3555 80,-235 25,-55 5,-20 160,-330 40,25 120,125 110,110 -65,315 -65,350 -40,240 -10,65 -30,190 -5,50 -15,175 -15,35 h 5 l 5,30 v 10 h 5 l 10,70 205,940 55,210 10,45 30,105 10,40 20,70 225,725 -45,60 -25,35 q -10,100 -75,195 l -70,85 v 5 l -5,10 -10,-5 -15,5 -35,-10 -110,-205 -110,-255 -135,-365 -20,-65 -45,-145 -120,-425 Q 1460,5080 1355,4470 v -180 l 220,-685 15,-50"
     fill="url(#gradient0)"
     fill-rule="evenodd"
     stroke="none"
     id="path20"
     style="fill:url(#gradient0);stroke-width:100" />
  <path
     d="m 1045,4150 h 25 q 100,0 285,-280 l 235,-315 -15,50 -220,685 -15,60 v 5 q -135,255 -235,605 l -60,-785 v -25"
     fill="#fcfcf8"
     fill-rule="evenodd"
     stroke="none"
     id="path22"
     style="stroke-width:100" />
  <path
     d="m 1355,4290 v 180 l -15,-115 v -5 l 15,-60"
     fill="url(#gradient1)"
     fill-rule="evenodd"
     stroke="none"
     id="path24"
     style="fill:url(#gradient1);stroke-width:100" />
  <defs
     id="defs44">
    <linearGradient
       gradientTransform="matrix(0.94,-3.38,1.47,0.41,-2345,-2075)"
       gradientUnits="userSpaceOnUse"
       id="gradient0"
       spreadMethod="pad"
       x1="-819.20001"
       x2="819.20001">
      <stop
         offset="0.0"
         stop-color="#635b58"
         id="stop34" />
      <stop
         offset="1.0"
         stop-color="#d3cebc"
         id="stop36" />
    </linearGradient>
    <linearGradient
       gradientTransform="matrix(0.76,-3.38,1.18,0.41,-1620,-2075)"
       gradientUnits="userSpaceOnUse"
       id="gradient1"
       spreadMethod="pad"
       x1="-819.20001"
       x2="819.20001">
      <stop
         offset="0.0"
         stop-color="#635b58"
         id="stop39" />
      <stop
         offset="1.0"
         stop-color="#d3cebc"
         id="stop41" />
    </linearGradient>
  </defs>
</svg>
