<?xml version="1.0" encoding="UTF-8" standalone="no"?>
<svg
   xmlns:dc="http://purl.org/dc/elements/1.1/"
   xmlns:cc="http://creativecommons.org/ns#"
   xmlns:rdf="http://www.w3.org/1999/02/22-rdf-syntax-ns#"
   xmlns:svg="http://www.w3.org/2000/svg"
   xmlns="http://www.w3.org/2000/svg"
   xmlns:sodipodi="http://sodipodi.sourceforge.net/DTD/sodipodi-0.dtd"
   xmlns:inkscape="http://www.inkscape.org/namespaces/inkscape"
   height="6335"
   width="8000"
   version="1.1"
   id="svg33"
   sodipodi:docname="PUAngle.svg"
   inkscape:version="1.0.2-2 (e86c870879, 2021-01-15)">
  <metadata
     id="metadata37">
    <rdf:RDF>
      <cc:Work
         rdf:about="">
        <dc:format>image/svg+xml</dc:format>
        <dc:type
           rdf:resource="http://purl.org/dc/dcmitype/StillImage" />
        <dc:title></dc:title>
      </cc:Work>
    </rdf:RDF>
  </metadata>
  <sodipodi:namedview
     pagecolor="#ffffff"
     bordercolor="#666666"
     borderopacity="1"
     objecttolerance="10"
     gridtolerance="10"
     guidetolerance="10"
     inkscape:pageopacity="0"
     inkscape:pageshadow="2"
     inkscape:window-width="1920"
     inkscape:window-height="1017"
     id="namedview35"
     showgrid="false"
     inkscape:zoom="0.07195364"
     inkscape:cx="770.21293"
     inkscape:cy="1498.7621"
     inkscape:window-x="-8"
     inkscape:window-y="-8"
     inkscape:window-maximized="1"
     inkscape:current-layer="svg33"
     inkscape:document-rotation="0" />
  <path
     d="m 3470,2475 190,-20 520,-45 535,-40 1170,-240 950,-200 h 55 15 l 20,5 q 40,25 110,130 l -10,35 490,755 q 485,800 485,920 l -5,65 v 5 10 q -15,370 -100,670 l 15,45 q 0,260 -205,485 v 20 5 l -170,185 -115,65 q -205,260 -1370,1005 l -185,-40 q -410,-35 -925,-200 l -485,40 -205,-30 -15,-10 q -210,-100 -900,-590 l -40,-35 Q 2855,5110 2195,4415 l -75,-80 30,-460 75,-335 q 240,-1030 520,-1480 l 125,-230 115,-25 220,-45 h 40 10 l 280,25 20,15 q 15,10 15,50 0,50 -180,155 l -205,130 -85,150 5,10 -20,15 -10,15 20,-10 80,5 q 20,55 -15,120 v 10 20 l -20,25 q -5,-80 -30,-85 l -65,-5 -10,-15 -125,130 -5,80 -15,5 45,195 q 45,370 405,1030 l 235,405 235,430 245,310 125,115 15,10 145,100 40,25 q 85,50 175,80 l 155,45 125,20 -45,20 -100,-35 -80,-25 -115,-35 -110,-30 -55,-15 -40,-10 -115,-20 -40,5 h -20 -450 -45 q 35,110 195,310 l 350,235 35,15 90,45 115,50 140,5 h 5 l 260,-5 125,-10 680,-165 185,-40 130,-30 q 575,-170 900,-310 l 390,-190 q 190,-135 340,-285 l 25,-30 65,-75 15,-25 -10,5 v -20 l -5,-40 -10,5 -835,325 -410,140 -150,45 -20,5 -60,20 h -15 l -485,100 -715,140 -150,-55 900,-135 415,-80 65,-15 q 55,-160 70,-395 l 10,-165 10,-30 v -5 l 25,-30 20,40 -20,230 -15,125 -30,135 -20,85 20,-5 150,-40 q 755,-200 1385,-570 110,-235 115,-525 l -25,-250 q -130,-225 -415,-910 l -305,-465 -170,-250 -80,-15 -80,-25 -150,-35 -815,170 -910,185 -155,20 -65,10 20,25 25,65 v 5 l 125,115 470,655 510,605 q 400,460 400,550 l -10,85 -20,20 -10,-50 q -85,-245 -410,-605 -435,-470 -545,-670 -150,-275 -365,-475 l -85,-80 q -195,-155 -360,-205 l -130,20 -475,50 -105,10 -290,100 -60,35 -70,65 -15,-20 140,-255 v -15 m -215,-495 -35,-45 -45,25 h -45 q -55,0 -165,115 l -75,75 -130,375 45,-15 h 20 v -5 l 20,-30 v 20 q 65,0 100,-75 l 25,-75 10,-10 55,-65 220,-290 m 320,3240 v -10 l 20,-10 h 590 l -100,-115 -90,-115 Q 3755,4655 3455,4125 2940,3215 2835,2715 l -15,-60 -5,-25 15,-20 v -45 l -35,15 -30,10 -30,15 -75,200 -150,425 -40,235 -30,120 -55,380 -20,105 -5,50 -5,145 185,245 90,80 q 525,465 1000,815 -60,-115 -55,-185 m 1065,-2760 40,25 -25,-30 -15,5 m 935,3350 -430,125 45,15 415,110 360,75 h 30 q 130,-30 470,-280 l 45,-35 245,-185 390,-325 -565,205 -305,85 -5,5 -640,190 -55,15 m -1200,-800 5,5 -5,5 v -5 -5"
     fill="#000000"
     fill-rule="evenodd"
     stroke="none"
     id="path2"
     style="stroke-width:100" />
  <path
     d="m 6270,4550 10,-85 q 0,-90 -400,-550 l -510,-605 -470,-655 -125,-115 v -5 l -25,-65 -20,-25 65,-10 155,-20 q 25,230 415,775 480,660 845,1030 l 130,145 q 85,175 85,350 0,225 -25,390 l -150,40 30,-215 15,-125 20,-230 -20,-40 -25,30 v -15 m -1890,675 -40,-25 10,-85 5,-10 v 10 l 25,110"
     fill="#52524b"
     fill-rule="evenodd"
     stroke="none"
     id="path4"
     style="stroke-width:100" />
  <path
     d="m 3160,2470 q 75,-85 170,-85 125,0 140,90 v 15 l -140,255 15,20 70,-65 60,-35 290,-100 105,-10 475,-50 130,-20 q 165,50 360,205 l 85,80 q 215,200 365,475 110,200 545,670 325,360 410,605 l 10,50 20,-20 v 15 5 l -10,30 -10,165 q -15,235 -70,395 l -65,15 -415,80 -900,135 150,55 715,-140 485,-100 h 15 l 60,-20 20,-5 150,-45 410,-140 -120,45 -390,215 -805,480 65,-15 60,-15 -680,165 -125,10 -260,5 h -5 l 95,-115 5,-10 -320,-155 h -5 l -340,-175 -315,-205 h 450 20 l 40,-5 115,20 40,10 55,15 110,30 115,35 80,25 100,35 45,-20 -125,-20 -155,-45 q -90,-30 -175,-80 l -25,-110 v -10 l -5,10 -10,85 -145,-100 -15,-10 -125,-115 -245,-310 -235,-430 -235,-405 Q 2980,3170 2935,2800 l -45,-195 15,-5 5,-80 125,-130 10,15 65,5 q 25,5 30,85 l 20,-25 m 1790,-55 910,-185 815,-170 150,35 80,25 80,15 170,250 305,465 q 285,685 415,910 l 25,250 q -5,290 -115,525 -630,370 -1385,570 25,-165 25,-390 0,-175 -85,-350 L 6210,4220 Q 5845,3850 5365,3190 4975,2645 4950,2415 m 1300,2730 -20,5 20,-85 30,-135 -30,215 m -2995,-3165 -220,290 -55,65 -10,10 -25,75 q -35,75 -100,75 v -20 l -20,30 v 5 h -20 l -45,15 130,-375 75,-75 q 110,-115 165,-115 h 45 l 45,-25 35,45 m 1120,3030 v 5 5 l 5,-5 -5,-5"
     fill="#2c2c27"
     fill-rule="evenodd"
     stroke="none"
     id="path6"
     style="stroke-width:100" />
  <path
     d="m 2360,4120 5,-50 20,-105 55,-380 30,-120 40,-235 150,-425 75,-200 30,-15 30,-10 35,-15 v 45 l -15,20 5,25 15,60 q 105,500 620,1410 300,530 540,845 l 90,115 100,115 h -590 l -20,10 v 10 Q 2965,4825 2375,4150 l -15,-5 v -25"
     fill="url(#gradient0)"
     fill-rule="evenodd"
     stroke="none"
     id="path8"
     style="fill:url(#gradient0);stroke-width:100" />
  <path
     d="m 6580,5515 565,-205 -390,325 -245,185 -45,35 q -340,250 -470,280 h -30 l -360,-75 -415,-110 -45,-15 430,-125 135,40 325,60 q 60,0 370,-250 l 175,-145"
     fill="#cf0e48"
     fill-rule="evenodd"
     stroke="none"
     id="path10"
     style="stroke-width:100" />
  <path
     d="m 4545,5885 -140,-5 -115,-50 -90,-45 -35,-15 -350,-235 q -160,-200 -195,-310 h 45 l 315,205 340,175 h 5 l 320,155 -5,10 -95,115 M 2360,4120 v 25 l 15,5 q 590,675 1200,1070 -5,70 55,185 -475,-350 -1000,-815 l -90,-80 -185,-245 5,-145"
     fill="#d3cebc"
     fill-rule="evenodd"
     stroke="none"
     id="path12"
     style="stroke-width:100" />
  <path
     d="m 6580,5515 -175,145 q -310,250 -370,250 l -325,-60 -135,-40 55,-15 640,-190 5,-5 305,-85"
     fill="#761432"
     fill-rule="evenodd"
     stroke="none"
     id="path14"
     style="stroke-width:100" />
  <path
     d="m 6805,4995 835,-325 10,-5 5,40 v 20 l 10,-5 -15,25 -65,75 -25,30 q -150,150 -340,285 l -390,190 q -325,140 -900,310 l -130,30 -185,40 -60,15 -65,15 805,-480 390,-215 120,-45"
     fill="#3d3f4e"
     fill-rule="evenodd"
     stroke="none"
     id="path16"
     style="stroke-width:100" />
  <defs
     id="defs31">
    <linearGradient
       gradientTransform="matrix(0.94,-3.38,1.47,0.41,-690,-6670)"
       gradientUnits="userSpaceOnUse"
       id="gradient0"
       spreadMethod="pad"
       x1="-819.20001"
       x2="819.20001">
      <stop
         offset="0.0"
         stop-color="#635b58"
         id="stop26" />
      <stop
         offset="1.0"
         stop-color="#d3cebc"
         id="stop28" />
    </linearGradient>
  </defs>
</svg>
