<?xml version='1.0' encoding='ASCII' standalone='yes'?>
<svg xmlns="http://www.w3.org/2000/svg" xmlns:xlink="http://www.w3.org/1999/xlink" version="1.1" width="6750.0px" height="7845.0px">
  <g>
    <g><metadata xmlns:rdf="http://www.w3.org/1999/02/22-rdf-syntax-ns#" xmlns:cc="http://creativecommons.org/ns#" xmlns:dc="http://purl.org/dc/elements/1.1/" id="metadata43">
    <rdf:RDF>
      <cc:Work rdf:about="">
        <dc:format>image/svg+xml</dc:format>
        <dc:type rdf:resource="http://purl.org/dc/dcmitype/StillImage"/>
      </cc:Work>
    </rdf:RDF>
  </metadata>
  <sodipodi:namedview xmlns:sodipodi="http://sodipodi.sourceforge.net/DTD/sodipodi-0.dtd" xmlns:inkscape="http://www.inkscape.org/namespaces/inkscape" pagecolor="#ffffff" bordercolor="#666666" borderopacity="1" objecttolerance="10" gridtolerance="10" guidetolerance="10" inkscape:pageopacity="0" inkscape:pageshadow="2" inkscape:window-width="1920" inkscape:window-height="1017" id="namedview41" showgrid="false" inkscape:zoom="0.076614501" inkscape:cx="3051.9746" inkscape:cy="4620.5282" inkscape:window-x="-8" inkscape:window-y="-8" inkscape:window-maximized="1" inkscape:current-layer="svg39"/>
  <path style="stroke-width:100" d="m 2450,6130 c 26.6667,263.3333 128.3333,510 305,740 l 185,210 90,75 h 5 l 25,25 90,80 -90,40 -155,80 -290,75 -50,15 -25,15 -35,-5 h -20 -15 l -200,-35 -180,-45 -45,-15 -10,-75 -70,-705 10,-55 80,-85 25,-100 200,-115 z" id="path1272"/>
  <path style="stroke-width:100" d="m 590,6125 15,5 v -5 l 100,30 220,60 195,45 40,10 435,90 350,45 40,5 -20,135 -35,65 -30,365 c -3.3333,150 18.3333,280 65,390 -43.3333,43.3333 70,86.6667 340,130 l 150,25 -80,25 -160,40 5,10 -100,50 h -45 c -276.6667,-23.3333 -550,-75 -820,-155 L 980,7395 740,7270 C 540,7136.6667 440,6981.6667 440,6805 c 0,-266.6667 28.33333,-450 85,-550 z" id="path1270"/>
  <path style="stroke-width:100" d="m 2455,5730 -5,35 -5,-10 -10,-15 z" id="path1268"/>
  <path style="stroke-width:100" d="m 3110,4680 v 10 l -5,10 z" id="path1266"/>
  <path style="stroke-width:100" d="m 480.05859,4374.707 c 3.29427,-0.013 6.60808,0.085 9.94141,0.293 l 80,10 h 20 l 85,10 165,20 150,20 565,115 305,45 h 65 60 l -35,75 -10,615 h 15 c 20,193.3333 61.6667,338.3333 125,435 l -10,5 -145,-10 -160,-10 -580,-75 -150,-45 -505,-155 h -5 C 391.66667,5350 310,5255 280,5145 l -5,-490 35,-170 35,-35 c 40.625,-50 85.64453,-75.0976 135.05859,-75.293 z" id="path1264"/>
  <path style="stroke-width:100" d="m 2470,4305 c 80,286.6667 120,508.3333 120,665 l -75,350 -30,185 -20,120 v 15 l -15,-10 -95,40 -30,-5 -190,35 -20,-35 -55,-145 -40,-205 -5,-635 200,-215 45,-35 135,-65 50,-20 v -15 z" id="path1262"/>
  <path style="stroke-width:100" d="m 2565,2635 10,70 -15,-55 z" id="path1260"/>
  <path style="stroke-width:100" d="m 620,2275 h 125 110 l 140,5 645,100 275,65 155,35 h 5 l 40,5 -5,10 -10,15 -110,195 -45,105 115,-165 140,-170 55,10 c -40,86.6667 -68.3333,215 -85,385 -26.6667,273.3333 -23.3333,468.3333 10,585 l 85,215 -95,-40 -105,-20 -40,-5 -25,-25 v 20 h -25 l 5,-95 -5,-60 -35,-110 c -30,-56.6667 -45,-176.6667 -45,-360 v -10 c -63.3333,243.3333 -41.6667,453.3333 65,630 l -20,-5 -10,-20 -150,-40 -25,-10 -130,-50 -90,-20 -490,-150 -285,-85 -180,-55 c -90,-93.3333 -135,-233.3333 -135,-420 0,-263.3333 58.33333,-418.3333 175,-465 z" id="path1258"/>
  <path style="stroke-width:100" d="m 3195,1850 15,10 10,5 20,10 55,25 50,25 130,80 120,95 -35,60 120,20 50,60 125,125 h 5 l 20,125 15,90 v 20 l 10,30 5,10 20,75 c 23.3333,86.6667 35,176.6667 35,270 v 10 l 10,30 c 33.3333,123.3333 58.3333,253.3333 75,390 20,150 30,306.6667 30,470 l -5,105 -5,55 -30,140 5,290 v 10 c 40,110 60,243.3333 60,400 l -15,190 v 20 l -5,40 -20,110 -15,740 -20,205 c -23.3333,210 -50,360 -80,450 l -5,15 -35,75 -15,15 c -20,53.3333 -43.3333,91.6667 -70,115 l -5,5 -10,-5 -20,-5 h -20 -30 -5 c -150,-6.6667 -261.6667,-35 -335,-85 l -15,-10 -20,-5 -55,-10 v -20 l 5,-5 h -10 l -170,-465 -75,-205 c -50,-150 -75,-251.6667 -75,-305 l -5,-10 c -30,-96.6667 -25,-256.6667 15,-480 l 65,-320 20,-55 5,-40 c 30,-166.6667 75,-265 135,-295 l 170,-35 185,-50 h 15 l 5,-5 60,-10 15,-5 50,-5 45,-5 h 5 l 15,5 25,-10 5,5 80,-15 5,5 55,-65 15,5 10,5 15,15 c 10,-13.3333 15,-36.6667 15,-70 l -5,-55 -30,35 -5,5 c -23.3333,20 -46.6667,31.6667 -70,35 l -95,80 h -50 l -40,5 -45,5 h -30 l -25,5 -40,10 -415,90 -50,-30 -40,-40 -10,-30 -80,-315 -10,-35 -210,-755 -5,-5 -130,-450 c -26.6667,-123.3333 -40,-238.3333 -40,-345 l 5,-190 75,-225 25,-20 c 46.6667,-43.3333 170,-103.3333 370,-180 l 15,-5 25,-10 z" id="path1254"/>
  <path style="stroke-width:100" d="m 2900,1230 265,75 285,140 10,40 40,45 25,40 100,295 v 15 l -10,55 -10,20 -280,-60 -55,-20 -110,-45 -35,10 -55,20 h -10 l -255,75 -25,15 c -100,90 -176.6667,195 -230,315 v 165 l 5,90 -5,105 c 36.6667,220 70,365 100,435 l 5,10 10,20 h -5 l 10,15 -15,5 155,540 60,220 90,415 5,10 35,85 60,190 20,125 -20,125 -35,60 -45,280 -25,140 -5,20 -10,20 -10,105 -25,205 95,295 60,175 20,45 185,500 -5,15 5,35 v 5 l 25,65 5,20 h 40 l 5,10 75,10 95,15 90,15 95,20 h 15 20 l 40,15 5,40 h 40 l 25,-10 35,20 30,35 30,245 -445,-25 -80,-10 -10,-10 h -5 l -10,10 -35,30 -75,-35 -160,-60 -15,-10 -40,-30 -255,-185 C 2605,6658.3333 2505,6295 2505,5805 l 10,-40 10,5 c -6.6667,-156.6667 15,-320 65,-490 l 80,-310 c 0,-186.6667 -78.3333,-515 -235,-985 -160,-473.3333 -240,-733.3333 -240,-780 0,-170 41.6667,-353.3333 125,-550 l 80,-175 v -5 l 75,-120 165,-275 -25,-25 -190,280 c 10,-63.3333 15,-145 15,-245 l -20,-310 c 46.6667,-133.3333 131.6667,-253.3333 255,-360 l 200,-170 z" id="path1252"/>
  <path style="stroke-width:100" d="m 2895,400 75,30 10,15 z" id="path1250"/>
  <path style="stroke-width:100" d="m 1855,210 135,35 20,5 150,25 70,20 c 150,46.66667 366.6667,140 650,280 l 10,5 275,135 45,25 5,15 c 113.3333,90 188.3333,255 225,495 l -10,40 -20,15 25,90 -115,-65 c -193.3333,-106.6667 -315,-160 -365,-160 l -25,5 -5,-5 -105,40 c -120,56.6667 -218.3333,140 -295,250 -66.6667,126.6667 -106.6667,190 -120,190 h -25 c -96.6667,-106.6667 -300,-256.6667 -610,-450 L 1305,890 c 0,-156.66667 75,-305 225,-445 l 80,-75 z" id="path1248"/>
  <path xmlns:sodipodi="http://sodipodi.sourceforge.net/DTD/sodipodi-0.dtd" style="stroke-width:100" d="m 1920,0 -130,10 -30,5 -155,120 10,5 -25,10 -70,55 -35,15 c -86.6667,70 -175,175 -265,315 -196.6667,300 -161.6667,503.3333 105,610 153.3333,63.3333 361.6667,180 625,350 l 325,220 v 550 h -85 v 15 l -70,-5 c -123.3333,-56.6667 -351.6667,-106.6667 -685,-150 l -845,-80 c -213.33333,0 -318.33333,215 -315,645 l 5,150 95,365 35,155 155,45 c 453.3333,133.3333 811.6667,218.3333 1075,255 l 130,25 210,85 90,60 c 60,33.3333 115,55 165,65 43.3333,43.3333 65,83.3333 65,120 l -10,120 v 85 l -335,140 -30,15 -55,25 -390,-65 -190,-40 -875,-170 -5,-5 -150,105 C 173.33333,4298.3333 106.66667,4378.3333 60,4465 20,4608.3333 0,4760 0,4920 v 125 l 120,280 120,260 330,95 635,160 720,120 130,-30 v -10 h 35 l 110,-30 h 10 c 23.3333,6.6667 40,18.3333 50,35 23.3333,43.3333 58.3333,68.3333 105,75 l -30,20 h -5 c -63.3333,40 -161.6667,86.6667 -295,140 l -5,-5 v 5 h -5 l -150,65 -465,-95 -160,-40 h -10 C 1040,6013.3333 823.33333,5943.3333 590,5880 l -40,-10 -150,125 -75,95 -90,180 c -26.66667,140 -28.33333,326.6667 -5,560 l 35,270 170,360 505,140 480,140 570,105 165,-40 280,-65 h -20 c 153.3333,-50 258.3333,-95 315,-135 l 180,-45 160,-40 -5,-5 c 133.3333,-40 228.3333,-78.3333 285,-115 l 5,5 5,5 30,-60 c 0,0 688.3676,109.5241 711.7031,82.8691 C 4125.0386,7406.2141 4095,7235 4095,7235 l -40,-60 -30,-90 -10,-45 -40,-210 40,-115 45,-470 v -5 l 10,-190 5,-165 20,-20 10,-480 5,5 10,-40 h -10 -5 V 5165 L 4133.8419,4847.3493 4115,4535 l 5,-195 v -195 -50 -5 -55 l 2.7871,-47.1152 C 4113.9794,3840.915 4082.3567,3588.6674 4065,3425 l -40,-395 -45,-455 -5,-60 v -15 -130 l -5,-15 v -20 l -5,-5 -10,-80 c -5.0845,-69.5425 -34.6668,-181.978 -85,-205 l -100,-65 c -3.3333,-73.3333 21.6667,-171.6667 75,-295 l 35,-75 c -63.3333,-76.6667 -113.3333,-165 -150,-265 L 3570,950 3475,670 C 3241.6667,496.66667 3030,375 2840,305 2753.3333,275 2613.3333,220 2420,140 L 2095,30 h -65 z" id="path2" sodipodi:nodetypes="ccccccccccccccccccccccccccccccccccccccccsccccccccccccccccccccccccccccccccccccccccccccczccccccccccccccccccccccccccccccccccccccccccccccc"/>
  <path style="stroke-width:100;fill:#cf0e48;fill-opacity:1" d="m 605,6130 10,65 q 125,650 125,950 v 125 q -300,-200 -300,-465 0,-400 85,-550 l 65,-130 15,5" id="path1176"/>
  <path style="stroke-width:100;fill:#cf0e48;fill-opacity:1" d="m 2940,7080 -535,255 -60,35 40,-25 -110,-80 q -125,-125 -155,-345 -10,-225 -30,-290 l -35,-165 25,-100 200,-115 170,-120 q 40,395 305,740 l 185,210" id="path1174"/>
  <path style="stroke-width:100;fill:#cf0e48;fill-opacity:1" d="m 2060,5520 -40,-205 -5,-635 200,-215 45,-35 135,-65 50,-20 v -15 l 25,-25 q 120,430 120,665 l -75,350 -30,185 -315,-45 -130,-15 20,75" id="path1172"/>
  <path style="stroke-width:100;fill:#cf0e48;fill-opacity:1" d="M 525,5430 Q 325,5310 280,5145 l -5,-490 35,-170 35,-35 q 65,-80 145,-75 l 80,10 180,870 v 110 l -245,50 20,15" id="path1170"/>
  <path style="stroke-width:100;fill:#cf0e48;fill-opacity:1" d="m 1895,2975 70,-215 25,-55 -45,105 115,-165 140,-170 55,10 q -60,130 -85,385 -40,410 10,585 l 85,215 -95,-40 -105,-20 -35,-60 -55,-105 -35,-110 q -45,-85 -45,-360" id="path1168"/>
  <path style="stroke-width:100;fill:#cf0e48;fill-opacity:1" d="m 745,2275 25,175 5,715 -15,50 -180,-55 q -135,-140 -135,-420 0,-395 175,-465 h 125" id="path1166"/>
  <path style="stroke-width:100;fill:#cf0e48;fill-opacity:1" d="m 3315,6720 h -10 l -170,-465 -75,-205 q -75,-225 -75,-305 l -5,-10 q -45,-145 15,-480 l 65,-320 20,-55 5,-40 q 45,-250 135,-295 l 170,-35 185,-50 10,55 15,150 5,25 q 55,520 55,765 l -150,745 -20,65 v 10 l -10,25 v 10 l -20,55 v 10 l -10,25 v 10 l -25,75 -5,15 v 5 l -5,10 v 5 l -5,5 -20,75 -20,65 -5,10 v 5 h -10 l -40,40" id="path1164"/>
  <path style="stroke-width:100;fill:#cf0e48;fill-opacity:1" d="m 3575,4435 -415,90 -50,-30 -40,-40 -10,-30 -80,-315 -10,-35 -210,-755 -5,-5 -130,-450 q -40,-185 -40,-345 l 5,-190 75,-225 25,-20 q 70,-65 370,-180 l 15,-5 25,-10 q -25,190 45,550 70,395 205,835 40,150 175,1040 l 20,100 5,20 h 25" id="path1162"/>
  <path style="stroke-width:100;fill:#cf0e48;fill-opacity:1" d="m 2875,1250 60,200 125,380 10,30 h -10 l -255,75 -25,15 q -150,135 -230,315 v 165 l 5,90 -5,105 q 55,330 100,435 l -10,-25 -10,5 25,70 155,540 60,220 90,415 5,10 35,85 60,190 20,125 -20,125 -35,60 -45,280 -25,140 -5,20 -10,20 -10,105 -25,205 95,295 60,175 20,45 185,500 -5,15 5,35 v 5 l 25,65 -10,-20 -30,40 -190,275 -255,-185 Q 2505,6540 2505,5805 l 10,-40 10,5 q -10,-235 65,-490 l 80,-310 q 0,-280 -235,-985 -240,-710 -240,-780 0,-255 125,-550 l 80,-175 v -5 l 75,-120 165,-275 -25,-25 -190,280 q 15,-95 15,-245 l -20,-310 q 70,-200 255,-360 l 200,-170" id="path1160"/>
  <path style="stroke-width:100;fill:#cf0e48;fill-opacity:1" d="m 2010,250 -95,105 -175,185 q 200,95 305,165 l 720,470 55,35 q -180,85 -295,250 -100,190 -120,190 h -25 Q 2235,1490 1770,1200 L 1305,890 q 0,-235 225,-445 l 80,-75 245,-160 135,35 20,5" id="path1158"/>
  <path style="stroke-width:100;stroke:none;stroke-opacity:1;fill:#761432;fill-opacity:1" d="m 605,6130 v -5 l 100,30 220,60 195,45 40,10 435,90 350,45 40,5 -20,135 -35,65 -30,365 q -5,225 65,390 -65,65 340,130 l 150,25 -80,25 -160,40 5,10 -100,50 h -45 q -415,-35 -820,-155 L 980,7395 740,7270 v -125 q 0,-300 -125,-950 l -10,-65" id="path1150"/>
  <path style="stroke-width:100;stroke:none;stroke-opacity:1;fill:#761432;fill-opacity:1" d="m 3430,6670 -20,20 15,5 5,-25" id="path1148"/>
  <path style="stroke-width:100;stroke:none;stroke-opacity:1;fill:#761432;fill-opacity:1" d="m 2940,7080 90,75 h 5 l 25,25 90,80 -90,40 -155,80 -290,75 -50,15 -25,15 -35,-5 h -20 -15 l -200,-35 -180,-45 -55,-90 -70,-705 10,-55 80,-85 35,165 q 20,65 30,290 30,220 155,345 l 110,80 -40,25 60,-35 535,-255" id="path1146"/>
  <path style="stroke-width:100;stroke:none;stroke-opacity:1;fill:#761432;fill-opacity:1" d="m 2060,5520 -20,-75 130,15 315,45 -20,120 v 15 l -15,-10 -95,40 -30,-5 -190,35 -20,-35 -55,-145" id="path1144"/>
  <path style="stroke-width:100;stroke:none;stroke-opacity:1;fill:#761432;fill-opacity:1" d="m 525,5430 -20,-15 245,-50 V 5255 L 570,4385 h 20 l 85,10 165,20 150,20 565,115 305,45 h 65 60 l -35,75 -10,615 h 15 q 30,290 125,435 l -10,5 -145,-10 -160,-10 -580,-75 -150,-45 -505,-155 h -5" id="path1142"/>
  <path style="stroke-width:100;stroke:none;stroke-opacity:1;fill:#761432;fill-opacity:1" d="m 745,2275 h 110 l 140,5 645,100 275,65 155,35 h 5 l 40,5 -5,10 -10,15 -110,195 -25,55 -70,215 v -10 q -95,365 65,630 l -20,-5 -10,-20 -150,-40 -25,-10 -130,-50 -90,-20 -490,-150 -285,-85 15,-50 -5,-715 -25,-175" id="path1140"/>
  <path style="stroke-width:100;stroke:none;stroke-opacity:1;fill:#761432;fill-opacity:1" d="m 3060,7080 190,-275 30,-40 10,20 5,20 h 40 l 5,10 75,10 95,15 90,15 95,20 h 15 20 l 40,15 5,40 h 40 l 25,-10 35,20 30,35 30,245 -445,-25 -80,-10 -10,-10 h -5 l -10,10 -35,30 -75,-35 -160,-60 -15,-10 -40,-30" id="path1138"/>
  <path style="stroke-width:100;stroke:none;stroke-opacity:1;fill:#761432;fill-opacity:1" d="m 3575,4435 h -25 l -5,-20 -20,-100 q -135,-890 -175,-1040 -135,-440 -205,-835 -70,-360 -45,-550 l 95,-40 15,10 10,5 20,10 55,25 50,25 130,80 120,95 -35,60 120,20 50,60 125,125 h 5 l 20,125 15,90 v 20 l 10,30 5,10 20,75 q 35,130 35,270 v 10 l 10,30 q 50,185 75,390 30,225 30,470 l -5,105 -5,55 -30,140 5,290 v 10 q 60,165 60,400 l -15,190 v 20 l -5,40 -20,110 -15,740 -20,205 q -35,315 -80,450 l -5,15 -35,75 -15,15 q -30,80 -70,115 l -5,5 -10,-5 -20,-5 h -20 -30 -5 q -225,-10 -335,-85 l -15,-10 -20,-5 -55,-10 v -20 l 5,-5 40,-40 h 10 v -5 l 5,-10 20,-65 20,-75 5,-5 v -5 l 5,-10 v -5 l 5,-15 25,-75 v -10 l 10,-25 v -10 l 20,-55 v -10 l 10,-25 v -10 l 20,-65 150,-745 q 0,-245 -55,-765 l -5,-25 -15,-150 -10,-55 h 15 l 5,-5 60,-10 15,-5 50,-5 45,-5 h 5 l 15,5 25,-10 5,5 80,-15 5,5 55,-65 15,5 10,5 15,15 q 15,-20 15,-70 l -5,-55 -30,35 -5,5 q -35,30 -70,35 l -95,80 h -50 l -40,5 -45,5 h -30 l -25,5 -40,10" id="path1136"/>
  <path style="stroke-width:100;stroke:none;stroke-opacity:1;fill:#761432;fill-opacity:1" d="m 2875,1250 25,-20 265,75 285,140 10,40 40,45 h -10 l 35,40 100,295 v 15 l -10,55 -10,20 -280,-60 -55,-20 -110,-45 -35,10 -55,20 -10,-30 -125,-380 -60,-200" id="path1134"/>
  <path style="stroke-width:100;stroke:none;stroke-opacity:1;fill:#761432;fill-opacity:1" d="m 2010,250 150,25 70,20 q 225,70 650,280 l 10,5 275,135 45,25 5,15 q 170,135 225,495 l -10,40 -20,15 25,90 -115,-65 q -290,-160 -365,-160 l -25,5 -5,-5 -105,40 -55,-35 -720,-470 Q 1940,635 1740,540 l 175,-185 95,-105" id="path1132"/>
  <path d="m 2655,3110 -25,-70 10,-5 10,25 5,10 10,20 h -5 l 10,15 -15,5 m -590,500 -40,-5 -25,-25 v 20 h -25 l 5,-95 -5,-60 55,105 35,60" fill="#445861" fill-rule="evenodd" stroke="none" id="path24" style="stroke-width:100"/>
  <path d="m 3525,1570 -35,-40 h 10 l 25,40 m -1490,5740 55,90 -45,-15 -10,-75" fill="#818c8c" fill-rule="evenodd" stroke="none" id="path26" style="stroke-width:100"/>
  <path d="m 3430,6670 -5,25 -15,-5 20,-20" fill="#72736c" fill-rule="evenodd" stroke="none" id="path28" style="stroke-width:100"/>
  <defs id="defs37">
    <linearGradient gradientTransform="matrix(-0.06,-3.54,1.61,-0.02,10695,4575)" gradientUnits="userSpaceOnUse" id="gradient0" spreadMethod="pad" x1="-819.2" x2="819.2">
      <stop offset="0.0" stop-color="#635b58" id="stop32"/>
      <stop offset="1.0" stop-color="#d3cebc" id="stop34"/>
    </linearGradient>
  </defs>
</g>
    <g transform="translate( 0,  0) scale(1.0 1.0)  rotate(0.000000 0.000000 0.000000)"><metadata xmlns:rdf="http://www.w3.org/1999/02/22-rdf-syntax-ns#" xmlns:cc="http://creativecommons.org/ns#" xmlns:dc="http://purl.org/dc/elements/1.1/" id="metadata43">
    <rdf:RDF>
      <cc:Work rdf:about="">
        <dc:format>image/svg+xml</dc:format>
        <dc:type rdf:resource="http://purl.org/dc/dcmitype/StillImage"/>
      </cc:Work>
    </rdf:RDF>
  </metadata>
  <sodipodi:namedview xmlns:sodipodi="http://sodipodi.sourceforge.net/DTD/sodipodi-0.dtd" xmlns:inkscape="http://www.inkscape.org/namespaces/inkscape" pagecolor="#ffffff" bordercolor="#666666" borderopacity="1" objecttolerance="10" gridtolerance="10" guidetolerance="10" inkscape:pageopacity="0" inkscape:pageshadow="2" inkscape:window-width="1920" inkscape:window-height="1017" id="namedview41" showgrid="false" inkscape:zoom="0.11313708" inkscape:cx="7111.5714" inkscape:cy="4518.8512" inkscape:window-x="-8" inkscape:window-y="-8" inkscape:window-maximized="1" inkscape:current-layer="svg39" inkscape:document-rotation="0"/>
  <defs id="defs37">
    <linearGradient gradientTransform="matrix(-0.06,-3.54,1.61,-0.02,10695,4575)" gradientUnits="userSpaceOnUse" id="gradient0" spreadMethod="pad" x1="-819.2" x2="819.2">
      <stop offset="0.0" stop-color="#635b58" id="stop32"/>
      <stop offset="1.0" stop-color="#d3cebc" id="stop34"/>
    </linearGradient>
    <linearGradient gradientTransform="matrix(-6e-4,-0.0354,0.0161,-2e-4,63.65,-1.55)" gradientUnits="userSpaceOnUse" id="gradient0-03" spreadMethod="pad" x1="-819.20001" x2="819.20001">
      <stop offset="0.0" stop-color="#635b58" id="stop32-2"/>
      <stop offset="1.0" stop-color="#d3cebc" id="stop34-3"/>
    </linearGradient>
    <linearGradient gradientTransform="matrix(0.0094,-0.0338,0.0147,0.0041,-72.2,-76.65)" gradientUnits="userSpaceOnUse" id="gradient0-7" spreadMethod="pad" x1="-819.2" x2="819.2">
      <stop offset="0.0" stop-color="#635b58" id="stop900"/>
      <stop offset="1.0" stop-color="#d3cebc" id="stop902"/>
    </linearGradient>
    <linearGradient gradientTransform="matrix(0.0076,-0.0338,0.0118,0.0041,-64.95,-76.65)" gradientUnits="userSpaceOnUse" id="gradient1" spreadMethod="pad" x1="-819.2" x2="819.2">
      <stop offset="0.0" stop-color="#635b58" id="stop905"/>
      <stop offset="1.0" stop-color="#d3cebc" id="stop907"/>
    </linearGradient>
    <linearGradient gradientTransform="matrix(0.0122,-0.0354,0.0152,0.0053,-8.05,-23.65)" gradientUnits="userSpaceOnUse" id="gradient0-1" spreadMethod="pad" x1="-819.2" x2="819.2">
      <stop offset="0.0" stop-color="#635b58" id="stop972"/>
      <stop offset="1.0" stop-color="#d3cebc" id="stop974"/>
    </linearGradient>
    <linearGradient gradientTransform="matrix(0.0094,-0.0338,0.0147,0.0041,-15.95,-16.8)" gradientUnits="userSpaceOnUse" id="gradient0-10" spreadMethod="pad" x1="-819.2" x2="819.2">
      <stop offset="0.0" stop-color="#635b58" id="stop1038"/>
      <stop offset="1.0" stop-color="#d3cebc" id="stop1040"/>
    </linearGradient>
    <linearGradient gradientTransform="matrix(0.0094,-0.0338,0.0147,0.0041,-15.95,-16.8)" gradientUnits="userSpaceOnUse" id="gradient0-6" spreadMethod="pad" x1="-819.2" x2="819.2">
      <stop offset="0.0" stop-color="#635b58" id="stop1103"/>
      <stop offset="1.0" stop-color="#d3cebc" id="stop1105"/>
    </linearGradient>
    <linearGradient gradientTransform="matrix(0.0094,-0.0338,0.0147,0.0041,-15.95,-16.8)" gradientUnits="userSpaceOnUse" id="gradient0-68" spreadMethod="pad" x1="-819.2" x2="819.2">
      <stop offset="0.0" stop-color="#635b58" id="stop1167"/>
      <stop offset="1.0" stop-color="#d3cebc" id="stop1169"/>
    </linearGradient>
    <linearGradient gradientTransform="matrix(0.0094,-0.0338,0.0147,0.0041,-15.95,-16.8)" gradientUnits="userSpaceOnUse" id="gradient0-2" spreadMethod="pad" x1="-819.2" x2="819.2">
      <stop offset="0.0" stop-color="#635b58" id="stop1231"/>
      <stop offset="1.0" stop-color="#d3cebc" id="stop1233"/>
    </linearGradient>
    <linearGradient gradientTransform="matrix(0.0094,-0.0338,0.0147,0.0041,-86.042641,-71.794156)" gradientUnits="userSpaceOnUse" id="gradient0-21" spreadMethod="pad" x1="-819.2" x2="819.2">
      <stop offset="0.0" stop-color="#635b58" id="stop1287"/>
      <stop offset="1.0" stop-color="#d3cebc" id="stop1289"/>
    </linearGradient>
    <linearGradient gradientTransform="matrix(0.0094,-0.0338,0.0147,0.0041,-81.8,-97.25)" gradientUnits="userSpaceOnUse" id="gradient0-8" spreadMethod="pad" x1="-819.2" x2="819.2">
      <stop offset="0.0" stop-color="#635b58" id="stop1341"/>
      <stop offset="1.0" stop-color="#d3cebc" id="stop1343"/>
    </linearGradient>
    <linearGradient gradientTransform="matrix(0.0094,-0.0338,0.0147,0.0041,-145,-90.35)" gradientUnits="userSpaceOnUse" id="gradient0-9" spreadMethod="pad" x1="-819.2" x2="819.2">
      <stop offset="0.0" stop-color="#635b58" id="stop1390"/>
      <stop offset="1.0" stop-color="#d3cebc" id="stop1392"/>
    </linearGradient>
    <linearGradient gradientTransform="matrix(0.0094,-0.0338,0.0147,0.0041,-145,-90.35)" gradientUnits="userSpaceOnUse" id="gradient0-0" spreadMethod="pad" x1="-819.2" x2="819.2">
      <stop offset="0.0" stop-color="#635b58" id="stop1436"/>
      <stop offset="1.0" stop-color="#d3cebc" id="stop1438"/>
    </linearGradient>
    <linearGradient gradientTransform="matrix(0.0094,-0.0338,0.0147,0.0041,-145,-90.35)" gradientUnits="userSpaceOnUse" id="gradient0-13" spreadMethod="pad" x1="-819.2" x2="819.2">
      <stop offset="0.0" stop-color="#635b58" id="stop1482"/>
      <stop offset="1.0" stop-color="#d3cebc" id="stop1484"/>
    </linearGradient>
    <linearGradient gradientTransform="matrix(0.0094,-0.0338,0.0147,0.0041,-72.2,-76.65)" gradientUnits="userSpaceOnUse" id="gradient0-4" spreadMethod="pad" x1="-819.2" x2="819.2">
      <stop offset="0.0" stop-color="#635b58" id="stop1544"/>
      <stop offset="1.0" stop-color="#d3cebc" id="stop1546"/>
    </linearGradient>
    <linearGradient gradientTransform="matrix(0.0076,-0.0338,0.0118,0.0041,-64.95,-76.65)" gradientUnits="userSpaceOnUse" id="gradient1-2" spreadMethod="pad" x1="-819.2" x2="819.2">
      <stop offset="0.0" stop-color="#635b58" id="stop1549"/>
      <stop offset="1.0" stop-color="#d3cebc" id="stop1551"/>
    </linearGradient>
    <linearGradient gradientTransform="matrix(0.0094,-0.0338,0.0147,0.0041,-72.2,-76.65)" gradientUnits="userSpaceOnUse" id="gradient0-29" spreadMethod="pad" x1="-819.2" x2="819.2">
      <stop offset="0.0" stop-color="#635b58" id="stop1618"/>
      <stop offset="1.0" stop-color="#d3cebc" id="stop1620"/>
    </linearGradient>
    <linearGradient gradientTransform="matrix(0.0076,-0.0338,0.0118,0.0041,-64.95,-76.65)" gradientUnits="userSpaceOnUse" id="gradient1-1" spreadMethod="pad" x1="-819.2" x2="819.2">
      <stop offset="0.0" stop-color="#635b58" id="stop1623"/>
      <stop offset="1.0" stop-color="#d3cebc" id="stop1625"/>
    </linearGradient>
    <linearGradient gradientTransform="matrix(0.94,-3.38,1.47,0.41,67824.35,-6518.697)" gradientUnits="userSpaceOnUse" id="gradient0-62" spreadMethod="pad" x1="-819.2" x2="819.2">
      <stop offset="0.0" stop-color="#635b58" id="stop1696"/>
      <stop offset="1.0" stop-color="#d3cebc" id="stop1698"/>
    </linearGradient>
    <linearGradient gradientTransform="matrix(0.76,-3.38,1.18,0.41,68549.35,-6518.697)" gradientUnits="userSpaceOnUse" id="gradient1-24" spreadMethod="pad" x1="-819.2" x2="819.2">
      <stop offset="0.0" stop-color="#635b58" id="stop1701"/>
      <stop offset="1.0" stop-color="#d3cebc" id="stop1703"/>
    </linearGradient>
    <linearGradient gradientTransform="matrix(0.0094,-0.0338,0.0147,0.0041,-72.2,-76.65)" gradientUnits="userSpaceOnUse" id="gradient0-3" spreadMethod="pad" x1="-819.2" x2="819.2">
      <stop offset="0.0" stop-color="#635b58" id="stop1771"/>
      <stop offset="1.0" stop-color="#d3cebc" id="stop1773"/>
    </linearGradient>
    <linearGradient gradientTransform="matrix(0.0076,-0.0338,0.0118,0.0041,-64.95,-76.65)" gradientUnits="userSpaceOnUse" id="gradient1-3" spreadMethod="pad" x1="-819.2" x2="819.2">
      <stop offset="0.0" stop-color="#635b58" id="stop1776"/>
      <stop offset="1.0" stop-color="#d3cebc" id="stop1778"/>
    </linearGradient>
    <linearGradient gradientTransform="matrix(0.0094,-0.0338,0.0147,0.0041,-32,-101.9)" gradientUnits="userSpaceOnUse" id="gradient0-35" spreadMethod="pad" x1="-819.2" x2="819.2">
      <stop offset="0.0" stop-color="#635b58" id="stop1835"/>
      <stop offset="1.0" stop-color="#d3cebc" id="stop1837"/>
    </linearGradient>
    <linearGradient gradientTransform="matrix(0.0094,-0.0338,0.0147,0.0041,-32,-101.9)" gradientUnits="userSpaceOnUse" id="gradient0-67" spreadMethod="pad" x1="-819.2" x2="819.2">
      <stop offset="0.0" stop-color="#635b58" id="stop1889"/>
      <stop offset="1.0" stop-color="#d3cebc" id="stop1891"/>
    </linearGradient>
    <linearGradient gradientTransform="matrix(0.0096,-0.0351,0.015,0.0042,-3.8,-35.9)" gradientUnits="userSpaceOnUse" id="gradient0-64" spreadMethod="pad" x1="-819.2" x2="819.2">
      <stop offset="0.0" stop-color="#635b58" id="stop1950"/>
      <stop offset="1.0" stop-color="#d3cebc" id="stop1952"/>
    </linearGradient>
    <linearGradient gradientTransform="matrix(0.0067,-0.0244,0.0104,0.0029,-4,-25.25)" gradientUnits="userSpaceOnUse" id="gradient1-13" spreadMethod="pad" x1="-819.2" x2="819.2">
      <stop offset="0.0" stop-color="#635b58" id="stop1955"/>
      <stop offset="1.0" stop-color="#d3cebc" id="stop1957"/>
    </linearGradient>
    <linearGradient gradientTransform="matrix(0.0096,-0.0351,0.015,0.0042,-3.8,-35.9)" gradientUnits="userSpaceOnUse" id="gradient0-5" spreadMethod="pad" x1="-819.2" x2="819.2">
      <stop offset="0.0" stop-color="#635b58" id="stop2022"/>
      <stop offset="1.0" stop-color="#d3cebc" id="stop2024"/>
    </linearGradient>
    <linearGradient gradientTransform="matrix(0.0067,-0.0244,0.0104,0.0029,-4,-25.25)" gradientUnits="userSpaceOnUse" id="gradient1-38" spreadMethod="pad" x1="-819.2" x2="819.2">
      <stop offset="0.0" stop-color="#635b58" id="stop2027"/>
      <stop offset="1.0" stop-color="#d3cebc" id="stop2029"/>
    </linearGradient>
    <linearGradient gradientTransform="matrix(0.0096,-0.0351,0.015,0.0042,-3.8,-35.9)" gradientUnits="userSpaceOnUse" id="gradient0-95" spreadMethod="pad" x1="-819.2" x2="819.2">
      <stop offset="0.0" stop-color="#635b58" id="stop2094"/>
      <stop offset="1.0" stop-color="#d3cebc" id="stop2096"/>
    </linearGradient>
    <linearGradient gradientTransform="matrix(0.0067,-0.0244,0.0104,0.0029,-4,-25.25)" gradientUnits="userSpaceOnUse" id="gradient1-0" spreadMethod="pad" x1="-819.2" x2="819.2">
      <stop offset="0.0" stop-color="#635b58" id="stop2099"/>
      <stop offset="1.0" stop-color="#d3cebc" id="stop2101"/>
    </linearGradient>
    <linearGradient gradientTransform="matrix(-0.0245,-0.0276,0.0156,-0.0138,0.7,-29.5)" gradientUnits="userSpaceOnUse" id="gradient0-55" spreadMethod="pad" x1="-819.2" x2="819.2">
      <stop offset="0.0" stop-color="#cf0e48" id="stop2156"/>
      <stop offset="1.0" stop-color="#f3a68b" id="stop2158"/>
    </linearGradient>
    <linearGradient gradientTransform="matrix(-0.0638,-0.0681,0.005,-0.0046,20.7,-3)" gradientUnits="userSpaceOnUse" id="gradient1-5" spreadMethod="pad" x1="-819.2" x2="819.2">
      <stop offset="0.0" stop-color="#cf0e48" id="stop2161"/>
      <stop offset="1.0" stop-color="#f3a68b" id="stop2163"/>
    </linearGradient>
    <linearGradient gradientTransform="matrix(0.0023,-0.031,0.0156,0.0013,1.85,-15.45)" gradientUnits="userSpaceOnUse" id="gradient2" spreadMethod="pad" x1="-819.2" x2="819.2">
      <stop offset="0.0" stop-color="#635b58" id="stop2166"/>
      <stop offset="1.0" stop-color="#d3cebc" id="stop2168"/>
    </linearGradient>
    <linearGradient gradientTransform="matrix(-0.0245,-0.0276,0.0156,-0.0138,-0.6,-36.35)" gradientUnits="userSpaceOnUse" id="gradient0-620" spreadMethod="pad" x1="-819.2" x2="819.2">
      <stop offset="0.0" stop-color="#cf0e48" id="stop2217"/>
      <stop offset="1.0" stop-color="#f3a68b" id="stop2219"/>
    </linearGradient>
    <linearGradient gradientTransform="matrix(0.0023,-0.031,0.0156,0.0013,17.95,-6.5)" gradientUnits="userSpaceOnUse" id="gradient1-6" spreadMethod="pad" x1="-819.2" x2="819.2">
      <stop offset="0.0" stop-color="#635b58" id="stop2222"/>
      <stop offset="1.0" stop-color="#d3cebc" id="stop2224"/>
    </linearGradient>
    <linearGradient gradientTransform="matrix(0.0023,0.031,0.0156,-0.0013,-82.2,2.4)" gradientUnits="userSpaceOnUse" id="gradient0-72" spreadMethod="pad" x1="-819.2" x2="819.2">
      <stop offset="0.0" stop-color="#635b58" id="stop2270"/>
      <stop offset="1.0" stop-color="#d3cebc" id="stop2272"/>
    </linearGradient>
    <linearGradient gradientTransform="matrix(-0.0069,0.0362,-0.0204,-0.0039,-5.1,14)" gradientUnits="userSpaceOnUse" id="gradient1-4" spreadMethod="pad" x1="-819.2" x2="819.2">
      <stop offset="0.0" stop-color="#cf0e48" id="stop2275"/>
      <stop offset="1.0" stop-color="#f3a68b" id="stop2277"/>
    </linearGradient>
    <linearGradient gradientTransform="matrix(-0.0638,0.0681,0.005,0.0046,55.25,-15.6)" gradientUnits="userSpaceOnUse" id="gradient2-8" spreadMethod="pad" x1="-819.2" x2="819.2">
      <stop offset="0.0" stop-color="#cf0e48" id="stop2280"/>
      <stop offset="1.0" stop-color="#f3a68b" id="stop2282"/>
    </linearGradient>
    <linearGradient gradientTransform="matrix(-6e-4,-0.0354,0.0161,-2e-4,63.65,-1.15)" gradientUnits="userSpaceOnUse" id="gradient0-41" spreadMethod="pad" x1="-819.2" x2="819.2">
      <stop offset="0.0" stop-color="#635b58" id="stop2336"/>
      <stop offset="1.0" stop-color="#d3cebc" id="stop2338"/>
    </linearGradient>
    <linearGradient gradientTransform="matrix(-6e-4,-0.0354,0.0161,-2e-4,63.65,-1.55)" gradientUnits="userSpaceOnUse" id="gradient0-18" spreadMethod="pad" x1="-819.2" x2="819.2">
      <stop offset="0.0" stop-color="#635b58" id="stop2388"/>
      <stop offset="1.0" stop-color="#d3cebc" id="stop2390"/>
    </linearGradient>
    <linearGradient gradientTransform="matrix(0.0122,-0.0354,0.0152,0.0053,-8.05,-23.65)" gradientUnits="userSpaceOnUse" id="gradient0-71" spreadMethod="pad" x1="-819.2" x2="819.2">
      <stop offset="0.0" stop-color="#635b58" id="stop2448"/>
      <stop offset="1.0" stop-color="#d3cebc" id="stop2450"/>
    </linearGradient>
    <linearGradient gradientTransform="matrix(0.0122,-0.0354,0.0152,0.0053,-8.05,-23.65)" gradientUnits="userSpaceOnUse" id="gradient0-15" spreadMethod="pad" x1="-819.2" x2="819.2">
      <stop offset="0.0" stop-color="#635b58" id="stop2516"/>
      <stop offset="1.0" stop-color="#d3cebc" id="stop2518"/>
    </linearGradient>
    <linearGradient gradientTransform="matrix(0.0094,-0.0338,0.0147,0.0041,-15.95,-16.8)" gradientUnits="userSpaceOnUse" id="gradient0-47" spreadMethod="pad" x1="-819.2" x2="819.2">
      <stop offset="0.0" stop-color="#635b58" id="stop2582"/>
      <stop offset="1.0" stop-color="#d3cebc" id="stop2584"/>
    </linearGradient>
    <linearGradient gradientTransform="matrix(0.0094,-0.0338,0.0147,0.0041,-15.95,-16.8)" gradientUnits="userSpaceOnUse" id="gradient0-58" spreadMethod="pad" x1="-819.2" x2="819.2">
      <stop offset="0.0" stop-color="#635b58" id="stop2646"/>
      <stop offset="1.0" stop-color="#d3cebc" id="stop2648"/>
    </linearGradient>
    <linearGradient gradientTransform="matrix(0.0094,-0.0338,0.0147,0.0041,-81.8,-97.25)" gradientUnits="userSpaceOnUse" id="gradient0-100" spreadMethod="pad" x1="-819.2" x2="819.2">
      <stop offset="0.0" stop-color="#635b58" id="stop2702"/>
      <stop offset="1.0" stop-color="#d3cebc" id="stop2704"/>
    </linearGradient>
    <linearGradient gradientTransform="matrix(0.0094,-0.0338,0.0147,0.0041,-145,-90.35)" gradientUnits="userSpaceOnUse" id="gradient0-25" spreadMethod="pad" x1="-819.2" x2="819.2">
      <stop offset="0.0" stop-color="#635b58" id="stop2750"/>
      <stop offset="1.0" stop-color="#d3cebc" id="stop2752"/>
    </linearGradient>
    <linearGradient gradientTransform="matrix(0.0094,-0.0338,0.0147,0.0041,-72.2,-76.65)" gradientUnits="userSpaceOnUse" id="gradient0-28" spreadMethod="pad" x1="-819.2" x2="819.2">
      <stop offset="0.0" stop-color="#635b58" id="stop2808"/>
      <stop offset="1.0" stop-color="#d3cebc" id="stop2810"/>
    </linearGradient>
    <linearGradient gradientTransform="matrix(0.0076,-0.0338,0.0118,0.0041,-64.95,-76.65)" gradientUnits="userSpaceOnUse" id="gradient1-36" spreadMethod="pad" x1="-819.2" x2="819.2">
      <stop offset="0.0" stop-color="#635b58" id="stop2813"/>
      <stop offset="1.0" stop-color="#d3cebc" id="stop2815"/>
    </linearGradient>
    <linearGradient gradientTransform="matrix(0.0094,-0.0338,0.0147,0.0041,-72.2,-76.65)" gradientUnits="userSpaceOnUse" id="gradient0-358" spreadMethod="pad" x1="-819.2" x2="819.2">
      <stop offset="0.0" stop-color="#635b58" id="stop2880"/>
      <stop offset="1.0" stop-color="#d3cebc" id="stop2882"/>
    </linearGradient>
    <linearGradient gradientTransform="matrix(0.0076,-0.0338,0.0118,0.0041,-64.95,-76.65)" gradientUnits="userSpaceOnUse" id="gradient1-9" spreadMethod="pad" x1="-819.2" x2="819.2">
      <stop offset="0.0" stop-color="#635b58" id="stop2885"/>
      <stop offset="1.0" stop-color="#d3cebc" id="stop2887"/>
    </linearGradient>
    <linearGradient gradientTransform="matrix(0.0094,-0.0338,0.0147,0.0041,-32,-101.9)" gradientUnits="userSpaceOnUse" id="gradient0-63" spreadMethod="pad" x1="-819.2" x2="819.2">
      <stop offset="0.0" stop-color="#635b58" id="stop2944"/>
      <stop offset="1.0" stop-color="#d3cebc" id="stop2946"/>
    </linearGradient>
    <linearGradient gradientTransform="matrix(0.0096,-0.0351,0.015,0.0042,-3.8,-35.9)" gradientUnits="userSpaceOnUse" id="gradient0-89" spreadMethod="pad" x1="-819.2" x2="819.2">
      <stop offset="0.0" stop-color="#635b58" id="stop3002"/>
      <stop offset="1.0" stop-color="#d3cebc" id="stop3004"/>
    </linearGradient>
    <linearGradient gradientTransform="matrix(0.96,-3.51,1.5,0.42,7060,-625)" gradientUnits="userSpaceOnUse" id="gradient0-33" spreadMethod="pad" x1="-819.20001" x2="819.20001">
      <stop offset="0.0" stop-color="#635b58" id="stop34-5"/>
      <stop offset="1.0" stop-color="#d3cebc" id="stop36"/>
    </linearGradient>
    <linearGradient gradientTransform="matrix(0.67,-2.44,1.04,0.29,7040,440)" gradientUnits="userSpaceOnUse" id="gradient1-7" spreadMethod="pad" x1="-819.20001" x2="819.20001">
      <stop offset="0.0" stop-color="#635b58" id="stop39"/>
      <stop offset="1.0" stop-color="#d3cebc" id="stop41"/>
    </linearGradient>
  </defs>
  <g xmlns:sodipodi="http://sodipodi.sourceforge.net/DTD/sodipodi-0.dtd" id="g1277" transform="matrix(0,0.56290649,-0.28353857,0,3450.8815,2143.6638)">
    <path id="path1267" style="fill:#fcfcf8;fill-opacity:1;stroke:none;stroke-width:89.9407" d="m 7272.7866,-6831.8437 c 0,418.6776 -410.282,820.2072 -1140.5886,1116.2569 -730.3065,296.0498 -1720.8148,462.3688 -2753.6243,462.3688 -1032.8095,0 -2023.3177,-166.319 -2753.62432,-462.3688 -730.30658,-296.0497 -1140.58854,-697.5793 -1140.58854,-1116.2569 -7e-5,-418.6776 -49.38802,-624.8475 680.91857,-920.8973 730.30658,-296.0498 2180.48479,-657.7285 3213.29429,-657.7285 1032.8095,0 2287.628,-327.8261 3017.9346,-31.7763 730.3066,296.0497 876.2784,1191.7245 876.2783,1610.4021 z" sodipodi:nodetypes="sssssssss"/>
    <g id="g1255" transform="translate(13553.988,-877.59637)">
      <path style="fill:#fdc591;stroke-width:22.0034" d="m -5773.172,-641.79283 c -20.739,-24.989 -17.2629,-52.13962 16.4262,-128.29965 23.5025,-53.13153 64.8343,-175.0139 91.8482,-270.84952 27.0138,-95.8357 68.5486,-238.6065 92.2997,-317.2686 23.7509,-78.662 56.572,-187.5787 72.9357,-242.037 31.7038,-105.5105 189.5722,-768.7422 229.4988,-964.1638 28.8682,-141.2952 1.2696,-225.0565 -57.9683,-175.9312 -19.1834,15.9089 -48.9256,62.5296 -66.0937,103.6018 -44.6206,106.7482 -216.2453,366.8766 -335.4349,508.4124 -56.0516,66.5602 -131.0976,160.6043 -166.769,208.9869 -132.1898,179.294 -321.6381,407.1074 -338.5484,407.1074 -9.5998,0 -80.6663,62.3602 -157.9252,138.5781 -126.8179,125.1091 -256.118,237.1291 -408.745,354.1193 -53.5041,41.01139 -54.9875,40.94978 -100.0863,-4.1488 -35.93,-35.9301 -44.9139,-70.1665 -41.7641,-159.158 2.2071,-62.3595 17.5014,-139.7047 33.9872,-171.8782 42.2377,-82.4297 159.3601,-458.2349 177.6684,-570.0755 15.0545,-91.9631 14.2542,-93.5144 -48.2351,-93.5144 -34.9491,0 -74.5919,11.0484 -88.0953,24.5518 -27.8132,27.8132 -87.6141,63.6575 -215.2849,129.0403 -48.4074,24.7906 -127.6195,69.2121 -176.0269,98.7146 -48.4074,29.5026 -102.8658,59.8408 -121.0185,67.4185 -45.1278,18.8382 -207.3866,84.8243 -345.1312,140.3553 -62.7527,25.2984 -134.1928,45.997 -158.7553,45.997 -24.5628,0 -92.0379,16.3909 -149.9446,36.4246 -269.6836,93.3 -1314.5512,98.214 -1514.509,7.1227 -52.5757,-23.9511 -123.3645,-43.5931 -157.3086,-43.6492 -69.4547,-0.11 -275.5757,-79.2682 -358.1569,-137.5378 -29.922,-21.1131 -69.528,-38.406 -88.013,-38.4286 -18.486,-0.022 -107.872,-49.4997 -198.636,-109.9486 -90.764,-60.449 -214.532,-142.9755 -275.042,-183.3924 -60.509,-40.4167 -248.638,-208.7378 -418.064,-374.0467 -169.426,-165.3088 -319.269,-300.597 -332.986,-300.6403 -38.381,-0.132 -50.314,89.608 -65.825,494.997 -10.846,283.4689 -5.464,451.3236 22.223,693.106 45.354,396.0571 81.977,538.25208 159.46,619.12633 59.589,62.19802 59.859,63.80492 23.543,139.961 -43.584,91.39604 -92.364,98.17616 -196.738,27.34578 -112.581,-76.39899 -144.758,-104.24623 -300.823,-260.33855 -249.641,-249.68626 -298.152,-324.72616 -528.29,-817.19076 -49.37,-105.6445 -89.764,-202.3187 -89.764,-214.8314 0,-12.5126 -9.828,-39.9436 -21.841,-60.9577 -47,-82.2153 -93.753,-242.7792 -110.433,-379.2595 -9.614,-78.662 -38.895,-256.8893 -65.07,-396.0606 -26.174,-139.1712 -57.071,-391.6599 -68.658,-561.0858 -11.588,-169.4259 -25.478,-320.424 -30.866,-335.5513 -84.468,-237.1264 -459.9,1014.0394 -529.523,1764.6878 -20.005,215.6851 -39.644,258.6669 -114.263,250.0808 -50.938,-5.8613 -73.564,-33.0423 -143.17,-171.9867 -105.352,-210.2994 -210.088,-624.3983 -236.384,-934.5976 -29.367,-346.4322 -31.141,-1175.3712 -3.089,-1443.7806 13.164,-125.9614 34.237,-367.6419 46.828,-537.0679 l 22.894,-308.0471 -104.824,-87.1058 c -358.579,-297.9683 -480.154,-560.9459 -424.664,-918.5871 69.639,-448.833 426.772,-807.2641 864.06,-867.2013 54.913,-7.5267 109.438,-19.9203 121.168,-27.5416 11.73,-7.6215 68.267,-132.6753 125.638,-277.8975 414.361,-1048.8723 1030.994,-1917.1737 1805.37,-2542.2029 364.822,-294.4616 881.65,-499.5236 1584.8793,-628.8346 303.5586,-55.818 373.4527,-60.596 890.4997,-60.874 522.4652,-0.28 799.5191,20.324 979.0542,72.812 36.3581,10.629 160.17,41.646 275.1375,68.927 211.4471,50.173 588.5289,198.154 770.1178,302.223 396.5468,227.2612 669.4367,439.6537 1172.2273,912.3551 453.7619,426.607 745.5512,820.3937 1202.2856,1622.5557 51.6791,90.7639 108.5212,189.779 126.3158,220.0337 74.0523,125.9046 295.5653,594.1833 348.6812,737.1128 122.2639,328.9996 227.4562,672.9575 283.9571,928.485 48.6726,220.1224 50.4465,1591.4846 2.3524,1818.4766 -75.1646,354.7574 -332.7109,921.3047 -628.2616,1382.0425 -60.0551,93.6203 -109.1911,193.1387 -109.1911,221.1521 0,33.5604 -49.2541,99.6449 -144.4032,193.7469 -79.4218,78.5476 -171.6304,185.1108 -204.9081,236.807 -82.7265,128.5142 -370.6218,499.6391 -464.8131,599.1887 -42.3565,44.766 -131.4702,145.6394 -198.0303,224.163 -66.5602,78.52341 -153.9551,166.63435 -194.2112,195.8018 -40.2558,29.16744 -98.6356,75.31026 -129.7323,102.53943 -66.3526,58.10011 -79.8647,60.19219 -115.038,17.81084 z m -7315.005,-4474.35967 c 47.198,-33.757 141.686,-88.4239 209.973,-121.4822 93.198,-45.1172 143.952,-88.8438 203.531,-175.3503 43.655,-63.3844 79.372,-121.7658 79.372,-129.736 0,-7.9703 -59.328,-54.109 -131.839,-102.5304 l -131.84,-88.0393 -37.837,79.7347 c -64.732,136.4134 -305.566,371.9258 -452.391,442.3951 -121.36,58.2467 -128.566,65.5714 -86.608,88.0265 42.041,22.4997 179.902,60.8769 237.622,66.148 13.312,1.2168 62.819,-25.409 110.017,-59.1661 z m 4647.5684,-422.097 c 68.7293,-35.9753 182.7701,-90.2862 253.4244,-120.6909 70.6541,-30.4045 125.1125,-63.8595 121.0185,-74.3441 -4.0941,-10.4846 -61.5429,-62.9186 -127.6642,-116.5199 -243.6751,-197.5361 -308.8451,-461.6736 -177.906,-721.0624 116.4696,-230.7251 520.9636,-539.9833 822.861,-629.1229 48.9984,-14.4675 92.4841,-36.4931 96.635,-48.9454 12.3956,-37.1873 -103.5676,-158.938 -196.5765,-206.3876 -125.7336,-64.1447 -266.0572,-73.6163 -484.3079,-32.6904 -740.454,138.8485 -1239.9765,673.1833 -1143.1587,1222.8267 32.4693,184.3308 80.4188,273.0853 184.8818,342.2157 145.4897,96.2806 399.4488,311.382 452.7504,383.476 27.1038,36.66 54.6348,66.6546 61.1797,66.6546 6.5452,0 68.1332,-29.4343 136.8625,-65.4094 z m -3593.6064,-286.6445 c -24.204,-10.4007 -73.711,-18.9103 -110.017,-18.9103 -36.305,0 -85.813,8.5096 -110.017,18.9103 -30.101,12.9352 4.662,18.9104 110.017,18.9104 105.355,0 140.118,-5.9752 110.017,-18.9104 z m -568.627,-66.4484 c 189.556,-40.6525 190.508,-42.4005 192.674,-353.9562 1.636,-235.405 -4.594,-286.7418 -45.554,-375.3616 -52.381,-113.3308 -124.48,-172.15 -219.329,-178.9314 -56.914,-4.0693 -63.337,3.1172 -74.69,83.5613 -6.831,48.4074 -40.602,139.6129 -75.045,202.6789 l -62.625,114.6657 50.041,155.627 c 38.089,118.458 47.026,184.8377 37.417,277.9333 -12.152,117.7471 -10.814,121.8525 35.888,110.131 26.681,-6.6965 99.231,-23.0531 161.223,-36.348 z m -793.68,-353.8029 c 213.75,-66.0206 378.607,-181.9381 465.67,-327.4314 88.653,-148.1507 98.069,-274.2256 22.003,-294.6104 -153.792,-41.2147 -412.668,3.1604 -624.518,107.0513 -172.856,84.7684 -216.072,134.2322 -250.156,286.3243 -27.072,120.7998 2.311,203.0184 88.054,246.3877 76.179,38.5323 126.47,35.5511 298.947,-17.7215 z m 6549.6002,-562.0197 c 96.3751,-15.9297 101.9878,-41.7696 37.8501,-174.2602 -67.3461,-139.1187 -186.1071,-251.6842 -265.5366,-251.6842 -86.8129,0 -177.094,48.3352 -248.2657,132.9181 -73.7033,87.5915 -72.5191,121.5607 6.8215,195.676 103.8389,97.0001 266.7387,130.8038 469.1307,97.3503 z" id="path1265"/>
      <path style="fill:#f59b6c;stroke-width:22.0034" d="m -5751.8637,-653.86146 c -24.5218,-15.15525 -19.8294,-42.19211 25.4999,-146.92814 30.5533,-70.59538 73.0591,-192.71516 94.4572,-271.3772 37.1885,-136.7091 84.2471,-299.9915 155.3653,-539.0825 48.974,-164.6448 180.1508,-707.7699 206.9053,-856.6716 33.4755,-186.3082 30.6774,-342.5119 -6.1358,-342.5119 -40.6063,0 -94.3159,63.2305 -133.6262,157.3131 -41.9158,100.3189 -277.1579,456.2147 -372.5782,563.6706 -40.1165,45.1767 -116.0946,141.5483 -168.8404,214.1594 -143.9801,198.2068 -804.7752,833.1417 -900.2287,864.9984 -11.3167,3.7768 -36.6578,-17.6769 -56.3132,-47.675 -44.759,-68.3107 -27.7398,-158.8295 99.8891,-531.2796 101.5244,-296.2707 121.8016,-455.6666 59.588,-468.4083 -21.1644,-4.3347 -100.3765,29.8493 -176.0269,75.9644 -182.9041,111.4946 -243.1678,144.704 -412.5884,227.3643 -257.6244,125.6947 -321.5933,154.0779 -347.2527,154.0779 -13.9213,0 -57.8273,14.017 -97.5689,31.1489 -143.8606,62.0153 -474.1665,123.8851 -746.4731,139.8223 -354.7578,20.7628 -900.5383,-5.3261 -981.7741,-46.9301 -33.15,-16.9773 -112.2446,-37.9072 -175.7657,-46.5109 -63.5213,-8.6035 -120.8731,-24.3476 -127.4486,-34.9869 -6.5752,-10.6393 -53.6184,-30.4357 -104.5404,-43.9922 -50.9219,-13.5565 -107.4378,-37.1773 -125.5908,-52.4906 -18.152,-15.3134 -65.813,-38.85 -105.912,-52.3037 -65.428,-21.9521 -162.456,-82.7364 -490.249,-307.1215 -55.597,-38.0581 -238.07,-203.5923 -405.497,-367.8538 -172.102,-168.8497 -319.056,-295.837 -338.107,-292.1682 -49.884,9.6067 -67.256,120.0759 -82.292,523.3025 -20.42,547.5934 63.576,1196.52969 169.642,1310.61847 61.039,65.65584 50.759,185.6105 -15.906,185.6105 -83.53,0 -358.69,-225.22536 -541.876,-443.53907 -190.571,-227.1154 -416.944,-672.8787 -556.938,-1096.6966 -17.989,-54.4583 -37.476,-138.6212 -43.305,-187.0286 -5.828,-48.4074 -20.253,-132.5703 -32.055,-187.0286 -58.32,-269.1228 -108.373,-632.6019 -121.199,-880.1347 -16.023,-309.2256 -23.771,-352.0538 -63.693,-352.0538 -87.75,0 -345.28,749.4839 -442.295,1287.1969 -19.651,108.9167 -44.97,239.5456 -56.264,290.2864 -11.294,50.7409 -20.59,144.8053 -20.657,209.032 -0.152,145.0286 -36.189,280.2292 -79.079,296.6877 -124.923,47.9374 -331.167,-533.3961 -383.886,-1082.0499 -40.132,-417.6511 -22.783,-1448.2495 33.522,-1991.3046 16.822,-162.2526 20.63,-290.0262 9.286,-311.5814 -10.577,-20.0967 -53.851,-57.9355 -96.164,-84.0865 -110.306,-68.1728 -289.899,-277.376 -359.229,-418.4567 -53.166,-108.1886 -59.471,-145.512 -59.471,-352.0539 0,-221.3475 3.44,-238.2399 82.04,-402.8482 150.7,-315.6083 379.829,-493.5443 754.088,-585.6068 176.773,-43.4837 156.447,-16.9716 321.826,-419.7604 338.88,-825.3604 733.968,-1437.3637 1304.929,-2021.3742 455.129,-465.5313 724.397,-646.0042 1244.684,-834.2312 334.109,-120.872 683.8386,-201.507 1067.1634,-246.048 413.1044,-48.002 1136.9049,-37.624 1419.2171,20.349 54.4583,11.183 171.1544,35.32 259.3248,53.638 475.6329,98.817 1021.2745,355.928 1445.9359,681.3364 387.103,296.6284 963.5548,851.8703 1179.5452,1136.1448 276.5363,363.9621 671.8005,1010.3915 946.494,1547.93 168.4285,329.5924 317.1856,727.3985 437.3213,1169.4858 26.309,96.8148 59.3574,195.8299 73.4406,220.0336 36.5047,62.7374 48.8182,1536.839 14.3363,1716.2626 -54.6689,284.4655 -267.193,822.0727 -440.7828,1115.0169 -47.8663,80.7779 -87.0299,152.3907 -87.0299,159.1396 0,6.7491 -54.8394,93.2681 -121.8652,192.2645 -67.026,98.9964 -125.1738,208.4093 -129.2176,243.1396 -4.9594,42.595 -52.1082,107.6693 -144.8711,199.9495 -75.6354,75.2416 -161.3797,174.2442 -190.5427,220.0055 -135.1121,212.0112 -753.7486,949.8228 -857.0599,1022.16503 -30.4812,21.34414 -82.6079,60.36843 -115.8371,86.72055 -39.111,31.01682 -71.0139,41.36346 -90.468,29.34016 z M -9207.5704,-2799.351 c 385.5185,-76.7092 728.6784,-219.5108 990.9391,-412.3666 222.994,-163.9808 302.8988,-253.6984 465.668,-522.8565 113.0317,-186.9112 145.4482,-565.9478 62.9166,-735.6668 -63.2288,-130.0247 -145.7729,-210.4804 -215.9271,-210.4644 -161.3696,0.044 -796.3693,245.41 -1412.8257,545.9357 -695.8885,339.2492 -907.8405,405.4635 -1299.7705,406.0499 -241.957,0.3608 -418.638,-40.3287 -625.524,-144.0613 -295.312,-148.0699 -705.417,-511.188 -850.598,-753.1427 -85.821,-143.0278 -122.842,-241.7151 -160.735,-428.4812 l -24.478,-120.6471 -103.616,-17.3715 c -211.478,-35.4544 -605.274,108.8685 -695.53,254.9059 -143.177,231.6645 81.962,530.4977 569.764,756.2659 114.967,53.2103 238.736,111.0844 275.042,128.6096 36.305,17.5251 96.194,37.6892 133.087,44.8092 47.931,9.2505 84.051,39.7753 126.542,106.9404 219.743,347.3385 805.177,805.5778 1237.966,968.9987 180.43,68.1302 473.782,143.3669 647.733,166.1257 192.5681,25.1945 676.9115,6.6971 879.3466,-33.5829 z m -1197.7776,-1066.7062 c 239.474,-31.1381 511.4154,-133.1772 1047.0792,-392.8893 489.6026,-237.3798 870.0685,-394.7501 1185.6442,-490.4119 90.7639,-27.5137 173.363,-56.9119 183.5534,-65.3295 10.1907,-8.4177 -19.5139,-27.5652 -66.0101,-42.5506 -101.1758,-32.6079 -139.5466,-60.4393 -139.5466,-101.2166 0,-39.5367 81.1132,-38.8082 275.0502,2.4708 84.7085,18.03 267.8828,52.2027 407.0541,75.9395 139.1713,23.7366 371.8568,84.3306 517.079,134.6529 375.7029,130.1885 378.2295,130.3992 418.1388,34.8831 118.797,-284.3218 -80.0936,-591.6067 -553.4093,-855.0145 -123.8129,-68.9038 -138.0872,-71.6373 -370.8068,-71.004 -289.5595,0.7877 -529.968,55.171 -831.934,188.1932 -111.2233,48.996 -219.9642,94.4933 -241.6465,101.1048 -27.8402,8.4896 -82.7879,-30.4792 -187.0286,-132.6409 -169.6827,-166.2981 -233.7789,-218.5174 -388.4254,-316.4502 -397.7225,-251.8653 -714.0395,-389.7408 -1130.7326,-492.8611 -504.46,-124.8401 -1036.84,-86.3964 -1341.921,96.9008 -134.514,80.8177 -267.983,186.4557 -267.983,212.1024 0,9.6463 61.884,29.3879 137.521,43.8701 346.827,66.4081 552.6,163.2531 626.316,294.7705 41.891,74.7373 34.612,97.6338 -66.171,208.1461 -51.95,56.9654 -132.762,160.44 -179.582,229.9438 -46.819,69.5038 -129.16,166.4442 -182.978,215.4231 -89.392,81.3545 -326.392,219.2923 -376.779,219.2923 -11.508,0 -32.907,-36.3077 -47.553,-80.6837 -29.225,-88.5543 -14.656,-376.6331 22.565,-446.1818 25.985,-48.5527 -3.244,-78.075 -93.389,-94.3269 -79.967,-14.4168 -90.059,6.8342 -83.901,176.6822 17.309,477.4616 401.652,951.8093 1006.281,1241.9307 244.087,117.1213 427.285,143.7724 723.515,105.2547 z m -2668.926,-1231.231 c 55.952,-35.4835 174.233,-96.7169 262.848,-136.0741 142.598,-63.3336 183.376,-71.5034 354.774,-71.0783 l 193.657,0.4796 -6.629,-67.8159 c -5.893,-60.2921 -21.433,-73.9322 -140.071,-122.9455 -73.393,-30.3216 -157.556,-72.8206 -187.028,-94.4427 -29.473,-21.622 -88.173,-61.5764 -130.446,-88.7873 -110.984,-71.4405 -109.83,-113.7528 4.172,-152.9958 156.407,-53.8396 389.396,-107.8158 595.268,-137.9046 78.022,-11.403 82.512,-16.4164 82.512,-92.1313 0,-148.9116 -66.747,-330.6391 -160.604,-437.2663 -154.562,-175.5915 -483.326,-386.9917 -543.757,-349.6434 -11.962,7.3931 -21.75,46.7936 -21.75,87.5564 0,41.7932 -33.354,138.1055 -76.483,220.8496 -72.917,139.8919 -74.93,149.7401 -43.159,211.1784 58.958,114.0122 80.948,294.5797 52.737,433.0379 -35.829,175.8454 -120.067,320.5182 -277.471,476.5401 -137.336,136.1302 -170.882,158.8757 -325.121,220.4522 -104.289,41.6345 -88.968,65.5029 79.366,123.6408 155.154,53.5859 168.653,52.5214 287.185,-22.6498 z m 4539.6941,-351.4749 c 39.2885,-37.459 181.3711,-108.7959 354.228,-177.8506 95.0138,-37.9574 179.7714,-75.9077 188.3499,-84.3341 8.5784,-8.4264 -21.1261,-39.3829 -66.0101,-68.7922 -325.2069,-213.0843 -434.9498,-495.4797 -298.7586,-768.7793 92.6951,-186.015 346.364,-412.1906 613.2118,-546.7505 84.6553,-42.688 336.7445,-124.9666 451.0689,-147.223 30.2547,-5.8898 74.3921,-24.8862 98.0833,-42.2143 41.4951,-30.3499 40.2844,-33.2222 -33.005,-78.3135 -229.6555,-141.2948 -646.5304,-206.9749 -938.363,-147.8419 -741.6287,150.2731 -1232.2207,692.0443 -1135.8946,1254.3921 32.4901,189.6763 66.2492,251.7546 182.9001,336.3285 175.7985,127.4571 415.2807,341.4889 466.8572,417.2434 51.5046,75.6485 80.6595,89.1003 117.3321,54.1354 z m -3427.9291,-359.6283 c -14.648,-44.897 -191.574,-68.7988 -297.241,-40.1555 -151.335,41.0228 -109.466,67.6597 106.35,67.6597 150.008,0 197.626,-6.8609 190.891,-27.5042 z m -1402.91,-420.1143 c 261.694,-92.6397 412.995,-214.0395 497.904,-399.5054 102.343,-223.5465 44.448,-283.9823 -255.867,-267.0969 -215.793,12.1329 -396.626,71.7433 -534.292,176.1257 -185.894,140.9501 -216.787,438.5408 -52.923,509.8083 99.424,43.2415 181.384,38.6514 345.178,-19.3317 z m 6494.6946,-552.7635 c 146.4093,-19.8549 159.116,-45.6612 93.002,-188.8787 -61.1488,-132.4615 -167.7752,-256.3279 -247.3708,-287.3672 -84.2317,-32.8473 -209.2535,14.4263 -298.031,112.6922 -96.3379,106.6347 -99.9916,169.7793 -14.5596,251.6283 67.6214,64.7856 274.1584,148.4136 331.2376,134.12 18.1527,-4.5457 79.2275,-14.5332 135.7218,-22.1946 z" id="path1263"/>
      <path style="fill:#cf0e48;fill-opacity:1;stroke-width:22.0034" d="m -11450.774,-736.37474 c -122.134,-84.77435 -360.397,-314.76736 -467.335,-451.11436 -125.397,-159.8804 -352.804,-626.8389 -456.281,-936.9249 -85.723,-256.8838 -198.045,-932.8387 -218.953,-1317.658 -22.229,-409.1334 -58.364,-462.8454 -167.066,-248.3315 -183.621,362.3576 -398.516,1190.9023 -442.243,1705.097 -26.305,309.3266 -74.187,350.7145 -184.554,159.5244 -122.913,-212.9226 -227.923,-630.901 -266.726,-1061.6624 -29.166,-323.7868 -7.958,-1509.9896 34.029,-1903.2912 17.32,-162.2355 21.496,-290.0284 10.182,-311.5814 -10.55,-20.0967 -53.801,-57.9355 -96.114,-84.0865 -110.306,-68.1728 -289.899,-277.376 -359.229,-418.4567 -53.166,-108.1886 -59.471,-145.512 -59.471,-352.0539 0,-221.3475 3.44,-238.2399 82.04,-402.8482 150.7,-315.6083 379.829,-493.5443 754.088,-585.6068 176.773,-43.4837 156.447,-16.9716 321.826,-419.7604 338.88,-825.3604 733.968,-1437.3637 1304.929,-2021.3742 455.129,-465.5313 724.397,-646.0042 1244.684,-834.2312 334.109,-120.872 683.8386,-201.507 1067.1634,-246.048 413.1044,-48.002 1136.9049,-37.624 1419.2171,20.349 54.4583,11.183 171.1544,35.32 259.3248,53.638 475.6329,98.817 1021.2745,355.928 1445.9359,681.3364 559.6774,428.8683 1105.2642,993.6794 1405.6636,1455.1936 220.7598,339.161 332.3014,519.21 398.2607,642.8662 30.8771,57.8865 90.6807,164.6574 132.897,237.2685 130.2802,224.0796 321.9748,608.9517 378.0959,759.1161 84.2124,225.3295 196.2166,567.0508 248.8114,759.1162 26.5117,96.8148 59.5601,199.8119 73.4407,228.8825 17.615,36.8911 25.2378,306.0512 25.2378,891.1364 v 838.2807 l -106.4553,308.0471 c -115.9846,335.6209 -381.5839,871.1921 -576.187,1161.8592 -66.2642,98.9749 -120.7976,199.8456 -121.185,224.1571 -0.3873,24.3113 -65.7223,112.874 -145.1884,196.8058 -79.466,83.9319 -160.5464,177.9962 -180.1785,209.032 -137.2794,217.0207 -739.394,928.77617 -858.8318,1015.21926 -40.5533,29.35029 -92.5362,70.69198 -115.5176,91.87022 -86.9633,80.14 -114.1863,24.03031 -48.5698,-100.10784 20.4717,-38.73011 70.2783,-189.23643 110.6813,-334.45864 40.403,-145.2222 87.3135,-313.548 104.2458,-374.0572 265.0937,-947.3444 331.2763,-1350.1495 218.0593,-1327.1648 -18.8637,3.8295 -90.2959,104.0306 -158.7385,222.669 -68.4423,118.6384 -188.8005,299.7647 -267.4625,402.5028 -78.6621,102.7379 -177.8717,234.3068 -220.466,292.3752 -42.5944,58.0684 -92.1019,120.615 -110.0169,138.9924 -17.9149,18.3777 -63.7197,66.9833 -101.7882,108.0128 -167.87,180.9266 -589.9133,564.0396 -685.3634,622.1438 -90.9641,55.3735 -124.158,-157.0395 -50.2286,-321.4216 41.4704,-92.2097 128.0452,-356.5584 175.9721,-537.3147 13.2935,-50.1369 18.0639,-107.0706 10.6008,-126.5194 -16.0997,-41.9549 -89.1112,-45.4997 -155.1587,-7.5329 -26.0054,14.9489 -163.0016,94.0152 -304.4357,175.7027 -141.4344,81.6874 -267.3319,148.5227 -279.7722,148.5227 -12.4404,0 -58.6224,18.8606 -102.6267,41.9124 -106.5619,55.8232 -298.4464,118.6501 -553.0799,181.0893 -191.6647,46.9985 -255.6496,51.1981 -770.1178,50.5435 -527.2532,-0.6711 -568.1004,-3.6326 -677.418,-49.1162 -63.9827,-26.6212 -139.4608,-48.4021 -167.729,-48.4021 -98.6202,0 -525.2721,-202.9844 -740.3871,-352.247 -90.053,-62.4856 -193.438,-132.2682 -229.743,-155.0721 -36.306,-22.8038 -203.565,-180.3761 -371.686,-350.1604 -168.122,-169.7844 -318.772,-308.6989 -334.778,-308.6989 -74.1,0 -84.588,89.0579 -84.212,715.1094 0.326,541.3187 6.128,645.1488 47.813,855.4816 33.092,166.97611 61.613,254.47096 94.289,289.253 48.26,51.37038 54.428,164.88949 9.754,179.51226 -12.5,4.09109 -76.376,-29.8007 -141.948,-75.3151 z m 2378.4917,-2060.79946 c 370.5061,-84.2724 743.5984,-227.4072 1218.7065,-467.5497 508.7504,-257.147 727.2225,-379.1411 907.8375,-506.9345 150.806,-106.7022 255.52,-147.7451 640.5109,-251.0494 573.1925,-153.8042 771.2949,-318.5346 772.5234,-642.3852 0.9725,-256.6871 -161.5868,-432.1987 -650.7257,-702.5688 -567.9571,-313.9366 -1313.7906,-388.6697 -1945.1881,-194.9098 -105.2729,32.3056 -358.3094,137.5483 -383.9587,159.6956 -50.5272,43.6287 -118.9916,11.6204 -239.2774,-111.8664 -69.6017,-71.4535 -183.1063,-167.3532 -252.2327,-213.1103 -69.1264,-45.7571 -182.6486,-121.6195 -252.2716,-168.5828 -226.3135,-152.6571 -605.6431,-314.792 -940.5758,-402.0253 -640.354,-166.7802 -1154.155,-118.6661 -1541.459,144.3474 -119.985,81.4798 -174.804,141.9241 -174.804,192.7416 0,11.2413 83.895,37.1001 186.433,57.4637 306.843,60.9386 400.853,96.3066 495.628,186.4634 103.022,98.0028 111.109,159.3319 30.822,233.7396 -124.43,115.3176 -448.52,152.7442 -758.332,87.5734 -199.582,-41.9833 -218.591,-29.2612 -218.591,146.2979 0,295.5242 141.019,595.3378 406.976,865.2514 351.482,356.7122 761.274,562.1647 1120.611,561.8287 383.755,-0.3587 669.427,-88.8098 1305.6983,-404.2747 233.1543,-115.5987 535.1505,-254.4142 671.1027,-308.4788 263.411,-104.7521 642.1083,-233.2252 687.4726,-233.2252 15.0684,0 39.6261,-14.7352 54.5728,-32.7447 22.215,-26.7673 19.6943,-35.3933 -13.8084,-47.2553 -22.5412,-7.9807 -75.6393,-29.604 -117.9957,-48.0519 -69.5656,-30.2984 -72.1636,-34.3952 -26.8683,-42.3718 48.3783,-8.5198 200.0094,16.4534 642.9625,105.8942 195.5001,39.4752 400.331,96.9761 528.0807,148.2451 30.2547,12.1419 102.104,38.7222 159.665,59.0674 57.5613,20.3451 98.8706,46.3533 91.7985,57.796 -16.9186,27.375 -131.853,5.1114 -361.4803,-70.0213 -102.8657,-33.6573 -277.7458,-78.5543 -388.6225,-99.7712 -248.2497,-47.5042 -369.3969,-29.7547 -843.5659,123.592 -337.3169,109.0887 -505.3563,177.1676 -880.1346,356.5745 -127.0694,60.828 -339.952,162.5003 -473.0723,225.9382 -458.1911,218.3487 -758.1331,290.729 -1111.1701,268.1412 -309.081,-19.7753 -616.102,-163.6742 -947.202,-443.9465 -301.28,-255.0294 -475.272,-517.9371 -536.528,-810.7099 -16.495,-78.8363 -35.967,-153.0096 -43.272,-164.8296 -23.912,-38.6899 -223.571,-51.7203 -367.924,-24.0121 -182.849,35.0976 -368.046,128.7103 -458.547,231.7848 -68.377,77.8781 -71.675,89.3733 -60.618,211.3109 16.797,185.2371 143.162,339.3075 410.459,500.4531 148.551,89.5564 584.407,287.0381 633.514,287.0381 15.179,0 80.724,71.786 145.655,159.5244 278.66,376.5403 785.595,756.8203 1224.747,918.7484 540.583,199.3292 1076.5923,232.1441 1652.4487,101.1642 z m -3975.9267,-2302.6895 c 209.166,-132.6493 378.568,-185.9557 590.667,-185.8681 164.457,0.066 194.566,-5.5871 205.014,-38.5059 24.586,-77.4651 -13.309,-123.6583 -140.355,-171.0857 -123.369,-46.0548 -319.691,-163.9437 -389.842,-234.0942 -29.574,-29.5741 -30.728,-40.6048 -6.677,-63.8269 36.229,-34.9808 541.279,-163.6697 642.334,-163.6697 114.169,0 134.529,-40.1964 103.173,-203.6953 -14.489,-75.5463 -46.346,-179.4299 -70.794,-230.8527 -80.191,-168.6648 -444.831,-446.3112 -595.266,-453.25 -65.356,-3.0146 -72.923,3.0631 -78.027,62.6718 -9.362,109.3123 -50.519,234.3909 -98.468,299.2451 l -45.244,61.1962 49.986,133.6617 c 68.061,181.9931 56.266,421.7669 -28.958,588.6708 -91.404,179.0075 -303.31,390.9362 -470.843,470.8923 -125.346,59.8221 -138.86,72.0845 -110.593,100.3516 42.812,42.8117 187.249,93.0819 270.898,94.2842 38.481,0.5523 112.418,-27.7084 172.995,-66.1252 z m 4522.8058,-339.098 c 31.1755,-37.5642 239.442,-139.6818 434.9683,-213.2747 75.459,-28.4015 137.3434,-57.242 137.521,-64.0899 0.176,-6.8479 -40.3306,-35.2993 -90.0186,-63.2255 -217.7007,-122.3548 -344.5393,-294.3336 -365.2783,-495.2765 -11.0292,-106.8628 -3.9422,-139.52 57.2547,-263.8285 125.5413,-255.0106 441.7508,-498.2497 823.5248,-633.4833 250.2141,-88.6317 289.4285,-77.0679 179.9329,53.0603 -106.2181,126.2331 -46.8539,248.9901 157.3582,325.3956 108.376,40.5487 142.0731,43.5573 277.5566,24.7822 84.8128,-11.7531 164.0051,-31.1695 175.9827,-43.147 79.1844,-79.1844 -201.3572,-465.0672 -338.1092,-465.0672 -21.8639,0 -63.1006,-23.3479 -91.6372,-51.8843 -105.6454,-105.6457 -473.569,-212.3286 -730.3573,-211.7741 -563.7306,1.2168 -1130.5533,324.7369 -1338.6506,764.0473 -65.9726,139.2739 -70.4426,164.0692 -70.4426,390.7475 0,212.4075 6.204,252.8576 50.6801,330.4285 27.8739,48.6151 86.9714,112.975 131.3273,143.0219 141.1985,95.6475 418.9636,350.8146 467.6679,429.6197 50.6869,82.0131 88.5604,94.7463 130.7193,43.948 z m -3424.8108,-362.1165 c 31.078,-31.0782 -74.036,-67.8225 -194.018,-67.8225 -158.026,0 -274.052,65.4717 -170.526,96.2253 60.53,17.9814 339.929,-3.7876 364.544,-28.4028 z m -1433.234,-417.4586 c 156.906,-53.9835 251.579,-103.1468 354.696,-184.1918 109.282,-85.8905 212.944,-267.2583 213.211,-373.0369 0.292,-115.7527 -47.752,-135.5638 -295.124,-121.6949 -402.798,22.5832 -668.655,189.9489 -706.905,445.0203 -35.573,237.2174 143.716,333.8177 434.122,233.9033 z" id="path1261"/>
      <path style="fill:#761432;fill-opacity:1;stroke-width:22.0034" d="m -11450.774,-736.37474 c -122.134,-84.77435 -360.397,-314.76736 -467.335,-451.11436 -125.397,-159.8804 -352.804,-626.8389 -456.281,-936.9249 -85.723,-256.8838 -198.045,-932.8387 -218.953,-1317.658 -22.229,-409.1334 -58.364,-462.8454 -167.066,-248.3315 -183.621,362.3576 -398.516,1190.9023 -442.243,1705.097 -26.305,309.3266 -74.187,350.7145 -184.554,159.5244 -122.913,-212.9226 -227.923,-630.901 -266.726,-1061.6624 -29.166,-323.7868 -7.958,-1509.9896 34.029,-1903.2912 17.32,-162.2355 21.496,-290.0284 10.182,-311.5814 -10.55,-20.0967 -53.801,-57.9355 -96.114,-84.0865 -110.306,-68.1728 -289.899,-277.376 -359.229,-418.4567 -53.166,-108.1886 -59.471,-145.512 -59.471,-352.0539 0,-221.3475 3.44,-238.2399 82.04,-402.8482 150.7,-315.6083 379.829,-493.5443 754.088,-585.6068 176.773,-43.4837 156.447,-16.9716 321.826,-419.7604 338.88,-825.3604 733.968,-1437.3637 1304.929,-2021.3742 455.129,-465.5313 724.397,-646.0042 1244.684,-834.2312 334.109,-120.872 683.8386,-201.507 1067.1634,-246.048 413.1044,-48.002 1136.9049,-37.624 1419.2171,20.349 54.4583,11.183 171.1544,35.32 259.3248,53.638 475.6329,98.817 1021.2745,355.928 1445.9359,681.3364 559.6774,428.8683 1105.2642,993.6794 1405.6636,1455.1936 220.7598,339.161 332.3014,519.21 398.2607,642.8662 30.8771,57.8865 90.6807,164.6574 132.897,237.2685 130.2802,224.0796 321.9748,608.9517 378.0959,759.1161 84.2124,225.3295 196.2166,567.0508 248.8114,759.1162 26.5117,96.8148 59.5601,199.8119 73.4407,228.8825 17.615,36.8911 25.2378,306.0512 25.2378,891.1364 v 838.2807 l -106.4553,308.0471 c -115.9846,335.6209 -381.5839,871.1921 -576.187,1161.8592 -66.2642,98.9749 -120.7976,199.8456 -121.185,224.1571 -0.3873,24.3113 -65.7223,112.874 -145.1884,196.8058 -79.466,83.9319 -160.5464,177.9962 -180.1785,209.032 -137.2794,217.0207 -739.394,928.77617 -858.8318,1015.21926 -40.5533,29.35029 -92.5362,70.69198 -115.5176,91.87022 -80.1182,73.83207 -111.7146,31.46217 -60.447,-81.05799 18.6192,-40.86465 37.5945,-52.71214 71.5109,-44.64945 150.6271,35.80828 574.0377,-893.22974 720.0414,-1579.89894 63.9326,-300.6804 76.4683,-775.2829 25.7083,-973.3035 -21.7151,-84.713 -49.3835,-152.6094 -61.4853,-150.881 -12.1019,1.7294 -53.2842,95.7929 -91.5166,209.0319 -50.2588,148.8607 -70.0664,249.0018 -71.511,361.5365 -1.0979,85.6061 -17.745,248.981 -36.992,363.0555 -69.058,409.302 -367.0641,1487.4014 -427.9839,1548.3213 -33.1098,33.1097 -25.7444,-27.7866 23.8531,-197.2138 243.8814,-833.1077 373.558,-1414.3258 342.8505,-1536.6742 -25.4895,-101.5581 -76.1314,-60.5744 -208.3503,168.6142 -68.4423,118.6384 -188.8005,299.7647 -267.4625,402.5028 -78.6621,102.7379 -177.8717,234.3068 -220.466,292.3752 -42.5944,58.0684 -92.1019,120.615 -110.0169,138.9924 -17.9149,18.3777 -63.7197,66.9833 -101.7882,108.0128 -167.87,180.9266 -589.9133,564.0396 -685.3634,622.1438 -90.9641,55.3735 -124.158,-157.0395 -50.2286,-321.4216 41.4704,-92.2097 128.0452,-356.5584 175.9721,-537.3147 13.2935,-50.1369 18.0639,-107.0706 10.6008,-126.5194 -16.0997,-41.9549 -89.1112,-45.4997 -155.1587,-7.5329 -26.0054,14.9489 -163.0016,94.0152 -304.4357,175.7027 -141.4344,81.6874 -267.3319,148.5227 -279.7722,148.5227 -12.4404,0 -58.6224,18.8606 -102.6267,41.9124 -106.5619,55.8232 -298.4464,118.6501 -553.0799,181.0893 -191.6647,46.9985 -255.6496,51.1981 -770.1178,50.5435 -527.2532,-0.6711 -568.1004,-3.6326 -677.418,-49.1162 -63.9827,-26.6212 -139.4608,-48.4021 -167.729,-48.4021 -98.6202,0 -525.2721,-202.9844 -740.3871,-352.247 -90.053,-62.4856 -193.438,-132.2682 -229.743,-155.0721 -36.306,-22.8038 -203.565,-180.3761 -371.686,-350.1604 -168.122,-169.7844 -318.772,-308.6989 -334.778,-308.6989 -73.36,0 -84.253,90.2747 -84.96,704.1077 -0.562,487.7698 6.755,643.4891 37.738,803.1229 40.628,209.32571 46.769,268.56582 25.651,247.44743 -16.128,-16.12781 -40.886,-122.33983 -91.016,-390.46933 -31.372,-167.7985 -38.606,-317.5411 -36.675,-759.1161 1.322,-302.5463 11.667,-589.6903 22.988,-638.0977 27.087,-115.8244 89.079,-117.1287 212.865,-4.4785 326.854,297.4516 688.975,508.5374 1048.938,611.4412 42.357,12.1084 111.667,35.6622 154.024,52.3411 393.6738,155.0208 1348.2816,229.8688 1874.7165,146.9909 183.0071,-28.8112 546.5669,-126.8017 627.9395,-169.2488 33.4047,-17.4251 75.588,-31.8442 93.7407,-32.0422 90.2079,-0.9835 844.4786,-421.0025 920.4708,-512.5675 32.2573,-38.8677 167.7604,-466.4545 293.1651,-925.097 91.7404,-335.5221 92.2429,-395.733 2.904,-347.9203 -23.3071,12.4737 -101.1068,37.4592 -172.8884,55.5235 -222.5834,56.0146 -344.4417,108.8159 -515.5707,223.3966 -214.2448,143.4492 -311.4722,199.6205 -640.8517,370.2395 -149.7585,77.575 -361.4016,187.6803 -470.3182,244.6787 -218.0817,114.1264 -595.1527,245.0528 -968.1481,336.1602 -220.8176,53.9366 -280.6174,59.18 -682.1043,59.8069 -389.6512,0.6095 -462.7542,-5.1459 -638.0972,-50.2299 -272.376,-70.033 -552.897,-173.4759 -671.103,-247.4708 -18.153,-11.3634 -54.745,-30.0887 -81.316,-41.6121 -51.256,-22.228 -210.151,-130.5594 -391.756,-267.0903 -220.587,-165.8372 -434.32,-394.0323 -566.9,-605.2576 -49.467,-78.8114 -69.519,-92.0434 -157.826,-104.1472 -55.637,-7.6259 -131.586,-29.6 -168.776,-48.8314 -122.653,-63.4263 -129.655,-46.228 -129.655,318.4545 0,1103.1641 360.617,2164.2918 916.336,2696.35258 186.473,178.53443 208.623,192.20359 250.314,154.47441 32.627,-29.52697 40.53,-29.70718 63.974,-1.45882 30.752,37.05455 23.649,148.88798 -10.159,159.95413 -12.5,4.09109 -76.376,-29.8007 -141.948,-75.3151 z m 4690.0321,-462.31146 c 4.0339,-9.0763 76.4181,-75.9116 160.8536,-148.5227 448.389,-385.5958 829.0016,-835.857 1011.3996,-1196.4768 208.2286,-411.6892 377.341,-1058.9125 475.0199,-1817.9844 41.9162,-325.7341 46.5168,-439.4354 35.6137,-880.1347 -6.8864,-278.3425 -23.3627,-585.2895 -36.614,-682.1043 -39.6675,-289.8119 -132.5907,-743.6815 -166.2462,-812.0043 -17.3096,-35.1394 -31.4719,-79.7776 -31.4719,-99.196 0,-96.0751 -326.3165,-863.096 -440.7909,-1036.0977 -20.0194,-30.2546 -64.9786,-99.5652 -99.9094,-154.0235 -236.2191,-368.2732 -756.6724,-905.5704 -1021.4314,-1054.4888 -33.9092,-19.0729 -99.7881,-59.7833 -146.3978,-90.4678 -239.4569,-157.6416 -835.5862,-394.2876 -1074.8961,-426.7027 -60.5092,-8.1961 -159.5244,-31.4866 -220.0336,-51.7565 -91.0024,-30.4849 -203.1875,-36.84 -649.0993,-36.7706 -481.6479,0.075 -561.3529,5.3439 -748.1144,49.4545 -490.7029,115.8974 -749.5869,193.2788 -938.4679,280.5115 -38.135,17.612 -81.164,32.0218 -95.621,32.0218 -14.456,0 -52.566,13.5316 -84.688,30.0703 -32.122,16.5387 -157.418,77.7498 -278.437,136.0246 -567.674,273.3557 -1056.067,604.0392 -1242.367,841.1884 -156.343,199.0149 -462.854,814.5928 -597.386,1199.756 -34.886,99.8759 -19.086,116.1311 134.493,138.3734 54.458,7.8871 140.553,32.9298 191.322,55.6505 50.769,22.7207 99.251,41.3104 107.739,41.3104 31.991,0 254.53,159.8167 328.281,235.7551 91.672,94.3923 176.882,241.3974 212.381,366.404 14.204,50.0209 31.857,98.1513 39.227,106.9569 7.37,8.8053 67.586,-21.0023 133.812,-66.239 166.653,-113.8353 307.097,-173.1335 538.475,-227.3555 312.912,-73.3291 777.867,-37.3643 1199.183,92.7578 141.8327,43.8046 394.0826,139.4908 460.5164,174.6881 110.6836,58.6411 187.652,85.7544 201.5178,70.9875 8.698,-9.2632 8.7085,-62.1074 0.022,-117.4314 -40.7734,-259.7226 41.157,-562.0608 216.7095,-799.6971 121.9546,-165.084 502.3331,-452.604 599.3768,-453.0562 15.9977,-0.066 56.2612,-14.3112 89.4742,-31.6371 140.3267,-73.2021 392.9673,-122.9601 639.776,-126.0051 215.7819,-2.6622 265.7538,4.145 407.0328,55.4461 557.1925,202.3264 759.8136,401.9821 848.7192,836.2971 43.5377,212.6865 44.3397,316.2077 4.0575,523.7917 -36.6077,188.6483 -82.8328,306.0114 -160.7749,408.1987 -63.2652,82.945 -60.4764,90.7353 41.8407,116.8799 124.7796,31.8847 352.9463,121.0331 496.1913,193.8699 189.0076,96.1063 210.4096,93.3102 192.6428,-25.1676 -10.8024,-72.0347 -5.9339,-101.6461 20.2904,-123.4101 29.4253,-24.4211 37.583,-20.5335 55.4333,26.4159 11.5115,30.278 27.0984,93.2386 34.6372,139.9126 7.539,46.674 17.9424,105.8102 23.1187,131.4142 5.1763,25.6038 56.5887,79.1323 114.2499,118.952 121.5851,83.9646 276.621,265.7045 324.5802,380.4871 86.0259,205.8888 15.7716,495.8262 -160.6516,663.0041 -84.4879,80.0605 -270.4335,187.5595 -325.221,188.017 -55.1296,0.4598 -101.2093,96.1708 -175.7202,364.9815 -102.9159,371.2865 -124.4798,445.962 -193.2949,669.3778 -31.6842,102.8658 -91.6854,315.7483 -133.336,473.0724 -78.317,295.8225 -225.3503,783.9148 -288.331,957.1464 -39.4699,108.5664 -98.3625,319.9926 -98.3625,353.1274 0,24.6795 59.0099,28.4291 69.6774,4.4273 z m -6529.4101,-737.1127 c 5.553,-27.2292 25.818,-148.5228 45.034,-269.5413 49.806,-313.6747 76.506,-453.0323 136.81,-714.0757 83.237,-360.3165 268.033,-877.4223 377.805,-1057.1953 25.863,-42.3565 47.061,-89.1783 47.106,-104.0484 0.05,-14.8701 -69.215,-72.6901 -153.912,-128.4887 -267.778,-176.413 -395.863,-362.2629 -396.426,-575.21 -0.185,-70.0677 -7.855,-139.2214 -17.044,-153.675 -17.51,-27.541 -200.437,-76.7027 -226.188,-60.7878 -16.435,10.1574 -49.49,365.0385 -89.155,957.1651 -56.871,848.9847 15.111,1651.5652 183.935,2050.8487 48.388,114.4423 76.491,131.239 92.035,55.0084 z m 4182.3845,-850.4823 c 429.666,-89.8327 758.2352,-212.8753 1296.1209,-485.3712 570.9741,-289.2586 752.0295,-391.3635 887.7931,-500.6648 92.8361,-74.7408 208.809,-118.9682 621.5149,-237.0211 478.5233,-136.8794 631.1368,-222.5731 725.4411,-407.3402 101.1252,-198.132 83.2743,-391.07 -51.4763,-556.3721 -99.3458,-121.8702 -374.5577,-320.9195 -618.9564,-447.6653 -520.9989,-270.1912 -1277.2612,-327.2162 -1881.2876,-141.8557 -105.2729,32.3056 -358.3094,137.5483 -383.9587,159.6956 -50.5272,43.6287 -118.9916,11.6204 -239.2774,-111.8664 -69.6017,-71.4535 -178.1555,-164.3386 -241.231,-206.411 -359.6221,-239.8741 -502.9331,-326.8525 -587.9876,-356.8614 -52.2408,-18.4315 -105.7395,-41.6088 -118.8863,-51.505 -38.3506,-28.8684 -338.8272,-130.1966 -529.9802,-178.7228 -614.523,-156.0025 -1129.803,-103.0083 -1510.205,155.3183 -113.904,77.3502 -199.791,179.6643 -171.126,203.8543 4.991,4.2121 126.974,33.5884 271.072,65.2809 273.998,60.2622 398.194,120.226 467.228,225.5841 62.935,96.0515 21.14,162.7131 -146.471,233.6178 -168.919,71.4577 -360.752,80.3447 -628.501,29.1158 -212.414,-40.6416 -229.295,-29.9195 -229.295,145.6376 0,295.5242 141.019,595.3378 406.976,865.2514 351.482,356.7122 761.274,562.1647 1120.611,561.8287 383.755,-0.3587 669.427,-88.8098 1305.6983,-404.2747 233.1543,-115.5987 535.1505,-254.4142 671.1027,-308.4788 263.411,-104.7521 642.1083,-233.2252 687.4726,-233.2252 15.0684,0 39.6261,-14.7352 54.5728,-32.7447 22.215,-26.7673 19.6943,-35.3933 -13.8084,-47.2553 -22.5412,-7.9807 -75.6393,-29.604 -117.9957,-48.0519 -69.5656,-30.2984 -72.1636,-34.3952 -26.8683,-42.3718 86.4292,-15.2207 787.1824,125.1188 1017.0197,203.6781 90.7639,31.0234 212.0574,71.2715 269.5412,89.4401 57.4838,18.1687 104.516,42.5519 104.516,54.1849 0,31.0887 -108.1373,24.0294 -209.032,-13.6461 -362.5939,-135.3977 -661.5677,-183.3034 -887.0648,-142.1378 -307.2747,56.0945 -861.1619,257.6324 -1346.2767,489.8575 -127.0694,60.828 -339.952,162.5003 -473.0723,225.9382 -458.1911,218.3487 -758.1331,290.729 -1111.1701,268.1412 -309.081,-19.7753 -616.102,-163.6742 -947.202,-443.9465 -301.28,-255.0294 -475.272,-517.9371 -536.528,-810.7099 -16.495,-78.8363 -35.967,-153.0096 -43.272,-164.8296 -23.912,-38.6899 -223.571,-51.7203 -367.924,-24.0121 -182.849,35.0976 -368.046,128.7103 -458.547,231.7848 -68.377,77.8781 -71.675,89.3733 -60.618,211.3109 15.953,175.9343 126.68,319.0197 367.778,475.2551 130.51,84.5726 620.736,312.2361 672.336,312.2361 17.301,0 84.583,71.786 149.514,159.5244 206.657,279.2474 576.228,590.9867 938.419,791.5738 259.832,143.8985 691.758,270.6786 1023.1569,300.3193 223.098,19.9542 626.4006,-8.0378 880.1346,-61.0875 z m -3940.4415,-2313.5825 c 209.166,-132.6493 378.568,-185.9557 590.667,-185.8681 164.457,0.066 194.566,-5.5871 205.014,-38.5059 24.586,-77.4651 -13.309,-123.6583 -140.355,-171.0857 -123.369,-46.0548 -319.691,-163.9437 -389.842,-234.0942 -29.574,-29.5741 -30.728,-40.6048 -6.677,-63.8269 36.229,-34.9808 541.279,-163.6697 642.334,-163.6697 114.169,0 134.529,-40.1964 103.173,-203.6953 -14.489,-75.5463 -46.346,-179.4299 -70.794,-230.8527 -80.191,-168.6648 -444.831,-446.3112 -595.266,-453.25 -65.356,-3.0146 -72.923,3.0631 -78.027,62.6718 -9.362,109.3123 -50.519,234.3909 -98.468,299.2451 l -45.244,61.1962 49.986,133.6617 c 68.061,181.9931 56.266,421.7669 -28.958,588.6708 -91.404,179.0075 -303.31,390.9362 -470.843,470.8923 -125.346,59.8221 -138.86,72.0845 -110.593,100.3516 42.812,42.8117 187.249,93.0819 270.898,94.2842 38.481,0.5523 112.418,-27.7084 172.995,-66.1252 z m 4522.8058,-339.098 c 31.1755,-37.5642 239.442,-139.6818 434.9683,-213.2747 75.459,-28.4015 137.3434,-57.242 137.521,-64.0899 0.176,-6.8479 -40.3306,-35.2993 -90.0186,-63.2255 -217.7007,-122.3548 -344.5393,-294.3336 -365.2783,-495.2765 -11.0292,-106.8628 -3.9422,-139.52 57.2547,-263.8285 125.5413,-255.0106 441.7508,-498.2497 823.5248,-633.4833 250.2141,-88.6317 289.4285,-77.0679 179.9329,53.0603 -106.2181,126.2331 -46.8539,248.9901 157.3582,325.3956 108.376,40.5487 142.0731,43.5573 277.5566,24.7822 84.8128,-11.7531 164.0051,-31.1695 175.9827,-43.147 79.1844,-79.1844 -201.3572,-465.0672 -338.1092,-465.0672 -21.8639,0 -63.1006,-23.3479 -91.6372,-51.8843 -105.6454,-105.6457 -473.569,-212.3286 -730.3573,-211.7741 -563.7306,1.2168 -1130.5533,324.7369 -1338.6506,764.0473 -65.9726,139.2739 -70.4426,164.0692 -70.4426,390.7475 0,212.4075 6.204,252.8576 50.6801,330.4285 27.8739,48.6151 86.9714,112.975 131.3273,143.0219 141.1985,95.6475 418.9636,350.8146 467.6679,429.6197 50.6869,82.0131 88.5604,94.7463 130.7193,43.948 z m -3424.8108,-362.1165 c 31.078,-31.0782 -74.036,-67.8225 -194.018,-67.8225 -158.026,0 -274.052,65.4717 -170.526,96.2253 60.53,17.9814 339.929,-3.7876 364.544,-28.4028 z m -1433.234,-417.4586 c 156.906,-53.9835 251.579,-103.1468 354.696,-184.1918 109.282,-85.8905 212.944,-267.2583 213.211,-373.0369 0.292,-115.7527 -47.752,-135.5638 -295.124,-121.6949 -402.798,22.5832 -668.655,189.9489 -706.905,445.0203 -35.573,237.2174 143.716,333.8177 434.122,233.9033 z" id="path1259"/>
      <path style="fill:#3d1c41;stroke-width:22.0034" d="m -9305.7978,-1467.8318 c -84.713,-10.0868 -193.6296,-33.6706 -242.037,-52.4085 -48.4074,-18.738 -109.0333,-34.5037 -134.724,-35.0348 -44.3566,-0.9176 -137.78,-36.0983 -360.3522,-135.7005 -176.43,-78.9536 -249.129,-122.5975 -573.253,-344.1404 -128.052,-87.5258 -450.545,-396.9499 -432.511,-414.9841 7.533,-7.5327 58.284,15.8384 112.781,51.9358 352.676,233.6027 880.725,419.9497 1454.0693,513.137 246.3983,40.0477 351.6111,45.16 759.116,36.8845 555.7351,-11.2855 727.5292,-43.2298 1254.1918,-233.2121 256.4523,-92.5095 751.5331,-370.1033 913.1559,-512.0102 65.2543,-57.2939 76.972,-61.3835 76.8413,-26.8175 -0.2641,69.8673 -85.8858,402.2099 -121.2306,470.5591 -28.7732,55.641 -39.5163,61.3795 -74.2739,39.6732 -41.9173,-26.1778 -36.5424,-28.6746 -440.8095,204.7627 -171.3604,98.9491 -441.7752,226.6476 -606.7219,286.5133 -297.1226,107.8378 -579.821,152.8481 -1012.1547,161.1522 -229.9352,4.4165 -487.3746,-0.2222 -572.0875,-10.3097 z m 4792.3887,-649.4949 c 18.6978,-36.3056 49.2879,-85.8131 67.9783,-110.0168 33.8821,-43.8774 33.9841,-43.8734 34.6819,1.384 0.385,24.965 -30.2054,74.4726 -67.9783,110.0168 l -68.6778,64.6259 33.9959,-66.0101 z m -798.7781,-802.4956 c 0,-31.5218 105.5387,-264.6677 119.8077,-264.6677 6.717,0 12.2125,64.3599 12.2125,143.0219 v 143.0219 h -66.0101 c -36.3055,0 -66.0101,-9.6192 -66.0101,-21.3761 z m 154.6976,-352.6811 c 0,-18.1528 9.598,-47.8574 21.3294,-66.0101 18.9596,-29.3378 21.3294,-29.3378 21.3294,0 0,18.1527 -9.5981,47.8573 -21.3294,66.0101 -18.9597,29.3377 -21.3294,29.3377 -21.3294,0 z m 66.01,-231.0354 c 0,-12.1018 9.5981,-36.8556 21.3294,-55.0084 11.7314,-18.1528 21.3294,-23.1035 21.3294,-11.0017 0,12.1019 -9.598,36.8556 -21.3294,55.0084 -11.7313,18.1528 -21.3294,23.1036 -21.3294,11.0017 z m -7564.9514,-369.6777 c -27.57,-12.4629 -47.373,-28.7786 -44.006,-36.2569 3.366,-7.4785 25.924,-60.2622 50.128,-117.2969 42.855,-100.9855 81.172,-128.5322 111.201,-79.9439 8.132,13.1564 3.765,34.9398 -9.703,48.4074 -13.467,13.4678 -24.638,54.6865 -24.823,91.5971 -0.485,96.4694 -22.134,120.9154 -82.797,93.4932 z m 6510.6367,-76.6813 c -26.3336,-49.2048 -12.5967,-70.7201 45.1533,-70.7201 47.7671,0 49.8882,18.5583 8.3811,73.328 -29.5015,38.9279 -31.3535,38.8377 -53.5344,-2.6079 z m 2564.8156,-147.7319 c 7.1909,-84.713 16.6713,-158.1492 21.0675,-163.1917 17.206,-19.7348 3.7446,231.8068 -14.6208,273.2085 -12.3115,27.754 -14.6925,-12.8777 -6.4467,-110.0168 z M -13627.722,-4143.47 c 1.056,-25.6328 6.27,-30.8465 13.294,-13.2937 6.356,15.8835 5.574,34.8617 -1.737,42.1732 -7.312,7.3114 -12.512,-5.6844 -11.557,-28.8795 z m 21.813,-374.0572 c 0.85,-132.112 10.276,-260.0065 20.945,-284.2102 11.684,-26.5053 14.244,65.3779 6.437,231.0353 -7.129,151.2732 -16.554,279.1677 -20.945,284.2103 -4.391,5.0422 -7.288,-98.9237 -6.437,-231.0354 z m 5878.8526,-310.3795 c 21.1782,-5.5343 55.8335,-5.5343 77.0118,0 21.1782,5.5345 3.8505,10.0628 -38.5059,10.0628 -42.3565,0 -59.6842,-4.5283 -38.5059,-10.0628 z m -5858.3956,-54.3725 c 0,-94.2206 30.233,-236.0178 47.983,-225.0474 23.359,14.4362 0.244,207.5039 -28.551,238.4789 -11.869,12.7677 -19.432,7.5401 -19.432,-13.4315 z m 10002.3933,-252.3007 c -8.3639,-92.2995 -29.6414,-228.4454 -47.2833,-302.5463 -111.1035,-466.6694 -231.4635,-872.3162 -329.2539,-1109.6789 -31.456,-76.3519 -53.4158,-150.1527 -48.7995,-164.0018 15.1361,-45.4084 346.4606,884.6449 346.4606,972.5417 0,46.0137 51.6194,186.1426 74.6869,202.7489 20.4539,14.7249 50.0022,568.7536 30.3338,568.7536 -6.0155,0 -17.7807,-75.5177 -26.1446,-167.8172 z m -10079.4053,-48.8917 c -123.163,-75.5985 -313.389,-284.4169 -376.875,-413.7122 -57.404,-116.9069 -63.192,-149.8572 -63.192,-359.7304 0,-206.515 6.476,-244.8633 61.018,-361.3258 66.002,-140.9318 203.709,-334.1156 251.142,-352.3173 21.582,-8.2818 19.388,7.5914 -8.243,59.634 -23.37,44.0153 -38.076,122.8384 -38.766,207.7754 -0.912,112.378 7.51,145.4862 47.089,185.1099 111.421,111.5467 434.81,63.3871 686.234,-102.1953 64.095,-42.2115 124.863,-76.7482 135.039,-76.7482 33.656,0 109.677,241.824 109.677,348.8856 0,147.7768 -58.005,326.8602 -143.841,444.0942 -119.611,163.3629 -297.853,317.9055 -417.309,361.8235 -60.474,22.2331 -120.946,53.6909 -134.382,69.9063 -30.705,37.0572 -28.618,37.2743 -107.591,-11.1997 z m 7668.1725,-148.1802 c 0,-19.1614 11.758,-30.9193 26.129,-26.129 40.7991,13.5997 47.566,60.9676 8.7096,60.9676 -19.1612,0 -34.8386,-15.6774 -34.8386,-34.8386 z m -5808.8885,-77.3376 c -78.662,-9.9642 -206.008,-23.1579 -282.99,-29.3193 -76.983,-6.1614 -151.245,-19.7128 -165.025,-30.1142 -13.782,-10.4015 -77.767,-40.9921 -142.19,-67.9792 -138.914,-58.1921 -355.939,-193.4653 -355.939,-221.8593 0,-32.6501 39.908,-48.4837 227.729,-90.3513 164.445,-36.6567 246.519,-40.4671 160.479,-7.4501 -19.885,7.6305 -36.155,32.0107 -36.155,54.1782 0,30.9147 23.127,43.7724 99.268,55.1904 117.592,17.6339 378.755,-6.6008 397.471,-36.8834 20.248,-32.7617 -30.71,-80.9572 -102.198,-96.6588 -35.47,-7.7903 -64.49,-22.2197 -64.49,-32.0653 0,-29.3296 69.61,-47.0128 96.668,-24.5566 13.795,11.4483 114.03,36.3652 222.746,55.3708 264.257,46.1974 343.331,69.8398 429.224,128.3346 101.01,68.7896 123.238,111.0464 97.647,185.6374 -43.2,125.914 -296.105,194.772 -582.245,158.5261 z m 4664.7136,-286.9389 c -66.5602,-10.7623 -240.3654,-13.5932 -386.2339,-6.2905 -226.3862,11.3333 -269.4644,8.1573 -294.2387,-21.694 -15.963,-19.234 -45.1388,-35.0679 -64.8351,-35.186 -74.15,-0.4445 -258.8207,-106.1969 -337.1133,-193.0481 -104.2645,-115.6625 -147.2104,-200.0031 -163.9211,-321.9216 -36.5104,-266.3719 297.2307,-641.1603 735.3971,-825.8449 165.4239,-69.7253 291.2687,-102.0025 290.2116,-74.4352 -0.385,10.0382 -15.2373,37.4711 -33.005,60.9624 -91.7701,121.3307 6.515,285.8514 211.4281,353.9127 126.9359,42.1613 343.304,30.6055 448.4627,-23.9514 33.5217,-17.3914 64.0654,-31.6206 67.8751,-31.6206 3.8096,0 18.7592,56.9338 33.2213,126.5194 54.1595,260.5925 -22.4029,637.8221 -168.2089,828.7781 -50.5873,66.2522 -75.3109,119.3008 -68.2265,146.3911 9.566,36.5804 -0.066,42.105 -69.3423,39.7414 -44.2489,-1.5095 -134.9109,-11.5505 -201.4711,-22.3128 z m -2112.2999,-237.8286 c -54.4456,-47.0505 -91.5855,-92.9528 -82.5333,-102.005 9.0522,-9.0522 62.0035,29.7391 117.6698,86.203 122.6179,124.3747 101.4943,133.8747 -35.1365,15.802 z m 5136.6269,-971.5569 c -87.0141,-172.787 -90.4543,-232.4918 -4.5388,-78.7723 56.5834,101.2386 109.4249,235.0507 92.8198,235.0507 -5.2691,0 -44.9958,-70.3254 -88.281,-156.2784 z m -9009.2426,-39.0578 c 0,-10.6199 13.25,-30.3054 29.444,-43.7453 16.194,-13.4399 41.635,-65.1238 56.534,-114.8532 14.899,-49.7293 32.263,-85.2434 38.586,-78.9203 6.323,6.3231 -1.067,46.2411 -16.423,88.707 -21.791,60.2608 -22.111,84.2097 -1.459,109.0944 21.09,25.4113 19.282,34.6393 -8.904,45.4555 -50.761,19.4787 -97.778,16.7197 -97.778,-5.7381 z m 8869.1509,-230.8256 c -53.2569,-86.1716 -58.9756,-118.2411 -14.5035,-81.3324 28.8726,23.9621 86.7007,155.4404 68.3673,155.4404 -4.4343,0 -28.673,-33.3488 -53.8638,-74.108 z m -8702.7109,-130.3722 c 8.263,-21.7001 20.567,-33.912 27.341,-27.1374 6.775,6.7746 0.01,24.5292 -15.023,39.4549 -21.731,21.569 -24.259,19.0417 -12.318,-12.3175 z m 8534.9863,-171.0409 c -7.9769,-12.907 -9.7844,-28.1864 -4.0167,-33.9541 5.7675,-5.7677 16.3498,4.7926 23.5161,23.4673 14.8782,38.7723 2.1981,45.5923 -19.4994,10.4868 z m -188.5105,-322.2268 c -77.3493,-129.6227 -153.8621,-260.8178 -170.0281,-291.5446 -25.8846,-49.1989 -22.6961,-47.9882 26.7129,10.1427 30.8582,36.3055 56.462,74.383 56.8972,84.6168 0.4357,10.2337 19.0888,44.889 41.4524,77.0118 56.588,81.2824 207.2912,355.4505 195.3819,355.4505 -5.3796,0 -73.067,-106.0547 -150.4163,-235.6772 z m -239.6503,-391.4188 c -15.7885,-19.0239 -17.927,-33.005 -5.0482,-33.005 12.2888,0 28.0426,14.8523 35.0086,33.005 6.9659,18.1528 9.2375,33.0051 5.0483,33.0051 -4.1893,0 -19.9432,-14.8523 -35.0087,-33.0051 z m -7612.6745,-104.7171 c -0.5,-17.0451 164.602,-270.6112 335.683,-515.549 198.597,-284.3328 646.216,-747.2788 981.916,-1015.5376 118.076,-94.3546 493.645,-285.1974 706.221,-358.8614 724.8915,-251.197 1350.619,-331.011 2112.3229,-269.435 211.7824,17.12 434.5664,44.957 495.0757,61.86 60.5092,16.902 149.6229,37.388 198.0303,45.524 454.5807,76.399 1130.5018,424.9788 1573.2405,811.3369 483.8881,422.2672 969.5116,919.8029 967.451,991.1822 -0.3828,13.2806 -21.7508,-5.558 -47.483,-41.8636 -25.7323,-36.3055 -197.6373,-215.6649 -382.0112,-398.5765 -833.9889,-827.3741 -1426.7523,-1177.972 -2263.9346,-1339.033 -236.6796,-45.534 -334.2216,-51.351 -903.4242,-53.875 -465.5362,-2.065 -688.6758,5.738 -825.1262,28.855 -102.8657,17.428 -241.4869,38.218 -308.0471,46.202 -146.2104,17.537 -535.5231,125.563 -627.0961,174.006 -36.305,19.206 -75.162,34.981 -86.348,35.055 -47.44,0.317 -390.033,191.4085 -562.751,313.892 -333.397,236.4298 -831.479,762.3401 -1151.161,1215.4779 -151.631,214.9313 -211.915,291.3186 -212.558,269.3401 z" id="path1257"/>
    </g>
  </g>
</g>
  </g>
</svg>
