<?xml version='1.0' encoding='ASCII' standalone='yes'?>
<svg xmlns="http://www.w3.org/2000/svg" xmlns:xlink="http://www.w3.org/1999/xlink" version="1.1" width="7855.0px" height="7665.0px">
  <g>
    <g transform="translate( -45,  1000) scale(1.0 1.0)  rotate(0.000000 0.000000 0.000000)"><metadata xmlns:rdf="http://www.w3.org/1999/02/22-rdf-syntax-ns#" xmlns:cc="http://creativecommons.org/ns#" xmlns:dc="http://purl.org/dc/elements/1.1/" id="metadata33">
    <rdf:RDF>
      <cc:Work rdf:about="">
        <dc:format>image/svg+xml</dc:format>
        <dc:type rdf:resource="http://purl.org/dc/dcmitype/StillImage"/>
        <dc:title/>
      </cc:Work>
    </rdf:RDF>
  </metadata>
  <sodipodi:namedview xmlns:sodipodi="http://sodipodi.sourceforge.net/DTD/sodipodi-0.dtd" xmlns:inkscape="http://www.inkscape.org/namespaces/inkscape" pagecolor="#ffffff" bordercolor="#666666" borderopacity="1" objecttolerance="10" gridtolerance="10" guidetolerance="10" inkscape:pageopacity="0" inkscape:pageshadow="2" inkscape:window-width="1920" inkscape:window-height="1017" id="namedview31" showgrid="false" inkscape:zoom="0.073197678" inkscape:cx="3604.4927" inkscape:cy="2181.5856" inkscape:window-x="-8" inkscape:window-y="-8" inkscape:window-maximized="1" inkscape:current-layer="svg29" inkscape:document-rotation="0"/>
  <defs id="defs27">
    <linearGradient gradientTransform="matrix(0.9399043,-3.3796559,1.4698503,0.40995826,-7059.505,-5689.3312)" gradientUnits="userSpaceOnUse" id="gradient0" spreadMethod="pad" x1="-819.20001" x2="819.20001">
      <stop offset="0.0" stop-color="#635b58" id="stop22"/>
      <stop offset="1.0" stop-color="#d3cebc" id="stop24"/>
    </linearGradient>
    <linearGradient gradientTransform="matrix(0.96,-3.51,1.5,0.42,7060,-625)" gradientUnits="userSpaceOnUse" id="gradient0-0" spreadMethod="pad" x1="-819.20001" x2="819.20001">
      <stop offset="0.0" stop-color="#635b58" id="stop34"/>
      <stop offset="1.0" stop-color="#d3cebc" id="stop36"/>
    </linearGradient>
    <linearGradient gradientTransform="matrix(0.67,-2.44,1.04,0.29,7040,440)" gradientUnits="userSpaceOnUse" id="gradient1" spreadMethod="pad" x1="-819.20001" x2="819.20001">
      <stop offset="0.0" stop-color="#635b58" id="stop39"/>
      <stop offset="1.0" stop-color="#d3cebc" id="stop41"/>
    </linearGradient>
  </defs>
  <path style="color:#000000;font-style:normal;font-variant:normal;font-weight:normal;font-stretch:normal;font-size:medium;line-height:normal;font-family:sans-serif;font-variant-ligatures:normal;font-variant-position:normal;font-variant-caps:normal;font-variant-numeric:normal;font-variant-alternates:normal;font-variant-east-asian:normal;font-feature-settings:normal;font-variation-settings:normal;text-indent:0;text-align:start;text-decoration:none;text-decoration-line:none;text-decoration-style:solid;text-decoration-color:#000000;letter-spacing:normal;word-spacing:normal;text-transform:none;writing-mode:lr-tb;direction:ltr;text-orientation:mixed;dominant-baseline:auto;baseline-shift:baseline;text-anchor:start;white-space:normal;shape-padding:0;shape-margin:0;inline-size:0;clip-rule:nonzero;display:inline;overflow:visible;visibility:visible;isolation:auto;mix-blend-mode:normal;color-interpolation:sRGB;color-interpolation-filters:linearRGB;solid-color:#000000;solid-opacity:1;vector-effect:none;fill:#761432;fill-opacity:1;fill-rule:nonzero;stroke:none;stroke-width:19.1755;stroke-linecap:butt;stroke-linejoin:miter;stroke-miterlimit:4;stroke-dasharray:none;stroke-dashoffset:0;stroke-opacity:1;color-rendering:auto;image-rendering:auto;shape-rendering:auto;text-rendering:auto;enable-background:accumulate;stop-color:#000000" d="m 7456.9848,5458.772 c -13.0281,-12.7244 -28.8676,-12.7993 -74.8491,-0.3545 -32.078,8.6819 -104.8493,21.9463 -161.7139,29.4761 -56.8647,7.5298 -141.6621,19.4299 -188.439,26.4447 -46.7767,7.0146 -111.5404,16.6931 -143.919,21.5075 -62.7325,9.3276 -454.3815,46.0639 -569.3544,53.4048 -83.1286,5.3077 -129.5126,-15.1834 -97.4244,-43.0395 10.3915,-9.0207 39.1292,-21.46 63.8617,-27.6428 64.2806,-16.0691 224.995,-88.475 314.111,-141.5152 41.9087,-24.9434 100.8535,-57.9922 130.9884,-73.4418 111.6727,-57.253 254.9569,-141.3581 256.052,-150.298 0.6217,-5.0751 41.0874,-38.2521 89.9235,-73.7266 80.163,-58.2301 152.9591,-118.6946 230.1242,-191.1409 27.0506,-25.3965 27.1112,-26.185 4.0955,-53.2041 -18.3367,-21.5259 -37.4444,-28.6872 -88.8275,-33.2912 -36.006,-3.2262 -81.4778,-0.5895 -101.0484,5.8594 -50.1407,16.5224 -273.8516,51.9662 -339.3569,53.7663 -53.8631,1.4802 -54.7034,0.9478 -50.6568,-32.0877 2.2633,-18.4763 11.1844,-38.6557 19.8247,-44.8431 17.7966,-12.7443 42.2833,-41.8337 88.1528,-104.7223 17.3919,-23.8446 48.0683,-62.5916 68.1701,-86.1044 20.1018,-23.5128 41.076,-50.1656 46.6094,-59.2284 13.7564,-22.5302 62.2127,-103.6616 103.0687,-172.5698 18.6129,-31.3928 35.143,-67.7022 36.7336,-80.6875 1.5907,-12.9853 15.3867,-47.5021 30.6581,-76.7039 71.1212,-135.9985 141.611,-688.0333 102.1731,-800.1603 -10.3696,-29.482 -17.0816,-68.2891 -14.9157,-86.238 4.4342,-36.7258 -27.7415,-151.2703 -55.9047,-199.0328 -10.2044,-17.3059 -17.5848,-39.4623 -16.4008,-49.2361 1.1843,-9.7744 -21.4818,-60.5149 -50.3683,-112.7567 -28.8867,-52.2419 -68.3328,-123.487 -87.6581,-158.3235 -19.3253,-34.836 -103.9441,-146.1503 -188.0419,-247.3647 -84.0977,-101.2145 -152.1986,-189.9612 -151.3352,-197.216 2.41,-20.2998 54.7919,-20.2865 288.9364,0.072 163.7258,14.2357 259.9109,28.9058 397.1674,60.5757 224.8361,51.8779 304.241,81.2563 345.7343,127.9158 31.9114,35.8841 32.818,36.14 78.9673,22.3061 55.3844,-16.6026 62.4426,-41.913 28.4669,-102.0813 -36.6466,-64.8994 -50.5779,-83.8718 -130.2403,-177.3736 -127.4288,-149.5651 -167.4429,-180.4973 -435.7568,-336.8549 -57.5593,-33.5424 -110.541,-61.7074 -117.7371,-62.5889 -7.196,-0.8815 -22.3351,-8.0097 -33.6425,-15.8408 -44.2385,-30.639 -133.5515,-66.6667 -210.9613,-85.0994 -44.6161,-10.624 -145.2188,-38.6592 -223.5614,-62.3011 -78.3427,-23.6415 -221.5485,-57.7625 -318.2353,-75.8237 -96.6867,-18.0616 -182.6266,-36.0421 -190.9773,-39.9561 -130.9019,-61.3599 612.9581,-171.6954 1049.1661,-155.6215 125.3363,4.6185 151.3271,-2.736 151.2214,-42.789 -0.072,-27.3418 -14.2388,-41.2181 -89.6385,-87.8044 -114.1211,-70.5104 -345.4876,-155.0524 -522.1809,-190.8065 -197.3321,-39.9303 -673.9416,-99.2644 -830.1209,-103.3429 -73.2931,-1.9143 -213.6487,-7.7995 -311.9013,-13.0787 l -178.641,-9.5978 -43.3064,-61.5526 C 5215.9351,732.09946 5072.5691,649.3015 4863.2956,653.44219 c -262.6344,5.19656 -491.896,168.74854 -554.6841,395.70341 -7.8846,28.5001 -18.5431,56.4522 -23.6858,62.1166 -5.1428,5.6643 -80.7226,26.7435 -167.9554,46.8429 -630.0417,145.1668 -1169.3354,409.9876 -1578.9381,775.3387 -192.9705,172.1233 -344.371,430.9043 -464.2778,793.5647 -51.759,156.5475 -59.033,193.1612 -92.6759,466.4844 -33.9949,276.1873 -40.087,424.1065 -21.5274,522.7173 3.7582,19.9699 13.5783,87.6095 21.8226,150.3103 15.1617,115.3183 75.8466,325.0917 123.9376,428.4221 105.0187,225.6487 209.4941,384.8774 448.7858,683.9836 215.9576,269.9395 423.5294,451.9382 855.2769,749.9059 48.8519,33.7147 102.1147,70.7402 118.3619,82.2789 67.6123,48.0182 322.5755,198.1123 401.3349,236.2616 181.2907,87.8132 372.2894,167.655 515.5849,215.526 123.4408,41.2382 911.9989,138.7842 1045.6569,129.3496 208.8892,-14.7451 551.3897,-110.9883 835.5002,-234.7769 57.7303,-25.1536 118.1455,-44.1191 134.2561,-42.1456 19.3006,2.3642 60.4955,-19.019 120.7754,-62.6915 50.3161,-36.4538 117.5721,-77.6939 149.4577,-91.6447 79.2659,-34.6808 311.3441,-160.7353 374.6949,-203.5176 28.4879,-19.2387 92.2712,-59.2434 141.7406,-88.8994 49.4693,-29.6561 105.8017,-69.6512 125.1828,-88.8783 19.3811,-19.2269 49.6985,-46.8394 67.3718,-61.3608 37.7104,-30.9852 39.7886,-37.9811 17.6927,-59.5614 z" id="path841"/>
  <path style="color:#000000;font-style:normal;font-variant:normal;font-weight:normal;font-stretch:normal;font-size:medium;line-height:normal;font-family:sans-serif;font-variant-ligatures:normal;font-variant-position:normal;font-variant-caps:normal;font-variant-numeric:normal;font-variant-alternates:normal;font-variant-east-asian:normal;font-feature-settings:normal;font-variation-settings:normal;text-indent:0;text-align:start;text-decoration:none;text-decoration-line:none;text-decoration-style:solid;text-decoration-color:#000000;letter-spacing:normal;word-spacing:normal;text-transform:none;writing-mode:lr-tb;direction:ltr;text-orientation:mixed;dominant-baseline:auto;baseline-shift:baseline;text-anchor:start;white-space:normal;shape-padding:0;shape-margin:0;inline-size:0;clip-rule:nonzero;display:inline;overflow:visible;visibility:visible;isolation:auto;mix-blend-mode:normal;color-interpolation:sRGB;color-interpolation-filters:linearRGB;solid-color:#000000;solid-opacity:1;vector-effect:none;fill:#000000;fill-opacity:1;fill-rule:nonzero;stroke:none;stroke-linecap:butt;stroke-linejoin:miter;stroke-miterlimit:4;stroke-dasharray:none;stroke-dashoffset:0;stroke-opacity:1;color-rendering:auto;image-rendering:auto;shape-rendering:auto;text-rendering:auto;enable-background:accumulate;stop-color:#000000" d="m 4882.7852,643.72656 c -6.4983,-0.0453 -13.0582,-0.002 -19.6797,0.12891 -266.5022,5.27309 -499.6627,171.13977 -563.7344,402.73433 -3.8611,13.9564 -8.4285,27.8485 -12.5899,38.7618 -2.0806,5.4566 -4.0658,10.1773 -5.7441,13.6894 -1.4201,2.9719 -2.4401,4.4233 -2.7168,4.8887 -0.505,0.3517 -1.2443,0.892 -2.2539,1.3203 -2.3467,0.9955 -5.8958,2.3117 -10.3437,3.8086 -8.8959,2.9939 -21.4447,6.7591 -36.5665,10.9766 -30.2434,8.4349 -70.8457,18.7054 -114.3378,28.7265 -631.3613,145.4709 -1172.1631,410.9255 -1583.168,777.5274 -194.6739,173.6426 -346.7648,434.0554 -467,797.7089 -51.8148,156.7164 -59.4372,194.9378 -93.0879,468.3243 -34.0286,276.4614 -40.3861,424.9637 -21.4336,525.6621 3.5919,19.0861 13.5061,87.1764 21.7383,149.7851 15.3968,117.1067 75.8683,326.1853 124.7519,431.2188 105.3171,226.2897 210.514,386.5884 449.9922,685.9277 216.5166,270.6382 425.2492,453.6183 857.3164,751.8067 48.8325,33.7012 102.1796,70.7877 118.2559,82.205 69.1996,49.1455 322.3743,198.1628 402.707,237.0743 181.6165,87.9709 372.8208,167.9153 516.7266,215.9902 32.6925,10.9217 104.6735,24.4893 198.2031,39.3105 93.5297,14.8213 207.9294,30.5972 322.6563,44.7891 114.7269,14.1919 229.7638,26.799 324.5703,35.2754 94.8065,8.4764 168.7088,12.9323 203.9414,10.4453 211.078,-14.8996 553.6253,-111.362 838.6543,-235.5508 28.5513,-12.44 57.8444,-23.3756 81.7773,-30.8887 11.9665,-3.7565 22.6067,-6.6566 31.0039,-8.457 8.3972,-1.8004 15.0083,-2.2543 16.4785,-2.0742 13.93,1.7063 29.674,-4.2239 50.6036,-15.0879 20.9296,-10.864 46.5846,-27.3466 76.9629,-49.3555 49.811,-36.0878 117.6112,-77.4709 147.6757,-90.625 80.786,-35.3458 311.1066,-160.3836 376.2188,-204.3554 28.0958,-18.974 91.9794,-59.0535 141.3047,-88.6231 49.9767,-29.9603 105.7478,-69.2077 127.0039,-90.2949 19.0904,-18.9385 49.4844,-46.6068 66.707,-60.7578 19.0619,-15.6625 30.4729,-24.8437 34.377,-37.9863 1.952,-6.5714 0.6529,-13.8664 -2.5332,-19.5918 -3.1862,-5.7255 -7.7761,-10.6235 -13.5391,-16.252 -7.8968,-7.7127 -18.5997,-12.2816 -31.7207,-12.3437 -13.121,-0.062 -29.0686,3.2975 -52.332,9.5937 -30.9255,8.37 -103.9996,21.7494 -160.4668,29.2266 -56.9383,7.5395 -141.7188,19.4377 -188.6036,26.4687 -46.7722,7.014 -111.5369,16.6929 -143.9062,21.5059 -60.6128,9.0124 -454.2319,46.0188 -568.5566,53.3183 -40.6682,2.5967 -72.3152,-1.6071 -87.4317,-8.2851 -7.5582,-3.339 -9.7536,-6.6759 -9.9785,-7.8164 -0.2249,-1.1405 0.1637,-4.296 6.8828,-10.1289 3.5392,-3.0724 12.9838,-8.5248 24.0762,-13.3262 11.0923,-4.8014 24.08,-9.3195 35.8262,-12.2559 67.2068,-16.8006 226.5153,-88.9081 316.6894,-142.5781 41.7118,-24.8262 100.7469,-57.9156 130.459,-73.1484 56.051,-28.7366 119.8833,-64.1289 169.9707,-93.5293 25.0437,-14.7002 46.6311,-27.888 62.1914,-38.0742 7.7802,-5.0931 14.0342,-9.4119 18.6309,-12.9532 2.2983,-1.7706 4.1689,-3.3183 5.7871,-4.914 1.3717,-1.3527 3.1192,-1.9511 4.1113,-5.9121 0.1131,-0.1449 0.095,-0.1335 0.2852,-0.3536 0.8917,-1.0337 2.5413,-2.7325 4.7226,-4.789 4.3627,-4.113 10.8917,-9.7569 18.9375,-16.3535 16.0917,-13.1933 38.3107,-30.2779 62.5977,-47.9199 80.4833,-58.4628 153.6347,-119.2245 231.0527,-191.9083 6.7794,-6.3648 11.9989,-11.2546 16.0371,-16.0156 4.0383,-4.7609 7.2968,-9.9132 7.7832,-16.2324 0.4864,-6.3192 -2.05,-11.9765 -5.4023,-17.0742 -3.3524,-5.0977 -7.8158,-10.314 -13.586,-17.0879 v 0 c -9.894,-11.6148 -21.0381,-20.1593 -35.955,-25.75 -14.9169,-5.5906 -33.29,-8.541 -59.3164,-10.873 -37.1832,-3.3317 -81.8788,-1.2846 -104.9043,6.3027 -22.9804,7.5725 -92.2202,20.9195 -162.4161,32.041 -70.1958,11.1216 -142.8781,20.3873 -174.2031,21.2481 -13.4493,0.3696 -23.509,0.593 -30.4922,0.2637 -6.9832,-0.3294 -10.6035,-1.5276 -11.1582,-1.8789 -0.5547,-0.3514 -0.3173,0.63 -0.5488,-2.4493 -0.2315,-3.0792 0.3159,-9.0574 1.3223,-17.2734 0.998,-8.1473 3.5728,-17.0787 6.7734,-24.3184 3.2006,-7.2396 7.5385,-12.764 9.1172,-13.8945 20.0268,-14.3414 44.3191,-43.8053 90.3164,-106.8691 17.1429,-23.5032 47.8591,-62.3031 67.7109,-85.5235 20.2868,-23.7291 40.7139,-49.3387 47.5059,-60.4629 13.8728,-22.7208 62.2644,-103.7467 103.1328,-172.6757 9.4984,-16.0203 18.4085,-33.1836 25.2285,-48.1641 6.82,-14.9806 11.6219,-26.8474 12.7735,-36.2481 0.5132,-4.1898 4.1615,-16.3056 9.5859,-29.8769 5.4244,-13.5713 12.5865,-29.272 20.0527,-43.5488 18.7133,-35.7837 36.3055,-96.0125 52.3809,-169.0137 16.0753,-73.0012 30.3566,-158.4859 41.1797,-243.2461 10.8231,-84.7602 18.1858,-168.761 20.373,-238.8398 2.1873,-70.0789 -0.2397,-125.4875 -11.2129,-156.6856 -9.9251,-28.2182 -16.1275,-67.9267 -14.4414,-81.9062 v 0 c 2.6895,-22.2806 -4.8551,-59.3865 -16.0156,-99.1191 -11.1608,-39.7337 -26.175,-80.5379 -41.1484,-105.9317 -4.7066,-7.982 -8.8864,-17.3583 -11.6329,-25.6035 -2.7465,-8.2451 -3.7117,-15.9423 -3.5097,-17.6094 0.8545,-7.0523 -1.2123,-11.3239 -3.7676,-18.6914 -2.5553,-7.3674 -6.2639,-16.4424 -10.9023,-26.8261 -9.2769,-20.7675 -22.2588,-46.6894 -36.8243,-73.0313 -28.889,-52.2461 -68.3355,-123.49 -87.666,-158.3359 -10.4408,-18.8208 -36.302,-54.9779 -70.4824,-99.9414 -34.1804,-44.9636 -76.4255,-98.1782 -118.5684,-148.8985 -41.9815,-50.5262 -79.9775,-97.9509 -107.2968,-133.5527 -13.6597,-17.8009 -24.6601,-32.6641 -32.0801,-43.3594 -3.71,-5.3476 -6.5329,-9.6788 -8.2539,-12.6172 -0.3748,-0.6399 -0.4635,-0.8685 -0.7266,-1.3593 0.769,-0.5726 2.3609,-1.499 5.5078,-2.3946 7.1558,-2.0365 20.7529,-3.4349 41.7051,-3.4297 41.9045,0.01 113.5301,5.0722 230.541,15.2461 163.4824,14.2146 258.9094,28.7721 395.8418,60.3672 224.5453,51.8108 301.9397,81.3314 340.7246,124.9453 15.9782,17.9673 24.8862,28.7495 38.7032,32.6524 13.8169,3.9029 27.0748,-0.6067 50.1816,-7.5332 v 0 c 14.4342,-4.327 26.1671,-9.2855 35.4042,-15.8731 9.2372,-6.5876 15.9653,-15.2014 18.8204,-25.4394 5.71,-20.476 -2.7534,-43.8351 -20.1641,-74.668 v 0 c -36.7648,-65.1087 -51.5713,-85.3078 -131.2911,-178.877 -127.6481,-149.8225 -169.7976,-182.4961 -438.2285,-338.9218 -28.8767,-16.8278 -56.5904,-32.2978 -78.082,-43.7227 -10.7458,-5.7124 -19.9229,-10.4096 -27.0078,-13.7969 -3.5425,-1.6936 -6.5531,-3.0576 -9.0821,-4.0918 -2.5289,-1.0341 -3.9736,-1.8105 -7.2265,-2.2089 -1.3076,-0.1602 -6.7501,-1.8306 -12.3613,-4.4727 -5.6112,-2.6421 -11.8617,-6.1839 -16.9883,-9.7344 -46.3119,-32.075 -135.6674,-67.845 -214.1992,-86.5449 -44.0781,-10.4959 -144.8356,-38.5607 -223.0118,-62.1523 -78.9937,-23.838 -222.0965,-57.9227 -319.2461,-76.0704 -48.2828,-9.0195 -93.8893,-18.0197 -128.4101,-25.2421 -17.2604,-3.6113 -31.7563,-6.7791 -42.3711,-9.2676 -5.3074,-1.2443 -9.6522,-2.3226 -12.8184,-3.1777 -3.1661,-0.8552 -5.6084,-1.7786 -5.0683,-1.5254 v 0 c -7.1415,-3.3475 -9.6318,-6.6165 -9.7246,-6.8535 -0.093,-0.237 -0.8037,0.2616 2.1172,-2.7246 5.8417,-5.9724 25.3087,-15.8904 53.8437,-25.0781 57.0699,-18.3756 151.2322,-37.4464 263.0176,-54.0274 223.5708,-33.1619 518.3934,-56.6756 735.4902,-48.6758 62.8797,2.3171 100.8877,1.9988 125.6152,-4.998 12.3638,-3.4984 21.9045,-9.1511 27.8516,-17.6367 5.9472,-8.4856 7.7245,-18.7108 7.6953,-29.7617 -0.04,-15.3226 -5.2491,-29.6004 -19.4492,-43.5098 -14.2,-13.9094 -36.9047,-29.05 -74.7383,-52.4258 -116.1353,-71.7549 -347.3401,-156.0328 -525.3183,-192.0469 -198.4639,-40.1593 -673.6752,-99.4007 -831.7715,-103.5293 -73.0998,-1.9092 -213.4914,-7.7949 -311.6367,-13.0683 l -173.9942,-9.34768 -40.6269,-57.7461 C 5227.4428,731.79333 5084.2321,645.13086 4882.7852,643.72656 Z m -0.1211,19.16602 c 196.1732,1.17808 331.0219,82.67253 473.5703,285.28125 l 45.9863,65.36137 183.2891,9.8457 c 98.3598,5.2849 238.6776,11.1705 312.164,13.0898 154.2623,4.0284 632.2704,63.455 828.4707,103.1563 175.4084,35.494 406.9361,120.2985 519.043,189.5644 37.5662,23.2105 59.6452,38.3017 71.3965,49.8125 11.7513,11.5108 13.6617,17.8421 13.6933,29.8613 0.024,8.9756 -1.4094,14.6912 -4.2226,18.7051 -2.8132,4.0139 -7.5814,7.4219 -17.3692,10.1914 -19.5755,5.5391 -57.2328,6.5886 -119.6894,4.2871 -219.1112,-8.074 -514.3221,15.5419 -739.0078,48.8692 -112.3429,16.6636 -206.8629,35.6766 -266.0821,54.7441 -29.6095,9.5338 -50.1892,18.1784 -61.6757,29.9219 -5.7433,5.8717 -9.4408,15.0163 -6.2617,23.1289 3.179,8.1126 10.2181,12.8963 19.4394,17.2187 2.6278,1.2317 4.6973,1.7279 8.207,2.6758 3.5098,0.9479 8.007,2.058 13.4414,3.3321 10.869,2.548 25.4661,5.7382 42.8204,9.3691 34.7084,7.2617 80.4145,16.2802 128.8183,25.3223 96.224,17.9747 239.533,52.1331 317.2246,75.5781 78.509,23.6921 178.9572,51.6971 224.1113,62.4492 76.2878,18.1655 165.5576,54.4513 207.7227,83.6543 6.1808,4.2806 13.1541,8.2201 19.7383,11.3203 6.5842,3.1002 12.3088,5.4349 18.1973,6.1563 -1.4539,-0.1781 0.33,0.1179 2.3007,0.9238 1.9708,0.8059 4.7325,2.0477 8.0684,3.6426 6.6718,3.1898 15.6852,7.7979 26.2793,13.4297 21.1881,11.2635 48.7451,26.6447 77.4277,43.3593 268.1969,156.2895 306.0757,185.4815 433.2852,334.7891 79.605,93.4345 92.661,111.179 129.1894,175.8691 16.5651,29.3354 21.5619,48.7179 18.3907,60.0899 -1.5857,5.686 -4.8831,10.2707 -11.4844,14.9785 -6.6014,4.7078 -16.5194,9.1409 -29.7774,13.1152 -23.0425,6.9074 -33.3113,9.1869 -39.4629,7.4492 -6.1513,-1.7375 -13.6534,-9.0255 -29.5859,-26.9414 v 0 c -44.2019,-49.7044 -125.6188,-78.9421 -350.7441,-130.8867 -137.5806,-31.7447 -234.523,-46.5283 -398.4922,-60.7852 -117.1336,-10.1846 -188.7722,-15.3075 -232.1973,-15.3183 -21.7125,-0.01 -36.2964,1.128 -46.957,4.1621 -5.3303,1.517 -9.839,3.546 -13.5117,6.8418 -3.6728,3.2957 -6.0802,8.1076 -6.6211,12.664 -0.558,4.6926 0.6563,5.6501 1.3769,7.2891 0.7208,1.6393 1.5926,3.2443 2.6758,5.0937 2.1665,3.6989 5.1798,8.2815 9.0469,13.8555 7.7341,11.1481 18.8513,26.1591 32.6211,44.1035 27.5396,35.8889 65.6436,83.4446 107.7597,134.1328 41.955,50.4941 84.068,103.5419 118.0528,148.2481 33.9847,44.7062 60.096,81.6254 68.9804,97.6406 19.3201,34.8271 58.768,106.0729 87.6524,158.3106 14.321,25.8998 27.1139,51.4693 36.0957,71.5761 4.4909,10.0534 8.0307,18.7611 10.2949,25.2891 2.2642,6.528 2.5873,12.2648 2.8496,10.0996 -0.982,8.1067 1.1528,16.3736 4.3516,25.9766 3.1988,9.6029 7.8108,19.9593 13.3086,29.2832 13.1897,22.3687 28.3457,62.7163 39.2051,101.3769 10.8593,38.6606 17.1835,77.1913 15.4394,91.6367 -2.645,21.9197 4.5769,59.8237 15.3906,90.5684 8.7458,24.8654 12.295,80.5093 10.1348,149.7226 -2.1602,69.2134 -9.4688,152.7456 -20.2285,237.0098 -10.7598,84.2642 -24.9729,169.2939 -40.8848,241.5527 -15.9119,72.2589 -33.7991,132.0344 -50.6465,164.25 -7.8051,14.925 -15.178,31.0846 -20.8672,45.3184 -5.6891,14.2339 -9.735,25.8687 -10.8124,34.6641 -0.4391,3.5846 -4.6955,16.3641 -11.1915,30.6328 -6.4959,14.2687 -15.157,30.9575 -24.2714,46.3301 -40.8437,68.8873 -89.3659,150.1232 -103.0059,172.4629 -4.2748,7.0014 -25.796,34.6976 -45.7129,57.9941 -20.3518,23.8052 -50.988,62.4996 -68.6289,86.6855 -45.7417,62.7134 -70.4219,91.429 -85.9883,102.5762 -7.0616,5.0569 -11.5063,12.7164 -15.4922,21.7324 -3.9859,9.016 -7.0023,19.4112 -8.2675,29.7403 -1.0169,8.3017 -1.8813,14.7774 -1.4102,21.0429 0.4711,6.2656 3.5258,13.4848 9.4082,17.211 5.8824,3.7261 12.3187,4.4474 20.5156,4.834 8.1969,0.3865 18.4416,0.1205 31.9239,-0.25 34.1803,-0.9393 106.1046,-10.2956 176.6757,-21.4766 70.5712,-11.181 138.2576,-23.8177 165.418,-32.7676 16.1157,-5.3104 62.3626,-8.5367 97.1914,-5.416 25.3567,2.272 42.23,5.206 54.2969,9.7285 12.0669,4.5225 19.6452,10.3195 28.0879,20.2305 5.7376,6.7357 9.898,11.7485 12.1621,15.1914 2.2641,3.4429 2.3378,4.6366 2.3047,5.0664 -0.033,0.4298 -0.4253,1.9248 -3.2871,5.2988 -2.8619,3.374 -7.7932,8.1061 -14.5391,14.4395 -76.9122,72.2088 -149.3546,132.3776 -229.1973,190.375 -24.5491,17.8325 -46.9806,35.0728 -63.4863,48.6054 -8.2528,6.7664 -15.0079,12.5849 -19.9336,17.2286 -2.4628,2.3218 -4.4569,4.3261 -6.0879,6.2168 -0.8155,0.9453 -1.5429,1.8467 -2.2597,2.957 -0.3371,0.5221 -0.722,1.0653 -1.0762,1.7891 0.045,0.1382 0.1926,0.1969 -0.01,0.3925 -0.028,0.028 -0.1426,0.1164 -0.1738,0.1465 -0.3151,0.7573 -0.6141,1.6176 -0.7813,2.9824 0.1583,-1.292 0.3374,-2.1618 0.5059,-2.7519 -0.7328,0.687 -1.8505,1.6686 -3.5762,2.998 -3.885,2.9931 -9.878,7.1581 -17.4297,12.1016 -15.1032,9.887 -36.5231,22.9799 -61.3964,37.5801 -49.7467,29.2004 -113.392,64.4874 -169.0137,93.0039 -30.5577,15.6663 -89.412,48.6738 -131.5176,73.7344 -88.0579,52.4104 -250.1769,125.1155 -311.5312,140.4531 -12.9863,3.2464 -26.7355,8.0406 -38.793,13.2597 -12.0575,5.2192 -22.177,10.495 -29.0293,16.4434 -9.325,8.0951 -15.172,17.9481 -13.127,28.3184 2.0451,10.3702 10.6252,17.0461 21.043,21.6484 20.8357,9.2046 53.9438,12.5919 96.4043,9.8809 115.6211,-7.3823 505.3021,-43.8455 570.1543,-53.4883 32.3879,-4.8158 97.1486,-14.4945 143.9297,-21.5098 46.669,-6.9986 131.4842,-18.9018 188.2754,-26.4219 57.2619,-7.5824 129.7304,-20.7327 162.9609,-29.7265 22.7181,-6.1486 37.6813,-8.973 47.2324,-8.9278 9.5512,0.045 13.2809,1.8751 18.4122,6.8868 5.2849,5.1616 8.7214,9.2334 10.1816,11.8574 1.4602,2.624 1.4275,3.0583 0.9082,4.8066 -1.0387,3.4967 -9.5214,13.3081 -28.1699,28.6309 -18.1241,14.8917 -48.3653,42.4456 -68.0371,61.9609 -17.5062,17.367 -74.3976,58.111 -123.3594,87.4629 -49.6135,29.7424 -113.2978,69.6723 -142.1777,89.1758 -61.5894,41.5928 -295.4261,168.6639 -373.1719,202.6797 -33.7067,14.7475 -100.4191,55.8443 -151.2402,92.664 -29.9017,21.6637 -54.9839,37.7106 -74.5469,47.8653 -19.563,10.1546 -34.0669,13.7321 -39.4375,13.0742 -6.5851,-0.8067 -13.5662,0.3708 -22.8321,2.3574 -9.2658,1.9867 -20.3591,5.0297 -32.7265,8.9121 -24.7349,7.7648 -54.5144,18.89 -83.6934,31.6035 -283.192,123.3885 -625.6453,219.4114 -832.3457,234.002 -31.5964,2.2303 -106.3858,-1.9673 -200.8828,-10.416 -94.497,-8.4487 -209.3738,-21.037 -323.9238,-35.2071 -114.55,-14.17 -228.7903,-29.9251 -322.0098,-44.6972 -93.2195,-14.7721 -166.0991,-28.8612 -195.1269,-38.5586 -142.6853,-47.6671 -333.4784,-127.4051 -514.4434,-215.0606 -77.186,-37.3872 -333.9379,-188.5583 -399.9629,-235.4492 -16.4181,-11.66 -69.5954,-48.6254 -118.4668,-82.3535 -431.4277,-297.747 -637.8376,-478.763 -853.2363,-748.0039 -239.1052,-298.8731 -342.8597,-457.0334 -447.5801,-682.041 -47.2984,-101.6273 -108.1984,-312.0951 -123.125,-425.625 -8.2564,-62.7929 -17.9817,-129.9803 -21.9062,-150.834 -18.1667,-96.5233 -12.3401,-243.8603 21.6211,-519.7734 33.6351,-273.26 40.5604,-308.2679 92.2636,-464.6465 119.5784,-361.6672 270.2896,-618.8141 461.5567,-789.418 408.2004,-364.1003 945.9868,-628.2896 1574.7089,-773.1523 43.7407,-10.0784 84.5433,-20.3958 115.1836,-28.9414 15.3202,-4.2728 28.0835,-8.0938 37.5313,-11.2735 4.7239,-1.5898 8.6051,-3.0101 11.7168,-4.3301 3.1117,-1.3199 4.8924,-1.2563 8.4687,-5.1953 2.8157,-3.1013 4.3015,-6.1858 6.3145,-10.3984 2.013,-4.2126 4.149,-9.323 6.3613,-15.125 4.4247,-11.604 9.1288,-25.9387 13.1524,-40.4824 61.5045,-222.31516 286.8661,-383.55382 545.6328,-388.67386 6.4581,-0.12778 12.8515,-0.17276 19.1797,-0.13476 z m 1788.205,1689.58402 c 0.02,0.046 -0.022,0.4341 -0.01,0.5156 -0.023,-0.049 -0.1168,-0.211 -0.1348,-0.252 -0.1115,-0.2535 0.029,-0.527 0.1406,-0.2636 z" id="path843"/>
</g>
    <g><metadata xmlns:rdf="http://www.w3.org/1999/02/22-rdf-syntax-ns#" xmlns:cc="http://creativecommons.org/ns#" xmlns:dc="http://purl.org/dc/elements/1.1/" id="metadata33">
    <rdf:RDF>
      <cc:Work rdf:about="">
        <dc:format>image/svg+xml</dc:format>
        <dc:type rdf:resource="http://purl.org/dc/dcmitype/StillImage"/>
      </cc:Work>
    </rdf:RDF>
  </metadata>
  <sodipodi:namedview xmlns:sodipodi="http://sodipodi.sourceforge.net/DTD/sodipodi-0.dtd" xmlns:inkscape="http://www.inkscape.org/namespaces/inkscape" pagecolor="#ffffff" bordercolor="#666666" borderopacity="1" objecttolerance="10" gridtolerance="10" guidetolerance="10" inkscape:pageopacity="0" inkscape:pageshadow="2" inkscape:window-width="1920" inkscape:window-height="1017" id="namedview31" showgrid="false" inkscape:zoom="0.11089367" inkscape:cx="3927.5" inkscape:cy="3832.5" inkscape:window-x="-8" inkscape:window-y="-8" inkscape:window-maximized="1" inkscape:current-layer="svg29"/>
  <path d="m 7545,4130 -145,75 -490,280 h -15 q -115,0 -660,-310 l -530,-315 -20,5 -130,-280 -425,-885 -15,25 -30,-50 v 190 l -40,410 -40,500 q 0,400 545,1460 l 570,1025 Q 5835,5915 5480,5240 4965,4260 4965,3620 l 35,-345 q 35,-315 35,-420 v -110 l 10,-85 v -35 l 5,-130 q 0,-265 -40,-340 -25,-50 -105,-50 l -20,5 -35,-35 -105,-15 h -510 l -480,-35 -205,5 q -130,20 -210,90 l 50,50 -35,20 55,20 h 60 l 220,20 140,-15 410,35 95,5 v 20 l 85,225 q 75,215 75,290 0,630 -60,795 l -60,60 q 25,20 25,60 l -510,30 -515,15 h -405 l 20,5 -390,-15 q -70,0 -95,45 L 2330,3685 1960,3545 Q 1420,3335 1275,3260 795,3030 580,2870 L 385,2715 v -5 l -25,-60 45,-125 25,-45 10,10 5,-40 160,-310 325,-645 10,-5 55,-30 150,-65 475,-115 110,40 q 345,250 585,365 390,250 610,300 l 80,30 q 205,75 265,75 230,-95 365,-175 l 255,-105 h 440 l -305,-135 -325,-155 q -130,-65 -240,-125 l -75,-315 -5,-425 15,-310 520,-170 215,-60 485,-115 h 15 l 310,150 475,215 490,240 170,135 440,465 50,65 405,355 280,235 160,105 15,10 430,805 -10,165 -90,325 q -150,560 -210,860 m -90,-1700 -140,-290 -15,-10 -20,-10 -35,10 q -120,395 -770,695 l -95,45 -270,35 -190,-15 h -30 q -130,0 -450,-135 l -275,-110 155,295 260,640 -40,-60 55,135 h 5 l 5,10 v 10 l 5,5 q 85,145 505,380 440,250 660,310 l 120,40 255,-105 190,-85 5,-55 10,10 75,-215 70,-340 q 120,-450 150,-820 L 7455,2430 M 1550,1510 h -5 q -65,0 -105,40 l -160,40 -130,65 -60,90 -125,170 -45,115 -270,545 -10,65 q 350,240 780,445 l 885,385 h 5 l 130,40 140,35 50,-15 40,5 q 105,-30 200,-95 l 20,-15 20,-15 70,-70 5,-5 20,-15 v -15 q 55,-90 55,-200 0,-305 50,-420 50,-120 50,-180 l -10,-105 20,-85 -135,-80 q -85,-10 -590,-205 l -105,-55 -620,-350 -140,-95 -30,-20 m -1265,2065 155,-5 h 20 l 20,25 190,-15 q 1200,130 1820,265 10,65 150,70 l 715,10 20,-25 60,-10 715,-35 115,-20 140,25 v -5 l 5,10 50,55 10,10 -15,5 30,25 -10,5 115,300 q 95,320 95,655 l -10,200 h 35 l 15,15 -125,105 q -60,35 -110,80 l -520,65 -685,105 25,10 -345,55 h -55 q -195,5 -220,75 l -10,-5 -365,35 -5,-15 L 1065,5510 45,5320 40,5305 0,5000 l 40,-820 170,-440 45,-130 30,-35 m 535,235 -250,-15 -10,-15 -55,-5 q -95,75 -150,195 l -15,35 -5,5 q -120,255 -145,530 10,435 70,630 l 80,5 140,15 895,110 970,130 275,-15 45,5 5,-10 10,-25 h 40 q 85,5 110,-85 l 5,-70 10,-95 15,-110 5,-375 20,-375 v 750 l -20,160 -30,115 q 0,55 35,90 h 10 v 20 l -5,10 10,-5 185,20 150,-10 480,-65 280,-35 530,-110 60,-15 50,-5 q 15,-5 15,-65 v -5 h 15 q -20,-465 -100,-765 -15,-205 -80,-285 0,-130 -60,-160 l -115,-15 -230,10 -40,10 -1180,100 20,60 -30,5 45,95 -35,55 q -35,-90 -105,-150 h 15 v -5 l -30,5 -1020,-115 -660,-115 -185,-40 h -5 l -35,-5 m 3085,-140 h 220 l 200,-30 20,-40 35,-65 5,-10 q 75,-140 75,-355 0,-155 -15,-270 l 5,-95 q 0,-235 -60,-345 l -45,-50 -25,-135 -20,5 -20,-20 -895,-25 -40,10 -10,15 v 5 l -35,-5 -45,15 v 10 l -30,-5 q -5,165 -55,345 -65,230 -85,685 l -10,15 -5,5 v 5 l -75,70 -290,180 110,30 170,55 h 920 m 1195,-1365 10,165 v 15 l 125,125 q 160,145 400,210 v -5 l 280,45 55,5 h 95 l 200,-25 q 80,-15 130,-40 l 25,25 -5,5 160,-80 110,-65 q 295,-185 450,-585 l -30,-35 20,-15 -495,-470 -55,-55 -175,-145 -5,-5 -60,-55 -165,-210 -75,-80 -80,-65 v 10 l -25,-30 -30,40 15,70 -40,375 -55,60 -65,80 -25,30 -375,190 -50,30 -250,55 -20,5 -45,10 35,30 -20,180 20,105 15,100 m 705,-770 q 80,-85 115,-190 25,-75 25,-165 0,-135 -35,-305 l -85,-70 -65,-15 Q 5335,550 4765,315 l -155,-60 -50,-20 -45,10 -45,-10 q -345,0 -735,215 l -140,85 -25,5 -10,420 70,250 q 250,215 580,350 l 670,255 110,35 h 95 v 5 q 230,-45 410,-120 200,-80 310,-200 m -755,1080 20,25 -10,-25 h -10 m -685,1265 40,25 -25,-25 h -15 m 500,1690 65,120 25,45 50,65 35,170 20,90 -15,-15 5,235 -40,505 -40,55 -30,-10 -95,35 -100,40 -125,40 -370,130 -275,90 q 25,20 25,55 v 15 l 25,30 q -20,25 -95,50 l -20,-5 -65,25 -495,75 -20,5 -180,40 -315,80 -355,30 -300,30 -755,70 q -170,-350 -250,-745 l -90,-395 v -205 l 60,-330 20,-10 1315,-245 175,-35 45,-5 q 70,125 210,125 l 365,-65 230,-60 40,-10 1190,-245 130,130 m 130,995 q 0,-420 -25,-625 l -105,-200 -120,-245 -905,180 -665,145 20,35 q 65,135 65,230 v 30 l 300,940 v 5 l 15,-5 q 15,0 20,15 l -40,60 -5,25 175,-20 h 10 l 135,-40 h 50 l 510,-125 q 420,-110 505,-190 l 5,10 5,-5 5,5 25,-40 20,-185 m -1565,590 35,-25 5,-5 10,-5 5,-5 v -100 -20 l -5,-20 v -25 q 0,-120 -170,-590 -105,-285 -160,-395 l -50,-75 -35,5 -15,-45 -570,125 -295,55 -125,25 -105,20 -590,90 -30,110 -30,365 v 35 q 130,435 300,760 h 25 l 660,-50 190,-35 500,-95 170,-30 235,-45 45,-25" fill="#000000" fill-rule="evenodd" stroke="none" id="path14" style="stroke-width:100"/>
  <path d="m 2890,3425 -20,15 q -95,65 -200,95 l -40,-5 -50,15 -140,-35 -130,-40 h -5 L 1420,3085 Q 990,2880 640,2640 l 10,-65 270,-545 45,-115 125,-170 60,-90 130,-65 160,-40 q 40,-40 105,-40 h 5 l -205,520 -290,605 q 615,295 1075,495 465,200 760,295 m -220,1985 -5,10 -45,-5 -275,15 -970,-130 -895,-110 -140,-15 -80,-5 q -60,-195 -70,-630 25,-275 145,-530 l 5,-5 15,-35 q 55,-120 150,-195 l 55,5 10,15 250,15 q 15,85 15,275 l -25,250 q -95,120 -95,425 l 20,290 q 0,155 1935,360 M 3905,3670 h -920 l -170,-55 -110,-30 290,-180 -30,25 q 235,80 595,165 l 345,75 M 5815,1570 q 260,330 420,675 l -945,125 -190,-65 -15,-100 -20,-105 20,-180 -35,-30 45,-10 20,-5 250,-55 50,-30 375,-190 25,-30 M 4610,255 l -5,295 q -140,325 -40,415 l 235,80 405,180 q 385,215 600,310 -110,120 -310,200 -180,75 -410,120 v -5 h -95 l -110,-35 -670,-255 q -330,-135 -580,-350 l -70,-250 10,-420 25,-5 140,-85 q 390,-215 735,-215 l 45,10 45,-10 50,20 m -2655,5820 40,45 q 40,45 90,160 60,140 90,305 100,525 175,620 35,40 220,40 l 630,-60 230,-30 -45,25 -235,45 -170,30 -500,95 -190,35 -660,50 h -25 q -170,-325 -300,-760 v -35 l 30,-365 30,-110 590,-90" fill="#cf0e48" fill-rule="evenodd" stroke="none" id="path16" style="stroke-width:100"/>
  <path d="m 7455,2430 195,370 q -30,370 -150,820 l -70,340 -75,215 -10,-10 -5,55 -190,85 -255,105 -120,-40 q -220,-60 -660,-310 -420,-235 -505,-380 l -5,-5 v -10 l -5,-10 h -5 l -55,-135 40,60 -260,-640 -155,-295 275,110 q 320,135 450,135 h 30 l 190,15 270,-35 95,-45 q 650,-300 770,-695 l 35,-10 20,10 15,10 140,290 m -5905,-920 30,20 140,95 620,350 105,55 q 505,195 590,205 l 135,80 -20,85 10,105 q 0,60 -50,180 -50,115 -50,420 0,110 -55,200 v 15 l -20,15 -5,5 -70,70 -20,15 q -295,-95 -760,-295 -460,-200 -1075,-495 l 290,-605 205,-520 M 2670,5410 Q 735,5205 735,5050 l -20,-290 q 0,-305 95,-425 l 25,-250 q 0,-190 -15,-275 l 35,5 h 5 l 185,40 660,115 1020,115 30,-5 v 5 h -15 q 70,60 105,150 l 35,-55 -45,-95 30,-5 -20,-60 1180,-100 40,-10 230,-10 115,15 q 60,30 60,160 65,80 80,285 80,300 100,765 h -15 v 5 q 0,60 -15,65 l -50,5 -60,15 -530,110 -280,35 -480,65 -150,10 -185,-20 -10,5 5,-10 v -20 h -10 q -35,-35 -35,-90 l 30,-115 20,-160 v -750 l -20,375 -5,375 -15,110 -10,95 -5,70 q -25,90 -110,85 h -40 l -10,25 m 325,-2005 75,-70 v -5 l 5,-5 10,-15 q 20,-455 85,-685 50,-180 55,-345 l 30,5 v -10 l 45,-15 35,5 v -5 l 10,-15 40,-10 895,25 20,20 20,-5 25,135 45,50 q 60,110 60,345 l -5,95 q 15,115 15,270 0,215 -75,355 l -5,10 -35,65 -20,40 -200,30 h -220 l -345,-75 q -360,-85 -595,-165 l 30,-25 m 2820,-1835 65,-80 55,-60 40,-375 -15,-70 30,-40 25,30 v -10 l 80,65 75,80 165,210 60,55 5,5 175,145 55,55 495,470 -20,15 30,35 q -155,400 -450,585 l -110,65 -160,80 5,-5 -25,-25 q -50,25 -130,40 l -200,25 h -95 l -55,-5 -280,-45 v 5 q -240,-65 -400,-210 l -125,-125 v -15 l -10,-165 190,65 945,-125 Q 6075,1900 5815,1570 M 4610,255 l 155,60 q 570,235 995,475 l 65,15 85,70 q 35,170 35,305 0,90 -25,165 -35,105 -115,190 -215,-95 -600,-310 l -405,-180 -235,-80 q -100,-90 40,-415 l 5,-295 m -2655,5820 105,-20 125,-25 295,-55 570,-125 15,45 35,-5 50,75 q 55,110 160,395 170,470 170,590 v 25 l 5,20 v 20 100 l -5,5 -10,5 -5,5 -35,25 -230,30 -630,60 q -185,0 -220,-40 -75,-95 -175,-620 -30,-165 -90,-305 -50,-115 -90,-160 l -40,-45 m 3040,490 -20,185 -25,40 -5,-5 -5,5 -5,-10 q -85,80 -505,190 l -510,125 h -50 l -135,40 h -10 l -175,20 5,-25 40,-60 q -5,-15 -20,-15 l -15,5 v -5 l -300,-940 v -30 q 0,-95 -65,-230 l -20,-35 665,-145 905,-180 120,245 105,200 q 25,205 25,625" fill="#761432" fill-rule="evenodd" stroke="none" id="path18" style="stroke-width:100"/>
  <defs id="defs27">
    <linearGradient gradientTransform="matrix(0.94,-3.38,1.47,0.41,-7065,-4650)" gradientUnits="userSpaceOnUse" id="gradient0" spreadMethod="pad" x1="-819.2" x2="819.2">
      <stop offset="0.0" stop-color="#635b58" id="stop22"/>
      <stop offset="1.0" stop-color="#d3cebc" id="stop24"/>
    </linearGradient>
  </defs>
</g>
  </g>
</svg>
