<?xml version='1.0' encoding='ASCII' standalone='yes'?>
<svg xmlns="http://www.w3.org/2000/svg" xmlns:xlink="http://www.w3.org/1999/xlink" version="1.1" width="7825.0px" height="5140.0px">
  <g>
    <g transform="translate( 0,  0) scale(1.0 1.0)  rotate(0.000000 0.000000 0.000000)"><metadata xmlns:rdf="http://www.w3.org/1999/02/22-rdf-syntax-ns#" xmlns:cc="http://creativecommons.org/ns#" xmlns:dc="http://purl.org/dc/elements/1.1/" id="metadata37">
    <rdf:RDF>
      <cc:Work rdf:about="">
        <dc:format>image/svg+xml</dc:format>
        <dc:type rdf:resource="http://purl.org/dc/dcmitype/StillImage"/>
        <dc:title/>
      </cc:Work>
    </rdf:RDF>
  </metadata>
  <sodipodi:namedview xmlns:sodipodi="http://sodipodi.sourceforge.net/DTD/sodipodi-0.dtd" xmlns:inkscape="http://www.inkscape.org/namespaces/inkscape" pagecolor="#ffffff" bordercolor="#666666" borderopacity="1" objecttolerance="10" gridtolerance="10" guidetolerance="10" inkscape:pageopacity="0" inkscape:pageshadow="2" inkscape:window-width="1920" inkscape:window-height="1017" id="namedview35" showgrid="false" inkscape:zoom="0.073562829" inkscape:cx="3980.0039" inkscape:cy="2514.6715" inkscape:window-x="-8" inkscape:window-y="-8" inkscape:window-maximized="1" inkscape:current-layer="svg33" inkscape:document-rotation="0"/>
  <defs id="defs31">
    <linearGradient gradientTransform="matrix(0.94,-3.38,1.47,0.41,3960,-7135)" gradientUnits="userSpaceOnUse" id="gradient0" spreadMethod="pad" x1="-819.20001" x2="819.20001">
      <stop offset="0.0" stop-color="#635b58" id="stop26"/>
      <stop offset="1.0" stop-color="#d3cebc" id="stop28"/>
    </linearGradient>
    <linearGradient gradientTransform="matrix(0.96,-3.51,1.5,0.42,7060,-625)" gradientUnits="userSpaceOnUse" id="gradient0-5" spreadMethod="pad" x1="-819.20001" x2="819.20001">
      <stop offset="0.0" stop-color="#635b58" id="stop34"/>
      <stop offset="1.0" stop-color="#d3cebc" id="stop36"/>
    </linearGradient>
    <linearGradient gradientTransform="matrix(0.67,-2.44,1.04,0.29,7040,440)" gradientUnits="userSpaceOnUse" id="gradient1" spreadMethod="pad" x1="-819.20001" x2="819.20001">
      <stop offset="0.0" stop-color="#635b58" id="stop39"/>
      <stop offset="1.0" stop-color="#d3cebc" id="stop41"/>
    </linearGradient>
    <linearGradient gradientTransform="matrix(0.9399043,-3.3796559,1.4698503,0.40995826,-7059.505,-5689.3312)" gradientUnits="userSpaceOnUse" id="gradient0-7" spreadMethod="pad" x1="-819.20001" x2="819.20001">
      <stop offset="0.0" stop-color="#635b58" id="stop22"/>
      <stop offset="1.0" stop-color="#d3cebc" id="stop24"/>
    </linearGradient>
    <linearGradient gradientTransform="matrix(0.96,-3.51,1.5,0.42,7060,-625)" gradientUnits="userSpaceOnUse" id="gradient0-0" spreadMethod="pad" x1="-819.20001" x2="819.20001">
      <stop offset="0.0" stop-color="#635b58" id="stop34-4"/>
      <stop offset="1.0" stop-color="#d3cebc" id="stop36-4"/>
    </linearGradient>
    <linearGradient gradientTransform="matrix(0.67,-2.44,1.04,0.29,7040,440)" gradientUnits="userSpaceOnUse" id="gradient1-4" spreadMethod="pad" x1="-819.20001" x2="819.20001">
      <stop offset="0.0" stop-color="#635b58" id="stop39-3"/>
      <stop offset="1.0" stop-color="#d3cebc" id="stop41-8"/>
    </linearGradient>
  </defs>
  <path style="color:#000000;font-style:normal;font-variant:normal;font-weight:normal;font-stretch:normal;font-size:medium;line-height:normal;font-family:sans-serif;font-variant-ligatures:normal;font-variant-position:normal;font-variant-caps:normal;font-variant-numeric:normal;font-variant-alternates:normal;font-variant-east-asian:normal;font-feature-settings:normal;font-variation-settings:normal;text-indent:0;text-align:start;text-decoration:none;text-decoration-line:none;text-decoration-style:solid;text-decoration-color:#000000;letter-spacing:normal;word-spacing:normal;text-transform:none;writing-mode:lr-tb;direction:ltr;text-orientation:mixed;dominant-baseline:auto;baseline-shift:baseline;text-anchor:start;white-space:normal;shape-padding:0;shape-margin:0;inline-size:0;clip-rule:nonzero;display:inline;overflow:visible;visibility:visible;isolation:auto;mix-blend-mode:normal;color-interpolation:sRGB;color-interpolation-filters:linearRGB;solid-color:#000000;solid-opacity:1;vector-effect:none;fill:#761432;fill-opacity:1;fill-rule:nonzero;stroke:none;stroke-width:18.0542;stroke-linecap:butt;stroke-linejoin:miter;stroke-miterlimit:4;stroke-dasharray:none;stroke-dashoffset:0;stroke-opacity:1;color-rendering:auto;image-rendering:auto;shape-rendering:auto;text-rendering:auto;enable-background:accumulate;stop-color:#000000" d="m 6750.9543,4780.3694 c -9.8887,-14.0061 -25.4629,-18.085 -73.5953,-19.275 -33.5785,-0.8302 -108.2702,-8.1229 -165.9814,-16.2064 -57.7113,-8.0836 -143.9261,-19.573 -191.5886,-25.5321 -47.6624,-5.9593 -113.6447,-14.238 -146.627,-18.3976 -63.9019,-8.0591 -457.8926,-76.4554 -572.7586,-99.4302 -83.0512,-16.6116 -123.9819,-45.6078 -85.97,-60.9033 12.3098,-4.9533 43.467,-8.1306 69.2386,-7.0606 66.981,2.7809 241.8819,-17.3766 341.8383,-39.3972 47.0066,-10.3557 112.6524,-23.2102 145.8794,-28.5654 123.1317,-19.8454 283.5744,-54.2628 286.7146,-61.5049 1.7827,-4.1113 49.2683,-21.7585 105.5233,-39.2163 92.3407,-28.6561 177.9454,-61.0594 270.6148,-102.4336 32.4857,-14.5039 32.7272,-15.1518 16.305,-43.7142 -13.0838,-22.7556 -30.2402,-33.6238 -79.7566,-50.5239 -34.6979,-11.8426 -80.0659,-21.1534 -100.8177,-20.6908 -53.1671,1.1855 -281.5513,-25.7198 -346.4462,-40.8136 -53.361,-12.4112 -54.0654,-13.0719 -42.4612,-39.8338 6.4902,-14.9676 19.9267,-29.6797 29.8591,-32.6936 20.4578,-6.2078 51.2718,-24.4682 110.9307,-65.7373 22.6202,-15.6474 61.7548,-40.462 86.966,-55.1432 25.2111,-14.6814 52.0054,-31.7826 59.5429,-38.0029 18.7384,-15.4635 85.1521,-71.4219 141.2648,-119.0256 25.5633,-21.687 50.2108,-48.0376 54.7721,-58.5571 4.5613,-10.5192 26.1039,-36.0552 47.8727,-56.7465 101.381,-96.3635 298.1155,-542.8362 285.1618,-647.1508 -3.4061,-27.4279 -1.0606,-61.7722 5.212,-76.3208 12.837,-29.7678 7.5894,-134.2747 -9.1145,-181.5904 -6.0523,-17.144 -8.2058,-37.6522 -4.7857,-45.5732 3.4206,-7.9214 -7.1853,-56.3485 -23.5678,-107.6156 -16.3827,-51.267 -38.7756,-121.1959 -49.7618,-155.3983 -10.9864,-34.202 -68.6011,-149.2879 -128.033,-255.7464 -59.4316,-106.4584 -105.9932,-198.3737 -103.4697,-204.2572 7.0552,-16.4642 58.6139,-3.1723 284.3954,73.3159 157.878,53.4847 249.1726,90.2108 376.9738,151.6494 209.3477,100.6411 280.7318,145.4848 310.8115,195.2525 23.1336,38.2746 23.967,38.7198 72.5849,38.7838 58.3473,0.077 71.1338,-19.4236 51.5703,-78.6483 -21.1011,-63.8814 -30.4375,-83.3722 -87.2826,-182.2185 -90.9303,-158.1145 -123.1821,-194.2783 -351.2242,-393.8258 -48.9202,-42.8075 -94.5748,-79.9313 -101.4548,-82.4972 -6.88,-2.5659 -20.1377,-12.4002 -29.4615,-21.8541 -36.4777,-36.988 -116.0809,-89.9369 -188.0262,-125.0677 -41.4666,-20.2481 -134.0265,-69.3364 -205.6884,-109.0854 -71.662,-39.7488 -204.754,-104.7575 -295.7602,-144.4632 -91.0061,-39.7061 -171.4523,-76.6192 -178.7693,-82.0287 -114.6969,-84.8013 642.9679,10.9851 1068.6372,135.1001 122.3082,35.6621 149.5885,36.0655 158.7243,2.348 6.2366,-23.0168 -4.5072,-38.2807 -67.9793,-96.5833 -96.068,-88.2436 -304.3085,-218.0159 -469.9868,-292.88857 -185.0305,-83.61815 -640.4889,-254.36467 -793.2817,-297.39236 -71.7037,-20.19264 -208.5038,-60.72816 -304,-90.07932 l -173.6295,-53.3651 -28.4287,-62.75474 C 5635.3914,236.33948 5513.3711,130.34546 5306.4195,80.770066 5046.6989,18.55395 4783.2977,97.99978 4669.1367,272.98392 c -14.3358,21.97383 -31.2756,42.78345 -37.6445,46.24421 -6.3689,3.46065 -85.628,2.02924 -176.1315,-3.18079 -653.6641,-37.63103 -1245.6042,48.39285 -1733.0754,251.85916 -229.6558,95.85675 -438.3835,275.14508 -640.0746,549.7964 -87.0623,118.5572 -102.6688,147.5107 -198.8377,368.887 -97.176,223.6962 -137.2961,346.574 -141.7756,434.226 -0.9075,17.7505 -6.845,77.1354 -13.1942,131.9664 -11.6784,100.8441 -0.3363,292.681 23.1644,391.7901 51.3194,216.4306 117.4264,376.8543 283.9703,689.1166 150.3037,281.8128 312.6398,487.528 668.8884,847.6272 40.3093,40.7448 84.1967,85.3928 97.5276,99.218 55.4762,57.5326 271.8218,248.4266 340.5471,300.4843 158.1943,119.8278 327.7835,235.4119 457.7917,312.009 111.9946,65.9843 865.7015,347.9629 999.443,373.9141 209.0197,40.5581 568.3592,46.4392 876.5774,14.3465 62.6289,-6.5212 126.4733,-7.1567 141.8762,-1.4121 18.4531,6.8821 63.9357,-0.66 133.3465,-22.1119 57.9376,-17.9063 133.6542,-35.5436 168.2587,-39.1941 86.0252,-9.0752 343.5486,-56.2658 415.7768,-76.1904 32.4799,-8.9599 104.4932,-26.4386 160.0292,-38.8416 55.536,-12.4029 120.2128,-31.7625 143.7258,-43.0216 23.5131,-11.2589 59.7256,-26.7987 80.4721,-34.5325 44.2679,-16.5023 47.9274,-21.8601 31.1559,-45.6145 z" id="path850"/>
  <path style="color:#000000;font-style:normal;font-variant:normal;font-weight:normal;font-stretch:normal;font-size:medium;line-height:normal;font-family:sans-serif;font-variant-ligatures:normal;font-variant-position:normal;font-variant-caps:normal;font-variant-numeric:normal;font-variant-alternates:normal;font-variant-east-asian:normal;font-feature-settings:normal;font-variation-settings:normal;text-indent:0;text-align:start;text-decoration:none;text-decoration-line:none;text-decoration-style:solid;text-decoration-color:#000000;letter-spacing:normal;word-spacing:normal;text-transform:none;writing-mode:lr-tb;direction:ltr;text-orientation:mixed;dominant-baseline:auto;baseline-shift:baseline;text-anchor:start;white-space:normal;shape-padding:0;shape-margin:0;inline-size:0;clip-rule:nonzero;display:inline;overflow:visible;visibility:visible;isolation:auto;mix-blend-mode:normal;color-interpolation:sRGB;color-interpolation-filters:linearRGB;solid-color:#000000;solid-opacity:1;vector-effect:none;fill:#000000;fill-opacity:1;fill-rule:nonzero;stroke:none;stroke-linecap:butt;stroke-linejoin:miter;stroke-miterlimit:4;stroke-dasharray:none;stroke-dashoffset:0;stroke-opacity:1;color-rendering:auto;image-rendering:auto;shape-rendering:auto;text-rendering:auto;enable-background:accumulate;stop-color:#000000" d="m 5137.0645,50.716797 c -201.0253,-2.018275 -384.1213,77.288063 -475.4883,217.333983 -6.9914,10.71633 -14.6691,21.21447 -21.25,29.29883 -3.2905,4.04218 -6.3152,7.48774 -8.7481,9.98633 -2.0638,2.11965 -3.3595,3.04831 -3.7304,3.35937 -0.6248,0.17684 -1.6916,0.502 -2.8985,0.61719 -2.6088,0.24899 -6.4391,0.4557 -11.1894,0.58789 -9.5007,0.26438 -22.7415,0.24963 -38.6192,-0.0371 -31.7554,-0.57348 -74.1135,-2.22907 -119.2617,-4.82812 -654.7644,-37.69438 -1248.0365,48.4225 -1737.0703,252.54101 -231.554,96.64903 -441.5326,277.24765 -643.8731,552.78322 -87.1726,118.7075 -103.6453,149.193 -199.8417,370.6328 -97.2956,223.9714 -137.914,347.3969 -142.5118,437.3633 -0.8574,16.7706 -6.809,76.6587 -13.1465,131.3886 -11.9057,102.8072 -0.6059,293.891 23.3477,394.9102 51.4899,217.1496 118.1078,378.7633 284.7891,691.2832 150.7154,282.5847 313.9443,489.3801 670.4375,849.7266 40.2944,40.7297 84.2452,85.4472 97.4453,99.1367 56.6905,58.7919 271.6721,248.4486 341.5957,301.414 158.4424,120.0158 328.1881,235.7195 458.6601,312.5899 29.3913,17.3166 97.1558,47.0249 185.7735,83.1933 88.6176,36.1685 197.5711,78.4345 307.2109,119.4532 109.6398,41.0187 219.9544,80.7848 311.291,111.9414 91.3367,31.1566 163.1494,53.642 198.0293,60.4101 210.7588,40.8956 570.1824,46.6442 879.2324,14.4649 31.0303,-3.231 62.4327,-5.0053 87.8028,-5.2578 12.685,-0.1263 23.8727,0.1291 32.6426,0.75 8.7699,0.6208 15.4552,1.8706 17.3418,2.5742 12.5133,4.6668 29.1992,3.8308 52.1953,0.018 22.9961,-3.8133 52.019,-11.1609 86.9707,-21.9629 57.4154,-17.745 133.5871,-35.3654 166.541,-38.8418 87.4029,-9.2206 343.2222,-56.0492 417.2305,-76.4649 32.0837,-8.8506 104.2003,-26.3627 159.5957,-38.7343 56.0311,-12.5135 119.9629,-31.3864 145.6562,-43.6895 23.1751,-11.097 59.4671,-26.6626 79.7266,-34.2148 22.3572,-8.3344 35.421,-12.6964 42.7695,-23.4551 3.6742,-5.3794 4.139,-12.731 2.2559,-18.5645 -1.8832,-5.8335 -5.2742,-11.0661 -9.6485,-17.2617 -5.994,-8.4898 -15.0018,-14.6841 -27.5429,-17.9687 -12.5412,-3.2846 -28.9063,-4.5224 -53.2032,-5.1231 -32.6033,-0.8061 -107.5629,-8.0845 -164.9531,-16.123 -57.7707,-8.092 -143.9706,-19.5788 -191.7207,-25.5489 -47.6588,-5.9588 -113.6425,-14.2378 -146.6172,-18.3964 -62.1813,-7.8422 -457.7653,-76.4542 -572.1172,-99.3262 -40.8147,-8.1636 -71.2488,-19.763 -84.9355,-29.459 -6.8434,-4.848 -8.0686,-8.5838 -8.0684,-8.5898 1e-4,0 -0.2115,-0.093 0.9278,-1.1993 1.1392,-1.1067 3.672,-2.8048 7.705,-4.4277 4.3281,-1.7416 15.0043,-3.9484 27.1172,-5.1836 12.113,-1.2352 26.0118,-1.7458 38.377,-1.2324 69.4381,2.8829 243.1695,-17.354 344.1562,-39.6016 46.8149,-10.3135 112.5425,-23.1774 145.3731,-28.4687 61.7671,-9.9552 132.7506,-23.5387 188.8105,-35.5645 28.03,-6.0129 52.3095,-11.6291 69.9453,-16.2441 8.8179,-2.3075 15.9502,-4.3519 21.2539,-6.1524 2.6519,-0.9002 4.8218,-1.7166 6.7579,-2.6367 0.968,-0.46 1.8746,-0.9264 2.9199,-1.6543 0.6531,-0.4547 1.4766,-1.1411 2.3301,-2.1777 0.1321,-0.088 0.1629,-0.1176 0.5078,-0.3164 1.1195,-0.6453 3.1488,-1.6611 5.7793,-2.8418 5.2608,-2.3615 13.0017,-5.4583 22.4531,-8.9707 18.9027,-7.0249 44.7269,-15.7663 72.7187,-24.4531 92.6722,-28.759 178.6622,-61.3099 271.6192,-102.8125 8.1404,-3.6345 14.3841,-6.4132 19.4551,-9.3926 5.0709,-2.9794 9.6554,-6.4875 11.8164,-12.2813 2.161,-5.7938 0.8039,-11.6667 -1.3555,-16.8906 -2.1594,-5.2239 -5.3472,-10.7309 -9.4649,-17.8926 -7.0822,-12.3175 -16.0136,-22.2238 -29.2109,-30.584 -13.1973,-8.3601 -30.4387,-15.4442 -55.4551,-23.9824 -35.6055,-12.1524 -80.1925,-21.7031 -103.9355,-21.1738 -49.5479,1.1048 -281.5506,-26.0087 -344.1992,-40.5801 -13.3273,-3.0998 -23.3029,-5.4652 -30.2207,-7.5488 -6.9179,-2.0836 -10.5785,-4.1566 -11.2403,-4.7774 -0.6617,-0.6208 -0.3474,0.9655 0.07,-1.3281 0.4178,-2.2936 2.2837,-7.1494 5.1661,-13.7969 2.77,-6.3881 7.2797,-13.1402 12.0214,-18.332 4.7417,-5.1918 10.0347,-8.6641 12.1778,-9.3144 22.7544,-6.9048 53.613,-25.5635 113.4433,-66.9512 22.2863,-15.4164 61.4739,-40.2661 86.3731,-54.7656 25.4418,-14.8158 51.373,-31.1068 60.7461,-38.8418 18.9081,-15.6036 85.2284,-71.4844 141.3594,-119.1036 13.0656,-11.0844 25.8155,-23.2786 36.0156,-34.1835 10.2,-10.905 17.6521,-19.4856 21.1992,-27.6661 1.2778,-2.9467 7.6623,-12.3265 16.1016,-22.33 8.4392,-10.0036 19.0889,-21.3724 29.707,-31.4649 26.8115,-25.4846 58.0737,-71.7842 90.7734,-129.1758 32.6997,-57.3915 66.4966,-125.7223 96.7246,-194.3222 30.228,-68.6 56.8763,-137.4357 75.2246,-195.92 18.3483,-58.4842 28.8596,-105.7554 25.1797,-135.3886 -1.615,-13.0052 -1.8823,-28.0007 -0.9765,-41.2637 0.9057,-13.263 3.2437,-25.0926 5.5195,-30.3711 8.1167,-18.8218 9.0715,-51.8775 7.2461,-88.2402 -1.8254,-36.3628 -7.191,-74.5844 -16.1387,-99.9297 -2.7619,-7.8235 -4.6911,-16.6833 -5.4785,-24.1817 -0.7874,-7.4983 0.1559,-14.0821 0.4688,-14.8066 1.4276,-3.3062 1.3741,-5.6074 1.3808,-8.3535 0.01,-2.7461 -0.2279,-5.7771 -0.6406,-9.2402 -0.8254,-6.9263 -2.3919,-15.5308 -4.5684,-25.4688 -4.3529,-19.876 -11.1575,-45.0003 -19.4277,-70.8809 -16.3842,-51.2717 -38.778,-121.1972 -49.7676,-155.4101 -5.9967,-18.6687 -23.0938,-55.5602 -46.3711,-102.0567 -23.2772,-46.4964 -52.5874,-101.976 -82.373,-155.33 -29.6659,-53.1398 -56.1234,-102.6607 -74.7969,-139.5235 -9.3367,-18.4314 -16.7353,-33.7176 -21.5625,-44.5742 -2.3837,-5.3611 -4.117,-9.6195 -5.123,-12.4805 1.202,-0.274 2.8971,-0.5354 5.6718,-0.498 7.863,0.1059 21.6811,2.4254 42.3809,7.7617 41.3995,10.6727 110.7327,33.0961 223.5762,71.3242 157.6902,53.4211 248.4047,89.9145 375.9589,151.2344 209.1262,100.5346 278.947,145.3759 306.9981,191.7871 11.5836,19.1651 18.115,30.5526 30.207,37.0137 12.0921,6.461 25.7554,6.0949 50.0918,6.1269 15.0901,0.02 27.5875,-1.1611 38.041,-4.3125 10.4535,-3.1513 19.1261,-8.6212 24.5215,-16.8496 10.7908,-16.4567 7.6479,-38.895 -2.4101,-69.3437 -21.1783,-64.1152 -31.1396,-84.9681 -88.0274,-183.8887 v 0 c -91.0937,-158.3985 -124.9721,-196.4915 -353.1035,-396.1172 -24.5342,-21.4686 -48.2378,-41.504 -66.7422,-56.5508 -9.2522,-7.5233 -17.196,-13.7938 -23.3653,-18.4218 -3.0846,-2.314 -5.719,-4.2144 -7.9336,-5.7012 -2.2146,-1.4868 -3.5376,-2.4935 -6.205,-3.4883 -3.3618,-1.2538 -17.6701,-11.1001 -26.1875,-19.7363 v 0 c -38.0638,-38.5962 -117.6924,-91.2937 -190.4922,-126.8418 -41.0568,-20.048 -133.7361,-69.1883 -205.2715,-108.8671 -72.157,-40.0234 -205.1697,-104.9839 -296.5293,-144.8438 -45.4569,-19.8329 -88.2829,-38.9717 -120.6133,-53.8066 -16.1652,-7.4175 -29.7114,-13.7618 -39.6074,-18.5567 -4.948,-2.3974 -8.9885,-4.4108 -11.9356,-5.9472 -2.947,-1.5365 -5.1468,-2.9186 -4.8554,-2.7032 -5.1378,-3.7985 -6.8255,-6.3846 -7.416,-7.2304 0.3603,-0.3035 0.4454,-0.4869 1.5957,-1.0586 7.2486,-3.6025 29.0154,-7.0496 59.3281,-7.545 60.6253,-0.9907 157.7561,6.8541 271.6738,21.2559 227.8353,28.8036 523.5086,83.7742 735.5606,145.6035 61.3184,17.879 98.7548,27.1745 124.1953,27.5508 12.7202,0.1882 22.9846,-1.9843 30.8789,-7.6738 7.8943,-5.6895 12.3089,-14.3057 14.8906,-23.834 3.5922,-13.2575 1.59,-27.316 -9.1797,-42.6172 -10.7697,-15.3012 -29.568,-33.7295 -61.4062,-62.9746 -97.6071,-89.6573 -305.7164,-219.1511 -472.375,-294.46679 C 6849.8033,862.36664 6395.4297,691.96749 6241.1445,648.51953 6169.5914,628.36928 6032.7627,587.82561 5937.3496,558.5 l -169.7383,-52.16992 -26.75,-59.04688 C 5642.9029,231.0457 5517.5261,122.05939 5308.5215,71.992188 5251.0431,58.22323 5193.3515,51.281914 5137.0645,50.716797 Z m -0.029,18.15625 c 54.8437,0.505053 111.1318,7.225188 167.2812,20.675781 204.8986,49.083592 323.5618,152.083992 420.0996,365.185552 l 30.1094,66.46289 177.5195,54.56054 c 95.5794,29.37672 232.3509,69.90365 304.2051,90.13867 151.3004,42.60743 607.8447,213.70175 792.0117,296.92969 164.698,74.42963 373.0687,204.48063 467.5977,291.31053 31.6339,29.0575 49.9444,47.4117 58.8554,60.0723 8.9111,12.6606 9.162,17.7427 6.5176,27.5019 -1.9862,7.3305 -4.4072,11.3067 -8.0195,13.9102 -3.6124,2.6035 -9.5263,4.4233 -20.0567,4.2676 -21.0607,-0.3116 -58.4184,-9.047 -119.4082,-26.8301 -213.6172,-62.2857 -509.6094,-117.2656 -738.3496,-146.1836 -114.37,-14.459 -211.7538,-22.4176 -274.2343,-21.3965 -31.2403,0.5106 -53.1732,2.5239 -67.0684,9.4297 -3.4738,1.7265 -6.6274,3.8695 -9.043,7.168 -2.4156,3.2985 -3.6412,8.0211 -2.9531,12.1953 1.3762,8.3484 7.1569,13.7259 15.1172,19.6113 2.1206,1.5678 4.0358,2.5226 7.2441,4.1953 3.2084,1.6728 7.3635,3.7413 12.4082,6.1856 10.0896,4.8886 23.7145,11.2684 39.9512,18.7187 32.4735,14.9006 75.3746,34.0721 120.9238,53.9453 90.6528,39.5515 223.8232,104.6078 294.9903,144.0821 71.7884,39.8191 164.231,88.8545 206.1074,109.3027 71.0908,34.7136 150.6669,87.9152 185.5586,123.2949 10.1302,10.2716 22.3361,20.0966 32.7344,23.9746 -0.9475,-0.3533 0.661,0.3607 2.4511,1.5625 1.7901,1.2018 4.2348,2.9563 7.1621,5.1524 5.8548,4.392 13.6722,10.559 22.8086,17.9883 18.273,14.8585 41.8582,34.7899 66.2442,56.1289 227.9528,199.4693 258.5748,233.7027 349.3418,391.5332 56.8024,98.772 65.5132,116.9011 86.5371,180.5488 9.5055,28.776 9.7516,45.7007 4.4531,53.7812 -2.6492,4.0403 -6.89,7.1307 -14.6328,9.4649 -7.7428,2.3341 -18.7231,3.5615 -32.8066,3.543 -24.2815,-0.032 -35.3449,-0.6499 -41.6075,-3.9961 -6.2625,-3.3462 -11.7136,-11.3202 -23.2636,-30.4297 -32.1084,-53.1242 -105.0578,-97.9712 -314.627,-198.7188 -128.0481,-61.5573 -219.9225,-98.5142 -377.9883,-152.0625 -112.938,-38.2601 -182.2742,-60.7277 -224.8632,-71.707 -21.2946,-5.4897 -35.8003,-8.186 -46.6446,-8.332 -5.4221,-0.073 -10.0388,0.4458 -14.2988,2.2382 -4.2592,1.7921 -8.0284,5.3881 -9.7813,9.4766 -1.9878,4.6347 -0.7931,5.8677 -0.4414,7.5254 0.3517,1.6577 0.852,3.2551 1.5,5.1094 1.2961,3.7086 3.2091,8.338 5.7344,14.0175 5.0506,11.3591 12.534,26.8083 21.9512,45.3985 18.8343,37.1803 45.3749,86.8455 75.1406,140.1641 29.6463,53.1044 58.8575,108.3996 81.9922,154.6113 23.1347,46.2116 40.3385,83.9627 45.3281,99.4961 10.9829,34.1919 33.3766,104.1225 49.7578,155.3847 v 0 c 8.1123,25.3866 14.8016,50.1114 18.9922,69.2461 2.0952,9.5674 3.5622,17.7584 4.2754,23.7422 0.3565,2.9919 0.5176,5.4438 0.5136,7.0625 0,1.6187 -0.4729,2.5641 0.1,1.2383 -3.1072,7.1965 -2.797,14.8276 -1.8496,23.8496 0.9474,9.022 3.1198,18.9881 6.4102,28.3086 7.7562,21.9704 13.3657,59.6607 15.1308,94.8223 1.7652,35.1615 -1.0726,69.2415 -5.7929,80.1875 v 0 c -3.9968,9.2701 -5.9675,21.8877 -6.9512,36.291 -0.9836,14.4033 -0.7207,30.2941 1.0704,44.7168 2.797,22.524 -6.424,70.1805 -24.4883,127.7597 -18.0644,57.5792 -44.5086,125.942 -74.5176,194.045 -30.009,68.103 -63.596,135.9799 -95.8926,192.664 -32.2966,56.6841 -63.6444,102.3302 -87.5234,125.0274 -11.1507,10.5988 -22.1557,22.3431 -31.0703,32.9101 -8.9146,10.5671 -15.5817,19.2147 -18.8653,26.7871 -1.0142,2.3391 -8.1654,12.1936 -17.8203,22.5157 -9.6548,10.322 -22.0121,22.1474 -34.5097,32.75 -56.0945,47.5882 -122.6013,103.6218 -141.17,118.9453 v 0 c -5.7019,4.7056 -33.3594,22.6171 -58.3398,37.1641 -25.5232,14.8629 -64.6045,39.6411 -87.5586,55.5195 -59.4875,41.1505 -90.2568,59.0126 -108.418,64.5235 -7.7893,2.3636 -14.1814,7.7544 -20.2636,14.414 -6.0822,6.6596 -11.5357,14.7468 -15.2559,23.3262 -2.9197,6.7335 -5.3169,11.9973 -6.3633,17.7422 -1.0463,5.7449 0.604,13.2894 5.3379,17.7305 4.734,4.441 10.5274,6.5312 18.3867,8.8984 7.8594,2.3672 17.9847,4.7399 31.3379,7.8457 67.1412,15.6163 291.9052,42.3131 348.6914,41.0469 17.7606,-0.396 63.9109,8.6761 97.7012,20.209 24.5,8.3619 40.5941,15.1605 51.625,22.1484 11.0309,6.9878 17.2191,13.8939 23.2207,24.332 4.0934,7.1195 7.0347,12.405 8.4336,15.7891 1.3989,3.384 1.0304,3.934 1.123,3.6855 0.093,-0.2485 -0.4491,0.9096 -4.0468,3.0235 -3.5978,2.1138 -9.5656,4.8552 -17.668,8.4726 -92.3818,41.2458 -177.6021,73.5034 -269.6113,102.0567 -28.2632,8.771 -54.3067,17.5805 -73.6563,24.7714 -9.6747,3.5955 -17.6565,6.7746 -23.5586,9.4239 -2.951,1.3246 -5.362,2.4969 -7.4004,3.6719 -1.0191,0.5874 -1.9405,1.1584 -2.9316,1.9335 -0.5436,0.4252 -1.1772,0.9042 -1.8496,1.6602 -0.8707,0.3987 -2.3847,1.0103 -4.5235,1.7363 -4.5525,1.5455 -11.4323,3.5336 -20.0214,5.7813 -17.1783,4.4953 -41.2955,10.0812 -69.1602,16.0586 -55.7294,11.9548 -126.5319,25.5023 -187.8965,35.3926 -33.6234,5.419 -99.1865,18.2641 -146.3847,28.6621 -98.9261,21.7936 -274.9977,41.8722 -339.5215,39.1933 -13.4065,-0.5566 -27.973,-0.014 -40.959,1.3106 -12.986,1.3242 -24.0418,3.1828 -32.0234,6.3945 -5.4699,2.201 -9.9733,4.755 -13.5469,8.2266 -3.5737,3.4715 -6.1764,8.2842 -6.3867,13.4101 -0.4208,10.2518 6.6506,17.6731 15.6699,24.0625 18.0385,12.7789 49.5955,23.9817 91.832,32.4297 115.3801,23.0776 507.7779,91.2591 573.4004,99.5352 32.9899,4.1605 98.9708,12.4387 146.6367,18.3984 47.5749,5.9481 133.8032,17.4403 191.4551,25.5156 58.0322,8.1285 132.4581,15.4367 167.0117,16.291 23.8355,0.5893 39.323,1.9852 49.0742,4.5391 9.7512,2.5539 13.4745,5.4017 17.3692,10.918 4.0114,5.6816 6.4524,10.0268 7.2168,12.3945 0.7643,2.3677 0.6933,1.8418 0.016,2.834 -1.3554,1.9843 -12.2573,8.5528 -34.168,16.7207 -21.2335,7.9153 -57.3656,23.4288 -81.2168,34.8496 -21.3326,10.2151 -86.754,30.0612 -141.7949,42.3535 -55.6766,12.4344 -127.5868,29.88 -160.4629,38.9492 -70.4481,19.4336 -329.6747,66.9842 -414.3222,75.9141 -36.2551,3.8246 -111.5169,21.4792 -169.9766,39.5469 -34.4591,10.6498 -62.8826,17.8001 -84.5938,21.4004 -21.7111,3.6002 -36.9938,3.0941 -42.9335,0.8789 -5.8149,-2.1687 -12.8869,-2.9942 -22.377,-3.666 -9.4901,-0.6719 -21.0657,-0.9266 -34.0957,-0.7969 -26.0601,0.2594 -57.8935,2.0633 -89.4922,5.3535 -307.3864,32.0061 -666.6432,25.9921 -873.9238,-14.2285 -31.9909,-6.2075 -104.5426,-28.7002 -195.6406,-59.7754 -91.098,-31.0752 -201.2891,-70.7939 -310.793,-111.7617 -109.504,-40.9679 -218.3346,-83.1902 -306.7149,-119.2618 -88.3803,-36.0715 -156.8256,-66.3556 -183.4316,-82.0312 -129.5444,-76.3238 -298.9776,-191.7879 -456.9238,-311.4277 -67.527,-51.15 -285.2381,-243.2815 -339.5,-299.5547 -13.4618,-13.9609 -57.2833,-58.541 -97.6074,-99.3008 -356.004,-359.852 -517.4479,-564.4845 -667.3399,-845.5254 -166.4065,-312.0047 -232.0034,-471.2395 -283.1523,-686.9512 -23.0478,-97.199 -34.4316,-289.7888 -22.9805,-388.6699 6.3609,-54.932 12.2846,-113.8126 13.2422,-132.543 4.3612,-85.3376 43.9826,-207.6688 141.039,-431.0898 96.1413,-221.3128 110.8821,-248.7337 197.834,-367.1406 201.0418,-273.76711 408.5178,-451.7461 636.2754,-546.81057 485.9087,-202.81411 1076.5163,-288.74542 1729.0801,-251.17774 45.3553,2.61098 87.8804,4.27591 119.9727,4.85547 16.0461,0.28979 29.4692,0.31093 39.4492,0.0332 4.9899,-0.13887 9.1041,-0.34734 12.4023,-0.66211 3.2982,-0.31478 4.7752,0.24493 9.1367,-2.125 3.4519,-1.8757 5.7283,-4.16724 8.711,-7.23047 2.9826,-3.06324 6.2819,-6.84209 9.8144,-11.18164 7.0651,-8.6791 15.0247,-19.57453 22.3692,-30.83203 87.0095,-133.3668 264.4672,-210.846734 460.3379,-209.042973 z M 6692.9414,1967.3418 c 0.087,-0.012 0.056,0.351 0.055,0.7031 -0.028,-0.1102 -0.1417,-0.4451 -0.1563,-0.5137 -0.02,-0.097 0.034,-0.1796 0.1016,-0.1894 z m -341.5762,2430.6816 c -0.4995,0.6078 -1.007,1.2466 -1.5429,2.4825 0.5907,-1.3624 1.1238,-2.0782 1.5429,-2.4825 z m 15.0215,9.6641 c -0.7708,1.7778 -1.2334,2.1969 -1.5293,2.375 0.5082,-0.6207 1.0223,-1.2057 1.5293,-2.375 z" id="path852"/>
</g>
    <g><metadata xmlns:rdf="http://www.w3.org/1999/02/22-rdf-syntax-ns#" xmlns:cc="http://creativecommons.org/ns#" xmlns:dc="http://purl.org/dc/elements/1.1/" id="metadata37">
    <rdf:RDF>
      <cc:Work rdf:about="">
        <dc:format>image/svg+xml</dc:format>
        <dc:type rdf:resource="http://purl.org/dc/dcmitype/StillImage"/>
      </cc:Work>
    </rdf:RDF>
  </metadata>
  <sodipodi:namedview xmlns:sodipodi="http://sodipodi.sourceforge.net/DTD/sodipodi-0.dtd" xmlns:inkscape="http://www.inkscape.org/namespaces/inkscape" pagecolor="#ffffff" bordercolor="#666666" borderopacity="1" objecttolerance="10" gridtolerance="10" guidetolerance="10" inkscape:pageopacity="0" inkscape:pageshadow="2" inkscape:window-width="1920" inkscape:window-height="1017" id="namedview35" showgrid="false" inkscape:zoom="0.13316294" inkscape:cx="3912.5" inkscape:cy="2570" inkscape:window-x="-8" inkscape:window-y="-8" inkscape:window-maximized="1" inkscape:current-layer="svg33"/>
  <path d="m 5810,3350 -40,-30 -5,-40 -15,-40 -25,-60 -30,-65 -60,-115 -35,-70 -55,-95 -5,-10 -25,-40 q -90,-140 -135,-140 h -30 l -15,-20 -40,10 -15,205 -20,15 -25,225 q 0,350 210,1100 l 205,685 v 10 q 340,50 610,175 l -55,45 -40,15 -920,-40 -115,-10 h -10 l -535,-30 h -50 l -325,-15 -395,5 -295,-15 -340,15 v -5 l -170,-20 -75,5 -290,10 -840,75 h -20 -100 l -300,-5 h -90 l -65,5 -125,-125 -5,-10 -70,-125 -90,-160 -180,-310 -85,-155 5,-5 -5,-5 5,-5 -35,-5 -45,-5 -160,25 -30,-5 h -40 l -55,-95 -50,-100 -50,-80 -50,-100 v -10 L 40,3380 0,3200 5,3190 v -5 l 90,-150 115,-170 55,-100 5,-10 50,-85 v -105 -10 -10 -30 l -5,-220 v -115 l -5,-70 10,-10 v -5 l 120,-160 210,-280 5,-10 60,-95 90,-25 10,-5 40,-5 1410,-85 h -5 15 l -25,10 85,50 85,15 630,-80 65,-10 h 70 l 120,-10 135,-10 100,-10 20,-5 65,-20 300,-40 45,-5 690,-100 410,-30 h 85 l 225,-5 570,85 100,75 q 165,145 315,440 240,465 240,700 0,145 -15,265 l -30,190 q -20,30 -90,30 l -555,165 -115,30 175,245 110,90 60,50 250,135 260,125 -300,-75 -130,-55 -145,-140 h -5 l -95,-80 -130,-80 -40,-25 m -3160,-1440 15,-40 5,-15 h 5 l 45,-70 25,-30 160,-225 -175,10 -230,60 q -135,20 -210,0 l -95,20 -435,35 -200,15 -220,10 -5,5 -425,35 -55,-5 -145,190 -35,50 -70,95 -65,80 20,70 5,10 v 35 l 5,55 v 40 l 5,105 30,340 q 25,130 145,145 l 180,-5 120,5 h 230 l 385,-20 855,-80 v -40 l 30,-10 10,-10 5,-40 -5,-215 v -110 l 15,-35 45,-255 5,-45 20,-105 -20,15 v -5 l 25,-65 M 1125,2995 h -70 l -510,30 -45,-175 -10,20 -120,180 -15,20 -75,115 -25,35 70,175 10,35 95,315 45,115 35,50 q 55,80 150,90 l 205,10 265,5 h 105 l 275,-5 h 165 l 855,-60 140,-10 20,-120 q 0,-145 -70,-380 l -30,-100 -15,-160 -20,-140 85,-95 -15,-25 -30,-5 -5,-20 -390,55 -920,35 -155,10 m 1895,-1090 5,-45 10,-10 v -25 l 15,-105 20,-80 15,-85 60,-20 -135,-20 h -30 l -35,45 -10,10 -80,80 -80,120 -20,25 -50,100 -20,25 -15,10 -20,165 h 5 l -45,295 -5,25 -10,130 -5,265 5,-5 80,-10 10,20 h 15 l 125,-10 120,-15 65,-10 h 155 20 l 35,-5 110,-10 110,15 120,15 70,10 -70,-60 -65,-90 -55,-50 -220,-205 v -35 l -35,-25 -105,-90 -55,-45 -5,-95 -5,-5 v -5 -45 l 5,-150 m -205,990 h -10 l -110,25 h 5 l -80,80 -5,30 -15,5 5,20 80,465 q 30,220 80,300 l 15,70 v 20 h 5 l 5,20 h 25 l 130,-10 65,-5 70,5 h 105 l 35,-5 220,-5 h 120 90 l 660,-25 285,-60 25,-10 v -30 l 25,-45 5,-50 -5,-30 -5,-55 v 5 -155 l -10,-45 v -25 -10 l -10,-85 -5,-280 -20,-10 v -10 q 0,-65 -65,-65 l -55,5 -20,-25 -195,-5 -75,5 -280,-30 h -10 l -120,-5 -55,5 -10,-10 -150,-5 -120,-5 h -220 l -35,5 h -175 l -65,15 -130,20 M 5480,1885 q -40,-75 -145,-170 l -80,-70 -170,-125 -280,-185 -65,-35 -200,30 -680,105 -65,15 -30,15 -160,10 -10,5 -35,5 -120,25 -220,50 v 10 h -15 l -20,5 -5,20 -10,5 5,-10 -20,40 v 5 20 l -15,60 -15,135 q -10,195 20,260 l 15,15 v 10 l 25,45 20,20 15,20 v 40 l 35,40 175,205 10,5 120,120 40,40 q 105,65 160,80 l 25,5 165,-15 220,-35 345,-70 85,-20 85,-20 530,-125 70,-20 85,-15 15,-5 h 5 l 20,-25 v -30 q 105,-70 105,-305 l -20,-85 v -40 -15 l -15,-45 m 875,-60 -105,-150 q -195,-270 -360,-360 l -120,-45 h -15 l -25,-20 -360,45 -245,20 -190,-10 q -5,50 85,105 l 40,20 70,55 45,35 5,5 95,100 75,80 165,145 35,30 30,25 v 10 l -5,105 q -15,165 -70,325 l -10,55 v -35 l -10,140 v 5 l 15,20 15,50 30,45 20,30 10,40 -25,-30 25,40 35,55 55,125 30,75 35,95 40,55 85,-20 180,-35 335,-90 q 100,0 145,-60 45,-220 45,-425 0,-240 -120,-495 l -75,-140 -10,-20 M 4095,2835 h -20 l 110,-15 80,15 145,5 15,10 180,-20 5,-20 h -15 v -15 q 0,-50 -20,-40 l -90,15 v -10 l -190,45 -155,20 -45,10 m 1265,1240 -55,-230 Q 5185,3350 5205,2830 l 20,-15 10,-180 -30,-5 -525,90 v 5 l -20,10 q -20,75 0,140 l -80,25 5,5 65,25 v 380 l 10,75 10,125 15,160 5,75 20,70 v 25 l -20,5 v 15 h -10 -10 l -100,20 5,5 h -10 l -15,5 h -10 -10 l 55,10 v 5 l 95,10 45,55 50,110 75,180 40,70 170,360 q 25,75 190,85 95,10 125,70 h 40 l 65,-5 v -50 h 5 l 50,-10 10,-10 -180,-675 v -10 l -5,-10 m 1025,-1150 5,5 -5,-5 h -5 5 M 920,4190 v 10 l -5,5 -5,10 130,165 5,15 225,370 5,5 q 65,85 175,105 l 25,5 190,-5 40,5 545,-35 595,-35 100,-10 65,-5 110,5 25,5 h 75 v -30 h 15 v -10 l -10,-40 v -5 l -5,-10 v -55 l 20,40 15,35 30,70 h 55 115 l 780,45 385,-5 305,-5 q 70,-20 90,-50 l 5,-30 -45,-145 -90,-210 -80,-180 -110,-125 -50,-55 -35,-30 -30,-20 -75,-30 -105,-20 -70,10 -50,5 -410,20 h -310 -120 l -220,5 v -5 l -35,5 -160,-5 v 10 l -15,20 -5,5 150,410 20,65 10,30 25,45 10,25 v 60 l -30,-45 v -5 l -5,-5 -5,-15 -55,-105 -15,-35 v -35 l -10,-20 -55,-160 -30,-115 -5,-5 -10,-25 -5,-35 -15,5 -25,-55 h -10 l -165,20 h -25 l -15,10 -40,-5 -75,5 h -50 l -530,45 -175,20 h -30 l -160,5 -50,-5 h -5 l -70,5 -290,5 -315,10 -30,85" fill="#000000" fill-rule="evenodd" stroke="none" id="path18" style="stroke-width:100"/>
  <path d="m 605,2050 70,-95 35,-50 145,-190 55,5 425,-35 5,-5 220,-10 200,-15 435,-35 95,-20 q 75,20 210,0 l 230,-60 175,-10 -160,225 -25,30 -45,70 h -5 l -5,15 -15,40 -1080,75 -965,65 m -325,1135 75,-115 15,-20 120,-180 10,-20 45,175 510,-30 h 70 55 l 180,130 -765,40 -315,20 m 2405,-1265 20,-25 50,-100 20,-25 80,-120 80,-80 10,-10 35,-45 h 30 l 135,20 -60,20 -15,85 -20,80 -15,105 v 25 l -10,10 -5,45 v -20 h -10 l -65,5 -260,30 m 1075,830 q -55,-15 -160,-80 l -40,-40 -120,-120 -10,-5 -175,-205 -35,-40 v -40 l -15,-20 -20,-20 -25,-45 v -10 l -15,-15 q -30,-65 -20,-260 l 15,-135 15,-60 v -20 -5 l 20,-40 -5,10 10,-5 5,-20 20,-5 h 15 v -10 l 220,-50 120,-25 35,-5 10,-5 160,-10 30,-15 65,-15 680,-105 200,-30 65,35 280,185 170,125 80,70 q 105,95 145,170 l -5,-5 -360,90 q -970,245 -1180,245 l -65,-10 h -55 l -15,55 q 25,50 -35,325 l -5,165 m 1790,-870 -35,-30 -165,-145 -75,-80 -95,-100 -5,-5 -45,-35 -70,-55 -40,-20 q -90,-55 -85,-105 l 190,10 245,-20 360,-45 25,20 h 15 l 120,45 q 165,90 360,360 l 105,150 -305,-35 q -245,0 -500,90 m -3925,2205 -705,105 30,-85 315,-10 290,-5 70,-5" fill="#cf0e48" fill-rule="evenodd" stroke="none" id="path20" style="stroke-width:100"/>
  <path d="m 6225,3675 350,370 -15,15 -480,-360 q -380,-300 -435,-300 l -45,30 -50,30 q -95,0 -35,-95 55,-85 135,-95 h 10 l 30,5 20,5 100,70 40,25 130,80 95,80 h 5 l 145,140 M 605,2050 l 965,-65 1080,-75 -25,65 v 5 l 20,-15 -20,105 -5,45 -45,255 -15,35 v 110 l 5,215 -5,40 -10,10 -30,10 v 40 l -855,80 -385,20 h -230 l -120,-5 -180,5 Q 630,2915 605,2785 l -30,-340 -5,-105 v -40 l -5,-55 v -35 l -5,-10 -20,-70 65,-80 m 520,945 155,-10 920,-35 390,-55 5,20 30,5 15,25 -85,95 20,140 15,160 30,100 q 70,235 70,380 l -20,120 -140,10 -855,60 h -165 l -275,5 h -105 l -265,-5 -205,-10 q -95,-10 -150,-90 l -35,-50 -45,-115 -95,-315 -10,-35 -70,-175 25,-35 315,-20 765,-40 -180,-130 h -55 m 1895,-1090 -5,150 v 45 5 l 5,5 5,95 55,45 105,90 35,25 v 35 l 220,205 55,50 65,90 70,60 -70,-10 -120,-15 -110,-15 -110,10 -35,5 h -20 -155 l -65,10 -120,15 -125,10 h -15 l -10,-20 -80,10 -5,5 5,-265 10,-130 5,-25 45,-295 h -5 l 20,-165 15,-10 260,-30 65,-5 h 10 v 20 m -205,990 130,-20 65,-15 h 175 l 35,-5 h 220 l 120,5 150,5 10,10 55,-5 120,5 h 10 l 280,30 75,-5 195,5 20,25 55,-5 q 65,0 65,65 v 10 l 20,10 5,280 10,85 v 10 25 l 10,45 v 155 -5 l 5,55 5,30 -5,50 -25,45 v 30 l -25,10 -285,60 -660,25 h -90 -120 l -220,5 -35,5 h -105 l -70,-5 -65,5 -130,10 h -25 l -5,-20 h -5 v -20 l -15,-70 q -50,-80 -80,-300 l -80,-465 -5,-20 15,-5 5,-30 80,-80 h -5 l 110,-25 h 10 m 2665,-1010 15,45 v 15 40 l 20,85 q 0,235 -105,305 v 30 l -20,25 h -5 l -15,5 -85,15 -70,20 -530,125 -85,20 -85,20 -345,70 -220,35 -165,15 -25,-5 5,-165 q 60,-275 35,-325 l 15,-55 h 55 l 65,10 q 210,0 1180,-245 l 360,-90 5,5 m 70,-5 q 255,-90 500,-90 l 305,35 10,20 75,140 q 120,255 120,495 0,205 -45,425 -45,60 -145,60 l -335,90 -180,35 -85,20 -40,-55 -35,-95 -30,-75 -55,-125 -35,-55 -25,-40 25,30 -10,-40 -20,-30 -30,-45 -15,-50 -15,-20 v -5 l 10,-140 v 35 l 10,-55 q 55,-160 70,-325 l 5,-105 v -10 l -30,-25 m -1455,955 45,-10 155,-20 190,-45 v 10 l 90,-15 q 20,-10 20,40 v 15 h 15 l -5,20 -180,20 -15,-10 -145,-5 -80,-15 -110,15 h 20 m 1385,1955 q -115,0 -110,-60 l 25,-100 q 0,-150 -130,-520 -130,-370 -130,-540 l 15,-40 q 110,215 210,545 l 5,10 v 10 l 180,675 -10,10 -50,10 h -5 m 905,-1865 h -5 5 l 5,5 -5,-5 M 1625,4085 h 5 l 50,5 160,-5 h 30 l 175,-20 530,-45 h 50 l 75,-5 40,5 15,-10 h 25 l 165,-20 h 10 l 25,55 15,-5 5,35 10,25 5,5 30,115 55,160 10,20 v 35 l 15,35 55,105 5,15 5,5 v 5 l 30,45 v -60 l -10,-25 -25,-45 -10,-30 -20,-65 -150,-410 5,-5 15,-20 v -10 l 160,5 35,-5 v 5 l 220,-5 h 120 310 l 410,-20 50,-5 70,-10 105,20 75,30 30,20 35,30 50,55 110,125 80,180 90,210 45,145 -5,30 q -20,30 -90,50 l -305,5 -385,5 -780,-45 h -115 -55 l -30,-70 -15,-35 -20,-40 v 55 l 5,10 v 5 l 10,40 v 10 h -15 v 30 h -75 l -25,-5 -110,-5 -65,5 -100,10 -595,35 -545,35 -40,-5 -190,5 -25,-5 q -110,-20 -175,-105 l -5,-5 -225,-370 -5,-15 -130,-165 5,-10 5,-5 v -10 l 705,-105" fill="#761432" fill-rule="evenodd" stroke="none" id="path22" style="stroke-width:100"/>
  <defs id="defs31">
    <linearGradient gradientTransform="matrix(0.94,-3.38,1.47,0.41,4665,-8650)" gradientUnits="userSpaceOnUse" id="gradient0" spreadMethod="pad" x1="-819.2" x2="819.2">
      <stop offset="0.0" stop-color="#635b58" id="stop26"/>
      <stop offset="1.0" stop-color="#d3cebc" id="stop28"/>
    </linearGradient>
  </defs>
</g>
  </g>
</svg>
