<?xml version='1.0' encoding='ASCII' standalone='yes'?>
<svg xmlns="http://www.w3.org/2000/svg" xmlns:xlink="http://www.w3.org/1999/xlink" version="1.1" width="5880.0px" height="6335.0px">
  <g>
    <g transform="translate( -2120,  20) scale(1.0 1.0)  rotate(0.000000 0.000000 0.000000)"><metadata xmlns:rdf="http://www.w3.org/1999/02/22-rdf-syntax-ns#" xmlns:cc="http://creativecommons.org/ns#" xmlns:dc="http://purl.org/dc/elements/1.1/" id="metadata37">
    <rdf:RDF>
      <cc:Work rdf:about="">
        <dc:format>image/svg+xml</dc:format>
        <dc:type rdf:resource="http://purl.org/dc/dcmitype/StillImage"/>
        <dc:title/>
      </cc:Work>
    </rdf:RDF>
  </metadata>
  <sodipodi:namedview xmlns:sodipodi="http://sodipodi.sourceforge.net/DTD/sodipodi-0.dtd" xmlns:inkscape="http://www.inkscape.org/namespaces/inkscape" pagecolor="#ffffff" bordercolor="#666666" borderopacity="1" objecttolerance="10" gridtolerance="10" guidetolerance="10" inkscape:pageopacity="0" inkscape:pageshadow="2" inkscape:window-width="1920" inkscape:window-height="1017" id="namedview35" showgrid="false" inkscape:zoom="0.07195364" inkscape:cx="4618.8551" inkscape:cy="5092.0724" inkscape:window-x="-8" inkscape:window-y="-8" inkscape:window-maximized="1" inkscape:current-layer="svg33" inkscape:document-rotation="0"/>
  <defs id="defs31">
    <linearGradient gradientTransform="matrix(0.94,-3.38,1.47,0.41,-690,-6670)" gradientUnits="userSpaceOnUse" id="gradient0" spreadMethod="pad" x1="-819.20001" x2="819.20001">
      <stop offset="0.0" stop-color="#635b58" id="stop26"/>
      <stop offset="1.0" stop-color="#d3cebc" id="stop28"/>
    </linearGradient>
    <linearGradient gradientTransform="matrix(0.9399043,-3.3796559,1.4698503,0.40995826,-7059.505,-5689.3312)" gradientUnits="userSpaceOnUse" id="gradient0-5" spreadMethod="pad" x1="-819.20001" x2="819.20001">
      <stop offset="0.0" stop-color="#635b58" id="stop22"/>
      <stop offset="1.0" stop-color="#d3cebc" id="stop24"/>
    </linearGradient>
    <linearGradient gradientTransform="matrix(0.96,-3.51,1.5,0.42,7060,-625)" gradientUnits="userSpaceOnUse" id="gradient0-0" spreadMethod="pad" x1="-819.20001" x2="819.20001">
      <stop offset="0.0" stop-color="#635b58" id="stop34"/>
      <stop offset="1.0" stop-color="#d3cebc" id="stop36"/>
    </linearGradient>
    <linearGradient gradientTransform="matrix(0.67,-2.44,1.04,0.29,7040,440)" gradientUnits="userSpaceOnUse" id="gradient1" spreadMethod="pad" x1="-819.20001" x2="819.20001">
      <stop offset="0.0" stop-color="#635b58" id="stop39"/>
      <stop offset="1.0" stop-color="#d3cebc" id="stop41"/>
    </linearGradient>
  </defs>
  <path style="color:#000000;font-style:normal;font-variant:normal;font-weight:normal;font-stretch:normal;font-size:medium;line-height:normal;font-family:sans-serif;font-variant-ligatures:normal;font-variant-position:normal;font-variant-caps:normal;font-variant-numeric:normal;font-variant-alternates:normal;font-variant-east-asian:normal;font-feature-settings:normal;font-variation-settings:normal;text-indent:0;text-align:start;text-decoration:none;text-decoration-line:none;text-decoration-style:solid;text-decoration-color:#000000;letter-spacing:normal;word-spacing:normal;text-transform:none;writing-mode:lr-tb;direction:ltr;text-orientation:mixed;dominant-baseline:auto;baseline-shift:baseline;text-anchor:start;white-space:normal;shape-padding:0;shape-margin:0;inline-size:0;clip-rule:nonzero;display:inline;overflow:visible;visibility:visible;isolation:auto;mix-blend-mode:normal;color-interpolation:sRGB;color-interpolation-filters:linearRGB;solid-color:#000000;solid-opacity:1;vector-effect:none;fill:#761432;fill-opacity:1;fill-rule:nonzero;stroke:none;stroke-width:17.9191;stroke-linecap:butt;stroke-linejoin:miter;stroke-miterlimit:4;stroke-dasharray:none;stroke-dashoffset:0;stroke-opacity:1;color-rendering:auto;image-rendering:auto;shape-rendering:auto;text-rendering:auto;enable-background:accumulate;stop-color:#000000" d="m 7090.7111,1655.4796 c -10.56,13.421 -26.0774,16.5565 -73.3273,14.8169 -32.9628,-1.2138 -106.6225,1.5394 -163.688,6.1183 -57.0655,4.579 -142.2793,10.8322 -189.3642,13.896 -47.0847,3.0641 -112.2691,7.3349 -144.8538,9.4908 -63.1317,4.1775 -453.5324,48.6642 -567.5398,64.672 -82.4305,11.5742 -124.3442,38.1129 -88.0351,55.7417 11.7584,5.7088 42.0999,10.7874 67.4257,11.2856 65.8226,1.2945 236.0003,32.1271 332.6067,60.2613 45.4312,13.2309 108.9765,30.0983 141.2118,37.4834 119.4561,27.3677 274.5792,71.5969 277.2084,79.0391 1.4927,4.2249 46.9417,24.7852 100.9976,45.6898 88.7311,34.3139 170.6278,71.9695 258.893,119.0368 30.9419,16.4998 31.1385,17.1632 13.273,44.7601 -14.2335,21.9864 -31.7224,31.823 -81.302,45.7281 -34.7423,9.744 -79.7858,16.3034 -100.0967,14.5765 -52.0375,-4.4245 -277.5514,8.6056 -342.092,19.7658 -53.0699,9.1767 -53.8012,9.7955 -44.0854,37.2964 5.434,15.3808 17.6922,30.9291 27.2405,34.5514 19.6669,7.461 48.7374,27.6199 104.6546,72.572 21.2015,17.0439 58.0214,44.2717 81.8222,60.5059 23.8008,16.2343 49.0034,34.9879 56.0057,41.6747 17.4083,16.6234 79.036,76.6938 131.0848,127.7721 23.7121,23.27 46.2375,51.1536 50.0565,61.9633 3.8191,10.8098 23.3518,37.6886 43.4063,59.7305 93.3972,102.6538 258.5647,561.6471 239.4059,665.2991 -5.0375,27.2537 -4.8662,61.7824 0.3805,76.7306 10.7379,30.5855 -0.8796,134.8993 -20.1829,181.2551 -6.9941,16.7962 -10.3754,37.198 -7.5139,45.3369 2.862,8.1393 -10.5333,55.9792 -29.7663,106.3106 -19.2332,50.3315 -45.5133,118.9814 -58.4001,152.5562 -12.887,33.5744 -76.4866,145.291 -141.3328,248.2591 -64.846,102.968 -116.1767,192.1592 -114.0678,198.2036 5.895,16.9135 57.2528,6.7454 283.2873,-56.0868 158.0548,-43.9354 249.811,-75.1464 378.8795,-128.8767 211.4234,-88.0146 284.1674,-128.5656 316.7327,-176.5617 25.0451,-36.9123 25.8895,-37.3072 73.5456,-34.4107 57.1928,3.4764 68.5172,23.779 45.6735,81.884 -24.6394,62.6738 -34.9978,81.6195 -96.837,177.1238 -98.919,152.7687 -132.7704,187.0121 -368.6442,372.9142 -50.6002,39.8802 -97.6477,74.2688 -104.55,76.419 -6.9022,2.1499 -20.5057,11.1887 -30.23,20.0863 -38.0443,34.8115 -119.3463,82.9768 -192.0387,113.769 -41.8972,17.7475 -135.6593,61.2587 -208.36,96.6919 -72.7008,35.4329 -207.176,92.4155 -298.8341,126.6274 -91.6579,34.2121 -172.7927,66.2711 -180.2995,71.2416 -117.6717,77.9194 630.8753,28.1557 1055.777,-70.1879 122.0876,-28.2572 148.851,-26.9998 155.7165,7.3147 4.6868,23.4245 -6.7891,38.0526 -72.612,92.5606 -99.6262,82.5002 -311.769,199.7495 -478.7945,264.6226 -186.5347,72.4523 -643.5225,215.6698 -795.9454,249.4453 -71.5303,15.8504 -208.1238,48.1046 -303.5413,71.6753 l -173.486,42.8569 -31.7516,61.0992 c -108.6146,209.0084 -234.7773,307.6995 -440.6888,344.7326 -258.4151,46.4755 -511.6619,-49.1064 -612.7149,-231.2546 -12.6897,-22.8735 -28.0039,-44.7399 -34.0319,-48.5926 -6.028,-3.8529 -83.8011,-7.2456 -172.8295,-7.5413 -643.0096,-2.1289 -1217.8611,-124.3037 -1683.0434,-357.7012 -219.1552,-109.9578 -412.6294,-302.1737 -593.2991,-589.4395 -77.9882,-124.0026 -91.491,-153.9414 -172.0352,-381.4419 -81.3877,-229.8845 -113.0985,-355.3541 -112.0591,-443.385 0.2102,-17.8273 -1.9304,-77.6457 -4.7567,-132.9296 -5.1992,-101.6773 17.8018,-293.0556 46.9754,-390.8536 63.7077,-213.5673 138.4396,-370.1594 321.0194,-672.6578 164.7759,-273.001 336.631,-469.0795 708.1104,-807.9204 42.0326,-38.3394 87.814,-80.3689 101.7366,-93.3989 57.9382,-54.2241 281.8116,-232.1745 352.3967,-280.1101 162.4748,-110.3394 335.8553,-215.736 468.026,-284.509 113.8573,-59.2441 870.0596,-295.6662 1002.7518,-313.5044 207.3798,-27.8788 559.945,-11.8847 860.052,39.016 60.9808,10.343 123.5174,14.8672 138.9703,10.0535 18.5128,-5.7666 62.6246,4.5544 129.3275,30.2591 55.6774,21.4561 128.7971,43.7255 162.4881,49.4879 83.754,14.3246 333.238,77.2544 402.797,101.6016 31.2796,10.9487 100.7794,32.8339 154.4438,48.6336 53.6644,15.7999 115.8569,39.1215 138.2054,51.8261 22.3484,12.7044 56.8789,30.4681 76.7341,39.4747 42.3661,19.218 45.6211,24.8051 27.7111,47.5669 z" id="path844"/>
  <path style="color:#000000;font-style:normal;font-variant:normal;font-weight:normal;font-stretch:normal;font-size:medium;line-height:normal;font-family:sans-serif;font-variant-ligatures:normal;font-variant-position:normal;font-variant-caps:normal;font-variant-numeric:normal;font-variant-alternates:normal;font-variant-east-asian:normal;font-feature-settings:normal;font-variation-settings:normal;text-indent:0;text-align:start;text-decoration:none;text-decoration-line:none;text-decoration-style:solid;text-decoration-color:#000000;letter-spacing:normal;word-spacing:normal;text-transform:none;writing-mode:lr-tb;direction:ltr;text-orientation:mixed;dominant-baseline:auto;baseline-shift:baseline;text-anchor:start;white-space:normal;shape-padding:0;shape-margin:0;inline-size:0;clip-rule:nonzero;display:inline;overflow:visible;visibility:visible;isolation:auto;mix-blend-mode:normal;color-interpolation:sRGB;color-interpolation-filters:linearRGB;solid-color:#000000;solid-opacity:1;vector-effect:none;fill:#000000;fill-opacity:1;fill-rule:nonzero;stroke:none;stroke-linecap:butt;stroke-linejoin:miter;stroke-miterlimit:4;stroke-dasharray:none;stroke-dashoffset:0;stroke-opacity:1;color-rendering:auto;image-rendering:auto;shape-rendering:auto;text-rendering:auto;enable-background:accumulate;stop-color:#000000" d="m 5230.9531,1215 c -87.4297,0.4285 -166.8044,4.8929 -232.166,13.6797 -34.6494,4.658 -106.4157,22.7985 -197.8711,48.4316 -91.4554,25.6331 -202.0424,58.7308 -312.0469,93.1231 -110.0044,34.3922 -219.4131,70.0758 -308.5136,100.8926 -89.1006,30.8167 -157.3595,56.4309 -187.2617,71.9902 -132.6497,69.0222 -306.1921,174.531 -468.9239,285.0449 -71.8266,48.7787 -294.2793,225.5708 -353.4844,280.9805 -13.7862,12.9023 -59.6352,54.995 -101.6523,93.3203 -371.7344,339.0735 -544.5248,536.1745 -709.7441,809.9101 -182.7278,302.7436 -258.0202,460.4697 -321.9336,674.7266 -29.7201,99.63 -52.6352,290.2772 -47.3379,393.8731 2.8212,55.1846 4.945,115.4914 4.7461,132.3652 -1.066,90.2826 31.0866,216.3193 112.5722,446.4805 80.5668,227.5643 94.8104,259.0644 172.8965,383.2226 181.2455,288.1813 375.8584,481.7909 596.8653,592.6778 466.7065,234.1622 1042.9044,356.5197 1687.0312,358.6523 44.4091,0.1475 86.025,1.0684 117.1797,2.4277 15.5774,0.6797 28.5539,1.4719 37.8418,2.3145 4.644,0.4213 8.3812,0.8611 10.9121,1.2676 1.1503,0.1847 2.1329,0.5615 2.7305,0.7773 0.3405,0.3336 1.5326,1.3263 3.416,3.5645 2.2301,2.6502 4.9835,6.2846 7.959,10.5332 5.9509,8.4971 12.8269,19.4778 19.0175,30.6367 103.4886,186.5382 360.6098,282.7594 622.1348,235.7246 208.0133,-37.4111 337.6632,-138.9146 447.0547,-349.418 l 29.8828,-57.5039 169.5527,-41.8867 c 95.3323,-23.5497 231.9542,-55.8088 303.3301,-71.625 153.9529,-34.1145 609.8281,-177.0442 797.252,-249.8418 168.035,-65.2652 380.037,-182.2468 481.2636,-266.0723 v 0 c 33.0177,-27.3419 52.587,-44.6581 64.0801,-59.3086 11.493,-14.6504 14.2913,-28.4685 11.6015,-41.9121 -1.934,-9.6663 -5.6917,-18.5141 -13.0957,-24.707 -7.4039,-6.1929 -17.404,-9.0176 -29.9179,-9.6055 -25.028,-1.1757 -62.2955,5.8598 -123.5078,20.0274 -211.6483,48.986 -504.8483,86.0191 -729.9278,100.9824 -112.5397,7.4816 -208.2245,9.4197 -267.5547,4.7383 -29.665,-2.3408 -50.7563,-7.1235 -57.5781,-11.1367 -1.1621,-0.6837 -1.2897,-0.9276 -1.5957,-1.2364 0.5466,-0.7253 2.3806,-3.342 7.8457,-6.9609 -0.3106,0.2056 1.9289,-1.0426 4.9102,-2.4004 2.9812,-1.3578 7.0652,-3.128 12.0625,-5.2266 9.9944,-4.1972 23.664,-9.7242 39.9668,-16.166 32.6056,-12.8834 75.7654,-29.4371 121.5468,-46.5254 92.0219,-34.3477 226.4155,-91.285 299.627,-126.9668 72.5702,-35.3696 166.4528,-78.9274 207.9277,-96.4961 73.573,-31.1651 154.8959,-79.0836 194.5938,-115.4082 8.8836,-8.1284 23.5598,-17.1191 26.8457,-18.1425 2.7204,-0.8475 4.0686,-1.7756 6.334,-3.1309 2.2653,-1.3553 4.9653,-3.0971 8.1328,-5.2266 6.3349,-4.2589 14.5081,-10.0541 24.0429,-17.0234 19.0698,-13.9387 43.5449,-32.5539 68.9219,-52.5547 235.9666,-185.9752 271.5253,-222.0433 370.6192,-375.082 61.8849,-95.5749 72.927,-115.8175 97.6543,-178.7149 11.7363,-29.8523 16.1867,-51.9944 6.6621,-69.0703 -4.7623,-8.5379 -12.95,-14.5799 -23.0352,-18.3847 -10.0852,-3.8049 -22.2882,-5.7504 -37.0957,-6.6504 -23.8559,-1.45 -37.2866,-2.6519 -49.5918,3.1054 -12.3052,5.7574 -19.3716,16.7343 -31.9121,35.2168 -30.4012,44.8066 -101.5666,85.4027 -312.7617,173.3223 -128.8141,53.6244 -219.974,84.6338 -377.836,128.5156 -112.9687,31.4026 -182.3137,49.6298 -223.5351,57.791 -20.6107,4.0807 -34.2892,5.5561 -41.9551,5.1856 -2.7315,-0.132 -4.3595,-0.4961 -5.4902,-0.8379 0.01,-0.015 0.01,-0.016 0.012,-0.031 1.161,-2.8128 3.1718,-7.061 5.875,-12.3515 5.4065,-10.581 13.6045,-25.4377 23.8984,-43.3242 20.5878,-35.7732 49.5876,-83.7437 81.9571,-135.1426 32.4978,-51.6028 64.6636,-105.3616 90.3574,-150.4942 25.6937,-45.1325 44.7406,-81.0412 51.7598,-99.3281 12.8906,-33.5848 39.1693,-102.2323 58.4042,-152.5683 9.7068,-25.402 17.933,-50.1353 23.4278,-69.7598 2.7474,-9.8123 4.8133,-18.3272 6.0488,-25.1973 0.6178,-3.435 1.0329,-6.4475 1.1953,-9.1797 0.1625,-2.7321 0.3538,-4.9991 -0.8222,-8.3437 -0.2876,-0.8178 -0.7929,-7.5036 0.4472,-14.9863 1.2402,-7.4827 3.6857,-16.2529 6.8848,-23.9356 10.3233,-24.7907 17.9505,-62.7172 21.9902,-98.9941 4.0397,-36.2769 5.1331,-69.4224 -1.625,-88.6719 -1.9195,-5.4688 -3.4748,-17.4761 -3.541,-30.8281 -0.066,-13.3521 1.1251,-28.3627 3.5176,-41.3067 5.4227,-29.3377 -1.9313,-77.3104 -16.2891,-136.9707 -14.3578,-59.6603 -36.2102,-130.1967 -61.5859,-200.7148 -25.3758,-70.5182 -54.2661,-140.9855 -82.7578,-200.4316 -28.4918,-59.4462 -56.2557,-107.6904 -80.9571,-134.8399 -9.7816,-10.751 -19.5167,-22.783 -27.1699,-33.3144 -7.6532,-10.5315 -13.3257,-20.2906 -14.414,-23.3711 -2.9466,-8.3402 -9.7258,-17.4167 -19.0469,-28.9551 -9.3212,-11.5384 -21.063,-24.5233 -33.1836,-36.418 -52.0658,-51.095 -113.6051,-111.0826 -131.1719,-127.8574 -8.7167,-8.324 -33.1225,-26.2125 -57.1445,-42.5977 -23.5018,-16.0302 -60.3727,-43.2963 -81.2578,-60.0859 -56.0796,-45.0826 -85.1565,-65.646 -107.0899,-73.9668 -1.9881,-0.7542 -6.9766,-4.5474 -11.3047,-10.0371 -4.328,-5.4897 -8.338,-12.5318 -10.666,-19.1211 -2.4136,-6.832 -3.9474,-11.8062 -4.2207,-14.1797 -0.2733,-2.3735 -0.6241,-0.9381 0.059,-1.5156 0.6827,-0.5776 4.3591,-2.4144 11.2559,-4.0762 6.8968,-1.6618 16.8161,-3.421 30.0703,-5.7129 62.2415,-10.7626 291.4259,-23.7796 339.8066,-19.666 23.3333,1.9839 67.601,-4.8715 103.2754,-14.8769 25.055,-7.027 42.4107,-13.0772 55.8789,-20.6524 13.4683,-7.5752 22.8302,-16.9472 30.5254,-28.834 4.4794,-6.9192 7.9444,-12.2396 10.375,-17.3183 2.4306,-5.0787 4.0964,-10.7812 2.3594,-16.6387 -1.737,-5.8576 -6.0164,-9.6815 -10.8125,-12.9805 -4.7961,-3.299 -10.748,-6.4628 -18.502,-10.5976 -88.5448,-47.2165 -170.819,-85.048 -259.8769,-119.4883 -26.8942,-10.4006 -51.6612,-20.7241 -69.7481,-28.9063 -9.0434,-4.0911 -16.4357,-7.6605 -21.4394,-10.3418 -2.5018,-1.3406 -4.4241,-2.4797 -5.4746,-3.1894 -0.3202,-0.2163 -0.3439,-0.2427 -0.4668,-0.3379 -0.7691,-1.0849 -1.5359,-1.8275 -2.1524,-2.3262 -0.9858,-0.7975 -1.8518,-1.3231 -2.7773,-1.8457 -1.8511,-1.045 -3.9345,-1.9978 -6.4824,-3.0625 -5.096,-2.1294 -11.964,-4.6107 -20.4668,-7.459 -17.0057,-5.6966 -40.4557,-12.7996 -67.5586,-20.5273 -54.2059,-15.4554 -122.9399,-33.3794 -182.8692,-47.1094 -31.839,-7.2943 -95.4665,-24.1762 -140.707,-37.3515 -97.6312,-28.4327 -266.6222,-59.2737 -334.9375,-60.6172 -12.1347,-0.2387 -25.7137,-1.5963 -37.4961,-3.5684 -11.7824,-1.9721 -22.0969,-4.8305 -26.1914,-6.8184 -3.8367,-1.8628 -6.1963,-3.7017 -7.2441,-4.8789 -1.0479,-1.1771 -0.8671,-1.3031 -0.8653,-1.3867 0,-0.167 1.4827,-3.8165 8.4785,-8.2461 13.9917,-8.8591 44.5095,-18.6137 84.9981,-24.2988 113.4811,-15.9339 505.5025,-60.5415 566.8848,-64.6035 32.577,-2.1554 97.7646,-6.4264 144.8457,-9.4902 47.1742,-3.0697 132.3719,-9.3224 189.498,-13.9063 56.7382,-4.5526 130.6682,-7.2731 162.6426,-6.0957 23.8588,0.8784 39.9905,0.6383 52.5254,-1.8945 12.5348,-2.5329 21.7828,-8.2159 28.1719,-16.336 l 3.5136,-4.4648 -0.096,-0.1914 c 2.944,-4.0188 5.4992,-7.8827 7.084,-11.9942 2.1904,-5.6826 2.1991,-12.9299 -1.0527,-18.5117 -6.5036,-11.1635 -19.0981,-16.3952 -40.5,-26.1035 -19.378,-8.7901 -53.9871,-26.5873 -76.0078,-39.1055 -24.4616,-13.9058 -85.9449,-36.686 -140.1016,-52.6308 -53.5246,-15.7585 -123.1281,-37.6846 -154.0156,-48.4961 -71.3204,-24.9637 -319.1084,-87.4153 -404.2461,-101.9766 -32.0334,-5.4789 -105.6149,-27.758 -160.7774,-49.0156 -33.5943,-12.946 -61.594,-22.0741 -83.916,-27.2969 -22.322,-5.2227 -38.6622,-7.0918 -51.2969,-3.1562 -1.8444,0.5745 -8.4612,1.4203 -17.0839,1.5078 -8.6228,0.087 -19.5979,-0.3359 -32.0176,-1.2344 -24.8395,-1.797 -55.5021,-5.4843 -85.7071,-10.6074 -206.8979,-35.0917 -438.2326,-53.685 -630.5781,-52.7422 z m -0.1,18.0059 c 191.0314,-0.8913 421.9325,17.5075 627.6817,52.4043 30.7758,5.2199 61.8728,8.965 87.4101,10.8125 12.7686,0.9237 24.1376,1.3761 33.4922,1.2812 9.3546,-0.095 16.3485,-0.488 22.2305,-2.3203 5.8781,-1.831 20.8489,-1.4242 41.8867,3.498 21.0378,4.9223 48.4461,13.8077 81.5547,26.5664 56.1923,21.6546 128.8505,43.9131 164.1992,49.959 82.3703,14.088 333.55,77.4979 401.3476,101.2285 31.6717,11.086 101.0689,32.9307 154.8731,48.7715 53.1721,15.655 116.0732,39.5162 136.3086,51.0196 22.676,12.8906 57.1285,30.6226 77.4609,39.8457 20.9642,9.5097 31.18,16.6797 32.418,18.8047 0.619,1.0624 0.7309,0.6795 -0.1816,3.0468 -0.9125,2.3673 -3.5795,6.5688 -7.8653,12.0157 -4.1709,5.3009 -7.9623,7.8963 -17.6387,9.8515 -9.6763,1.9553 -24.9272,2.4139 -48.3183,1.5528 -33.9512,-1.2502 -107.3416,1.5354 -164.7344,6.1406 -57.0049,4.5741 -142.2329,10.8287 -189.2285,13.8867 -47.0883,3.0643 -112.2709,7.3338 -144.8633,9.4902 -64.885,4.2935 -453.6623,48.6587 -568.1953,64.7403 -41.9419,5.8891 -73.5962,15.1914 -92.0918,26.9023 -9.2478,5.8555 -16.5894,12.8693 -16.8086,22.9981 -0.1096,5.0643 2.1087,9.9958 5.3965,13.6894 3.2878,3.6936 7.5622,6.5396 12.8027,9.084 7.664,3.7209 18.3992,6.2541 31.0586,8.373 12.6594,2.119 26.9124,3.5511 40.1035,3.8106 63.3299,1.2455 234.6958,32.0705 330.2774,59.9062 45.6219,13.2865 109.0852,30.1374 141.7168,37.6133 59.5268,13.6378 128.082,31.5134 181.959,46.875 26.9385,7.6808 50.2269,14.7404 66.7793,20.2852 8.2761,2.7723 14.8927,5.1812 19.25,7.0019 2.0392,0.8522 3.4672,1.5485 4.289,1.9961 0.6077,0.7901 1.1965,1.3086 1.7032,1.7676 0.9268,0.8396 1.7977,1.4705 2.7636,2.123 1.9318,1.3051 4.2294,2.6291 7.043,4.1368 5.6271,3.0153 13.2552,6.6828 22.5176,10.873 18.5248,8.3803 43.5082,18.7889 70.6699,29.293 88.4042,34.1875 169.9246,71.6697 257.9101,118.5879 7.717,4.115 13.3925,7.2205 16.7774,9.5488 3.3849,2.3283 3.8404,3.4902 3.7871,3.3105 -0.053,-0.1796 0.2465,0.4877 -1.3437,3.8106 -1.5903,3.3229 -4.8006,8.4353 -9.254,15.3144 -6.5382,10.0997 -13.0381,16.6391 -24.2675,22.9551 -11.2295,6.316 -27.409,12.1375 -51.9336,19.0156 -33.8102,9.4826 -79.6295,15.7454 -96.918,14.2754 -55.6943,-4.7354 -277.5372,8.3075 -344.3769,19.8653 -13.2808,2.2964 -23.3542,4.0546 -31.2168,5.9492 -7.8627,1.8945 -13.7115,3.6545 -18.6309,7.8164 -4.9194,4.1619 -6.9489,11.4802 -6.2852,17.2441 0.6638,5.764 2.6828,11.1812 5.127,18.0996 3.106,8.7916 7.9417,17.2128 13.4883,24.2481 5.5466,7.0352 11.4612,12.8272 19.0215,15.6953 17.4003,6.6012 46.4639,26.3562 102.2187,71.1777 21.5178,17.2982 58.2869,44.4876 82.3867,60.9258 23.5797,16.0835 49.5794,35.7024 54.8672,40.752 17.2498,16.472 78.9643,76.6259 130.9961,127.6875 11.5915,11.3753 22.9706,23.9653 31.7949,34.8886 8.8243,10.9234 15.2174,21.1946 16.0899,23.6641 2.7307,7.7293 8.7329,16.8147 16.8144,27.9356 8.0816,11.1209 18.1393,23.5489 28.4121,34.8398 21.9973,24.1774 49.9044,71.8018 78.0508,130.5273 28.1464,58.7256 56.8627,128.7336 82.0586,198.752 25.1959,70.0184 46.8821,140.0808 61.0235,198.8418 14.1413,58.761 20.2465,107.0312 16.0898,129.5195 -2.645,14.3097 -3.8862,30.1915 -3.8145,44.6543 0.072,14.4628 1.2256,27.1925 4.5528,36.6719 v 0 c 3.9798,11.3361 4.633,45.6386 0.7226,80.754 -3.9103,35.1153 -11.7426,72.5228 -20.7226,94.0878 -3.795,9.1136 -6.5379,18.9426 -8.0215,27.8946 -1.4837,8.952 -2.2478,16.5383 0.3262,23.8594 -0.4606,-1.3098 -0.063,-0.3027 -0.1602,1.3359 -0.097,1.6386 -0.4092,4.0913 -0.9453,7.0723 -1.0722,5.9619 -3.0202,14.0805 -5.668,23.5371 -5.2956,18.913 -13.3839,43.2659 -22.9101,68.1953 -19.2315,50.3269 -45.5136,118.9782 -58.3965,152.5429 -5.8679,15.2876 -25.0642,52.0235 -50.6035,96.8848 -25.5394,44.8613 -57.597,98.4452 -89.9453,149.8106 -32.4766,51.569 -61.5644,99.6783 -82.3262,135.7539 -10.3809,18.0377 -18.6729,33.0492 -24.3242,44.1093 -2.8257,5.5301 -4.9866,10.044 -6.4825,13.668 -0.7479,1.812 -1.3328,3.3758 -1.7753,4.9961 -0.4426,1.6203 -1.6644,2.7383 -0.037,7.4023 1.4487,4.154 4.9117,7.9963 9.0118,10.0684 4.1008,2.0725 8.6359,2.8785 13.9785,3.1367 10.6852,0.5164 25.0808,-1.3046 46.3008,-5.5058 42.4399,-8.4025 111.7896,-26.6759 224.8554,-58.1055 158.2476,-43.989 250.599,-75.4001 379.9219,-129.2363 211.6517,-88.1097 285.9737,-128.6171 320.7031,-179.8028 12.5046,-18.4297 18.3854,-26.1047 24.6778,-29.0488 6.2923,-2.9441 17.1118,-2.8958 40.9121,-1.4492 13.7889,0.8381 24.4477,2.7338 31.8574,5.5293 7.4097,2.7954 11.3485,6.1123 13.7109,10.3476 4.7249,8.4708 3.416,25.5326 -7.6914,53.7852 -24.5515,62.4502 -34.2241,80.0995 -96.0176,175.5332 -98.7441,152.4986 -130.8889,184.9171 -366.6699,370.7461 -25.2231,19.8794 -49.5727,38.3989 -68.4023,52.1621 -9.4148,6.8816 -17.4597,12.5792 -23.4688,16.6191 -3.0045,2.02 -5.5076,3.6281 -7.334,4.7207 -1.8263,1.0927 -3.4596,1.7103 -2.4648,1.4004 -10.5185,3.2764 -23.0483,12.3625 -33.6133,22.0293 -36.3907,33.2985 -117.6725,81.7097 -189.4844,112.1289 -42.3194,17.9264 -135.9598,61.3919 -208.791,96.8887 -72.19,35.184 -206.7467,92.211 -298.041,126.2871 -45.8765,17.1238 -89.1142,33.7068 -121.8672,46.6485 -16.3765,6.4708 -30.1264,12.0276 -40.3203,16.3086 -5.0969,2.1404 -9.3,3.9589 -12.5508,5.4394 -3.2507,1.4805 -5.1877,2.3213 -7.375,3.7695 -8.1744,5.413 -14.1593,10.4862 -15.9961,18.6309 -0.9183,4.0723 -0.037,8.7811 2.1153,12.2129 2.1521,3.4318 5.1247,5.7894 8.4375,7.7383 13.251,7.7954 34.6531,11.1399 65.2558,13.5547 61.2054,4.8294 157.1497,2.7896 270.1504,-4.7227 226.0016,-15.0246 519.5278,-52.0467 732.7813,-101.4043 60.8752,-14.0896 98.0329,-20.5533 118.625,-19.5859 10.296,0.4836 15.9033,2.6404 19.2636,5.4511 3.3604,2.8108 5.5228,6.9877 7.0215,14.4786 1.997,9.9809 1.4,15.1892 -8.1289,27.3359 -9.5289,12.1467 -28.6069,29.4004 -61.4121,56.5664 -98.0258,81.1749 -310.3082,198.6909 -476.3242,263.1719 -185.6456,72.1069 -643.7477,215.6143 -794.6406,249.0508 -71.6847,15.8846 -208.2473,48.1328 -303.75,71.7246 l -177.4199,43.8281 -33.6192,64.6933 c -107.8377,207.5134 -230.5165,303.3918 -434.3262,340.0469 -255.3051,45.9162 -504.6755,-49.0251 -603.2929,-226.7832 -6.4991,-11.7146 -13.6243,-23.105 -20.0098,-32.2226 -3.1928,-4.5588 -6.1926,-8.543 -8.9258,-11.7911 -2.7328,-3.2476 -4.8093,-5.6742 -8.1054,-7.7812 v 0 c -4.184,-2.6739 -5.6848,-2.1992 -8.9082,-2.7168 -3.2238,-0.5177 -7.2487,-0.9767 -12.1348,-1.4199 -9.772,-0.8865 -22.9317,-1.684 -38.6797,-2.3711 -31.4959,-1.3742 -73.281,-2.2971 -117.9003,-2.4453 -641.8924,-2.1252 -1215.3986,-124.1173 -1679.0567,-356.75 -217.3036,-109.0288 -409.6385,-299.8508 -589.7324,-586.2012 -77.8903,-123.847 -90.6522,-152.2255 -171.1738,-379.6621 -81.2898,-229.6079 -112.5578,-354.5098 -111.545,-440.2891 0.2215,-18.7806 -1.9362,-78.1095 -4.7675,-133.4922 -5.1011,-99.7587 17.9861,-291.868 46.6132,-387.8339 63.502,-212.8777 137.6717,-368.3366 320.1036,-670.5899 164.3324,-272.2663 335.2541,-467.3233 706.4785,-805.9316 42.0481,-38.3536 87.7613,-80.3189 101.8203,-93.4766 56.6714,-53.0385 281.965,-232.1478 351.3086,-279.2402 162.2178,-110.1649 335.4352,-215.4489 467.1269,-283.9727 27.0264,-14.0628 95.9913,-40.2169 184.8477,-70.9492 88.8564,-30.7323 198.1391,-66.378 308.0039,-100.7266 109.8648,-34.3485 220.3249,-67.4043 311.5352,-92.9687 91.2102,-25.5644 163.7271,-43.6667 195.4238,-47.9277 64.2507,-8.6375 142.8452,-13.0285 229.6777,-13.4336 z m 1458.6172,769.8671 c 0.2807,0.2043 0.706,0.6557 1.332,2.4278 -0.4137,-1.1713 -0.877,-1.7807 -1.332,-2.4278 z m -15.5625,8.3965 c 0.4386,1.2414 0.8933,1.9043 1.3418,2.5391 -0.3854,-0.4298 -0.8577,-1.1688 -1.3418,-2.5391 z m 185.8613,2456.3926 c -0.031,0.6141 -0.2326,0.6964 -0.1699,0.4668 0.018,-0.065 0.139,-0.3681 0.1699,-0.4668 z" id="path846"/>
</g>
    <g><metadata xmlns:rdf="http://www.w3.org/1999/02/22-rdf-syntax-ns#" xmlns:cc="http://creativecommons.org/ns#" xmlns:dc="http://purl.org/dc/elements/1.1/" id="metadata37">
    <rdf:RDF>
      <cc:Work rdf:about="">
        <dc:format>image/svg+xml</dc:format>
        <dc:type rdf:resource="http://purl.org/dc/dcmitype/StillImage"/>
      </cc:Work>
    </rdf:RDF>
  </metadata>
  <sodipodi:namedview xmlns:sodipodi="http://sodipodi.sourceforge.net/DTD/sodipodi-0.dtd" xmlns:inkscape="http://www.inkscape.org/namespaces/inkscape" pagecolor="#ffffff" bordercolor="#666666" borderopacity="1" objecttolerance="10" gridtolerance="10" guidetolerance="10" inkscape:pageopacity="0" inkscape:pageshadow="2" inkscape:window-width="1920" inkscape:window-height="1017" id="namedview35" showgrid="false" inkscape:zoom="0.13417522" inkscape:cx="2940" inkscape:cy="3167.5" inkscape:window-x="-8" inkscape:window-y="-8" inkscape:window-maximized="1" inkscape:current-layer="svg33"/>
  <path d="m 815,1800 280,-540 115,-210 30,-20 410,20 h 5 q -5,-75 30,-190 55,-180 150,-230 200,-300 600,-630 l 400,85 30,10 90,25 195,90 q 310,75 1055,625 190,60 470,280 l 150,90 80,80 230,290 40,210 v 25 l 10,45 q 15,130 15,290 l 10,170 20,300 5,10 145,290 180,290 -10,15 -25,-25 145,220 -390,-445 q -135,-165 -175,-275 l -125,30 q -320,15 -625,150 l -535,230 165,245 h 10 v 20 l 80,125 -10,20 q -5,400 -40,525 l -55,80 v 20 q 5,60 -150,100 -165,55 -285,225 l -20,50 60,130 5,5 15,70 -270,85 -650,200 -290,60 -130,-30 v -5 l -300,-495 -160,-250 -60,-95 -75,-35 v -5 l -220,-505 -120,-260 -55,-130 -10,-10 v -5 l -210,-525 -10,-30 v -30 q 0,-40 -65,-120 l -20,-25 -85,-505 -50,-205 m 635,-530 -15,-5 -5,5 -70,15 v 5 l -30,10 h -5 v 5 q -45,160 -135,350 -115,205 -165,465 l -20,25 -45,65 q -20,90 30,205 l 15,30 q -5,105 110,285 l 20,35 130,205 q 105,-240 195,-490 l 120,-290 165,-150 60,-60 55,-5 80,-10 h 165 l 280,-20 -50,-50 q -215,-265 -380,-540 l -340,-65 -55,5 -110,-25 m 1190,695 245,40 q 195,20 320,-35 l 30,-10 q 350,-165 540,-885 l 5,-10 20,-5 -105,-170 -10,-20 -5,-5 L 3535,715 3365,530 2900,340 2775,280 h -10 l -115,-25 h -15 l -45,-10 -95,20 q -150,150 -270,255 l -175,185 q -90,175 -135,365 l 125,200 70,120 295,420 170,130 35,15 30,10 m -455,895 30,-5 130,-5 35,-5 340,-40 h 5 l 510,10 170,-10 h 25 l -5,-5 85,-15 70,45 30,-180 -105,-230 q -110,-220 -195,-285 l -50,-35 v -5 l -15,-5 -20,-5 -455,-25 -300,-10 -15,-15 -240,5 -345,25 -40,-5 v 5 l -10,5 -75,20 -15,5 h 15 30 l -25,10 q -15,15 -35,20 -40,175 -140,395 -115,240 -160,515 l -45,65 -20,40 q -15,80 15,160 l 35,75 q -5,75 45,165 l 60,140 160,245 q 40,-30 40,-100 v -20 l 110,-425 70,-290 185,-220 115,-10 m 30,55 -65,40 h -35 l -70,40 -40,25 -10,75 q -135,190 -190,600 -70,520 25,520 l 65,135 95,140 60,90 145,195 85,125 10,10 105,60 h 30 l 45,-5 460,-95 155,-40 q 345,-60 345,-165 l 10,-35 30,-30 20,5 -75,-135 -250,-395 -25,-50 -5,-15 50,-185 40,-90 180,-70 h 15 l 300,-80 210,-65 5,-30 20,-10 15,-45 -25,-25 5,-30 -100,-150 -70,-110 -50,-60 -65,-70 -105,-70 -255,-45 -425,-5 -575,15 -90,30 m 2830,-1750 -10,-10 v -10 l 10,20 m -270,425 q -160,120 -485,265 -400,180 -580,180 l -320,-25 -35,45 35,20 305,615 -10,30 -25,155 25,15 100,160 95,-10 q 220,-95 435,-195 365,-160 670,-190 l 75,-105 -15,-85 q -60,-185 -95,-515 -20,-230 -115,-385 -25,15 -60,25 m -5,-125 -190,-160 -340,-205 q -90,-80 -165,-80 -150,0 -235,255 l -20,95 -45,70 -160,305 -190,230 85,5 190,10 q 155,0 605,-195 260,-115 415,-200 h -5 l 55,-130 m -840,2065 q -115,60 -300,100 -220,40 -330,120 l -20,80 v 10 l -10,35 -30,95 100,260 25,40 125,-30 210,-70 150,-50 40,-85 q 100,-190 105,-545 l -65,50 v -10" fill="#000000" fill-rule="evenodd" stroke="none" id="path18" style="stroke-width:100"/>
  <path d="m 1745,2040 -165,150 -120,290 q -90,250 -195,490 l -130,-205 -20,-35 q -115,-180 -110,-285 l -15,-30 q -50,-115 -30,-205 l 45,-65 20,-25 q 50,-260 165,-465 90,-190 135,-350 v -5 h 5 l 30,-10 v -5 l 70,-15 5,-5 15,5 115,455 180,315 m 895,-75 -30,-10 -35,-15 -170,-130 -295,-420 -70,-120 -125,-200 q 45,-190 135,-365 l 175,-185 q 120,-105 270,-255 l 95,-20 45,10 145,120 655,530 q -85,190 -145,285 l -520,610 -130,165 m -895,125 v 5 h -15 l 15,-5 m 5,15 190,360 245,395 -115,10 -185,220 -70,290 -110,425 v 20 q 0,70 -40,100 l -160,-245 -60,-140 q -50,-90 -45,-165 l -35,-75 q -30,-80 -15,-160 l 20,-40 45,-65 q 45,-275 160,-515 100,-220 140,-395 20,-5 35,-20 m 645,2865 -105,-60 -10,-10 -85,-125 -145,-195 -60,-90 -95,-140 -65,-135 q -95,0 -25,-520 55,-410 190,-600 l 10,-75 40,-25 70,-40 h 35 l 65,-40 100,90 5,5 15,20 545,670 q -40,195 -265,760 l -220,510" fill="#cf0e48" fill-rule="evenodd" stroke="none" id="path20" style="stroke-width:100"/>
  <path d="m 1745,2040 -180,-315 -115,-455 110,25 55,-5 340,65 q 165,275 380,540 l 50,50 -280,20 h -165 l -80,10 -55,5 -60,60 M 2635,255 h 15 l 115,25 h 10 l 125,60 465,190 170,185 145,150 5,5 10,20 105,170 -20,5 -5,10 q -190,720 -540,885 l -30,10 q -125,55 -320,35 l -245,-40 130,-165 520,-610 q 60,-95 145,-285 L 2780,375 2635,255 m -890,1835 75,-20 10,-5 v -5 l 40,5 345,-25 240,-5 15,15 300,10 455,25 20,5 15,5 v 5 l 50,35 q 85,65 195,285 l 105,230 -30,180 -70,-45 -85,15 5,5 h -25 l -170,10 -510,-10 h -5 l -340,40 -35,5 -130,5 -30,5 -245,-395 -190,-360 25,-10 h -30 v -5 m 650,2880 220,-510 q 225,-565 265,-760 l -545,-670 -15,-20 -5,-5 -100,-90 90,-30 575,-15 425,5 255,45 105,70 65,70 50,60 70,110 100,150 -5,30 25,25 -15,45 -20,10 -5,30 -210,65 -300,80 h -15 l -180,70 -40,90 -50,185 5,15 25,50 250,395 75,135 -20,-5 -30,30 -10,35 q 0,105 -345,165 l -155,40 -460,95 -45,5 h -30 M 3930,3530 v 10 l 65,-50 q -5,355 -105,545 l -40,85 -150,50 -210,70 -125,30 -25,-40 -100,-260 30,-95 10,-35 v -10 l 20,-80 q 110,-80 330,-120 185,-40 300,-100 m 840,-2065 -55,130 h 5 q -155,85 -415,200 -450,195 -605,195 l -190,-10 -85,-5 190,-230 160,-305 45,-70 20,-95 q 85,-255 235,-255 75,0 165,80 l 340,205 190,160 m 5,125 q 35,-10 60,-25 95,155 115,385 35,330 95,515 l 15,85 -75,105 q -305,30 -670,190 -215,100 -435,195 l -95,10 -100,-160 -25,-15 25,-155 10,-30 -305,-615 -35,-20 35,-45 320,25 q 180,0 580,-180 325,-145 485,-265" fill="#761432" fill-rule="evenodd" stroke="none" id="path22" style="stroke-width:100"/>
  <defs id="defs31">
    <linearGradient gradientTransform="matrix(0.94,-3.38,1.47,0.41,-2810,-6670)" gradientUnits="userSpaceOnUse" id="gradient0" spreadMethod="pad" x1="-819.2" x2="819.2">
      <stop offset="0.0" stop-color="#635b58" id="stop26"/>
      <stop offset="1.0" stop-color="#d3cebc" id="stop28"/>
    </linearGradient>
  </defs>
</g>
  </g>
</svg>
