<?xml version='1.0' encoding='ASCII' standalone='yes'?>
<svg xmlns="http://www.w3.org/2000/svg" xmlns:xlink="http://www.w3.org/1999/xlink" version="1.1" width="5915.0px" height="6370.0px">
  <g>
    <g transform="translate( -1900,  -50) scale(1.0 1.0)  rotate(0.000000 0.000000 0.000000)"><metadata xmlns:rdf="http://www.w3.org/1999/02/22-rdf-syntax-ns#" xmlns:cc="http://creativecommons.org/ns#" xmlns:dc="http://purl.org/dc/elements/1.1/" id="metadata33">
    <rdf:RDF>
      <cc:Work rdf:about="">
        <dc:format>image/svg+xml</dc:format>
        <dc:type rdf:resource="http://purl.org/dc/dcmitype/StillImage"/>
        <dc:title/>
      </cc:Work>
    </rdf:RDF>
  </metadata>
  <sodipodi:namedview xmlns:sodipodi="http://sodipodi.sourceforge.net/DTD/sodipodi-0.dtd" xmlns:inkscape="http://www.inkscape.org/namespaces/inkscape" pagecolor="#ffffff" bordercolor="#666666" borderopacity="1" objecttolerance="10" gridtolerance="10" guidetolerance="10" inkscape:pageopacity="0" inkscape:pageshadow="2" inkscape:window-width="1920" inkscape:window-height="1017" id="namedview31" showgrid="false" inkscape:zoom="0.073197678" inkscape:cx="3604.4927" inkscape:cy="2181.5856" inkscape:window-x="-8" inkscape:window-y="-8" inkscape:window-maximized="1" inkscape:current-layer="svg29" inkscape:document-rotation="0"/>
  <defs id="defs27">
    <linearGradient gradientTransform="matrix(0.9399043,-3.3796559,1.4698503,0.40995826,-7059.505,-5689.3312)" gradientUnits="userSpaceOnUse" id="gradient0" spreadMethod="pad" x1="-819.20001" x2="819.20001">
      <stop offset="0.0" stop-color="#635b58" id="stop22"/>
      <stop offset="1.0" stop-color="#d3cebc" id="stop24"/>
    </linearGradient>
    <linearGradient gradientTransform="matrix(0.96,-3.51,1.5,0.42,7060,-625)" gradientUnits="userSpaceOnUse" id="gradient0-0" spreadMethod="pad" x1="-819.20001" x2="819.20001">
      <stop offset="0.0" stop-color="#635b58" id="stop34"/>
      <stop offset="1.0" stop-color="#d3cebc" id="stop36"/>
    </linearGradient>
    <linearGradient gradientTransform="matrix(0.67,-2.44,1.04,0.29,7040,440)" gradientUnits="userSpaceOnUse" id="gradient1" spreadMethod="pad" x1="-819.20001" x2="819.20001">
      <stop offset="0.0" stop-color="#635b58" id="stop39"/>
      <stop offset="1.0" stop-color="#d3cebc" id="stop41"/>
    </linearGradient>
  </defs>
  <path style="color:#000000;font-style:normal;font-variant:normal;font-weight:normal;font-stretch:normal;font-size:medium;line-height:normal;font-family:sans-serif;font-variant-ligatures:normal;font-variant-position:normal;font-variant-caps:normal;font-variant-numeric:normal;font-variant-alternates:normal;font-variant-east-asian:normal;font-feature-settings:normal;font-variation-settings:normal;text-indent:0;text-align:start;text-decoration:none;text-decoration-line:none;text-decoration-style:solid;text-decoration-color:#000000;letter-spacing:normal;word-spacing:normal;text-transform:none;writing-mode:lr-tb;direction:ltr;text-orientation:mixed;dominant-baseline:auto;baseline-shift:baseline;text-anchor:start;white-space:normal;shape-padding:0;shape-margin:0;inline-size:0;clip-rule:nonzero;display:inline;overflow:visible;visibility:visible;isolation:auto;mix-blend-mode:normal;color-interpolation:sRGB;color-interpolation-filters:linearRGB;solid-color:#000000;solid-opacity:1;vector-effect:none;fill:#761432;fill-opacity:1;fill-rule:nonzero;stroke:none;stroke-width:19.1755;stroke-linecap:butt;stroke-linejoin:miter;stroke-miterlimit:4;stroke-dasharray:none;stroke-dashoffset:0;stroke-opacity:1;color-rendering:auto;image-rendering:auto;shape-rendering:auto;text-rendering:auto;enable-background:accumulate;stop-color:#000000" d="m 7456.9848,5458.772 c -13.0281,-12.7244 -28.8676,-12.7993 -74.8491,-0.3545 -32.078,8.6819 -104.8493,21.9463 -161.7139,29.4761 -56.8647,7.5298 -141.6621,19.4299 -188.439,26.4447 -46.7767,7.0146 -111.5404,16.6931 -143.919,21.5075 -62.7325,9.3276 -454.3815,46.0639 -569.3544,53.4048 -83.1286,5.3077 -129.5126,-15.1834 -97.4244,-43.0395 10.3915,-9.0207 39.1292,-21.46 63.8617,-27.6428 64.2806,-16.0691 224.995,-88.475 314.111,-141.5152 41.9087,-24.9434 100.8535,-57.9922 130.9884,-73.4418 111.6727,-57.253 254.9569,-141.3581 256.052,-150.298 0.6217,-5.0751 41.0874,-38.2521 89.9235,-73.7266 80.163,-58.2301 152.9591,-118.6946 230.1242,-191.1409 27.0506,-25.3965 27.1112,-26.185 4.0955,-53.2041 -18.3367,-21.5259 -37.4444,-28.6872 -88.8275,-33.2912 -36.006,-3.2262 -81.4778,-0.5895 -101.0484,5.8594 -50.1407,16.5224 -273.8516,51.9662 -339.3569,53.7663 -53.8631,1.4802 -54.7034,0.9478 -50.6568,-32.0877 2.2633,-18.4763 11.1844,-38.6557 19.8247,-44.8431 17.7966,-12.7443 42.2833,-41.8337 88.1528,-104.7223 17.3919,-23.8446 48.0683,-62.5916 68.1701,-86.1044 20.1018,-23.5128 41.076,-50.1656 46.6094,-59.2284 13.7564,-22.5302 62.2127,-103.6616 103.0687,-172.5698 18.6129,-31.3928 35.143,-67.7022 36.7336,-80.6875 1.5907,-12.9853 15.3867,-47.5021 30.6581,-76.7039 71.1212,-135.9985 141.611,-688.0333 102.1731,-800.1603 -10.3696,-29.482 -17.0816,-68.2891 -14.9157,-86.238 4.4342,-36.7258 -27.7415,-151.2703 -55.9047,-199.0328 -10.2044,-17.3059 -17.5848,-39.4623 -16.4008,-49.2361 1.1843,-9.7744 -21.4818,-60.5149 -50.3683,-112.7567 -28.8867,-52.2419 -68.3328,-123.487 -87.6581,-158.3235 -19.3253,-34.836 -103.9441,-146.1503 -188.0419,-247.3647 -84.0977,-101.2145 -152.1986,-189.9612 -151.3352,-197.216 2.41,-20.2998 54.7919,-20.2865 288.9364,0.072 163.7258,14.2357 259.9109,28.9058 397.1674,60.5757 224.8361,51.8779 304.241,81.2563 345.7343,127.9158 31.9114,35.8841 32.818,36.14 78.9673,22.3061 55.3844,-16.6026 62.4426,-41.913 28.4669,-102.0813 -36.6466,-64.8994 -50.5779,-83.8718 -130.2403,-177.3736 -127.4288,-149.5651 -167.4429,-180.4973 -435.7568,-336.8549 -57.5593,-33.5424 -110.541,-61.7074 -117.7371,-62.5889 -7.196,-0.8815 -22.3351,-8.0097 -33.6425,-15.8408 -44.2385,-30.639 -133.5515,-66.6667 -210.9613,-85.0994 -44.6161,-10.624 -145.2188,-38.6592 -223.5614,-62.3011 -78.3427,-23.6415 -221.5485,-57.7625 -318.2353,-75.8237 -96.6867,-18.0616 -182.6266,-36.0421 -190.9773,-39.9561 -130.9019,-61.3599 612.9581,-171.6954 1049.1661,-155.6215 125.3363,4.6185 151.3271,-2.736 151.2214,-42.789 -0.072,-27.3418 -14.2388,-41.2181 -89.6385,-87.8044 -114.1211,-70.5104 -345.4876,-155.0524 -522.1809,-190.8065 -197.3321,-39.9303 -673.9416,-99.2644 -830.1209,-103.3429 -73.2931,-1.9143 -213.6487,-7.7995 -311.9013,-13.0787 l -178.641,-9.5978 -43.3064,-61.5526 C 5215.9351,732.09946 5072.5691,649.3015 4863.2956,653.44219 c -262.6344,5.19656 -491.896,168.74854 -554.6841,395.70341 -7.8846,28.5001 -18.5431,56.4522 -23.6858,62.1166 -5.1428,5.6643 -80.7226,26.7435 -167.9554,46.8429 -630.0417,145.1668 -1169.3354,409.9876 -1578.9381,775.3387 -192.9705,172.1233 -344.371,430.9043 -464.2778,793.5647 -51.759,156.5475 -59.033,193.1612 -92.6759,466.4844 -33.9949,276.1873 -40.087,424.1065 -21.5274,522.7173 3.7582,19.9699 13.5783,87.6095 21.8226,150.3103 15.1617,115.3183 75.8466,325.0917 123.9376,428.4221 105.0187,225.6487 209.4941,384.8774 448.7858,683.9836 215.9576,269.9395 423.5294,451.9382 855.2769,749.9059 48.8519,33.7147 102.1147,70.7402 118.3619,82.2789 67.6123,48.0182 322.5755,198.1123 401.3349,236.2616 181.2907,87.8132 372.2894,167.655 515.5849,215.526 123.4408,41.2382 911.9989,138.7842 1045.6569,129.3496 208.8892,-14.7451 551.3897,-110.9883 835.5002,-234.7769 57.7303,-25.1536 118.1455,-44.1191 134.2561,-42.1456 19.3006,2.3642 60.4955,-19.019 120.7754,-62.6915 50.3161,-36.4538 117.5721,-77.6939 149.4577,-91.6447 79.2659,-34.6808 311.3441,-160.7353 374.6949,-203.5176 28.4879,-19.2387 92.2712,-59.2434 141.7406,-88.8994 49.4693,-29.6561 105.8017,-69.6512 125.1828,-88.8783 19.3811,-19.2269 49.6985,-46.8394 67.3718,-61.3608 37.7104,-30.9852 39.7886,-37.9811 17.6927,-59.5614 z" id="path841"/>
  <path style="color:#000000;font-style:normal;font-variant:normal;font-weight:normal;font-stretch:normal;font-size:medium;line-height:normal;font-family:sans-serif;font-variant-ligatures:normal;font-variant-position:normal;font-variant-caps:normal;font-variant-numeric:normal;font-variant-alternates:normal;font-variant-east-asian:normal;font-feature-settings:normal;font-variation-settings:normal;text-indent:0;text-align:start;text-decoration:none;text-decoration-line:none;text-decoration-style:solid;text-decoration-color:#000000;letter-spacing:normal;word-spacing:normal;text-transform:none;writing-mode:lr-tb;direction:ltr;text-orientation:mixed;dominant-baseline:auto;baseline-shift:baseline;text-anchor:start;white-space:normal;shape-padding:0;shape-margin:0;inline-size:0;clip-rule:nonzero;display:inline;overflow:visible;visibility:visible;isolation:auto;mix-blend-mode:normal;color-interpolation:sRGB;color-interpolation-filters:linearRGB;solid-color:#000000;solid-opacity:1;vector-effect:none;fill:#000000;fill-opacity:1;fill-rule:nonzero;stroke:none;stroke-linecap:butt;stroke-linejoin:miter;stroke-miterlimit:4;stroke-dasharray:none;stroke-dashoffset:0;stroke-opacity:1;color-rendering:auto;image-rendering:auto;shape-rendering:auto;text-rendering:auto;enable-background:accumulate;stop-color:#000000" d="m 4882.7852,643.72656 c -6.4983,-0.0453 -13.0582,-0.002 -19.6797,0.12891 -266.5022,5.27309 -499.6627,171.13977 -563.7344,402.73433 -3.8611,13.9564 -8.4285,27.8485 -12.5899,38.7618 -2.0806,5.4566 -4.0658,10.1773 -5.7441,13.6894 -1.4201,2.9719 -2.4401,4.4233 -2.7168,4.8887 -0.505,0.3517 -1.2443,0.892 -2.2539,1.3203 -2.3467,0.9955 -5.8958,2.3117 -10.3437,3.8086 -8.8959,2.9939 -21.4447,6.7591 -36.5665,10.9766 -30.2434,8.4349 -70.8457,18.7054 -114.3378,28.7265 -631.3613,145.4709 -1172.1631,410.9255 -1583.168,777.5274 -194.6739,173.6426 -346.7648,434.0554 -467,797.7089 -51.8148,156.7164 -59.4372,194.9378 -93.0879,468.3243 -34.0286,276.4614 -40.3861,424.9637 -21.4336,525.6621 3.5919,19.0861 13.5061,87.1764 21.7383,149.7851 15.3968,117.1067 75.8683,326.1853 124.7519,431.2188 105.3171,226.2897 210.514,386.5884 449.9922,685.9277 216.5166,270.6382 425.2492,453.6183 857.3164,751.8067 48.8325,33.7012 102.1796,70.7877 118.2559,82.205 69.1996,49.1455 322.3743,198.1628 402.707,237.0743 181.6165,87.9709 372.8208,167.9153 516.7266,215.9902 32.6925,10.9217 104.6735,24.4893 198.2031,39.3105 93.5297,14.8213 207.9294,30.5972 322.6563,44.7891 114.7269,14.1919 229.7638,26.799 324.5703,35.2754 94.8065,8.4764 168.7088,12.9323 203.9414,10.4453 211.078,-14.8996 553.6253,-111.362 838.6543,-235.5508 28.5513,-12.44 57.8444,-23.3756 81.7773,-30.8887 11.9665,-3.7565 22.6067,-6.6566 31.0039,-8.457 8.3972,-1.8004 15.0083,-2.2543 16.4785,-2.0742 13.93,1.7063 29.674,-4.2239 50.6036,-15.0879 20.9296,-10.864 46.5846,-27.3466 76.9629,-49.3555 49.811,-36.0878 117.6112,-77.4709 147.6757,-90.625 80.786,-35.3458 311.1066,-160.3836 376.2188,-204.3554 28.0958,-18.974 91.9794,-59.0535 141.3047,-88.6231 49.9767,-29.9603 105.7478,-69.2077 127.0039,-90.2949 19.0904,-18.9385 49.4844,-46.6068 66.707,-60.7578 19.0619,-15.6625 30.4729,-24.8437 34.377,-37.9863 1.952,-6.5714 0.6529,-13.8664 -2.5332,-19.5918 -3.1862,-5.7255 -7.7761,-10.6235 -13.5391,-16.252 -7.8968,-7.7127 -18.5997,-12.2816 -31.7207,-12.3437 -13.121,-0.062 -29.0686,3.2975 -52.332,9.5937 -30.9255,8.37 -103.9996,21.7494 -160.4668,29.2266 -56.9383,7.5395 -141.7188,19.4377 -188.6036,26.4687 -46.7722,7.014 -111.5369,16.6929 -143.9062,21.5059 -60.6128,9.0124 -454.2319,46.0188 -568.5566,53.3183 -40.6682,2.5967 -72.3152,-1.6071 -87.4317,-8.2851 -7.5582,-3.339 -9.7536,-6.6759 -9.9785,-7.8164 -0.2249,-1.1405 0.1637,-4.296 6.8828,-10.1289 3.5392,-3.0724 12.9838,-8.5248 24.0762,-13.3262 11.0923,-4.8014 24.08,-9.3195 35.8262,-12.2559 67.2068,-16.8006 226.5153,-88.9081 316.6894,-142.5781 41.7118,-24.8262 100.7469,-57.9156 130.459,-73.1484 56.051,-28.7366 119.8833,-64.1289 169.9707,-93.5293 25.0437,-14.7002 46.6311,-27.888 62.1914,-38.0742 7.7802,-5.0931 14.0342,-9.4119 18.6309,-12.9532 2.2983,-1.7706 4.1689,-3.3183 5.7871,-4.914 1.3717,-1.3527 3.1192,-1.9511 4.1113,-5.9121 0.1131,-0.1449 0.095,-0.1335 0.2852,-0.3536 0.8917,-1.0337 2.5413,-2.7325 4.7226,-4.789 4.3627,-4.113 10.8917,-9.7569 18.9375,-16.3535 16.0917,-13.1933 38.3107,-30.2779 62.5977,-47.9199 80.4833,-58.4628 153.6347,-119.2245 231.0527,-191.9083 6.7794,-6.3648 11.9989,-11.2546 16.0371,-16.0156 4.0383,-4.7609 7.2968,-9.9132 7.7832,-16.2324 0.4864,-6.3192 -2.05,-11.9765 -5.4023,-17.0742 -3.3524,-5.0977 -7.8158,-10.314 -13.586,-17.0879 v 0 c -9.894,-11.6148 -21.0381,-20.1593 -35.955,-25.75 -14.9169,-5.5906 -33.29,-8.541 -59.3164,-10.873 -37.1832,-3.3317 -81.8788,-1.2846 -104.9043,6.3027 -22.9804,7.5725 -92.2202,20.9195 -162.4161,32.041 -70.1958,11.1216 -142.8781,20.3873 -174.2031,21.2481 -13.4493,0.3696 -23.509,0.593 -30.4922,0.2637 -6.9832,-0.3294 -10.6035,-1.5276 -11.1582,-1.8789 -0.5547,-0.3514 -0.3173,0.63 -0.5488,-2.4493 -0.2315,-3.0792 0.3159,-9.0574 1.3223,-17.2734 0.998,-8.1473 3.5728,-17.0787 6.7734,-24.3184 3.2006,-7.2396 7.5385,-12.764 9.1172,-13.8945 20.0268,-14.3414 44.3191,-43.8053 90.3164,-106.8691 17.1429,-23.5032 47.8591,-62.3031 67.7109,-85.5235 20.2868,-23.7291 40.7139,-49.3387 47.5059,-60.4629 13.8728,-22.7208 62.2644,-103.7467 103.1328,-172.6757 9.4984,-16.0203 18.4085,-33.1836 25.2285,-48.1641 6.82,-14.9806 11.6219,-26.8474 12.7735,-36.2481 0.5132,-4.1898 4.1615,-16.3056 9.5859,-29.8769 5.4244,-13.5713 12.5865,-29.272 20.0527,-43.5488 18.7133,-35.7837 36.3055,-96.0125 52.3809,-169.0137 16.0753,-73.0012 30.3566,-158.4859 41.1797,-243.2461 10.8231,-84.7602 18.1858,-168.761 20.373,-238.8398 2.1873,-70.0789 -0.2397,-125.4875 -11.2129,-156.6856 -9.9251,-28.2182 -16.1275,-67.9267 -14.4414,-81.9062 v 0 c 2.6895,-22.2806 -4.8551,-59.3865 -16.0156,-99.1191 -11.1608,-39.7337 -26.175,-80.5379 -41.1484,-105.9317 -4.7066,-7.982 -8.8864,-17.3583 -11.6329,-25.6035 -2.7465,-8.2451 -3.7117,-15.9423 -3.5097,-17.6094 0.8545,-7.0523 -1.2123,-11.3239 -3.7676,-18.6914 -2.5553,-7.3674 -6.2639,-16.4424 -10.9023,-26.8261 -9.2769,-20.7675 -22.2588,-46.6894 -36.8243,-73.0313 -28.889,-52.2461 -68.3355,-123.49 -87.666,-158.3359 -10.4408,-18.8208 -36.302,-54.9779 -70.4824,-99.9414 -34.1804,-44.9636 -76.4255,-98.1782 -118.5684,-148.8985 -41.9815,-50.5262 -79.9775,-97.9509 -107.2968,-133.5527 -13.6597,-17.8009 -24.6601,-32.6641 -32.0801,-43.3594 -3.71,-5.3476 -6.5329,-9.6788 -8.2539,-12.6172 -0.3748,-0.6399 -0.4635,-0.8685 -0.7266,-1.3593 0.769,-0.5726 2.3609,-1.499 5.5078,-2.3946 7.1558,-2.0365 20.7529,-3.4349 41.7051,-3.4297 41.9045,0.01 113.5301,5.0722 230.541,15.2461 163.4824,14.2146 258.9094,28.7721 395.8418,60.3672 224.5453,51.8108 301.9397,81.3314 340.7246,124.9453 15.9782,17.9673 24.8862,28.7495 38.7032,32.6524 13.8169,3.9029 27.0748,-0.6067 50.1816,-7.5332 v 0 c 14.4342,-4.327 26.1671,-9.2855 35.4042,-15.8731 9.2372,-6.5876 15.9653,-15.2014 18.8204,-25.4394 5.71,-20.476 -2.7534,-43.8351 -20.1641,-74.668 v 0 c -36.7648,-65.1087 -51.5713,-85.3078 -131.2911,-178.877 -127.6481,-149.8225 -169.7976,-182.4961 -438.2285,-338.9218 -28.8767,-16.8278 -56.5904,-32.2978 -78.082,-43.7227 -10.7458,-5.7124 -19.9229,-10.4096 -27.0078,-13.7969 -3.5425,-1.6936 -6.5531,-3.0576 -9.0821,-4.0918 -2.5289,-1.0341 -3.9736,-1.8105 -7.2265,-2.2089 -1.3076,-0.1602 -6.7501,-1.8306 -12.3613,-4.4727 -5.6112,-2.6421 -11.8617,-6.1839 -16.9883,-9.7344 -46.3119,-32.075 -135.6674,-67.845 -214.1992,-86.5449 -44.0781,-10.4959 -144.8356,-38.5607 -223.0118,-62.1523 -78.9937,-23.838 -222.0965,-57.9227 -319.2461,-76.0704 -48.2828,-9.0195 -93.8893,-18.0197 -128.4101,-25.2421 -17.2604,-3.6113 -31.7563,-6.7791 -42.3711,-9.2676 -5.3074,-1.2443 -9.6522,-2.3226 -12.8184,-3.1777 -3.1661,-0.8552 -5.6084,-1.7786 -5.0683,-1.5254 v 0 c -7.1415,-3.3475 -9.6318,-6.6165 -9.7246,-6.8535 -0.093,-0.237 -0.8037,0.2616 2.1172,-2.7246 5.8417,-5.9724 25.3087,-15.8904 53.8437,-25.0781 57.0699,-18.3756 151.2322,-37.4464 263.0176,-54.0274 223.5708,-33.1619 518.3934,-56.6756 735.4902,-48.6758 62.8797,2.3171 100.8877,1.9988 125.6152,-4.998 12.3638,-3.4984 21.9045,-9.1511 27.8516,-17.6367 5.9472,-8.4856 7.7245,-18.7108 7.6953,-29.7617 -0.04,-15.3226 -5.2491,-29.6004 -19.4492,-43.5098 -14.2,-13.9094 -36.9047,-29.05 -74.7383,-52.4258 -116.1353,-71.7549 -347.3401,-156.0328 -525.3183,-192.0469 -198.4639,-40.1593 -673.6752,-99.4007 -831.7715,-103.5293 -73.0998,-1.9092 -213.4914,-7.7949 -311.6367,-13.0683 l -173.9942,-9.34768 -40.6269,-57.7461 C 5227.4428,731.79333 5084.2321,645.13086 4882.7852,643.72656 Z m -0.1211,19.16602 c 196.1732,1.17808 331.0219,82.67253 473.5703,285.28125 l 45.9863,65.36137 183.2891,9.8457 c 98.3598,5.2849 238.6776,11.1705 312.164,13.0898 154.2623,4.0284 632.2704,63.455 828.4707,103.1563 175.4084,35.494 406.9361,120.2985 519.043,189.5644 37.5662,23.2105 59.6452,38.3017 71.3965,49.8125 11.7513,11.5108 13.6617,17.8421 13.6933,29.8613 0.024,8.9756 -1.4094,14.6912 -4.2226,18.7051 -2.8132,4.0139 -7.5814,7.4219 -17.3692,10.1914 -19.5755,5.5391 -57.2328,6.5886 -119.6894,4.2871 -219.1112,-8.074 -514.3221,15.5419 -739.0078,48.8692 -112.3429,16.6636 -206.8629,35.6766 -266.0821,54.7441 -29.6095,9.5338 -50.1892,18.1784 -61.6757,29.9219 -5.7433,5.8717 -9.4408,15.0163 -6.2617,23.1289 3.179,8.1126 10.2181,12.8963 19.4394,17.2187 2.6278,1.2317 4.6973,1.7279 8.207,2.6758 3.5098,0.9479 8.007,2.058 13.4414,3.3321 10.869,2.548 25.4661,5.7382 42.8204,9.3691 34.7084,7.2617 80.4145,16.2802 128.8183,25.3223 96.224,17.9747 239.533,52.1331 317.2246,75.5781 78.509,23.6921 178.9572,51.6971 224.1113,62.4492 76.2878,18.1655 165.5576,54.4513 207.7227,83.6543 6.1808,4.2806 13.1541,8.2201 19.7383,11.3203 6.5842,3.1002 12.3088,5.4349 18.1973,6.1563 -1.4539,-0.1781 0.33,0.1179 2.3007,0.9238 1.9708,0.8059 4.7325,2.0477 8.0684,3.6426 6.6718,3.1898 15.6852,7.7979 26.2793,13.4297 21.1881,11.2635 48.7451,26.6447 77.4277,43.3593 268.1969,156.2895 306.0757,185.4815 433.2852,334.7891 79.605,93.4345 92.661,111.179 129.1894,175.8691 16.5651,29.3354 21.5619,48.7179 18.3907,60.0899 -1.5857,5.686 -4.8831,10.2707 -11.4844,14.9785 -6.6014,4.7078 -16.5194,9.1409 -29.7774,13.1152 -23.0425,6.9074 -33.3113,9.1869 -39.4629,7.4492 -6.1513,-1.7375 -13.6534,-9.0255 -29.5859,-26.9414 v 0 c -44.2019,-49.7044 -125.6188,-78.9421 -350.7441,-130.8867 -137.5806,-31.7447 -234.523,-46.5283 -398.4922,-60.7852 -117.1336,-10.1846 -188.7722,-15.3075 -232.1973,-15.3183 -21.7125,-0.01 -36.2964,1.128 -46.957,4.1621 -5.3303,1.517 -9.839,3.546 -13.5117,6.8418 -3.6728,3.2957 -6.0802,8.1076 -6.6211,12.664 -0.558,4.6926 0.6563,5.6501 1.3769,7.2891 0.7208,1.6393 1.5926,3.2443 2.6758,5.0937 2.1665,3.6989 5.1798,8.2815 9.0469,13.8555 7.7341,11.1481 18.8513,26.1591 32.6211,44.1035 27.5396,35.8889 65.6436,83.4446 107.7597,134.1328 41.955,50.4941 84.068,103.5419 118.0528,148.2481 33.9847,44.7062 60.096,81.6254 68.9804,97.6406 19.3201,34.8271 58.768,106.0729 87.6524,158.3106 14.321,25.8998 27.1139,51.4693 36.0957,71.5761 4.4909,10.0534 8.0307,18.7611 10.2949,25.2891 2.2642,6.528 2.5873,12.2648 2.8496,10.0996 -0.982,8.1067 1.1528,16.3736 4.3516,25.9766 3.1988,9.6029 7.8108,19.9593 13.3086,29.2832 13.1897,22.3687 28.3457,62.7163 39.2051,101.3769 10.8593,38.6606 17.1835,77.1913 15.4394,91.6367 -2.645,21.9197 4.5769,59.8237 15.3906,90.5684 8.7458,24.8654 12.295,80.5093 10.1348,149.7226 -2.1602,69.2134 -9.4688,152.7456 -20.2285,237.0098 -10.7598,84.2642 -24.9729,169.2939 -40.8848,241.5527 -15.9119,72.2589 -33.7991,132.0344 -50.6465,164.25 -7.8051,14.925 -15.178,31.0846 -20.8672,45.3184 -5.6891,14.2339 -9.735,25.8687 -10.8124,34.6641 -0.4391,3.5846 -4.6955,16.3641 -11.1915,30.6328 -6.4959,14.2687 -15.157,30.9575 -24.2714,46.3301 -40.8437,68.8873 -89.3659,150.1232 -103.0059,172.4629 -4.2748,7.0014 -25.796,34.6976 -45.7129,57.9941 -20.3518,23.8052 -50.988,62.4996 -68.6289,86.6855 -45.7417,62.7134 -70.4219,91.429 -85.9883,102.5762 -7.0616,5.0569 -11.5063,12.7164 -15.4922,21.7324 -3.9859,9.016 -7.0023,19.4112 -8.2675,29.7403 -1.0169,8.3017 -1.8813,14.7774 -1.4102,21.0429 0.4711,6.2656 3.5258,13.4848 9.4082,17.211 5.8824,3.7261 12.3187,4.4474 20.5156,4.834 8.1969,0.3865 18.4416,0.1205 31.9239,-0.25 34.1803,-0.9393 106.1046,-10.2956 176.6757,-21.4766 70.5712,-11.181 138.2576,-23.8177 165.418,-32.7676 16.1157,-5.3104 62.3626,-8.5367 97.1914,-5.416 25.3567,2.272 42.23,5.206 54.2969,9.7285 12.0669,4.5225 19.6452,10.3195 28.0879,20.2305 5.7376,6.7357 9.898,11.7485 12.1621,15.1914 2.2641,3.4429 2.3378,4.6366 2.3047,5.0664 -0.033,0.4298 -0.4253,1.9248 -3.2871,5.2988 -2.8619,3.374 -7.7932,8.1061 -14.5391,14.4395 -76.9122,72.2088 -149.3546,132.3776 -229.1973,190.375 -24.5491,17.8325 -46.9806,35.0728 -63.4863,48.6054 -8.2528,6.7664 -15.0079,12.5849 -19.9336,17.2286 -2.4628,2.3218 -4.4569,4.3261 -6.0879,6.2168 -0.8155,0.9453 -1.5429,1.8467 -2.2597,2.957 -0.3371,0.5221 -0.722,1.0653 -1.0762,1.7891 0.045,0.1382 0.1926,0.1969 -0.01,0.3925 -0.028,0.028 -0.1426,0.1164 -0.1738,0.1465 -0.3151,0.7573 -0.6141,1.6176 -0.7813,2.9824 0.1583,-1.292 0.3374,-2.1618 0.5059,-2.7519 -0.7328,0.687 -1.8505,1.6686 -3.5762,2.998 -3.885,2.9931 -9.878,7.1581 -17.4297,12.1016 -15.1032,9.887 -36.5231,22.9799 -61.3964,37.5801 -49.7467,29.2004 -113.392,64.4874 -169.0137,93.0039 -30.5577,15.6663 -89.412,48.6738 -131.5176,73.7344 -88.0579,52.4104 -250.1769,125.1155 -311.5312,140.4531 -12.9863,3.2464 -26.7355,8.0406 -38.793,13.2597 -12.0575,5.2192 -22.177,10.495 -29.0293,16.4434 -9.325,8.0951 -15.172,17.9481 -13.127,28.3184 2.0451,10.3702 10.6252,17.0461 21.043,21.6484 20.8357,9.2046 53.9438,12.5919 96.4043,9.8809 115.6211,-7.3823 505.3021,-43.8455 570.1543,-53.4883 32.3879,-4.8158 97.1486,-14.4945 143.9297,-21.5098 46.669,-6.9986 131.4842,-18.9018 188.2754,-26.4219 57.2619,-7.5824 129.7304,-20.7327 162.9609,-29.7265 22.7181,-6.1486 37.6813,-8.973 47.2324,-8.9278 9.5512,0.045 13.2809,1.8751 18.4122,6.8868 5.2849,5.1616 8.7214,9.2334 10.1816,11.8574 1.4602,2.624 1.4275,3.0583 0.9082,4.8066 -1.0387,3.4967 -9.5214,13.3081 -28.1699,28.6309 -18.1241,14.8917 -48.3653,42.4456 -68.0371,61.9609 -17.5062,17.367 -74.3976,58.111 -123.3594,87.4629 -49.6135,29.7424 -113.2978,69.6723 -142.1777,89.1758 -61.5894,41.5928 -295.4261,168.6639 -373.1719,202.6797 -33.7067,14.7475 -100.4191,55.8443 -151.2402,92.664 -29.9017,21.6637 -54.9839,37.7106 -74.5469,47.8653 -19.563,10.1546 -34.0669,13.7321 -39.4375,13.0742 -6.5851,-0.8067 -13.5662,0.3708 -22.8321,2.3574 -9.2658,1.9867 -20.3591,5.0297 -32.7265,8.9121 -24.7349,7.7648 -54.5144,18.89 -83.6934,31.6035 -283.192,123.3885 -625.6453,219.4114 -832.3457,234.002 -31.5964,2.2303 -106.3858,-1.9673 -200.8828,-10.416 -94.497,-8.4487 -209.3738,-21.037 -323.9238,-35.2071 -114.55,-14.17 -228.7903,-29.9251 -322.0098,-44.6972 -93.2195,-14.7721 -166.0991,-28.8612 -195.1269,-38.5586 -142.6853,-47.6671 -333.4784,-127.4051 -514.4434,-215.0606 -77.186,-37.3872 -333.9379,-188.5583 -399.9629,-235.4492 -16.4181,-11.66 -69.5954,-48.6254 -118.4668,-82.3535 -431.4277,-297.747 -637.8376,-478.763 -853.2363,-748.0039 -239.1052,-298.8731 -342.8597,-457.0334 -447.5801,-682.041 -47.2984,-101.6273 -108.1984,-312.0951 -123.125,-425.625 -8.2564,-62.7929 -17.9817,-129.9803 -21.9062,-150.834 -18.1667,-96.5233 -12.3401,-243.8603 21.6211,-519.7734 33.6351,-273.26 40.5604,-308.2679 92.2636,-464.6465 119.5784,-361.6672 270.2896,-618.8141 461.5567,-789.418 408.2004,-364.1003 945.9868,-628.2896 1574.7089,-773.1523 43.7407,-10.0784 84.5433,-20.3958 115.1836,-28.9414 15.3202,-4.2728 28.0835,-8.0938 37.5313,-11.2735 4.7239,-1.5898 8.6051,-3.0101 11.7168,-4.3301 3.1117,-1.3199 4.8924,-1.2563 8.4687,-5.1953 2.8157,-3.1013 4.3015,-6.1858 6.3145,-10.3984 2.013,-4.2126 4.149,-9.323 6.3613,-15.125 4.4247,-11.604 9.1288,-25.9387 13.1524,-40.4824 61.5045,-222.31516 286.8661,-383.55382 545.6328,-388.67386 6.4581,-0.12778 12.8515,-0.17276 19.1797,-0.13476 z m 1788.205,1689.58402 c 0.02,0.046 -0.022,0.4341 -0.01,0.5156 -0.023,-0.049 -0.1168,-0.211 -0.1348,-0.252 -0.1115,-0.2535 0.029,-0.527 0.1406,-0.2636 z" id="path843"/>
</g>
    <g><metadata xmlns:rdf="http://www.w3.org/1999/02/22-rdf-syntax-ns#" xmlns:cc="http://creativecommons.org/ns#" xmlns:dc="http://purl.org/dc/elements/1.1/" id="metadata33">
    <rdf:RDF>
      <cc:Work rdf:about="">
        <dc:format>image/svg+xml</dc:format>
        <dc:type rdf:resource="http://purl.org/dc/dcmitype/StillImage"/>
      </cc:Work>
    </rdf:RDF>
  </metadata>
  <sodipodi:namedview xmlns:sodipodi="http://sodipodi.sourceforge.net/DTD/sodipodi-0.dtd" xmlns:inkscape="http://www.inkscape.org/namespaces/inkscape" pagecolor="#ffffff" bordercolor="#666666" borderopacity="1" objecttolerance="10" gridtolerance="10" guidetolerance="10" inkscape:pageopacity="0" inkscape:pageshadow="2" inkscape:window-width="1920" inkscape:window-height="1017" id="namedview31" showgrid="false" inkscape:zoom="0.13343799" inkscape:cx="2957.5" inkscape:cy="3185" inkscape:window-x="-8" inkscape:window-y="-8" inkscape:window-maximized="1" inkscape:current-layer="svg29"/>
  <path d="m 5815,2180 q -150,560 -210,860 l -145,75 -490,280 h -15 q -115,0 -660,-310 l -530,-315 -40,15 -35,-20 -40,20 5,80 q -45,455 45,995 l -10,10 -5,-5 25,55 35,200 25,115 25,85 v 25 l 65,245 70,145 30,145 -15,-20 25,65 35,130 -5,90 h 10 v -65 l 40,235 -650,225 -840,305 -155,30 -60,-5 -165,-280 -35,-100 -165,-385 -90,-195 -110,-355 -10,-30 v -25 -15 q -5,-120 -75,-275 l -60,-180 q -85,-205 -285,-570 l -60,-280 v -310 q -100,-1375 20,-1850 h -10 l 55,-125 140,-180 h 30 l 195,-10 245,10 h 5 5 v -15 l 25,-115 h -5 l 15,-15 10,-35 10,15 70,-60 355,-150 290,-115 845,-225 125,35 235,75 q 245,110 350,150 l 75,35 305,160 395,210 q 190,55 395,210 l 15,10 430,805 -10,165 -90,325 m -105,-470 -195,-370 -140,-290 -15,-10 -20,-10 -35,10 q -120,395 -770,695 l -175,90 -110,65 30,165 -10,55 -385,170 -275,155 25,120 v 5 l 25,5 5,10 v 10 l 5,5 q 85,145 505,380 440,250 660,310 l 120,40 255,-105 190,-85 5,-55 10,10 75,-215 70,-340 q 120,-450 150,-820 m -4200,-725 -10,30 -15,20 -90,165 q -45,190 -55,460 l -35,350 50,170 5,25 -5,15 v 30 80 l 15,65 v 100 l 90,-10 90,-30 45,-15 5,-5 120,-5 30,5 210,15 205,-5 140,-5 100,-25 120,10 -20,-40 Q 2340,2050 2225,1705 2060,1210 2070,965 h -20 l -175,-5 h -45 -90 l -165,5 h -55 l -10,20 m 85,1500 -25,30 -25,-5 -15,15 -65,30 h -5 l -90,65 v 25 h 5 l -20,105 q -20,140 -5,355 l 10,110 75,325 150,285 10,15 150,260 140,55 10,-5 20,10 275,-45 -10,-25 h 35 5 l 10,15 35,-5 75,-10 120,-25 420,-80 520,-100 70,-20 v -5 l 50,-15 h 10 l 30,-25 h 5 l 10,-40 -5,-85 15,-20 -10,-760 5,-20 -100,-340 -10,-5 v -5 l -10,-50 -15,-20 -50,-10 -540,90 -205,55 -80,-90 -15,-30 -720,-15 h -15 l -225,10 m 1855,-2060 60,-5 95,10 q 70,70 200,140 l 100,45 50,20 q 110,365 285,1210 330,-140 505,-250 295,-185 450,-585 L 5135,930 4620,670 4100,425 3935,350 h -10 l -125,-50 -25,-10 -110,-30 -55,-5 q -165,10 -735,180 l -285,75 -60,25 350,-55 565,-55 h 5 m -770,1960 q 75,85 125,85 190,0 690,-155 l 550,-185 25,-65 q 55,-125 55,-275 v -55 Q 4100,1430 3865,670 l -50,-55 Q 3715,505 3650,505 l -280,-35 h -5 l -80,5 -30,5 -520,70 -365,65 -115,55 v 25 q -140,40 -20,495 40,320 230,785 l 160,350 45,50 10,10 m -570,-1825 15,-15 -30,5 15,10 m -535,265 v 5 l 30,-10 -30,5 m 180,2220 v -5 l 5,10 -5,-5 m 1210,2550 155,-50 -75,45 15,-5 70,-20 50,-20 245,-100 495,-265 -5,-90 h -5 l -15,-50 v -35 l -5,-30 q -10,-270 -80,-425 -35,-160 -110,-310 l 10,-20 25,95 -15,-95 -60,-165 -15,-20 -20,-20 -15,-30 -95,-35 -30,-10 -710,140 -255,50 -35,-10 -65,15 -50,5 h -65 -45 -60 q -75,10 -115,45 l -85,5 15,10 -70,25 q 0,35 -15,60 l -15,25 -55,40 v 105 l 20,50 q 15,180 140,460 l 20,60 q 195,580 350,675 v 5 h 5 l 60,15 h 10 v 5 l 55,-5 5,-5 85,-15 185,-40 v -10 l 15,-5 10,-5 v 5 l 20,-10 h 10 l 10,-5 v 5 l 15,-10 90,-30 m 990,-480 5,-5 h -5 v 5" fill="#000000" fill-rule="evenodd" stroke="none" id="path14" style="stroke-width:100"/>
  <path d="m 1595,2440 -45,15 -90,30 -90,10 v -100 l -15,-65 v -80 -30 l 5,-15 -5,-25 -50,-170 35,-350 q 10,-270 55,-460 l 90,-165 15,-20 10,-30 q -50,335 20,925 l 40,295 5,155 20,80 m 620,1650 h -35 l 10,25 -275,45 -20,-10 -10,5 -140,-55 -150,-260 -10,-15 -150,-285 -75,-325 -10,-110 q -15,-215 5,-355 l 20,-105 h -5 v -25 l 90,-65 h 5 l 65,-30 15,-15 25,5 25,-30 q 75,345 270,830 195,490 350,775 m 1560,-3800 -295,115 -30,20 h -5 l -565,55 -350,55 60,-25 285,-75 q 570,-170 735,-180 l 55,5 110,30 m -520,190 150,650 q 65,325 255,865 l -215,120 q -320,160 -680,265 l -85,5 -10,-10 -45,-50 -160,-350 q -190,-465 -230,-785 -120,-455 20,-495 v -25 l 115,-55 365,-65 520,-70 m -1500,2565 5,5 -5,-10 v 5 m 550,1095 210,415 -40,-65 q 205,355 295,635 l 5,5 q 160,355 190,465 l -90,30 -15,10 v -5 l -10,5 h -10 l -20,10 v -5 l -5,-5 v -10 l -5,20 -15,5 v 10 l -185,40 -85,15 -5,5 -55,5 v -5 h -10 l -60,-15 h -5 v -5 q -155,-95 -350,-675 l -20,-60 q -125,-280 -140,-460 l -20,-50 v -105 l 55,-40 15,-25 q 15,-25 15,-60 l 70,-25 -15,-10 85,-5 q 40,-35 115,-45 h 60 45" fill="#cf0e48" fill-rule="evenodd" stroke="none" id="path16" style="stroke-width:100"/>
  <path d="m 5710,1710 q -30,370 -150,820 l -70,340 -75,215 -10,-10 -5,55 -190,85 -255,105 -120,-40 q -220,-60 -660,-310 -420,-235 -505,-380 l -5,-5 v -10 l -5,-10 -25,-5 v -5 l -25,-120 275,-155 385,-170 10,-55 -30,-165 110,-65 175,-90 q 650,-300 770,-695 l 35,-10 20,10 15,10 140,290 195,370 m -4115,730 -20,-80 -5,-155 -40,-295 q -70,-590 -20,-925 l 10,-20 h 55 l 165,-5 h 90 45 l 175,5 h 20 q -10,245 155,740 115,345 280,680 l 20,40 -120,-10 -100,25 -140,5 -205,5 -210,-15 -30,-5 -120,5 -5,5 m 0,45 225,-10 h 15 l 720,15 15,30 80,90 205,-55 540,-90 50,10 15,20 10,50 v 5 l 10,5 100,340 -5,20 10,760 -15,20 5,85 -10,40 h -5 l -30,25 h -10 l -50,15 v 5 l -70,20 -520,100 -420,80 -120,25 -75,10 -35,5 -10,-15 h -5 q -155,-285 -350,-775 -195,-485 -270,-830 m 2180,-2195 25,10 125,50 h 10 l 165,75 520,245 515,260 60,80 q -155,400 -450,585 -175,110 -505,250 -175,-845 -285,-1210 l -50,-20 -100,-45 Q 3675,500 3605,430 l -95,-10 -60,5 30,-20 295,-115 m -520,190 30,-5 80,-5 h 5 l 280,35 q 65,0 165,110 l 50,55 q 235,760 260,1065 v 55 q 0,150 -55,275 l -25,65 -550,185 q -500,155 -690,155 -50,0 -125,-85 l 85,-5 q 360,-105 680,-265 l 215,-120 Q 3470,1455 3405,1130 L 3255,480 m -950,3660 h 65 l 50,-5 65,-15 35,10 255,-50 710,-140 30,10 95,35 15,30 20,20 15,20 60,165 15,95 -25,-95 -10,20 q 75,150 110,310 70,155 80,425 l 5,30 v 35 l 15,50 h 5 l 5,90 -495,265 -245,100 -50,20 -70,20 -15,5 75,-45 -155,50 q -30,-110 -190,-465 l -5,-5 q -90,-280 -295,-635 l 40,65 -210,-415 m 515,1500 -10,5 5,-20 v 10 l 5,5" fill="#761432" fill-rule="evenodd" stroke="none" id="path18" style="stroke-width:100"/>
  <defs id="defs27">
    <linearGradient gradientTransform="matrix(0.94,-3.38,1.47,0.41,-9005,-5740)" gradientUnits="userSpaceOnUse" id="gradient0" spreadMethod="pad" x1="-819.2" x2="819.2">
      <stop offset="0.0" stop-color="#635b58" id="stop22"/>
      <stop offset="1.0" stop-color="#d3cebc" id="stop24"/>
    </linearGradient>
  </defs>
</g>
  </g>
</svg>
