<?xml version="1.0" encoding="UTF-8" standalone="no"?>
<svg xmlns:xlink="http://www.w3.org/1999/xlink" height="5420.0px" width="8060.0px" xmlns="http://www.w3.org/2000/svg">
  <g transform="matrix(100.0, 0.0, 0.0, 100.0, 3785.0, 3405.0)">
    <path d="M0.6 -33.85 L0.65 -33.8 2.0 -31.8 3.05 -30.05 4.1 -29.15 4.2 -28.95 4.45 -28.9 Q5.15 -28.55 5.85 -28.55 L7.2 -28.75 9.05 -29.75 Q12.35 -31.65 13.0 -31.65 13.45 -31.65 15.0 -29.75 L15.85 -28.0 16.05 -27.5 16.2 -27.35 16.7 -26.4 Q18.15 -24.15 20.45 -24.15 20.5 -24.15 22.35 -24.9 23.1 -24.5 23.9 -23.7 L26.65 -20.65 Q30.1 -17.0 31.95 -13.7 34.15 -9.8 35.75 -3.75 L40.45 1.45 42.75 5.1 35.45 10.05 28.1 13.55 Q21.45 15.85 20.25 15.85 L19.15 16.1 18.0 16.35 17.15 16.6 16.2 16.8 13.75 17.25 11.7 17.7 4.85 18.95 -7.0 20.15 -12.9 20.0 -17.95 19.65 Q-21.5 19.15 -24.65 18.05 L-25.25 17.95 -25.25 17.85 -25.3 17.8 -26.95 17.25 Q-30.0 15.3 -32.3 12.35 -36.55 6.95 -37.55 -0.5 L-37.85 -5.2 -37.55 -9.85 Q-36.6 -17.15 -32.8 -22.85 -30.4 -26.45 -27.35 -28.4 -22.7 -30.85 -18.9 -30.85 L-17.65 -30.95 -17.05 -30.9 -16.1 -30.75 -15.55 -30.8 -13.8 -30.65 -13.55 -30.7 -11.75 -30.65 -8.35 -31.25 -6.4 -31.65 -6.1 -31.8 -4.75 -32.0 Q-3.6 -32.0 0.45 -34.05 L0.6 -33.85 M30.5 -6.9 L29.8 -7.45 29.3 -7.9 29.2 -8.05 27.55 -9.45 24.35 -11.4 Q20.9 -13.25 15.75 -15.25 13.1 -16.5 8.25 -20.35 L7.7 -20.95 6.35 -22.4 6.2 -22.55 3.3 -25.65 3.2 -25.75 3.1 -25.9 3.0 -26.0 2.15 -27.25 1.25 -28.75 1.15 -28.95 0.4 -30.5 0.45 -30.6 0.2 -31.2 -0.05 -31.5 -0.1 -31.6 -0.1 -31.65 -1.6 -30.85 -4.4 -29.85 -8.6 -28.2 -8.5 -28.0 -8.8 -28.0 -8.5 -27.05 Q-7.95 -25.55 -6.75 -23.8 L-6.6 -23.6 Q-4.75 -19.85 -3.3 -18.35 L-2.75 -17.8 -0.5 -15.75 0.95 -14.3 1.7 -13.75 1.8 -13.65 2.15 -13.3 2.75 -12.8 Q3.8 -12.0 5.35 -11.1 L5.45 -11.15 Q6.9 -10.15 8.6 -9.35 L8.65 -9.35 11.75 -7.65 12.35 -7.3 12.4 -7.3 13.05 -6.9 18.05 -4.0 22.4 -1.4 22.5 -1.5 23.2 -0.95 23.15 -0.95 24.65 -0.05 25.85 1.05 26.45 1.55 27.4 2.5 27.55 2.6 28.4 3.4 28.6 3.6 31.65 6.55 31.35 6.85 27.1 10.4 24.55 12.35 Q26.15 11.65 27.85 11.15 L29.4 10.45 30.15 10.15 30.5 9.95 34.45 8.2 34.5 8.2 34.8 8.0 35.45 7.6 36.0 7.3 37.25 6.55 39.45 4.8 39.85 4.5 39.95 4.35 38.5 2.5 37.2 0.55 36.65 -0.3 36.45 -0.55 35.5 -1.6 35.15 -1.95 35.1 -2.0 32.65 -4.7 31.15 -6.3 31.0 -6.45 30.5 -6.9 M7.15 -25.25 Q6.45 -24.65 6.85 -23.65 7.2 -22.65 8.65 -21.3 L9.85 -20.25 10.05 -20.1 10.9 -19.4 Q13.1 -17.8 15.9 -16.3 L16.75 -15.85 Q18.9 -14.4 21.15 -13.15 L22.2 -13.1 22.4 -13.1 22.5 -13.1 23.1 -13.1 Q23.55 -13.2 23.6 -13.7 L19.9 -18.65 18.25 -20.9 14.25 -26.45 12.95 -28.25 12.65 -28.35 12.3 -28.6 9.1 -27.05 Q8.0 -26.5 7.15 -26.2 L7.4 -25.95 7.4 -25.8 7.15 -25.25 M19.15 -22.05 Q19.75 -20.85 20.5 -19.7 L21.95 -17.45 23.7 -15.05 24.4 -14.15 Q29.05 -8.4 33.25 -6.4 L30.35 -12.8 28.95 -15.5 Q27.05 -18.9 25.3 -20.7 23.25 -22.8 21.35 -22.8 L20.15 -22.4 19.15 -22.05 M-36.15 -11.5 L-36.4 -10.35 -36.7 -8.4 -36.8 -7.75 -36.9 -6.5 -36.7 -6.45 -36.8 -6.2 -36.9 -6.2 -37.0 -4.0 -36.85 -1.35 -36.8 -1.0 -36.8 -0.95 -36.6 -0.9 -36.55 -0.55 -36.7 -0.55 -36.7 -0.4 -36.65 -0.3 -36.65 -0.15 Q-35.9 3.35 -33.75 6.8 L-31.95 9.3 Q-29.75 12.05 -27.7 13.75 L-25.95 14.95 -25.85 14.95 Q-23.25 14.95 -21.65 7.9 L-19.05 -6.25 Q-18.8 -7.45 -17.0 -8.4 L-15.6 -9.0 -15.3 -9.0 -12.0 -9.95 -9.7 -10.25 -6.85 -11.05 -6.6 -11.15 -4.1 -11.65 Q0.0 -12.65 0.0 -13.85 L0.0 -13.9 0.25 -14.0 0.0 -14.2 -0.15 -14.5 -0.4 -14.55 -2.55 -16.55 -3.65 -17.75 Q-5.65 -20.05 -7.2 -22.8 L-7.85 -24.0 -8.8 -25.95 -9.65 -27.95 -9.75 -27.95 -9.8 -28.05 -9.7 -28.1 -9.8 -28.05 Q-10.35 -28.5 -11.7 -28.6 L-12.6 -28.4 -12.75 -28.45 -14.9 -28.6 -16.15 -28.25 -16.15 -28.35 -16.0 -28.4 -19.35 -27.95 -19.25 -27.8 -21.5 -27.75 -22.65 -27.0 Q-24.5 -26.35 -26.25 -25.3 L-26.55 -25.1 -27.55 -24.5 -29.1 -23.35 -29.7 -22.8 -30.4 -22.15 -30.55 -22.05 -30.65 -21.95 -30.75 -21.85 -31.85 -20.65 -32.4 -19.9 -33.55 -18.2 -33.65 -18.05 -33.85 -17.75 -33.95 -17.55 -34.1 -17.25 -34.25 -17.0 -34.3 -16.85 -34.45 -16.55 -34.5 -16.4 -35.85 -12.8 -36.2 -11.45 -36.15 -11.5 M4.65 -10.15 L4.7 -10.15 4.95 -10.4 5.0 -10.5 5.05 -10.55 2.5 -12.4 2.45 -12.45 2.2 -12.6 2.15 -12.6 1.7 -12.9 1.55 -13.05 1.4 -13.15 1.25 -13.2 0.45 -12.8 -0.4 -12.45 -3.95 -11.3 Q-7.45 -10.15 -8.25 -10.15 L-11.8 -9.6 -13.25 -9.25 -13.8 -9.1 -13.8 -9.0 -14.1 -8.85 -14.1 -8.8 -14.15 -9.0 -16.2 -8.3 -16.3 -8.25 -16.4 -8.2 -17.45 -7.65 -18.15 -7.05 -18.5 -6.4 -21.3 7.65 -21.6 9.2 -21.65 9.4 -21.65 9.45 Q-22.3 12.1 -23.2 13.6 L-23.3 13.75 Q-24.2 15.05 -25.3 15.3 L-24.9 15.5 -24.7 15.6 -24.55 15.7 -24.0 15.95 -23.4 16.15 -22.3 16.55 -22.0 16.65 -21.8 16.6 -20.9 16.75 Q-19.25 16.75 -17.8 13.9 L-16.4 10.35 -16.3 10.1 -16.25 9.9 -16.2 9.7 -15.25 5.85 -14.95 4.3 -14.45 0.45 -14.45 0.35 -14.45 0.2 -14.3 -1.45 -14.2 -3.7 -13.7 -4.0 Q-13.4 -4.1 -12.95 -4.3 L-12.6 -4.45 -12.45 -4.5 -11.85 -4.6 -10.35 -5.0 -10.15 -5.05 -9.65 -5.1 -9.25 -5.15 -8.15 -5.4 -7.55 -5.55 -7.15 -5.85 -7.0 -5.75 -8.3 -5.15 -8.2 -5.15 -4.3 -6.45 -1.9 -7.4 -1.45 -7.55 -0.4 -7.85 -0.25 -7.9 Q0.85 -8.05 3.7 -9.7 4.05 -9.7 4.6 -10.1 L4.65 -10.15 M9.1 -8.2 L6.95 -9.4 6.95 -9.45 6.9 -9.45 6.6 -9.6 6.3 -9.75 5.6 -10.0 Q5.2 -10.0 1.35 -8.3 L0.5 -7.95 0.35 -7.85 Q-3.2 -6.35 -4.3 -6.0 L-8.55 -5.0 -9.9 -4.5 -12.0 -4.15 -12.5 -3.95 -6.5 -3.2 -4.5 -2.65 -0.4 -1.55 Q2.7 -0.2 6.25 1.25 L6.6 1.4 7.35 0.8 9.15 -0.3 9.9 -0.75 13.75 -2.75 16.1 -4.15 16.3 -4.3 16.35 -4.35 15.7 -4.7 11.85 -6.75 9.1 -8.2 M11.65 4.35 L12.35 3.95 13.05 3.55 13.85 3.15 13.8 3.15 16.6 1.6 Q17.45 1.1 21.85 -1.15 L21.7 -1.25 16.75 -4.15 11.05 -0.7 Q9.1 0.5 7.25 1.65 L7.1 1.8 7.05 1.8 5.8 2.6 3.1 4.4 1.25 5.65 -1.2 7.35 -4.9 10.15 -5.1 10.35 -5.7 11.0 Q-7.0 11.75 -7.75 12.45 L-8.2 13.0 -8.45 13.3 -8.5 13.35 -8.85 13.6 -9.35 13.95 -8.95 14.1 -8.45 14.3 Q-4.85 15.55 -1.1 16.15 L-0.7 16.25 -0.25 16.3 4.55 16.75 4.55 16.85 5.15 16.65 5.1 16.65 4.75 16.55 6.05 16.25 6.25 16.3 7.25 15.9 7.3 15.9 7.85 15.7 9.4 15.0 5.05 14.45 3.7 14.2 Q1.05 13.65 -0.75 12.9 L-1.2 12.7 1.45 10.8 Q4.1 8.9 7.2 7.0 L10.9 4.8 11.65 4.35 M28.85 7.95 L30.05 6.6 29.6 6.05 27.9 4.05 26.75 2.85 26.2 2.25 25.5 1.6 24.65 0.8 22.6 -0.65 19.1 0.7 Q15.95 1.9 14.45 3.25 L13.85 3.8 13.8 3.85 14.05 3.8 13.4 4.15 14.4 4.55 15.65 5.05 16.4 5.35 16.85 5.55 16.9 5.55 21.2 7.25 22.55 7.75 22.75 7.8 23.0 7.9 22.55 8.6 19.45 11.95 17.2 13.85 17.0 13.9 15.85 14.5 16.1 14.45 19.6 14.0 20.95 13.5 22.7 12.8 23.5 12.6 Q25.3 11.45 26.3 10.25 L27.7 9.05 27.95 8.85 28.85 7.95 M21.65 9.3 L22.5 8.15 22.45 8.15 22.35 8.1 21.8 7.9 21.1 7.6 20.75 7.5 16.05 5.55 13.05 4.3 Q12.9 4.35 12.8 4.45 11.65 4.65 10.55 5.2 9.3 5.8 8.8 6.45 L8.6 6.75 8.25 6.95 8.7 7.15 13.35 8.9 15.8 9.85 16.1 9.95 16.15 10.1 16.4 9.9 16.45 9.9 15.8 10.65 15.25 11.2 15.15 11.3 14.9 11.65 13.35 12.8 10.7 14.85 6.9 16.35 6.1 16.75 5.85 16.75 3.0 17.55 3.15 17.5 4.9 17.25 6.05 17.1 6.1 17.05 7.3 16.85 8.25 16.7 12.35 15.95 12.55 15.85 Q16.5 14.25 19.4 11.7 L21.65 9.3 M10.75 14.25 L12.35 13.3 13.95 12.15 14.5 11.8 Q15.25 11.3 15.25 10.7 L15.25 10.65 15.4 10.45 15.3 10.3 15.3 10.2 13.15 9.3 7.8 7.2 2.45 10.45 2.4 10.45 1.65 10.95 -0.3 12.35 0.0 12.6 Q1.1 13.35 3.85 13.95 L3.8 13.95 4.45 14.1 5.05 14.2 5.15 14.2 9.9 14.7 10.25 14.55 10.75 14.25 M2.7 4.1 L4.7 2.75 5.35 2.3 6.25 1.65 6.3 1.6 6.4 1.5 1.55 -0.5 -1.65 -1.45 -2.75 -1.75 -5.0 -2.35 -8.9 -3.05 -13.3 -3.6 -13.8 -3.3 -13.85 -2.5 -13.85 -1.65 -13.85 -1.45 -13.9 -0.7 -13.95 0.45 -14.0 0.7 -14.05 1.15 -14.05 1.3 -8.1 2.0 -6.5 2.3 -3.6 2.95 -3.3 3.05 -1.1 3.7 1.85 4.65 2.2 4.4 2.5 4.25 2.7 4.1 M0.9 5.35 L1.5 4.9 Q-1.05 3.85 -4.3 3.1 -9.6 1.85 -13.8 1.8 L-14.1 1.8 -14.5 5.5 -14.85 7.55 -15.75 10.95 -16.0 11.6 -16.8 13.4 -17.55 14.6 -18.05 15.65 -18.25 16.5 -17.95 17.55 -12.2 18.4 -3.5 18.25 -3.45 18.2 Q0.3 17.95 3.55 17.1 L-0.5 16.95 -4.3 16.1 -5.35 15.75 -9.45 14.35 -9.7 14.2 -10.3 13.85 -10.1 13.65 -10.05 13.7 -8.5 12.4 -8.4 12.35 -8.3 12.25 -8.2 12.2 -8.15 12.15 -6.6 11.05 -6.1 10.75 -5.75 10.55 -3.15 8.3 -1.15 6.9 0.9 5.35 M15.65 14.6 L13.6 15.65 18.95 14.2 15.65 14.6" fill="#000000" fill-rule="evenodd" stroke="none"/>
    <path d="M-7.85 -24.0 L-7.2 -22.8 Q-5.65 -20.05 -3.65 -17.75 L-2.55 -16.55 -0.4 -14.55 -0.15 -14.5 0.0 -14.2 0.25 -14.0 0.0 -13.9 0.0 -13.85 Q0.0 -12.65 -4.1 -11.65 L-6.6 -11.15 -6.85 -11.05 -9.7 -10.25 -12.0 -9.95 -15.3 -9.0 -15.6 -9.0 -17.0 -8.4 Q-18.8 -7.45 -19.05 -6.25 L-21.65 7.9 Q-23.25 14.95 -25.85 14.95 L-25.95 14.95 -27.7 13.75 Q-29.75 12.05 -31.95 9.3 L-33.75 6.8 Q-35.9 3.35 -36.65 -0.15 L-36.65 -0.3 -36.7 -0.4 -36.7 -0.55 -36.55 -0.55 -36.6 -0.9 -36.8 -0.95 -36.8 -1.0 -36.85 -1.35 -37.0 -4.0 -36.9 -6.2 -36.8 -6.2 -36.7 -6.45 -36.9 -6.5 -36.8 -7.75 -36.7 -8.4 -36.4 -10.35 -36.15 -11.5 Q-34.4 -14.85 -31.5 -17.65 -26.4 -22.55 -22.55 -23.05 L-10.9 -23.8 -7.85 -24.0" fill="#2c2c27" fill-rule="evenodd" stroke="none"/>
    <path d="M-18.15 -7.05 L-3.65 -8.75 0.75 -9.4 4.65 -10.15 4.6 -10.1 Q4.05 -9.7 3.7 -9.7 0.85 -8.05 -0.25 -7.9 L-0.4 -7.85 -1.45 -7.55 -1.9 -7.4 -4.3 -6.45 -8.2 -5.15 -8.3 -5.15 -7.0 -5.75 -7.15 -5.85 -7.55 -5.55 -8.15 -5.4 -9.25 -5.15 -9.65 -5.1 -10.15 -5.05 -10.35 -5.0 -11.85 -4.6 -12.45 -4.5 -12.6 -4.45 -12.95 -4.3 Q-13.4 -4.1 -13.7 -4.0 L-14.2 -3.7 -14.3 -1.45 -14.45 0.2 -14.45 0.35 -14.45 0.45 -14.95 4.3 -15.25 5.85 Q-19.05 7.7 -20.65 7.7 L-21.3 7.65 -18.5 -6.4 -18.15 -7.05 M-17.8 13.9 Q-19.25 16.75 -20.9 16.75 L-21.8 16.6 -22.0 16.65 -22.3 16.55 -23.4 16.15 -24.0 15.95 -24.55 15.7 -24.7 15.6 -24.9 15.5 -25.3 15.3 Q-24.2 15.05 -23.3 13.75 L-20.15 12.8 Q-20.0 12.8 -18.45 13.55 L-17.8 13.9 M0.5 -7.95 L10.05 -7.7 9.1 -8.2 11.85 -6.75 15.7 -4.7 16.35 -4.35 16.3 -4.3 16.1 -4.15 13.75 -2.75 9.9 -0.75 9.15 -0.3 7.35 0.8 6.6 1.4 6.25 1.25 Q2.7 -0.2 -0.4 -1.55 L-4.5 -2.65 -6.5 -3.2 -12.5 -3.95 -12.0 -4.15 -9.9 -4.5 -8.55 -5.0 -4.3 -6.0 Q-3.2 -6.35 0.35 -7.85 L0.5 -7.95 M1.25 5.65 L3.1 4.4 5.8 2.6 7.05 1.8 7.1 1.8 7.25 1.65 Q9.1 0.5 11.05 -0.7 L16.75 -4.15 21.7 -1.25 21.85 -1.15 Q17.45 1.1 16.6 1.6 L13.8 3.15 13.85 3.15 13.05 3.55 12.35 3.95 11.65 4.35 8.15 4.85 1.6 5.65 1.25 5.65 M-0.75 12.9 Q1.05 13.65 3.7 14.2 L5.05 14.45 9.4 15.0 7.85 15.7 7.3 15.9 7.25 15.9 6.25 16.3 6.05 16.25 4.75 16.55 5.1 16.65 5.15 16.65 4.55 16.85 4.55 16.75 -0.25 16.3 -0.7 16.25 -0.95 16.15 -7.85 13.6 -6.7 12.65 -4.0 13.05 -0.85 12.9 -0.75 12.9 M-8.45 14.3 L-8.95 14.1 -9.35 13.95 -8.85 13.6 -9.2 13.85 -8.95 14.1 -8.9 14.1 -8.45 14.3 M28.85 7.95 L27.95 8.85 27.7 9.05 26.3 10.25 Q25.3 11.45 23.5 12.6 L22.7 12.8 20.95 13.5 19.6 14.0 16.1 14.45 15.85 14.5 17.0 13.9 17.2 13.85 19.45 11.95 22.55 8.6 22.05 9.3 23.7 8.9 28.15 7.85 28.85 7.95 M14.4 4.55 L13.4 4.15 14.05 3.8 13.8 3.85 13.85 3.8 14.45 3.25 Q15.95 1.9 19.1 0.7 L22.6 -0.65 24.65 0.8 25.5 1.6 Q24.05 2.5 20.75 3.35 L14.4 4.55 M7.3 16.85 L10.6 15.3 Q15.15 13.0 16.5 10.9 L21.65 9.3 19.4 11.7 Q16.5 14.25 12.55 15.85 L12.35 15.95 8.25 16.7 7.3 16.85 M14.5 11.8 L13.95 12.15 12.35 13.3 10.75 14.25 7.55 14.05 Q5.8 13.9 2.6 12.7 L2.0 12.5 6.1 11.65 9.9 10.7 Q11.7 10.7 14.1 11.65 L14.5 11.8 M-14.05 1.15 L-14.0 0.7 -13.95 0.45 -13.9 -0.7 -13.85 -1.45 -13.85 -1.65 -13.85 -2.5 -13.8 -3.3 -13.3 -3.6 -8.9 -3.05 -5.0 -2.35 -2.75 -1.75 -1.65 -1.45 1.55 -0.5 6.4 1.5 6.3 1.6 6.25 1.65 5.35 2.3 4.7 2.75 2.7 4.1 Q0.75 3.15 -4.05 2.25 L-13.9 1.15 -14.05 1.15 M-14.5 5.5 L-14.1 1.8 -13.8 1.8 Q-9.6 1.85 -4.3 3.1 -1.05 3.85 1.5 4.9 L0.9 5.35 0.7 5.3 -2.65 4.85 Q-4.7 4.85 -6.2 5.8 -7.7 6.75 -9.35 6.75 -11.3 6.75 -14.5 5.5 M-8.4 12.35 L-8.5 12.4 -10.05 13.7 -10.1 13.65 -10.3 13.85 -9.7 14.2 -9.45 14.35 -5.35 15.75 -4.3 16.1 -0.5 16.95 3.55 17.1 Q0.3 17.95 -3.45 18.2 L-3.5 18.25 -12.2 18.4 -17.95 17.55 -18.25 16.5 -18.05 15.65 -17.55 14.6 -16.8 13.4 -14.7 13.0 -11.05 12.55 -8.4 12.35 M15.65 14.6 L18.95 14.2 13.6 15.65 15.65 14.6" fill="#d3cebc" fill-rule="evenodd" stroke="none"/>
    <path d="M1.8 -13.65 L1.7 -13.75 0.95 -14.3 -0.5 -15.75 -2.75 -17.8 -3.3 -18.35 Q-4.75 -19.85 -6.6 -23.6 L-6.75 -23.8 Q-7.95 -25.55 -8.5 -27.05 L-8.8 -28.0 -8.5 -28.0 -8.6 -28.2 -4.4 -29.85 -1.6 -30.85 -0.1 -31.65 -0.1 -31.6 -0.05 -31.5 0.2 -31.2 0.45 -30.6 0.4 -30.5 1.15 -28.95 1.25 -28.75 2.15 -27.25 3.0 -26.0 3.1 -25.9 3.2 -25.75 3.3 -25.65 6.2 -22.55 6.35 -22.4 7.7 -20.95 8.25 -20.35 Q13.1 -16.5 15.75 -15.25 20.9 -13.25 24.35 -11.4 L27.55 -9.45 29.2 -8.05 29.3 -7.9 29.8 -7.45 30.5 -6.9 19.1 -7.4 15.65 -7.35 15.4 -7.5 8.7 -10.3 Q5.05 -11.9 1.8 -13.65 M19.15 -22.05 L20.15 -22.4 21.35 -22.8 Q23.25 -22.8 25.3 -20.7 27.05 -18.9 28.95 -15.5 L30.35 -12.8 33.25 -6.4 Q29.05 -8.4 24.4 -14.15 L23.7 -15.05 21.95 -17.45 20.5 -19.7 Q19.75 -20.85 19.15 -22.05 M7.15 -25.25 L7.4 -25.8 7.4 -25.95 7.15 -26.2 Q8.0 -26.5 9.1 -27.05 L12.3 -28.6 12.65 -28.35 12.95 -28.25 14.25 -26.45 18.25 -20.9 19.9 -18.65 23.6 -13.7 Q23.55 -13.2 23.1 -13.1 L22.5 -13.1 22.4 -13.1 22.2 -13.1 21.15 -13.15 Q18.9 -14.4 16.75 -15.85 L15.9 -16.3 Q13.1 -17.8 10.9 -19.4 L10.05 -20.1 9.85 -20.25 8.65 -21.3 Q7.2 -22.65 6.85 -23.65 6.45 -24.65 7.15 -25.25" fill="#761432" fill-rule="evenodd" stroke="none"/>
    <path d="M-18.15 -7.05 L-17.45 -7.65 -16.4 -8.2 -16.3 -8.25 -16.2 -8.3 -14.15 -9.0 -14.1 -8.8 -14.1 -8.85 -13.8 -9.0 -13.8 -9.1 -13.25 -9.25 -11.8 -9.6 -8.25 -10.15 Q-7.45 -10.15 -3.95 -11.3 L-0.4 -12.45 0.45 -12.8 1.25 -13.2 1.4 -13.15 1.55 -13.05 1.7 -12.9 2.15 -12.6 2.2 -12.6 2.45 -12.45 2.5 -12.4 5.05 -10.55 5.0 -10.5 4.95 -10.4 4.7 -10.15 4.65 -10.15 0.75 -9.4 -3.65 -8.75 -18.15 -7.05 M0.5 -7.95 L1.35 -8.3 Q5.2 -10.0 5.6 -10.0 L6.3 -9.75 6.6 -9.6 6.9 -9.45 6.95 -9.45 6.95 -9.4 9.1 -8.2 10.05 -7.7 0.5 -7.95" fill="url(#gradient0)" fill-rule="evenodd" stroke="none"/>
    <path d="M30.5 -6.9 L31.0 -6.45 31.15 -6.3 32.65 -4.7 35.1 -2.0 35.15 -1.95 35.5 -1.6 36.45 -0.55 36.65 -0.3 37.2 0.55 34.25 1.6 32.75 2.1 31.65 2.15 Q29.15 2.15 25.85 1.05 L24.65 -0.05 23.15 -0.95 23.2 -0.95 22.5 -1.5 22.4 -1.4 18.05 -4.0 13.05 -6.9 12.4 -7.3 12.35 -7.3 11.75 -7.65 8.65 -9.35 8.6 -9.35 Q6.9 -10.15 5.45 -11.15 L5.35 -11.1 Q3.8 -12.0 2.75 -12.8 L2.15 -13.3 1.8 -13.65 Q5.05 -11.9 8.7 -10.3 L15.4 -7.5 15.65 -7.35 19.1 -7.4 30.5 -6.9 M36.0 7.3 L35.45 7.6 34.8 8.0 34.5 8.2 34.45 8.2 30.5 9.95 30.15 10.15 29.4 10.45 27.85 11.15 Q26.15 11.65 24.55 12.35 L27.1 10.4 31.35 6.85 33.4 6.6 Q34.25 6.6 36.0 7.3" fill="url(#gradient1)" fill-rule="evenodd" stroke="none"/>
    <path d="M37.2 0.55 L38.5 2.5 39.95 4.35 39.85 4.5 39.45 4.8 37.25 6.55 36.0 7.3 Q34.25 6.6 33.4 6.6 L31.35 6.85 31.65 6.55 28.6 3.6 28.4 3.4 27.55 2.6 27.4 2.5 26.45 1.55 25.85 1.05 Q29.15 2.15 31.65 2.15 L32.75 2.1 34.25 1.6 37.2 0.55" fill="url(#gradient2)" fill-rule="evenodd" stroke="none"/>
    <path d="M-36.15 -11.5 L-36.2 -11.45 -35.85 -12.8 -34.5 -16.4 -34.45 -16.55 -34.3 -16.85 -34.25 -17.0 -34.1 -17.25 -33.95 -17.55 -33.85 -17.75 -33.65 -18.05 -33.55 -18.2 -32.4 -19.9 -31.85 -20.65 -30.75 -21.85 -30.65 -21.95 -30.55 -22.05 -30.4 -22.15 -29.7 -22.8 -29.1 -23.35 -27.55 -24.5 -26.55 -25.1 -26.25 -25.3 Q-24.5 -26.35 -22.65 -27.0 L-21.5 -27.75 -19.25 -27.8 -19.35 -27.95 -16.0 -28.4 -16.15 -28.35 -16.15 -28.25 -14.9 -28.6 -12.75 -28.45 -12.6 -28.4 -11.7 -28.6 Q-10.35 -28.5 -9.8 -28.05 L-9.7 -28.1 -9.8 -28.05 -9.75 -27.95 -9.65 -27.95 -8.8 -25.95 -7.85 -24.0 -10.9 -23.8 -22.55 -23.05 Q-26.4 -22.55 -31.5 -17.65 -34.4 -14.85 -36.15 -11.5" fill="#3d3f4e" fill-rule="evenodd" stroke="none"/>
    <path d="M-15.25 5.85 L-16.2 9.7 -16.25 9.9 -16.3 10.1 -16.4 10.35 -17.8 13.9 -18.45 13.55 Q-20.0 12.8 -20.15 12.8 L-23.3 13.75 -23.2 13.6 Q-22.3 12.1 -21.65 9.45 L-21.65 9.4 -21.6 9.2 -21.3 7.65 -20.65 7.7 Q-19.05 7.7 -15.25 5.85 M1.25 5.65 L1.6 5.65 8.15 4.85 11.65 4.35 10.9 4.8 7.2 7.0 Q4.1 8.9 1.45 10.8 L-1.2 12.7 -0.75 12.9 -0.85 12.9 -4.0 13.05 -6.7 12.65 -7.85 13.6 -0.95 16.15 -0.7 16.25 -1.1 16.15 Q-4.85 15.55 -8.45 14.3 L-8.9 14.1 -8.95 14.1 -9.2 13.85 -8.85 13.6 -8.5 13.35 -8.45 13.3 -8.2 13.0 -7.75 12.45 Q-7.0 11.75 -5.7 11.0 L-5.1 10.35 -4.9 10.15 -1.2 7.35 1.25 5.65 M25.5 1.6 L26.2 2.25 26.75 2.85 27.9 4.05 29.6 6.05 30.05 6.6 28.85 7.95 28.15 7.85 23.7 8.9 22.05 9.3 22.55 8.6 23.0 7.9 22.75 7.8 22.55 7.75 21.2 7.25 16.9 5.55 16.85 5.55 16.4 5.35 15.65 5.05 14.4 4.55 20.75 3.35 Q24.05 2.5 25.5 1.6 M7.3 16.85 L6.1 17.05 6.05 17.1 4.9 17.25 3.15 17.5 3.0 17.55 5.85 16.75 6.1 16.75 6.9 16.35 10.7 14.85 13.35 12.8 14.9 11.65 15.15 11.3 15.25 11.2 15.8 10.65 16.45 9.9 16.4 9.9 16.15 10.1 16.1 9.95 15.8 9.85 13.35 8.9 8.7 7.15 8.25 6.95 8.6 6.75 8.8 6.45 Q9.3 5.8 10.55 5.2 11.65 4.65 12.8 4.45 12.9 4.35 13.05 4.3 L16.05 5.55 20.75 7.5 21.1 7.6 21.8 7.9 22.35 8.1 22.45 8.15 22.5 8.15 21.65 9.3 16.5 10.9 Q15.15 13.0 10.6 15.3 L7.3 16.85 M14.5 11.8 L14.1 11.65 Q11.7 10.7 9.9 10.7 L6.1 11.65 2.0 12.5 2.6 12.7 Q5.8 13.9 7.55 14.05 L10.75 14.25 10.25 14.55 9.9 14.7 5.15 14.2 5.05 14.2 4.45 14.1 3.8 13.95 3.85 13.95 Q1.1 13.35 0.0 12.6 L-0.3 12.35 1.65 10.95 2.4 10.45 2.45 10.45 7.8 7.2 13.15 9.3 15.3 10.2 15.3 10.3 15.4 10.45 15.25 10.65 15.25 10.7 Q15.25 11.3 14.5 11.8 M2.7 4.1 L2.5 4.25 2.2 4.4 1.85 4.65 -1.1 3.7 -3.3 3.05 -3.6 2.95 -6.5 2.3 -8.1 2.0 -14.05 1.3 -14.05 1.15 -13.9 1.15 -4.05 2.25 Q0.75 3.15 2.7 4.1 M-14.5 5.5 Q-11.3 6.75 -9.35 6.75 -7.7 6.75 -6.2 5.8 -4.7 4.85 -2.65 4.85 L0.7 5.3 0.9 5.35 -1.15 6.9 -3.15 8.3 -5.75 10.55 -6.1 10.75 -6.6 11.05 -8.15 12.15 -8.2 12.2 -8.3 12.25 -8.4 12.35 -11.05 12.55 -14.7 13.0 -16.8 13.4 -16.0 11.6 -15.75 10.95 -14.85 7.55 -14.5 5.5" fill="#fcfcf8" fill-rule="evenodd" stroke="none"/>
  </g>
  <defs>
    <linearGradient gradientTransform="matrix(0.0023, 0.031, 0.0156, -0.0013, -82.2, 2.4)" gradientUnits="userSpaceOnUse" id="gradient0" spreadMethod="pad" x1="-819.2" x2="819.2">
      <stop offset="0.0" stop-color="#635b58"/>
      <stop offset="1.0" stop-color="#d3cebc"/>
    </linearGradient>
    <linearGradient gradientTransform="matrix(-0.0069, 0.0362, -0.0204, -0.0039, -5.1, 14.0)" gradientUnits="userSpaceOnUse" id="gradient1" spreadMethod="pad" x1="-819.2" x2="819.2">
      <stop offset="0.0" stop-color="#cf0e48"/>
      <stop offset="1.0" stop-color="#f3a68b"/>
    </linearGradient>
    <linearGradient gradientTransform="matrix(-0.0638, 0.0681, 0.005, 0.0046, 55.25, -15.6)" gradientUnits="userSpaceOnUse" id="gradient2" spreadMethod="pad" x1="-819.2" x2="819.2">
      <stop offset="0.0" stop-color="#cf0e48"/>
      <stop offset="1.0" stop-color="#f3a68b"/>
    </linearGradient>
  </defs>
</svg>
