<?xml version="1.0" encoding="UTF-8" standalone="no"?>
<svg xmlns:xlink="http://www.w3.org/1999/xlink" height="5420.0px" width="8060.0px" xmlns="http://www.w3.org/2000/svg">
  <g transform="matrix(100.0, 0.0, 0.0, 100.0, 3785.0, 3405.0)">
    <path d="M0.6 -33.85 L0.65 -33.8 2.0 -31.8 3.05 -30.05 4.1 -29.15 4.2 -28.95 4.45 -28.9 Q5.15 -28.55 5.85 -28.55 L7.2 -28.75 9.05 -29.75 Q12.35 -31.65 13.0 -31.65 13.45 -31.65 15.0 -29.75 L15.85 -28.0 16.05 -27.5 16.2 -27.35 16.7 -26.4 Q18.15 -24.15 20.45 -24.15 20.5 -24.15 22.35 -24.9 23.1 -24.5 23.9 -23.7 L26.65 -20.65 Q30.1 -17.0 31.95 -13.7 34.15 -9.8 35.75 -3.75 L40.45 1.45 42.75 5.1 35.45 10.05 28.1 13.55 Q21.45 15.85 20.25 15.85 L19.15 16.1 18.0 16.35 17.15 16.6 16.2 16.8 13.75 17.25 11.7 17.7 4.85 18.95 -7.0 20.15 -12.9 20.0 -17.95 19.65 Q-21.5 19.15 -24.65 18.05 L-25.25 17.95 -25.25 17.85 -25.3 17.8 -26.95 17.25 Q-30.0 15.3 -32.3 12.35 -36.55 6.95 -37.55 -0.5 L-37.85 -5.2 -37.55 -9.85 Q-36.6 -17.15 -32.8 -22.85 -30.4 -26.45 -27.35 -28.4 -22.7 -30.85 -18.9 -30.85 L-17.65 -30.95 -17.05 -30.9 -16.1 -30.75 -15.55 -30.8 -13.8 -30.65 -13.55 -30.7 -11.75 -30.65 -8.35 -31.25 -6.4 -31.65 -6.1 -31.8 -4.75 -32.0 Q-3.6 -32.0 0.45 -34.05 L0.6 -33.85 M1.15 -28.95 L0.4 -30.5 0.45 -30.6 0.2 -31.2 -0.05 -31.5 -0.1 -31.6 -0.1 -31.65 -1.6 -30.85 -4.4 -29.85 -8.6 -28.2 -8.5 -28.0 -8.8 -28.0 -8.5 -27.05 Q-7.95 -25.55 -6.75 -23.8 L-6.6 -23.6 Q-4.75 -19.85 -3.3 -18.35 L-2.75 -17.8 -0.5 -15.75 0.95 -14.3 1.7 -13.75 2.15 -13.3 2.75 -12.8 Q3.8 -12.0 5.35 -11.1 L5.45 -11.15 Q6.9 -10.1 8.65 -9.35 L13.05 -6.9 18.05 -4.0 22.4 -1.4 22.5 -1.5 23.2 -0.95 23.15 -0.95 24.65 -0.05 31.65 6.55 27.1 10.4 24.55 12.35 Q26.15 11.65 27.85 11.15 L29.4 10.45 30.15 10.15 30.5 9.95 34.45 8.2 34.5 8.2 34.8 8.0 35.45 7.6 Q36.45 7.0 37.25 6.55 L39.45 4.8 39.85 4.5 39.95 4.35 38.5 2.5 36.65 -0.3 36.45 -0.55 35.5 -1.6 35.15 -1.95 35.1 -2.0 32.65 -4.7 31.15 -6.3 31.0 -6.45 29.8 -7.45 29.3 -7.9 Q27.65 -9.65 24.35 -11.4 20.9 -13.25 15.75 -15.25 13.1 -16.5 8.25 -20.35 L7.7 -20.95 6.35 -22.4 6.2 -22.55 3.3 -25.65 3.2 -25.75 3.1 -25.9 3.0 -26.0 2.15 -27.25 1.25 -28.75 1.15 -28.95 M14.25 -26.45 L12.95 -28.25 12.65 -28.35 12.3 -28.6 9.1 -27.05 Q8.0 -26.5 7.15 -26.2 L7.4 -25.95 7.4 -25.8 7.15 -25.25 Q6.45 -24.65 6.85 -23.65 7.2 -22.65 8.65 -21.3 L9.85 -20.25 10.05 -20.1 10.9 -19.4 Q13.1 -17.8 15.9 -16.3 L16.75 -15.85 Q18.9 -14.4 21.15 -13.15 L22.2 -13.1 22.4 -13.1 22.5 -13.1 23.1 -13.1 Q23.55 -13.2 23.6 -13.7 L19.9 -18.65 18.25 -20.9 14.25 -26.45 M25.3 -20.7 Q23.25 -22.8 21.35 -22.8 L20.15 -22.4 19.15 -22.05 Q19.75 -20.85 20.5 -19.7 L21.95 -17.45 23.7 -15.05 24.4 -14.15 Q29.05 -8.4 33.25 -6.4 L30.35 -12.8 28.95 -15.5 Q27.05 -18.9 25.3 -20.7 M-17.0 -8.4 L-15.6 -9.0 -15.3 -9.0 -12.0 -9.95 -9.7 -10.25 -6.85 -11.05 -6.6 -11.15 -4.1 -11.65 Q0.0 -12.65 0.0 -13.85 L0.0 -13.9 0.25 -14.0 0.0 -14.2 -0.15 -14.5 -0.4 -14.55 -2.55 -16.55 -3.65 -17.75 Q-5.65 -20.05 -7.2 -22.8 L-7.85 -24.0 -9.65 -27.95 -9.75 -27.95 -9.8 -28.05 -9.7 -28.1 -9.8 -28.05 Q-10.35 -28.5 -11.7 -28.6 L-12.6 -28.4 -12.75 -28.45 -14.9 -28.6 -16.15 -28.25 -16.15 -28.35 -16.0 -28.4 -19.35 -27.95 -19.25 -27.8 -21.5 -27.75 -22.65 -27.0 Q-24.5 -26.35 -26.25 -25.3 L-26.55 -25.1 -27.55 -24.5 -29.1 -23.35 -29.7 -22.8 -30.4 -22.15 -30.55 -22.05 -30.65 -21.95 -30.75 -21.85 -31.85 -20.65 -32.4 -19.9 Q-35.4 -15.95 -36.4 -10.35 L-36.7 -8.4 -36.8 -7.75 -36.9 -6.5 -36.7 -6.45 -36.8 -6.2 -36.9 -6.2 -37.0 -4.0 -36.85 -1.35 -36.8 -1.0 -36.8 -0.95 -36.6 -0.9 -36.55 -0.55 -36.7 -0.55 -36.7 -0.4 -36.65 -0.3 -36.65 -0.15 Q-35.9 3.35 -33.75 6.8 L-31.95 9.3 Q-29.75 12.05 -27.7 13.75 L-25.95 14.95 -25.85 14.95 Q-23.25 14.95 -21.65 7.9 L-19.05 -6.25 Q-18.8 -7.45 -17.0 -8.4 M-1.9 -7.4 L-1.45 -7.55 -0.4 -7.85 -0.25 -7.9 Q0.85 -8.05 3.7 -9.7 4.05 -9.7 4.6 -10.1 L5.05 -10.55 2.5 -12.4 2.45 -12.45 2.2 -12.6 2.15 -12.6 1.7 -12.9 1.55 -13.05 1.4 -13.15 1.25 -13.2 0.45 -12.8 -0.4 -12.45 -3.95 -11.3 Q-7.45 -10.15 -8.25 -10.15 L-11.8 -9.6 -13.25 -9.25 -13.8 -9.1 -13.8 -9.0 -14.1 -8.85 -14.1 -8.8 -14.15 -9.0 -16.2 -8.3 Q-18.25 -7.45 -18.5 -6.4 -20.0 -0.05 -21.6 9.2 -22.85 14.75 -25.3 15.3 L-24.9 15.5 -24.7 15.6 -24.55 15.7 -24.0 15.95 -23.4 16.15 -22.3 16.55 -22.0 16.65 -21.8 16.6 -20.9 16.75 Q-18.45 16.75 -16.4 10.35 -15.5 7.6 -14.95 4.3 L-14.45 0.45 -14.45 0.35 -14.45 0.2 -14.3 -1.45 -14.2 -3.7 -13.7 -4.0 Q-13.4 -4.1 -12.95 -4.3 L-12.6 -4.45 -12.45 -4.5 -11.85 -4.6 -10.35 -5.0 -10.15 -5.05 -9.65 -5.1 -9.25 -5.15 -8.15 -5.4 -7.55 -5.55 -7.15 -5.85 -7.0 -5.75 -8.3 -5.15 -8.2 -5.15 -4.3 -6.45 -1.9 -7.4 M11.85 -6.75 Q8.15 -8.7 6.6 -9.6 L6.3 -9.75 5.6 -10.0 Q5.2 -10.0 1.35 -8.3 L0.35 -7.85 Q-3.2 -6.35 -4.3 -6.0 L-8.55 -5.0 -9.9 -4.5 -12.0 -4.15 -12.5 -3.95 -11.55 -3.8 -6.5 -3.2 -4.5 -2.65 -0.4 -1.55 Q2.7 -0.2 6.25 1.25 L6.6 1.4 7.35 0.8 9.15 -0.3 9.9 -0.75 13.75 -2.75 16.1 -4.15 16.3 -4.3 16.35 -4.35 15.7 -4.7 11.85 -6.75 M21.7 -1.25 L16.75 -4.15 11.05 -0.7 Q9.1 0.5 7.25 1.65 L7.1 1.8 7.05 1.8 5.8 2.6 3.1 4.4 Q-1.4 7.35 -4.9 10.15 L-5.7 11.0 Q-7.55 12.1 -8.2 13.0 L-8.45 13.3 -9.35 13.95 -8.95 14.1 Q-4.75 15.65 -0.25 16.3 L4.55 16.75 4.55 16.85 5.15 16.65 5.1 16.65 4.75 16.55 6.05 16.25 6.25 16.3 7.25 15.9 7.3 15.9 7.85 15.7 9.4 15.0 5.05 14.45 3.7 14.2 Q0.7 13.6 -1.2 12.7 3.8 8.85 10.9 4.8 L12.35 3.95 13.05 3.55 13.85 3.15 13.8 3.15 16.6 1.6 Q17.45 1.1 21.85 -1.15 L21.7 -1.25 M27.95 8.85 L30.05 6.6 27.9 4.05 26.2 2.25 24.65 0.8 22.6 -0.65 19.1 0.7 Q15.95 1.9 14.45 3.25 L13.85 3.8 13.8 3.85 14.05 3.8 13.4 4.15 15.65 5.05 22.55 7.75 22.75 7.8 23.0 7.9 Q21.6 10.1 19.45 11.95 L17.2 13.85 17.0 13.9 15.85 14.5 16.1 14.45 19.6 14.0 20.95 13.5 22.7 12.8 23.5 12.6 Q25.3 11.45 26.3 10.25 L27.7 9.05 27.95 8.85 M8.7 7.15 L16.1 9.95 16.15 10.1 16.4 9.9 16.45 9.9 15.8 10.65 15.15 11.3 14.9 11.65 13.35 12.8 10.7 14.85 6.9 16.35 6.1 16.75 5.85 16.75 3.0 17.55 3.15 17.5 4.9 17.25 6.05 17.1 6.1 17.05 8.25 16.7 12.35 15.95 12.55 15.85 Q16.5 14.25 19.4 11.7 21.15 10.1 22.5 8.15 L20.75 7.5 13.05 4.3 Q12.9 4.35 12.8 4.45 11.65 4.65 10.55 5.2 9.0 5.9 8.6 6.75 L8.25 6.95 8.7 7.15 M12.35 13.3 L13.95 12.15 Q15.25 11.5 15.25 10.7 L15.25 10.65 15.4 10.45 15.3 10.3 15.3 10.2 Q13.65 9.4 7.8 7.2 2.3 10.35 -0.3 12.35 0.7 13.25 3.85 13.95 L3.8 13.95 4.45 14.1 5.05 14.2 5.15 14.2 9.9 14.7 10.25 14.55 12.35 13.3 M-13.85 -2.5 L-13.85 -1.65 -13.85 -1.45 -13.9 -0.7 -13.95 0.45 -14.0 0.7 -14.05 1.3 -8.1 2.0 -6.5 2.3 -3.6 2.95 -3.3 3.05 -1.1 3.7 1.85 4.65 2.2 4.4 2.5 4.25 2.7 4.1 4.7 2.75 5.35 2.3 6.25 1.65 6.3 1.6 6.4 1.5 1.55 -0.5 -1.65 -1.45 -2.75 -1.75 -5.0 -2.35 -8.9 -3.05 -13.3 -3.6 -13.8 -3.3 -13.85 -2.5 M15.65 14.6 L13.6 15.65 18.95 14.2 15.65 14.6 M-9.7 14.2 L-10.3 13.85 -10.1 13.65 -10.05 13.7 -8.5 12.4 -5.75 10.55 -3.15 8.3 1.5 4.9 Q-1.05 3.85 -4.3 3.1 -9.6 1.85 -13.8 1.8 L-14.1 1.8 Q-14.65 8.1 -16.0 11.6 L-16.8 13.4 -17.55 14.6 -18.05 15.65 -18.25 16.5 -17.95 17.55 -12.2 18.4 -3.5 18.25 -3.45 18.2 Q0.3 17.95 3.55 17.1 L-0.5 16.95 -4.3 16.1 -5.35 15.75 -9.45 14.35 -9.7 14.2" fill="#000000" fill-rule="evenodd" stroke="none"/>
    <path d="M-3.65 -17.75 L-2.55 -16.55 -0.4 -14.55 -0.15 -14.5 0.0 -14.2 0.25 -14.0 0.0 -13.9 0.0 -13.85 Q0.0 -12.65 -4.1 -11.65 L-6.6 -11.15 -6.85 -11.05 -9.7 -10.25 -12.0 -9.95 -15.3 -9.0 -15.6 -9.0 -17.0 -8.4 -20.2 -8.7 -20.6 -9.85 -21.85 -13.85 Q-20.6 -14.4 -19.0 -15.1 -12.1 -18.15 -7.0 -18.15 L-3.65 -17.75 M-27.55 -24.5 L-26.55 -25.1 -26.25 -25.3 Q-24.5 -26.35 -22.65 -27.0 L-21.5 -27.75 -19.25 -27.8 -19.35 -27.95 -16.0 -28.4 -16.15 -28.35 -16.15 -28.25 -14.9 -28.6 -12.75 -28.45 -12.6 -28.4 -11.7 -28.6 Q-10.35 -28.5 -9.8 -28.05 L-9.7 -28.1 -9.8 -28.05 -9.75 -27.95 -9.65 -27.95 -7.85 -24.0 -8.95 -23.45 Q-13.85 -21.0 -18.25 -21.0 L-23.25 -20.55 -24.5 -20.5 -25.45 -22.15 Q-26.4 -23.6 -27.55 -24.5" fill="#52524b" fill-rule="evenodd" stroke="none"/>
    <path d="M-17.0 -8.4 Q-18.8 -7.45 -19.05 -6.25 L-21.65 7.9 Q-23.25 14.95 -25.85 14.95 L-25.95 14.95 -27.7 13.75 Q-29.75 12.05 -31.95 9.3 L-33.75 6.8 Q-35.9 3.35 -36.65 -0.15 L-36.65 -0.3 -36.7 -0.4 -36.7 -0.55 -36.55 -0.55 -36.6 -0.9 -36.8 -0.95 -36.8 -1.0 -36.85 -1.35 -37.0 -4.0 -36.9 -6.2 -36.8 -6.2 -36.7 -6.45 -36.9 -6.5 -36.8 -7.75 -36.7 -8.4 -36.4 -10.35 Q-35.4 -15.95 -32.4 -19.9 L-31.85 -20.65 -30.75 -21.85 -30.65 -21.95 -30.55 -22.05 -30.4 -22.15 -29.7 -22.8 -29.1 -23.35 -27.55 -24.5 Q-26.4 -23.6 -25.45 -22.15 L-24.5 -20.5 Q-23.3 -18.1 -21.85 -13.85 L-20.6 -9.85 -20.2 -8.7 -17.0 -8.4" fill="#2c2c27" fill-rule="evenodd" stroke="none"/>
    <path d="M-24.0 15.95 L-24.55 15.7 -24.7 15.6 -24.9 15.5 -25.3 15.3 Q-22.85 14.75 -21.6 9.2 -20.0 -0.05 -18.5 -6.4 -18.25 -7.45 -16.2 -8.3 L-14.15 -9.0 -14.1 -8.8 -14.1 -8.85 -13.8 -9.0 -13.8 -9.1 -13.25 -9.25 -11.8 -9.6 -8.25 -10.15 Q-7.45 -10.15 -3.95 -11.3 L-0.4 -12.45 0.45 -12.8 1.25 -13.2 1.4 -13.15 1.55 -13.05 1.7 -12.9 2.15 -12.6 2.2 -12.6 2.45 -12.45 2.5 -12.4 5.05 -10.55 4.6 -10.1 Q4.05 -9.7 3.7 -9.7 0.85 -8.05 -0.25 -7.9 L-0.4 -7.85 -1.45 -7.55 -1.9 -7.4 -12.95 -8.1 -14.75 -7.5 -17.05 -6.4 Q-18.45 -5.05 -18.85 -1.25 L-19.75 4.85 Q-20.4 8.2 -21.0 10.2 -22.0 13.65 -24.0 15.95 M-11.55 -3.8 L-12.5 -3.95 -12.0 -4.15 -9.9 -4.5 -8.55 -5.0 -4.3 -6.0 Q-3.2 -6.35 0.35 -7.85 L1.35 -8.3 Q5.2 -10.0 5.6 -10.0 L6.3 -9.75 6.6 -9.6 Q8.15 -8.7 11.85 -6.75 L2.7 -7.7 1.75 -7.75 2.3 -7.7 -4.85 -5.2 Q-7.95 -4.05 -10.65 -3.7 L-11.55 -3.8 M-8.2 13.0 Q-7.55 12.1 -5.7 11.0 L-4.9 10.15 Q-1.4 7.35 3.1 4.4 L5.8 2.6 7.05 1.8 7.1 1.8 7.25 1.65 Q9.1 0.5 11.05 -0.7 L16.75 -4.15 21.7 -1.25 20.25 -1.8 17.25 -2.5 Q15.4 -2.5 2.15 6.35 L-8.2 13.0 M20.75 7.5 L20.65 7.45 Q14.5 5.8 12.5 5.8 11.2 5.8 9.35 6.8 L8.7 7.15 8.25 6.95 8.6 6.75 Q9.0 5.9 10.55 5.2 11.65 4.65 12.8 4.45 12.9 4.35 13.05 4.3 L20.75 7.5 M15.8 10.65 L15.9 11.15 Q15.9 11.9 14.9 12.75 L11.75 14.65 6.1 17.05 6.05 17.1 4.9 17.25 3.15 17.5 3.0 17.55 5.85 16.75 6.1 16.75 6.9 16.35 10.7 14.85 13.35 12.8 14.9 11.65 15.15 11.3 15.8 10.65 M-13.85 -2.5 L-13.8 -3.3 -13.3 -3.6 -8.9 -3.05 -5.0 -2.35 -2.75 -1.75 -1.65 -1.45 1.55 -0.5 6.4 1.5 6.3 1.6 6.25 1.65 6.0 1.8 3.8 1.05 Q-5.65 -2.25 -9.15 -2.25 L-12.1 -2.4 -13.85 -2.5" fill="#d3cebc" fill-rule="evenodd" stroke="none"/>
    <path d="M38.5 2.5 L39.95 4.35 39.85 4.5 39.45 4.8 37.25 6.55 Q36.45 7.0 35.45 7.6 L34.8 8.0 34.5 8.2 34.45 8.2 30.5 9.95 30.15 10.15 29.4 10.45 27.85 11.15 Q26.15 11.65 24.55 12.35 L27.1 10.4 31.65 6.55 24.65 -0.05 23.15 -0.95 23.2 -0.95 22.5 -1.5 22.4 -1.4 18.05 -4.0 13.05 -6.9 Q20.7 -6.6 30.25 -5.1 L30.35 -5.0 37.85 1.9 38.5 2.5" fill="#761432" fill-rule="evenodd" stroke="none"/>
    <path d="M-7.85 -24.0 L-7.2 -22.8 Q-5.65 -20.05 -3.65 -17.75 L-7.0 -18.15 Q-12.1 -18.15 -19.0 -15.1 -20.6 -14.4 -21.85 -13.85 -23.3 -18.1 -24.5 -20.5 L-23.25 -20.55 -18.25 -21.0 Q-13.85 -21.0 -8.95 -23.45 L-7.85 -24.0" fill="#808279" fill-rule="evenodd" stroke="none"/>
    <path d="M-6.75 -23.8 Q-7.95 -25.55 -8.5 -27.05 L-8.8 -28.0 -8.5 -28.0 -8.6 -28.2 -4.4 -29.85 -1.6 -30.85 -0.1 -31.65 -0.1 -31.6 -0.05 -31.5 0.2 -31.2 0.45 -30.6 0.4 -30.5 1.15 -28.95 Q-0.4 -24.9 -5.8 -24.1 L-6.75 -23.8 M7.7 -20.95 L8.25 -20.35 Q13.1 -16.5 15.75 -15.25 20.9 -13.25 24.35 -11.4 27.65 -9.65 29.3 -7.9 L29.8 -7.45 31.0 -6.45 31.15 -6.3 32.65 -4.7 35.1 -2.0 35.15 -1.95 35.5 -1.6 36.45 -0.55 36.65 -0.3 38.5 2.5 37.85 1.9 30.35 -5.0 30.25 -5.1 Q20.7 -6.6 13.05 -6.9 L8.65 -9.35 Q6.9 -10.1 5.45 -11.15 L5.35 -11.1 Q3.8 -12.0 2.75 -12.8 L2.15 -13.3 1.7 -13.75 0.95 -14.3 -0.5 -15.75 -2.75 -17.8 -1.9 -18.45 Q1.05 -20.55 3.65 -20.55 5.85 -20.4 8.0 -20.55 L8.05 -20.55 7.7 -20.95 M6.85 -23.65 Q6.45 -24.65 7.15 -25.25 L7.4 -25.8 7.4 -25.95 7.15 -26.2 Q8.0 -26.5 9.1 -27.05 L12.3 -28.6 12.65 -28.35 12.95 -28.25 14.25 -26.45 12.8 -24.45 Q10.65 -23.7 6.85 -23.65 M18.25 -20.9 L19.9 -18.65 23.6 -13.7 Q23.55 -13.2 23.1 -13.1 L22.5 -13.1 22.4 -13.1 22.2 -13.1 21.15 -13.15 Q18.9 -14.4 16.75 -15.85 L15.9 -16.3 Q13.1 -17.8 10.9 -19.4 L11.45 -19.05 13.0 -19.6 18.25 -20.9 M20.5 -19.7 Q19.75 -20.85 19.15 -22.05 L20.15 -22.4 21.35 -22.8 Q23.25 -22.8 25.3 -20.7 L24.0 -19.35 23.3 -19.3 20.5 -19.7 M28.95 -15.5 L30.35 -12.8 33.25 -6.4 Q29.05 -8.4 24.4 -14.15 L23.7 -15.05 24.0 -14.7 Q26.25 -15.55 28.45 -15.55 L28.95 -15.5" fill="url(#gradient0)" fill-rule="evenodd" stroke="none"/>
    <path d="M-6.75 -23.8 L-5.8 -24.1 Q-0.4 -24.9 1.15 -28.95 L1.25 -28.75 2.15 -27.25 3.0 -26.0 3.1 -25.9 3.2 -25.75 3.3 -25.65 6.2 -22.55 6.35 -22.4 7.7 -20.95 8.05 -20.55 8.0 -20.55 Q5.85 -20.4 3.65 -20.55 1.05 -20.55 -1.9 -18.45 L-2.75 -17.8 -3.3 -18.35 Q-4.75 -19.85 -6.6 -23.6 L-6.75 -23.8 M6.85 -23.65 Q10.65 -23.7 12.8 -24.45 L14.25 -26.45 18.25 -20.9 13.0 -19.6 11.45 -19.05 10.9 -19.4 10.05 -20.1 9.85 -20.25 8.65 -21.3 Q7.2 -22.65 6.85 -23.65 M20.5 -19.7 L23.3 -19.3 24.0 -19.35 25.3 -20.7 Q27.05 -18.9 28.95 -15.5 L28.45 -15.55 Q26.25 -15.55 24.0 -14.7 L23.7 -15.05 21.95 -17.45 20.5 -19.7" fill="url(#gradient1)" fill-rule="evenodd" stroke="none"/>
    <path d="M3.7 14.2 L5.05 14.45 9.4 15.0 7.85 15.7 7.3 15.9 7.25 15.9 6.25 16.3 6.05 16.25 4.75 16.55 5.1 16.65 5.15 16.65 4.55 16.85 4.55 16.75 -0.25 16.3 Q-4.75 15.65 -8.95 14.1 L-1.3 14.35 3.7 14.2 M19.45 11.95 L19.7 11.75 27.75 8.9 27.95 8.85 27.7 9.05 26.3 10.25 Q25.3 11.45 23.5 12.6 L22.7 12.8 20.95 13.5 19.6 14.0 16.1 14.45 15.85 14.5 17.0 13.9 17.2 13.85 19.45 11.95 M14.9 12.75 L15.2 12.7 19.4 11.7 Q16.5 14.25 12.55 15.85 L12.35 15.95 8.25 16.7 6.1 17.05 11.75 14.65 14.9 12.75 M12.35 13.3 L10.25 14.55 9.9 14.7 5.15 14.2 5.05 14.2 4.45 14.1 3.8 13.95 3.85 13.95 8.0 13.65 12.35 13.3 M15.65 14.6 L18.95 14.2 13.6 15.65 15.65 14.6 M-9.7 14.2 L-9.45 14.35 -5.35 15.75 -4.3 16.1 -0.5 16.95 3.55 17.1 Q0.3 17.95 -3.45 18.2 L-3.5 18.25 -12.2 18.4 -17.95 17.55 -18.25 16.5 -18.05 15.65 -17.55 14.6 -16.8 13.4 -9.7 14.2" fill="#807571" fill-rule="evenodd" stroke="none"/>
    <path d="M-24.0 15.95 Q-22.0 13.65 -21.0 10.2 -20.4 8.2 -19.75 4.85 L-18.85 -1.25 Q-18.45 -5.05 -17.05 -6.4 L-14.75 -7.5 -12.95 -8.1 -1.9 -7.4 -4.3 -6.45 -8.2 -5.15 -8.3 -5.15 -7.0 -5.75 -7.15 -5.85 -7.55 -5.55 -8.15 -5.4 -9.25 -5.15 -9.65 -5.1 -10.15 -5.05 -10.35 -5.0 -11.85 -4.6 -12.45 -4.5 -12.6 -4.45 -12.95 -4.3 Q-13.4 -4.1 -13.7 -4.0 L-14.2 -3.7 -14.3 -1.45 -14.45 0.2 -14.45 0.35 -14.45 0.45 -14.95 4.3 Q-15.5 7.6 -16.4 10.35 -18.45 16.75 -20.9 16.75 L-21.8 16.6 -22.0 16.65 -22.3 16.55 -23.4 16.15 -24.0 15.95 M-11.55 -3.8 L-10.65 -3.7 Q-7.95 -4.05 -4.85 -5.2 L2.3 -7.7 1.75 -7.75 2.7 -7.7 11.85 -6.75 15.7 -4.7 16.35 -4.35 16.3 -4.3 16.1 -4.15 13.75 -2.75 9.9 -0.75 9.15 -0.3 7.35 0.8 6.6 1.4 6.25 1.25 Q2.7 -0.2 -0.4 -1.55 L-4.5 -2.65 -6.5 -3.2 -11.55 -3.8 M-8.2 13.0 L2.15 6.35 Q15.4 -2.5 17.25 -2.5 L20.25 -1.8 21.7 -1.25 21.85 -1.15 Q17.45 1.1 16.6 1.6 L13.8 3.15 13.85 3.15 13.05 3.55 12.35 3.95 10.9 4.8 Q3.8 8.85 -1.2 12.7 0.7 13.6 3.7 14.2 L-1.3 14.35 -8.95 14.1 -9.35 13.95 -8.45 13.3 -8.2 13.0 M19.45 11.95 Q21.6 10.1 23.0 7.9 L22.75 7.8 22.55 7.75 15.65 5.05 13.4 4.15 14.05 3.8 13.8 3.85 13.85 3.8 14.45 3.25 Q15.95 1.9 19.1 0.7 L22.6 -0.65 24.65 0.8 26.2 2.25 27.9 4.05 30.05 6.6 27.95 8.85 27.75 8.9 19.7 11.75 19.45 11.95 M8.7 7.15 L9.35 6.8 Q11.2 5.8 12.5 5.8 14.5 5.8 20.65 7.45 L20.75 7.5 22.5 8.15 Q21.15 10.1 19.4 11.7 L15.2 12.7 14.9 12.75 Q15.9 11.9 15.9 11.15 L15.8 10.65 16.45 9.9 16.4 9.9 16.15 10.1 16.1 9.95 8.7 7.15 M3.85 13.95 Q0.7 13.25 -0.3 12.35 2.3 10.35 7.8 7.2 13.65 9.4 15.3 10.2 L15.3 10.3 15.4 10.45 15.25 10.65 15.25 10.7 Q15.25 11.5 13.95 12.15 L12.35 13.3 8.0 13.65 3.85 13.95 M6.25 1.65 L5.35 2.3 4.7 2.75 2.7 4.1 2.5 4.25 2.2 4.4 1.85 4.65 -1.1 3.7 -3.3 3.05 -3.6 2.95 -6.5 2.3 -8.1 2.0 -14.05 1.3 -14.0 0.7 -13.95 0.45 -13.9 -0.7 -13.85 -1.45 -13.85 -1.65 -13.85 -2.5 -12.1 -2.4 -9.15 -2.25 Q-5.65 -2.25 3.8 1.05 L6.0 1.8 6.25 1.65 M-16.8 13.4 L-16.0 11.6 Q-14.65 8.1 -14.1 1.8 L-13.8 1.8 Q-9.6 1.85 -4.3 3.1 -1.05 3.85 1.5 4.9 L-3.15 8.3 -5.75 10.55 -8.5 12.4 -10.05 13.7 -10.1 13.65 -10.3 13.85 -9.7 14.2 -16.8 13.4" fill="url(#gradient2)" fill-rule="evenodd" stroke="none"/>
  </g>
  <defs>
    <linearGradient gradientTransform="matrix(-0.0245, -0.0276, 0.0156, -0.0138, 0.7, -29.5)" gradientUnits="userSpaceOnUse" id="gradient0" spreadMethod="pad" x1="-819.2" x2="819.2">
      <stop offset="0.0" stop-color="#cf0e48"/>
      <stop offset="1.0" stop-color="#f3a68b"/>
    </linearGradient>
    <linearGradient gradientTransform="matrix(-0.0638, -0.0681, 0.005, -0.0046, 20.7, -3.0)" gradientUnits="userSpaceOnUse" id="gradient1" spreadMethod="pad" x1="-819.2" x2="819.2">
      <stop offset="0.0" stop-color="#cf0e48"/>
      <stop offset="1.0" stop-color="#f3a68b"/>
    </linearGradient>
    <linearGradient gradientTransform="matrix(0.0023, -0.031, 0.0156, 0.0013, 1.85, -15.45)" gradientUnits="userSpaceOnUse" id="gradient2" spreadMethod="pad" x1="-819.2" x2="819.2">
      <stop offset="0.0" stop-color="#635b58"/>
      <stop offset="1.0" stop-color="#d3cebc"/>
    </linearGradient>
  </defs>
</svg>
