<?xml version="1.0" encoding="UTF-8" standalone="no"?>
<svg
   xmlns:dc="http://purl.org/dc/elements/1.1/"
   xmlns:cc="http://creativecommons.org/ns#"
   xmlns:rdf="http://www.w3.org/1999/02/22-rdf-syntax-ns#"
   xmlns:svg="http://www.w3.org/2000/svg"
   xmlns="http://www.w3.org/2000/svg"
   xmlns:sodipodi="http://sodipodi.sourceforge.net/DTD/sodipodi-0.dtd"
   xmlns:inkscape="http://www.inkscape.org/namespaces/inkscape"
   height="8310"
   width="5870"
   version="1.1"
   id="svg46"
   sodipodi:docname="POVAngle.svg"
   inkscape:version="1.0.2-2 (e86c870879, 2021-01-15)">
  <metadata
     id="metadata50">
    <rdf:RDF>
      <cc:Work
         rdf:about="">
        <dc:format>image/svg+xml</dc:format>
        <dc:type
           rdf:resource="http://purl.org/dc/dcmitype/StillImage" />
        <dc:title />
      </cc:Work>
    </rdf:RDF>
  </metadata>
  <sodipodi:namedview
     pagecolor="#ffffff"
     bordercolor="#666666"
     borderopacity="1"
     objecttolerance="10"
     gridtolerance="10"
     guidetolerance="10"
     inkscape:pageopacity="0"
     inkscape:pageshadow="2"
     inkscape:window-width="1920"
     inkscape:window-height="1017"
     id="namedview48"
     showgrid="false"
     inkscape:zoom="0.079911252"
     inkscape:cx="3438.9495"
     inkscape:cy="5266.2848"
     inkscape:window-x="-8"
     inkscape:window-y="-8"
     inkscape:window-maximized="1"
     inkscape:current-layer="svg46"
     inkscape:document-rotation="0" />
  <defs
     id="defs44">
    <linearGradient
       gradientTransform="matrix(0.94,-3.38,1.47,0.41,-2345,-2075)"
       gradientUnits="userSpaceOnUse"
       id="gradient0"
       spreadMethod="pad"
       x1="-819.20001"
       x2="819.20001">
      <stop
         offset="0.0"
         stop-color="#635b58"
         id="stop34" />
      <stop
         offset="1.0"
         stop-color="#d3cebc"
         id="stop36" />
    </linearGradient>
    <linearGradient
       gradientTransform="matrix(0.76,-3.38,1.18,0.41,-1620,-2075)"
       gradientUnits="userSpaceOnUse"
       id="gradient1"
       spreadMethod="pad"
       x1="-819.20001"
       x2="819.20001">
      <stop
         offset="0.0"
         stop-color="#635b58"
         id="stop39" />
      <stop
         offset="1.0"
         stop-color="#d3cebc"
         id="stop41" />
    </linearGradient>
    <linearGradient
       gradientTransform="matrix(0.94,-3.38,1.47,0.41,3960,-7135)"
       gradientUnits="userSpaceOnUse"
       id="gradient0-3"
       spreadMethod="pad"
       x1="-819.20001"
       x2="819.20001">
      <stop
         offset="0.0"
         stop-color="#635b58"
         id="stop26" />
      <stop
         offset="1.0"
         stop-color="#d3cebc"
         id="stop28" />
    </linearGradient>
    <linearGradient
       gradientTransform="matrix(0.96,-3.51,1.5,0.42,7060,-625)"
       gradientUnits="userSpaceOnUse"
       id="gradient0-5"
       spreadMethod="pad"
       x1="-819.20001"
       x2="819.20001">
      <stop
         offset="0.0"
         stop-color="#635b58"
         id="stop34-0" />
      <stop
         offset="1.0"
         stop-color="#d3cebc"
         id="stop36-1" />
    </linearGradient>
    <linearGradient
       gradientTransform="matrix(0.67,-2.44,1.04,0.29,7040,440)"
       gradientUnits="userSpaceOnUse"
       id="gradient1-8"
       spreadMethod="pad"
       x1="-819.20001"
       x2="819.20001">
      <stop
         offset="0.0"
         stop-color="#635b58"
         id="stop39-2" />
      <stop
         offset="1.0"
         stop-color="#d3cebc"
         id="stop41-4" />
    </linearGradient>
    <linearGradient
       gradientTransform="matrix(0.9399043,-3.3796559,1.4698503,0.40995826,-7059.505,-5689.3312)"
       gradientUnits="userSpaceOnUse"
       id="gradient0-7"
       spreadMethod="pad"
       x1="-819.20001"
       x2="819.20001">
      <stop
         offset="0.0"
         stop-color="#635b58"
         id="stop22" />
      <stop
         offset="1.0"
         stop-color="#d3cebc"
         id="stop24" />
    </linearGradient>
    <linearGradient
       gradientTransform="matrix(0.96,-3.51,1.5,0.42,7060,-625)"
       gradientUnits="userSpaceOnUse"
       id="gradient0-0"
       spreadMethod="pad"
       x1="-819.20001"
       x2="819.20001">
      <stop
         offset="0.0"
         stop-color="#635b58"
         id="stop34-4" />
      <stop
         offset="1.0"
         stop-color="#d3cebc"
         id="stop36-4" />
    </linearGradient>
    <linearGradient
       gradientTransform="matrix(0.67,-2.44,1.04,0.29,7040,440)"
       gradientUnits="userSpaceOnUse"
       id="gradient1-4"
       spreadMethod="pad"
       x1="-819.20001"
       x2="819.20001">
      <stop
         offset="0.0"
         stop-color="#635b58"
         id="stop39-3" />
      <stop
         offset="1.0"
         stop-color="#d3cebc"
         id="stop41-8" />
    </linearGradient>
  </defs>
  <path
     style="color:#000000;font-style:normal;font-variant:normal;font-weight:normal;font-stretch:normal;font-size:medium;line-height:normal;font-family:sans-serif;font-variant-ligatures:normal;font-variant-position:normal;font-variant-caps:normal;font-variant-numeric:normal;font-variant-alternates:normal;font-variant-east-asian:normal;font-feature-settings:normal;font-variation-settings:normal;text-indent:0;text-align:start;text-decoration:none;text-decoration-line:none;text-decoration-style:solid;text-decoration-color:#000000;letter-spacing:normal;word-spacing:normal;text-transform:none;writing-mode:lr-tb;direction:ltr;text-orientation:mixed;dominant-baseline:auto;baseline-shift:baseline;text-anchor:start;white-space:normal;shape-padding:0;shape-margin:0;inline-size:0;clip-rule:nonzero;display:inline;overflow:visible;visibility:visible;isolation:auto;mix-blend-mode:normal;color-interpolation:sRGB;color-interpolation-filters:linearRGB;solid-color:#000000;solid-opacity:1;vector-effect:none;fill:#761432;fill-opacity:1;fill-rule:nonzero;stroke:none;stroke-width:19.0216;stroke-linecap:butt;stroke-linejoin:miter;stroke-miterlimit:4;stroke-dasharray:none;stroke-dashoffset:0;stroke-opacity:1;color-rendering:auto;image-rendering:auto;shape-rendering:auto;text-rendering:auto;enable-background:accumulate;stop-color:#000000"
     d="m 4832.2864,7890 c -9.3786,-16.3931 -24.1492,-21.1671 -69.7977,-22.5599 -31.8459,-0.9717 -102.6835,-9.5073 -157.4167,-18.9685 -54.7333,-9.4612 -136.4992,-22.9087 -181.7023,-29.8834 -45.2029,-6.975 -107.7804,-16.6646 -139.0608,-21.5331 -60.6044,-9.4326 -434.2646,-89.4855 -543.2033,-116.3758 -78.7657,-19.4427 -117.5843,-53.3806 -81.5338,-71.2829 11.6746,-5.7975 41.224,-9.5163 65.6657,-8.2639 63.5246,3.2548 229.4004,-20.338 324.1989,-46.1116 44.581,-12.1205 106.8394,-27.1658 138.3518,-33.4337 116.778,-23.2276 268.9415,-63.5106 271.9198,-71.987 1.6907,-4.812 46.7259,-25.4667 100.0781,-45.8998 87.5757,-33.5399 168.7631,-71.4656 256.6505,-119.8911 30.8095,-16.9758 31.0386,-17.7341 15.4639,-51.1643 -12.4088,-26.6338 -28.6798,-39.3542 -75.6412,-59.1345 -32.9073,-13.8609 -75.9343,-24.7586 -95.6153,-24.2171 -50.4236,1.3875 -267.0229,-30.1032 -328.5692,-47.7694 -50.6074,-14.5264 -51.2754,-15.2997 -40.27,-46.6225 6.1552,-17.5185 18.8984,-34.738 28.3183,-38.2655 19.4021,-7.2658 48.6261,-28.6383 105.2066,-76.9407 21.4529,-18.3142 58.5681,-47.3579 82.4783,-64.5411 23.9102,-17.1836 49.3218,-37.1993 56.4703,-44.4797 17.7716,-18.0989 80.7582,-83.5941 133.9755,-139.3108 24.2441,-25.383 47.6198,-56.2245 51.9457,-68.5368 4.326,-12.312 24.757,-42.2 45.4025,-66.4177 96.1495,-112.7864 282.7322,-635.3503 270.4469,-757.4429 -3.2303,-32.1024 -1.0057,-72.2999 4.9431,-89.328 12.1746,-34.841 7.1978,-157.1587 -8.6442,-212.5383 -5.74,-20.0658 -7.7823,-44.0692 -4.5387,-53.3401 3.2441,-9.2715 -6.8145,-65.9518 -22.3517,-125.9563 -15.5373,-60.0043 -36.7747,-141.8509 -47.194,-181.8824 -10.4195,-40.0309 -65.0611,-174.7306 -121.4263,-299.3325 -56.3648,-124.6018 -100.5238,-232.182 -98.1305,-239.0682 6.6911,-19.2702 55.5893,-3.713 269.72,85.8109 149.7314,62.6 236.3151,105.5852 357.5215,177.4946 198.5452,117.7931 266.2457,170.2794 294.7732,228.5288 21.9398,44.7977 22.7303,45.3188 68.8394,45.3937 55.3365,0.09 67.4632,-22.7339 48.9092,-92.0522 -20.0123,-74.7685 -28.8669,-97.581 -82.7787,-213.2735 -86.2382,-185.0615 -116.8256,-227.3886 -333.1005,-460.9444 -46.3958,-50.1031 -89.6946,-93.5538 -96.2196,-96.557 -6.525,-3.0032 -19.0985,-14.5135 -27.9412,-25.5786 -34.5954,-43.2918 -110.0911,-105.2646 -178.3237,-146.3827 -39.327,-23.6989 -127.1105,-81.1532 -195.0747,-127.6765 -67.9641,-46.5231 -194.1884,-122.611 -280.4984,-169.0837 -86.3101,-46.4731 -162.6053,-89.6772 -169.5446,-96.0086 -108.7784,-99.2537 609.7898,12.8573 1013.4939,158.1249 115.9969,41.7398 141.8695,42.212 150.5339,2.7481 5.9147,-26.9395 -4.2747,-44.8048 -64.4715,-113.0437 -91.1107,-103.2827 -288.6057,-255.1714 -445.7348,-342.8048 -175.4826,-97.8688 -607.4387,-297.7158 -752.347,-348.0757 -68.0038,-23.6345 -197.7448,-71.0789 -288.3132,-105.4321 l -164.6699,-62.4599 -26.9619,-73.4501 c -92.2299,-251.2545 -207.9539,-375.3128 -404.2264,-433.3367 -246.3186,-72.8205 -496.1279,20.1653 -604.398,224.9714 -13.5962,25.7189 -29.6617,50.0755 -35.7019,54.1264 -6.0404,4.0496 -81.2095,2.3748 -167.043,-3.7232 -619.9339,-44.0443 -1181.329,56.6405 -1643.646,294.7827 -217.80523,112.1936 -415.76227,322.0372 -607.04581,643.4967 -82.56975,138.7626 -97.37093,172.6505 -188.57737,431.7554 -92.16157,261.8201 -130.211417,405.6396 -134.459764,508.2299 -0.860675,20.7757 -6.491792,90.2814 -12.513364,154.4571 -11.075778,118.0307 -0.318946,342.5618 21.969088,458.5618 48.67124,253.3163 111.36702,441.0806 269.317,806.5609 142.54781,329.8414 296.50713,570.6161 634.37268,992.086 38.22934,47.6888 79.85204,99.946 92.49504,116.1274 52.6135,67.3378 257.7955,290.7653 322.9745,351.6951 150.0312,140.2497 310.8692,275.5325 434.1689,365.1838 106.2155,77.2298 821.0299,407.2653 947.8701,437.6393 198.2341,47.4703 539.0311,54.3537 831.3447,16.7915 59.3973,-7.6326 119.9471,-8.3764 134.5552,-1.6528 17.5009,8.055 60.6366,-0.7724 126.4656,-25.8803 54.948,-20.9581 126.7576,-41.6012 159.5764,-45.8739 81.5862,-10.6218 325.821,-65.855 394.322,-89.1753 30.8039,-10.4869 99.1013,-30.9445 151.7715,-45.4613 52.6703,-14.5167 114.0098,-37.1757 136.3094,-50.3536 22.2998,-13.1777 56.6436,-31.366 76.3196,-40.4178 41.9836,-19.3147 45.4543,-25.5857 29.5483,-53.3885 z"
     id="path856" />
  <path
     style="color:#000000;font-style:normal;font-variant:normal;font-weight:normal;font-stretch:normal;font-size:medium;line-height:normal;font-family:sans-serif;font-variant-ligatures:normal;font-variant-position:normal;font-variant-caps:normal;font-variant-numeric:normal;font-variant-alternates:normal;font-variant-east-asian:normal;font-feature-settings:normal;font-variation-settings:normal;text-indent:0;text-align:start;text-decoration:none;text-decoration-line:none;text-decoration-style:solid;text-decoration-color:#000000;letter-spacing:normal;word-spacing:normal;text-transform:none;writing-mode:lr-tb;direction:ltr;text-orientation:mixed;dominant-baseline:auto;baseline-shift:baseline;text-anchor:start;white-space:normal;shape-padding:0;shape-margin:0;inline-size:0;clip-rule:nonzero;display:inline;overflow:visible;visibility:visible;isolation:auto;mix-blend-mode:normal;color-interpolation:sRGB;color-interpolation-filters:linearRGB;solid-color:#000000;solid-opacity:1;vector-effect:none;fill:#000000;fill-opacity:1;fill-rule:nonzero;stroke:none;stroke-linecap:butt;stroke-linejoin:miter;stroke-miterlimit:4;stroke-dasharray:none;stroke-dashoffset:0;stroke-opacity:1;color-rendering:auto;image-rendering:auto;shape-rendering:auto;text-rendering:auto;enable-background:accumulate;stop-color:#000000"
     d="m 3301.7344,2355.4336 c -191.4465,-2.2092 -365.8893,91.1966 -452.2481,254.5547 -6.6545,12.5878 -13.9546,24.9027 -20.2168,34.3965 -3.131,4.7469 -6.0122,8.7965 -8.33,11.7343 -1.8871,2.3919 -2.9582,3.3242 -3.293,3.6973 -0.5333,0.2 -1.0959,0.4491 -1.959,0.5508 -2.3562,0.2775 -5.9372,0.5186 -10.4004,0.6719 -8.9263,0.3065 -21.4536,0.29 -36.4824,-0.045 -30.0576,-0.6698 -70.2001,-2.605 -112.9824,-5.6445 -621.3608,-44.1457 -1184.5406,56.7367 -1648.6739,295.8145 v 0 c -220.01154,113.33 -419.03533,324.7134 -610.8633,647.0879 -82.6623,138.9181 -98.14779,174.297 -189.375,433.4609 -92.25153,262.0757 -130.659954,406.4254 -134.990231,510.9941 -0.825975,19.9381 -6.467045,89.8741 -12.480469,153.9629 -11.234116,119.7181 -0.512483,343.5677 22.097656,461.2442 48.792484,253.9473 111.870754,442.8111 269.927734,808.539 142.86848,330.5834 297.59237,572.5128 635.68164,994.2617 38.21577,47.6719 79.89757,100.0058 92.42187,116.0352 53.7154,68.748 257.5944,290.7363 323.9727,352.7871 150.2794,140.4818 311.2736,275.9137 435.0722,365.9277 28.0518,20.3966 92.3199,55.1466 176.3907,97.4922 84.0707,42.3457 187.4177,91.825 291.416,139.8418 103.9982,48.0168 208.6334,94.5657 295.2871,131.045 86.6536,36.4792 154.6182,62.7875 188.1543,70.8183 200.4324,47.9967 541.3853,54.6746 834.7715,16.9746 29.3321,-3.7692 59.0389,-5.8387 82.9785,-6.1328 11.9698,-0.147 22.5087,0.1534 30.7011,0.8691 8.1925,0.7158 14.3629,2.2068 15.6875,2.8165 12.6451,5.82 28.9739,4.6816 50.9922,0.1757 22.0183,-4.5059 49.6239,-13.1404 82.8379,-25.8086 54.313,-20.7159 126.7249,-41.3324 157.416,-45.3281 83.3622,-10.853 325.4654,-65.537 396.1582,-89.6035 30.3161,-10.3208 98.7404,-30.8286 151.2344,-45.2969 53.2908,-14.6877 113.856,-36.6991 138.6211,-51.334 21.9176,-12.9518 56.3562,-31.1785 75.4551,-39.9648 21.2564,-9.7791 34.237,-15.6343 40.8301,-27.5469 3.2965,-5.9563 3.6034,-13.1794 1.9414,-19.5332 -1.662,-6.3538 -4.8163,-12.458 -8.9434,-19.6719 -5.5604,-9.7191 -14.3297,-17.2577 -26.6269,-21.2324 -12.2972,-3.9746 -28.0107,-5.4058 -51.1348,-6.1113 -30.5786,-0.933 -101.7658,-9.4439 -156.0879,-18.834 -54.8094,-9.4743 -136.5554,-22.9181 -181.8711,-29.9101 -45.1983,-6.9743 -107.7782,-16.6643 -139.0488,-21.5313 -58.3944,-9.0886 -434.0968,-89.4827 -542.3867,-116.2129 -38.4858,-9.4999 -67.0197,-22.9345 -79.8418,-34.1445 -6.4111,-5.605 -8.0658,-10.0071 -8.0118,-11.6328 0.054,-1.6257 0.94,-4.1132 8.2715,-7.7539 3.7,-1.8374 13.6631,-4.4305 25.002,-5.8575 11.3388,-1.4269 24.4005,-2.0173 35.9453,-1.4257 66.7152,3.4182 231.0907,-20.3067 327.1816,-46.4317 44.3406,-12.0551 106.7059,-27.1158 137.7129,-33.2832 58.6456,-11.6648 125.9948,-27.5714 179.2129,-41.6601 26.6091,-7.0444 49.6593,-13.624 66.4512,-19.0469 8.3959,-2.7115 15.1991,-5.1146 20.3242,-7.2617 2.5626,-1.0736 4.686,-2.0561 6.625,-3.1934 1.8988,-1.1137 4.2304,-1.132 6.2891,-6.7148 -1.4234,3.8404 -1.6817,2.4729 -0.7285,1.7949 1.0004,-0.7117 2.8827,-1.8778 5.3457,-3.2422 4.9259,-2.7288 12.2386,-6.3405 21.1757,-10.4395 17.8743,-8.1978 42.3365,-18.4169 68.8477,-28.5703 87.9786,-33.6942 169.6224,-71.836 257.8398,-120.4433 7.7243,-4.256 13.6922,-7.5285 18.5957,-11.084 4.9036,-3.5556 9.2309,-7.9107 11.043,-13.9063 1.8121,-5.9955 0.7117,-11.9286 -1.2598,-17.8144 -1.9714,-5.8858 -4.9815,-12.327 -8.8847,-20.7051 -6.6317,-14.234 -14.9956,-25.7383 -27.627,-35.6133 -12.6313,-9.8749 -29.1526,-18.2488 -52.9433,-28.2695 -33.9971,-14.3199 -75.9996,-25.6075 -99.5684,-24.959 -22.8598,0.629 -90.5348,-6.7656 -158.4844,-16.6445 -67.9495,-9.879 -137.8295,-22.3295 -167.1992,-30.7598 -25.2713,-7.2539 -37.361,-12.5771 -38.666,-14.0879 -0.6525,-0.7554 -0.7603,-0.3425 -0.2871,-3.5488 0.4732,-3.2063 2.2939,-8.9006 5.0312,-16.6914 2.7203,-7.7421 7.073,-15.7477 11.6075,-21.875 4.5345,-6.1273 9.8049,-10.1614 11.0742,-10.6367 22.2011,-8.314 51.2881,-30.1604 108.0449,-78.6133 21.1095,-18.021 58.28,-47.1115 81.8535,-64.0527 v 0 c 24.1591,-17.3625 48.7676,-36.4368 57.7051,-45.5391 17.937,-18.2674 80.8314,-83.6691 134.0664,-139.4043 12.3964,-12.9788 24.4843,-27.2485 34.1445,-39.9941 9.6602,-12.7457 16.7808,-23.0914 19.8965,-31.959 1.4086,-4.0089 7.4389,-14.7961 15.4609,-26.5313 8.022,-11.7352 18.1326,-25.0515 28.207,-36.8691 25.4045,-29.8002 54.9651,-83.8441 85.9454,-150.9473 30.9802,-67.1032 63.0132,-147.0262 91.6601,-227.2578 28.6469,-80.2316 53.8978,-160.7415 71.2676,-229.0684 17.3698,-68.3268 27.1779,-123.7113 23.7988,-157.2929 -3.1075,-30.8827 -0.1963,-71.9128 4.459,-85.2383 7.3638,-21.0735 8.4325,-59.7195 6.709,-102.0899 -1.7235,-42.3704 -6.8297,-86.9844 -15.1875,-116.2011 -2.6762,-9.3556 -4.5397,-19.8943 -5.3067,-28.9082 -0.7669,-9.0139 0.03,-17.0427 0.6016,-18.6758 2.3147,-6.6154 1.3195,-11.2487 0.5508,-19.209 -0.7687,-7.9603 -2.2425,-17.9701 -4.2969,-29.5469 -4.1088,-23.1536 -10.551,-52.501 -18.3769,-82.7246 -15.5384,-60.0085 -36.7756,-141.8536 -47.1973,-181.8945 -5.5756,-21.421 -21.8097,-64.7416 -43.873,-119.1309 -22.0634,-54.3893 -49.8545,-119.3045 -78.0918,-181.7265 -28.1432,-62.2142 -53.2427,-120.1893 -70.9668,-163.3692 -8.8621,-21.5899 -15.8847,-39.4988 -20.4844,-52.2656 -2.2999,-6.3834 -3.9967,-11.5043 -4.9766,-14.9648 -0.2446,-0.8639 -0.3015,-1.2216 -0.4531,-1.8516 0.8075,-0.2459 2.1662,-0.5415 4.7812,-0.498 6.933,0.1152 19.9451,2.7543 39.4903,8.9726 39.0903,12.4365 104.8567,38.6759 211.8652,83.4141 149.5057,62.5056 235.4105,105.1565 356.3379,176.9004 198.2949,117.6446 264.1781,169.593 291.084,224.5312 10.9833,22.4263 16.7444,35.366 28.6621,43.2246 11.9177,7.8587 25.6128,7.4606 48.7031,7.4981 14.4885,0.024 26.646,-1.3702 36.9278,-5.1953 10.2817,-3.8252 18.7171,-10.5666 23.6503,-19.8516 9.8666,-18.57 7.0134,-43.5656 -2.4648,-78.9766 -20.0685,-74.9786 -29.4001,-99.0651 -83.3457,-214.8301 -86.3674,-185.3386 -118.3838,-229.7425 -334.7441,-463.3906 -23.2688,-25.1281 -45.7497,-48.5767 -63.3028,-66.1914 -8.7765,-8.8073 -16.3103,-16.1494 -22.1699,-21.5742 -2.9298,-2.7124 -5.4335,-4.9395 -7.5527,-6.6953 -2.1192,-1.7558 -3.238,-2.9123 -6.1953,-4.2735 -1.1781,-0.5422 -5.965,-3.846 -10.6563,-8.1406 -4.6913,-4.2946 -9.7791,-9.6628 -13.832,-14.7344 -36.0446,-45.1052 -111.6491,-106.8939 -180.8438,-148.5917 -38.8655,-23.4209 -126.7853,-80.9502 -194.6113,-127.379 -68.5049,-46.8932 -194.644,-122.9173 -281.3613,-169.6093 -43.1018,-23.2079 -83.7111,-45.6037 -114.3594,-62.959 -15.3242,-8.6777 -28.1653,-16.0996 -37.5332,-21.7012 -4.684,-2.8008 -8.5034,-5.1507 -11.2774,-6.9355 -2.7739,-1.7848 -4.823,-3.3824 -4.4746,-3.0645 -6.0004,-5.475 -7.8602,-9.6417 -7.9629,-10.4101 -0.1026,-0.7684 -0.8644,-0.1854 2.2852,-2.1172 6.2993,-3.8636 26.5708,-7.9567 55.1563,-8.5332 57.1708,-1.1531 149.2475,8.0052 257.2109,24.8496 215.9267,33.6888 496.2799,98.0215 697.1738,170.3105 58.1997,20.9423 93.6668,31.9303 118.5645,32.3848 12.4488,0.2272 23.015,-2.6029 30.6465,-9.3906 7.6315,-6.7878 11.4544,-16.3181 13.8339,-27.1563 3.2971,-15.0172 1.6305,-30.0705 -8.4726,-47.7851 -10.1032,-17.7147 -27.9616,-39.3613 -58.1563,-73.5899 -92.5611,-104.9269 -289.9832,-256.5591 -448.2343,-344.8183 -176.4709,-98.42 -607.1153,-297.7567 -753.8575,-348.754 -67.8188,-23.5702 -197.5952,-71.0269 -288.0625,-105.3417 l -160.6113,-60.92 -25.4668,-69.373 c -92.7677,-252.7198 -211.6248,-380.401 -410.457,-439.1817 -54.7107,-16.1744 -109.6489,-24.2876 -163.2539,-24.9062 z m -0.1446,18.9531 c 51.7913,0.6342 104.9522,8.5108 158.0059,24.1953 193.7128,57.2672 306.3021,177.7049 397.9941,427.4942 l 28.4571,77.5254 168.7304,64 v 0 c 90.6696,34.3916 220.3738,81.8247 288.5625,105.5234 v 0 c 143.0744,49.7226 576.3416,250.0809 750.8359,347.3985 156.0071,87.0076 353.5741,239.1525 443.2344,340.791 30.0021,34.0103 47.3364,55.4171 55.8984,70.4297 8.5621,15.0126 9.0337,22.3609 6.4161,34.2832 -1.9527,8.8937 -4.6132,14.1029 -7.8946,17.0215 -3.2814,2.9186 -8.0581,4.7612 -17.6601,4.5859 -19.204,-0.3506 -54.6715,-10.4681 -112.4688,-31.2656 -202.8101,-72.9786 -483.5928,-137.3349 -700.6816,-171.2051 -108.5444,-16.9351 -200.9448,-26.2759 -260.5274,-25.0742 -29.7912,0.6008 -50.9652,2.9003 -64.7187,11.3359 -6.8768,4.2179 -12.3185,12.4269 -11.1934,20.8496 1.1251,8.4228 6.3993,15.0117 13.9961,21.9434 2.0833,1.9008 3.9382,3.0384 7.002,5.0098 3.0638,1.9713 7.0154,4.3995 11.8086,7.2656 9.5862,5.7321 22.516,13.2019 37.9218,21.9258 30.8117,17.4478 71.5046,39.891 114.7129,63.1562 85.9027,46.2534 212.2134,122.4037 279.6368,168.5567 68.1023,46.6178 155.7486,103.9976 195.5371,127.9746 67.2705,40.5383 142.6565,102.6955 175.8027,144.1738 v 0 c 4.7897,5.9936 10.4103,11.9111 15.8477,16.8887 5.4374,4.9777 10.1999,8.9297 15.5468,11.3906 -1.3261,-0.6103 0.3349,0.2497 2.0137,1.6407 1.6789,1.3909 3.9917,3.4415 6.7637,6.0078 5.5439,5.1325 12.9578,12.3474 21.6211,21.041 17.3265,17.3873 39.6933,40.7145 62.8203,65.6895 216.1894,233.4634 245.348,273.7156 331.457,458.5 53.878,115.62 62.2568,137.1584 82.2129,211.7167 9.0758,33.9074 9.4354,54.9818 4.043,65.1309 -2.6962,5.0745 -6.5107,8.356 -13.4864,10.9512 -6.9756,2.5952 -17.0839,4.0214 -30.2636,4 -23.0188,-0.037 -32.7739,-0.7354 -38.2637,-4.3555 -5.4898,-3.62 -11.0924,-13.3395 -22.0488,-35.7109 -30.1492,-61.5606 -99.6674,-114.5838 -298.4629,-232.5254 -121.4854,-72.0749 -208.748,-115.3955 -358.7051,-178.0899 -107.1222,-44.7857 -172.8713,-71.0867 -213.4355,-83.9921 -20.2822,-6.4528 -34.1326,-9.6856 -44.9414,-9.8653 -5.4045,-0.09 -10.2598,0.5743 -14.668,2.8633 -4.4082,2.289 -7.838,6.5464 -9.3281,10.8379 -1.5231,4.3836 -0.6019,5.4307 -0.3008,7.1816 0.3011,1.7513 0.753,3.5542 1.3515,5.668 1.1972,4.2276 2.9987,9.6149 5.3828,16.2324 4.7684,13.2351 11.8591,31.2999 20.7833,53.041 17.8482,43.4823 43.0108,101.5968 71.2324,163.9844 28.1278,62.1799 55.8413,126.9184 77.7949,181.0371 21.9536,54.1188 38.2479,98.1616 43.0918,116.7715 10.4168,40.0221 31.6552,121.8711 47.1914,181.8711 7.7113,29.7809 14.0687,58.7757 18.0625,81.2813 1.9969,11.2527 3.4014,20.9008 4.0918,28.0507 0.6904,7.15 -0.2649,13.0793 0.4277,11.0996 -2.6722,7.6378 -2.4779,16.2464 -1.5996,26.5684 0.8783,10.322 2.907,21.8171 5.9707,32.5273 7.4842,26.1629 12.789,70.3986 14.4707,111.7422 1.6818,41.3436 -0.8493,81.2755 -5.6601,95.043 v 0 c -7.2423,20.7306 -8.7808,60.0939 -5.4278,93.416 2.7636,27.4646 -6.1446,83.1861 -23.3086,150.7031 -17.1639,67.517 -42.2643,147.5882 -70.7461,227.3574 -28.4817,79.7692 -60.3535,159.2676 -91.0156,225.6817 -30.6621,66.414 -60.482,119.9851 -83.1523,146.5781 v 0 c -10.571,12.4001 -20.9992,26.1353 -29.4355,38.4765 -8.4364,12.3413 -14.7857,22.6559 -17.7031,30.959 -1.2103,3.4447 -7.9393,14.6765 -17.1094,26.7754 -9.1701,12.099 -20.8926,25.9415 -32.7402,38.3457 -53.1997,55.6982 -116.2787,121.2864 -133.8848,139.2168 -5.3596,5.4585 -31.5731,26.4152 -55.2344,43.4199 -24.2468,17.4252 -61.3072,46.4219 -83.1035,65.0293 -56.4042,48.1519 -85.7641,69.05 -102.3672,75.2676 -8.1506,3.0522 -13.9625,9.3928 -19.6933,17.1367 -5.7309,7.744 -10.8268,17.1064 -14.2618,26.8828 -2.7654,7.8707 -4.9889,14.0186 -5.9043,20.2208 -0.9153,6.2021 0.2442,13.5906 4.709,18.7597 8.9296,10.3382 22.4784,12.665 47.8145,19.9375 32.1766,9.236 101.3683,21.3628 169.7109,31.2988 68.3426,9.9361 134.1804,17.5944 161.7441,16.836 15.7932,-0.4345 59.8446,10.0727 91.6622,23.4746 23.1706,9.7596 38.2646,17.6358 48.6113,25.7246 10.3467,8.0888 16.3225,16.2623 22.0996,28.6621 3.8841,8.337 6.6867,14.5257 8.0898,18.7149 1.4032,4.1891 1.2394,5.7747 1.0899,6.2695 -0.1495,0.4947 -0.6841,1.602 -4.002,4.0078 -3.3178,2.4058 -8.9288,5.5923 -16.6093,9.8242 -87.5574,48.2437 -168.2901,85.9542 -255.4629,119.3399 -26.841,10.2797 -51.5725,20.6041 -69.9766,29.0449 -9.202,4.2204 -16.8,7.952 -22.4609,11.0879 -2.8305,1.5679 -5.1599,2.964 -7.1543,4.3828 -1.5794,1.1235 -3.174,1.4011 -4.7852,4.3086 -0.7908,0.4274 -1.9176,1.0027 -3.7246,1.7597 -4.2225,1.769 -10.7075,4.0851 -18.8203,6.7051 -16.2257,5.2401 -39.0732,11.7704 -65.4746,18.7598 -52.8028,13.9788 -119.9223,29.8298 -178.0547,41.3926 -32.0177,6.3684 -94.1708,21.3981 -138.9922,33.584 -93.5061,25.4222 -260.8828,48.8823 -321.2168,45.791 -12.8969,-0.6609 -26.83,-0.02 -39.2949,1.5488 -12.4649,1.5687 -23.1132,3.7352 -31.0879,7.6953 -10.6937,5.3104 -18.4751,13.7779 -18.8203,24.1582 -0.3452,10.3803 5.869,19.0364 14.5019,26.584 17.266,15.0952 47.5228,28.3482 87.8028,38.291 109.5874,27.0505 481.2051,106.7645 544.0195,116.541 31.2902,4.87 93.8668,14.5595 139.0742,21.5352 45.0906,6.9573 126.8741,20.4074 181.5313,29.8555 55.1443,9.5322 125.6348,18.0931 158.748,19.1035 22.5244,0.6872 37.0204,2.3384 45.8653,5.1972 8.8448,2.8588 12.1485,5.9042 15.9667,12.5782 3.826,6.6875 6.202,11.7939 7.0508,15.039 0.8489,3.2451 0.6492,4.0086 -0.1816,5.5098 -1.6617,3.0023 -11.4096,9.9409 -32.1367,19.4765 -20.2532,9.3174 -54.5016,27.4676 -77.1836,40.8711 -19.8341,11.721 -81.9483,35.0255 -133.9981,49.3711 -52.8464,14.5654 -121.0169,34.974 -152.3086,45.627 -66.3091,22.5741 -312.6761,78.3575 -392.4863,88.748 -34.9465,4.5497 -106.1553,25.2177 -161.7383,46.418 -32.6141,12.4393 -59.4914,20.7744 -79.873,24.9453 -20.3821,4.1711 -34.3707,3.4166 -39.2266,1.1817 -5.9794,-2.7521 -12.8571,-3.6891 -21.9824,-4.4864 -9.1253,-0.7972 -20.1735,-1.092 -32.5918,-0.9394 -24.8367,0.3051 -55.1028,2.4217 -85.168,6.2851 -291.241,37.4244 -631.8822,30.3365 -827.9179,-16.6074 -29.8841,-7.1562 -98.8361,-33.491 -185.2032,-69.8496 -86.367,-36.3586 -190.8579,-82.8407 -294.6953,-130.7832 -103.8373,-47.9425 -207.0382,-97.3545 -290.832,-139.5605 -83.7938,-42.2061 -148.7058,-77.6704 -173.7617,-95.8887 -122.8008,-89.2886 -283.4847,-224.4219 -433.2676,-364.4395 -63.9798,-59.8087 -270.463,-284.674 -321.9746,-350.6015 -12.7617,-16.3334 -54.3254,-68.515 -92.5684,-116.2207 C 664.3445,6527.6275 511.15097,6288.0076 368.92383,5958.9082 211.08085,5593.6755 148.76484,5407.0095 100.21484,5154.3242 78.248915,5040.0006 67.45756,4814.7887 78.375,4698.4453 c 6.02972,-64.2625 11.651499,-133.3378 12.546875,-154.9512 4.166417,-100.6118 41.858085,-243.9003 133.929685,-505.4648 91.18568,-259.0459 105.3021,-291.4437 187.7793,-430.0508 190.73911,-320.5445 387.62763,-528.8472 603.22654,-639.9043 460.5008,-237.2066 1020.1102,-337.6949 1638.6172,-293.7519 43.0511,3.0585 83.4108,5.0098 113.9063,5.6894 15.2477,0.3398 28.0095,0.365 37.5586,0.037 4.7745,-0.1639 8.7266,-0.4087 11.9726,-0.791 3.246,-0.3822 4.906,0.3322 9.5762,-2.7988 v 0 c 3.5519,-2.3821 5.5666,-4.9846 8.3847,-8.5566 2.8182,-3.572 5.9356,-7.9795 9.2754,-13.043 6.6798,-10.1269 14.2126,-22.8493 21.1543,-35.9804 82.8133,-156.6515 250.3182,-246.7554 435.2871,-244.4903 z m 1476.7579,2223.5528 c 0.01,0.045 -0.1343,0.4804 -0.1407,0.5781 -0.01,-0.03 -0.034,-0.1308 -0.039,-0.1582 -0.055,-0.321 0.1322,-0.6304 0.1797,-0.4199 z M 4452.582,7442.916 c 0.3445,-0.2136 0.3899,0.232 0.053,0.4297 -0.096,0.056 -0.4896,0.2219 -0.6211,0.293 0.2194,-0.3362 0.4344,-0.6396 0.5683,-0.7227 z m -0.58,0.7383 c -0.4217,0.7625 -0.8433,1.5854 -1.2676,2.793 0.5178,-1.4738 0.9246,-2.2615 1.2676,-2.793 z"
     id="path858" />
</svg>
