<?xml version="1.0" encoding="UTF-8" standalone="no"?>
<svg
   xmlns:dc="http://purl.org/dc/elements/1.1/"
   xmlns:cc="http://creativecommons.org/ns#"
   xmlns:rdf="http://www.w3.org/1999/02/22-rdf-syntax-ns#"
   xmlns:svg="http://www.w3.org/2000/svg"
   xmlns="http://www.w3.org/2000/svg"
   xmlns:sodipodi="http://sodipodi.sourceforge.net/DTD/sodipodi-0.dtd"
   xmlns:inkscape="http://www.inkscape.org/namespaces/inkscape"
   height="7845.0px"
   width="6750.0px"
   version="1.1"
   id="svg39"
   sodipodi:docname="1012.svg"
   inkscape:version="1.0.2-2 (e86c870879, 2021-01-15)">
  <metadata
     id="metadata43">
    <rdf:RDF>
      <cc:Work
         rdf:about="">
        <dc:format>image/svg+xml</dc:format>
        <dc:type
           rdf:resource="http://purl.org/dc/dcmitype/StillImage" />
      </cc:Work>
    </rdf:RDF>
  </metadata>
  <sodipodi:namedview
     pagecolor="#ffffff"
     bordercolor="#666666"
     borderopacity="1"
     objecttolerance="10"
     gridtolerance="10"
     guidetolerance="10"
     inkscape:pageopacity="0"
     inkscape:pageshadow="2"
     inkscape:window-width="1920"
     inkscape:window-height="1017"
     id="namedview41"
     showgrid="false"
     inkscape:zoom="0.076614501"
     inkscape:cx="3051.9746"
     inkscape:cy="4620.5282"
     inkscape:window-x="-8"
     inkscape:window-y="-8"
     inkscape:window-maximized="1"
     inkscape:current-layer="svg39" />
  <path
     style="stroke-width:100"
     d="m 2450,6130 c 26.6667,263.3333 128.3333,510 305,740 l 185,210 90,75 h 5 l 25,25 90,80 -90,40 -155,80 -290,75 -50,15 -25,15 -35,-5 h -20 -15 l -200,-35 -180,-45 -45,-15 -10,-75 -70,-705 10,-55 80,-85 25,-100 200,-115 z"
     id="path1272" />
  <path
     style="stroke-width:100"
     d="m 590,6125 15,5 v -5 l 100,30 220,60 195,45 40,10 435,90 350,45 40,5 -20,135 -35,65 -30,365 c -3.3333,150 18.3333,280 65,390 -43.3333,43.3333 70,86.6667 340,130 l 150,25 -80,25 -160,40 5,10 -100,50 h -45 c -276.6667,-23.3333 -550,-75 -820,-155 L 980,7395 740,7270 C 540,7136.6667 440,6981.6667 440,6805 c 0,-266.6667 28.33333,-450 85,-550 z"
     id="path1270" />
  <path
     style="stroke-width:100"
     d="m 2455,5730 -5,35 -5,-10 -10,-15 z"
     id="path1268" />
  <path
     style="stroke-width:100"
     d="m 3110,4680 v 10 l -5,10 z"
     id="path1266" />
  <path
     style="stroke-width:100"
     d="m 480.05859,4374.707 c 3.29427,-0.013 6.60808,0.085 9.94141,0.293 l 80,10 h 20 l 85,10 165,20 150,20 565,115 305,45 h 65 60 l -35,75 -10,615 h 15 c 20,193.3333 61.6667,338.3333 125,435 l -10,5 -145,-10 -160,-10 -580,-75 -150,-45 -505,-155 h -5 C 391.66667,5350 310,5255 280,5145 l -5,-490 35,-170 35,-35 c 40.625,-50 85.64453,-75.0976 135.05859,-75.293 z"
     id="path1264" />
  <path
     style="stroke-width:100"
     d="m 2470,4305 c 80,286.6667 120,508.3333 120,665 l -75,350 -30,185 -20,120 v 15 l -15,-10 -95,40 -30,-5 -190,35 -20,-35 -55,-145 -40,-205 -5,-635 200,-215 45,-35 135,-65 50,-20 v -15 z"
     id="path1262" />
  <path
     style="stroke-width:100"
     d="m 2565,2635 10,70 -15,-55 z"
     id="path1260" />
  <path
     style="stroke-width:100"
     d="m 620,2275 h 125 110 l 140,5 645,100 275,65 155,35 h 5 l 40,5 -5,10 -10,15 -110,195 -45,105 115,-165 140,-170 55,10 c -40,86.6667 -68.3333,215 -85,385 -26.6667,273.3333 -23.3333,468.3333 10,585 l 85,215 -95,-40 -105,-20 -40,-5 -25,-25 v 20 h -25 l 5,-95 -5,-60 -35,-110 c -30,-56.6667 -45,-176.6667 -45,-360 v -10 c -63.3333,243.3333 -41.6667,453.3333 65,630 l -20,-5 -10,-20 -150,-40 -25,-10 -130,-50 -90,-20 -490,-150 -285,-85 -180,-55 c -90,-93.3333 -135,-233.3333 -135,-420 0,-263.3333 58.33333,-418.3333 175,-465 z"
     id="path1258" />
  <path
     style="stroke-width:100"
     d="m 3195,1850 15,10 10,5 20,10 55,25 50,25 130,80 120,95 -35,60 120,20 50,60 125,125 h 5 l 20,125 15,90 v 20 l 10,30 5,10 20,75 c 23.3333,86.6667 35,176.6667 35,270 v 10 l 10,30 c 33.3333,123.3333 58.3333,253.3333 75,390 20,150 30,306.6667 30,470 l -5,105 -5,55 -30,140 5,290 v 10 c 40,110 60,243.3333 60,400 l -15,190 v 20 l -5,40 -20,110 -15,740 -20,205 c -23.3333,210 -50,360 -80,450 l -5,15 -35,75 -15,15 c -20,53.3333 -43.3333,91.6667 -70,115 l -5,5 -10,-5 -20,-5 h -20 -30 -5 c -150,-6.6667 -261.6667,-35 -335,-85 l -15,-10 -20,-5 -55,-10 v -20 l 5,-5 h -10 l -170,-465 -75,-205 c -50,-150 -75,-251.6667 -75,-305 l -5,-10 c -30,-96.6667 -25,-256.6667 15,-480 l 65,-320 20,-55 5,-40 c 30,-166.6667 75,-265 135,-295 l 170,-35 185,-50 h 15 l 5,-5 60,-10 15,-5 50,-5 45,-5 h 5 l 15,5 25,-10 5,5 80,-15 5,5 55,-65 15,5 10,5 15,15 c 10,-13.3333 15,-36.6667 15,-70 l -5,-55 -30,35 -5,5 c -23.3333,20 -46.6667,31.6667 -70,35 l -95,80 h -50 l -40,5 -45,5 h -30 l -25,5 -40,10 -415,90 -50,-30 -40,-40 -10,-30 -80,-315 -10,-35 -210,-755 -5,-5 -130,-450 c -26.6667,-123.3333 -40,-238.3333 -40,-345 l 5,-190 75,-225 25,-20 c 46.6667,-43.3333 170,-103.3333 370,-180 l 15,-5 25,-10 z"
     id="path1254" />
  <path
     style="stroke-width:100"
     d="m 2900,1230 265,75 285,140 10,40 40,45 25,40 100,295 v 15 l -10,55 -10,20 -280,-60 -55,-20 -110,-45 -35,10 -55,20 h -10 l -255,75 -25,15 c -100,90 -176.6667,195 -230,315 v 165 l 5,90 -5,105 c 36.6667,220 70,365 100,435 l 5,10 10,20 h -5 l 10,15 -15,5 155,540 60,220 90,415 5,10 35,85 60,190 20,125 -20,125 -35,60 -45,280 -25,140 -5,20 -10,20 -10,105 -25,205 95,295 60,175 20,45 185,500 -5,15 5,35 v 5 l 25,65 5,20 h 40 l 5,10 75,10 95,15 90,15 95,20 h 15 20 l 40,15 5,40 h 40 l 25,-10 35,20 30,35 30,245 -445,-25 -80,-10 -10,-10 h -5 l -10,10 -35,30 -75,-35 -160,-60 -15,-10 -40,-30 -255,-185 C 2605,6658.3333 2505,6295 2505,5805 l 10,-40 10,5 c -6.6667,-156.6667 15,-320 65,-490 l 80,-310 c 0,-186.6667 -78.3333,-515 -235,-985 -160,-473.3333 -240,-733.3333 -240,-780 0,-170 41.6667,-353.3333 125,-550 l 80,-175 v -5 l 75,-120 165,-275 -25,-25 -190,280 c 10,-63.3333 15,-145 15,-245 l -20,-310 c 46.6667,-133.3333 131.6667,-253.3333 255,-360 l 200,-170 z"
     id="path1252" />
  <path
     style="stroke-width:100"
     d="m 2895,400 75,30 10,15 z"
     id="path1250" />
  <path
     style="stroke-width:100"
     d="m 1855,210 135,35 20,5 150,25 70,20 c 150,46.66667 366.6667,140 650,280 l 10,5 275,135 45,25 5,15 c 113.3333,90 188.3333,255 225,495 l -10,40 -20,15 25,90 -115,-65 c -193.3333,-106.6667 -315,-160 -365,-160 l -25,5 -5,-5 -105,40 c -120,56.6667 -218.3333,140 -295,250 -66.6667,126.6667 -106.6667,190 -120,190 h -25 c -96.6667,-106.6667 -300,-256.6667 -610,-450 L 1305,890 c 0,-156.66667 75,-305 225,-445 l 80,-75 z"
     id="path1248" />
  <path
     style="stroke-width:100"
     d="m 1920,0 -130,10 -30,5 -155,120 10,5 -25,10 -70,55 -35,15 c -86.6667,70 -175,175 -265,315 -196.6667,300 -161.6667,503.3333 105,610 153.3333,63.3333 361.6667,180 625,350 l 325,220 v 550 h -85 v 15 l -70,-5 c -123.3333,-56.6667 -351.6667,-106.6667 -685,-150 l -845,-80 c -213.33333,0 -318.33333,215 -315,645 l 5,150 95,365 35,155 155,45 c 453.3333,133.3333 811.6667,218.3333 1075,255 l 130,25 210,85 90,60 c 60,33.3333 115,55 165,65 43.3333,43.3333 65,83.3333 65,120 l -10,120 v 85 l -335,140 -30,15 -55,25 -390,-65 -190,-40 -875,-170 -5,-5 -150,105 C 173.33333,4298.3333 106.66667,4378.3333 60,4465 20,4608.3333 0,4760 0,4920 v 125 l 120,280 120,260 330,95 635,160 720,120 130,-30 v -10 h 35 l 110,-30 h 10 c 23.3333,6.6667 40,18.3333 50,35 23.3333,43.3333 58.3333,68.3333 105,75 l -30,20 h -5 c -63.3333,40 -161.6667,86.6667 -295,140 l -5,-5 v 5 h -5 l -150,65 -465,-95 -160,-40 h -10 C 1040,6013.3333 823.33333,5943.3333 590,5880 l -40,-10 -150,125 -75,95 -90,180 c -26.66667,140 -28.33333,326.6667 -5,560 l 35,270 170,360 505,140 480,140 570,105 165,-40 280,-65 h -20 c 153.3333,-50 258.3333,-95 315,-135 l 180,-45 160,-40 -5,-5 c 133.3333,-40 228.3333,-78.3333 285,-115 l 5,5 5,5 30,-60 c 0,0 688.3676,109.5241 711.7031,82.8691 C 4125.0386,7406.2141 4095,7235 4095,7235 l -40,-60 -30,-90 -10,-45 -40,-210 40,-115 45,-470 v -5 l 10,-190 5,-165 20,-20 10,-480 5,5 10,-40 h -10 -5 V 5165 L 4133.8419,4847.3493 4115,4535 l 5,-195 v -195 -50 -5 -55 l 2.7871,-47.1152 C 4113.9794,3840.915 4082.3567,3588.6674 4065,3425 l -40,-395 -45,-455 -5,-60 v -15 -130 l -5,-15 v -20 l -5,-5 -10,-80 c -5.0845,-69.5425 -34.6668,-181.978 -85,-205 l -100,-65 c -3.3333,-73.3333 21.6667,-171.6667 75,-295 l 35,-75 c -63.3333,-76.6667 -113.3333,-165 -150,-265 L 3570,950 3475,670 C 3241.6667,496.66667 3030,375 2840,305 2753.3333,275 2613.3333,220 2420,140 L 2095,30 h -65 z"
     id="path2"
     sodipodi:nodetypes="ccccccccccccccccccccccccccccccccccccccccsccccccccccccccccccccccccccccccccccccccccccccczccccccccccccccccccccccccccccccccccccccccccccccc" />
  <path
     style="stroke-width:100;fill:#52524b;fill-opacity:1"
     d="m 605,6130 10,65 q 125,650 125,950 v 125 q -300,-200 -300,-465 0,-400 85,-550 l 65,-130 15,5"
     id="path1176" />
  <path
     style="stroke-width:100;fill:#52524b;fill-opacity:1"
     d="m 2940,7080 -535,255 -60,35 40,-25 -110,-80 q -125,-125 -155,-345 -10,-225 -30,-290 l -35,-165 25,-100 200,-115 170,-120 q 40,395 305,740 l 185,210"
     id="path1174" />
  <path
     style="stroke-width:100;fill:#52524b;fill-opacity:1"
     d="m 2060,5520 -40,-205 -5,-635 200,-215 45,-35 135,-65 50,-20 v -15 l 25,-25 q 120,430 120,665 l -75,350 -30,185 -315,-45 -130,-15 20,75"
     id="path1172" />
  <path
     style="stroke-width:100;fill:#52524b;fill-opacity:1"
     d="M 525,5430 Q 325,5310 280,5145 l -5,-490 35,-170 35,-35 q 65,-80 145,-75 l 80,10 180,870 v 110 l -245,50 20,15"
     id="path1170" />
  <path
     style="stroke-width:100;fill:#52524b;fill-opacity:1"
     d="m 1895,2975 70,-215 25,-55 -45,105 115,-165 140,-170 55,10 q -60,130 -85,385 -40,410 10,585 l 85,215 -95,-40 -105,-20 -35,-60 -55,-105 -35,-110 q -45,-85 -45,-360"
     id="path1168" />
  <path
     style="stroke-width:100;fill:#52524b;fill-opacity:1"
     d="m 745,2275 25,175 5,715 -15,50 -180,-55 q -135,-140 -135,-420 0,-395 175,-465 h 125"
     id="path1166" />
  <path
     style="stroke-width:100;fill:#52524b;fill-opacity:1"
     d="m 3315,6720 h -10 l -170,-465 -75,-205 q -75,-225 -75,-305 l -5,-10 q -45,-145 15,-480 l 65,-320 20,-55 5,-40 q 45,-250 135,-295 l 170,-35 185,-50 10,55 15,150 5,25 q 55,520 55,765 l -150,745 -20,65 v 10 l -10,25 v 10 l -20,55 v 10 l -10,25 v 10 l -25,75 -5,15 v 5 l -5,10 v 5 l -5,5 -20,75 -20,65 -5,10 v 5 h -10 l -40,40"
     id="path1164" />
  <path
     style="stroke-width:100;fill:#52524b;fill-opacity:1"
     d="m 3575,4435 -415,90 -50,-30 -40,-40 -10,-30 -80,-315 -10,-35 -210,-755 -5,-5 -130,-450 q -40,-185 -40,-345 l 5,-190 75,-225 25,-20 q 70,-65 370,-180 l 15,-5 25,-10 q -25,190 45,550 70,395 205,835 40,150 175,1040 l 20,100 5,20 h 25"
     id="path1162" />
  <path
     style="stroke-width:100;fill:#52524b;fill-opacity:1"
     d="m 2875,1250 60,200 125,380 10,30 h -10 l -255,75 -25,15 q -150,135 -230,315 v 165 l 5,90 -5,105 q 55,330 100,435 l -10,-25 -10,5 25,70 155,540 60,220 90,415 5,10 35,85 60,190 20,125 -20,125 -35,60 -45,280 -25,140 -5,20 -10,20 -10,105 -25,205 95,295 60,175 20,45 185,500 -5,15 5,35 v 5 l 25,65 -10,-20 -30,40 -190,275 -255,-185 Q 2505,6540 2505,5805 l 10,-40 10,5 q -10,-235 65,-490 l 80,-310 q 0,-280 -235,-985 -240,-710 -240,-780 0,-255 125,-550 l 80,-175 v -5 l 75,-120 165,-275 -25,-25 -190,280 q 15,-95 15,-245 l -20,-310 q 70,-200 255,-360 l 200,-170"
     id="path1160" />
  <path
     style="stroke-width:100;fill:#52524b;fill-opacity:1"
     d="m 2010,250 -95,105 -175,185 q 200,95 305,165 l 720,470 55,35 q -180,85 -295,250 -100,190 -120,190 h -25 Q 2235,1490 1770,1200 L 1305,890 q 0,-235 225,-445 l 80,-75 245,-160 135,35 20,5"
     id="path1158" />
  <path
     style="stroke-width:100;stroke:none;stroke-opacity:1;fill:#2c2c27;fill-opacity:1"
     d="m 605,6130 v -5 l 100,30 220,60 195,45 40,10 435,90 350,45 40,5 -20,135 -35,65 -30,365 q -5,225 65,390 -65,65 340,130 l 150,25 -80,25 -160,40 5,10 -100,50 h -45 q -415,-35 -820,-155 L 980,7395 740,7270 v -125 q 0,-300 -125,-950 l -10,-65"
     id="path1150" />
  <path
     style="stroke-width:100;stroke:none;stroke-opacity:1;fill:#2c2c27;fill-opacity:1"
     d="m 3430,6670 -20,20 15,5 5,-25"
     id="path1148" />
  <path
     style="stroke-width:100;stroke:none;stroke-opacity:1;fill:#2c2c27;fill-opacity:1"
     d="m 2940,7080 90,75 h 5 l 25,25 90,80 -90,40 -155,80 -290,75 -50,15 -25,15 -35,-5 h -20 -15 l -200,-35 -180,-45 -55,-90 -70,-705 10,-55 80,-85 35,165 q 20,65 30,290 30,220 155,345 l 110,80 -40,25 60,-35 535,-255"
     id="path1146" />
  <path
     style="stroke-width:100;stroke:none;stroke-opacity:1;fill:#2c2c27;fill-opacity:1"
     d="m 2060,5520 -20,-75 130,15 315,45 -20,120 v 15 l -15,-10 -95,40 -30,-5 -190,35 -20,-35 -55,-145"
     id="path1144" />
  <path
     style="stroke-width:100;stroke:none;stroke-opacity:1;fill:#2c2c27;fill-opacity:1"
     d="m 525,5430 -20,-15 245,-50 V 5255 L 570,4385 h 20 l 85,10 165,20 150,20 565,115 305,45 h 65 60 l -35,75 -10,615 h 15 q 30,290 125,435 l -10,5 -145,-10 -160,-10 -580,-75 -150,-45 -505,-155 h -5"
     id="path1142" />
  <path
     style="stroke-width:100;stroke:none;stroke-opacity:1;fill:#2c2c27;fill-opacity:1"
     d="m 745,2275 h 110 l 140,5 645,100 275,65 155,35 h 5 l 40,5 -5,10 -10,15 -110,195 -25,55 -70,215 v -10 q -95,365 65,630 l -20,-5 -10,-20 -150,-40 -25,-10 -130,-50 -90,-20 -490,-150 -285,-85 15,-50 -5,-715 -25,-175"
     id="path1140" />
  <path
     style="stroke-width:100;stroke:none;stroke-opacity:1;fill:#2c2c27;fill-opacity:1"
     d="m 3060,7080 190,-275 30,-40 10,20 5,20 h 40 l 5,10 75,10 95,15 90,15 95,20 h 15 20 l 40,15 5,40 h 40 l 25,-10 35,20 30,35 30,245 -445,-25 -80,-10 -10,-10 h -5 l -10,10 -35,30 -75,-35 -160,-60 -15,-10 -40,-30"
     id="path1138" />
  <path
     style="stroke-width:100;stroke:none;stroke-opacity:1;fill:#2c2c27;fill-opacity:1"
     d="m 3575,4435 h -25 l -5,-20 -20,-100 q -135,-890 -175,-1040 -135,-440 -205,-835 -70,-360 -45,-550 l 95,-40 15,10 10,5 20,10 55,25 50,25 130,80 120,95 -35,60 120,20 50,60 125,125 h 5 l 20,125 15,90 v 20 l 10,30 5,10 20,75 q 35,130 35,270 v 10 l 10,30 q 50,185 75,390 30,225 30,470 l -5,105 -5,55 -30,140 5,290 v 10 q 60,165 60,400 l -15,190 v 20 l -5,40 -20,110 -15,740 -20,205 q -35,315 -80,450 l -5,15 -35,75 -15,15 q -30,80 -70,115 l -5,5 -10,-5 -20,-5 h -20 -30 -5 q -225,-10 -335,-85 l -15,-10 -20,-5 -55,-10 v -20 l 5,-5 40,-40 h 10 v -5 l 5,-10 20,-65 20,-75 5,-5 v -5 l 5,-10 v -5 l 5,-15 25,-75 v -10 l 10,-25 v -10 l 20,-55 v -10 l 10,-25 v -10 l 20,-65 150,-745 q 0,-245 -55,-765 l -5,-25 -15,-150 -10,-55 h 15 l 5,-5 60,-10 15,-5 50,-5 45,-5 h 5 l 15,5 25,-10 5,5 80,-15 5,5 55,-65 15,5 10,5 15,15 q 15,-20 15,-70 l -5,-55 -30,35 -5,5 q -35,30 -70,35 l -95,80 h -50 l -40,5 -45,5 h -30 l -25,5 -40,10"
     id="path1136" />
  <path
     style="stroke-width:100;stroke:none;stroke-opacity:1;fill:#2c2c27;fill-opacity:1"
     d="m 2875,1250 25,-20 265,75 285,140 10,40 40,45 h -10 l 35,40 100,295 v 15 l -10,55 -10,20 -280,-60 -55,-20 -110,-45 -35,10 -55,20 -10,-30 -125,-380 -60,-200"
     id="path1134" />
  <path
     style="stroke-width:100;stroke:none;stroke-opacity:1;fill:#2c2c27;fill-opacity:1"
     d="m 2010,250 150,25 70,20 q 225,70 650,280 l 10,5 275,135 45,25 5,15 q 170,135 225,495 l -10,40 -20,15 25,90 -115,-65 q -290,-160 -365,-160 l -25,5 -5,-5 -105,40 -55,-35 -720,-470 Q 1940,635 1740,540 l 175,-185 95,-105"
     id="path1132" />
  <path
     d="m 2655,3110 -25,-70 10,-5 10,25 5,10 10,20 h -5 l 10,15 -15,5 m -590,500 -40,-5 -25,-25 v 20 h -25 l 5,-95 -5,-60 55,105 35,60"
     fill="#445861"
     fill-rule="evenodd"
     stroke="none"
     id="path24"
     style="stroke-width:100" />
  <path
     d="m 3525,1570 -35,-40 h 10 l 25,40 m -1490,5740 55,90 -45,-15 -10,-75"
     fill="#818c8c"
     fill-rule="evenodd"
     stroke="none"
     id="path26"
     style="stroke-width:100" />
  <path
     d="m 3430,6670 -5,25 -15,-5 20,-20"
     fill="#72736c"
     fill-rule="evenodd"
     stroke="none"
     id="path28"
     style="stroke-width:100" />
  <defs
     id="defs37">
    <linearGradient
       gradientTransform="matrix(-0.06,-3.54,1.61,-0.02,10695,4575)"
       gradientUnits="userSpaceOnUse"
       id="gradient0"
       spreadMethod="pad"
       x1="-819.2"
       x2="819.2">
      <stop
         offset="0.0"
         stop-color="#635b58"
         id="stop32" />
      <stop
         offset="1.0"
         stop-color="#d3cebc"
         id="stop34" />
    </linearGradient>
  </defs>
</svg>
