<?xml version="1.0" encoding="UTF-8" standalone="no"?>
<svg
   xmlns:dc="http://purl.org/dc/elements/1.1/"
   xmlns:cc="http://creativecommons.org/ns#"
   xmlns:rdf="http://www.w3.org/1999/02/22-rdf-syntax-ns#"
   xmlns:svg="http://www.w3.org/2000/svg"
   xmlns="http://www.w3.org/2000/svg"
   xmlns:sodipodi="http://sodipodi.sourceforge.net/DTD/sodipodi-0.dtd"
   xmlns:inkscape="http://www.inkscape.org/namespaces/inkscape"
   height="8310"
   width="5870"
   version="1.1"
   id="svg46"
   sodipodi:docname="1.svg"
   inkscape:version="1.0.2-2 (e86c870879, 2021-01-15)">
  <metadata
     id="metadata50">
    <rdf:RDF>
      <cc:Work
         rdf:about="">
        <dc:format>image/svg+xml</dc:format>
        <dc:type
           rdf:resource="http://purl.org/dc/dcmitype/StillImage" />
        <dc:title></dc:title>
      </cc:Work>
    </rdf:RDF>
  </metadata>
  <sodipodi:namedview
     pagecolor="#ffffff"
     bordercolor="#666666"
     borderopacity="1"
     objecttolerance="10"
     gridtolerance="10"
     guidetolerance="10"
     inkscape:pageopacity="0"
     inkscape:pageshadow="2"
     inkscape:window-width="1920"
     inkscape:window-height="1017"
     id="namedview48"
     showgrid="false"
     inkscape:zoom="0.056505787"
     inkscape:cx="-1096.5305"
     inkscape:cy="3283.5107"
     inkscape:window-x="-8"
     inkscape:window-y="-8"
     inkscape:window-maximized="1"
     inkscape:current-layer="svg46"
     inkscape:document-rotation="0" />
  <path
     d="m 5045,155 615,240 105,90 25,10 -5,10 5,15 15,240 65,1170 -10,45 -55,270 -115,460 -5,155 q -80,255 -145,600 l -95,510 -200,470 q -110,295 -125,530 -35,155 -30,270 l -10,95 -15,60 -5,30 q -250,-335 -310,-335 h -15 l -150,-95 -65,-35 q 330,510 330,1020 l -725,700 -90,45 15,15 -610,505 -115,95 -25,35 -25,5 -15,10 -75,-20 q -385,-105 -590,-215 -500,-275 -675,-880 l 130,-185 h -20 l -40,-5 q -400,-245 -780,-865 l -115,-190 -15,-30 q 0,-215 45,-405 l -470,-585 -95,-130 -375,-535 35,-225 80,-460 55,-325 115,-265 80,-255 315,-760 115,-240 495,-705 95,-95 100,60 q 425,290 675,505 l 195,190 240,310 -10,10 -225,450 -150,160 -350,640 15,35 -10,15 q -35,85 15,245 45,155 95,155 80,0 265,-185 l 450,-45 h 295 l 10,5 115,-30 30,-5 140,-15 q 120,-25 385,-185 l 25,-15 h 5 l 100,-70 h -5 l 60,-40 30,-55 q 70,-175 110,-1160 l 25,-655 q -5,-75 70,-335 l 330,40 275,85 170,30 m 545,1485 10,-575 35,-230 v -90 -10 -20 l -70,-115 -80,-25 -300,-105 -370,-145 -100,-15 -10,5 -150,25 -55,35 10,-15 v -5 -10 l -15,10 -25,25 -15,-5 -5,30 -95,550 -50,275 5,720 q 30,185 90,265 l 15,10 15,5 10,15 h 5 q 150,185 455,230 l 185,25 180,25 h 10 l 65,10 145,-75 55,-20 35,-195 10,-95 -5,-55 v -75 h 5 l 5,-380 m -495,1440 60,-25 230,-150 70,-45 30,-160 -15,-30 -20,-55 -155,-40 v -5 l -40,-5 -20,-10 -220,-50 -475,-90 -120,-60 -30,-25 -10,10 -100,-30 -35,20 h -30 l -150,90 25,20 v 5 q 45,105 165,225 l 75,110 q 255,435 580,375 l 185,-75 M 3355,2960 v 10 q 170,405 295,885 255,540 365,645 l 30,30 50,-15 220,165 150,200 5,10 q 245,155 465,175 0,-180 65,-350 55,-195 225,-630 105,-310 145,-615 h -10 l 20,-85 30,-330 v -20 l -15,-45 -20,-5 -275,135 -135,45 -150,45 -190,-25 -235,-285 -330,-370 -75,-60 -35,15 -50,30 -75,50 -80,50 -40,25 -335,150 -15,170 m 1645,2620 q -25,-45 -40,-105 l 60,80 -20,25 M 1440,3205 h 5 q 135,0 175,-185 65,-320 170,-545 l 10,-45 -5,-55 75,-175 5,10 40,-95 q 150,-335 330,-600 105,-140 210,-390 L 2310,950 Q 2065,645 1950,575 l -270,-155 -35,20 -105,120 -90,110 -45,55 -5,5 -10,10 -15,20 -310,520 -50,100 -105,195 -185,330 -100,310 -110,440 -40,145 v 45 q 45,100 435,230 365,125 530,130 m -35,55 Q 1225,3240 930,3145 610,3040 465,3015 v 90 q 0,80 80,280 l 80,190 -10,70 555,795 25,-75 105,-280 230,-330 35,-50 160,-290 25,-55 215,-280 -70,-225 h -5 v -5 l -10,-40 -35,-145 q -40,145 -125,305 l -10,20 q -150,275 -230,275 l -75,-5 m 3220,-2580 5,-20 h 5 l -10,20 m -2385,4755 45,5 435,-190 50,-55 60,-30 q 0,-155 50,-310 l 300,-425 295,-435 90,-160 v -5 l 5,-25 -5,-5 -60,-130 -60,-110 -5,-25 -10,-25 q -75,-315 -275,-650 l -40,-70 -30,-45 -10,-10 h -5 -25 l -125,10 -125,5 -35,5 -165,40 -145,40 -25,10 -220,200 -5,10 q -380,385 -675,865 l -60,75 q 5,390 320,925 270,460 455,515 m 25,55 q -115,-10 -330,-270 -220,-270 -375,-600 -140,-305 -165,-515 l -165,310 -30,500 q 160,335 495,670 l 365,330 h 30 90 l 80,-85 q 130,-110 300,-375 l 55,-90 -50,20 -295,105 h -5 M 3610,4010 q -400,525 -565,1030 l 5,-5 -5,25 h 40 l 20,-60 110,-65 5,10 180,-105 95,-55 160,-90 20,-10 90,-25 95,-40 110,-45 -15,-10 25,-10 -325,-605 -45,60 m -100,-25 5,-25 -45,75 10,-15 30,-35 m 905,2235 260,-295 q -70,-745 -375,-1075 l -40,-40 -160,-130 -10,5 -415,185 -330,150 -225,150 -405,335 -130,150 q -45,130 -45,315 0,515 790,950 l 90,50 235,-50 5,-5 85,-50 20,-15 35,-25 315,-310 280,-275 20,-20 m -1470,1035 40,20 25,15 120,10 20,5 40,-5 175,-155 100,-80 45,-40 -90,15 h -15 l -65,-20 -210,-125 q -240,-165 -415,-375 -320,-380 -260,-715 -305,360 -380,710 l -5,10 q 270,385 875,730"
     fill="#000000"
     fill-rule="evenodd"
     stroke="none"
     id="path26"
     style="stroke-width:100" />
  <path
     d="m 5265,2525 -180,-25 -185,-25 q -305,-45 -455,-230 h -5 l -10,-15 -15,-5 -15,-10 q -60,-80 -90,-265 l -5,-720 50,-275 95,-550 5,-30 15,5 25,-25 15,-10 v 10 5 l -10,15 55,-35 150,-25 10,-5 100,15 370,145 300,105 80,25 70,115 v 20 10 90 l -35,230 -10,575 -130,400 v 5 l -75,200 h 5 l -125,280 m -170,555 -185,75 q -325,60 -580,-375 l -75,-110 q -120,-120 -165,-225 v -5 l -25,-20 150,-90 h 30 l 35,-20 100,30 10,-10 30,25 120,60 475,90 220,50 v 95 l -25,75 -95,305 -20,50 m 5,40 -65,145 h -5 q -140,380 -190,395 -65,10 -450,-200 l -25,-15 -20,10 -640,-330 -350,-165 15,-170 335,-150 40,-25 80,-50 75,-50 50,-30 35,-15 75,60 330,370 235,285 190,25 150,-45 135,-45 M 1540,560 q -515,800 -515,975 l 20,85 25,70 580,345 -80,425 20,-35 -25,40 q -100,215 -125,740 -165,-5 -530,-130 -390,-130 -435,-230 v -45 l 40,-145 110,-440 100,-310 185,-330 105,-195 50,-100 310,-520 15,-20 10,-10 5,-5 45,-55 90,-110 m -10,3195 -230,330 -105,280 -25,75 -555,-795 10,-70 -80,-190 q -80,-200 -80,-280 v -90 q 145,25 465,130 295,95 475,115 l 90,380 35,115 m 3095,-3075 10,-20 h -5 l -5,20 m -2030,2115 -80,25 120,195 190,425 q 65,175 165,585 -200,185 -415,465 -140,205 -285,730 l -50,215 q -185,-55 -455,-515 -315,-535 -320,-925 l 60,-75 q 295,-480 675,-865 l 5,-10 220,-200 25,-10 145,-40 m -505,3120 h -30 l -365,-330 q -335,-335 -495,-670 l 30,-500 165,-310 q 25,210 165,515 155,330 375,600 215,260 330,270 l -5,5 q -120,230 -170,420 m 1240,1005 q -790,-435 -790,-950 0,-185 45,-315 l 130,-150 405,-335 225,-150 330,-150 415,-185 10,-5 160,130 40,40 q 305,330 375,1075 l -260,295 -205,145 -880,555 m 10,100 -80,-40 h -5 l -310,275 q -605,-345 -875,-730 l 5,-10 q 75,-350 380,-710 -60,335 260,715 175,210 415,375 l 210,125"
     fill="#52524b"
     fill-rule="evenodd"
     stroke="none"
     id="path28"
     style="stroke-width:100" />
  <path
     d="m 5265,2525 125,-280 h -5 l 75,-200 v -5 l 130,-400 -5,380 h -5 v 75 l 5,55 -10,95 -35,195 -55,20 -145,75 -65,-10 h -10 m -30,30 20,10 40,5 v 5 l 155,40 20,55 15,30 -30,160 -70,45 -230,150 -60,25 20,-50 95,-305 25,-75 v -95 m -135,565 275,-135 20,5 15,45 v 20 l -30,330 -20,85 h 10 q -40,305 -145,615 -170,435 -225,630 -65,170 -65,350 -220,-20 -465,-175 l -5,-10 -150,-200 -220,-165 -50,15 -30,-30 q -110,-105 -365,-645 -125,-480 -295,-885 v -10 l 350,165 640,330 20,-10 25,15 q 385,210 450,200 50,-15 190,-395 h 5 l 65,-145 M 1540,560 l 105,-120 35,-20 270,155 q 115,70 360,375 l 145,175 q -105,250 -210,390 -180,265 -330,600 l -40,95 -5,-10 -75,175 5,55 -10,45 q -105,225 -170,545 -40,185 -175,185 h -5 q 25,-525 125,-740 l 25,-40 -20,35 80,-425 -580,-345 -25,-70 -20,-85 q 0,-175 515,-975 m -10,3195 -35,-115 -90,-380 75,5 q 80,0 230,-275 l 10,-20 q 85,-160 125,-305 l 35,145 10,40 v 5 h 5 l 70,225 -215,280 -25,55 -160,290 -35,50 m 1065,-960 165,-40 35,-5 125,-5 125,-10 h 25 5 l 10,10 30,45 40,70 q 200,335 275,650 l 10,25 5,25 60,110 60,130 5,5 -5,25 v 5 l -90,160 -295,435 -300,425 q -50,155 -50,310 l -60,30 -50,55 -435,190 -45,-5 50,-215 q 145,-525 285,-730 215,-280 415,-465 -100,-410 -165,-585 l -190,-425 -120,-195 80,-25 m -505,3120 q 50,-190 170,-420 l 5,-5 h 5 l 295,-105 50,-20 -55,90 q -170,265 -300,375 l -80,85 h -90 m 1240,1005 880,-555 205,-145 -20,20 -280,275 -315,310 -35,25 -20,15 -85,50 -5,5 -235,50 -90,-50 m 10,100 65,20 h 15 l 90,-15 -45,40 -100,80 -175,155 -40,5 -20,-5 -120,-10 -25,-15 -40,-20 310,-275 h 5 l 80,40"
     fill="#2c2c27"
     fill-rule="evenodd"
     stroke="none"
     id="path30"
     style="stroke-width:100" />
  <defs
     id="defs44">
    <linearGradient
       gradientTransform="matrix(0.0094,-0.0338,0.0147,0.0041,-90.614352,-18.110353)"
       gradientUnits="userSpaceOnUse"
       id="gradient0"
       spreadMethod="pad"
       x1="-819.20001"
       x2="819.20001">
      <stop
         offset="0.0"
         stop-color="#635b58"
         id="stop34" />
      <stop
         offset="1.0"
         stop-color="#d3cebc"
         id="stop36" />
    </linearGradient>
    <linearGradient
       gradientTransform="matrix(0.0076,-0.0338,0.0118,0.0041,-83.364352,-18.110353)"
       gradientUnits="userSpaceOnUse"
       id="gradient1"
       spreadMethod="pad"
       x1="-819.20001"
       x2="819.20001">
      <stop
         offset="0.0"
         stop-color="#635b58"
         id="stop39" />
      <stop
         offset="1.0"
         stop-color="#d3cebc"
         id="stop41" />
    </linearGradient>
  </defs>
</svg>
