<?xml version="1.0" encoding="UTF-8" standalone="no"?>
<svg
   xmlns:dc="http://purl.org/dc/elements/1.1/"
   xmlns:cc="http://creativecommons.org/ns#"
   xmlns:rdf="http://www.w3.org/1999/02/22-rdf-syntax-ns#"
   xmlns:svg="http://www.w3.org/2000/svg"
   xmlns="http://www.w3.org/2000/svg"
   xmlns:sodipodi="http://sodipodi.sourceforge.net/DTD/sodipodi-0.dtd"
   xmlns:inkscape="http://www.inkscape.org/namespaces/inkscape"
   height="8625.0px"
   width="7885.0px"
   version="1.1"
   id="svg29"
   sodipodi:docname="1152.svg"
   inkscape:version="1.0.2-2 (e86c870879, 2021-01-15)">
  <metadata
     id="metadata33">
    <rdf:RDF>
      <cc:Work
         rdf:about="">
        <dc:format>image/svg+xml</dc:format>
        <dc:type
           rdf:resource="http://purl.org/dc/dcmitype/StillImage" />
      </cc:Work>
    </rdf:RDF>
  </metadata>
  <sodipodi:namedview
     pagecolor="#ffffff"
     bordercolor="#666666"
     borderopacity="1"
     objecttolerance="10"
     gridtolerance="10"
     guidetolerance="10"
     inkscape:pageopacity="0"
     inkscape:pageshadow="2"
     inkscape:window-width="1920"
     inkscape:window-height="1017"
     id="namedview31"
     showgrid="false"
     inkscape:zoom="0.098550725"
     inkscape:cx="3942.5"
     inkscape:cy="4312.5"
     inkscape:window-x="-8"
     inkscape:window-y="-8"
     inkscape:window-maximized="1"
     inkscape:current-layer="svg29" />
  <path
     d="m 7485,2605 -140,-290 -15,-10 -20,-10 -35,10 q -120,395 -770,695 l -95,45 -270,35 -190,-15 h -30 q -130,0 -450,-135 l -275,-110 155,295 260,640 -40,-60 55,135 h 5 l 5,10 v 10 l 5,5 q 85,145 505,380 440,250 660,310 l 120,40 255,-105 190,-85 5,-55 10,10 75,-215 70,-340 q 120,-450 150,-820 l -195,-370 m 300,840 q -150,560 -210,860 l -145,75 -490,280 h -15 q -115,0 -660,-310 l -530,-315 -20,5 -130,-280 -425,-885 -15,25 -30,-50 v 190 l -40,410 -40,500 q 0,400 545,1460 l 570,1025 Q 5865,6090 5510,5415 4995,4435 4995,3795 l 35,-345 q 35,-315 35,-420 v -110 l 10,-85 v -35 l 5,-130 q 0,-210 -25,-300 l -30,-60 q -30,-30 -90,-30 l -20,5 -35,-35 -105,-15 h -950 l 45,15 235,55 395,100 90,80 -15,5 55,75 q 35,175 -50,800 -10,75 -110,270 l -115,210 -5,20 -95,-15 -450,-50 h -5 l -250,-45 -425,-10 h -340 l -50,15 q -60,10 -110,55 l -160,15 h -5 l -665,20 -720,100 -125,-15 -410,-300 -115,-125 -45,-45 -5,-15 -45,-730 -25,-355 10,-45 -10,10 -10,-50 15,-130 45,-50 v -5 l 255,-60 845,-75 780,25 285,15 260,45 h 25 l 15,-5 h 20 5 70 l 310,-30 200,20 15,-10 330,-35 h 590 l -15,-5 35,5 45,-5 15,5 130,-5 h 25 l -80,-55 -370,-290 -180,-145 -275,-225 -200,-175 V 765 l 95,-415 85,-295 550,-45 220,-10 500,5 15,5 q 45,10 265,220 l 415,320 220,185 170,145 20,15 100,60 400,425 50,65 405,355 280,235 160,105 15,10 430,805 -10,165 -90,325 m -4705,-965 -20,-15 -155,-180 -40,-5 -35,-35 -145,-30 -145,-15 h -5 q -430,5 -1020,-20 l -940,90 -15,70 30,615 -5,125 45,210 25,105 95,110 135,105 q 25,55 90,80 l 5,5 40,-10 170,-25 750,-65 125,-5 545,35 275,-20 15,-55 v -5 l 15,-5 45,-100 v -10 l 15,-95 50,-200 45,-200 40,-90 q 45,-100 25,-205 l 10,-10 -15,-25 v -5 l -40,-100 -10,-20 m 1030,-110 -300,-60 -275,-30 -290,-45 -60,-10 -130,-20 h -40 l -60,10 30,45 -15,-5 25,35 160,230 10,10 5,15 35,70 -75,240 -20,110 -95,375 q -20,135 -55,265 l 40,-5 q 170,70 450,85 l 40,5 60,10 -15,15 760,135 25,-20 q 10,10 20,10 l 40,-130 50,-40 q 75,-95 110,-330 l 5,-95 50,-265 q 30,-210 -25,-365 l -5,-10 -25,-75 -15,-45 -195,-70 -220,-45 m -1875,1730 5,-15 255,-5 q -95,110 85,110 l 275,-35 h 65 l 260,-35 45,-5 160,-15 v -5 l 365,-25 515,-50 120,45 90,45 25,50 h -5 l 70,175 50,215 q 35,165 45,355 l 5,85 q -5,185 -25,335 l 15,5 -30,35 h 20 l -5,15 -35,65 -5,10 v -5 l -150,55 -125,5 -765,115 -100,5 -20,5 -15,5 20,5 -320,50 -255,45 q -105,20 -100,100 l -60,15 5,-5 -90,-5 q -600,215 -1805,480 l -195,10 -15,25 -20,5 -150,10 -35,-30 -60,-125 -215,-410 -125,-805 10,-305 5,-15 q 320,-130 995,-310 l 1220,-275 m -1290,1980 35,-10 h 5 l 180,-55 q 255,-90 645,-190 765,-205 995,-235 l 30,5 v -5 h -15 l 85,-135 5,-25 35,50 -20,70 -10,25 10,5 15,-5 -5,65 h 25 v -30 h 5 l 490,-45 h 5 l 720,-90 45,-5 245,-35 120,-45 q 50,-45 5,-180 45,-100 0,-305 -15,-320 -125,-745 l -15,5 v -5 l -30,-55 -55,5 h -60 l -530,15 -280,20 -40,5 -75,5 v 5 l -275,30 -140,20 h -5 l -30,5 v 20 h -10 l -20,10 -75,20 -10,-5 5,10 v 20 h -10 q -30,35 -25,90 l 40,110 40,160 65,705 -10,-65 -20,-155 -15,-120 -45,-365 -30,-105 -15,-95 -15,-70 q -35,-85 -120,-70 l -40,5 -10,-20 -5,-10 -40,10 -280,15 -950,240 -880,215 -130,30 -80,15 q -40,195 -5,630 50,265 200,505 l 5,5 20,35 165,165 55,-10 5,-15 250,-45 M 5730,1780 q 95,-55 155,-145 l 5,-15 60,-155 40,-300 -15,-25 -5,-15 -30,-30 -15,-20 -10,-5 Q 5725,880 5595,805 l -585,-460 -135,-90 -45,-30 h -45 l -40,-25 -765,35 -160,50 h -25 l -110,405 10,260 q 190,270 480,475 380,235 595,410 l 95,55 90,25 v 5 l 395,-15 35,-5 q 210,-25 345,-120 m -600,700 10,165 v 15 l 125,125 q 160,145 400,210 v -5 l 280,45 55,5 h 95 l 200,-25 q 80,-15 130,-40 l 25,25 -5,5 160,-80 110,-65 q 295,-185 450,-585 l -30,-35 20,-15 -495,-470 -55,-55 -175,-145 -5,-5 -60,-55 -90,-110 -80,-60 -10,-10 q -70,-70 -110,-80 l -40,5 -10,30 -15,10 v 75 l -25,70 -65,185 -25,75 -10,25 q -10,5 -25,15 l -45,25 -85,65 v 5 l -30,20 -30,10 -375,85 -15,5 -40,15 -200,-5 -10,-5 h -20 -10 l -35,-10 40,80 15,15 50,130 55,155 v 45 85 l 5,35 m -50,310 20,25 -10,-25 h -10 m -540,2825 55,30 q 205,270 285,415 l 110,210 5,-25 25,90 60,170 -15,85 5,55 10,145 -45,185 q -375,160 -1025,465 l 55,20 q 40,25 45,45 -30,35 -210,130 l -175,80 -115,50 5,-5 -60,35 -290,140 -120,80 -90,45 -670,310 -70,30 -450,225 h -20 l -90,-100 -120,-150 -100,-180 -35,-115 -90,-280 q -130,-390 -160,-795 l 650,-390 260,-150 305,-185 290,-120 150,-60 10,10 q 45,45 105,45 90,0 295,-100 l 95,-45 170,-70 130,-55 130,-45 360,-105 120,-40 105,-25 95,-25 20,-30 m 25,-175 q 30,-15 20,-40 l -35,40 h 15 m -2105,2635 95,-45 115,-55 270,-125 q 295,-140 525,-230 l -10,-50 30,-15 q 10,-10 5,-95 l -65,-440 q -95,-510 -155,-615 l -10,-20 -5,-20 -10,-15 -50,-90 h -10 -5 -10 l -40,-5 -50,5 -210,100 q -70,45 -155,75 l -450,215 -175,80 -565,355 -20,15 q 25,380 135,835 l 15,30 25,40 175,265 80,75 405,-210 120,-60 M 4545,5680 h -5 v 15 q -110,-20 -505,130 l -475,195 -40,30 -130,45 -10,5 -150,85 15,20 60,30 -5,25 -20,5 5,5 220,995 15,25 q 45,80 60,240 v 40 l 610,-270 q 730,-315 825,-375 l -20,-285 -15,-240 q -80,-195 -285,-560 l -105,-145 -40,-20 -5,5"
     fill="#000000"
     fill-rule="evenodd"
     stroke="none"
     id="path14"
     style="stroke-width:100" />
  <path
     d="m 980,3695 -5,-5 q -65,-25 -90,-80 l -135,-105 -95,-110 -25,-105 -45,-210 5,-125 -30,-615 15,-70 940,-90 q 590,25 1020,20 h 5 l 145,15 145,30 35,35 40,5 155,180 20,15 -860,-45 -1245,15 25,680 -20,565 m 2015,-1405 -25,-35 15,5 -30,-45 60,-10 h 40 l 130,20 60,10 290,45 275,30 300,60 -350,5 -575,40 -45,5 10,15 -155,-145 M 2615,4295 Q 715,4720 730,4875 l 10,280 q 35,305 140,410 l 50,250 15,265 -250,45 -5,15 -55,10 -165,-165 -20,-35 -5,-5 q -150,-240 -200,-505 -35,-435 5,-630 l 80,-15 130,-30 880,-215 950,-240 280,-15 40,-10 5,10 M 5730,1780 q -135,95 -345,120 l -35,5 -395,15 v -5 l -90,-25 -95,-55 Q 4555,1660 4175,1425 3885,1220 3695,950 l -10,-260 110,-405 h 25 l 160,-50 765,-35 40,25 h 45 l 45,30 -75,285 q -215,280 -140,390 l 210,135 355,270 465,415 40,30 m -600,700 -5,-35 v -85 -45 l -55,-155 -50,-130 -15,-15 -40,-80 35,10 h 10 20 l 10,5 200,5 40,-15 15,-5 375,-85 30,-10 30,-20 90,-45 25,-30 65,85 30,40 q 195,270 325,550 l -945,125 -190,-65 m -2670,5595 -120,60 -405,210 -80,-75 -175,-265 -25,-40 -15,-30 q -110,-455 -135,-835 l 20,-15 565,-355 175,-80 450,-215 q 85,-30 155,-75 l 210,-100 50,-5 -200,110 -545,325 q -150,110 -155,165 -20,125 160,645 55,160 75,320 l 10,190 -15,65"
     fill="#52524b"
     fill-rule="evenodd"
     stroke="none"
     id="path16"
     style="stroke-width:100" />
  <path
     d="m 7485,2605 195,370 q -30,370 -150,820 l -70,340 -75,215 -10,-10 -5,55 -190,85 -255,105 -120,-40 q -220,-60 -660,-310 -420,-235 -505,-380 l -5,-5 v -10 l -5,-10 h -5 l -55,-135 40,60 -260,-640 -155,-295 275,110 q 320,135 450,135 h 30 l 190,15 270,-35 95,-45 q 650,-300 770,-695 l 35,-10 20,10 15,10 140,290 m -6505,1090 20,-565 -25,-680 1245,-15 860,45 10,20 40,100 v 5 l 15,25 -10,10 q 20,105 -25,205 l -40,90 -45,200 -50,200 -15,95 v 10 l -45,100 -15,5 v 5 l -15,55 -275,20 -545,-35 -125,5 -750,65 -170,25 -40,10 m 2015,-1405 155,145 -10,-15 45,-5 575,-40 350,-5 220,45 195,70 15,45 25,75 5,10 q 55,155 25,365 l -50,265 -5,95 q -35,235 -110,330 l -50,40 -40,130 q -10,0 -20,-10 l -25,20 -760,-135 15,-15 -60,-10 -40,-5 q -280,-15 -450,-85 l -40,5 q 35,-130 55,-265 l 95,-375 20,-110 75,-240 -35,-70 -5,-15 -10,-10 -160,-230 m -380,2005 10,20 40,-5 q 85,-15 120,70 l 15,70 15,95 30,105 45,365 15,120 20,155 10,65 -65,-705 -40,-160 -40,-110 q -5,-55 25,-90 h 10 v -20 l -5,-10 10,5 75,-20 20,-10 h 10 v -20 l 30,-5 h 5 l 140,-20 275,-30 v -5 l 75,-5 40,-5 280,-20 530,-15 h 60 l 55,-5 30,55 v 5 l 15,-5 q 110,425 125,745 45,205 0,305 45,135 -5,180 l -120,45 -245,35 -45,5 -720,90 h -5 l -490,45 h -5 v 30 h -25 l 5,-65 -15,5 -10,-5 10,-25 20,-70 -35,-50 -5,25 -85,135 h 15 v 5 l -30,-5 q -230,30 -995,235 -390,100 -645,190 l -180,55 h -5 l -35,10 -15,-265 -50,-250 Q 775,5460 740,5155 l -10,-280 q -15,-155 1885,-580 m 2260,-4040 135,90 585,460 q 130,75 320,265 l 10,5 15,20 30,30 5,15 15,25 -40,300 -60,155 -5,15 q -60,90 -155,145 l -40,-30 -465,-415 -355,-270 -210,-135 q -75,-110 140,-390 l 75,-285 m 855,1565 v -5 l 85,-65 45,-25 q 15,-10 25,-15 l 10,-25 25,-75 65,-185 25,-70 v -75 l 15,-10 10,-30 40,-5 q 40,10 110,80 l 10,10 80,60 90,110 60,55 5,5 175,145 55,55 495,470 -20,15 30,35 q -155,400 -450,585 l -110,65 -160,80 5,-5 -25,-25 q -50,25 -130,40 l -200,25 h -95 l -55,-5 -280,-45 v 5 q -240,-65 -400,-210 l -125,-125 v -15 l -10,-165 190,65 945,-125 q -130,-280 -325,-550 l -30,-40 -65,-85 -25,30 -90,45 m -1185,3860 5,-5 40,20 105,145 q 205,365 285,560 l 15,240 20,285 q -95,60 -825,375 l -610,270 v -40 q -15,-160 -60,-240 l -15,-25 -220,-995 -5,-5 20,-5 5,-25 -60,-30 -15,-20 150,-85 10,-5 130,-45 40,-30 475,-195 q 395,-150 505,-130 v -15 h 5 m -1415,575 40,5 h 10 5 10 l 50,90 10,15 5,20 10,20 q 60,105 155,615 l 65,440 q 5,85 -5,95 l -30,15 10,50 q -230,90 -525,230 l -270,125 -115,55 -95,45 15,-65 -10,-190 q -20,-160 -75,-320 -180,-520 -160,-645 5,-55 155,-165 l 545,-325 200,-110"
     fill="#2c2c27"
     fill-rule="evenodd"
     stroke="none"
     id="path18"
     style="stroke-width:100" />
  <defs
     id="defs27">
    <linearGradient
       gradientTransform="matrix(0.94,-3.38,1.47,0.41,-7035,-4475)"
       gradientUnits="userSpaceOnUse"
       id="gradient0"
       spreadMethod="pad"
       x1="-819.2"
       x2="819.2">
      <stop
         offset="0.0"
         stop-color="#635b58"
         id="stop22" />
      <stop
         offset="1.0"
         stop-color="#d3cebc"
         id="stop24" />
    </linearGradient>
  </defs>
</svg>
