<?xml version="1.0" encoding="UTF-8" standalone="no"?>
<svg
   xmlns:dc="http://purl.org/dc/elements/1.1/"
   xmlns:cc="http://creativecommons.org/ns#"
   xmlns:rdf="http://www.w3.org/1999/02/22-rdf-syntax-ns#"
   xmlns:svg="http://www.w3.org/2000/svg"
   xmlns="http://www.w3.org/2000/svg"
   xmlns:sodipodi="http://sodipodi.sourceforge.net/DTD/sodipodi-0.dtd"
   xmlns:inkscape="http://www.inkscape.org/namespaces/inkscape"
   height="7665.0px"
   width="7855.0px"
   version="1.1"
   id="svg29"
   sodipodi:docname="1166.svg"
   inkscape:version="1.0.2-2 (e86c870879, 2021-01-15)">
  <metadata
     id="metadata33">
    <rdf:RDF>
      <cc:Work
         rdf:about="">
        <dc:format>image/svg+xml</dc:format>
        <dc:type
           rdf:resource="http://purl.org/dc/dcmitype/StillImage" />
      </cc:Work>
    </rdf:RDF>
  </metadata>
  <sodipodi:namedview
     pagecolor="#ffffff"
     bordercolor="#666666"
     borderopacity="1"
     objecttolerance="10"
     gridtolerance="10"
     guidetolerance="10"
     inkscape:pageopacity="0"
     inkscape:pageshadow="2"
     inkscape:window-width="1920"
     inkscape:window-height="1017"
     id="namedview31"
     showgrid="false"
     inkscape:zoom="0.11089367"
     inkscape:cx="3927.5"
     inkscape:cy="3832.5"
     inkscape:window-x="-8"
     inkscape:window-y="-8"
     inkscape:window-maximized="1"
     inkscape:current-layer="svg29" />
  <path
     d="m 7545,4130 -145,75 -490,280 h -15 q -115,0 -660,-310 l -530,-315 -20,5 -130,-280 -425,-885 -15,25 -30,-50 v 190 l -40,410 -40,500 q 0,400 545,1460 l 570,1025 Q 5835,5915 5480,5240 4965,4260 4965,3620 l 35,-345 q 35,-315 35,-420 v -110 l 10,-85 v -35 l 5,-130 q 0,-265 -40,-340 -25,-50 -105,-50 l -20,5 -35,-35 -105,-15 h -510 l -480,-35 -205,5 q -130,20 -210,90 l 50,50 -35,20 55,20 h 60 l 220,20 140,-15 410,35 95,5 v 20 l 85,225 q 75,215 75,290 0,630 -60,795 l -60,60 q 25,20 25,60 l -510,30 -515,15 h -405 l 20,5 -390,-15 q -70,0 -95,45 L 2330,3685 1960,3545 Q 1420,3335 1275,3260 795,3030 580,2870 L 385,2715 v -5 l -25,-60 45,-125 25,-45 10,10 5,-40 160,-310 325,-645 10,-5 55,-30 150,-65 475,-115 110,40 q 345,250 585,365 390,250 610,300 l 80,30 q 205,75 265,75 230,-95 365,-175 l 255,-105 h 440 l -305,-135 -325,-155 q -130,-65 -240,-125 l -75,-315 -5,-425 15,-310 520,-170 215,-60 485,-115 h 15 l 310,150 475,215 490,240 170,135 440,465 50,65 405,355 280,235 160,105 15,10 430,805 -10,165 -90,325 q -150,560 -210,860 m -90,-1700 -140,-290 -15,-10 -20,-10 -35,10 q -120,395 -770,695 l -95,45 -270,35 -190,-15 h -30 q -130,0 -450,-135 l -275,-110 155,295 260,640 -40,-60 55,135 h 5 l 5,10 v 10 l 5,5 q 85,145 505,380 440,250 660,310 l 120,40 255,-105 190,-85 5,-55 10,10 75,-215 70,-340 q 120,-450 150,-820 L 7455,2430 M 1550,1510 h -5 q -65,0 -105,40 l -160,40 -130,65 -60,90 -125,170 -45,115 -270,545 -10,65 q 350,240 780,445 l 885,385 h 5 l 130,40 140,35 50,-15 40,5 q 105,-30 200,-95 l 20,-15 20,-15 70,-70 5,-5 20,-15 v -15 q 55,-90 55,-200 0,-305 50,-420 50,-120 50,-180 l -10,-105 20,-85 -135,-80 q -85,-10 -590,-205 l -105,-55 -620,-350 -140,-95 -30,-20 m -1265,2065 155,-5 h 20 l 20,25 190,-15 q 1200,130 1820,265 10,65 150,70 l 715,10 20,-25 60,-10 715,-35 115,-20 140,25 v -5 l 5,10 50,55 10,10 -15,5 30,25 -10,5 115,300 q 95,320 95,655 l -10,200 h 35 l 15,15 -125,105 q -60,35 -110,80 l -520,65 -685,105 25,10 -345,55 h -55 q -195,5 -220,75 l -10,-5 -365,35 -5,-15 L 1065,5510 45,5320 40,5305 0,5000 l 40,-820 170,-440 45,-130 30,-35 m 535,235 -250,-15 -10,-15 -55,-5 q -95,75 -150,195 l -15,35 -5,5 q -120,255 -145,530 10,435 70,630 l 80,5 140,15 895,110 970,130 275,-15 45,5 5,-10 10,-25 h 40 q 85,5 110,-85 l 5,-70 10,-95 15,-110 5,-375 20,-375 v 750 l -20,160 -30,115 q 0,55 35,90 h 10 v 20 l -5,10 10,-5 185,20 150,-10 480,-65 280,-35 530,-110 60,-15 50,-5 q 15,-5 15,-65 v -5 h 15 q -20,-465 -100,-765 -15,-205 -80,-285 0,-130 -60,-160 l -115,-15 -230,10 -40,10 -1180,100 20,60 -30,5 45,95 -35,55 q -35,-90 -105,-150 h 15 v -5 l -30,5 -1020,-115 -660,-115 -185,-40 h -5 l -35,-5 m 3085,-140 h 220 l 200,-30 20,-40 35,-65 5,-10 q 75,-140 75,-355 0,-155 -15,-270 l 5,-95 q 0,-235 -60,-345 l -45,-50 -25,-135 -20,5 -20,-20 -895,-25 -40,10 -10,15 v 5 l -35,-5 -45,15 v 10 l -30,-5 q -5,165 -55,345 -65,230 -85,685 l -10,15 -5,5 v 5 l -75,70 -290,180 110,30 170,55 h 920 m 1195,-1365 10,165 v 15 l 125,125 q 160,145 400,210 v -5 l 280,45 55,5 h 95 l 200,-25 q 80,-15 130,-40 l 25,25 -5,5 160,-80 110,-65 q 295,-185 450,-585 l -30,-35 20,-15 -495,-470 -55,-55 -175,-145 -5,-5 -60,-55 -165,-210 -75,-80 -80,-65 v 10 l -25,-30 -30,40 15,70 -40,375 -55,60 -65,80 -25,30 -375,190 -50,30 -250,55 -20,5 -45,10 35,30 -20,180 20,105 15,100 m 705,-770 q 80,-85 115,-190 25,-75 25,-165 0,-135 -35,-305 l -85,-70 -65,-15 Q 5335,550 4765,315 l -155,-60 -50,-20 -45,10 -45,-10 q -345,0 -735,215 l -140,85 -25,5 -10,420 70,250 q 250,215 580,350 l 670,255 110,35 h 95 v 5 q 230,-45 410,-120 200,-80 310,-200 m -755,1080 20,25 -10,-25 h -10 m -685,1265 40,25 -25,-25 h -15 m 500,1690 65,120 25,45 50,65 35,170 20,90 -15,-15 5,235 -40,505 -40,55 -30,-10 -95,35 -100,40 -125,40 -370,130 -275,90 q 25,20 25,55 v 15 l 25,30 q -20,25 -95,50 l -20,-5 -65,25 -495,75 -20,5 -180,40 -315,80 -355,30 -300,30 -755,70 q -170,-350 -250,-745 l -90,-395 v -205 l 60,-330 20,-10 1315,-245 175,-35 45,-5 q 70,125 210,125 l 365,-65 230,-60 40,-10 1190,-245 130,130 m 130,995 q 0,-420 -25,-625 l -105,-200 -120,-245 -905,180 -665,145 20,35 q 65,135 65,230 v 30 l 300,940 v 5 l 15,-5 q 15,0 20,15 l -40,60 -5,25 175,-20 h 10 l 135,-40 h 50 l 510,-125 q 420,-110 505,-190 l 5,10 5,-5 5,5 25,-40 20,-185 m -1565,590 35,-25 5,-5 10,-5 5,-5 v -100 -20 l -5,-20 v -25 q 0,-120 -170,-590 -105,-285 -160,-395 l -50,-75 -35,5 -15,-45 -570,125 -295,55 -125,25 -105,20 -590,90 -30,110 -30,365 v 35 q 130,435 300,760 h 25 l 660,-50 190,-35 500,-95 170,-30 235,-45 45,-25"
     fill="#000000"
     fill-rule="evenodd"
     stroke="none"
     id="path14"
     style="stroke-width:100" />
  <path
     d="m 2890,3425 -20,15 q -95,65 -200,95 l -40,-5 -50,15 -140,-35 -130,-40 h -5 L 1420,3085 Q 990,2880 640,2640 l 10,-65 270,-545 45,-115 125,-170 60,-90 130,-65 160,-40 q 40,-40 105,-40 h 5 l -205,520 -290,605 q 615,295 1075,495 465,200 760,295 m -220,1985 -5,10 -45,-5 -275,15 -970,-130 -895,-110 -140,-15 -80,-5 q -60,-195 -70,-630 25,-275 145,-530 l 5,-5 15,-35 q 55,-120 150,-195 l 55,5 10,15 250,15 q 15,85 15,275 l -25,250 q -95,120 -95,425 l 20,290 q 0,155 1935,360 M 3905,3670 h -920 l -170,-55 -110,-30 290,-180 -30,25 q 235,80 595,165 l 345,75 M 5815,1570 q 260,330 420,675 l -945,125 -190,-65 -15,-100 -20,-105 20,-180 -35,-30 45,-10 20,-5 250,-55 50,-30 375,-190 25,-30 M 4610,255 l -5,295 q -140,325 -40,415 l 235,80 405,180 q 385,215 600,310 -110,120 -310,200 -180,75 -410,120 v -5 h -95 l -110,-35 -670,-255 q -330,-135 -580,-350 l -70,-250 10,-420 25,-5 140,-85 q 390,-215 735,-215 l 45,10 45,-10 50,20 m -2655,5820 40,45 q 40,45 90,160 60,140 90,305 100,525 175,620 35,40 220,40 l 630,-60 230,-30 -45,25 -235,45 -170,30 -500,95 -190,35 -660,50 h -25 q -170,-325 -300,-760 v -35 l 30,-365 30,-110 590,-90"
     fill="#52524b"
     fill-rule="evenodd"
     stroke="none"
     id="path16"
     style="stroke-width:100" />
  <path
     d="m 7455,2430 195,370 q -30,370 -150,820 l -70,340 -75,215 -10,-10 -5,55 -190,85 -255,105 -120,-40 q -220,-60 -660,-310 -420,-235 -505,-380 l -5,-5 v -10 l -5,-10 h -5 l -55,-135 40,60 -260,-640 -155,-295 275,110 q 320,135 450,135 h 30 l 190,15 270,-35 95,-45 q 650,-300 770,-695 l 35,-10 20,10 15,10 140,290 m -5905,-920 30,20 140,95 620,350 105,55 q 505,195 590,205 l 135,80 -20,85 10,105 q 0,60 -50,180 -50,115 -50,420 0,110 -55,200 v 15 l -20,15 -5,5 -70,70 -20,15 q -295,-95 -760,-295 -460,-200 -1075,-495 l 290,-605 205,-520 M 2670,5410 Q 735,5205 735,5050 l -20,-290 q 0,-305 95,-425 l 25,-250 q 0,-190 -15,-275 l 35,5 h 5 l 185,40 660,115 1020,115 30,-5 v 5 h -15 q 70,60 105,150 l 35,-55 -45,-95 30,-5 -20,-60 1180,-100 40,-10 230,-10 115,15 q 60,30 60,160 65,80 80,285 80,300 100,765 h -15 v 5 q 0,60 -15,65 l -50,5 -60,15 -530,110 -280,35 -480,65 -150,10 -185,-20 -10,5 5,-10 v -20 h -10 q -35,-35 -35,-90 l 30,-115 20,-160 v -750 l -20,375 -5,375 -15,110 -10,95 -5,70 q -25,90 -110,85 h -40 l -10,25 m 325,-2005 75,-70 v -5 l 5,-5 10,-15 q 20,-455 85,-685 50,-180 55,-345 l 30,5 v -10 l 45,-15 35,5 v -5 l 10,-15 40,-10 895,25 20,20 20,-5 25,135 45,50 q 60,110 60,345 l -5,95 q 15,115 15,270 0,215 -75,355 l -5,10 -35,65 -20,40 -200,30 h -220 l -345,-75 q -360,-85 -595,-165 l 30,-25 m 2820,-1835 65,-80 55,-60 40,-375 -15,-70 30,-40 25,30 v -10 l 80,65 75,80 165,210 60,55 5,5 175,145 55,55 495,470 -20,15 30,35 q -155,400 -450,585 l -110,65 -160,80 5,-5 -25,-25 q -50,25 -130,40 l -200,25 h -95 l -55,-5 -280,-45 v 5 q -240,-65 -400,-210 l -125,-125 v -15 l -10,-165 190,65 945,-125 Q 6075,1900 5815,1570 M 4610,255 l 155,60 q 570,235 995,475 l 65,15 85,70 q 35,170 35,305 0,90 -25,165 -35,105 -115,190 -215,-95 -600,-310 l -405,-180 -235,-80 q -100,-90 40,-415 l 5,-295 m -2655,5820 105,-20 125,-25 295,-55 570,-125 15,45 35,-5 50,75 q 55,110 160,395 170,470 170,590 v 25 l 5,20 v 20 100 l -5,5 -10,5 -5,5 -35,25 -230,30 -630,60 q -185,0 -220,-40 -75,-95 -175,-620 -30,-165 -90,-305 -50,-115 -90,-160 l -40,-45 m 3040,490 -20,185 -25,40 -5,-5 -5,5 -5,-10 q -85,80 -505,190 l -510,125 h -50 l -135,40 h -10 l -175,20 5,-25 40,-60 q -5,-15 -20,-15 l -15,5 v -5 l -300,-940 v -30 q 0,-95 -65,-230 l -20,-35 665,-145 905,-180 120,245 105,200 q 25,205 25,625"
     fill="#2c2c27"
     fill-rule="evenodd"
     stroke="none"
     id="path18"
     style="stroke-width:100" />
  <defs
     id="defs27">
    <linearGradient
       gradientTransform="matrix(0.94,-3.38,1.47,0.41,-7065,-4650)"
       gradientUnits="userSpaceOnUse"
       id="gradient0"
       spreadMethod="pad"
       x1="-819.2"
       x2="819.2">
      <stop
         offset="0.0"
         stop-color="#635b58"
         id="stop22" />
      <stop
         offset="1.0"
         stop-color="#d3cebc"
         id="stop24" />
    </linearGradient>
  </defs>
</svg>
