<?xml version="1.0" encoding="UTF-8" standalone="no"?>
<svg
   xmlns:dc="http://purl.org/dc/elements/1.1/"
   xmlns:cc="http://creativecommons.org/ns#"
   xmlns:rdf="http://www.w3.org/1999/02/22-rdf-syntax-ns#"
   xmlns:svg="http://www.w3.org/2000/svg"
   xmlns="http://www.w3.org/2000/svg"
   xmlns:sodipodi="http://sodipodi.sourceforge.net/DTD/sodipodi-0.dtd"
   xmlns:inkscape="http://www.inkscape.org/namespaces/inkscape"
   height="8180.0px"
   width="8530.0px"
   version="1.1"
   id="svg50"
   sodipodi:docname="1180.svg"
   inkscape:version="1.0.2-2 (e86c870879, 2021-01-15)">
  <metadata
     id="metadata54">
    <rdf:RDF>
      <cc:Work
         rdf:about="">
        <dc:format>image/svg+xml</dc:format>
        <dc:type
           rdf:resource="http://purl.org/dc/dcmitype/StillImage" />
      </cc:Work>
    </rdf:RDF>
  </metadata>
  <sodipodi:namedview
     pagecolor="#ffffff"
     bordercolor="#666666"
     borderopacity="1"
     objecttolerance="10"
     gridtolerance="10"
     guidetolerance="10"
     inkscape:pageopacity="0"
     inkscape:pageshadow="2"
     inkscape:window-width="1920"
     inkscape:window-height="1017"
     id="namedview52"
     showgrid="false"
     inkscape:zoom="0.08"
     inkscape:cx="4113.8588"
     inkscape:cy="4457.4665"
     inkscape:window-x="-8"
     inkscape:window-y="-8"
     inkscape:window-maximized="1"
     inkscape:current-layer="svg50" />
  <path
     d="m 4735,0 110,25 280,200 240,265 110,305 55,405 -165,130 -175,165 -115,140 -40,50 -70,105 q -320,495 -320,950 l -10,65 -15,20 -40,35 -30,-55 -5,135 25,-35 -40,185 -25,30 q -430,550 -400,695 l -100,70 15,35 15,35 15,30 20,15 -5,25 15,30 20,15 v 30 l 5,20 5,5 10,40 25,100 q 0,680 -35,920 l -40,215 -70,5 105,5 35,35 -45,-5 170,335 q 120,245 170,385 35,105 35,150 0,440 -165,660 l -80,95 45,15 -310,70 -30,15 h -210 l -1280,80 -390,35 -140,-5 -10,-5 -190,-110 Q 1520,7090 1230,6890 780,6590 330,6160 l -45,-40 -40,-40 -155,-135 v -20 L 35,5865 Q 0,5300 0,4495 v -75 l 5,-45 45,-50 450,-310 q 155,-70 320,-70 l 315,190 65,55 175,175 280,275 q 215,235 405,395 l 295,135 100,35 60,-5 h 20 l 65,-5 10,5 -5,-5 45,20 20,-40 -570,-515 -90,-80 -35,-5 -65,-75 -65,-50 -35,-95 -230,-435 -365,-825 -35,-95 q 35,-470 135,-790 160,-520 160,-665 v -15 l 125,-335 190,-275 565,60 55,5 25,15 -5,-10 185,20 45,130 80,235 160,395 q 110,300 150,505 l 25,-80 q -15,-340 165,-690 l 35,-120 60,-125 -5,-10 25,-30 5,-5 5,-5 Q 3895,495 4615,65 L 4735,0 m 1475,4810 q 65,0 30,10 l 25,60 15,85 q 85,155 180,505 l 15,60 q 125,-90 255,-170 425,-255 580,-255 50,0 355,660 l 180,395 95,210 5,-10 30,270 q -240,340 -560,680 -815,870 -1340,870 l -110,-10 -40,-35 -245,-110 -500,-175 -790,-295 v -30 l 15,-5 q -150,-100 140,-90 l 405,80 15,-20 h 125 q -290,-540 375,-1245 l 85,-85 q 230,-230 520,-415 200,-125 335,-175 l -15,-40 -75,-275 -60,-70 -15,-20 -5,5 q -275,25 -570,250 -245,90 -490,550 l -90,190 q -170,385 -95,690 l -40,55 -25,-220 5,-95 20,-120 20,-95 q 0,-105 35,-215 60,-195 230,-395 l 315,-305 405,-395 255,-255 M 2470,1455 2335,1295 q -120,-105 -250,-105 -135,0 -340,350 -295,500 -295,1330 l 205,650 165,400 95,240 5,5 250,55 555,45 65,-10 20,10 -60,30 -155,30 -220,5 -300,-5 160,165 q 715,745 1165,865 l 5,10 285,25 v -5 l 130,-20 120,-5 10,-5 q 75,-55 100,-380 l 10,-380 q 0,-180 -15,-325 l -15,-150 q -35,-15 -50,-70 -65,-30 -190,-115 l -20,-15 -275,-215 q -310,-250 -470,-450 l -20,-115 -5,-30 -5,5 -40,-110 -255,-940 -105,-395 -5,-10 -75,-130 -5,-15 -40,-60 m 130,5325 160,-145 -100,-475 -55,-190 -170,-535 q -165,-10 -440,-210 l -160,-120 -450,-410 -90,-90 -140,-95 -185,-120 -30,-20 -95,-60 -155,-80 q -280,120 -445,295 l -15,315 -20,510 40,205 30,205 -5,30 10,10 110,130 90,105 10,10 45,50 15,15 20,15 40,35 120,95 180,135 125,65 165,120 q 640,445 935,445 l 15,10 65,-10 35,-5 35,15 165,-125 40,-35 70,-65 35,-25 M 3960,2515 q 115,15 160,50 l 325,-465 25,-35 q 170,-175 210,-320 l 285,-395 290,-370 -15,-145 -10,-60 -260,-320 -25,-30 -75,-85 -25,-30 -10,5 -45,15 -105,40 -380,255 q -555,415 -880,1000 -5,90 45,235 -75,200 15,365 90,175 250,210 h 5 q 70,50 205,75 l 15,5 m -285,1180 150,115 30,25 65,-75 -45,-105 60,90 90,-115 160,-205 290,-390 5,-10 15,-50 5,-25 q 5,-50 -45,-175 l -20,-75 q -35,-165 0,-400 l -70,75 -150,180 -65,75 -10,10 -170,-55 -20,-5 -45,-10 -120,-35 -185,-155 q -295,-275 -250,-610 l -10,15 q -5,155 -50,285 l -70,225 q -15,265 -45,435 l -5,165 v 215 l 90,245 -5,10 245,200 175,130 M 2045,685 v 25 h -25 l 10,-10 h 10 l 5,-15 m 960,2800 20,-145 10,285 q 0,170 -25,295 -15,85 -45,155 l -40,80 -60,55 -15,-20 20,-20 q 90,-110 125,-250 40,-150 25,-330 l -15,-105 m 950,430 10,5 25,20 -5,-20 -5,-15 -25,10 m 1445,3190 q -20,-170 35,-350 85,-285 340,-595 l 130,-145 185,-175 -340,190 -180,130 q -245,200 -360,455 -95,205 -100,450 v 35 l 40,220 30,135 v 5 l 10,75 -10,70 v 20 l 45,15 325,90 170,55 v -5 q -25,-20 20,-20 -315,-310 -340,-655 M 4045,5445 h -45 l -25,5 80,20 -10,-25 m 320,1285 35,-255 q 0,-155 -45,-315 l -130,-350 -140,-285 h -15 l -270,-40 -245,10 -640,-55 -435,30 -10,-35 h -10 l 170,430 95,295 q 75,250 95,430 l 5,-10 -5,20 v 85 25 20 l -40,30 -5,-50 -5,-10 -5,10 q -135,235 -380,340 l 5,30 125,-10 960,5 395,-40 155,-25 175,-35 -160,60 90,10 130,-120 25,-30 5,-10 q 45,-70 75,-155 m 1100,380 85,220 h -5 l 165,290 h 5 l 85,130 15,20 30,10 215,60 35,10 h 5 l 110,20 45,5 q 260,-165 630,-450 l 120,-90 q 550,-450 665,-745 l 5,-15 5,-125 -75,-160 -5,-10 -55,-120 -95,-200 -145,-305 -5,-5 -15,-30 -45,-90 -25,-25 5,-15 -5,-10 h -5 l -5,-10 h -5 -5 l -85,10 q -210,45 -580,255 v 5 l -225,135 -55,35 -340,250 q -390,330 -455,660 l -15,130 v 20 l 25,140 m 3065,-1550 -5,20 -20,-25 10,-10 15,15 M 6265,5095 v 5 l 10,10 -10,-15"
     fill="#000000"
     fill-rule="evenodd"
     stroke="none"
     id="path26"
     style="stroke-width:100" />
  <path
     d="m 2725,4265 -555,-45 -250,-55 -5,-5 -95,-240 -165,-400 -205,-650 q 0,-830 295,-1330 205,-350 340,-350 130,0 250,105 l 135,160 -135,495 q -185,630 -325,915 l 180,495 80,235 205,325 90,130 160,215 m 1225,1090 -10,5 -120,5 -130,20 v 5 l -285,-25 -5,-10 Q 2950,5235 2235,4490 l -160,-165 300,5 220,-5 155,-30 q 600,740 1200,1060 M 845,4310 775,4270 v 5 l 170,485 q 120,415 120,760 v 30 l -75,55 90,100 460,455 q 375,330 655,430 l 445,150 -40,40 -35,25 -70,65 -40,35 -165,125 -35,-15 -35,5 -65,10 -15,-10 q -295,0 -935,-445 l -165,-120 -125,-65 -180,-135 -120,-95 -40,-35 -20,-15 -15,-15 -45,-50 -10,-10 -90,-105 -110,-130 -10,-10 5,-30 -30,-205 -40,-205 20,-510 15,-315 q 165,-175 445,-295 l 155,80 m 3945,-3980 -45,20 -325,270 -360,295 q -190,160 -180,345 5,100 255,335 220,200 245,285 l -20,20 -400,615 -15,-5 q -135,-25 -205,-75 h -5 q -160,-35 -250,-210 -90,-165 -15,-365 -50,-145 -45,-235 325,-585 880,-1000 l 380,-255 105,-40 m -885,2240 -120,410 q -110,435 -110,715 l -175,-130 -245,-200 5,-10 -90,-245 v -215 l 5,-165 q 30,-170 45,-435 l 70,-225 q 45,-130 50,-285 l 10,-15 q -45,335 250,610 l 185,155 120,35 m 1205,4495 290,40 q 25,345 340,655 -45,0 -20,20 v 5 l -170,-55 -325,-90 -45,-15 v -20 l 10,-70 -10,-75 v -5 l -30,-135 -40,-220 v -35 m -2290,-355 1545,20 q -30,85 -75,155 l -5,10 -25,30 -130,120 -90,-10 160,-60 -175,35 -155,25 -395,40 -960,-5 -125,10 -5,-30 q 245,-105 380,-340 h 10 l 5,50 40,-30 v -20 m 4185,625 -120,90 q -370,285 -630,450 l -45,-5 -110,-20 h -5 l -35,-10 -215,-60 -30,-10 -15,-20 -85,-130 h -5 l -165,-290 h 5 l -85,-220 q 280,125 470,125 l 620,-640 150,310 q 150,285 300,430"
     fill="#52524b"
     fill-rule="evenodd"
     stroke="none"
     id="path32"
     style="stroke-width:100" />
  <path
     d="m 2725,4265 -160,-215 -90,-130 -205,-325 -80,-235 -180,-495 q 140,-285 325,-915 l 135,-495 40,60 5,15 75,130 5,10 105,395 255,940 40,110 5,-5 5,30 20,115 q 160,200 470,450 l 275,215 20,15 q 125,85 190,115 15,55 50,70 l 15,150 q 15,145 15,325 l -10,380 q -25,325 -100,380 -600,-320 -1200,-1060 l 60,-30 -20,-10 -65,10 m -125,2515 40,-40 -445,-150 q -280,-100 -655,-430 l -460,-455 -90,-100 75,-55 v -30 q 0,-345 -120,-760 L 775,4275 v -5 l 70,40 95,60 30,20 185,120 140,95 90,90 450,410 160,120 q 275,200 440,210 l 170,535 55,190 100,475 -160,145 m 2190,-6450 45,-15 10,-5 25,30 75,85 25,30 260,320 10,60 15,145 -290,370 -285,395 q -40,145 -210,320 l -25,35 -325,465 q -45,-35 -160,-50 l 400,-615 20,-20 q -25,-85 -245,-285 -250,-235 -255,-335 -10,-185 180,-345 l 360,-295 325,-270 45,-20 m -885,2240 45,10 20,5 170,55 10,-10 65,-75 150,-180 70,-75 q -35,235 0,400 l 20,75 q 50,125 45,175 l -5,25 -15,50 -5,10 -290,390 -160,205 -90,115 -60,-90 45,105 -65,75 -30,-25 -150,-115 q 0,-280 110,-715 l 120,-410 m -900,915 15,105 q 15,180 -25,330 -35,140 -125,250 l -20,20 15,20 60,-55 40,-80 q 30,-70 45,-155 25,-125 25,-295 l -10,-285 -20,145 m 2105,3580 q 5,-245 100,-450 115,-255 360,-455 l 180,-130 340,-190 -185,175 -130,145 q -255,310 -340,595 -55,180 -35,350 l -290,-40 M 2820,6710 v -25 -85 l 5,-20 -5,10 q -20,-180 -95,-430 l -95,-295 -170,-430 h 10 l 10,35 435,-30 640,55 245,-10 270,40 h 15 l 140,285 130,350 q 45,160 45,315 l -35,255 -1545,-20 m 2645,400 -25,-140 v -20 l 15,-130 q 65,-330 455,-660 l 340,-250 55,-35 225,-135 v -5 q 370,-210 580,-255 l 85,-10 h 5 5 l 5,10 h 5 l 5,10 -5,15 25,25 45,90 15,30 5,5 145,305 95,200 55,120 5,10 75,160 -5,125 -5,15 q -115,295 -665,745 -150,-145 -300,-430 l -150,-310 -620,640 q -190,0 -470,-125"
     fill="#2c2c27"
     fill-rule="evenodd"
     stroke="none"
     id="path34"
     style="stroke-width:100" />
  <defs
     id="defs48">
    <linearGradient
       gradientTransform="matrix(0.94,-3.38,1.47,0.41,4537.5,-4747.5)"
       gradientUnits="userSpaceOnUse"
       id="gradient0"
       spreadMethod="pad"
       x1="-819.2"
       x2="819.2">
      <stop
         offset="0.0"
         stop-color="#635b58"
         id="stop38" />
      <stop
         offset="1.0"
         stop-color="#d3cebc"
         id="stop40" />
    </linearGradient>
    <linearGradient
       gradientTransform="matrix(0.76,-3.38,1.18,0.41,5262.5,-4747.5)"
       gradientUnits="userSpaceOnUse"
       id="gradient1"
       spreadMethod="pad"
       x1="-819.2"
       x2="819.2">
      <stop
         offset="0.0"
         stop-color="#635b58"
         id="stop43" />
      <stop
         offset="1.0"
         stop-color="#d3cebc"
         id="stop45" />
    </linearGradient>
  </defs>
</svg>
