<?xml version="1.0" encoding="UTF-8" standalone="no"?>
<svg
   xmlns:dc="http://purl.org/dc/elements/1.1/"
   xmlns:cc="http://creativecommons.org/ns#"
   xmlns:rdf="http://www.w3.org/1999/02/22-rdf-syntax-ns#"
   xmlns:svg="http://www.w3.org/2000/svg"
   xmlns="http://www.w3.org/2000/svg"
   xmlns:sodipodi="http://sodipodi.sourceforge.net/DTD/sodipodi-0.dtd"
   xmlns:inkscape="http://www.inkscape.org/namespaces/inkscape"
   height="9210.0px"
   width="8315.0px"
   version="1.1"
   id="svg46"
   sodipodi:docname="1194.svg"
   inkscape:version="1.0.2-2 (e86c870879, 2021-01-15)">
  <metadata
     id="metadata50">
    <rdf:RDF>
      <cc:Work
         rdf:about="">
        <dc:format>image/svg+xml</dc:format>
        <dc:type
           rdf:resource="http://purl.org/dc/dcmitype/StillImage" />
      </cc:Work>
    </rdf:RDF>
  </metadata>
  <sodipodi:namedview
     pagecolor="#ffffff"
     bordercolor="#666666"
     borderopacity="1"
     objecttolerance="10"
     gridtolerance="10"
     guidetolerance="10"
     inkscape:pageopacity="0"
     inkscape:pageshadow="2"
     inkscape:window-width="1920"
     inkscape:window-height="1017"
     id="namedview48"
     showgrid="false"
     inkscape:zoom="0.092290988"
     inkscape:cx="4157.5"
     inkscape:cy="4605"
     inkscape:window-x="-8"
     inkscape:window-y="-8"
     inkscape:window-maximized="1"
     inkscape:current-layer="svg46" />
  <path
     d="m 6395,5060 v 5 l 10,10 -10,-15 m 0,-215 15,85 q 85,155 180,505 l 75,285 q 135,255 340,480 l 45,45 150,120 105,85 q 150,120 330,335 l 40,50 q 215,225 400,560 140,245 240,510 l -215,580 -155,140 -470,405 -75,60 -50,35 -30,25 -80,60 q -105,-50 -195,-100 l -10,-10 h -5 l 5,-5 -485,-545 Q 5850,7775 5230,7705 l -300,-40 h -10 q -730,-290 -245,-270 l 405,80 15,-20 h 165 l 15,-40 140,25 -45,-70 5,-15 30,30 q -140,-365 115,-910 295,-665 525,-660 l 360,45 195,40 q -50,-140 -35,-265 l -45,-140 -75,-275 -60,-70 -15,-20 -5,5 q -275,25 -570,250 -245,90 -490,550 -275,505 -185,880 l -40,55 -25,-220 5,-95 20,-120 20,-95 q 0,-295 265,-610 l 315,-305 405,-395 255,-255 q 65,0 30,10 l 25,60 m -505,2155 10,-20 115,-105 25,-30 115,-140 100,-85 480,-320 5,10 55,-5 -40,-105 -100,-160 q -510,-160 -590,-165 -120,0 -385,410 -105,180 -175,370 l -20,80 -45,190 q -40,195 -20,405 l 15,95 25,35 q 120,50 290,135 l 215,130 -195,-345 q -70,-150 120,-380 m 1300,1925 v 10 l 15,5 q 195,-175 435,-365 l 265,-205 20,-50 35,-90 10,-30 95,-310 q -220,-505 -440,-850 l -390,-375 -145,-150 q -165,-125 -240,-130 l -5,10 h -30 l -95,-35 -110,70 q -115,10 -425,290 l -85,85 -120,150 -30,45 -40,80 q -100,140 -95,220 l 310,495 20,35 50,70 85,90 -5,-20 110,130 200,230 375,400 120,135 40,40 45,15 25,5 M 2475,355 l -125,-65 -135,50 -210,80 -130,230 q -280,595 -320,760 l 530,520 520,545 135,145 60,-10 q 185,-40 270,-130 l 20,-25 25,-40 5,-10 q 290,-620 350,-1010 v -80 l -415,-510 -145,-155 -100,-80 -50,-45 -10,-5 -230,-140 -45,-25 m -770,310 130,-265 55,-115 240,-150 160,-75 20,15 140,-45 -5,-15 45,-15 425,370 435,410 -30,-20 -30,-5 15,15 10,25 600,640 q 765,855 765,1000 l -15,75 -55,10 q -5,180 -45,425 -80,275 -245,675 l -5,10 q -60,110 -65,200 l -90,5 -20,-5 -45,5 v 5 l -105,10 v 35 l 235,200 80,1020 v 135 l -10,20 10,165 -180,10 q 20,115 190,230 l 40,25 130,310 q 85,380 100,1050 l -270,-20 -380,-30 -355,-80 q -150,-65 -530,-175 l -300,-85 -55,-45 q -60,-35 -125,-35 -185,0 -150,145 l 15,40 -25,-15 -360,-80 -50,-10 -310,-70 -380,-75 -380,-65 -225,-35 -180,-15 -55,-5 -55,-10 -5,5 -60,-5 -45,-50 -15,-135 -15,-245 -5,-585 5,-285 5,-130 180,-260 135,-140 h 20 l 120,-125 -5,-10 30,-30 550,70 75,10 5,5 300,45 -305,-160 -75,-35 -685,-320 -225,-100 -185,-65 -50,-20 -60,-25 -5,5 -65,-25 -35,-65 10,-135 q 30,-370 125,-820 l 60,-280 25,-125 105,-90 130,-115 160,-95 h 25 l 150,-80 -15,-15 50,-20 290,115 195,80 75,35 70,30 145,65 90,40 360,165 55,25 -50,-15 h -5 -30 l 25,10 h 5 l 15,10 225,90 5,-25 -5,-55 -240,-245 -310,-305 -150,-135 -135,-95 -35,-35 -40,-35 v 5 l -50,-35 -10,-75 50,-125 335,-760 m -820,1605 -65,-10 -55,-10 -15,10 -130,70 -215,125 -75,250 q -115,640 -105,805 225,90 800,380 l 285,150 75,35 305,160 125,65 210,110 25,-10 q 25,-5 50,-20 190,-65 275,-155 l 30,-35 20,-35 10,-40 q 135,-670 60,-1060 l -45,-100 -400,-215 -360,-195 -150,-75 -150,-60 -5,-5 -75,-30 -190,-50 -130,-30 -105,-25 M 765,4710 h -5 l -115,115 -185,180 -25,265 25,685 20,125 805,150 25,5 380,90 360,85 35,5 230,45 70,-40 q 175,-125 230,-240 l 25,-100 v -15 q 0,-675 -140,-1030 l -55,-85 -395,-105 -360,-90 -175,-40 -130,-20 h -15 l -60,-10 -20,-5 -285,5 -25,5 -215,20 m 2600,-1360 70,85 170,155 15,15 175,115 25,10 100,65 145,-10 h 15 l 30,-10 130,-35 q 145,-310 200,-530 135,-430 40,-700 l -50,-120 q -220,-210 -710,-775 l -220,-265 -5,45 q -50,345 -300,910 l -85,185 -10,20 q -40,85 -340,140 l 340,415 35,40 230,245 m -175,1730 5,5 180,95 215,90 370,145 220,-15 h 70 l -5,-60 10,-50 v -45 l -5,-30 q -35,-620 -30,-940 l -110,-200 -140,-155 -70,-50 -165,-115 -75,-55 -170,-115 -30,-20 q -230,-125 -505,-310 l -155,-105 -290,-165 15,60 q 75,390 -60,1100 l -15,65 v 5 q -20,100 -385,215 305,160 655,360 l 470,290 m -415,-2310 -25,-25 -285,-270 20,90 q 0,95 -90,185 h -15 l 515,350 410,285 -190,-195 -40,-45 -20,-25 q -60,-130 -280,-350 m 1680,4205 40,-5 25,-45 45,-5 -25,-95 v -30 q -5,-310 -60,-515 -65,-440 -305,-655 l -60,-50 q -85,-65 -165,-90 l -175,-70 -80,-40 -180,-70 -220,-70 -335,-120 -160,-65 -295,-85 25,55 q 135,345 145,1025 v 125 15 q -25,100 -315,290 l 670,185 495,170 270,70 175,40 40,5 h 90 l 265,40 90,-10 M 2730,6845 h -5 l -5,-5 10,5"
     fill="#000000"
     fill-rule="evenodd"
     stroke="none"
     id="path26"
     style="stroke-width:100" />
  <path
     d="m 5890,7000 q -190,230 -120,380 l 195,345 -215,-130 q -170,-85 -290,-135 l -25,-35 -15,-95 q -20,-210 20,-405 l 165,-5 -40,5 190,40 135,35 m 1300,1925 -25,-5 -45,-15 -40,-40 -120,-135 -375,-400 -200,-230 -110,-130 5,20 -85,-90 -50,-70 -20,-35 -310,-495 q -5,-80 95,-220 l 40,-80 q 175,195 480,395 l 190,155 5,5 25,35 320,405 285,440 20,30 -85,460 M 3070,2480 q -85,90 -270,130 l -60,10 -135,-145 -520,-545 -530,-520 q 40,-165 320,-760 l 130,-230 210,-80 135,-50 125,65 -30,315 q 0,55 -85,290 l -15,60 q -50,200 -110,315 l -20,105 -10,40 195,250 45,65 105,105 520,580 m -695,1745 q -85,90 -275,155 -25,15 -50,20 l -25,10 -210,-110 -125,-65 -305,-160 -75,-35 -285,-150 Q 450,3600 225,3510 215,3345 330,2705 l 75,-250 215,-125 130,-70 15,-10 55,10 65,10 15,205 q 0,500 -140,855 160,65 550,295 l 75,40 305,190 90,55 270,160 325,155 M 765,4710 v 80 l 15,600 20,145 25,200 v 70 l 25,30 20,-20 125,25 315,60 40,10 35,5 305,60 360,75 40,10 525,120 q -55,115 -230,240 l -70,40 -230,-45 -35,-5 -360,-85 -380,-90 -25,-5 -805,-150 -20,-125 -25,-685 25,-265 185,-180 115,-115 h 5 m 2600,-1360 -230,-245 -35,-40 -340,-415 q 300,-55 340,-140 l 10,-20 230,350 445,645 -50,-65 -195,-40 -175,-30 m -915,860 q 165,130 445,295 560,345 775,530 l 120,90 -410,-15 -190,-30 -470,-290 q -350,-200 -655,-360 365,-115 385,-215 v -5 m 2005,2765 -90,10 -265,-40 h -90 l -40,-5 -175,-40 -270,-70 -495,-170 -670,-185 q 290,-190 315,-290 l 205,50 q 430,180 840,325 l 430,200 305,215"
     fill="#52524b"
     fill-rule="evenodd"
     stroke="none"
     id="path28"
     style="stroke-width:100" />
  <path
     d="m 5440,6925 45,-190 20,-80 q 70,-190 175,-370 265,-410 385,-410 80,5 590,165 l 100,160 40,105 -55,5 -5,-10 -480,320 -100,85 -115,140 -25,30 -115,105 -10,20 -135,-35 -190,-40 40,-5 -165,5 m 510,75 30,-45 120,-150 85,-85 q 310,-280 425,-290 l 110,-70 95,35 h 30 l 5,-10 q 75,5 240,130 l 145,150 390,375 q 220,345 440,850 l -95,310 -10,30 -35,90 -20,50 -265,205 q -240,190 -435,365 l -15,-5 v -10 l 85,-460 -20,-30 -285,-440 -320,-405 -25,-35 -5,-5 -190,-155 Q 6125,7195 5950,7000 M 2475,355 l 45,25 230,140 10,5 50,45 100,80 145,155 415,510 v 80 q -60,390 -350,1010 l -5,10 -25,40 -20,25 -520,-580 -105,-105 -45,-65 -195,-250 10,-40 20,-105 q 60,-115 110,-315 l 15,-60 q 85,-235 85,-290 l 30,-315 m -1590,1915 105,25 130,30 190,50 75,30 5,5 150,60 150,75 360,195 400,215 45,100 q 75,390 -60,1060 l -10,40 -20,35 -30,35 -325,-155 -270,-160 -90,-55 -305,-190 -75,-40 Q 920,3395 760,3330 900,2975 900,2475 l -15,-205 m 1730,3910 -525,-120 -40,-10 -360,-75 -305,-60 -35,-5 -40,-10 -315,-60 -125,-25 -20,20 -25,-30 v -70 l -25,-200 -20,-145 -15,-600 v -80 l 215,-20 25,-5 285,-5 20,5 60,10 h 15 l 130,20 175,40 360,90 395,105 55,85 q 140,355 140,1030 v 15 l -25,100 m 495,-3690 85,-185 q 250,-565 300,-910 l 5,-45 220,265 q 490,565 710,775 l 50,120 q 95,270 -40,700 -55,220 -200,530 l -130,35 -30,10 h -15 l -145,10 -100,-65 -25,-10 -175,-115 -15,-15 -170,-155 -70,-85 175,30 195,40 50,65 -445,-645 -230,-350 m -660,1720 15,-65 q 135,-710 60,-1100 l -15,-60 290,165 155,105 q 275,185 505,310 l 30,20 170,115 75,55 165,115 70,50 140,155 110,200 q -5,320 30,940 l 5,30 v 45 l -10,50 5,60 h -70 l -220,15 -370,-145 -215,-90 -180,-95 -5,-5 190,30 410,15 -120,-90 q -215,-185 -775,-530 -280,-165 -445,-295 m 325,-1440 q 220,220 280,350 l 20,25 40,45 190,195 -410,-285 q -90,-195 -120,-330 m -100,3415 v -15 -125 q -10,-680 -145,-1025 l -25,-55 295,85 160,65 335,120 220,70 180,70 80,40 175,70 q 80,25 165,90 l 60,50 q 240,215 305,655 55,205 60,515 v 30 l 25,95 -45,5 -25,45 -40,5 -305,-215 -430,-200 q -410,-145 -840,-325 l -205,-50"
     fill="#2c2c27"
     fill-rule="evenodd"
     stroke="none"
     id="path30"
     style="stroke-width:100" />
  <defs
     id="defs44">
    <linearGradient
       gradientTransform="matrix(0.94,-3.38,1.47,0.41,-8268.8118,-2015.7059)"
       gradientUnits="userSpaceOnUse"
       id="gradient0"
       spreadMethod="pad"
       x1="-819.2"
       x2="819.2">
      <stop
         offset="0.0"
         stop-color="#635b58"
         id="stop34" />
      <stop
         offset="1.0"
         stop-color="#d3cebc"
         id="stop36" />
    </linearGradient>
    <linearGradient
       gradientTransform="matrix(0.76,-3.38,1.18,0.41,-7543.8118,-2015.7059)"
       gradientUnits="userSpaceOnUse"
       id="gradient1"
       spreadMethod="pad"
       x1="-819.2"
       x2="819.2">
      <stop
         offset="0.0"
         stop-color="#635b58"
         id="stop39" />
      <stop
         offset="1.0"
         stop-color="#d3cebc"
         id="stop41" />
    </linearGradient>
  </defs>
</svg>
