<?xml version="1.0" encoding="UTF-8" standalone="no"?>
<svg
   xmlns:dc="http://purl.org/dc/elements/1.1/"
   xmlns:cc="http://creativecommons.org/ns#"
   xmlns:rdf="http://www.w3.org/1999/02/22-rdf-syntax-ns#"
   xmlns:svg="http://www.w3.org/2000/svg"
   xmlns="http://www.w3.org/2000/svg"
   xmlns:sodipodi="http://sodipodi.sourceforge.net/DTD/sodipodi-0.dtd"
   xmlns:inkscape="http://www.inkscape.org/namespaces/inkscape"
   height="7720.0px"
   width="7380.0px"
   version="1.1"
   id="svg52"
   sodipodi:docname="1208.svg"
   inkscape:version="1.0.2-2 (e86c870879, 2021-01-15)">
  <metadata
     id="metadata56">
    <rdf:RDF>
      <cc:Work
         rdf:about="">
        <dc:format>image/svg+xml</dc:format>
        <dc:type
           rdf:resource="http://purl.org/dc/dcmitype/StillImage" />
      </cc:Work>
    </rdf:RDF>
  </metadata>
  <sodipodi:namedview
     pagecolor="#ffffff"
     bordercolor="#666666"
     borderopacity="1"
     objecttolerance="10"
     gridtolerance="10"
     guidetolerance="10"
     inkscape:pageopacity="0"
     inkscape:pageshadow="2"
     inkscape:window-width="1920"
     inkscape:window-height="1017"
     id="namedview54"
     showgrid="false"
     inkscape:zoom="0.11010363"
     inkscape:cx="3690"
     inkscape:cy="3860"
     inkscape:window-x="-8"
     inkscape:window-y="-8"
     inkscape:window-maximized="1"
     inkscape:current-layer="svg52" />
  <path
     d="m 2320,30 -5,-15 45,-15 425,370 435,410 -30,-20 -30,-5 15,15 10,25 600,640 q 765,855 765,1000 l -15,75 -55,10 q -5,180 -45,425 -80,275 -245,675 l -5,10 q -60,110 -65,200 l -90,5 -20,-5 -45,5 v 5 l -105,10 v 35 l 235,200 80,1020 v 135 l -10,20 10,165 -180,10 q 10,70 80,140 l 105,60 35,30 35,25 115,310 q 75,380 90,1050 l -240,-20 -335,-30 -310,-80 q -135,-65 -470,-175 l -150,-50 -175,-80 q -270,-110 -390,-110 -90,0 -125,40 -25,25 -15,65 l -65,50 h -5 l -270,-70 -335,-75 -335,-65 -200,-35 -155,-15 -50,-5 -50,-10 -5,5 -40,-5 -25,10 -85,-80 q -85,-740 -75,-1075 10,-275 90,-370 l 360,-425 45,-35 30,-5 10,-15 300,40 -130,-70 -5,-5 -60,-30 -25,-15 -10,-5 -185,-105 -280,-150 -90,-45 q -90,-55 -195,-100 l -160,-65 -40,-20 q -35,-10 -50,-25 l -5,5 -60,-25 -20,-45 -20,15 -40,-10 -10,-5 75,-825 25,-160 40,-180 q 85,-325 250,-355 l 65,-65 135,-95 h 25 q 75,-65 130,-80 l -15,-15 45,-20 35,15 q 115,15 655,295 l 150,80 305,140 55,25 -50,-15 h -5 -25 5 l 15,10 h 5 l 30,15 240,100 -25,60 -40,10 640,430 410,285 -190,-195 -40,-45 -20,-25 q -60,-130 -280,-350 l -25,-25 -320,-300 q -95,0 -115,85 l -265,-270 -310,-305 -150,-135 -135,-95 -35,-35 -40,-35 v 5 l -50,-35 -10,-75 50,-125 q 130,-350 335,-760 l 130,-265 55,-115 240,-150 160,-75 20,15 q 95,-50 140,-45 m 25,325 -125,-65 -135,50 -210,80 -130,230 q -280,595 -320,760 l 530,520 520,545 135,145 60,-10 q 185,-40 270,-130 l 20,-25 25,-40 5,-10 q 290,-620 350,-1010 v -80 l -415,-510 -145,-155 -100,-80 -50,-45 -10,-5 -230,-140 -45,-25 m -1520,1915 -55,-10 -50,-10 -10,10 -20,10 -95,60 -185,125 -65,250 q -100,640 -90,805 l 35,15 400,215 255,150 210,130 35,20 35,20 25,10 5,5 130,70 175,90 125,65 210,110 25,-10 50,-20 q 190,-65 275,-155 l 30,-35 20,-35 10,-40 q 135,-670 60,-1060 l -45,-100 -400,-215 -360,-195 -150,-75 -25,-10 -125,-50 -5,-5 -5,-5 -25,-10 -35,-15 -35,-10 -125,-40 -115,-30 -90,-25 m 1895,3910 20,-100 v -15 q 0,-675 -125,-1030 l -45,-85 -350,-105 -315,-90 -155,-40 -115,-20 h -15 l -50,-10 -20,-5 -250,5 -20,5 -190,20 h -5 l -100,115 -165,180 -20,265 20,685 20,125 705,150 25,5 335,90 315,85 30,5 205,45 60,-40 q 155,-125 205,-240 m 515,-2830 70,85 170,155 15,15 175,115 25,10 100,65 145,-10 h 15 l 30,-10 130,-35 q 145,-310 200,-530 135,-430 40,-700 l -50,-120 -710,-775 -220,-265 -5,45 q -50,345 -300,910 l -85,185 -10,20 q -40,85 -340,140 l 340,415 35,40 230,245 m -25,1755 490,260 130,50 220,-15 h 70 l -5,-60 10,-50 v -45 l -5,-30 q -35,-620 -30,-940 l -110,-200 -140,-155 -70,-50 -165,-115 -75,-55 -170,-115 -30,-20 -505,-310 -155,-105 -290,-165 15,60 q 75,390 -60,1100 l -15,65 v 5 q -20,100 -385,215 l 440,240 165,70 80,70 190,115 290,125 110,55 m 1130,1870 35,-5 20,-45 40,-5 -20,-95 v -30 q -5,-310 -55,-515 -55,-440 -270,-655 l -25,-30 -25,-20 q -75,-65 -145,-90 l -155,-70 -70,-40 -160,-70 -145,-55 -50,-15 -295,-120 -140,-65 -260,-85 25,55 q 120,345 125,1025 v 125 15 q -20,100 -275,290 270,75 590,185 l 435,170 240,70 150,40 35,5 h 80 l 235,40 80,-10"
     fill="#000000"
     fill-rule="evenodd"
     stroke="none"
     id="path26"
     style="stroke-width:100" />
  <path
     d="m 2940,2480 q -85,90 -270,130 l -60,10 -135,-145 -520,-545 -530,-520 q 40,-165 320,-760 l 130,-230 210,-80 135,-50 125,65 -30,315 q 0,55 -85,290 l -15,60 q -50,200 -110,315 l -20,105 -10,40 195,250 45,65 105,105 520,580 m -695,1745 q -85,90 -275,155 l -50,20 -25,10 -210,-110 -125,-65 -175,-90 -130,-70 -5,-5 -25,-10 -35,-20 -35,-20 -210,-130 -255,-150 -400,-215 -35,-15 q -10,-165 90,-805 l 65,-250 185,-125 95,-60 20,-10 10,-10 50,10 55,10 15,205 q 0,500 -125,855 l 330,195 110,75 35,25 35,20 25,15 5,5 130,80 175,110 90,55 270,160 325,155 m 475,1955 q -50,115 -205,240 l -60,40 -205,-45 -30,-5 -315,-85 -335,-90 -25,-5 -705,-150 -20,-125 -20,-685 20,-265 165,-180 100,-115 h 5 v 80 l 15,600 15,145 20,200 v 70 l 25,30 15,-20 110,25 280,60 35,10 30,5 270,60 315,75 35,10 465,120 m 515,-2830 -230,-245 -35,-40 -340,-415 q 300,-55 340,-140 l 10,-20 230,350 445,645 -50,-65 -195,-40 -175,-30 m -915,860 445,295 q 560,345 775,530 l 120,90 -410,-15 -40,-5 -110,-55 -290,-125 -190,-115 -80,-70 -165,-70 -440,-240 q 365,-115 385,-215 v -5 m 2020,2765 -80,10 -235,-40 h -80 l -35,-5 -150,-40 -240,-70 -435,-170 q -320,-110 -590,-185 255,-190 275,-290 l 180,50 740,325 380,200 270,215"
     fill="#52524b"
     fill-rule="evenodd"
     stroke="none"
     id="path28"
     style="stroke-width:100" />
  <path
     d="m 2345,355 45,25 230,140 10,5 50,45 100,80 145,155 415,510 v 80 q -60,390 -350,1010 l -5,10 -25,40 -20,25 -520,-580 -105,-105 -45,-65 -195,-250 10,-40 20,-105 q 60,-115 110,-315 l 15,-60 q 85,-235 85,-290 l 30,-315 m -1520,1915 90,25 115,30 125,40 35,10 35,15 25,10 5,5 5,5 125,50 25,10 150,75 360,195 400,215 45,100 q 75,390 -60,1060 l -10,40 -20,35 -30,35 -325,-155 -270,-160 -90,-55 -175,-110 -130,-80 -5,-5 -25,-15 -35,-20 -35,-25 -110,-75 -330,-195 q 125,-355 125,-855 l -15,-205 m 265,2440 190,-20 20,-5 250,-5 20,5 50,10 h 15 l 115,20 155,40 315,90 350,105 45,85 q 125,355 125,1030 v 15 l -20,100 -465,-120 -35,-10 -315,-75 -270,-60 -30,-5 -35,-10 -280,-60 -110,-25 -15,20 -25,-30 v -70 l -20,-200 -15,-145 -15,-600 v -80 m 1890,-2220 85,-185 q 250,-565 300,-910 l 5,-45 220,265 710,775 50,120 q 95,270 -40,700 -55,220 -200,530 l -130,35 -30,10 h -15 l -145,10 -100,-65 -25,-10 -175,-115 -15,-15 -170,-155 -70,-85 175,30 195,40 50,65 -445,-645 -230,-350 m -660,1720 15,-65 q 135,-710 60,-1100 l -15,-60 290,165 155,105 505,310 30,20 170,115 75,55 165,115 70,50 140,155 110,200 q -5,320 30,940 l 5,30 v 45 l -10,50 5,60 h -70 l -220,15 -130,-50 -490,-260 40,5 410,15 -120,-90 q -215,-185 -775,-530 l -445,-295 m 450,1975 v -15 -125 q -5,-680 -125,-1025 l -25,-55 260,85 140,65 295,120 50,15 145,55 160,70 70,40 155,70 q 70,25 145,90 l 25,20 25,30 q 215,215 270,655 50,205 55,515 v 30 l 20,95 -40,5 -20,45 -35,5 -270,-215 -380,-200 -740,-325 -180,-50"
     fill="#2c2c27"
     fill-rule="evenodd"
     stroke="none"
     id="path30"
     style="stroke-width:100" />
  <path
     d="m 6280,895 -30,-5 -85,55 -155,100 -5,5 -165,500 -70,205 -155,410 -100,325 h -5 l -10,45 125,70 35,15 230,125 160,80 q 420,210 475,210 l 160,-160 65,-115 95,-155 45,-135 h 5 l 65,-215 q 200,-655 205,-910 l -580,-340 -155,-65 -115,-35 -35,-10 M 4840,4380 v 5 l -100,-120 -35,-185 25,-75 v -885 q -100,-380 -305,-610 l -115,-115 q 0,-45 40,-70 l -30,-30 q 80,-60 285,50 210,115 325,135 l 50,-15 v 5 h 30 q 235,-100 360,-470 l 220,-510 q 115,-290 195,-565 l 75,-165 355,-175 q 65,35 145,70 455,210 685,365 l 335,270 -95,435 -195,765 h -5 l -50,175 q -105,190 -210,305 l -165,280 -35,340 v 5 l -160,565 q -190,645 -295,830 h 15 l -45,175 -125,-75 q -220,-110 -590,-220 l -60,-25 q -90,-50 -285,-100 l -220,-295 -10,-15 q 215,275 575,395 420,95 625,190 l 65,-110 85,-135 225,-960 -105,-105 130,-50 -110,40 -30,-30 -95,-75 q -260,10 -630,-265 l -735,-570 h -5 l -145,25 h -5 q 30,70 30,160 l 10,165 15,1150 90,120 m 415,-1750 -10,10 -30,15 -90,35 -65,15 h -5 l 25,35 135,170 145,170 q 385,430 765,430 l 290,-45 q 45,-140 145,-345 -55,-10 -520,-245 l -190,-100 -340,-155 -55,-20 h -5 l -20,-10 -115,10 h -15 l -45,30 m 120,-100 -10,10 h 10 v -10"
     fill="#000000"
     fill-rule="evenodd"
     stroke="none"
     id="path32"
     style="stroke-width:100" />
  <path
     d="m 6280,895 35,10 115,35 155,65 580,340 q -5,255 -205,910 l -65,215 h -5 l -45,135 -95,155 -65,115 -160,160 q -55,0 -475,-210 l -160,-80 -230,-125 -35,-15 90,-95 q 170,-225 410,-1120 80,-310 155,-495 m -1440,3485 -90,-120 -15,-1150 -10,-165 q 0,-90 -30,-160 h 5 l 145,-25 h 5 l 735,570 q 370,275 630,265 l 95,75 30,30 110,-40 -130,50 105,105 -225,960 -85,135 -65,110 q -205,-95 -625,-190 -360,-120 -575,-395 l -10,-10 5,-15 -5,-10 5,-25 -5,5 m 610,-1780 h 5 l 55,20 340,155 190,100 q 465,235 520,245 -100,205 -145,345 l -290,45 q -380,0 -765,-430 l -145,-170 -135,-170 -25,-35 h 5 l 65,-15 90,-35 30,-15 10,-10 195,-30"
     fill="#2c2c27"
     fill-rule="evenodd"
     stroke="none"
     id="path34"
     style="stroke-width:100" />
  <path
     d="m 5625,2605 -125,-70 10,-45 h 5 l 100,-325 155,-410 70,-205 165,-500 5,-5 155,-100 85,-55 30,5 q -75,185 -155,495 -240,895 -410,1120 l -90,95 m -370,25 45,-30 h 15 l 115,-10 20,10 -195,30"
     fill="#52524b"
     fill-rule="evenodd"
     stroke="none"
     id="path36"
     style="stroke-width:100" />
  <defs
     id="defs50">
    <linearGradient
       gradientTransform="matrix(0.94,-3.38,1.47,0.41,-7636.7294,-2928.3882)"
       gradientUnits="userSpaceOnUse"
       id="gradient0"
       spreadMethod="pad"
       x1="-819.2"
       x2="819.2">
      <stop
         offset="0.0"
         stop-color="#635b58"
         id="stop40" />
      <stop
         offset="1.0"
         stop-color="#d3cebc"
         id="stop42" />
    </linearGradient>
    <linearGradient
       gradientTransform="matrix(0.76,-3.38,1.18,0.41,-6911.7294,-2928.3882)"
       gradientUnits="userSpaceOnUse"
       id="gradient1"
       spreadMethod="pad"
       x1="-819.2"
       x2="819.2">
      <stop
         offset="0.0"
         stop-color="#635b58"
         id="stop45" />
      <stop
         offset="1.0"
         stop-color="#d3cebc"
         id="stop47" />
    </linearGradient>
  </defs>
</svg>
