<?xml version="1.0" encoding="UTF-8" standalone="no"?>
<svg
   xmlns:dc="http://purl.org/dc/elements/1.1/"
   xmlns:cc="http://creativecommons.org/ns#"
   xmlns:rdf="http://www.w3.org/1999/02/22-rdf-syntax-ns#"
   xmlns:svg="http://www.w3.org/2000/svg"
   xmlns="http://www.w3.org/2000/svg"
   xmlns:sodipodi="http://sodipodi.sourceforge.net/DTD/sodipodi-0.dtd"
   xmlns:inkscape="http://www.inkscape.org/namespaces/inkscape"
   height="7855.0px"
   width="6840.0px"
   version="1.1"
   id="svg46"
   sodipodi:docname="1222.svg"
   inkscape:version="1.0.2-2 (e86c870879, 2021-01-15)">
  <metadata
     id="metadata50">
    <rdf:RDF>
      <cc:Work
         rdf:about="">
        <dc:format>image/svg+xml</dc:format>
        <dc:type
           rdf:resource="http://purl.org/dc/dcmitype/StillImage" />
      </cc:Work>
    </rdf:RDF>
  </metadata>
  <sodipodi:namedview
     pagecolor="#ffffff"
     bordercolor="#666666"
     borderopacity="1"
     objecttolerance="10"
     gridtolerance="10"
     guidetolerance="10"
     inkscape:pageopacity="0"
     inkscape:pageshadow="2"
     inkscape:window-width="1920"
     inkscape:window-height="1017"
     id="namedview48"
     showgrid="false"
     inkscape:zoom="0.10821133"
     inkscape:cx="3420"
     inkscape:cy="3927.5"
     inkscape:window-x="-8"
     inkscape:window-y="-8"
     inkscape:window-maximized="1"
     inkscape:current-layer="svg46" />
  <path
     d="m 6330,2320 165,-510 100,-195 30,-80 v -10 -15 q 15,-50 -30,-115 l -75,-35 -260,-140 -320,-185 -90,-25 h -15 -150 l -65,25 15,-15 5,-5 v -5 l -15,5 -35,20 -10,-10 -15,30 -245,470 -125,240 -195,640 q -25,175 10,250 l 10,5 15,15 q 120,190 415,280 l 180,50 175,45 5,5 60,15 155,-45 55,-5 100,-245 10,-45 25,-70 115,-340 m -275,-1455 155,55 535,305 80,95 15,15 -5,10 5,10 -60,215 -265,1055 -20,35 -310,610 -30,130 -235,485 -165,420 q -150,170 -275,365 -155,235 -210,435 -70,165 -70,285 l 10,205 q 10,115 70,350 -180,-260 -205,-515 -115,-250 -325,-390 -365,-235 -475,-380 -70,-95 -330,-825 l -210,-560 q -250,-290 -260,-455 l 30,-30 160,180 10,15 -15,-60 -300,-325 v -25 l 145,60 q 320,135 545,135 125,0 405,-100 l 30,-10 175,-70 40,-45 q 120,-145 435,-1020 l 205,-575 q 20,-60 165,-280 l 310,80 240,115 m -395,455 5,-15 h 5 l -10,15 m -115,2180 60,-20 255,-90 75,-30 50,-130 -10,-25 -15,-50 -140,-55 v -5 l -35,-15 -20,-5 -200,-75 -455,-145 -105,-70 -25,-35 -5,15 -100,-45 -35,10 -30,-5 -155,60 15,20 h -5 q 35,95 130,215 l 50,105 q 185,405 510,405 l 190,-30 m 0,25 -140,20 -145,15 -190,-50 -180,-275 q -185,-275 -265,-360 l -65,-65 -35,10 -50,15 -95,40 -115,35 -350,80 -40,145 -5,20 -25,90 -20,60 -5,-5 80,235 15,50 q 245,810 360,950 420,535 810,620 30,-145 110,-290 l 320,-500 q 150,-250 240,-495 l -10,-10 30,-65 q 60,-140 80,-275 l 5,-20 -10,-35 -20,-10 -285,70 M 1515,90 l 90,35 -100,-45 75,-80 435,160 q 380,150 525,240 h 5 q 180,0 205,905 30,985 290,1170 l -10,20 -45,5 -80,-20 55,205 q 110,360 210,485 l -10,15 -5,5 q -110,255 -125,750 l -75,55 q -55,40 55,150 l 15,15 q 5,60 70,160 l 45,80 q 50,85 90,190 l 35,95 -5,270 h 40 l -45,280 -30,175 -130,-25 10,15 15,5 10,20 -160,-20 95,45 180,100 35,15 -10,25 -25,-5 -35,-15 35,40 70,105 40,90 q 55,440 60,1100 l -195,15 -390,30 -60,5 -315,-110 q -910,-320 -995,-320 l -130,-30 -55,-15 -305,-170 -90,-235 Q 590,5300 500,4955 l 135,-115 q 405,-355 405,-430 0,-125 -195,-305 Q 670,3950 580,3940 L 390,3710 365,3555 q -20,-100 0,-245 l -15,-55 q 15,-370 15,-950 l -5,-280 h 20 l 10,-20 430,-80 v -10 h 40 l 5,-15 q -20,-90 -105,-215 20,-235 180,-620 160,-365 365,-690 L 1515,90 m 185,2170 -35,-65 -20,-40 -25,-45 -45,5 -10,5 h -15 -30 l -65,5 -150,-5 -735,95 -5,40 35,790 35,510 70,140 85,150 270,330 q 70,50 185,215 285,-130 420,-130 35,0 315,315 l 80,90 20,20 h 5 l 35,45 40,-25 195,-95 30,-20 75,-45 20,-25 v -5 l -5,-50 v -30 l -20,-275 -65,-295 q -75,-320 -185,-520 l -80,-320 -80,-125 -105,-215 -120,-210 -120,-215 m 1570,305 35,10 v 25 l -35,-35 M 2490,460 v -5 h -15 l 15,5 m -10,250 v -60 l -25,-20 -50,-45 -15,5 Q 2245,500 2045,440 L 1610,300 Q 990,1365 985,1655 l 15,50 35,60 30,40 55,85 15,40 v 5 10 h 15 q 100,100 520,115 l 60,90 135,255 115,200 15,35 q 170,290 260,335 l 45,75 70,-15 90,-30 25,-10 55,-495 60,-540 15,310 q -50,330 -65,755 l -60,35 q -45,25 -90,40 l -50,10 -5,5 175,310 15,25 120,155 160,185 95,100 30,-65 q 65,-155 80,-425 5,-130 55,-225 -45,-210 -175,-430 l -260,-430 -40,-625 -15,-230 -5,-45 q -40,-445 -85,-650 l -15,-55 m -100,3035 120,580 40,190 10,35 -50,45 -145,90 -190,95 75,85 70,90 q 120,145 370,295 l 175,100 330,35 30,-80 10,-35 30,-145 v -10 -15 -30 -95 -20 q -25,-200 -90,-365 l -95,-240 -95,-150 -15,-30 v -5 l -170,-220 q -310,-230 -445,-485 l 55,195 5,30 -25,60 m -730,725 -40,-10 q -180,0 -535,160 -355,160 -435,360 l 115,410 v 40 l 145,415 110,325 90,45 5,5 155,85 q 150,80 380,210 l 125,70 90,30 700,200 125,-95 130,-125 15,-20 -10,-130 q -35,-265 -130,-635 l -110,-430 -385,-425 -60,-60 -160,-165 -105,-95 -215,-165 m 1710,485 v -270 q 40,135 40,250 v 20 h -40 m -120,845 -60,-240 -375,-140 -160,-85 -10,15 120,410 q 0,170 95,535 l 55,195 -20,95 q -60,160 -220,255 l 175,30 10,30 55,10 315,-20 85,-5 20,-70 15,-45 -20,-720 -80,-250 m -1955,630 -165,-95 130,85 35,10"
     fill="#000000"
     fill-rule="evenodd"
     stroke="none"
     id="path26"
     style="stroke-width:100" />
  <path
     d="m 5805,3050 -175,-45 -180,-50 q -295,-90 -415,-280 l -15,-15 -10,-5 q -35,-75 -10,-250 l 195,-640 125,-240 245,-470 15,-30 10,10 35,-20 15,-5 v 5 l -5,5 -15,15 65,-25 h 150 15 l 90,25 320,185 260,140 75,35 q 45,65 30,115 v 15 10 l -30,80 -100,195 -165,510 -240,340 -285,390 m -145,-1730 10,-15 h -5 l -5,15 m 105,1755 -15,80 -35,55 -140,250 -5,-5 -25,45 -190,30 q -325,0 -510,-405 l -50,-105 q -95,-120 -130,-215 h 5 l -15,-20 155,-60 30,5 35,-10 100,45 5,-15 25,35 105,70 455,145 200,75 m -1890,60 40,-145 350,-80 115,-35 95,-40 50,-15 35,-10 65,65 q 80,85 265,360 l 180,275 190,50 145,-15 140,-20 -85,120 h -5 q -190,300 -245,300 -65,0 -405,-235 l -25,-15 30,-15 -50,15 -570,-370 q -180,-115 -315,-190 m -3170,560 -70,-140 -35,-510 -35,-790 5,-40 735,-95 150,5 65,-5 h 30 15 l 10,-5 45,-5 25,45 20,40 35,65 110,670 v 185 l 20,375 q 0,145 -325,175 -165,15 -345,0 h -150 l -305,30 m 295,-1990 -15,-50 q 5,-290 625,-1355 l 435,140 q 200,60 345,150 l 15,-5 50,45 25,20 v 60 l -295,790 -220,610 5,5 -225,-70 -655,-300 -90,-40 m 1940,2120 -30,65 -95,-100 -160,-185 -120,-155 -15,-25 -175,-310 5,-5 50,-10 q 45,-15 90,-40 l 170,310 5,10 165,260 110,185 m -1290,645 155,580 215,760 q -260,150 -505,245 l -415,160 -90,-45 -110,-325 -145,-415 v -40 L 640,4980 q 80,-200 435,-360 355,-160 535,-160 l 40,10"
     fill="#52524b"
     fill-rule="evenodd"
     stroke="none"
     id="path28"
     style="stroke-width:100" />
  <path
     d="m 5805,3050 285,-390 240,-340 -115,340 -25,70 -10,45 -100,245 -55,5 -155,45 -60,-15 -5,-5 m -40,25 20,5 35,15 v 5 l 140,55 15,50 10,25 -50,130 -75,30 -255,90 -60,20 25,-45 5,5 140,-250 35,-55 15,-80 m -1890,60 q 135,75 315,190 l 570,370 50,-15 -30,15 25,15 q 340,235 405,235 55,0 245,-300 h 5 l 85,-120 285,-70 20,10 10,35 -5,20 q -20,135 -80,275 l -30,65 10,10 q -90,245 -240,495 l -320,500 q -80,145 -110,290 -390,-85 -810,-620 -115,-140 -360,-950 l -15,-50 -80,-235 5,5 20,-60 25,-10 5,-10 v -65 l -5,-5 5,-20 m -3170,560 305,-30 h 150 q 180,15 345,0 325,-30 325,-175 l -20,-375 v -185 l -110,-670 120,215 120,210 105,215 80,125 80,320 q 110,200 185,520 l 65,295 20,275 v 30 l 5,50 v 5 l -20,25 -75,45 -30,20 -195,95 -40,25 -35,-45 h -5 l -20,-20 -80,-90 q -280,-315 -315,-315 -135,0 -420,130 -115,-165 -185,-215 L 790,3845 705,3695 m 295,-1990 90,40 655,300 225,70 -5,-5 220,-610 295,-790 15,55 q 45,205 85,650 l 5,45 15,230 40,625 260,430 q 130,220 175,430 -50,95 -55,225 -15,270 -80,425 l -110,-185 -165,-260 -5,-10 -170,-310 60,-35 q 15,-425 65,-755 l -15,-310 -60,540 -55,495 -25,10 -90,30 -70,15 -45,-75 q -90,-45 -260,-335 l -15,-35 -115,-200 -135,-255 -60,-90 q -420,-15 -520,-115 h -15 v -10 -5 l -15,-40 -55,-85 -30,-40 -35,-60 m 1380,2040 25,-60 -5,-30 -55,-195 q 135,255 445,485 l 170,220 v 5 l 15,30 95,150 95,240 q 65,165 90,365 v 20 95 30 15 10 l -30,145 -10,35 -30,80 -330,-35 -175,-100 q -250,-150 -370,-295 l -70,-90 -75,-85 190,-95 145,-90 50,-45 -10,-35 -40,-190 -120,-580 m -1280,2470 415,-160 q 245,-95 505,-245 l -215,-760 -155,-580 215,165 105,95 160,165 60,60 385,425 110,430 q 95,370 130,635 l 10,130 -15,20 -130,125 -125,95 -700,-200 -90,-30 -125,-70 q -230,-130 -380,-210 l -155,-85 -5,-5 m 2140,-415 80,250 20,720 -15,45 -20,70 -85,5 -315,20 -55,-10 -10,-30 -175,-30 q 160,-95 220,-255 l 20,-95 -55,-195 q -95,-365 -95,-535 l -120,-410 10,-15 160,85 375,140 60,240"
     fill="#2c2c27"
     fill-rule="evenodd"
     stroke="none"
     id="path30"
     style="stroke-width:100" />
  <defs
     id="defs44">
    <linearGradient
       gradientTransform="matrix(0.94,-3.38,1.47,0.41,-2345,-2530)"
       gradientUnits="userSpaceOnUse"
       id="gradient0"
       spreadMethod="pad"
       x1="-819.2"
       x2="819.2">
      <stop
         offset="0.0"
         stop-color="#635b58"
         id="stop34" />
      <stop
         offset="1.0"
         stop-color="#d3cebc"
         id="stop36" />
    </linearGradient>
    <linearGradient
       gradientTransform="matrix(0.76,-3.38,1.18,0.41,-1620,-2530)"
       gradientUnits="userSpaceOnUse"
       id="gradient1"
       spreadMethod="pad"
       x1="-819.2"
       x2="819.2">
      <stop
         offset="0.0"
         stop-color="#635b58"
         id="stop39" />
      <stop
         offset="1.0"
         stop-color="#d3cebc"
         id="stop41" />
    </linearGradient>
  </defs>
</svg>
