<?xml version="1.0" encoding="UTF-8" standalone="no"?>
<svg
   xmlns:dc="http://purl.org/dc/elements/1.1/"
   xmlns:cc="http://creativecommons.org/ns#"
   xmlns:rdf="http://www.w3.org/1999/02/22-rdf-syntax-ns#"
   xmlns:svg="http://www.w3.org/2000/svg"
   xmlns="http://www.w3.org/2000/svg"
   xmlns:sodipodi="http://sodipodi.sourceforge.net/DTD/sodipodi-0.dtd"
   xmlns:inkscape="http://www.inkscape.org/namespaces/inkscape"
   height="5140.0px"
   width="7825.0px"
   version="1.1"
   id="svg33"
   sodipodi:docname="1236.svg"
   inkscape:version="1.0.2-2 (e86c870879, 2021-01-15)">
  <metadata
     id="metadata37">
    <rdf:RDF>
      <cc:Work
         rdf:about="">
        <dc:format>image/svg+xml</dc:format>
        <dc:type
           rdf:resource="http://purl.org/dc/dcmitype/StillImage" />
      </cc:Work>
    </rdf:RDF>
  </metadata>
  <sodipodi:namedview
     pagecolor="#ffffff"
     bordercolor="#666666"
     borderopacity="1"
     objecttolerance="10"
     gridtolerance="10"
     guidetolerance="10"
     inkscape:pageopacity="0"
     inkscape:pageshadow="2"
     inkscape:window-width="1920"
     inkscape:window-height="1017"
     id="namedview35"
     showgrid="false"
     inkscape:zoom="0.13316294"
     inkscape:cx="3912.5"
     inkscape:cy="2570"
     inkscape:window-x="-8"
     inkscape:window-y="-8"
     inkscape:window-maximized="1"
     inkscape:current-layer="svg33" />
  <path
     d="m 5810,3350 -40,-30 -5,-40 -15,-40 -25,-60 -30,-65 -60,-115 -35,-70 -55,-95 -5,-10 -25,-40 q -90,-140 -135,-140 h -30 l -15,-20 -40,10 -15,205 -20,15 -25,225 q 0,350 210,1100 l 205,685 v 10 q 340,50 610,175 l -55,45 -40,15 -920,-40 -115,-10 h -10 l -535,-30 h -50 l -325,-15 -395,5 -295,-15 -340,15 v -5 l -170,-20 -75,5 -290,10 -840,75 h -20 -100 l -300,-5 h -90 l -65,5 -125,-125 -5,-10 -70,-125 -90,-160 -180,-310 -85,-155 5,-5 -5,-5 5,-5 -35,-5 -45,-5 -160,25 -30,-5 h -40 l -55,-95 -50,-100 -50,-80 -50,-100 v -10 L 40,3380 0,3200 5,3190 v -5 l 90,-150 115,-170 55,-100 5,-10 50,-85 v -105 -10 -10 -30 l -5,-220 v -115 l -5,-70 10,-10 v -5 l 120,-160 210,-280 5,-10 60,-95 90,-25 10,-5 40,-5 1410,-85 h -5 15 l -25,10 85,50 85,15 630,-80 65,-10 h 70 l 120,-10 135,-10 100,-10 20,-5 65,-20 300,-40 45,-5 690,-100 410,-30 h 85 l 225,-5 570,85 100,75 q 165,145 315,440 240,465 240,700 0,145 -15,265 l -30,190 q -20,30 -90,30 l -555,165 -115,30 175,245 110,90 60,50 250,135 260,125 -300,-75 -130,-55 -145,-140 h -5 l -95,-80 -130,-80 -40,-25 m -3160,-1440 15,-40 5,-15 h 5 l 45,-70 25,-30 160,-225 -175,10 -230,60 q -135,20 -210,0 l -95,20 -435,35 -200,15 -220,10 -5,5 -425,35 -55,-5 -145,190 -35,50 -70,95 -65,80 20,70 5,10 v 35 l 5,55 v 40 l 5,105 30,340 q 25,130 145,145 l 180,-5 120,5 h 230 l 385,-20 855,-80 v -40 l 30,-10 10,-10 5,-40 -5,-215 v -110 l 15,-35 45,-255 5,-45 20,-105 -20,15 v -5 l 25,-65 M 1125,2995 h -70 l -510,30 -45,-175 -10,20 -120,180 -15,20 -75,115 -25,35 70,175 10,35 95,315 45,115 35,50 q 55,80 150,90 l 205,10 265,5 h 105 l 275,-5 h 165 l 855,-60 140,-10 20,-120 q 0,-145 -70,-380 l -30,-100 -15,-160 -20,-140 85,-95 -15,-25 -30,-5 -5,-20 -390,55 -920,35 -155,10 m 1895,-1090 5,-45 10,-10 v -25 l 15,-105 20,-80 15,-85 60,-20 -135,-20 h -30 l -35,45 -10,10 -80,80 -80,120 -20,25 -50,100 -20,25 -15,10 -20,165 h 5 l -45,295 -5,25 -10,130 -5,265 5,-5 80,-10 10,20 h 15 l 125,-10 120,-15 65,-10 h 155 20 l 35,-5 110,-10 110,15 120,15 70,10 -70,-60 -65,-90 -55,-50 -220,-205 v -35 l -35,-25 -105,-90 -55,-45 -5,-95 -5,-5 v -5 -45 l 5,-150 m -205,990 h -10 l -110,25 h 5 l -80,80 -5,30 -15,5 5,20 80,465 q 30,220 80,300 l 15,70 v 20 h 5 l 5,20 h 25 l 130,-10 65,-5 70,5 h 105 l 35,-5 220,-5 h 120 90 l 660,-25 285,-60 25,-10 v -30 l 25,-45 5,-50 -5,-30 -5,-55 v 5 -155 l -10,-45 v -25 -10 l -10,-85 -5,-280 -20,-10 v -10 q 0,-65 -65,-65 l -55,5 -20,-25 -195,-5 -75,5 -280,-30 h -10 l -120,-5 -55,5 -10,-10 -150,-5 -120,-5 h -220 l -35,5 h -175 l -65,15 -130,20 M 5480,1885 q -40,-75 -145,-170 l -80,-70 -170,-125 -280,-185 -65,-35 -200,30 -680,105 -65,15 -30,15 -160,10 -10,5 -35,5 -120,25 -220,50 v 10 h -15 l -20,5 -5,20 -10,5 5,-10 -20,40 v 5 20 l -15,60 -15,135 q -10,195 20,260 l 15,15 v 10 l 25,45 20,20 15,20 v 40 l 35,40 175,205 10,5 120,120 40,40 q 105,65 160,80 l 25,5 165,-15 220,-35 345,-70 85,-20 85,-20 530,-125 70,-20 85,-15 15,-5 h 5 l 20,-25 v -30 q 105,-70 105,-305 l -20,-85 v -40 -15 l -15,-45 m 875,-60 -105,-150 q -195,-270 -360,-360 l -120,-45 h -15 l -25,-20 -360,45 -245,20 -190,-10 q -5,50 85,105 l 40,20 70,55 45,35 5,5 95,100 75,80 165,145 35,30 30,25 v 10 l -5,105 q -15,165 -70,325 l -10,55 v -35 l -10,140 v 5 l 15,20 15,50 30,45 20,30 10,40 -25,-30 25,40 35,55 55,125 30,75 35,95 40,55 85,-20 180,-35 335,-90 q 100,0 145,-60 45,-220 45,-425 0,-240 -120,-495 l -75,-140 -10,-20 M 4095,2835 h -20 l 110,-15 80,15 145,5 15,10 180,-20 5,-20 h -15 v -15 q 0,-50 -20,-40 l -90,15 v -10 l -190,45 -155,20 -45,10 m 1265,1240 -55,-230 Q 5185,3350 5205,2830 l 20,-15 10,-180 -30,-5 -525,90 v 5 l -20,10 q -20,75 0,140 l -80,25 5,5 65,25 v 380 l 10,75 10,125 15,160 5,75 20,70 v 25 l -20,5 v 15 h -10 -10 l -100,20 5,5 h -10 l -15,5 h -10 -10 l 55,10 v 5 l 95,10 45,55 50,110 75,180 40,70 170,360 q 25,75 190,85 95,10 125,70 h 40 l 65,-5 v -50 h 5 l 50,-10 10,-10 -180,-675 v -10 l -5,-10 m 1025,-1150 5,5 -5,-5 h -5 5 M 920,4190 v 10 l -5,5 -5,10 130,165 5,15 225,370 5,5 q 65,85 175,105 l 25,5 190,-5 40,5 545,-35 595,-35 100,-10 65,-5 110,5 25,5 h 75 v -30 h 15 v -10 l -10,-40 v -5 l -5,-10 v -55 l 20,40 15,35 30,70 h 55 115 l 780,45 385,-5 305,-5 q 70,-20 90,-50 l 5,-30 -45,-145 -90,-210 -80,-180 -110,-125 -50,-55 -35,-30 -30,-20 -75,-30 -105,-20 -70,10 -50,5 -410,20 h -310 -120 l -220,5 v -5 l -35,5 -160,-5 v 10 l -15,20 -5,5 150,410 20,65 10,30 25,45 10,25 v 60 l -30,-45 v -5 l -5,-5 -5,-15 -55,-105 -15,-35 v -35 l -10,-20 -55,-160 -30,-115 -5,-5 -10,-25 -5,-35 -15,5 -25,-55 h -10 l -165,20 h -25 l -15,10 -40,-5 -75,5 h -50 l -530,45 -175,20 h -30 l -160,5 -50,-5 h -5 l -70,5 -290,5 -315,10 -30,85"
     fill="#000000"
     fill-rule="evenodd"
     stroke="none"
     id="path18"
     style="stroke-width:100" />
  <path
     d="m 605,2050 70,-95 35,-50 145,-190 55,5 425,-35 5,-5 220,-10 200,-15 435,-35 95,-20 q 75,20 210,0 l 230,-60 175,-10 -160,225 -25,30 -45,70 h -5 l -5,15 -15,40 -1080,75 -965,65 m -325,1135 75,-115 15,-20 120,-180 10,-20 45,175 510,-30 h 70 55 l 180,130 -765,40 -315,20 m 2405,-1265 20,-25 50,-100 20,-25 80,-120 80,-80 10,-10 35,-45 h 30 l 135,20 -60,20 -15,85 -20,80 -15,105 v 25 l -10,10 -5,45 v -20 h -10 l -65,5 -260,30 m 1075,830 q -55,-15 -160,-80 l -40,-40 -120,-120 -10,-5 -175,-205 -35,-40 v -40 l -15,-20 -20,-20 -25,-45 v -10 l -15,-15 q -30,-65 -20,-260 l 15,-135 15,-60 v -20 -5 l 20,-40 -5,10 10,-5 5,-20 20,-5 h 15 v -10 l 220,-50 120,-25 35,-5 10,-5 160,-10 30,-15 65,-15 680,-105 200,-30 65,35 280,185 170,125 80,70 q 105,95 145,170 l -5,-5 -360,90 q -970,245 -1180,245 l -65,-10 h -55 l -15,55 q 25,50 -35,325 l -5,165 m 1790,-870 -35,-30 -165,-145 -75,-80 -95,-100 -5,-5 -45,-35 -70,-55 -40,-20 q -90,-55 -85,-105 l 190,10 245,-20 360,-45 25,20 h 15 l 120,45 q 165,90 360,360 l 105,150 -305,-35 q -245,0 -500,90 m -3925,2205 -705,105 30,-85 315,-10 290,-5 70,-5"
     fill="#52524b"
     fill-rule="evenodd"
     stroke="none"
     id="path20"
     style="stroke-width:100" />
  <path
     d="m 6225,3675 350,370 -15,15 -480,-360 q -380,-300 -435,-300 l -45,30 -50,30 q -95,0 -35,-95 55,-85 135,-95 h 10 l 30,5 20,5 100,70 40,25 130,80 95,80 h 5 l 145,140 M 605,2050 l 965,-65 1080,-75 -25,65 v 5 l 20,-15 -20,105 -5,45 -45,255 -15,35 v 110 l 5,215 -5,40 -10,10 -30,10 v 40 l -855,80 -385,20 h -230 l -120,-5 -180,5 Q 630,2915 605,2785 l -30,-340 -5,-105 v -40 l -5,-55 v -35 l -5,-10 -20,-70 65,-80 m 520,945 155,-10 920,-35 390,-55 5,20 30,5 15,25 -85,95 20,140 15,160 30,100 q 70,235 70,380 l -20,120 -140,10 -855,60 h -165 l -275,5 h -105 l -265,-5 -205,-10 q -95,-10 -150,-90 l -35,-50 -45,-115 -95,-315 -10,-35 -70,-175 25,-35 315,-20 765,-40 -180,-130 h -55 m 1895,-1090 -5,150 v 45 5 l 5,5 5,95 55,45 105,90 35,25 v 35 l 220,205 55,50 65,90 70,60 -70,-10 -120,-15 -110,-15 -110,10 -35,5 h -20 -155 l -65,10 -120,15 -125,10 h -15 l -10,-20 -80,10 -5,5 5,-265 10,-130 5,-25 45,-295 h -5 l 20,-165 15,-10 260,-30 65,-5 h 10 v 20 m -205,990 130,-20 65,-15 h 175 l 35,-5 h 220 l 120,5 150,5 10,10 55,-5 120,5 h 10 l 280,30 75,-5 195,5 20,25 55,-5 q 65,0 65,65 v 10 l 20,10 5,280 10,85 v 10 25 l 10,45 v 155 -5 l 5,55 5,30 -5,50 -25,45 v 30 l -25,10 -285,60 -660,25 h -90 -120 l -220,5 -35,5 h -105 l -70,-5 -65,5 -130,10 h -25 l -5,-20 h -5 v -20 l -15,-70 q -50,-80 -80,-300 l -80,-465 -5,-20 15,-5 5,-30 80,-80 h -5 l 110,-25 h 10 m 2665,-1010 15,45 v 15 40 l 20,85 q 0,235 -105,305 v 30 l -20,25 h -5 l -15,5 -85,15 -70,20 -530,125 -85,20 -85,20 -345,70 -220,35 -165,15 -25,-5 5,-165 q 60,-275 35,-325 l 15,-55 h 55 l 65,10 q 210,0 1180,-245 l 360,-90 5,5 m 70,-5 q 255,-90 500,-90 l 305,35 10,20 75,140 q 120,255 120,495 0,205 -45,425 -45,60 -145,60 l -335,90 -180,35 -85,20 -40,-55 -35,-95 -30,-75 -55,-125 -35,-55 -25,-40 25,30 -10,-40 -20,-30 -30,-45 -15,-50 -15,-20 v -5 l 10,-140 v 35 l 10,-55 q 55,-160 70,-325 l 5,-105 v -10 l -30,-25 m -1455,955 45,-10 155,-20 190,-45 v 10 l 90,-15 q 20,-10 20,40 v 15 h 15 l -5,20 -180,20 -15,-10 -145,-5 -80,-15 -110,15 h 20 m 1385,1955 q -115,0 -110,-60 l 25,-100 q 0,-150 -130,-520 -130,-370 -130,-540 l 15,-40 q 110,215 210,545 l 5,10 v 10 l 180,675 -10,10 -50,10 h -5 m 905,-1865 h -5 5 l 5,5 -5,-5 M 1625,4085 h 5 l 50,5 160,-5 h 30 l 175,-20 530,-45 h 50 l 75,-5 40,5 15,-10 h 25 l 165,-20 h 10 l 25,55 15,-5 5,35 10,25 5,5 30,115 55,160 10,20 v 35 l 15,35 55,105 5,15 5,5 v 5 l 30,45 v -60 l -10,-25 -25,-45 -10,-30 -20,-65 -150,-410 5,-5 15,-20 v -10 l 160,5 35,-5 v 5 l 220,-5 h 120 310 l 410,-20 50,-5 70,-10 105,20 75,30 30,20 35,30 50,55 110,125 80,180 90,210 45,145 -5,30 q -20,30 -90,50 l -305,5 -385,5 -780,-45 h -115 -55 l -30,-70 -15,-35 -20,-40 v 55 l 5,10 v 5 l 10,40 v 10 h -15 v 30 h -75 l -25,-5 -110,-5 -65,5 -100,10 -595,35 -545,35 -40,-5 -190,5 -25,-5 q -110,-20 -175,-105 l -5,-5 -225,-370 -5,-15 -130,-165 5,-10 5,-5 v -10 l 705,-105"
     fill="#2c2c27"
     fill-rule="evenodd"
     stroke="none"
     id="path22"
     style="stroke-width:100" />
  <defs
     id="defs31">
    <linearGradient
       gradientTransform="matrix(0.94,-3.38,1.47,0.41,4665,-8650)"
       gradientUnits="userSpaceOnUse"
       id="gradient0"
       spreadMethod="pad"
       x1="-819.2"
       x2="819.2">
      <stop
         offset="0.0"
         stop-color="#635b58"
         id="stop26" />
      <stop
         offset="1.0"
         stop-color="#d3cebc"
         id="stop28" />
    </linearGradient>
  </defs>
</svg>
