<?xml version="1.0" encoding="UTF-8" standalone="no"?>
<svg
   xmlns:dc="http://purl.org/dc/elements/1.1/"
   xmlns:cc="http://creativecommons.org/ns#"
   xmlns:rdf="http://www.w3.org/1999/02/22-rdf-syntax-ns#"
   xmlns:svg="http://www.w3.org/2000/svg"
   xmlns="http://www.w3.org/2000/svg"
   xmlns:sodipodi="http://sodipodi.sourceforge.net/DTD/sodipodi-0.dtd"
   xmlns:inkscape="http://www.inkscape.org/namespaces/inkscape"
   height="5880.0px"
   width="7690.0px"
   version="1.1"
   id="svg35"
   sodipodi:docname="1250.svg"
   inkscape:version="1.0.2-2 (e86c870879, 2021-01-15)">
  <metadata
     id="metadata39">
    <rdf:RDF>
      <cc:Work
         rdf:about="">
        <dc:format>image/svg+xml</dc:format>
        <dc:type
           rdf:resource="http://purl.org/dc/dcmitype/StillImage" />
      </cc:Work>
    </rdf:RDF>
  </metadata>
  <sodipodi:namedview
     pagecolor="#ffffff"
     bordercolor="#666666"
     borderopacity="1"
     objecttolerance="10"
     gridtolerance="10"
     guidetolerance="10"
     inkscape:pageopacity="0"
     inkscape:pageshadow="2"
     inkscape:window-width="1920"
     inkscape:window-height="1017"
     id="namedview37"
     showgrid="false"
     inkscape:zoom="0.13550065"
     inkscape:cx="3845"
     inkscape:cy="2940"
     inkscape:window-x="-8"
     inkscape:window-y="-8"
     inkscape:window-maximized="1"
     inkscape:current-layer="svg35" />
  <path
     d="m 5515,3270 -50,-30 -40,-15 -55,15 h -15 l -35,5 -40,25 -70,30 -55,35 -365,110 -325,85 25,130 50,240 -40,20 -225,60 -115,30 225,-20 h 40 l 80,-5 5,10 10,10 v 10 l 10,10 q 130,335 185,375 l 140,240 130,220 -25,25 -35,20 290,-35 h 130 q 105,15 105,95 l -350,70 q -480,95 -1000,300 -405,165 -660,240 l -200,55 -265,95 -210,35 -460,55 -440,65 v -5 l -245,-215 -365,-335 q -60,-65 -120,-190 l -30,-70 60,-360 5,-20 20,-25 145,-5 425,-95 210,-45 110,-45 h -25 -110 l -115,15 -250,10 -545,-15 -540,-5 v -5 L 310,4210 65,3810 5,3600 l -5,-75 235,-370 15,-15 35,-25 175,20 530,-35 480,-30 -525,-115 -525,-115 h -5 l -125,-320 -165,-485 -20,-175 5,-70 10,-80 305,-365 15,-25 40,-5 170,45 520,75 785,90 880,85 85,10 h 100 v 15 l 1005,100 440,35 5,30 -5,40 h 5 l -5,5 5,25 h -10 l 10,20 255,-195 95,-25 q 100,-35 330,-145 110,-50 270,-205 l 50,10 -80,60 -515,475 -40,30 -25,80 30,60 50,30 35,15 -10,10 15,10 325,330 70,80 10,15 75,100 20,30 10,50 -15,100 -15,20 -5,35 -15,145 -5,40 45,55 120,15 h 20 l 150,-25 180,-35 335,-90 q 100,0 145,-60 45,-220 45,-425 0,-240 -120,-495 l -75,-140 -115,-170 q -145,-205 -280,-305 l 120,10 15,10 q 135,140 260,390 240,465 240,700 0,145 -15,265 l -30,190 q -20,30 -90,30 l -555,165 -135,35 -100,30 185,130 q 120,80 220,170 l 60,50 250,135 260,125 -300,-75 -130,-55 -210,-195 -165,-105 -140,-95 -20,-5 -30,-5 h -10 m -3055,-1200 25,-60 v 5 l 60,-130 115,-190 -875,-35 -380,-30 -400,-45 -395,-40 -60,-5 -60,20 -75,95 -135,205 -5,10 35,140 25,80 85,295 110,295 55,40 525,115 795,120 115,20 185,20 120,5 85,-5 20,-15 v -5 l -15,-60 20,-790 25,-55 m 530,25 590,-40 495,-70 345,-60 10,-60 q 0,-50 -75,-85 l -820,-45 -360,-35 h -340 -120 l -95,160 -125,200 -15,25 -15,650 q -15,140 20,190 l 35,40 15,20 -5,5 h 15 l 70,5 -75,-60 35,-235 65,-460 10,-45 v -10 l 10,-30 v -10 l 10,-35 135,-10 h 5 l 90,-10 h 15 l 40,5 h 10 25 m 2370,530 q -65,-160 -300,-360 l -260,-210 -130,-30 -235,65 -35,10 -690,85 -265,35 -250,20 -275,-10 q -110,5 -105,85 h -5 l -40,10 -40,220 q -55,245 -45,390 l 90,65 100,75 30,25 q 370,265 705,360 h 40 l 15,5 120,20 65,-5 580,-80 15,-5 85,-15 345,-75 q 70,-50 180,-90 85,-50 170,-70 l 10,-10 10,-5 10,-25 v -10 q 125,-230 125,-350 l -15,-95 -5,-25 m -935,-700 10,-5 -5,-20 -5,25 m -2015,1525 105,565 q 10,135 55,175 l 60,45 -5,5 15,-5 115,-15 65,-10 h 15 l 430,-65 545,-120 505,-125 115,-15 -5,-10 q 30,-10 35,-45 l -10,-50 v -245 l -660,100 -40,5 -390,-155 -80,-40 -120,-75 -20,-10 -405,-280 h -10 l -155,5 -60,135 -100,225 v 5 m 2125,660 -5,-25 q -35,-65 -70,-45 l -20,5 v -5 l -330,20 -10,-15 -95,10 -270,70 -45,10 -45,10 -135,30 -455,155 q 10,50 5,150 l 5,220 95,160 200,355 110,150 30,15 575,-215 q 305,-120 550,-185 l 170,-95 90,-30 -5,-5 q 20,-20 10,-45 l -25,-45 q -35,-130 -205,-430 l -40,-45 -5,-10 -50,-80 -5,-15 -25,-70 m -1480,650 -10,-20 -20,-100 10,10 -20,-125 v -185 l -680,225 -305,80 -325,80 -315,80 -40,10 -30,30 -20,105 -5,195 40,45 95,105 10,10 20,20 185,190 230,200 60,25 440,-65 520,-90 545,-185 -30,-30 -355,-610 M 2400,3390 v -15 5 l 40,-125 75,-170 -160,5 -715,105 -385,35 -410,35 -395,35 -55,5 -50,25 -65,100 -65,140 -35,70 10,15 55,110 30,60 140,250 165,240 65,30 h 530 l 820,-30 h 115 l 310,-30 85,-20 20,-20 -25,-55 -125,-700 25,-100"
     fill="#000000"
     fill-rule="evenodd"
     stroke="none"
     id="path18"
     style="stroke-width:100" />
  <path
     d="m 5470,1330 280,30 85,10 q 135,100 280,305 l 115,170 -15,10 -300,310 q -190,180 -300,210 -65,60 -290,135 l -70,-80 -325,-330 -15,-10 10,-10 -35,-15 -50,-30 -30,-60 25,-80 40,-30 515,-475 80,-60 m -5190,530 135,-205 75,-95 60,-20 60,5 395,40 400,45 380,30 875,35 -115,190 -60,130 v -5 l -25,60 -850,-40 -905,-140 -400,-65 -25,35 m 2215,200 125,-200 95,-160 h 120 340 l 360,35 820,45 q 75,35 75,85 l -10,60 -345,60 -495,70 -590,40 h -35 l -40,-5 -420,-30 m 1170,1405 -15,-5 h -40 q -335,-95 -705,-360 l -30,-25 -100,-75 -90,-65 q -10,-145 45,-390 l 40,-220 40,-10 h 5 q -5,-80 105,-85 l 275,10 250,-20 265,-35 690,-85 35,-10 235,-65 130,30 260,210 q 235,200 300,360 l -40,-70 -430,90 q -900,195 -1005,195 l -45,-15 q -20,-5 -80,45 30,135 -75,515 l -20,80 m -525,-105 -690,85 -40,5 v -5 l 100,-225 60,-135 155,-5 h 10 l 405,280 m -75,1340 -5,-220 q 5,-100 -5,-150 l 455,-155 135,-30 45,-10 45,-10 270,-70 95,-10 10,15 330,-20 v 5 l 20,-5 q 35,-20 70,45 l 5,25 -760,330 -710,260 m -1730,490 -40,-45 5,-195 20,-105 30,-30 40,-10 315,-80 325,-80 305,-80 680,-225 v 185 l 20,125 -10,-10 20,100 10,20 -710,205 -870,190 -165,5 25,30 M 215,3570 l 65,-140 65,-100 50,-25 55,-5 395,-35 410,-35 385,-35 715,-105 160,-5 -75,170 -40,125 v -5 15 L 565,3605 215,3570"
     fill="#52524b"
     fill-rule="evenodd"
     stroke="none"
     id="path22"
     style="stroke-width:100" />
  <path
     d="m 6090,3675 350,370 -15,15 -480,-360 q -380,-300 -435,-300 l -45,30 -50,30 q -95,0 -35,-95 55,-85 135,-95 h 10 l 30,5 20,5 140,95 165,105 210,195 M 280,1860 l 25,-35 400,65 905,140 850,40 -25,55 -20,790 15,60 v 5 l -20,15 -85,5 -120,-5 -185,-20 -115,-20 -795,-120 -525,-115 -55,-40 -110,-295 -85,-295 -25,-80 -35,-140 5,-10 m 2215,200 420,30 h -15 l -90,10 h -5 l -135,10 -10,35 v 10 l -10,30 v 10 l -10,45 -65,460 -35,235 75,60 -70,-5 h -15 l 5,-5 -15,-20 -35,-40 q -35,-50 -20,-190 l 15,-650 15,-25 m 460,35 h 35 -25 -10 m 710,1370 20,-80 q 105,-380 75,-515 60,-50 80,-45 l 45,15 q 105,0 1005,-195 l 430,-90 40,70 5,25 15,95 q 0,120 -125,350 v 10 l -10,25 -10,5 -10,10 q -85,20 -170,70 -110,40 -180,90 l -345,75 -85,15 -15,5 -580,80 -65,5 -120,-20 m 1660,-955 q 225,-75 290,-135 110,-30 300,-210 l 300,-310 15,-10 75,140 q 120,255 120,495 0,205 -45,425 -45,60 -145,60 l -335,90 -180,35 -150,25 h -20 l -120,-15 -45,-55 5,-40 15,-145 5,-35 15,-20 15,-100 -10,-50 -20,-30 -75,-100 -10,-15 m -2185,850 20,10 120,75 80,40 390,155 40,-5 660,-100 v 245 l 10,50 q -5,35 -35,45 l 5,10 -115,15 -505,125 -545,120 -430,65 h -15 l -65,10 -115,15 -15,5 5,-5 -60,-45 q -45,-40 -55,-175 l -105,-565 40,-5 690,-85 m -75,1340 710,-260 760,-330 25,70 5,15 50,80 5,10 40,45 q 170,300 205,430 l 25,45 q 10,25 -10,45 l 5,5 -90,30 -170,95 q -245,65 -550,185 l -575,215 -30,-15 -110,-150 -200,-355 -95,-160 m -1730,490 -25,-30 165,-5 870,-190 710,-205 355,610 30,30 -545,185 -520,90 -440,65 -60,-25 -230,-200 -185,-190 -20,-20 -10,-10 -95,-105 m 1065,-1800 -25,100 125,700 25,55 -20,20 -85,20 -310,30 h -115 l -820,30 H 645 l -65,-30 -165,-240 -140,-250 -30,-60 -55,-110 -10,-15 35,-70 350,35 1835,-215"
     fill="#2c2c27"
     fill-rule="evenodd"
     stroke="none"
     id="path24"
     style="stroke-width:100" />
  <defs
     id="defs33">
    <linearGradient
       gradientTransform="matrix(0.94,-3.38,1.47,0.41,3825,-7135)"
       gradientUnits="userSpaceOnUse"
       id="gradient0"
       spreadMethod="pad"
       x1="-819.2"
       x2="819.2">
      <stop
         offset="0.0"
         stop-color="#635b58"
         id="stop28" />
      <stop
         offset="1.0"
         stop-color="#d3cebc"
         id="stop30" />
    </linearGradient>
  </defs>
</svg>
