<?xml version="1.0" encoding="UTF-8" standalone="no"?>
<svg
   xmlns:dc="http://purl.org/dc/elements/1.1/"
   xmlns:cc="http://creativecommons.org/ns#"
   xmlns:rdf="http://www.w3.org/1999/02/22-rdf-syntax-ns#"
   xmlns:svg="http://www.w3.org/2000/svg"
   xmlns="http://www.w3.org/2000/svg"
   xmlns:sodipodi="http://sodipodi.sourceforge.net/DTD/sodipodi-0.dtd"
   xmlns:inkscape="http://www.inkscape.org/namespaces/inkscape"
   height="6465.0px"
   width="9355.0px"
   version="1.1"
   id="svg46"
   sodipodi:docname="1264.svg"
   inkscape:version="1.0.2-2 (e86c870879, 2021-01-15)">
  <metadata
     id="metadata50">
    <rdf:RDF>
      <cc:Work
         rdf:about="">
        <dc:format>image/svg+xml</dc:format>
        <dc:type
           rdf:resource="http://purl.org/dc/dcmitype/StillImage" />
      </cc:Work>
    </rdf:RDF>
  </metadata>
  <sodipodi:namedview
     pagecolor="#ffffff"
     bordercolor="#666666"
     borderopacity="1"
     objecttolerance="10"
     gridtolerance="10"
     guidetolerance="10"
     inkscape:pageopacity="0"
     inkscape:pageshadow="2"
     inkscape:window-width="1920"
     inkscape:window-height="1017"
     id="namedview48"
     showgrid="false"
     inkscape:zoom="0.11138429"
     inkscape:cx="4677.5"
     inkscape:cy="3232.5"
     inkscape:window-x="-8"
     inkscape:window-y="-8"
     inkscape:window-maximized="1"
     inkscape:current-layer="svg46" />
  <path
     d="m 1945,285 295,-20 350,-30 165,15 h 145 l 65,10 h 35 l 55,-5 475,-5 60,5 15,-10 310,10 115,-25 q 55,-20 85,-50 70,25 85,80 -35,35 -70,35 l -290,25 v 5 l -125,95 15,5 140,10 140,15 365,60 120,20 115,20 90,25 30,-15 40,50 85,495 5,200 -225,675 -15,25 -1120,-35 45,45 20,45 670,55 125,-5 140,45 v -5 l 5,10 40,60 5,15 h -20 l 35,35 -15,5 q 30,150 45,335 v 85 q 0,190 -25,360 l -30,215 -60,180 h 5 l -25,55 -80,50 -115,55 -520,-15 h -250 l 20,5 q 250,35 295,65 l -75,55 20,10 450,10 h 95 l 5,20 115,215 q 95,200 105,275 l 50,395 155,5 140,20 140,20 v -75 q 0,-105 -35,-420 l -35,-345 q 0,-640 510,-1620 355,-675 640,-1020 l -570,1025 q -540,1060 -540,1460 0,190 40,500 l 40,410 v 80 l 75,15 h 5 l 385,-815 130,-280 20,5 525,-315 q 545,-310 660,-310 h 15 l 485,280 145,75 q 60,300 210,860 l 65,220 -130,470 -60,170 -45,135 -80,150 v 25 l -30,25 -50,100 -15,10 -100,70 h -15 q -940,890 -1140,890 l -275,-65 -60,-15 h -5 l -30,-5 -430,-50 -70,-10 -15,-5 -345,-45 -670,-110 -40,-10 -70,-10 -160,-45 -345,-70 -5,-5 -20,-5 -165,-45 -205,-45 5,-20 q -45,-30 -45,-370 l -25,-145 -5,-30 -130,-25 -275,-20 -440,-20 -495,-20 -150,-15 h -130 -95 l -840,-90 -255,-65 v -5 l -45,-50 -15,-120 10,-50 10,10 -10,-45 25,-335 45,-705 5,-10 45,-45 115,-110 50,-35 -510,-85 -5,-15 -45,-300 25,-815 q 80,-185 165,-435 l 40,-135 30,-35 h 5 l 230,-10 15,5 85,-10 h 10 40 l 395,20 -10,-40 -20,-200 10,-120 20,-295 q 35,-415 155,-790 l 750,-60 m 1265,225 q -30,0 -50,-20 l -235,-5 h -170 l -490,-10 -190,-5 -650,70 -30,5 q -120,360 -195,810 v 30 l 10,50 60,320 30,55 15,45 110,-5 h 340 50 90 95 130 l 295,10 570,20 5,-45 35,5 40,-90 q 40,-115 110,-425 105,-495 90,-625 l -5,-20 5,-20 v -15 l -10,-100 -5,-10 h -5 l -10,-5 -35,-20 m 140,-25 h -10 -20 l 10,30 15,15 v 10 l 10,10 10,20 -10,15 -5,5 h -5 v -5 h -5 v 5 l -175,995 v 25 q 15,95 -35,245 l -15,35 205,5 v 5 h 60 l 335,20 900,30 100,-265 90,-225 -30,-630 -35,-180 -30,-35 h -10 v -5 l -5,15 q -85,-65 -505,-100 l -520,-40 -40,5 -135,-10 -15,-5 -130,10 m -2550,1500 -255,5 -5,-15 h -55 l -145,185 -15,45 -5,5 q -115,255 -135,525 20,435 75,620 l 80,5 140,5 885,65 975,85 275,-35 h 45 v -10 l 10,-20 35,-5 q 80,5 105,-90 l 5,-70 5,-15 v -80 l 20,-110 v -45 l 10,110 -5,95 -25,85 -5,30 5,35 30,55 10,-5 5,20 v 10 l 10,-5 h 5 v 15 l 15,5 20,5 h 10 v 20 l 30,5 h 5 l 140,10 280,10 v 5 h 75 40 275 l 530,-25 60,-5 h 55 l 25,-55 v -5 l 15,5 q 80,-435 75,-755 30,-210 -20,-305 40,-140 -15,-180 l -115,-35 -245,-20 h -45 l -720,-35 h -5 l -495,-10 -10,40 -15,10 h -10 v 10 l 25,70 -30,55 -10,-25 -20,-40 -30,-60 h -15 -15 -5 l -20,-15 -10,-5 h -10 l -1010,-65 -665,-75 -180,-20 h -5 l -35,-10 m 2065,110 v -10 h -5 l 5,10 m -25,500 10,-160 5,-35 -15,600 -15,-140 10,-145 5,-120 m 1615,-425 35,35 q 10,-25 -20,-40 -10,10 -15,5 m -725,3655 50,25 720,150 h 15 l 10,5 180,30 135,25 h 50 l 285,55 h 15 l 275,55 h 5 l 50,10 95,10 10,-60 h 10 l -60,-255 -120,-515 h 30 l 30,40 85,545 85,230 30,25 55,5 h 10 l 5,-5 h 5 l 10,5 h 10 30 l 15,-10 90,10 -5,5 90,5 90,5 90,-30 80,-55 q 130,-145 450,-395 l 40,-30 235,-230 -295,10 -610,-90 -135,-25 -135,-50 v -15 l 680,110 q 360,45 615,10 l 60,-40 45,-40 20,-10 15,-10 140,-290 195,-370 q -30,-370 -150,-820 l -70,-340 -75,-215 -10,10 -5,-55 -190,-85 -250,-105 -120,40 q -220,60 -655,310 -420,235 -505,380 l -5,5 v 10 l -5,10 h -5 l -55,135 40,-60 -260,640 -75,160 110,-10 225,-20 q 210,-80 310,-80 h 30 l 190,-15 265,35 95,45 q 390,180 585,395 -30,10 -70,50 -125,-195 -305,-305 l -110,-65 -155,-80 v 5 l -25,25 -130,-40 -195,-25 h -95 l -55,5 -280,45 v -5 l -25,10 -5,5 v 25 l -85,35 -125,75 100,95 100,95 160,160 10,5 105,105 -45,10 -120,-120 -15,-20 -100,-120 5,-10 -25,-5 q -105,-90 -255,-155 l -35,-15 -65,-20 -30,-10 -20,-5 -60,-15 -15,-5 -45,-10 -435,-35 h -30 -105 l -265,15 -320,-85 -100,-20 360,-5 425,15 -5,-25 -50,-260 -5,-90 q -35,-230 -105,-335 l -50,-45 -40,-130 -20,10 q -10,-30 -25,-25 l -755,25 15,15 h -60 -40 l -450,20 -40,-15 55,265 95,370 20,105 75,245 -35,60 -5,15 -10,10 -160,200 -25,20 q 5,-5 15,5 l -30,35 60,20 40,5 h 85 10 20 l 210,5 80,15 545,30 365,-5 h 55 q 140,20 180,50 l -100,40 q 55,25 60,40 l -250,35 -300,-55 -90,-15 -45,-5 -245,-20 q -90,0 -140,40 v 5 l -45,115 v 5 l 5,25 -10,70 -5,105 v 10 l 5,25 q 65,35 195,115 l 135,50 m -695,-945 10,-15 40,-90 v -5 l 15,-20 -10,-10 q 20,-100 -25,-200 l -40,-95 -45,-195 -50,-200 -15,-95 v -10 q 0,-35 -45,-100 l -15,-5 v -5 l -15,-50 -10,-5 v 5 l -260,-40 -545,-10 -50,-5 -55,-15 -15,-5 -425,-50 v 5 l -325,-45 -165,-20 -40,-10 -5,5 -75,45 -15,25 -135,95 -95,110 -25,95 -45,195 5,120 -30,595 15,60 935,115 30,-5 495,15 490,40 5,-5 145,5 140,-20 35,-30 h 40 q 90,-60 155,-155 l 20,-15"
     fill="#000000"
     fill-rule="evenodd"
     stroke="none"
     id="path2"
     style="stroke-width:100" />
  <path
     d="m 1425,1850 -110,5 -15,-45 -30,-55 -60,-320 -10,-50 v -30 q 75,-450 195,-810 l 30,-5 650,-70 190,5 490,10 h 170 l 235,5 q 20,20 50,20 h -230 l -170,15 h -25 l -665,35 -315,-10 q -190,5 -270,70 -110,100 -130,785 -10,280 20,445 m 1235,1620 v 10 h -45 l -275,35 -975,-85 -885,-65 -140,-5 -80,-5 q -55,-185 -75,-620 20,-270 135,-525 l 5,-5 15,-45 145,-185 h 55 l 5,15 255,-5 q 15,80 15,260 l -20,260 q -95,125 -90,425 l 20,280 q 10,160 1935,260 m 1070,2355 -135,-50 q -130,-80 -195,-115 l -5,-25 v -10 l 5,-105 10,-70 -5,-25 v -5 l 45,-115 v -5 q 50,-40 140,-40 l 245,20 -35,105 -70,440 m 650,-635 h -55 l -365,5 -545,-30 -80,-15 -210,-5 h -20 -10 -85 l -40,-5 -60,-20 30,-35 q -10,-10 -15,-5 l 25,-20 155,-120 -10,10 45,15 15,5 35,-15 110,-25 275,20 490,25 65,-10 10,5 35,15 q 485,40 610,105 -45,35 -205,70 l -200,30 M 950,3590 v 55 l 20,480 -25,655 560,15 495,35 180,15 675,25 180,10 -20,15 q -65,95 -155,155 h -40 l -35,30 -140,20 -145,-5 -5,5 -490,-40 -495,-15 -30,5 -935,-115 -15,-60 30,-595 -5,-120 45,-195 25,-95 95,-110 135,-95 15,-25 75,-45 5,-5"
     fill="#52524b"
     fill-rule="evenodd"
     stroke="none"
     id="path4"
     style="stroke-width:100" />
  <path
     d="m 3210,510 35,20 10,5 h 5 l 5,10 10,100 v 15 l -5,20 5,20 q 15,130 -90,625 -70,310 -110,425 l -40,90 -35,-5 -5,45 -570,-20 -295,-10 h -130 -95 -90 -50 -340 q -30,-165 -20,-445 20,-685 130,-785 80,-65 270,-70 l 315,10 665,-35 h 25 l 170,-15 h 230 m 140,-25 130,-10 15,5 135,10 40,-5 520,40 q 420,35 505,100 l 5,-15 v 5 h 10 l 30,35 35,180 30,630 -90,225 -100,265 -900,-30 -335,-20 h -60 v -5 l -205,-5 15,-35 q 50,-150 35,-245 v -25 l 175,-995 v -5 h 5 v 5 h 5 l 5,-5 10,-15 -10,-20 -10,-10 v -10 l -15,-15 -10,-30 h 20 10 M 2660,3470 Q 735,3370 725,3210 l -20,-280 q -5,-300 90,-425 l 20,-260 q 0,-180 -15,-260 l 35,10 h 5 l 180,20 665,75 1010,65 h 10 l 10,5 20,15 h 5 15 15 l 30,60 20,40 10,25 30,-55 -25,-70 v -10 h 10 l 15,-10 10,-40 495,10 h 5 l 720,35 h 45 l 245,20 115,35 q 55,40 15,180 50,95 20,305 5,320 -75,755 l -15,-5 v 5 l -25,55 h -55 l -60,5 -530,25 h -275 -40 -75 v -5 l -280,-10 -140,-10 h -5 l -30,-5 v -20 h -10 l -20,-5 -15,-5 v -15 h -5 l -10,5 v -10 l -5,-20 -10,5 -30,-55 -5,-35 5,-30 25,-85 5,-95 -10,-110 v 45 l -20,110 v 80 l -5,15 -5,70 q -25,95 -105,90 l -35,5 -10,20 m 180,-875 -5,120 -10,145 15,140 15,-600 -5,35 -10,160 m 25,-500 -5,-10 h 5 v 10 m 85,2965 160,-200 10,-10 5,-15 35,-60 -75,-245 -20,-105 -95,-370 -55,-265 40,15 450,-20 h 40 60 l -15,-15 755,-25 q 15,-5 25,25 l 20,-10 40,130 50,45 q 70,105 105,335 l 5,90 50,260 5,25 -425,-15 -360,5 100,20 320,85 265,-15 h 105 30 l 435,35 45,10 15,5 60,15 20,5 30,10 65,20 35,15 q 150,65 255,155 l 25,5 -5,10 100,120 15,20 120,120 45,-10 -105,-105 -10,-5 -160,-160 -100,-95 -100,-95 125,-75 85,-35 v -25 l 5,-5 25,-10 v 5 l 280,-45 55,-5 h 95 l 195,25 130,40 25,-25 v -5 l 155,80 110,65 q 180,110 305,305 40,-40 70,-50 -195,-215 -585,-395 l -95,-45 -265,-35 -190,15 h -30 q -100,0 -310,80 l -225,20 -110,10 75,-160 260,-640 -40,60 55,-135 h 5 l 5,-10 v -10 l 5,-5 q 85,-145 505,-380 435,-250 655,-310 l 120,-40 250,105 190,85 5,55 10,-10 75,215 70,340 q 120,450 150,820 l -195,370 -140,290 -15,10 -20,10 -45,40 -60,40 q -255,35 -615,-10 l -680,-110 v 15 l 135,50 135,25 610,90 295,-10 -235,230 -40,30 q -320,250 -450,395 l -80,55 -90,30 -90,-5 -90,-5 5,-5 -90,-10 -15,10 h -30 -10 l -10,-5 h -5 l -5,5 h -10 l -55,-5 -30,-25 -85,-230 -85,-545 -30,-40 h -30 l 120,515 60,255 h -10 l -10,60 -95,-10 -50,-10 h -5 l -275,-55 h -15 l -285,-55 h -50 l -135,-25 -180,-30 -10,-5 h -15 l -720,-150 -50,-25 70,-440 35,-105 45,5 90,15 300,55 250,-35 q -5,-15 -60,-40 l 100,-40 q -40,-30 -180,-50 l 200,-30 q 160,-35 205,-70 -125,-65 -610,-105 l -35,-15 -10,-5 -65,10 -490,-25 -275,-20 -110,25 -35,15 -15,-5 -45,-15 10,-10 -155,120 M 950,3590 l 40,10 165,20 325,45 v -5 l 425,50 15,5 55,15 50,5 545,10 260,40 v -5 l 10,5 15,50 v 5 l 15,5 q 45,65 45,100 v 10 l 15,95 50,200 45,195 40,95 q 45,100 25,200 l 10,10 -15,20 v 5 l -40,90 -10,15 -180,-10 -675,-25 -180,-15 -495,-35 -560,-15 25,-655 -20,-480 v -55"
     fill="#2c2c27"
     fill-rule="evenodd"
     stroke="none"
     id="path6"
     style="stroke-width:100" />
  <defs
     id="defs44">
    <linearGradient
       gradientTransform="matrix(0.96,-3.51,1.5,0.42,7060,-625)"
       gradientUnits="userSpaceOnUse"
       id="gradient0"
       spreadMethod="pad"
       x1="-819.2"
       x2="819.2">
      <stop
         offset="0.0"
         stop-color="#635b58"
         id="stop34" />
      <stop
         offset="1.0"
         stop-color="#d3cebc"
         id="stop36" />
    </linearGradient>
    <linearGradient
       gradientTransform="matrix(0.67,-2.44,1.04,0.29,7040,440)"
       gradientUnits="userSpaceOnUse"
       id="gradient1"
       spreadMethod="pad"
       x1="-819.2"
       x2="819.2">
      <stop
         offset="0.0"
         stop-color="#635b58"
         id="stop39" />
      <stop
         offset="1.0"
         stop-color="#d3cebc"
         id="stop41" />
    </linearGradient>
  </defs>
</svg>
