<?xml version="1.0" encoding="UTF-8" standalone="no"?>
<svg
   xmlns:dc="http://purl.org/dc/elements/1.1/"
   xmlns:cc="http://creativecommons.org/ns#"
   xmlns:rdf="http://www.w3.org/1999/02/22-rdf-syntax-ns#"
   xmlns:svg="http://www.w3.org/2000/svg"
   xmlns="http://www.w3.org/2000/svg"
   xmlns:sodipodi="http://sodipodi.sourceforge.net/DTD/sodipodi-0.dtd"
   xmlns:inkscape="http://www.inkscape.org/namespaces/inkscape"
   height="8625.0px"
   width="9380.0px"
   version="1.1"
   id="svg46"
   sodipodi:docname="1278.svg"
   inkscape:version="1.0.2-2 (e86c870879, 2021-01-15)">
  <metadata
     id="metadata50">
    <rdf:RDF>
      <cc:Work
         rdf:about="">
        <dc:format>image/svg+xml</dc:format>
        <dc:type
           rdf:resource="http://purl.org/dc/dcmitype/StillImage" />
      </cc:Work>
    </rdf:RDF>
  </metadata>
  <sodipodi:namedview
     pagecolor="#ffffff"
     bordercolor="#666666"
     borderopacity="1"
     objecttolerance="10"
     gridtolerance="10"
     guidetolerance="10"
     inkscape:pageopacity="0"
     inkscape:pageshadow="2"
     inkscape:window-width="1920"
     inkscape:window-height="1017"
     id="namedview48"
     showgrid="false"
     inkscape:zoom="0.098550725"
     inkscape:cx="4690"
     inkscape:cy="4312.5"
     inkscape:window-x="-8"
     inkscape:window-y="-8"
     inkscape:window-maximized="1"
     inkscape:current-layer="svg46" />
  <path
     d="m 1820,0 h 20 l 445,225 70,30 660,310 90,45 120,80 285,140 60,35 -5,-5 110,50 175,80 q 180,95 210,130 -5,20 -45,45 l -55,20 1010,465 45,185 -10,145 -5,55 15,85 -60,170 -25,90 -5,-25 -105,210 q -80,145 -285,415 l -55,30 -20,-30 -90,-25 -105,-25 -120,-40 -355,-105 -125,-45 -130,-55 -180,-70 70,40 15,10 5,5 q 135,95 135,150 0,85 -105,85 l -75,-20 -20,15 70,30 q -20,45 -70,55 l 15,5 20,5 100,5 755,115 125,5 q 90,20 145,55 v -5 l 5,10 35,65 5,15 h -20 l 30,35 -15,5 q 20,150 25,335 l -5,85 q -10,190 -45,355 l -50,215 -65,175 h 5 l -25,50 -90,45 q -65,15 -120,45 l -510,-50 -115,-10 q 115,45 115,90 l -290,185 290,10 55,-5 445,-50 95,-15 5,20 115,210 q 95,195 105,270 85,625 50,800 l -55,75 15,5 -85,80 -315,80 h 45 l 120,15 q 90,25 110,75 h 310 l 105,-15 30,-35 20,5 q 60,0 90,-30 l 30,-60 q 25,-90 25,-300 l -5,-130 v -35 l -10,-85 v -110 q 0,-105 -35,-420 l -35,-345 q 0,-640 510,-1620 350,-675 630,-1020 l -560,1025 q -540,1060 -540,1460 0,190 40,500 l 40,410 v 190 l 30,-50 15,25 420,-885 125,-280 20,5 525,-315 q 540,-310 650,-310 h 15 l 485,280 145,75 q 60,300 205,860 l 85,300 q -105,300 -175,550 l -235,445 -15,10 -160,105 -275,235 -400,355 -50,65 -395,425 -95,60 -20,15 -170,145 -215,185 -410,320 q -220,210 -265,220 l -15,5 -490,5 -220,-10 -540,-45 -85,-295 -95,-415 v -325 l 200,-175 270,-225 175,-145 310,-250 20,-5 85,-90 h -15 q -115,-80 -440,-160 l -815,60 -385,40 h -40 -5 -20 l -15,-5 h -25 l -255,45 -285,15 -770,25 -835,-75 -250,-60 v -5 l -45,-50 -15,-130 10,-50 10,10 -10,-45 25,-355 45,-730 5,-15 45,-45 115,-125 405,-300 120,-15 710,100 660,20 h 5 l 355,25 h 160 q 70,-40 195,-65 l 15,-20 60,-55 -20,-20 -275,-50 v 10 l -35,-10 -20,-5 -135,-10 -170,-45 -355,-10 -5,-15 Q 1870,4480 1000,4250 335,4070 20,3940 l -5,-15 -10,-305 125,-805 210,-410 60,-125 35,-30 145,10 20,5 15,25 195,10 q 1190,265 1780,480 l 90,-5 -5,-5 195,55 h 15 l 220,25 h 15 l 35,-10 70,-65 5,-5 -90,-75 -70,-65 -170,-90 -15,-5 -165,-70 -285,-120 -305,-185 -255,-150 -640,-390 q 30,-405 155,-795 l 90,-280 35,-115 100,-180 115,-150 90,-100 m 1290,2365 h 20 10 5 10 l 50,-90 10,-15 5,-20 10,-20 q 55,-105 150,-615 l 65,-440 v -5 q 5,-80 -5,-90 l -30,-15 10,-50 -520,-230 -265,-125 -115,-55 -90,-45 -120,-60 -55,-30 -90,-45 -25,-15 -65,-35 v 5 l -165,-90 -80,75 -170,265 -25,40 -15,30 q -110,455 -135,835 l 20,15 560,355 170,80 q 155,75 445,215 85,30 155,75 l 205,100 50,5 20,-5 m -1630,350 -330,-105 -180,-55 h -5 l -30,-10 -250,-45 -5,-15 -55,-10 -160,165 -20,35 -5,5 q -150,240 -200,505 -35,430 5,625 v 5 l 80,15 130,30 870,215 935,240 h 35 l 240,15 40,10 5,-10 10,-20 40,5 q 85,15 120,-70 l 15,-70 15,-95 30,-105 45,-365 15,-120 20,-155 10,-65 -40,445 -5,35 v 30 l -15,135 -5,60 -40,160 -40,110 q -5,55 25,90 h 10 v 20 l -5,10 10,-5 45,15 30,5 20,10 h 10 v 10 l 285,50 155,15 v 5 l 75,5 40,5 70,10 205,10 525,15 h 60 l 55,5 30,-55 v -5 l 15,5 q 105,-425 120,-745 45,-205 0,-305 45,-135 -5,-180 l -115,-45 -245,-35 -45,-5 -710,-90 h -5 l -155,-15 -330,-30 h -5 v -30 h -20 v 65 l -10,-5 -10,5 10,25 10,30 5,40 -30,50 -5,-25 -70,-120 -15,-15 h 15 v -5 l -30,5 h -10 l -975,-235 -305,-85 m 3465,-920 5,-95 -815,-375 -600,-270 v 40 15 q -15,150 -60,225 l -15,25 -5,40 -50,235 -30,145 -5,20 -125,555 -5,5 20,5 5,25 -60,30 -15,20 145,85 10,5 130,45 40,30 470,195 q 390,150 495,130 v 15 h 5 l 5,5 40,-20 105,-145 q 205,-365 280,-560 l 15,-240 15,-190 m -440,1390 h -15 l 35,40 q 10,-25 -20,-40 m 1605,3170 555,60 440,-25 90,-65 20,5 20,-10 15,-10 20,-40 v -5 l 120,-245 190,-370 q -25,-370 -145,-820 l -70,-340 -75,-215 -10,10 -5,-55 -185,-85 q -235,-105 -255,-105 l -115,40 q -220,60 -655,310 -415,235 -495,380 l -5,5 v 10 l -5,10 h -5 l -55,135 40,-60 -260,640 -150,295 270,-110 q 315,-135 445,-135 h 30 l 185,-15 270,35 90,45 q 360,170 560,365 l -70,45 q -120,-170 -280,-270 l -110,-65 -150,-80 v 5 l -25,25 q -50,-25 -130,-40 l -200,-25 h -90 l -55,5 -275,45 v -5 q -240,65 -395,210 l -125,125 v 15 l -10,165 -5,35 v 85 45 l -55,155 -50,130 -15,15 -30,40 70,470 -80,-265 -40,-135 -55,15 -95,55 q -215,175 -590,410 -285,205 -470,475 l -10,260 105,395 v 10 h 25 l 160,50 80,20 q 375,85 675,15 l 40,-25 h 45 l 45,-30 130,-90 580,-460 q 125,-75 315,-265 l 10,-5 15,-20 30,-30 5,-15 15,-25 v -10 l 75,-65 10,5 q 20,-5 50,-30 l -285,-35 -375,-50 -50,-5 -45,-10 h -5 l -250,-40 -25,-5 -15,-5 -5,-25 35,5 825,125 300,-85 75,-35 55,-65 60,-55 5,-5 170,-145 55,-55 400,-385 115,-85 -165,30 -250,5 -445,-35 -135,-20 -105,-10 -160,-20 -70,-10 -200,-40 -40,-5 v -15 l 150,15 120,15 h 25 l 35,5 245,40 h 15 m -1990,-115 155,-30 190,-70 15,-45 25,-75 5,-10 q 55,-155 25,-365 l -50,-265 -5,-95 q -30,-235 -105,-330 l -50,-40 -40,-130 -20,10 q -10,-25 -25,-20 l -750,135 15,15 -60,10 -40,5 -105,5 -235,45 -95,30 -10,5 -40,-5 q 35,130 55,265 l 95,375 20,110 45,160 30,80 -35,70 -5,15 -10,10 -75,115 -75,100 -10,15 -25,35 15,-5 -30,45 60,10 h 40 l 130,-20 60,-10 285,-45 270,-30 300,-60 25,-5 35,-10 m 915,-430 -20,25 h 10 l 10,-25 m -1260,580 h 10 l 5,-5 -15,5 m -1065,10 85,-20 35,-35 40,-5 150,-180 20,-15 10,-20 40,-100 v -5 l 15,-25 -10,-10 q 20,-105 -25,-205 l -40,-90 -45,-200 -50,-200 -15,-95 v -10 l -40,-100 -15,-5 v -5 l -15,-55 -130,-10 -145,-10 -535,35 -125,-5 -740,-65 -170,-25 -40,-10 -5,5 q -60,25 -85,80 l -135,105 -60,65 -35,45 -25,105 -45,210 5,125 -25,615 10,70 h 10 l 920,90 q 585,-25 1010,-20 h 5 l 140,-15 60,-10"
     fill="#000000"
     fill-rule="evenodd"
     stroke="none"
     id="path2"
     style="stroke-width:100" />
  <path
     d="m 2075,370 h 5 l 225,150 810,470 q 75,180 75,460 0,470 -80,915 l -20,5 -50,-5 -205,-100 q -70,-45 -155,-75 -290,-140 -445,-215 l -170,-80 -560,-355 -20,-15 q 25,-380 135,-835 l 15,-30 25,-40 170,-265 80,-75 165,90 m 220,3945 h -35 l -935,-240 -870,-215 -130,-30 -80,-15 v -5 q -40,-195 -5,-625 50,-265 200,-505 l 5,-5 20,-35 160,-165 55,10 5,15 250,45 30,10 h 5 l 180,55 330,105 735,270 300,100 -75,615 q -110,345 -145,615 m 960,-1270 155,15 h 5 l 710,90 45,5 245,35 115,45 q 50,45 5,180 45,100 0,305 -15,320 -120,745 l -15,-5 v 5 l -30,55 -55,-5 h -60 l -525,-15 -205,-10 q -660,-450 -675,-450 h -10 v -125 l 15,-135 70,-570 70,-20 40,-40 115,5 85,-15 10,-20 10,-55 v -20 m 115,-1245 -20,110 q 30,30 85,30 65,0 205,-335 75,-180 115,-310 l 375,210 q 460,235 815,290 l -15,190 -15,240 q -75,195 -280,560 l -105,145 -40,20 -5,-5 h -5 v -15 q -105,20 -495,-130 l -470,-195 -40,-30 -130,-45 -10,-5 -145,-85 15,-20 60,-30 -5,-25 -20,-5 5,-5 125,-555 m 1695,4345 185,-65 415,50 -95,150 100,15 -150,-15 v 15 l 40,5 -145,250 q -205,360 -385,640 l -35,-5 5,25 15,5 -110,170 55,-90 -115,115 -730,685 -370,235 -105,-395 10,-260 q 185,-270 470,-475 375,-235 590,-410 l 95,-55 55,-15 40,135 80,265 -70,-470 30,-40 15,-15 50,-130 55,-155 v -45 -85 l 5,-35 m 785,170 85,-150 250,40 -75,150 h -15 l -245,-40 m -2550,-1370 105,-5 40,-5 60,-10 -15,-15 750,-135 q 15,-5 25,20 l 20,-10 40,130 50,40 q 75,95 105,330 l 5,95 50,265 q 30,210 -25,365 l -5,10 -25,75 -15,45 -190,70 -155,30 45,-10 q -15,-65 -95,-80 l -50,-10 q -100,-70 -315,-155 -195,-75 -400,-135 l -145,25 q 30,-115 15,-365 l 50,5 q 55,0 110,-60 50,-55 50,-115 0,-275 -85,-395 m -2620,240 230,15 1230,20 605,-10 -5,-55 35,240 q 50,330 55,660 l 5,60 q 0,140 -120,280 l -5,5 -60,10 -140,15 h -5 q -425,-5 -1010,20 l -920,-90 h -10 l -10,-70 25,-615 -5,-125 45,-210 25,-105 35,-45"
     fill="#52524b"
     fill-rule="evenodd"
     stroke="none"
     id="path4"
     style="stroke-width:100" />
  <path
     d="m 2075,370 v -5 l 65,35 25,15 90,45 55,30 120,60 90,45 115,55 265,125 520,230 -10,50 30,15 q 10,10 5,90 v 5 l -65,440 q -95,510 -150,615 l -10,20 -5,20 -10,15 -50,90 h -10 -5 -10 -20 q 80,-445 80,-915 0,-280 -75,-460 L 2305,520 2080,370 h -5 m 220,3945 q 35,-270 145,-615 l 75,-615 -300,-100 -735,-270 305,85 975,235 h 10 l 30,-5 v 5 h -15 l 15,15 70,120 5,25 30,-50 -5,-40 -10,-30 -10,-25 10,-5 10,5 v -65 h 20 v 30 h 5 l 330,30 v 20 l -10,55 -10,20 -85,15 -115,-5 -40,40 -70,20 -70,570 v -30 l 5,-35 40,-445 -10,65 -20,155 -15,120 -45,365 -30,105 -15,95 -15,70 q -35,85 -120,70 l -40,-5 -10,20 -5,10 -40,-10 -240,-15 m 1230,175 -70,-10 -40,-5 -75,-5 v -5 l -155,-15 -285,-50 v -10 h -10 l -20,-10 -30,-5 -45,-15 -10,5 5,-10 v -20 h -10 q -30,-35 -25,-90 l 40,-110 40,-160 5,-60 v 125 h 10 q 15,0 675,450 M 4945,1795 q -355,-55 -815,-290 l -375,-210 q -40,130 -115,310 -140,335 -205,335 -55,0 -85,-30 l 20,-110 5,-20 30,-145 50,-235 5,-40 15,-25 q 45,-75 60,-225 v -15 -40 l 600,270 815,375 -5,95 m 120,4350 10,-165 v -15 l 125,-125 q 155,-145 395,-210 v 5 l 275,-45 55,-5 h 90 l 200,25 q 80,15 130,40 l 25,-25 v -5 l 150,80 110,65 q 160,100 280,270 l 70,-45 q -200,-195 -560,-365 l -90,-45 -270,-35 -185,15 h -30 q -130,0 -445,135 l -270,110 150,-295 260,-640 -40,60 55,-135 h 5 l 5,-10 v -10 l 5,-5 q 80,-145 495,-380 435,-250 655,-310 l 115,-40 q 20,0 255,105 l 185,85 5,55 10,-10 75,215 70,340 q 120,450 145,820 l -190,370 -120,245 v 5 l -20,40 -15,10 -20,10 -20,-5 -90,65 -440,25 -555,-60 75,-150 -250,-40 -85,150 -35,-5 h -25 l -120,-15 -100,-15 95,-150 -415,-50 -185,65 m 495,155 200,40 70,10 160,20 105,10 135,20 445,35 250,-5 165,-30 -115,85 -400,385 -55,55 -170,145 -5,5 -60,55 -55,65 -75,35 -300,85 -825,-125 q 180,-280 385,-640 l 145,-250 m -545,915 25,5 250,40 h 5 l 45,10 50,5 375,50 285,35 q -30,25 -50,30 l -10,-5 -75,65 v 10 l -15,25 -5,15 -30,30 -15,20 -10,5 q -190,190 -315,265 l -580,460 -130,90 -45,30 h -45 l -40,25 q -300,70 -675,-15 l -80,-20 -160,-50 h -25 v -10 l 370,-235 730,-685 115,-115 -55,90 110,-170 m -895,-975 -35,10 -25,5 -300,60 -270,30 -285,45 -60,10 -130,20 h -40 l -60,-10 30,-45 -15,5 25,-35 10,-15 75,-100 75,-115 10,-10 5,-15 35,-70 -30,-80 -45,-160 -20,-110 -95,-375 q -20,-135 -55,-265 l 40,5 10,-5 95,-30 235,-45 q 85,120 85,395 0,60 -50,115 -55,60 -110,60 l -50,-5 q 15,250 -15,365 l 145,-25 q 205,60 400,135 215,85 315,155 l 50,10 q 80,15 95,80 l -45,10 M 680,5185 l 60,-65 135,-105 q 25,-55 85,-80 l 5,-5 40,10 170,25 740,65 125,5 535,-35 145,10 130,10 15,55 v 5 l 15,5 40,100 v 10 l 15,95 50,200 45,200 40,90 q 45,100 25,205 l 10,10 -15,25 v 5 l -40,100 -10,20 -20,15 -150,180 -40,5 -35,35 -85,20 5,-5 q 120,-140 120,-280 l -5,-60 q -5,-330 -55,-660 l -35,-240 5,55 -605,10 -1230,-20 -230,-15"
     fill="#2c2c27"
     fill-rule="evenodd"
     stroke="none"
     id="path6"
     style="stroke-width:100" />
  <defs
     id="defs44">
    <linearGradient
       gradientTransform="matrix(0.96,-3.51,1.5,0.42,7085,345)"
       gradientUnits="userSpaceOnUse"
       id="gradient0"
       spreadMethod="pad"
       x1="-819.2"
       x2="819.2">
      <stop
         offset="0.0"
         stop-color="#635b58"
         id="stop34" />
      <stop
         offset="1.0"
         stop-color="#d3cebc"
         id="stop36" />
    </linearGradient>
    <linearGradient
       gradientTransform="matrix(0.67,-2.44,1.04,0.29,7065,1410)"
       gradientUnits="userSpaceOnUse"
       id="gradient1"
       spreadMethod="pad"
       x1="-819.2"
       x2="819.2">
      <stop
         offset="0.0"
         stop-color="#635b58"
         id="stop39" />
      <stop
         offset="1.0"
         stop-color="#d3cebc"
         id="stop41" />
    </linearGradient>
  </defs>
</svg>
