<?xml version="1.0" encoding="UTF-8" standalone="no"?>
<svg
   xmlns:dc="http://purl.org/dc/elements/1.1/"
   xmlns:cc="http://creativecommons.org/ns#"
   xmlns:rdf="http://www.w3.org/1999/02/22-rdf-syntax-ns#"
   xmlns:svg="http://www.w3.org/2000/svg"
   xmlns="http://www.w3.org/2000/svg"
   xmlns:sodipodi="http://sodipodi.sourceforge.net/DTD/sodipodi-0.dtd"
   xmlns:inkscape="http://www.inkscape.org/namespaces/inkscape"
   height="7545.0px"
   width="8030.0px"
   version="1.1"
   id="svg41"
   sodipodi:docname="1040.svg"
   inkscape:version="1.0.2-2 (e86c870879, 2021-01-15)">
  <metadata
     id="metadata45">
    <rdf:RDF>
      <cc:Work
         rdf:about="">
        <dc:format>image/svg+xml</dc:format>
        <dc:type
           rdf:resource="http://purl.org/dc/dcmitype/StillImage" />
      </cc:Work>
    </rdf:RDF>
  </metadata>
  <sodipodi:namedview
     pagecolor="#ffffff"
     bordercolor="#666666"
     borderopacity="1"
     objecttolerance="10"
     gridtolerance="10"
     guidetolerance="10"
     inkscape:pageopacity="0"
     inkscape:pageshadow="2"
     inkscape:window-width="1920"
     inkscape:window-height="1017"
     id="namedview43"
     showgrid="false"
     inkscape:zoom="0.11265739"
     inkscape:cx="4015"
     inkscape:cy="3772.5"
     inkscape:window-x="-8"
     inkscape:window-y="-8"
     inkscape:window-maximized="1"
     inkscape:current-layer="svg41" />
  <path
     d="m 2765,1020 20,-25 160,-130 q 50,-25 85,-45 l -415,-40 h -5 l -460,-55 -470,-70 -315,30 -155,65 -50,95 q -110,210 -135,385 -45,395 95,490 60,45 615,165 l 735,140 5,-5 70,-10 20,5 85,-120 30,-670 q 15,-115 85,-205 m 1420,895 15,10 5,5 q -285,100 -730,180 l -545,100 -280,45 -360,-40 -980,-220 -435,-85 -50,-85 -5,-665 220,-565 5,-10 q 50,-65 120,-80 l 80,-35 935,85 355,35 h 10 l 30,5 190,40 795,55 705,-35 30,-5 300,-40 q 235,-40 375,-100 h 5 q 15,10 15,50 0,40 -250,80 l -130,20 -100,15 95,10 85,5 40,55 -100,60 q -130,70 -275,90 l -365,10 -610,-25 -175,-40 h -35 l -120,75 -130,80 h -15 l 5,5 -80,40 -95,55 -20,170 q 10,95 -60,670 l -5,20 65,55 -5,5 h 10 l 45,-5 660,-75 115,-15 h 40 l 45,35 45,25 470,-75 45,10 m -980,370 h 60 l 75,10 -20,20 -115,-30 m 200,3405 25,-5 100,10 30,50 -280,145 50,15 10,10 5,45 v 30 5 h 10 l 340,-75 120,5 95,10 25,10 -75,55 -155,80 -65,30 -15,5 -45,20 h -5 l -40,-15 -90,30 -20,5 q -80,20 -145,55 l -40,25 -10,10 -25,25 -130,75 10,30 -25,-30 -35,25 v 335 l 10,20 95,315 q 80,205 140,235 l 15,5 h 10 l 40,-10 45,-20 195,-80 75,-30 5,-5 115,-50 q 535,-235 640,-275 160,-55 360,-275 l 25,-25 15,-150 -25,-40 -20,-30 -15,-20 -30,-50 -20,-75 5,5 15,5 45,45 h 5 l 15,15 20,20 q 50,60 55,115 v 10 l -5,45 h -20 v 70 l 125,-130 q 75,-85 75,-125 v -25 l 255,-345 165,-195 40,15 15,15 q 15,25 15,60 v 15 q 230,-255 335,-265 l -330,355 -50,65 -140,295 q -200,405 -340,520 -105,85 -295,160 l -305,110 -570,295 q -505,250 -610,250 -190,0 -365,-530 -100,-305 -75,-505 l -15,-145 10,-30 -15,-10 q 45,-75 180,-170 90,-60 160,-85 l 40,-20 95,-140 -285,130 q -535,230 -720,230 L 1210,6260 710,6245 Q 550,6230 485,6085 385,5850 355,5110 340,4950 450,4855 l 5,-10 40,-20 380,-180 190,-85 775,-75 310,-25 675,-235 q 550,-205 620,-205 l 65,10 -55,55 -235,190 q -155,105 -330,190 l -270,110 -45,15 -60,20 -50,15 -35,55 -5,5 -120,145 h -5 v 5 l 25,85 -35,30 q -35,25 -25,-20 l 20,-70 10,-25 -5,5 -5,5 -10,5 -15,5 h -10 l 165,-220 -70,20 -400,40 -70,-5 -665,65 h -40 l -265,100 -60,25 -50,15 -20,10 -85,35 -70,30 -20,35 q -45,95 -45,310 0,625 300,740 l 845,30 695,-80 35,-45 40,-35 q 0,-280 -100,-625 -70,-230 -65,-320 v -5 -15 -15 l 15,-10 5,15 5,20 q 65,235 235,990 l 100,-30 120,-45 q 485,-180 620,-195 m 235,-1800 20,10 10,10 -745,225 -565,135 -290,60 -385,-30 -1060,-195 -470,-80 -65,-85 -90,-725 160,-625 5,-10 q 45,-75 120,-95 35,-40 75,-40 l 995,50 380,25 h 10 5 l 645,-20 740,-40 45,5 105,20 q 75,25 120,85 l -520,105 -220,35 -70,10 -115,40 -45,5 -115,85 -145,100 -70,50 -95,60 v 185 q 25,105 25,735 v 20 l 75,60 -10,5 h 15 l 45,-10 685,-110 120,-20 h 40 l 55,30 45,30 q 400,-105 490,-105 l 45,10 m -1605,-915 15,-25 155,-145 85,-60 -445,-20 h -5 l -495,-45 -500,-50 -330,45 q -90,30 -155,80 l -40,100 q -90,235 -90,430 0,430 160,530 l 670,155 795,120 5,-5 70,-20 20,5 75,-135 -55,-730 q 0,-125 65,-230"
     fill="#000000"
     fill-rule="evenodd"
     stroke="none"
     id="path2"
     style="stroke-width:100" />
  <path
     d="m 2765,1020 q -70,90 -85,205 l -30,670 -85,120 -20,-5 -70,10 -5,5 -735,-140 q -555,-120 -615,-165 -140,-95 -95,-490 25,-175 135,-385 l 50,-95 155,-65 305,80 1095,255 m 1975,-380 210,65 q 525,190 480,540 -50,415 -1245,670 l -45,-10 -470,75 -45,-25 -45,-35 h -40 l -115,15 -660,75 -45,5 h -10 l 5,-5 -65,-55 5,-20 q 70,-575 60,-670 l 20,-170 95,-55 135,40 v 5 l 460,30 325,55 165,-50 365,-10 q 325,-35 545,-180 -15,-20 -35,-20 l -465,70 q 340,-120 340,-135 0,-60 -15,-40 h -20 l 100,-60 -40,-55 -85,-5 5,-15 v -10 l 130,-20 m -630,1705 -365,-60 h 770 l -405,60 m -655,1740 q 395,-115 705,-115 l 415,60 q 375,115 375,400 0,430 -415,680 l -660,275 q -50,20 -470,305 -135,15 -620,195 l -120,45 -100,30 q -170,-755 -235,-990 1370,-440 1370,-700 0,-60 -45,-90 l -60,-20 q -50,0 -375,115 l 235,-190 m 440,-1635 395,90 q 580,185 580,570 0,455 -1230,780 l -45,-10 q -90,0 -490,105 l -45,-30 -55,-30 h -40 l -120,20 -685,110 -45,10 h -15 l 10,-5 -75,-60 v -20 q 0,-630 -25,-735 v -185 l 95,-60 175,40 830,-210 q 825,-225 825,-310 0,-45 -40,-70 m -715,15 460,-35 -355,55 -105,-20 M 600,5005 810,4980 h 1480 v -5 h 15 v 5 q -5,90 65,320 100,345 100,625 l -40,35 -35,45 -695,80 -845,-30 q -300,-115 -300,-740 0,-215 45,-310 m 2780,2245 -45,20 -40,10 h -10 l -15,-5 q -60,-30 -140,-235 l -95,-315 -10,-20 v -335 l 35,-25 25,30 -10,-30 130,-75 25,-25 10,-10 40,-25 q 65,-35 145,-55 l 20,-5 90,-30 40,15 h 5 l 45,-20 15,-5 65,-30 155,-80 55,-35 455,-60 340,40 125,5 q 85,20 85,120 0,50 -150,130 h -5 l -45,-45 -15,-5 -5,-5 20,75 q -205,95 -610,230 l -155,50 q -40,200 -385,555 l -190,195 m -25,-1255 h -10 v -5 l 10,5 M 2035,2975 q -65,105 -65,230 l 55,730 -75,135 -20,-5 -70,20 -5,5 -795,-120 -670,-155 q -160,-100 -160,-530 0,-195 90,-430 l 40,-100 q 65,-50 155,-80 l 335,70 1185,230"
     fill="#52524b"
     fill-rule="evenodd"
     stroke="none"
     id="path4"
     style="stroke-width:100" />
  <path
     d="m 1365,685 315,-30 470,70 460,55 h 5 l 415,40 q -35,20 -85,45 l -160,130 -20,25 -1095,-255 -305,-80 m 1465,355 80,-40 -5,-5 h 15 l 130,-80 120,-75 h 35 l 175,40 610,25 365,-10 q 145,-20 275,-90 h 20 q 15,-20 15,40 0,15 -340,135 l 465,-70 q 20,0 35,20 -220,145 -545,180 l -365,10 -165,50 -325,-55 -460,-30 v -5 l -135,-40 m 1775,-355 -95,-10 100,-15 v 10 l -5,15 M 3345,5990 q 180,-130 525,-300 595,-290 885,-290 215,0 305,45 205,100 230,405 l -255,345 v 25 q 0,40 -75,125 l -125,130 v -70 h 20 l 5,-45 v -10 q -5,-55 -55,-115 l -20,-20 -15,-15 q 150,-80 150,-130 0,-100 -85,-120 l -125,-5 -340,-40 -455,60 -55,35 75,-55 -25,-10 -95,-10 -120,-5 -340,75 -10,-5 M 3220,4275 q 325,-115 375,-115 l 60,20 q 45,30 45,90 0,260 -1370,700 l -5,-20 -5,-15 -15,10 v 15 15 h -15 v 5 H 810 l -210,25 20,-35 70,-30 85,-35 20,-10 50,-15 60,-25 265,-100 h 40 l 665,-65 70,5 400,-40 70,-20 -165,220 h 10 l 15,-5 10,-5 5,-5 5,-5 -10,25 -20,70 q -10,45 25,20 l 35,-30 -25,-85 v -5 h 5 l 120,-145 5,-5 35,-55 50,-15 60,-20 45,-15 270,-110 q 175,-85 330,-190 m 420,-1845 h 20 l 235,20 q 40,25 40,70 0,85 -825,310 l -830,210 -175,-40 70,-50 145,-100 115,-85 45,-5 115,-40 70,-10 220,-35 520,-105 q -45,-60 -120,-85 l 355,-55 m 1080,3790 30,50 15,20 20,30 25,40 -15,150 -25,25 q -200,220 -360,275 -105,40 -640,275 l -115,50 -5,5 -75,30 -195,80 190,-195 q 345,-355 385,-555 l 155,-50 q 405,-135 610,-230 M 515,2675 l 330,-45 500,50 495,45 h 5 l 445,20 -85,60 -155,145 -15,25 -1185,-230 -335,-70"
     fill="#2c2c27"
     fill-rule="evenodd"
     stroke="none"
     id="path6"
     style="stroke-width:100" />
  <defs
     id="defs39">
    <linearGradient
       gradientTransform="matrix(1.22,-3.54,1.52,0.53,5785,5)"
       gradientUnits="userSpaceOnUse"
       id="gradient0"
       spreadMethod="pad"
       x1="-819.2"
       x2="819.2">
      <stop
         offset="0.0"
         stop-color="#635b58"
         id="stop34" />
      <stop
         offset="1.0"
         stop-color="#d3cebc"
         id="stop36" />
    </linearGradient>
  </defs>
</svg>
