<?xml version="1.0" encoding="UTF-8" standalone="no"?>
<svg
   xmlns:dc="http://purl.org/dc/elements/1.1/"
   xmlns:cc="http://creativecommons.org/ns#"
   xmlns:rdf="http://www.w3.org/1999/02/22-rdf-syntax-ns#"
   xmlns:svg="http://www.w3.org/2000/svg"
   xmlns="http://www.w3.org/2000/svg"
   xmlns:sodipodi="http://sodipodi.sourceforge.net/DTD/sodipodi-0.dtd"
   xmlns:inkscape="http://www.inkscape.org/namespaces/inkscape"
   height="7855.0px"
   width="9350.0px"
   version="1.1"
   id="svg46"
   sodipodi:docname="1292.svg"
   inkscape:version="1.0.2-2 (e86c870879, 2021-01-15)">
  <metadata
     id="metadata50">
    <rdf:RDF>
      <cc:Work
         rdf:about="">
        <dc:format>image/svg+xml</dc:format>
        <dc:type
           rdf:resource="http://purl.org/dc/dcmitype/StillImage" />
      </cc:Work>
    </rdf:RDF>
  </metadata>
  <sodipodi:namedview
     pagecolor="#ffffff"
     bordercolor="#666666"
     borderopacity="1"
     objecttolerance="10"
     gridtolerance="10"
     guidetolerance="10"
     inkscape:pageopacity="0"
     inkscape:pageshadow="2"
     inkscape:window-width="1920"
     inkscape:window-height="1017"
     id="namedview48"
     showgrid="false"
     inkscape:zoom="0.10821133"
     inkscape:cx="4675"
     inkscape:cy="3927.5"
     inkscape:window-x="-8"
     inkscape:window-y="-8"
     inkscape:window-maximized="1"
     inkscape:current-layer="svg46" />
  <path
     d="m 4495,5655 275,75 h 30 l 35,-40 20,5 q 80,0 105,-50 40,-75 40,-350 l -5,-130 v -35 l -10,-90 v -110 q 0,-110 -35,-430 l -25,-265 -10,-90 q 0,-655 510,-1660 350,-695 635,-1045 -300,505 -565,1050 -540,1085 -540,1495 l 15,280 25,235 40,420 v 195 l 30,-55 15,25 270,-575 150,-330 130,-285 20,5 520,-325 q 540,-315 655,-315 h 15 l 485,285 145,75 205,885 15,55 75,275 5,75 q -95,205 -185,460 l -235,460 -15,10 -160,110 -275,240 q -335,275 -400,365 l -50,65 -435,475 -170,140 -485,245 q -310,160 -470,220 -260,155 -305,155 h -15 l -480,-120 -215,-60 -515,-175 -15,-315 5,-435 75,-325 240,-130 320,-155 q 135,-75 300,-140 h -20 q 125,-40 200,-95 l -210,-50 q -435,-100 -760,-100 l -600,50 -25,15 -20,15 q -210,65 -560,290 -235,120 -575,375 l -110,45 -470,-120 -150,-65 -55,-35 -10,-5 -320,-660 -160,-315 -5,-45 -10,15 -25,-50 -45,-125 25,-65 v -5 l 195,-155 q 215,-165 690,-400 140,-80 675,-295 l 365,-145 q 105,-70 245,-135 l 30,-15 -90,-15 q -615,140 -1825,275 l -190,-15 -20,25 h -20 l -150,-5 -30,-35 -45,-135 -170,-450 -40,-840 40,-315 5,-15 q 325,-90 1010,-195 l 1230,-135 5,-15 365,35 165,-25 265,5 -165,-20 -25,-5 -115,-10 -150,-25 -175,-35 -1300,-250 -20,-10 -60,-340 v -210 l 90,-405 Q 1245,355 1410,0 l 750,70 295,30 350,30 315,85 175,40 20,5 100,10 q 295,100 520,125 l 80,-5 205,-15 h 35 l 30,15 10,50 q 0,80 -100,95 h -110 -75 q 80,30 175,65 l -15,-5 -375,-50 -75,5 -20,-10 h -10 l -150,-20 h -25 l 5,25 25,35 10,20 5,10 -20,15 -15,-5 v 5 q 0,40 -230,745 l -70,215 v 10 25 q 0,95 -60,235 l -20,35 435,100 220,50 750,155 145,25 65,-130 55,-120 105,-205 q 25,-210 25,-640 l -20,-190 -25,-40 -5,5 -5,-5 -5,10 q -65,-60 -325,-145 l -5,-15 -90,-25 35,-10 75,25 120,40 100,45 95,35 30,-10 40,55 40,520 -5,240 15,-15 -20,90 -35,175 -50,65 -25,45 -5,10 -60,115 -130,135 -205,-50 -970,-200 -75,-20 q -40,45 -135,45 h -65 l -20,20 h 50 50 q 35,15 55,80 -45,45 -120,70 l 680,110 270,40 245,25 q 50,50 110,85 l 125,105 -15,15 h -35 l 10,205 q 0,345 -95,675 l -115,305 10,5 -30,25 15,5 -10,10 -35,50 -15,10 -5,10 v -5 l -140,25 -110,-20 -710,-40 -85,-10 q 25,25 25,65 v 5 l 10,5 q 60,10 60,65 v 15 l 440,15 505,30 q 0,45 -25,65 l 60,60 q 60,170 60,815 0,75 -75,295 l -25,80 -30,-5 25,-30 q 60,-115 60,-355 l -5,-100 q 15,-115 15,-275 0,-220 -75,-365 l -5,-10 -35,-65 -20,-40 -195,-30 H 2955 l -65,20 q 50,765 155,1095 45,145 105,205 45,50 175,80 75,15 130,60 l 335,-10 110,5 h 15 l 520,110 60,-5 M 3205,465 3120,450 3070,440 2950,420 2455,320 2265,285 1615,235 h -25 q -170,330 -300,780 v 35 l 30,375 20,65 10,45 585,95 105,20 125,25 290,55 505,115 30,5 30,10 15,-50 35,5 50,-75 q 55,-110 155,-405 170,-480 170,-605 v -25 l 5,-20 V 665 560 l -5,-5 -10,-5 -5,-5 -35,-25 -45,-25 -145,-30 m -475,3015 -5,-150 v -20 l -5,-120 10,-155 q 30,-70 30,-180 l -10,-75 5,-35 25,-145 15,-170 q 0,-65 -30,-110 h -115 l -5,-10 -5,-10 -45,5 -275,-15 -960,130 -885,115 -140,15 -75,5 q -60,200 -70,645 25,285 140,545 l 5,5 15,35 70,115 80,85 55,-5 10,-15 245,-15 35,-5 h 5 l 185,-40 655,-120 1010,-120 30,10 v -10 h -15 l 20,-20 -5,-165 m 870,335 385,20 40,10 225,10 80,-5 35,-10 q 60,-30 60,-160 65,-85 80,-295 80,-305 100,-785 h -15 v -5 q 0,-60 -15,-65 l -50,-5 -60,-15 -435,-100 -90,-15 -275,-35 -475,-65 -150,-10 -110,10 q -175,290 -175,1065 l 25,55 -5,30 v 90 l -10,-20 -5,-5 10,75 15,65 v -45 q 20,75 85,90 h 10 v 5 l 200,10 445,35 v 25 l -175,20 250,25 m 3775,1545 25,-35 175,-340 -30,-280 -120,-560 -70,-350 -75,-220 -10,10 -5,-55 -185,-90 -255,-105 -120,40 q -215,60 -650,320 -415,240 -500,390 l -5,5 v 10 l -5,10 h -5 l -55,135 40,-60 -140,350 -120,305 -150,305 270,-115 q 315,-140 445,-140 h 30 l 40,-5 150,-10 265,40 95,45 q 275,130 455,280 l 90,80 -60,45 -75,-95 q -95,-100 -200,-170 l -110,-65 -155,-80 v 5 l -25,25 -130,-40 -195,-25 h -55 -40 l -55,5 -275,45 v -5 q -240,65 -400,215 l -120,125 v 20 l -10,165 -15,105 -20,105 5,50 q 10,-85 90,-140 h 15 l 10,50 -20,100 5,10 v 135 155 l -10,215 65,175 q 80,135 245,235 55,35 115,65 l 280,90 70,20 15,-15 15,25 20,5 20,-20 v 10 l 80,-65 75,-85 160,-215 60,-55 5,-5 175,-150 55,-55 395,-395 -40,-20 -260,25 -430,-50 -200,-55 -305,-80 v -15 l 320,70 410,65 625,-40 85,-80 h 5 v 5 l 100,-150 55,-85 50,-70 m -3015,-1510 -15,10 -25,20 h 15 l 20,-10 5,-20 m 660,1300 -20,25 h 10 l 10,-25 m 130,1390 -30,-20 -65,-575 v -10 l -40,-10 v -35 l -5,15 -10,10 h 5 v 10 l -65,35 -110,35 -660,260 q -330,140 -575,360 l -70,255 10,430 25,5 25,15 115,75 q 185,105 365,160 185,60 360,60 l 45,-10 45,10 50,-20 150,-65 q 565,-240 985,-485 l 65,-15 65,-55 h 5 l 15,-15 h -15 v -25 l -370,-215 -25,-10 -290,-170 m -2415,-3110 10,5 -10,-35 v 30 m 270,1805 -100,-345 -65,-755 -55,15 q -100,15 -185,60 l -25,10 h -20 l -140,35 -130,45 h -5 l -875,390 q -425,215 -770,460 l 10,65 265,560 45,115 125,175 60,95 10,5 120,60 155,40 q 40,40 105,40 h 5 l 30,-20 140,-95 q 245,-160 610,-360 l 105,-55 q 500,-200 585,-210 l 35,-25 110,-15 -30,-20 55,15 q 20,0 25,-40 l -175,-110 v -20 l -20,-115"
     fill="#000000"
     fill-rule="evenodd"
     stroke="none"
     id="path2"
     style="stroke-width:100" />
  <path
     d="M 3045,5210 Q 2940,4880 2890,4115 l 65,-20 h 1130 l 195,30 20,40 35,65 5,10 q 75,145 75,365 0,160 -15,275 l 5,100 q 0,240 -60,355 l -25,30 -315,-45 -250,-30 -175,-35 -535,-45 m -1705,-3720 -20,-65 -30,-375 v -35 q 130,-450 300,-780 h 25 l 650,50 190,35 495,100 120,20 50,10 85,15 q 30,85 30,200 0,340 -125,675 -115,305 -190,305 l -55,-10 v 5 l -215,-25 -1310,-125 m -920,2410 -70,-115 -15,-35 -5,-5 q -115,-260 -140,-545 10,-445 70,-645 l 75,-5 140,-15 885,-115 960,-130 275,15 45,-5 5,10 5,10 h 115 q 30,45 30,110 l -15,170 -25,145 -5,35 10,75 q 0,110 -30,180 l -10,155 5,120 v 20 l 5,150 -1460,250 q -455,60 -790,155 l -60,15 M 3225,1595 v -10 l 70,-215 -70,225 m 320,-1015 -25,-35 -5,-25 h 25 l -10,35 15,25 m 35,1410 45,-120 q 200,-510 245,-875 105,105 235,105 h 45 q 35,-15 35,-90 0,-115 -40,-190 l 160,5 255,-50 v -15 q 260,85 325,145 l 5,-10 5,5 5,-5 25,40 20,190 q 0,430 -25,640 l -105,205 -55,120 -65,130 -145,-25 -750,-155 -220,-50 m -700,-590 -5,45 5,-40 v -5 m -105,2045 5,-30 -25,-55 q 0,-775 175,-1065 l 110,-10 150,10 475,65 275,35 90,15 435,100 60,15 50,5 q 15,5 15,65 v 5 h 15 q -20,480 -100,785 -15,210 -80,295 0,130 -60,160 l -35,10 -80,5 -225,-10 -40,-10 -385,-20 20,-55 q 0,-205 -370,-290 l -415,-50 h -55 l -5,25 m 2400,3005 -65,-175 10,-215 v -155 -135 l -5,-10 20,-100 -10,-50 h -15 q -80,55 -90,140 l -5,-50 20,-105 15,-105 10,-165 v -20 l 120,-125 q 160,-150 400,-215 v 5 l 275,-45 55,-5 h 40 55 l 195,25 130,40 25,-25 v -5 l 155,80 110,65 q 105,70 200,170 l 75,95 60,-45 -90,-80 q -180,-150 -455,-280 l -95,-45 -265,-40 -150,10 -40,5 h -30 q -130,0 -445,140 l -270,115 150,-305 120,-305 140,-350 -40,60 55,-135 h 5 l 5,-10 v -10 l 5,-5 q 85,-150 500,-390 435,-260 650,-320 l 120,-40 255,105 185,90 5,55 10,-10 75,220 70,350 120,560 30,280 -175,340 -25,35 -250,10 q -590,0 -935,90 l 145,-265 30,-55 q 0,-140 -145,-140 -30,0 -85,50 -200,180 -720,1005 l -240,395 m -1590,870 -25,-15 -25,-5 -10,-430 70,-255 q 245,-220 575,-360 l 660,-260 110,-35 65,-35 v -10 h -5 l 10,-10 5,-15 v 35 l 40,10 v 10 l 65,575 30,20 -35,20 -805,400 -725,360 M 2735,3430 v -30 l 10,35 -10,-5 m -1585,2735 -10,-5 -60,-95 -125,-175 -45,-115 -265,-560 -10,-65 q 345,-245 770,-460 l 875,-390 h 5 l 130,-45 140,-35 h 20 l 25,-10 q 85,-45 185,-60 l 55,-15 65,755 100,345 q -320,70 -1555,755 l -300,175"
     fill="#52524b"
     fill-rule="evenodd"
     stroke="none"
     id="path4"
     style="stroke-width:100" />
  <path
     d="m 4185,600 385,60 5,35 -75,15 -35,10 90,25 5,15 v 15 l -255,50 -160,-5 q 40,75 40,190 0,75 -35,90 h -45 q -130,0 -235,-105 -45,365 -245,875 l -45,120 -435,-100 20,-35 q 60,-140 60,-235 v -25 l 70,-225 q 230,-705 230,-745 v -5 l 15,5 20,-15 -5,-10 -10,-20 -15,-25 10,-35 150,20 h 10 l 20,10 75,-5 375,50 15,5 m 165,4770 400,65 5,25 -30,15 160,50 10,15 35,40 q -60,65 -230,70 l -30,5 -120,-5 -55,5 -60,5 -520,-110 h -15 l -110,-5 -335,10 q -55,-45 -130,-60 -130,-30 -175,-80 -60,-60 -105,-205 l 535,45 175,35 250,30 315,45 30,5 M 3205,465 l 145,30 45,25 35,25 5,5 10,5 5,5 v 105 20 l -5,20 v 25 q 0,125 -170,605 -100,295 -155,405 l -50,75 -35,-5 -15,50 -30,-10 -30,-5 -505,-115 -290,-55 -125,-25 -105,-20 -585,-95 -10,-45 1310,125 215,25 v -5 l 55,10 q 75,0 190,-305 125,-335 125,-675 0,-115 -30,-200 m -475,3015 5,165 -20,20 h 15 v 10 l -30,-10 -1010,120 -655,120 -185,40 h -5 l -35,5 -245,15 -10,15 -55,5 -80,-85 60,-15 q 335,-95 790,-155 l 1460,-250 m 150,-2080 v 5 l -5,40 5,-45 m -105,2045 5,-25 h 55 l 415,50 q 370,85 370,290 l -20,55 -250,-25 175,-20 v -25 l -445,-35 -200,-10 v -5 h -10 q -65,-15 -85,-90 v 45 l -15,-65 -10,-75 5,5 10,20 v -90 m 2400,3005 240,-395 q 520,-825 720,-1005 55,-50 85,-50 145,0 145,140 l -30,55 -145,265 q 345,-90 935,-90 l 250,-10 -50,70 -55,85 -100,150 v -5 h -5 l -85,80 -625,40 -410,-65 -320,-70 v 15 l 305,80 200,55 430,50 260,-25 40,20 -395,395 -55,55 -175,150 -5,5 -60,55 -160,215 -75,85 -80,65 v -10 l -20,20 -20,-5 -15,-25 -15,15 -70,-20 -280,-90 q -60,-30 -115,-65 -165,-100 -245,-235 m -1590,870 725,-360 805,-400 35,-20 290,170 25,10 370,215 v 25 h 15 l -15,15 h -5 l -65,55 -65,15 q -420,245 -985,485 l -150,65 -50,20 -45,-10 -45,10 q -175,0 -360,-60 -180,-55 -365,-160 l -115,-75 M 1150,6165 1450,5990 q 1235,-685 1555,-755 l 20,115 v 20 l 175,110 q -5,40 -25,40 l -55,-15 30,20 -110,15 -35,25 q -85,10 -585,210 l -105,55 q -365,200 -610,360 l -140,95 -30,20 h -5 q -65,0 -105,-40 l -155,-40 -120,-60"
     fill="#2c2c27"
     fill-rule="evenodd"
     stroke="none"
     id="path6"
     style="stroke-width:100" />
  <defs
     id="defs44">
    <linearGradient
       gradientTransform="matrix(0.96,-3.51,1.5,0.42,7055,-340)"
       gradientUnits="userSpaceOnUse"
       id="gradient0"
       spreadMethod="pad"
       x1="-819.2"
       x2="819.2">
      <stop
         offset="0.0"
         stop-color="#635b58"
         id="stop34" />
      <stop
         offset="1.0"
         stop-color="#d3cebc"
         id="stop36" />
    </linearGradient>
    <linearGradient
       gradientTransform="matrix(0.67,-2.44,1.04,0.29,7035,725)"
       gradientUnits="userSpaceOnUse"
       id="gradient1"
       spreadMethod="pad"
       x1="-819.2"
       x2="819.2">
      <stop
         offset="0.0"
         stop-color="#635b58"
         id="stop39" />
      <stop
         offset="1.0"
         stop-color="#d3cebc"
         id="stop41" />
    </linearGradient>
  </defs>
</svg>
