<?xml version="1.0" encoding="UTF-8" standalone="no"?>
<svg
   xmlns:dc="http://purl.org/dc/elements/1.1/"
   xmlns:cc="http://creativecommons.org/ns#"
   xmlns:rdf="http://www.w3.org/1999/02/22-rdf-syntax-ns#"
   xmlns:svg="http://www.w3.org/2000/svg"
   xmlns="http://www.w3.org/2000/svg"
   xmlns:sodipodi="http://sodipodi.sourceforge.net/DTD/sodipodi-0.dtd"
   xmlns:inkscape="http://www.inkscape.org/namespaces/inkscape"
   height="6700.0px"
   width="6445.0px"
   version="1.1"
   id="svg41"
   sodipodi:docname="1383.svg"
   inkscape:version="1.0.2-2 (e86c870879, 2021-01-15)">
  <metadata
     id="metadata45">
    <rdf:RDF>
      <cc:Work
         rdf:about="">
        <dc:format>image/svg+xml</dc:format>
        <dc:type
           rdf:resource="http://purl.org/dc/dcmitype/StillImage" />
      </cc:Work>
    </rdf:RDF>
  </metadata>
  <sodipodi:namedview
     pagecolor="#ffffff"
     bordercolor="#666666"
     borderopacity="1"
     objecttolerance="10"
     gridtolerance="10"
     guidetolerance="10"
     inkscape:pageopacity="0"
     inkscape:pageshadow="2"
     inkscape:window-width="1920"
     inkscape:window-height="1017"
     id="namedview43"
     showgrid="false"
     inkscape:zoom="0.12686567"
     inkscape:cx="3222.5"
     inkscape:cy="3350"
     inkscape:window-x="-8"
     inkscape:window-y="-8"
     inkscape:window-maximized="1"
     inkscape:current-layer="svg41" />
  <path
     d="m 745,555 25,-10 Q 1455,260 1985,125 v -5 l 365,-120 245,75 230,65 q 390,175 920,375 l 15,5 v 40 q 430,295 810,710 l -20,50 -50,15 -610,-360 15,30 q 230,485 240,825 l -25,755 q -120,1710 -605,2640 -430,820 -990,820 -380,0 -975,-190 -5,65 -65,80 l -385,-190 -10,45 q -30,-60 -80,-75 l 5,-10 -355,-150 -10,-20 -15,-80 -30,-50 Q 510,5195 480,4525 L 455,4395 Q 320,4350 205,3635 l -90,-675 -5,-5 -30,-255 -50,-240 -20,-55 -10,-295 20,-640 55,-185 210,-65 15,-25 20,15 190,-70 160,-30 q 35,-20 55,-65 l -15,-140 5,-100 -30,-95 q 5,-75 50,-120 v -30 l 10,-5 m 470,35 -85,40 -60,20 -15,-5 -120,60 q 0,90 -15,165 l 10,160 v 45 l 25,10 q 0,80 140,105 l 305,-5 h 55 l 50,25 20,10 310,190 45,15 -80,-220 v -10 l -10,-40 h -5 v -10 l 15,-15 -10,-20 h -15 l -115,-605 -10,-35 q 55,0 410,-130 l 250,-80 -15,-15 -50,-5 q -100,0 -620,190 l -15,5 -45,20 -240,90 -115,45 h 5 m -940,900 q -40,145 -45,315 -5,340 55,725 l 40,220 355,160 525,200 45,5 -5,-5 100,-15 275,35 325,40 35,30 h 20 l 580,-15 75,10 40,30 -305,55 -305,20 -320,-10 50,25 q 325,180 595,470 l -50,55 -45,20 q -35,0 -410,-255 l -600,-420 -115,-40 -610,-195 -170,-80 -30,60 10,20 -15,-5 10,140 v 185 30 l 35,410 55,250 95,315 45,15 h 5 q 55,80 440,235 340,135 515,165 l 540,230 10,30 -95,25 q -85,0 -700,-250 l -130,-50 -115,-70 Q 775,4420 700,4420 l -40,5 -15,-10 h -5 l -10,170 35,265 10,170 60,240 85,95 55,15 260,145 15,15 15,5 35,10 q 260,115 445,125 v -15 l 75,15 q 615,140 810,140 460,0 835,-850 410,-900 525,-2355 l 30,-810 -65,-350 -10,-30 -80,-245 -10,-15 -5,-15 Q 3675,935 3580,790 2965,450 2570,345 l -115,-60 -10,5 h -15 l -25,5 -15,5 -15,5 q -255,60 -585,200 l -80,35 150,610 5,15 5,15 v 10 l 75,205 5,-5 30,40 80,100 10,45 25,-10 10,10 -15,-5 -10,35 v 20 l -5,5 v 5 l -50,120 q -60,140 -150,140 -160,0 -45,-300 l -385,-80 -895,-120 -275,95 m 2055,130 -10,10 5,-10 5,-10 v 10 M 280,1560 h 15 25 v 10 l -40,-10 m 1140,-290 -100,-50 -415,45 110,70 q 330,155 680,155 l 45,-5 10,-20 v -25 q -80,-30 -330,-170"
     fill="#000000"
     fill-rule="evenodd"
     stroke="none"
     id="path2"
     style="stroke-width:100" />
  <path
     d="m 1455,1185 h -55 l -305,5 Q 955,1165 955,1085 l -25,-10 v -45 L 920,870 q 15,-75 15,-165 l 120,-60 15,5 60,-20 85,-40 445,-85 115,605 h 15 l 10,20 -15,15 v 10 l -15,-5 -250,35 h -65 M 275,1490 v 5 l 395,145 455,145 q 1500,405 1860,405 l 135,-10 q 135,-45 135,-190 5,-55 -325,-95 l -435,-50 q -75,-125 -175,-215 l 10,-10 345,50 q 70,0 145,-75 70,-80 115,-80 l 350,55 170,-20 q 125,70 150,70 l 265,-95 -15,-80 65,350 -30,810 q -115,1455 -525,2355 -375,850 -835,850 -195,0 -810,-140 l -75,-15 v 15 q -185,-10 -445,-125 l -35,-10 -15,-5 -15,-15 -260,-145 -55,-15 -85,-95 -60,-240 -10,-170 -35,-265 10,-170 h 5 l 15,10 40,-5 q 75,0 385,185 l 115,70 130,50 q 615,250 700,250 l 95,-25 -10,-30 -540,-230 Q 1400,4660 1060,4525 675,4370 620,4290 h -5 l -45,-15 -95,-315 -55,-250 -35,-410 v -30 -185 l -10,-140 15,5 -10,-20 30,-60 170,80 610,195 115,40 600,420 q 375,255 410,255 l 45,-20 50,-55 q -270,-290 -595,-470 l -50,-25 320,10 305,-20 305,-55 -40,-30 -75,-10 -580,15 h -20 l -35,-30 -325,-40 -275,-35 -100,15 5,5 -45,-5 -525,-200 -355,-160 -40,-220 q -60,-385 -55,-725 5,-170 45,-315 m 2045,140 v -5 l -10,-5 h 15 l -5,10 m -2040,-70 40,10 v -10 h -25 -15 m 1580,-410 -150,-610 80,-35 345,210 805,515 35,25 -30,-20 -175,-25 -910,-60"
     fill="#52524b"
     fill-rule="evenodd"
     stroke="none"
     id="path4"
     style="stroke-width:100" />
  <path
     d="m 1455,1185 h 65 l 250,-35 15,5 h 5 l 10,40 v 10 l 80,220 -45,-15 -310,-190 -20,-10 -50,-25 m 205,-680 -445,85 h -5 l 115,-45 240,-90 45,-20 15,-5 q 520,-190 620,-190 l 50,5 15,15 -250,80 q -355,130 -410,130 l 10,35 m 660,1125 q 100,90 175,215 l 435,50 q 330,40 325,95 0,145 -135,190 l -135,10 q -360,0 -1860,-405 L 670,1640 275,1495 v -5 l 275,-95 895,120 385,80 q -115,300 45,300 90,0 150,-140 l 50,-120 v -5 l 5,-5 v -20 l 10,-35 15,5 -10,-10 -25,10 -10,-45 -80,-100 -30,-40 -5,5 -75,-205 v -10 l -5,-15 -5,-15 910,60 175,25 30,20 -35,-25 -805,-515 -345,-210 q 330,-140 585,-200 l 15,-5 15,-5 25,-5 h 15 l 10,-5 115,60 q 395,105 1010,445 95,145 170,350 l 5,15 10,15 80,245 10,30 15,80 -265,95 q -25,0 -150,-70 l -170,20 -350,-55 q -45,0 -115,80 -75,75 -145,75 l -345,-50 v -10 l -5,10 h -15 l 10,5 v 5 m -900,-360 q 250,140 330,170 v 25 l -10,20 -45,5 q -350,0 -680,-155 l -110,-70 415,-45 100,50"
     fill="#2c2c27"
     fill-rule="evenodd"
     stroke="none"
     id="path6"
     style="stroke-width:100" />
  <defs
     id="defs39">
    <linearGradient
       gradientTransform="matrix(1.22,-3.54,1.52,0.53,4320,755)"
       gradientUnits="userSpaceOnUse"
       id="gradient0"
       spreadMethod="pad"
       x1="-819.2"
       x2="819.2">
      <stop
         offset="0.0"
         stop-color="#635b58"
         id="stop34" />
      <stop
         offset="1.0"
         stop-color="#d3cebc"
         id="stop36" />
    </linearGradient>
  </defs>
</svg>
