<?xml version="1.0" encoding="UTF-8" standalone="no"?>
<svg
   xmlns:dc="http://purl.org/dc/elements/1.1/"
   xmlns:cc="http://creativecommons.org/ns#"
   xmlns:rdf="http://www.w3.org/1999/02/22-rdf-syntax-ns#"
   xmlns:svg="http://www.w3.org/2000/svg"
   xmlns="http://www.w3.org/2000/svg"
   xmlns:sodipodi="http://sodipodi.sourceforge.net/DTD/sodipodi-0.dtd"
   xmlns:inkscape="http://www.inkscape.org/namespaces/inkscape"
   height="6375.0px"
   width="6935.0px"
   version="1.1"
   id="svg45"
   sodipodi:docname="1397.svg"
   inkscape:version="1.0.2-2 (e86c870879, 2021-01-15)">
  <metadata
     id="metadata49">
    <rdf:RDF>
      <cc:Work
         rdf:about="">
        <dc:format>image/svg+xml</dc:format>
        <dc:type
           rdf:resource="http://purl.org/dc/dcmitype/StillImage" />
      </cc:Work>
    </rdf:RDF>
  </metadata>
  <sodipodi:namedview
     pagecolor="#ffffff"
     bordercolor="#666666"
     borderopacity="1"
     objecttolerance="10"
     gridtolerance="10"
     guidetolerance="10"
     inkscape:pageopacity="0"
     inkscape:pageshadow="2"
     inkscape:window-width="1920"
     inkscape:window-height="1017"
     id="namedview47"
     showgrid="false"
     inkscape:zoom="0.13333333"
     inkscape:cx="3467.5"
     inkscape:cy="3187.5"
     inkscape:window-x="-8"
     inkscape:window-y="-8"
     inkscape:window-maximized="1"
     inkscape:current-layer="svg45" />
  <path
     d="m 3720,1020 20,220 q 0,150 -55,555 l -55,465 q 0,910 -375,2080 -430,1345 -950,1345 l -365,-95 -20,40 q -20,30 -60,30 h -20 q -75,-20 -210,-120 l -110,-85 -15,15 -840,-560 -165,-95 -100,-100 -15,-95 -15,-80 v -5 l -5,-50 35,-305 10,-85 85,-420 20,-40 Q 405,3495 255,3195 0,2695 0,2580 q 0,-85 370,-370 240,-190 355,-250 20,0 25,-10 l 10,-10 105,-375 65,-20 180,-25 h 5 l 10,-75 q 0,-100 130,-500 l 35,-105 25,-165 20,-80 25,-50 10,-35 250,-105 315,-65 575,-85 55,10 15,-10 265,55 220,60 140,35 60,-10 140,35 q 460,-300 575,-300 l 40,5 v -5 l 40,10 10,70 q 0,45 -85,90 -40,25 -70,35 l -10,15 -100,50 -60,30 -120,95 10,10 v 15 h -40 l -10,5 q 60,25 80,50 l 10,15 -30,10 -60,-5 65,150 20,50 -315,-85 -70,-20 -220,-75 -20,-10 -105,-40 -75,-30 q -255,-95 -415,-90 l -265,30 -10,40 15,10 80,65 250,70 265,80 100,40 10,5 20,-10 225,80 20,5 -60,45 -320,-110 -330,-85 -40,-10 -205,-65 -85,-25 h -35 l -195,-25 -115,-20 h -15 l -20,10 -155,50 -25,30 -25,30 -15,15 -15,15 -75,300 q -75,325 -85,600 l 55,110 105,105 205,140 460,320 650,435 v 20 l -70,-5 q -205,-40 -490,-225 l -40,-30 -50,-35 -190,-150 -320,-275 -10,15 -185,-145 -145,-150 -50,-55 -10,-10 -80,-5 v -35 l -55,25 -60,40 -45,40 -25,30 -10,15 -25,60 h -5 l -85,295 -110,475 -30,220 5,10 5,5 75,130 80,75 240,185 155,120 5,5 30,25 30,20 50,35 255,170 10,-5 -5,-5 h 10 l 40,-70 v 10 l -40,55 60,40 35,35 q 90,50 95,65 l -5,15 45,40 -55,-25 -85,-45 -85,-55 -10,-5 -25,-20 -25,-20 -320,-190 -10,5 v 10 l -85,-70 -30,-15 -150,-95 -170,25 -15,25 -10,15 -20,30 -5,5 -10,15 -40,70 -35,50 -30,180 -5,35 -5,30 -30,345 -5,125 -5,135 -5,215 v 5 l 45,45 15,20 50,35 360,240 20,-10 q 10,0 10,35 l 120,80 q 155,60 435,200 l 35,-35 -10,50 -15,20 265,85 q 265,95 325,95 165,0 490,-600 305,-560 305,-705 l 155,-555 q 155,-640 155,-1090 l 40,-445 40,-445 35,-285 60,-10 q 95,-25 95,-90 0,-15 -140,-70 l -25,-175 155,30 65,-10 m -2050,2625 -10,10 40,20 -30,-30 M 650,2570 l 15,-55 75,-365 -180,130 -145,115 q -195,160 -195,210 l 15,65 q 55,170 345,670 l 30,45 25,-95 5,-10 165,-60 -60,-85 h -15 v -20 l -40,-25 -85,-65 20,-175 5,-180 20,-100 m 1255,-2015 -20,5 h 5 l 50,10 -30,-15 h -5 m -345,4715 25,15 h 10 l -35,-15"
     fill="#000000"
     fill-rule="evenodd"
     stroke="none"
     id="path2"
     style="stroke-width:100" />
  <path
     d="m 3500,1000 25,175 -50,-20 20,-35 -395,-185 60,-45 340,110 m 10,345 -35,285 -40,445 -40,445 q 0,450 -155,1090 l -155,555 q 0,145 -305,705 -325,600 -490,600 -60,0 -325,-95 l -265,-85 15,-20 10,-50 -35,35 q -280,-140 -435,-200 l -120,-80 q 0,-35 -10,-35 l -20,10 -360,-240 -50,-35 -15,-20 -45,-45 v -5 l 5,-215 5,-135 5,-125 30,-345 5,-30 5,-35 30,-180 35,-50 40,-70 10,-15 35,25 q 220,125 500,285 l 180,100 45,25 5,-20 25,20 q 150,135 275,165 l 40,-15 -100,-140 10,-5 q -10,-45 -55,-85 l 85,45 55,25 -45,-40 5,-15 q -5,-15 -95,-65 l -35,-35 -60,-40 40,-55 v -10 l -40,70 h -10 l 5,5 -10,5 -255,-170 -50,-35 -30,-20 -30,-25 -5,-5 -95,-75 -40,-30 70,35 -90,-50 -240,-185 -80,-75 -75,-130 -5,-5 -5,-10 30,-220 110,-475 85,-295 h 5 l 25,-60 q 115,140 510,390 885,565 1310,565 l -55,-5 70,5 q 290,-20 290,-120 0,-55 -370,-160 l -570,-175 -460,-320 -205,-140 -105,-105 -55,-110 q 10,-275 85,-600 l 75,-300 15,-15 135,90 365,270 125,70 125,80 q 280,230 545,295 245,120 330,120 50,0 85,-35 l -10,-25 -110,-50 q 45,-30 45,-105 l -25,-65 -45,-55 35,-55 350,80 h 40 m -3275,1325 375,-90 40,-10 -20,100 -5,180 -20,175 85,65 40,25 v 20 h 15 l 60,85 -165,60 -5,10 -25,95 -30,-45 Q 290,2840 235,2670"
     fill="#52524b"
     fill-rule="evenodd"
     stroke="none"
     id="path8"
     style="stroke-width:100" />
  <path
     d="m 3670,825 210,80 v 25 l -20,10 -55,5 -105,-5 45,20 10,35 -35,25 -65,10 -155,-30 -340,-110 -20,-5 -225,-80 -20,10 -10,-5 -100,-40 -265,-80 -250,-70 -80,-65 -15,-10 10,-40 265,-30 q 160,-5 415,90 l 75,30 105,40 20,10 220,75 70,20 315,85 m -145,350 q 140,55 140,70 0,65 -95,90 l -60,10 h -40 l -350,-80 -35,55 45,55 25,65 q 0,75 -45,105 l 110,50 10,25 q -35,35 -85,35 -85,0 -330,-120 -265,-65 -545,-295 l -125,-80 -125,-70 -365,-270 -135,-90 15,-15 25,-30 25,-30 155,-50 20,-10 h 15 l 115,20 195,25 h 35 l 85,25 205,65 40,10 330,85 320,110 395,185 -20,35 50,20 m -2720,2230 5,-5 20,-30 10,-15 15,-25 170,-25 150,95 30,15 85,70 v -10 l 10,-5 320,190 25,20 -10,5 45,20 85,55 q 45,40 55,85 l -10,5 100,140 -40,15 q -125,-30 -275,-165 l -25,-20 -5,20 -45,-25 -180,-100 Q 1060,3555 840,3430 l -35,-25 m 180,-1585 10,-15 25,-30 45,-40 60,-40 55,-25 v 35 l 80,5 10,10 50,55 145,150 185,145 10,-15 320,275 190,150 50,35 40,30 q 285,185 490,225 l 55,5 q -425,0 -1310,-565 -395,-250 -510,-390 m 1835,955 v -20 l -650,-435 570,175 q 370,105 370,160 0,100 -290,120 M 235,2670 220,2605 q 0,-50 195,-210 l 145,-115 180,-130 -75,365 -15,55 -40,10 -375,90"
     fill="#2c2c27"
     fill-rule="evenodd"
     stroke="none"
     id="path10"
     style="stroke-width:100" />
  <defs
     id="defs43">
    <linearGradient
       gradientTransform="matrix(1.22,-3.54,1.52,0.53,6485,775)"
       gradientUnits="userSpaceOnUse"
       id="gradient0"
       spreadMethod="pad"
       x1="-819.2"
       x2="819.2">
      <stop
         offset="0.0"
         stop-color="#635b58"
         id="stop38" />
      <stop
         offset="1.0"
         stop-color="#d3cebc"
         id="stop40" />
    </linearGradient>
  </defs>
</svg>
