<?xml version="1.0" encoding="UTF-8" standalone="no"?>
<svg
   xmlns:dc="http://purl.org/dc/elements/1.1/"
   xmlns:cc="http://creativecommons.org/ns#"
   xmlns:rdf="http://www.w3.org/1999/02/22-rdf-syntax-ns#"
   xmlns:svg="http://www.w3.org/2000/svg"
   xmlns="http://www.w3.org/2000/svg"
   xmlns:sodipodi="http://sodipodi.sourceforge.net/DTD/sodipodi-0.dtd"
   xmlns:inkscape="http://www.inkscape.org/namespaces/inkscape"
   height="6625.0px"
   width="6580.0px"
   version="1.1"
   id="svg41"
   sodipodi:docname="1411.svg"
   inkscape:version="1.0.2-2 (e86c870879, 2021-01-15)">
  <metadata
     id="metadata45">
    <rdf:RDF>
      <cc:Work
         rdf:about="">
        <dc:format>image/svg+xml</dc:format>
        <dc:type
           rdf:resource="http://purl.org/dc/dcmitype/StillImage" />
      </cc:Work>
    </rdf:RDF>
  </metadata>
  <sodipodi:namedview
     pagecolor="#ffffff"
     bordercolor="#666666"
     borderopacity="1"
     objecttolerance="10"
     gridtolerance="10"
     guidetolerance="10"
     inkscape:pageopacity="0"
     inkscape:pageshadow="2"
     inkscape:window-width="1920"
     inkscape:window-height="1017"
     id="namedview43"
     showgrid="false"
     inkscape:zoom="0.12830189"
     inkscape:cx="3290"
     inkscape:cy="3312.5"
     inkscape:window-x="-8"
     inkscape:window-y="-8"
     inkscape:window-maximized="1"
     inkscape:current-layer="svg41" />
  <path
     d="m 4985,1655 -170,-160 q 5,115 -95,115 l -25,-15 -10,10 q -95,185 -160,250 l 10,30 -30,135 -225,695 q -165,465 -340,860 l -120,315 q -310,760 -690,1220 -570,705 -1120,580 -375,-90 -920,-410 -20,65 -85,70 l -340,-275 -50,65 -55,50 q -40,-60 -10,-115 l 35,-60 -325,-235 v -25 l -5,-75 -20,-45 q -60,-200 20,-745 l 15,-145 -5,-125 -35,-45 q -80,-145 -20,-720 l 105,-650 v -10 l -5,-10 45,-235 5,-230 v -50 l 70,-265 200,-575 95,-150 230,-10 25,-30 10,25 200,-30 160,10 q 40,-20 70,-50 l 30,-130 35,-95 -5,-85 70,-100 20,-30 h 10 l 25,-5 1285,-115 385,-35 220,120 200,110 780,520 15,10 -10,35 q 345,355 585,815 l -30,40 -50,5 M 885,900 h -15 l -5,5 5,5 -130,265 q -100,310 -145,665 l -25,205 50,35 -5,20 q 625,645 1005,960 l -305,-180 -195,-180 -485,-440 20,45 -75,-85 -5,5 5,20 -10,-10 -5,-5 -25,135 -45,180 -15,25 -65,410 -20,235 q 20,235 10,315 l 45,25 5,5 10,15 370,300 30,15 q 290,195 455,260 l 490,355 5,25 -105,5 q -80,-20 -645,-410 l -115,-75 -100,-90 -75,-70 Q 570,3715 510,3700 l -40,-5 -15,-15 h -5 l -40,160 v 50 l -15,210 -20,170 15,250 65,110 q 30,10 55,30 l 225,190 15,15 15,15 q 10,5 30,20 240,170 415,220 v -15 l 75,35 q 580,275 775,320 450,100 970,-645 280,-385 520,-925 l 130,-315 q 195,-405 370,-885 l 245,-750 35,-200 5,-95 -5,-30 v -30 l -5,-195 150,325 115,-260 -10,-15 Q 4465,1055 3970,690 3545,365 3360,325 l -60,-45 -10,-5 h -15 l -25,5 -15,-5 -20,5 h -100 l -515,45 -70,15 h -20 l -15,565 5,25 v 15 l -10,15 v 5 l 20,195 h 5 l 5,10 -10,75 q -15,190 30,440 l -90,95 q -160,145 -220,145 h -45 l -25,-10 v -5 l 35,-160 120,-95 q 145,-130 140,-215 l -30,-45 5,-20 q -20,-85 -145,-85 h -10 L 1990,1170 Q 1555,970 1165,870 l -280,30 m 1585,-550 5,-35 v -15 l -5,-35 430,-15 265,-20 -5,-20 -55,-15 -645,40 h -20 l -40,10 -265,20 -110,20 -100,15 -65,10 -10,-10 -35,10 -95,25 -60,145 -35,150 -10,35 20,15 q -10,35 15,60 l 10,10 v 5 l 20,20 35,20 25,10 295,65 55,5 40,35 25,15 250,230 30,25 -20,-210 5,-10 v -40 l -5,-5 5,-5 15,-10 5,-20 v -5 h -15 l 45,-525 m -925,485 80,85 q 265,210 610,280 l 50,5 15,-15 5,-25 -270,-225 -90,-60 -400,-45 m 170,1855 q 185,75 305,100 l 25,45 20,-5 565,115 70,30 40,35 -310,-10 -305,-45 -305,-90 45,35 q 260,245 450,570 l -65,45 -45,10 -210,-205 q 70,35 115,35 l 45,-5 -5,-10 -5,-60 -720,-600 -170,-145 65,40 45,15 -5,-5 100,10 255,95"
     fill="#000000"
     fill-rule="evenodd"
     stroke="none"
     id="path2"
     style="stroke-width:100" />
  <path
     d="m 4330,1740 -35,200 -245,750 q -175,480 -370,885 l -130,315 q -240,540 -520,925 -520,745 -970,645 -195,-45 -775,-320 l -75,-35 v 15 q -175,-50 -415,-220 -20,-15 -30,-20 l -15,-15 -15,-15 -225,-190 q -25,-20 -55,-30 l -65,-110 -15,-250 20,-170 15,-210 v -50 l 40,-160 h 5 l 15,15 40,5 q 60,15 265,190 l 75,70 100,90 115,75 q 565,390 645,410 l 105,-5 -5,-25 -490,-355 q -165,-65 -455,-260 l -30,-15 -370,-300 -10,-15 -5,-5 -45,-25 q 10,-80 -10,-315 l 20,-235 65,-410 15,-25 45,-180 25,-135 5,5 10,10 -5,-20 5,-5 75,85 -20,-45 485,440 195,180 305,180 Q 1240,2745 615,2100 l 5,-20 -50,-35 25,-205 q 45,-355 145,-665 l 130,-265 -5,-5 5,-5 h 15 q 250,330 780,695 l 495,315 v 5 l 25,10 q 440,250 655,250 h 90 q 85,-25 80,-135 0,-85 -280,-230 l 110,-25 455,250 180,90 25,140 q 60,290 190,290 l 75,-15 q 70,-50 65,-230 l -5,-45 v -5 l 160,25 60,-15 75,-35 -345,-220 -75,-210 q 40,-5 125,-90 20,50 120,100 90,45 135,45 30,0 40,-40 l 95,-185 20,15 95,90 M 1815,310 l 360,25 295,15 -45,525 h 15 v 5 L 2325,855 1650,740 q -25,-25 -15,-60 l -20,-15 10,-35 35,-150 60,-145 95,-25 m 715,30 25,20 265,330 q 210,310 400,690 l -395,-340 -330,-135 15,-565 h 20 m -815,2350 -255,-95 -100,-10 5,5 -45,-15 -65,-40 170,145 720,600 5,60 5,10 -45,5 q -45,0 -115,-35 l 210,205 45,-10 65,-45 q -190,-325 -450,-570 l -45,-35 305,90 305,45 310,10 -40,-35 -70,-30 -565,-115 -20,5 -25,-45 q -120,-25 -305,-100"
     fill="#52524b"
     fill-rule="evenodd"
     stroke="none"
     id="path4"
     style="stroke-width:100" />
  <path
     d="m 4330,1740 -95,-90 -20,-15 -95,185 q -10,40 -40,40 -45,0 -135,-45 -100,-50 -120,-100 -85,85 -125,90 l 75,210 345,220 -75,35 -60,15 -160,-25 v 5 l 5,45 q 5,180 -65,230 l -75,15 q -130,0 -190,-290 l -25,-140 -180,-90 -455,-250 -110,25 q 280,145 280,230 5,110 -80,135 h -90 q -215,0 -655,-250 h 45 q 60,0 220,-145 l 90,-95 q -45,-250 -30,-440 l 10,-75 -5,-10 h -5 l -20,-195 v -5 l 10,-15 v -15 l -5,-25 330,135 395,340 Q 3030,1000 2820,690 l -265,-330 -25,-20 70,-15 515,-45 h 100 l 20,-5 15,5 25,-5 h 15 l 10,5 60,45 q 185,40 610,365 495,365 610,750 l 10,15 -115,260 -150,-325 5,195 v 30 l 5,30 -5,95 M 2160,1910 1665,1595 Q 1135,1230 885,900 l 280,-30 q 390,100 825,300 l 285,120 h 10 q 125,0 145,85 l -5,20 30,45 q 5,85 -140,215 l -120,95 -35,160 m -345,-1600 35,-10 10,10 65,-10 100,-15 110,-20 265,-20 40,-10 h 20 l 645,-40 55,15 5,20 -265,20 -430,15 5,35 v 15 l -5,35 -295,-15 -360,-25 m 625,570 -5,20 -15,10 -5,5 5,5 v 40 l -5,10 20,210 -30,-25 -250,-230 -25,-15 -40,-35 -55,-5 -295,-65 -25,-10 -35,-20 -20,-20 v -5 l -10,-10 675,115 115,25 m -895,-45 400,45 90,60 270,225 -5,25 -15,15 -50,-5 q -345,-70 -610,-280 l -80,-85"
     fill="#2c2c27"
     fill-rule="evenodd"
     stroke="none"
     id="path6"
     style="stroke-width:100" />
  <defs
     id="defs39">
    <linearGradient
       gradientTransform="matrix(0.94,-3.38,1.47,0.41,5011.7647,3649.4118)"
       gradientUnits="userSpaceOnUse"
       id="gradient0"
       spreadMethod="pad"
       x1="-819.2"
       x2="819.2">
      <stop
         offset="0.0"
         stop-color="#635b58"
         id="stop34" />
      <stop
         offset="1.0"
         stop-color="#d3cebc"
         id="stop36" />
    </linearGradient>
  </defs>
</svg>
