<?xml version="1.0" encoding="UTF-8" standalone="no"?>
<svg
   xmlns:dc="http://purl.org/dc/elements/1.1/"
   xmlns:cc="http://creativecommons.org/ns#"
   xmlns:rdf="http://www.w3.org/1999/02/22-rdf-syntax-ns#"
   xmlns:svg="http://www.w3.org/2000/svg"
   xmlns="http://www.w3.org/2000/svg"
   xmlns:sodipodi="http://sodipodi.sourceforge.net/DTD/sodipodi-0.dtd"
   xmlns:inkscape="http://www.inkscape.org/namespaces/inkscape"
   height="6140.0px"
   width="6535.0px"
   version="1.1"
   id="svg41"
   sodipodi:docname="1425.svg"
   inkscape:version="1.0.2-2 (e86c870879, 2021-01-15)">
  <metadata
     id="metadata45">
    <rdf:RDF>
      <cc:Work
         rdf:about="">
        <dc:format>image/svg+xml</dc:format>
        <dc:type
           rdf:resource="http://purl.org/dc/dcmitype/StillImage" />
      </cc:Work>
    </rdf:RDF>
  </metadata>
  <sodipodi:namedview
     pagecolor="#ffffff"
     bordercolor="#666666"
     borderopacity="1"
     objecttolerance="10"
     gridtolerance="10"
     guidetolerance="10"
     inkscape:pageopacity="0"
     inkscape:pageshadow="2"
     inkscape:window-width="1920"
     inkscape:window-height="1017"
     id="namedview43"
     showgrid="false"
     inkscape:zoom="0.13843648"
     inkscape:cx="3267.5"
     inkscape:cy="3070"
     inkscape:window-x="-8"
     inkscape:window-y="-8"
     inkscape:window-maximized="1"
     inkscape:current-layer="svg41" />
  <path
     d="m 400,2270 h 20 v -15 l 175,-895 q 40,-310 180,-330 h 125 40 Q 955,790 1105,575 1200,145 1370,0 l 1175,175 150,40 300,90 q 70,35 160,200 l 30,65 65,180 55,125 50,-20 35,130 -35,5 55,140 65,195 15,35 q 110,255 110,535 0,625 -445,1460 -390,730 -810,1105 -45,35 -625,310 -630,300 -720,300 -60,0 -90,-40 Q 750,5005 340,4210 40,3630 65,3465 55,3290 95,2960 180,2270 400,2270 M 1530,240 h -10 l -200,300 q -195,365 -195,540 l 15,110 q 60,160 130,450 l 155,375 140,320 q 0,70 -45,100 l -50,10 -50,-10 -95,-230 -75,-380 q -110,-505 -230,-650 l -55,30 q -135,70 -190,250 -65,240 -135,745 -25,170 -65,240 165,395 510,880 l 635,860 v 15 Q 1450,3990 990,3305 L 430,2480 q -60,25 -70,100 -75,790 -110,960 110,170 305,535 250,460 355,725 l 35,-5 q 30,0 110,45 l 110,40 q 130,0 680,-295 510,-280 580,-350 310,-310 640,-985 385,-790 385,-1340 0,-210 -70,-445 -35,0 -80,-75 l -105,-205 -15,-30 -55,-135 q -35,50 -110,90 l -90,50 25,25 v 60 l 5,10 -5,5 -5,35 5,10 -5,5 170,235 200,285 -20,20 -170,-260 -200,-275 h -15 q -165,0 -240,-150 -45,-95 -40,-180 l -20,-60 -370,-410 -95,-55 -195,-145 q -65,-60 -180,-65 h -5 l -235,-10 m 865,235 -20,95 225,275 v -20 l 95,65 q 45,30 80,30 l 105,-40 q 95,-55 115,-140 l 30,-10 -5,-20 Q 2970,520 2830,455 l -245,-65 -90,-20 -85,90 -15,15 m 420,520 5,-5 h -5 v 5"
     fill="#000000"
     fill-rule="evenodd"
     stroke="none"
     id="path2"
     style="stroke-width:100" />
  <path
     d="m 3300,1390 q 45,75 80,75 70,235 70,445 0,550 -385,1340 -330,675 -640,985 -70,70 -580,350 -550,295 -680,295 l -110,-40 q -80,-45 -110,-45 l -35,5 Q 805,4535 555,4075 360,3710 250,3540 q 35,-170 110,-960 10,-75 70,-100 l 560,825 q 460,685 730,890 v -15 l -635,-860 q -345,-485 -510,-880 40,-70 65,-240 70,-505 135,-745 55,-180 190,-250 l 55,-30 q 120,145 230,650 l 75,380 95,230 50,10 50,-10 q 45,-30 45,-100 l -140,-320 -155,-375 q -70,-290 -130,-450 l -15,-110 q 0,-175 195,-540 l 200,-300 h 10 l 285,425 q 780,1085 955,1085 l 80,-20 q 70,-40 70,-145 l -10,-70 -25,-60 h 15 l 120,90 105,45 170,260 20,-20 -200,-285 30,40 150,-130 30,-25 -25,-40"
     fill="#52524b"
     fill-rule="evenodd"
     stroke="none"
     id="path4"
     style="stroke-width:100" />
  <path
     d="m 3300,1390 25,40 -30,25 -150,130 -30,-40 -170,-235 5,-5 -5,-10 5,-35 5,-5 -5,-10 v -60 l -25,-25 90,-50 q 75,-40 110,-90 l 55,135 15,30 105,205 m -175,200 -105,-45 -120,-90 h -15 l 25,60 10,70 q 0,105 -70,145 l -80,20 q -175,0 -955,-1085 l -285,-425 235,10 h 5 q 115,5 180,65 l 195,145 95,55 370,410 20,60 q -5,85 40,180 75,150 240,150 h 15 l 200,275 m -730,-1115 15,-15 85,-90 90,20 245,65 q 140,65 190,255 l 5,20 -30,10 q -20,85 -115,140 l -105,40 q -35,0 -80,-30 l -95,-65 v 20 l -225,-275 20,-95"
     fill="#2c2c27"
     fill-rule="evenodd"
     stroke="none"
     id="path6"
     style="stroke-width:100" />
  <defs
     id="defs39">
    <linearGradient
       gradientTransform="matrix(0.94,-3.38,1.47,0.41,4395,2705)"
       gradientUnits="userSpaceOnUse"
       id="gradient0"
       spreadMethod="pad"
       x1="-819.2"
       x2="819.2">
      <stop
         offset="0.0"
         stop-color="#635b58"
         id="stop34" />
      <stop
         offset="1.0"
         stop-color="#d3cebc"
         id="stop36" />
    </linearGradient>
  </defs>
</svg>
