<?xml version="1.0" encoding="UTF-8" standalone="no"?>
<svg
   xmlns:dc="http://purl.org/dc/elements/1.1/"
   xmlns:cc="http://creativecommons.org/ns#"
   xmlns:rdf="http://www.w3.org/1999/02/22-rdf-syntax-ns#"
   xmlns:svg="http://www.w3.org/2000/svg"
   xmlns="http://www.w3.org/2000/svg"
   xmlns:sodipodi="http://sodipodi.sourceforge.net/DTD/sodipodi-0.dtd"
   xmlns:inkscape="http://www.inkscape.org/namespaces/inkscape"
   height="6335.0px"
   width="5880.0px"
   version="1.1"
   id="svg33"
   sodipodi:docname="1439.svg"
   inkscape:version="1.0.2-2 (e86c870879, 2021-01-15)">
  <metadata
     id="metadata37">
    <rdf:RDF>
      <cc:Work
         rdf:about="">
        <dc:format>image/svg+xml</dc:format>
        <dc:type
           rdf:resource="http://purl.org/dc/dcmitype/StillImage" />
      </cc:Work>
    </rdf:RDF>
  </metadata>
  <sodipodi:namedview
     pagecolor="#ffffff"
     bordercolor="#666666"
     borderopacity="1"
     objecttolerance="10"
     gridtolerance="10"
     guidetolerance="10"
     inkscape:pageopacity="0"
     inkscape:pageshadow="2"
     inkscape:window-width="1920"
     inkscape:window-height="1017"
     id="namedview35"
     showgrid="false"
     inkscape:zoom="0.13417522"
     inkscape:cx="2940"
     inkscape:cy="3167.5"
     inkscape:window-x="-8"
     inkscape:window-y="-8"
     inkscape:window-maximized="1"
     inkscape:current-layer="svg33" />
  <path
     d="m 815,1800 280,-540 115,-210 30,-20 410,20 h 5 q -5,-75 30,-190 55,-180 150,-230 200,-300 600,-630 l 400,85 30,10 90,25 195,90 q 310,75 1055,625 190,60 470,280 l 150,90 80,80 230,290 40,210 v 25 l 10,45 q 15,130 15,290 l 10,170 20,300 5,10 145,290 180,290 -10,15 -25,-25 145,220 -390,-445 q -135,-165 -175,-275 l -125,30 q -320,15 -625,150 l -535,230 165,245 h 10 v 20 l 80,125 -10,20 q -5,400 -40,525 l -55,80 v 20 q 5,60 -150,100 -165,55 -285,225 l -20,50 60,130 5,5 15,70 -270,85 -650,200 -290,60 -130,-30 v -5 l -300,-495 -160,-250 -60,-95 -75,-35 v -5 l -220,-505 -120,-260 -55,-130 -10,-10 v -5 l -210,-525 -10,-30 v -30 q 0,-40 -65,-120 l -20,-25 -85,-505 -50,-205 m 635,-530 -15,-5 -5,5 -70,15 v 5 l -30,10 h -5 v 5 q -45,160 -135,350 -115,205 -165,465 l -20,25 -45,65 q -20,90 30,205 l 15,30 q -5,105 110,285 l 20,35 130,205 q 105,-240 195,-490 l 120,-290 165,-150 60,-60 55,-5 80,-10 h 165 l 280,-20 -50,-50 q -215,-265 -380,-540 l -340,-65 -55,5 -110,-25 m 1190,695 245,40 q 195,20 320,-35 l 30,-10 q 350,-165 540,-885 l 5,-10 20,-5 -105,-170 -10,-20 -5,-5 L 3535,715 3365,530 2900,340 2775,280 h -10 l -115,-25 h -15 l -45,-10 -95,20 q -150,150 -270,255 l -175,185 q -90,175 -135,365 l 125,200 70,120 295,420 170,130 35,15 30,10 m -455,895 30,-5 130,-5 35,-5 340,-40 h 5 l 510,10 170,-10 h 25 l -5,-5 85,-15 70,45 30,-180 -105,-230 q -110,-220 -195,-285 l -50,-35 v -5 l -15,-5 -20,-5 -455,-25 -300,-10 -15,-15 -240,5 -345,25 -40,-5 v 5 l -10,5 -75,20 -15,5 h 15 30 l -25,10 q -15,15 -35,20 -40,175 -140,395 -115,240 -160,515 l -45,65 -20,40 q -15,80 15,160 l 35,75 q -5,75 45,165 l 60,140 160,245 q 40,-30 40,-100 v -20 l 110,-425 70,-290 185,-220 115,-10 m 30,55 -65,40 h -35 l -70,40 -40,25 -10,75 q -135,190 -190,600 -70,520 25,520 l 65,135 95,140 60,90 145,195 85,125 10,10 105,60 h 30 l 45,-5 460,-95 155,-40 q 345,-60 345,-165 l 10,-35 30,-30 20,5 -75,-135 -250,-395 -25,-50 -5,-15 50,-185 40,-90 180,-70 h 15 l 300,-80 210,-65 5,-30 20,-10 15,-45 -25,-25 5,-30 -100,-150 -70,-110 -50,-60 -65,-70 -105,-70 -255,-45 -425,-5 -575,15 -90,30 m 2830,-1750 -10,-10 v -10 l 10,20 m -270,425 q -160,120 -485,265 -400,180 -580,180 l -320,-25 -35,45 35,20 305,615 -10,30 -25,155 25,15 100,160 95,-10 q 220,-95 435,-195 365,-160 670,-190 l 75,-105 -15,-85 q -60,-185 -95,-515 -20,-230 -115,-385 -25,15 -60,25 m -5,-125 -190,-160 -340,-205 q -90,-80 -165,-80 -150,0 -235,255 l -20,95 -45,70 -160,305 -190,230 85,5 190,10 q 155,0 605,-195 260,-115 415,-200 h -5 l 55,-130 m -840,2065 q -115,60 -300,100 -220,40 -330,120 l -20,80 v 10 l -10,35 -30,95 100,260 25,40 125,-30 210,-70 150,-50 40,-85 q 100,-190 105,-545 l -65,50 v -10"
     fill="#000000"
     fill-rule="evenodd"
     stroke="none"
     id="path18"
     style="stroke-width:100" />
  <path
     d="m 1745,2040 -165,150 -120,290 q -90,250 -195,490 l -130,-205 -20,-35 q -115,-180 -110,-285 l -15,-30 q -50,-115 -30,-205 l 45,-65 20,-25 q 50,-260 165,-465 90,-190 135,-350 v -5 h 5 l 30,-10 v -5 l 70,-15 5,-5 15,5 115,455 180,315 m 895,-75 -30,-10 -35,-15 -170,-130 -295,-420 -70,-120 -125,-200 q 45,-190 135,-365 l 175,-185 q 120,-105 270,-255 l 95,-20 45,10 145,120 655,530 q -85,190 -145,285 l -520,610 -130,165 m -895,125 v 5 h -15 l 15,-5 m 5,15 190,360 245,395 -115,10 -185,220 -70,290 -110,425 v 20 q 0,70 -40,100 l -160,-245 -60,-140 q -50,-90 -45,-165 l -35,-75 q -30,-80 -15,-160 l 20,-40 45,-65 q 45,-275 160,-515 100,-220 140,-395 20,-5 35,-20 m 645,2865 -105,-60 -10,-10 -85,-125 -145,-195 -60,-90 -95,-140 -65,-135 q -95,0 -25,-520 55,-410 190,-600 l 10,-75 40,-25 70,-40 h 35 l 65,-40 100,90 5,5 15,20 545,670 q -40,195 -265,760 l -220,510"
     fill="#52524b"
     fill-rule="evenodd"
     stroke="none"
     id="path20"
     style="stroke-width:100" />
  <path
     d="m 1745,2040 -180,-315 -115,-455 110,25 55,-5 340,65 q 165,275 380,540 l 50,50 -280,20 h -165 l -80,10 -55,5 -60,60 M 2635,255 h 15 l 115,25 h 10 l 125,60 465,190 170,185 145,150 5,5 10,20 105,170 -20,5 -5,10 q -190,720 -540,885 l -30,10 q -125,55 -320,35 l -245,-40 130,-165 520,-610 q 60,-95 145,-285 L 2780,375 2635,255 m -890,1835 75,-20 10,-5 v -5 l 40,5 345,-25 240,-5 15,15 300,10 455,25 20,5 15,5 v 5 l 50,35 q 85,65 195,285 l 105,230 -30,180 -70,-45 -85,15 5,5 h -25 l -170,10 -510,-10 h -5 l -340,40 -35,5 -130,5 -30,5 -245,-395 -190,-360 25,-10 h -30 v -5 m 650,2880 220,-510 q 225,-565 265,-760 l -545,-670 -15,-20 -5,-5 -100,-90 90,-30 575,-15 425,5 255,45 105,70 65,70 50,60 70,110 100,150 -5,30 25,25 -15,45 -20,10 -5,30 -210,65 -300,80 h -15 l -180,70 -40,90 -50,185 5,15 25,50 250,395 75,135 -20,-5 -30,30 -10,35 q 0,105 -345,165 l -155,40 -460,95 -45,5 h -30 M 3930,3530 v 10 l 65,-50 q -5,355 -105,545 l -40,85 -150,50 -210,70 -125,30 -25,-40 -100,-260 30,-95 10,-35 v -10 l 20,-80 q 110,-80 330,-120 185,-40 300,-100 m 840,-2065 -55,130 h 5 q -155,85 -415,200 -450,195 -605,195 l -190,-10 -85,-5 190,-230 160,-305 45,-70 20,-95 q 85,-255 235,-255 75,0 165,80 l 340,205 190,160 m 5,125 q 35,-10 60,-25 95,155 115,385 35,330 95,515 l 15,85 -75,105 q -305,30 -670,190 -215,100 -435,195 l -95,10 -100,-160 -25,-15 25,-155 10,-30 -305,-615 -35,-20 35,-45 320,25 q 180,0 580,-180 325,-145 485,-265"
     fill="#2c2c27"
     fill-rule="evenodd"
     stroke="none"
     id="path22"
     style="stroke-width:100" />
  <defs
     id="defs31">
    <linearGradient
       gradientTransform="matrix(0.94,-3.38,1.47,0.41,-2810,-6670)"
       gradientUnits="userSpaceOnUse"
       id="gradient0"
       spreadMethod="pad"
       x1="-819.2"
       x2="819.2">
      <stop
         offset="0.0"
         stop-color="#635b58"
         id="stop26" />
      <stop
         offset="1.0"
         stop-color="#d3cebc"
         id="stop28" />
    </linearGradient>
  </defs>
</svg>
