<?xml version="1.0" encoding="UTF-8" standalone="no"?>
<svg
   xmlns:dc="http://purl.org/dc/elements/1.1/"
   xmlns:cc="http://creativecommons.org/ns#"
   xmlns:rdf="http://www.w3.org/1999/02/22-rdf-syntax-ns#"
   xmlns:svg="http://www.w3.org/2000/svg"
   xmlns="http://www.w3.org/2000/svg"
   xmlns:sodipodi="http://sodipodi.sourceforge.net/DTD/sodipodi-0.dtd"
   xmlns:inkscape="http://www.inkscape.org/namespaces/inkscape"
   height="6370.0px"
   width="5915.0px"
   version="1.1"
   id="svg29"
   sodipodi:docname="1453.svg"
   inkscape:version="1.0.2-2 (e86c870879, 2021-01-15)">
  <metadata
     id="metadata33">
    <rdf:RDF>
      <cc:Work
         rdf:about="">
        <dc:format>image/svg+xml</dc:format>
        <dc:type
           rdf:resource="http://purl.org/dc/dcmitype/StillImage" />
      </cc:Work>
    </rdf:RDF>
  </metadata>
  <sodipodi:namedview
     pagecolor="#ffffff"
     bordercolor="#666666"
     borderopacity="1"
     objecttolerance="10"
     gridtolerance="10"
     guidetolerance="10"
     inkscape:pageopacity="0"
     inkscape:pageshadow="2"
     inkscape:window-width="1920"
     inkscape:window-height="1017"
     id="namedview31"
     showgrid="false"
     inkscape:zoom="0.13343799"
     inkscape:cx="2957.5"
     inkscape:cy="3185"
     inkscape:window-x="-8"
     inkscape:window-y="-8"
     inkscape:window-maximized="1"
     inkscape:current-layer="svg29" />
  <path
     d="m 5815,2180 q -150,560 -210,860 l -145,75 -490,280 h -15 q -115,0 -660,-310 l -530,-315 -40,15 -35,-20 -40,20 5,80 q -45,455 45,995 l -10,10 -5,-5 25,55 35,200 25,115 25,85 v 25 l 65,245 70,145 30,145 -15,-20 25,65 35,130 -5,90 h 10 v -65 l 40,235 -650,225 -840,305 -155,30 -60,-5 -165,-280 -35,-100 -165,-385 -90,-195 -110,-355 -10,-30 v -25 -15 q -5,-120 -75,-275 l -60,-180 q -85,-205 -285,-570 l -60,-280 v -310 q -100,-1375 20,-1850 h -10 l 55,-125 140,-180 h 30 l 195,-10 245,10 h 5 5 v -15 l 25,-115 h -5 l 15,-15 10,-35 10,15 70,-60 355,-150 290,-115 845,-225 125,35 235,75 q 245,110 350,150 l 75,35 305,160 395,210 q 190,55 395,210 l 15,10 430,805 -10,165 -90,325 m -105,-470 -195,-370 -140,-290 -15,-10 -20,-10 -35,10 q -120,395 -770,695 l -175,90 -110,65 30,165 -10,55 -385,170 -275,155 25,120 v 5 l 25,5 5,10 v 10 l 5,5 q 85,145 505,380 440,250 660,310 l 120,40 255,-105 190,-85 5,-55 10,10 75,-215 70,-340 q 120,-450 150,-820 m -4200,-725 -10,30 -15,20 -90,165 q -45,190 -55,460 l -35,350 50,170 5,25 -5,15 v 30 80 l 15,65 v 100 l 90,-10 90,-30 45,-15 5,-5 120,-5 30,5 210,15 205,-5 140,-5 100,-25 120,10 -20,-40 Q 2340,2050 2225,1705 2060,1210 2070,965 h -20 l -175,-5 h -45 -90 l -165,5 h -55 l -10,20 m 85,1500 -25,30 -25,-5 -15,15 -65,30 h -5 l -90,65 v 25 h 5 l -20,105 q -20,140 -5,355 l 10,110 75,325 150,285 10,15 150,260 140,55 10,-5 20,10 275,-45 -10,-25 h 35 5 l 10,15 35,-5 75,-10 120,-25 420,-80 520,-100 70,-20 v -5 l 50,-15 h 10 l 30,-25 h 5 l 10,-40 -5,-85 15,-20 -10,-760 5,-20 -100,-340 -10,-5 v -5 l -10,-50 -15,-20 -50,-10 -540,90 -205,55 -80,-90 -15,-30 -720,-15 h -15 l -225,10 m 1855,-2060 60,-5 95,10 q 70,70 200,140 l 100,45 50,20 q 110,365 285,1210 330,-140 505,-250 295,-185 450,-585 L 5135,930 4620,670 4100,425 3935,350 h -10 l -125,-50 -25,-10 -110,-30 -55,-5 q -165,10 -735,180 l -285,75 -60,25 350,-55 565,-55 h 5 m -770,1960 q 75,85 125,85 190,0 690,-155 l 550,-185 25,-65 q 55,-125 55,-275 v -55 Q 4100,1430 3865,670 l -50,-55 Q 3715,505 3650,505 l -280,-35 h -5 l -80,5 -30,5 -520,70 -365,65 -115,55 v 25 q -140,40 -20,495 40,320 230,785 l 160,350 45,50 10,10 m -570,-1825 15,-15 -30,5 15,10 m -535,265 v 5 l 30,-10 -30,5 m 180,2220 v -5 l 5,10 -5,-5 m 1210,2550 155,-50 -75,45 15,-5 70,-20 50,-20 245,-100 495,-265 -5,-90 h -5 l -15,-50 v -35 l -5,-30 q -10,-270 -80,-425 -35,-160 -110,-310 l 10,-20 25,95 -15,-95 -60,-165 -15,-20 -20,-20 -15,-30 -95,-35 -30,-10 -710,140 -255,50 -35,-10 -65,15 -50,5 h -65 -45 -60 q -75,10 -115,45 l -85,5 15,10 -70,25 q 0,35 -15,60 l -15,25 -55,40 v 105 l 20,50 q 15,180 140,460 l 20,60 q 195,580 350,675 v 5 h 5 l 60,15 h 10 v 5 l 55,-5 5,-5 85,-15 185,-40 v -10 l 15,-5 10,-5 v 5 l 20,-10 h 10 l 10,-5 v 5 l 15,-10 90,-30 m 990,-480 5,-5 h -5 v 5"
     fill="#000000"
     fill-rule="evenodd"
     stroke="none"
     id="path14"
     style="stroke-width:100" />
  <path
     d="m 1595,2440 -45,15 -90,30 -90,10 v -100 l -15,-65 v -80 -30 l 5,-15 -5,-25 -50,-170 35,-350 q 10,-270 55,-460 l 90,-165 15,-20 10,-30 q -50,335 20,925 l 40,295 5,155 20,80 m 620,1650 h -35 l 10,25 -275,45 -20,-10 -10,5 -140,-55 -150,-260 -10,-15 -150,-285 -75,-325 -10,-110 q -15,-215 5,-355 l 20,-105 h -5 v -25 l 90,-65 h 5 l 65,-30 15,-15 25,5 25,-30 q 75,345 270,830 195,490 350,775 m 1560,-3800 -295,115 -30,20 h -5 l -565,55 -350,55 60,-25 285,-75 q 570,-170 735,-180 l 55,5 110,30 m -520,190 150,650 q 65,325 255,865 l -215,120 q -320,160 -680,265 l -85,5 -10,-10 -45,-50 -160,-350 q -190,-465 -230,-785 -120,-455 20,-495 v -25 l 115,-55 365,-65 520,-70 m -1500,2565 5,5 -5,-10 v 5 m 550,1095 210,415 -40,-65 q 205,355 295,635 l 5,5 q 160,355 190,465 l -90,30 -15,10 v -5 l -10,5 h -10 l -20,10 v -5 l -5,-5 v -10 l -5,20 -15,5 v 10 l -185,40 -85,15 -5,5 -55,5 v -5 h -10 l -60,-15 h -5 v -5 q -155,-95 -350,-675 l -20,-60 q -125,-280 -140,-460 l -20,-50 v -105 l 55,-40 15,-25 q 15,-25 15,-60 l 70,-25 -15,-10 85,-5 q 40,-35 115,-45 h 60 45"
     fill="#52524b"
     fill-rule="evenodd"
     stroke="none"
     id="path16"
     style="stroke-width:100" />
  <path
     d="m 5710,1710 q -30,370 -150,820 l -70,340 -75,215 -10,-10 -5,55 -190,85 -255,105 -120,-40 q -220,-60 -660,-310 -420,-235 -505,-380 l -5,-5 v -10 l -5,-10 -25,-5 v -5 l -25,-120 275,-155 385,-170 10,-55 -30,-165 110,-65 175,-90 q 650,-300 770,-695 l 35,-10 20,10 15,10 140,290 195,370 m -4115,730 -20,-80 -5,-155 -40,-295 q -70,-590 -20,-925 l 10,-20 h 55 l 165,-5 h 90 45 l 175,5 h 20 q -10,245 155,740 115,345 280,680 l 20,40 -120,-10 -100,25 -140,5 -205,5 -210,-15 -30,-5 -120,5 -5,5 m 0,45 225,-10 h 15 l 720,15 15,30 80,90 205,-55 540,-90 50,10 15,20 10,50 v 5 l 10,5 100,340 -5,20 10,760 -15,20 5,85 -10,40 h -5 l -30,25 h -10 l -50,15 v 5 l -70,20 -520,100 -420,80 -120,25 -75,10 -35,5 -10,-15 h -5 q -155,-285 -350,-775 -195,-485 -270,-830 m 2180,-2195 25,10 125,50 h 10 l 165,75 520,245 515,260 60,80 q -155,400 -450,585 -175,110 -505,250 -175,-845 -285,-1210 l -50,-20 -100,-45 Q 3675,500 3605,430 l -95,-10 -60,5 30,-20 295,-115 m -520,190 30,-5 80,-5 h 5 l 280,35 q 65,0 165,110 l 50,55 q 235,760 260,1065 v 55 q 0,150 -55,275 l -25,65 -550,185 q -500,155 -690,155 -50,0 -125,-85 l 85,-5 q 360,-105 680,-265 l 215,-120 Q 3470,1455 3405,1130 L 3255,480 m -950,3660 h 65 l 50,-5 65,-15 35,10 255,-50 710,-140 30,10 95,35 15,30 20,20 15,20 60,165 15,95 -25,-95 -10,20 q 75,150 110,310 70,155 80,425 l 5,30 v 35 l 15,50 h 5 l 5,90 -495,265 -245,100 -50,20 -70,20 -15,5 75,-45 -155,50 q -30,-110 -190,-465 l -5,-5 q -90,-280 -295,-635 l 40,65 -210,-415 m 515,1500 -10,5 5,-20 v 10 l 5,5"
     fill="#2c2c27"
     fill-rule="evenodd"
     stroke="none"
     id="path18"
     style="stroke-width:100" />
  <defs
     id="defs27">
    <linearGradient
       gradientTransform="matrix(0.94,-3.38,1.47,0.41,-9005,-5740)"
       gradientUnits="userSpaceOnUse"
       id="gradient0"
       spreadMethod="pad"
       x1="-819.2"
       x2="819.2">
      <stop
         offset="0.0"
         stop-color="#635b58"
         id="stop22" />
      <stop
         offset="1.0"
         stop-color="#d3cebc"
         id="stop24" />
    </linearGradient>
  </defs>
</svg>
