<?xml version="1.0" encoding="UTF-8" standalone="no"?>
<svg
   xmlns:dc="http://purl.org/dc/elements/1.1/"
   xmlns:cc="http://creativecommons.org/ns#"
   xmlns:rdf="http://www.w3.org/1999/02/22-rdf-syntax-ns#"
   xmlns:svg="http://www.w3.org/2000/svg"
   xmlns="http://www.w3.org/2000/svg"
   xmlns:sodipodi="http://sodipodi.sourceforge.net/DTD/sodipodi-0.dtd"
   xmlns:inkscape="http://www.inkscape.org/namespaces/inkscape"
   height="6475.0px"
   width="6035.0px"
   version="1.1"
   id="svg46"
   sodipodi:docname="1467.svg"
   inkscape:version="1.0.2-2 (e86c870879, 2021-01-15)">
  <metadata
     id="metadata50">
    <rdf:RDF>
      <cc:Work
         rdf:about="">
        <dc:format>image/svg+xml</dc:format>
        <dc:type
           rdf:resource="http://purl.org/dc/dcmitype/StillImage" />
      </cc:Work>
    </rdf:RDF>
  </metadata>
  <sodipodi:namedview
     pagecolor="#ffffff"
     bordercolor="#666666"
     borderopacity="1"
     objecttolerance="10"
     gridtolerance="10"
     guidetolerance="10"
     inkscape:pageopacity="0"
     inkscape:pageshadow="2"
     inkscape:window-width="1920"
     inkscape:window-height="1017"
     id="namedview48"
     showgrid="false"
     inkscape:zoom="0.13127413"
     inkscape:cx="3017.5"
     inkscape:cy="3237.5"
     inkscape:window-x="-8"
     inkscape:window-y="-8"
     inkscape:window-maximized="1"
     inkscape:current-layer="svg46" />
  <path
     d="m 4915,1805 -10,-65 -30,-20 -35,-10 q -110,75 -150,190 l 5,35 q -50,140 -55,585 -5,655 55,655 l 15,-5 v 15 l 115,10 220,-35 120,-25 -30,-30 q -120,-150 -100,-760 l 15,-230 -5,-10 q -45,-180 -130,-300 m 115,-350 -10,20 155,305 125,250 5,60 q -120,370 -80,630 25,140 85,230 -100,65 695,405 l 10,50 20,1255 v 10 l -5,25 -45,305 10,145 q 0,220 -35,395 l 25,-5 -440,335 -515,420 -10,5 -50,45 -70,25 -175,85 -5,25 -395,-80 h -10 l -195,-40 -270,-50 -165,-45 -350,-140 -1135,-370 q 75,-95 345,-95 l 300,55 q 150,-120 195,-205 l -10,-5 -10,-45 v -30 l -45,-5 h -10 l 10,-10 -20,-10 15,-5 Q 2700,5170 2590,4940 2420,4595 2460,3910 l -55,-220 -35,-195 -65,-265 -10,-40 -45,-235 -10,-45 -5,-30 v 10 l -30,-130 -15,-80 30,-190 q 65,-365 65,-575 0,-150 -60,-305 l -45,-595 q -45,-575 80,-785 -10,-115 95,-115 25,30 75,30 l 175,-25 60,-15 430,-5 105,-5 870,-45 235,30 q 70,55 285,445 l 465,825 -25,105 m 60,1755 h -10 l -715,85 -85,660 -110,965 q 305,165 650,255 l 145,30 180,25 v 5 h 20 l 70,10 60,10 h 15 l 220,15 v 15 l 150,20 5,-35 v -245 l 15,-30 10,-100 95,-910 -20,-170 q 0,-280 -180,-475 l -25,-10 -60,-20 -45,-15 -15,-5 -105,-30 -180,-60 -85,10 m -675,2335 115,150 10,10 v 5 q 80,90 170,145 100,75 215,105 l 285,-195 475,-355 h -15 q -105,0 -365,-75 l -50,-15 h -65 l -55,-5 -40,-10 -390,-100 -55,-15 -475,-145 -20,-10 v 10 l 35,80 20,5 q 35,5 35,60 l -5,50 175,305 M 4285,470 v -5 l -20,-35 -15,-25 -25,-15 Q 4115,330 3975,285 l -140,-35 -125,5 -75,20 -165,-5 -285,25 -820,55 q -40,0 -65,-25 l -45,145 q -35,185 -45,760 l 95,365 65,220 35,10 665,-205 q 675,-205 845,-205 l 35,25 15,10 235,185 340,295 185,-515 v -75 l -115,-185 -140,-300 -30,-65 -105,-220 -20,-40 -30,-60 m -365,1055 -35,-5 -235,50 -225,50 -425,90 -305,90 q -215,90 -285,165 l -35,15 h -15 l -50,220 -35,195 -35,360 100,460 30,90 80,200 5,15 70,25 h 5 l 15,-10 130,-80 400,-265 560,-340 v 5 l 50,-20 h 10 l 245,95 130,60 q 30,40 110,70 l 140,30 q 80,55 165,55 35,0 60,-15 l 5,-105 10,-775 q -40,-90 -20,-195 l -460,-395 -85,-85 -75,-50 m -240,1390 -15,10 70,5 -20,-10 -35,-5 m -100,75 h -15 l -5,5 h -15 q -720,345 -935,605 l -95,60 h -10 v 5 45 l 10,75 v 20 l -5,210 q 15,245 90,590 l 60,350 140,165 60,65 160,170 v 10 l 10,-10 55,5 30,40 q 300,-40 555,-120 15,-25 50,-30 l 55,-5 85,-30 55,-75 q 35,-25 80,-170 l 90,-315 5,-30 5,-25 45,-205 q 100,-525 100,-1095 0,-55 -45,-100 l 5,-20 -60,-65 -220,-90 -145,-75 -10,-5 -10,10 -115,20 -25,5 -35,5 v 5 m 770,2540 -155,-265 -235,25 -260,65 -5,-5 -100,30 -415,115 -25,25 v 5 q -70,35 -90,85 l -130,125 55,15 215,65 230,70 255,80 80,20 820,195 105,-55 175,-130 q -205,-70 -375,-265 v -5 l -145,-195"
     fill="#000000"
     fill-rule="evenodd"
     stroke="none"
     id="path26"
     style="stroke-width:100" />
  <path
     d="m 4820,5175 q -345,-90 -650,-255 l 110,-965 85,-660 715,-85 h 10 l -60,355 q -60,440 -115,1135 l -95,475 m -405,370 -175,-305 5,-50 q 0,-55 -35,-60 l -20,-5 -35,-80 v -10 l 20,10 475,145 55,15 -165,195 -125,145 m -450,-4095 -15,-10 -35,-25 q -170,0 -845,205 l -665,205 -35,-10 -65,-220 -95,-365 q 10,-575 45,-760 l 45,-145 q 25,25 65,25 l 820,-55 285,-25 165,5 75,-20 125,-5 140,35 q 140,45 250,105 l 25,15 15,25 20,35 v 5 l 10,190 q 0,325 -275,715 l -55,75 m -330,1400 -560,340 -400,265 -130,80 -15,10 h -5 l -70,-25 -5,-15 -80,-200 -30,-90 -100,-460 35,-360 35,-195 50,-220 h 15 l 35,-15 q 70,-75 285,-165 l 305,-90 425,-90 225,-50 235,-50 35,5 q -95,270 -185,720 l -100,605 m -55,140 v 5 l 30,15 -35,20 q -35,325 120,960 l 175,630 -850,390 -220,110 -140,-165 -60,-350 q -75,-345 -90,-590 l 5,-210 v -20 l -10,-75 v -45 -5 h 10 l 95,-60 q 215,-260 935,-605 h 15 l 5,-5 h 15 m -590,2760 -55,-15 130,-125 q 20,-50 90,-85 v -5 l 25,-25 415,-115 100,-30 5,5 260,-65 235,-25 155,265 -1270,205 -90,15"
     fill="#52524b"
     fill-rule="evenodd"
     stroke="none"
     id="path28"
     style="stroke-width:100" />
  <path
     d="m 4915,1805 q 85,120 130,300 l 5,10 -15,230 q -20,610 100,760 l 30,30 -120,25 -220,35 -115,-10 v -15 l -15,5 q -60,0 -55,-655 5,-445 55,-585 l -5,-35 q 40,-115 150,-190 l 35,10 30,20 10,65 m 175,1405 85,-10 180,60 105,30 15,5 45,15 60,20 25,10 q 180,195 180,475 l 20,170 -95,910 -10,100 -15,30 v 245 l -5,35 -150,-20 v -15 l -220,-15 h -15 l -60,-10 -70,-10 h -20 v -5 l -180,-25 -145,-30 95,-475 q 55,-695 115,-1135 l 60,-355 m -385,1995 390,100 40,10 55,5 h 65 l 50,15 q 260,75 365,75 h 15 l -475,355 -285,195 q -115,-30 -215,-105 -90,-55 -170,-145 v -5 l -10,-10 -115,-150 125,-145 165,-195 m -420,-4735 30,60 20,40 105,220 30,65 140,300 115,185 v 75 l -185,515 -340,-295 -235,-185 55,-75 q 275,-390 275,-715 l -10,-190 m -365,1055 75,50 85,85 460,395 q -20,105 20,195 l -10,775 -5,105 q -25,15 -60,15 -85,0 -165,-55 l -140,-30 q -80,-30 -110,-70 l -130,-60 -245,-95 h -10 l -50,20 v -5 l 100,-605 q 90,-450 185,-720 m -1120,3595 220,-110 850,-390 -175,-630 q -155,-635 -120,-960 l 35,-20 -30,-15 v -5 -5 l 35,-5 25,-5 115,-20 10,-10 10,5 145,75 220,90 60,65 -5,20 q 45,45 45,100 0,570 -100,1095 l -45,205 -5,25 -5,30 -90,315 q -45,145 -80,170 l -55,75 -85,30 -55,5 q -35,5 -50,30 -255,80 -555,120 l -30,-40 -55,-5 -10,10 v -10 l -160,-170 -60,-65 m 1550,410 145,195 v 5 q 170,195 375,265 l -175,130 -105,55 -820,-195 -80,-20 -255,-80 -230,-70 -215,-65 90,-15 1270,-205"
     fill="#2c2c27"
     fill-rule="evenodd"
     stroke="none"
     id="path30"
     style="stroke-width:100" />
  <defs
     id="defs44">
    <linearGradient
       gradientTransform="matrix(0.94,-3.38,1.47,0.41,-5963.3824,-4597.8235)"
       gradientUnits="userSpaceOnUse"
       id="gradient0"
       spreadMethod="pad"
       x1="-819.2"
       x2="819.2">
      <stop
         offset="0.0"
         stop-color="#635b58"
         id="stop34" />
      <stop
         offset="1.0"
         stop-color="#d3cebc"
         id="stop36" />
    </linearGradient>
    <linearGradient
       gradientTransform="matrix(0.76,-3.38,1.18,0.41,-5238.3824,-4597.8235)"
       gradientUnits="userSpaceOnUse"
       id="gradient1"
       spreadMethod="pad"
       x1="-819.2"
       x2="819.2">
      <stop
         offset="0.0"
         stop-color="#635b58"
         id="stop39" />
      <stop
         offset="1.0"
         stop-color="#d3cebc"
         id="stop41" />
    </linearGradient>
  </defs>
</svg>
