<?xml version="1.0" encoding="UTF-8" standalone="no"?>
<svg
   xmlns:dc="http://purl.org/dc/elements/1.1/"
   xmlns:cc="http://creativecommons.org/ns#"
   xmlns:rdf="http://www.w3.org/1999/02/22-rdf-syntax-ns#"
   xmlns:svg="http://www.w3.org/2000/svg"
   xmlns="http://www.w3.org/2000/svg"
   xmlns:sodipodi="http://sodipodi.sourceforge.net/DTD/sodipodi-0.dtd"
   xmlns:inkscape="http://www.inkscape.org/namespaces/inkscape"
   height="6415.0px"
   width="8785.0px"
   version="1.1"
   id="svg43"
   sodipodi:docname="1054.svg"
   inkscape:version="1.0.2-2 (e86c870879, 2021-01-15)">
  <metadata
     id="metadata47">
    <rdf:RDF>
      <cc:Work
         rdf:about="">
        <dc:format>image/svg+xml</dc:format>
        <dc:type
           rdf:resource="http://purl.org/dc/dcmitype/StillImage" />
      </cc:Work>
    </rdf:RDF>
  </metadata>
  <sodipodi:namedview
     pagecolor="#ffffff"
     bordercolor="#666666"
     borderopacity="1"
     objecttolerance="10"
     gridtolerance="10"
     guidetolerance="10"
     inkscape:pageopacity="0"
     inkscape:pageshadow="2"
     inkscape:window-width="1920"
     inkscape:window-height="1017"
     id="namedview45"
     showgrid="false"
     inkscape:zoom="0.11861127"
     inkscape:cx="4392.5"
     inkscape:cy="3207.5"
     inkscape:window-x="-8"
     inkscape:window-y="-8"
     inkscape:window-maximized="1"
     inkscape:current-layer="svg43" />
  <path
     d="m 6175,2145 -40,100 q -105,245 -335,430 530,180 530,745 0,710 -915,1015 60,140 75,315 70,730 -755,955 -430,115 -1040,80 l -200,45 -310,-20 -985,-55 q -180,-25 -1205,0 l -260,5 -90,-5 -55,-50 -105,-465 -30,-475 -210,15 H 135 L 70,4730 0,4245 v -650 l 45,-495 5,-10 Q -65,2990 445,2905 l -60,-115 20,-160 195,-855 10,-5 Q 465,1640 1700,1480 l 40,-15 705,-55 55,10 195,-10 210,-10 h 10 l 915,-30 5,-10 h 65 10 l -10,-65 q -45,-80 -30,-195 175,-330 615,-980 l 815,-115 35,-5 445,255 q 720,440 1070,610 l 135,75 q 150,205 275,440 l 250,430 h -15 l -250,-315 -35,-45 -20,-5 -170,-160 q 5,115 -95,115 l -25,-15 -10,10 q -95,185 -160,250 l 10,30 -30,135 -90,275 -250,45 130,-400 35,-200 5,-95 -5,-30 v -30 -70 l -5,-125 40,70 110,255 115,-260 -10,-15 Q 6745,1095 6655,960 6535,890 6380,815 L 6120,670 5825,545 5150,245 l -140,335 -195,380 -50,115 5,-70 v -10 q 140,-205 175,-380 130,-200 130,-315 0,-35 -15,-55 l 5,-15 -10,5 -5,-5 -40,-5 -20,10 -45,-20 10,-10 -180,20 -120,25 10,-15 -75,10 -60,40 -275,405 q -155,275 -210,455 l 5,55 20,30 -15,-25 255,90 280,95 45,-50 10,-10 15,-20 5,-5 20,-35 60,-115 35,95 40,55 30,5 h 15 l -5,55 v 25 l -15,70 -40,75 -45,-135 -5,-10 -20,20 5,45 5,15 v 5 l -60,70 -10,-30 -10,-40 -205,20 -140,10 -1625,115 h -45 l -95,5 15,60 q -50,50 -20,135 l 60,195 35,10 -30,45 25,-5 5,10 -20,30 v 20 l -20,140 -25,155 -10,55 -70,270 -50,240 -10,80 -20,60 h 10 l 30,-5 45,5 5,-5 270,-10 h 625 l 145,10 220,15 620,-80 q 515,-80 865,-215 l 190,-80 q 130,-55 230,-120 255,-170 320,-395 l 15,-60 10,-40 h 15 140 m -3580,-60 -5,-5 10,-5 -30,-120 -10,-35 -20,-95 -50,-190 -540,40 -235,30 -110,5 -120,15 -560,90 -85,20 -25,20 -10,45 -55,215 -5,10 -25,110 -30,120 -5,65 -30,155 v 55 l -10,240 v 170 l 25,65 5,15 v 20 l -5,50 5,15 20,50 15,5 25,5 h 35 l 55,5 h 110 l 320,-10 600,-70 280,-35 80,-10 85,-10 20,-35 65,-110 20,-50 60,-195 45,-255 65,-245 v -10 l 35,-115 -15,-35 m -345,1285 -60,-100 -210,20 -205,30 -1090,45 -25,-65 -65,-170 -195,20 -90,20 -20,20 -20,285 -5,10 v 120 l -10,130 5,70 -5,170 70,525 75,35 40,10 h 30 l 60,5 115,5 h 5 340 l 625,-45 h 10 l 495,-40 5,-15 45,-30 10,-50 10,-105 5,-105 v -35 l 25,-195 40,-400 15,-125 -25,-40 m 1280,1130 255,25 685,-60 705,-115 175,-45 q 795,-235 795,-700 0,-525 -305,-705 -90,-55 -250,-80 -215,130 -510,225 -510,165 -1195,190 -90,40 -190,60 l -95,-10 -255,-5 -425,-35 -655,20 45,95 -15,30 v 25 150 105 q -35,95 -50,265 l -10,115 -5,115 q -5,185 30,245 v 10 l -10,45 h 30 l 370,-5 710,25 170,15 m -155,1145 200,35 535,-25 q 1310,-100 1250,-740 -25,-260 -105,-435 -535,145 -1265,150 h -60 l -85,30 -255,-45 -720,-60 -220,25 h -350 l 15,120 15,160 15,140 -15,105 q -40,300 -5,405 l 35,5 -5,40 315,10 565,60 140,20 m -2470,-100 45,10 105,10 285,15 525,-10 390,-15 v -10 l 30,-30 q 40,-85 10,-385 l -10,-110 -5,-350 v -90 h -795 l -470,30 -85,15 -55,-5 -125,-15 q -60,0 -100,55 v 105 l 10,70 10,160 110,505 65,35 60,10"
     fill="#000000"
     fill-rule="evenodd"
     stroke="none"
     id="path2"
     style="stroke-width:100" />
  <path
     d="m 6370,2130 -195,15 h -140 -15 l -10,40 -15,60 q -65,225 -320,395 -100,65 -230,120 l -190,80 q -350,135 -865,215 l -620,80 -220,-15 q 600,-85 670,-205 l 10,-25 -15,-85 -20,-45 -5,-5 305,-90 65,-20 q 140,-50 240,-140 l -25,-35 q 140,-25 160,-150 l 5,-75 q -15,-115 -145,-170 l -260,-40 -495,-5 -175,20 -5,-35 -15,-5 h -335 l -415,20 -450,40 v 5 l -5,-10 -25,5 30,-45 -35,-10 -60,-195 q -30,-85 20,-135 l -15,-60 95,-5 h 45 l 1625,-115 140,-10 q -85,185 125,185 l 40,-15 10,-50 30,-125 10,25 10,30 60,-70 v -5 l -5,-15 h 30 l -10,-55 45,135 40,-75 h 205 l 230,-15 80,-15 615,-45 55,-5 505,-75 v 70 30 l 5,30 -5,95 -35,200 -130,400 m -2320,-930 -5,-55 q 55,-180 210,-455 l 275,-405 60,-40 75,-10 -10,15 120,-25 180,-20 -10,10 45,20 20,-10 40,5 5,5 10,-5 -5,15 q 15,20 15,55 0,115 -130,315 -35,175 -175,380 v 10 l -5,70 -5,40 -720,40 10,45 m 2735,30 10,15 -115,260 -110,-255 20,45 200,-55 -5,-10 m -6050,2035 -25,-5 -15,-5 -20,-50 -5,-15 5,-50 v -20 l -5,-15 -25,-65 v -170 l 10,-240 v -55 l 30,-155 5,-65 30,-120 25,-110 5,-10 55,-215 10,-45 25,-20 85,-20 560,-90 120,-15 110,-5 235,-30 540,-40 50,190 20,95 10,35 30,120 -10,5 5,5 -750,105 -370,55 -525,75 -105,440 -20,90 -55,255 -35,160 M 470,4545 h -30 l -40,-10 -75,-35 -70,-525 5,-170 -5,-70 10,-130 v -120 l 5,-10 20,-285 20,-20 90,-20 195,-20 65,170 25,65 1090,-45 205,-30 210,-20 60,100 -635,65 -180,20 -935,110 -35,485 -25,440 -5,50 h 5 l 30,5 m 1840,-1185 -45,-95 655,-20 425,35 255,5 95,10 q 100,-20 190,-60 685,-25 1195,-190 295,-95 510,-225 160,25 250,80 305,180 305,705 0,465 -795,700 l -175,45 -705,115 -685,60 -255,-25 q 725,-70 725,-205 l -20,-80 -30,-50 -5,-5 330,-80 q 165,-45 275,-130 l 30,-35 -25,-45 q 145,-25 145,-160 0,-185 -215,-270 -145,-55 -295,-55 l -560,-25 -200,15 v 5 l -10,-40 -20,-10 -380,-15 -965,40 v 5 m 2565,-1840 -5,10 10,-5 -5,-5 m -365,935 115,15 -115,20 v -35 m -520,2175 q 730,-5 1265,-150 80,175 105,435 60,640 -1250,740 l -535,25 -200,-35 q 565,-35 555,-160 l -30,-75 -35,-60 255,-60 q 150,-40 225,-140 l -20,-45 q 110,-20 100,-145 -20,-175 -195,-270 -115,-55 -240,-60 m 85,470 v -35 l 110,25 -110,10 m 560,-1235 -135,15 v -35 l 135,20 M 875,4620 h -35 l 35,920 30,5 -60,-10 -65,-35 -110,-505 -10,-160 -10,-70 v -105 q 40,-55 100,-55 l 125,15"
     fill="#52524b"
     fill-rule="evenodd"
     stroke="none"
     id="path6"
     style="stroke-width:100" />
  <path
     d="m 3550,3120 -145,-10 h -625 l -270,10 -5,5 -45,-5 -30,5 h -10 l 20,-60 10,-80 50,-240 70,-270 10,-55 25,-155 20,-140 v -20 l 20,-30 v -5 l 450,-40 415,-20 h 335 l 15,5 5,35 175,-20 495,5 260,40 q 130,55 145,170 l -5,75 q -20,125 -160,150 l 25,35 q -100,90 -240,140 l -65,20 -305,90 5,5 20,45 15,85 -10,25 q -70,120 -670,205 m 910,-1625 205,-20 10,40 -10,-25 -30,125 -10,50 -40,15 q -210,0 -125,-185 m 400,-130 5,-55 h -15 l -30,-5 -40,-55 -35,-95 -60,115 -20,35 -5,5 -15,20 -10,10 -45,50 -280,-95 -255,-90 15,25 -20,-30 -10,-45 720,-40 5,-40 50,-115 195,-380 140,-335 675,300 295,125 260,145 q 155,75 275,145 90,135 130,270 l 5,10 -200,55 -20,-45 -40,-70 5,125 -505,75 h -430 l -740,-15 m -4125,1900 35,-160 55,-255 20,-90 105,-440 525,-75 370,-55 750,-105 15,35 -35,115 v 10 l -65,245 -45,255 -60,195 -20,50 -65,110 -20,35 -85,10 -80,10 -280,35 -600,70 -320,10 H 825 l -55,-5 h -35 m 1515,105 25,40 -15,125 -40,400 -25,195 v 35 l -5,105 -10,105 -10,50 -45,30 -5,15 -495,40 h -10 l -625,45 h -340 -5 l -115,-5 -60,-5 -30,-5 h -5 l 5,-50 25,-440 35,-485 935,-110 180,-20 635,-65 m 1280,1130 -170,-15 -710,-25 -370,5 h -30 l 10,-45 v -10 q -35,-60 -30,-245 l 5,-115 10,-115 q 15,-170 50,-265 v -105 -150 -25 l 15,-30 v -5 l 965,-40 380,15 20,10 10,40 v -5 l 200,-15 560,25 q 150,0 295,55 215,85 215,270 0,135 -145,160 l 25,45 -30,35 q -110,85 -275,130 l -330,80 5,5 30,50 20,80 q 0,135 -725,205 m 1345,-2980 5,5 -10,5 5,-10 m -365,935 v 35 l 115,-20 -115,-15 m -520,2175 q 125,5 240,60 175,95 195,270 10,125 -100,145 l 20,45 q -75,100 -225,140 l -255,60 35,60 30,75 q 10,125 -555,160 l -140,-20 -565,-60 -315,-10 5,-40 -35,-5 q -35,-105 5,-405 l 15,-105 -15,-140 -15,-160 -15,-120 h 350 l 220,-25 720,60 255,45 85,-30 h 60 m 645,-765 -135,-20 v 35 l 135,-15 m -560,1235 110,-10 -110,-25 v 35 m -3200,-480 55,5 85,-15 470,-30 h 795 v 90 l 5,350 10,110 q 30,300 -10,385 l -30,30 v 10 l -390,15 -525,10 -285,-15 -105,-10 -45,-10 -30,-5 -35,-920 h 35"
     fill="#2c2c27"
     fill-rule="evenodd"
     stroke="none"
     id="path8"
     style="stroke-width:100" />
  <defs
     id="defs41">
    <linearGradient
       gradientTransform="matrix(0.94,-3.38,1.47,0.41,5580,1600)"
       gradientUnits="userSpaceOnUse"
       id="gradient0"
       spreadMethod="pad"
       x1="-819.2"
       x2="819.2">
      <stop
         offset="0.0"
         stop-color="#635b58"
         id="stop36" />
      <stop
         offset="1.0"
         stop-color="#d3cebc"
         id="stop38" />
    </linearGradient>
  </defs>
</svg>
