<?xml version="1.0" encoding="UTF-8" standalone="no"?>
<svg
   xmlns:dc="http://purl.org/dc/elements/1.1/"
   xmlns:cc="http://creativecommons.org/ns#"
   xmlns:rdf="http://www.w3.org/1999/02/22-rdf-syntax-ns#"
   xmlns:svg="http://www.w3.org/2000/svg"
   xmlns="http://www.w3.org/2000/svg"
   xmlns:sodipodi="http://sodipodi.sourceforge.net/DTD/sodipodi-0.dtd"
   xmlns:inkscape="http://www.inkscape.org/namespaces/inkscape"
   height="6290.0px"
   width="6105.0px"
   version="1.1"
   id="svg46"
   sodipodi:docname="1481.svg"
   inkscape:version="1.0.2-2 (e86c870879, 2021-01-15)">
  <metadata
     id="metadata50">
    <rdf:RDF>
      <cc:Work
         rdf:about="">
        <dc:format>image/svg+xml</dc:format>
        <dc:type
           rdf:resource="http://purl.org/dc/dcmitype/StillImage" />
      </cc:Work>
    </rdf:RDF>
  </metadata>
  <sodipodi:namedview
     pagecolor="#ffffff"
     bordercolor="#666666"
     borderopacity="1"
     objecttolerance="10"
     gridtolerance="10"
     guidetolerance="10"
     inkscape:pageopacity="0"
     inkscape:pageshadow="2"
     inkscape:window-width="1920"
     inkscape:window-height="1017"
     id="namedview48"
     showgrid="false"
     inkscape:zoom="0.13513514"
     inkscape:cx="3052.5"
     inkscape:cy="3145"
     inkscape:window-x="-8"
     inkscape:window-y="-8"
     inkscape:window-maximized="1"
     inkscape:current-layer="svg46" />
  <path
     d="m 5220,0 120,45 385,480 165,210 q 215,445 215,1110 l -5,185 -25,105 -10,115 -25,90 -35,115 -445,555 q -310,415 -405,670 l -25,150 q 0,40 55,200 l 30,75 -5,5 160,420 -25,30 -5,-10 -70,-150 -90,-275 -175,-200 -5,-5 -175,-130 -20,-5 -105,-55 5,195 -25,60 10,55 -5,65 10,65 15,975 -10,180 -15,30 -395,215 -175,55 -190,20 -105,15 h -25 l -260,25 h -20 l -400,-25 -15,-5 h -25 l -10,-5 -85,-20 -85,-5 -175,-25 -40,-105 5,-15 q 0,-30 -25,-45 l -45,-100 -90,-260 -155,-540 5,-355 v -10 l 30,-120 v -25 l -15,-45 10,-10 20,-55 -35,-140 -5,-10 -10,-15 5,-5 -20,-60 -90,-155 -45,-115 v -255 q 0,-340 -35,-550 l 25,-60 5,-65 5,-70 20,-125 -10,-30 -70,-30 v -15 h 50 l -10,-40 -45,-65 20,-5 -65,-180 -35,-285 -40,-105 15,-240 55,-185 q 80,-260 90,-390 l 15,-20 -5,-10 20,-15 70,-125 -5,-25 -30,-25 q -75,15 -130,60 l -15,-25 q -35,-50 -70,-55 10,-50 100,-35 l 15,5 130,-30 260,-55 165,-30 170,-30 580,-85 560,-50 185,180 h 15 l 215,-95 160,-80 65,-30 105,-30 450,-115 m 85,330 -50,-65 -25,-15 v -5 l -20,-10 -10,-5 h -15 l -85,10 h -10 l -50,5 -155,35 -15,5 -35,5 -40,20 -40,10 -55,20 -30,10 -30,10 -50,25 -35,15 -30,15 h -5 q -80,45 -195,100 l -50,25 v 5 l -20,65 -40,110 -10,30 -25,175 q -5,210 50,415 l 40,150 90,220 35,120 15,45 5,10 q 85,215 210,345 l 45,40 5,10 25,40 h -5 l 65,15 10,5 10,-5 h 5 25 q 130,0 515,-105 h 10 q 205,-85 365,-180 l 195,-160 20,-125 q 0,-135 -155,-760 L 5750,980 5725,880 5570,670 5305,330 m -340,3500 40,10 20,-15 30,-55 35,-55 35,-120 75,-175 q 105,-195 335,-495 420,-555 420,-790 v -20 -10 l -75,50 -350,110 -355,105 -25,-5 -115,15 -120,20 -115,20 h -10 l -65,60 -10,15 -25,95 q 10,75 -25,120 l 35,990 125,70 140,60 m 605,-3335 15,20 -5,-10 -10,-10 m -470,2700 -10,25 10,-35 v 10 M 3825,410 l -20,-5 q -480,10 -1015,120 l -225,50 -140,55 q -90,35 -135,55 l -35,15 -75,290 q -80,355 -80,520 l 5,100 10,40 -5,25 q 15,200 90,365 l 15,25 5,15 15,40 10,5 45,50 q 80,70 150,70 l 225,-45 45,-15 h 20 30 l 45,5 360,-90 145,-15 330,-45 h 5 l 25,5 -15,-10 100,30 q 145,50 400,195 l 110,55 100,40 110,45 90,-35 25,-50 -205,-355 -5,-5 -30,-85 v 5 l -30,-80 -50,-160 -55,-185 -60,-240 -15,-60 v -50 h 10 l -10,-20 -30,-200 30,-170 15,-45 h -15 v -5 l 5,-10 -125,-135 -125,-100 h -10 l -60,-5 m -115,1690 h -210 l -165,35 -480,80 -180,35 -215,25 -45,35 h -5 l -60,45 -30,20 -30,35 -5,30 -5,50 v 5 l -5,10 -35,310 q -5,325 105,700 l 40,115 55,150 35,20 h 5 l 15,10 q 80,60 200,60 l 40,10 275,15 h 5 20 l 170,-10 175,15 180,-15 270,20 h 15 l 110,-5 h 5 20 q 220,-15 390,0 l 125,-10 35,-30 60,-30 15,-50 15,-235 q 0,-145 -35,-540 l -35,-415 -60,-100 -20,-10 -55,-10 5,-10 -510,-270 -70,-25 q -85,-25 -130,-65 m 925,310 v -5 l -10,30 15,-25 h -5 m -355,3060 h 10 l 15,-10 100,-40 200,-115 5,5 v -20 l -10,-115 15,-40 -5,-185 -15,-300 15,-120 v -230 -50 q -5,-105 -30,-145 v -20 l -20,-20 -15,-15 -230,-55 -130,-30 h -15 l -105,-15 -45,-5 h -10 l -150,-10 -85,-5 -70,5 h -15 l -160,-5 -410,15 h -25 l -155,5 -165,-5 -200,50 -130,55 -25,160 25,290 q 0,175 55,365 l 55,180 10,35 55,130 q 60,90 55,115 v 5 l 20,35 85,130 55,30 h 5 l 390,40 80,10 515,-10 85,-20 45,-10 115,-20 h 10 5 l 15,-5 10,-5 140,-30 30,-5 m 445,470 -15,50 -295,75 -320,70 -30,-10 q 65,-35 325,-115 l 315,-80 q 35,0 20,10 m 245,-2090 10,5 10,-5 -20,-5 -30,-10 25,10 5,5 m 55,30 15,10 -5,-5 -5,-5 h -5"
     fill="#000000"
     fill-rule="evenodd"
     stroke="none"
     id="path26"
     style="stroke-width:100" />
  <path
     d="m 4395,1830 -35,-120 -90,-220 -40,-150 q -55,-205 -50,-415 l 25,-175 10,-30 40,-110 20,-65 v -5 l 50,-25 q 115,-55 195,-100 h 5 l 30,-15 35,-15 50,-25 30,-10 30,-10 55,-20 40,-10 40,-20 35,-5 15,-5 155,-35 50,-5 h 10 l 85,-10 h 15 l 10,5 20,10 v 5 l 25,15 50,65 95,370 180,620 10,40 -45,15 q -185,115 -650,290 l -65,25 -110,35 -45,15 -280,90 m -1665,355 h -20 l -45,15 -225,45 q -70,0 -150,-70 l -45,-50 -10,-5 -15,-40 -5,-15 -15,-25 q -75,-165 -90,-365 l 5,-25 -10,-40 -5,-100 q 0,-165 80,-520 l 75,-290 35,-15 q 45,-20 135,-55 l 140,-55 225,-50 Q 3325,415 3805,405 l 20,5 10,70 -25,140 -25,25 q -85,135 -200,540 -100,365 -100,465 0,115 55,270 l -810,265 m 1250,1715 h -20 -5 l -110,5 h -15 l -270,-20 -180,15 -175,-15 -170,10 h -20 -5 l -275,-15 -40,-10 q -120,0 -200,-60 l -15,-10 h -5 l -35,-20 -55,-150 -40,-115 q -110,-375 -105,-700 l 35,-310 5,-10 v -5 l 5,-50 5,-30 30,-35 30,-20 60,-45 h 5 l 45,-35 215,-25 180,-35 480,-80 165,-35 h 210 q -70,70 -75,265 60,245 60,350 l 5,110 v -80 l 155,630 q 80,295 125,525 m 300,1570 -30,5 -140,30 -10,5 -15,5 h -5 -10 l -115,20 -45,10 -85,20 -515,10 -80,-10 -390,-40 h -5 l -55,-30 -85,-130 -20,-35 v -5 q 5,-25 -55,-115 l -55,-130 -10,-35 -55,-180 q -55,-190 -55,-365 l -25,-290 25,-160 130,-55 200,-50 165,5 155,-5 h 25 l 410,-15 160,5 h 15 l 70,-5 85,5 150,10 205,700 80,265 20,385 5,-5 -40,180"
     fill="#52524b"
     fill-rule="evenodd"
     stroke="none"
     id="path28"
     style="stroke-width:100" />
  <path
     d="m 5305,330 265,340 155,210 25,100 10,25 q 155,625 155,760 l -20,125 -195,160 q -160,95 -365,180 h -10 q -385,105 -515,105 h -25 -5 l -10,5 -10,-5 -65,-15 h 5 l -25,-40 -5,-10 -45,-40 q -125,-130 -210,-345 l -5,-10 -15,-45 280,-90 45,-15 110,-35 65,-25 q 465,-175 650,-290 l 45,-15 -10,-40 -180,-620 -95,-370 m 265,165 10,10 5,10 -15,-20 m -855,2000 10,-15 65,-60 h 10 l 115,-20 120,-20 115,-15 25,5 355,-105 350,-110 75,-50 v 10 20 q 0,235 -420,790 -230,300 -335,495 l -75,175 -35,120 -35,55 -30,55 -20,15 -40,-10 -20,-50 h -25 l -65,-45 10,-35 -20,-65 15,-70 -20,-45 10,-45 25,-10 5,5 5,-40 35,-190 5,-390 q 0,-180 -80,-330 l -45,-15 -20,-10 -30,5 -35,-5 m 385,700 v -10 l -10,35 10,-25 M 2730,2185 3540,1920 q -55,-155 -55,-270 0,-100 100,-465 115,-405 200,-540 l 25,-25 25,-140 -10,-70 60,5 h 10 l 125,100 125,135 -5,10 v 5 h 15 l -15,45 -30,170 30,200 10,20 h -10 v 50 l 15,60 60,240 55,185 50,160 30,80 v -5 l 30,85 5,5 205,355 -25,50 -90,35 -110,-45 -100,-40 -110,-55 q -255,-145 -400,-195 l -100,-30 15,10 -25,-5 h -5 l -330,45 -145,15 -360,90 -45,-5 h -30 m 980,-85 q 45,40 130,65 l 70,25 510,270 -5,10 55,10 20,10 60,100 35,415 q 35,395 35,540 l -15,235 -15,50 -60,30 -35,30 -125,10 q -170,-15 -390,0 -45,-230 -125,-525 l -155,-630 v 80 l -5,-110 q 0,-105 -60,-350 5,-195 75,-265 m 300,1845 h 10 l 45,5 105,15 h 15 l 130,30 230,55 15,15 20,20 v 20 q 25,40 30,145 v 50 230 l -15,120 15,300 5,185 -15,40 10,115 v 20 l -5,-5 -200,115 -100,40 -15,10 h -10 l 40,-180 -5,5 -20,-385 -80,-265 -205,-700 m 960,-95 v -5 l 20,5 -10,5 -10,-5 m 15,-185 15,30 10,-70 -25,40 m 40,215 h 5 l 5,5 5,5 -15,-10"
     fill="#2c2c27"
     fill-rule="evenodd"
     stroke="none"
     id="path30"
     style="stroke-width:100" />
  <defs
     id="defs44">
    <linearGradient
       gradientTransform="matrix(0.94,-3.38,1.47,0.41,-5380,-4770)"
       gradientUnits="userSpaceOnUse"
       id="gradient0"
       spreadMethod="pad"
       x1="-819.2"
       x2="819.2">
      <stop
         offset="0.0"
         stop-color="#635b58"
         id="stop34" />
      <stop
         offset="1.0"
         stop-color="#d3cebc"
         id="stop36" />
    </linearGradient>
    <linearGradient
       gradientTransform="matrix(0.76,-3.38,1.18,0.41,-4655,-4770)"
       gradientUnits="userSpaceOnUse"
       id="gradient1"
       spreadMethod="pad"
       x1="-819.2"
       x2="819.2">
      <stop
         offset="0.0"
         stop-color="#635b58"
         id="stop39" />
      <stop
         offset="1.0"
         stop-color="#d3cebc"
         id="stop41" />
    </linearGradient>
  </defs>
</svg>
