<?xml version="1.0" encoding="UTF-8" standalone="no"?>
<svg
   xmlns:dc="http://purl.org/dc/elements/1.1/"
   xmlns:cc="http://creativecommons.org/ns#"
   xmlns:rdf="http://www.w3.org/1999/02/22-rdf-syntax-ns#"
   xmlns:svg="http://www.w3.org/2000/svg"
   xmlns="http://www.w3.org/2000/svg"
   xmlns:sodipodi="http://sodipodi.sourceforge.net/DTD/sodipodi-0.dtd"
   xmlns:inkscape="http://www.inkscape.org/namespaces/inkscape"
   height="6055.0px"
   width="6345.0px"
   version="1.1"
   id="svg33"
   sodipodi:docname="1495.svg"
   inkscape:version="1.0.2-2 (e86c870879, 2021-01-15)">
  <metadata
     id="metadata37">
    <rdf:RDF>
      <cc:Work
         rdf:about="">
        <dc:format>image/svg+xml</dc:format>
        <dc:type
           rdf:resource="http://purl.org/dc/dcmitype/StillImage" />
      </cc:Work>
    </rdf:RDF>
  </metadata>
  <sodipodi:namedview
     pagecolor="#ffffff"
     bordercolor="#666666"
     borderopacity="1"
     objecttolerance="10"
     gridtolerance="10"
     guidetolerance="10"
     inkscape:pageopacity="0"
     inkscape:pageshadow="2"
     inkscape:window-width="1920"
     inkscape:window-height="1017"
     id="namedview35"
     showgrid="false"
     inkscape:zoom="0.14037985"
     inkscape:cx="3172.5"
     inkscape:cy="3027.5"
     inkscape:window-x="-8"
     inkscape:window-y="-8"
     inkscape:window-maximized="1"
     inkscape:current-layer="svg33" />
  <path
     d="m 2185,1870 510,-5 410,30 35,20 v 20 l 55,-35 365,-365 250,-215 115,-85 q 30,-80 140,-130 l 15,-5 q 375,25 635,160 l 90,55 165,180 q 480,545 480,830 0,65 -400,580 -410,505 -410,590 v 45 15 l -25,5 v 25 l -20,130 -20,10 -10,10 -5,265 q 0,250 -30,540 l 5,95 q -125,90 -325,170 l 25,20 60,90 20,-10 q 55,0 90,35 35,40 35,90 l -15,70 q -130,10 -180,145 l -610,355 -425,230 -155,60 q -415,165 -500,165 -55,0 -210,-150 h -10 q -135,-280 -340,-585 l -340,-490 10,-25 q -155,-265 -320,-700 l 10,-10 -80,-95 v -235 l 60,10 q 65,0 120,-235 l 65,-360 60,-410 150,-895 20,-5 40,-5 h 5 l 5,5 h 15 370 m 590,1785 -40,-300 v -5 q 20,-135 -10,-210 -20,-50 -45,-50 l -250,-15 170,-330 10,-10 v -5 l 100,-225 v -5 q 60,-80 100,-190 l 25,-60 120,-115 5,-5 30,-30 125,-120 -85,10 -135,-10 -10,-5 -95,-10 -60,-10 -330,-50 -135,-20 -80,10 h -30 l -150,15 -110,5 -90,-15 q 0,40 -155,800 l -60,315 -50,285 -20,105 -5,35 -30,280 -5,75 10,175 10,95 170,365 35,80 25,5 h 90 l 235,-50 100,-30 30,-10 130,-25 370,-70 65,-15 40,-5 -15,-35 35,-5 40,-25 -5,-10 -20,-80 h -10 l -30,-395 -10,-100 v -5 m 825,-1325 -20,-5 -100,-5 h -45 -20 -110 l -55,-10 -165,20 q -140,25 -160,50 l 5,10 -50,125 v 80 20 l -35,200 -25,110 q -30,160 -5,275 l 50,455 -5,130 25,70 q 95,785 185,975 v 15 l 10,75 70,5 130,5 170,-10 265,-40 155,-35 30,-10 50,-15 110,-15 q 210,-65 300,-250 105,-135 105,-315 0,-100 -15,-165 25,-315 25,-855 l -10,-80 h -5 q -20,-85 -250,-385 -225,-295 -310,-330 l -80,-55 -20,5 -50,-20 -120,-25 h -20 -5 -5 m 1350,-765 -30,-40 -20,-20 -155,-175 -135,-105 h -20 l -55,-15 -60,-10 h 40 l -115,-40 -25,-5 -55,-5 -160,-25 -150,100 -5,5 h 20 q -285,155 -645,555 l -470,545 70,-20 h 30 l 410,-65 265,20 125,30 20,10 130,85 15,20 q 265,360 660,770 v 40 q 130,-90 355,-320 405,-400 405,-570 0,-230 -445,-765 m -1095,3345 -260,65 -80,-15 -520,130 -315,85 h -35 l -115,25 -80,20 -145,55 -130,55 130,215 50,45 105,95 15,-5 80,85 20,20 30,25 h 125 l -5,-15 55,-20 q 165,-65 545,-260 l 235,-125 h 10 l 35,-25 q 320,-180 425,-285 l 15,-10 v -10 l 5,-35 q -30,-60 -5,-165 l -190,50 m -1670,-395 -30,5 -100,25 -105,20 -90,35 -105,30 40,85 5,10 5,10 10,15 5,5 5,10 5,10 255,410 25,5 5,5 5,5 80,60 70,-30 335,-125 q 245,-105 305,-160 l 35,-5 60,-20 -30,-75 -65,-250 -5,-30 v -10 l -10,-70 q -35,-25 -85,-20 v 5 l -60,-5 h -65 l -65,-5 -385,45 -50,10"
     fill="#000000"
     fill-rule="evenodd"
     stroke="none"
     id="path18"
     style="stroke-width:100" />
  <path
     d="m 1730,4515 -25,-5 -35,-80 -170,-365 -10,-95 -10,-175 5,-75 30,-280 5,-35 20,-105 50,-285 60,-315 q 155,-760 155,-800 l 90,15 110,-5 150,-15 h 30 l 80,-10 135,20 330,50 60,10 95,10 10,5 135,10 85,-10 -125,120 -30,30 -5,5 -120,115 -25,60 q -40,110 -100,190 v 5 l -100,225 v 5 l -10,10 -170,330 250,15 q 25,0 45,50 30,75 10,210 v 5 l 40,300 -105,25 q -655,175 -1010,175 l -55,-15 30,370 95,305 m 1420,410 -70,-5 -10,-75 v -15 q -90,-190 -185,-975 l -25,-70 5,-130 -50,-455 q -25,-115 5,-275 l 25,-110 35,-200 v -20 -80 l 50,-125 -5,-10 q 20,-25 160,-50 l 165,-20 55,10 h 110 20 45 l 100,5 20,5 -75,160 q -200,495 -175,1155 40,245 95,885 -25,90 -295,395 m 535,-2660 -265,-20 -410,65 h -30 l -70,20 470,-545 q 360,-400 645,-555 h -20 l 5,-5 150,-100 160,25 55,5 25,5 115,40 h -40 l 60,10 55,15 h 20 l 135,105 155,175 20,20 30,40 -215,20 -185,20 -315,75 -105,25 -30,55 25,-55 -10,5 -270,325 -160,230"
     fill="#52524b"
     fill-rule="evenodd"
     stroke="none"
     id="path20"
     style="stroke-width:100" />
  <path
     d="m 1730,4515 -95,-305 -30,-370 55,15 q 355,0 1010,-175 l 105,-25 v 5 l 10,100 30,395 h 10 l 20,80 5,10 -40,25 -35,5 15,35 -40,5 -65,15 -370,70 -130,25 -30,10 -100,30 -235,50 h -90 M 3600,2330 h 5 5 20 l 120,25 50,20 20,-5 80,55 q 85,35 310,330 230,300 250,385 h 5 l 10,80 q 0,540 -25,855 15,65 15,165 0,180 -105,315 -90,185 -300,250 l -110,15 -50,15 -30,10 -155,35 -265,40 -170,10 -130,-5 q 270,-305 295,-395 -55,-640 -95,-885 -25,-660 175,-1155 l 75,-160 m 85,-65 160,-230 270,-325 10,-5 -25,55 30,-55 105,-25 315,-75 185,-20 215,-20 q 445,535 445,765 0,170 -405,570 -225,230 -355,320 v -40 q -395,-410 -660,-770 l -15,-20 -130,-85 -20,-10 -125,-30 m -1500,2250 50,-10 385,-45 65,5 h 65 l 60,5 v -5 q 50,-5 85,20 l 10,70 v 10 l 5,30 65,250 30,75 -60,20 -35,5 q -60,55 -305,160 l -335,125 -70,30 -80,-60 -5,-5 -5,-5 -25,-5 -255,-410 -5,-10 -5,-10 -5,-5 -10,-15 -5,-10 -5,-10 -40,-85 105,-30 90,-35 105,-20 100,-25 30,-5 m 1670,395 190,-50 q -25,105 5,165 l -5,35 v 10 l -15,10 q -105,105 -425,285 l -35,25 h -10 l -235,125 q -380,195 -545,260 l -55,20 5,15 h -125 l -30,-25 -20,-20 -80,-85 -15,5 -105,-95 -50,-45 -130,-215 130,-55 145,-55 80,-20 115,-25 h 35 l 315,-85 520,-130 80,15 260,-65"
     fill="#2c2c27"
     fill-rule="evenodd"
     stroke="none"
     id="path22"
     style="stroke-width:100" />
  <defs
     id="defs31">
    <linearGradient
       gradientTransform="matrix(0.94,-3.38,1.47,0.41,-55,-8160)"
       gradientUnits="userSpaceOnUse"
       id="gradient0"
       spreadMethod="pad"
       x1="-819.2"
       x2="819.2">
      <stop
         offset="0.0"
         stop-color="#635b58"
         id="stop26" />
      <stop
         offset="1.0"
         stop-color="#d3cebc"
         id="stop28" />
    </linearGradient>
  </defs>
</svg>
