<?xml version="1.0" encoding="UTF-8" standalone="no"?>
<svg
   xmlns:dc="http://purl.org/dc/elements/1.1/"
   xmlns:cc="http://creativecommons.org/ns#"
   xmlns:rdf="http://www.w3.org/1999/02/22-rdf-syntax-ns#"
   xmlns:svg="http://www.w3.org/2000/svg"
   xmlns="http://www.w3.org/2000/svg"
   xmlns:sodipodi="http://sodipodi.sourceforge.net/DTD/sodipodi-0.dtd"
   xmlns:inkscape="http://www.inkscape.org/namespaces/inkscape"
   height="6845.0px"
   width="6925.0px"
   version="1.1"
   id="svg39"
   sodipodi:docname="1515.svg"
   inkscape:version="1.0.2-2 (e86c870879, 2021-01-15)">
  <metadata
     id="metadata43">
    <rdf:RDF>
      <cc:Work
         rdf:about="">
        <dc:format>image/svg+xml</dc:format>
        <dc:type
           rdf:resource="http://purl.org/dc/dcmitype/StillImage" />
      </cc:Work>
    </rdf:RDF>
  </metadata>
  <sodipodi:namedview
     pagecolor="#ffffff"
     bordercolor="#666666"
     borderopacity="1"
     objecttolerance="10"
     gridtolerance="10"
     guidetolerance="10"
     inkscape:pageopacity="0"
     inkscape:pageshadow="2"
     inkscape:window-width="1920"
     inkscape:window-height="1017"
     id="namedview41"
     showgrid="false"
     inkscape:zoom="0.12417823"
     inkscape:cx="3462.5"
     inkscape:cy="3422.5"
     inkscape:window-x="-8"
     inkscape:window-y="-8"
     inkscape:window-maximized="1"
     inkscape:current-layer="svg39" />
  <path
     d="M 285,2370 Q 270,2185 525,1665 920,855 1045,855 l 75,15 50,55 790,330 q 875,370 1225,570 755,435 1420,1270 640,815 640,1270 l -10,65 15,205 q -115,425 -180,735 l -175,180 -660,615 -105,100 q -420,285 -1005,580 l -160,-10 -790,-550 -140,-125 q -175,-160 -335,-245 l -575,-130 -370,-95 -290,-65 q -210,-190 -145,-720 0,-600 35,-785 l 10,-40 -20,-50 q -90,-235 -135,-845 10,-580 50,-745 l 25,-70 m 4765,2375 q 80,-240 95,-465 h 5 q -70,-265 -425,-820 -390,-630 -525,-740 -330,-290 -1095,-840 -370,-275 -1210,-550 -510,-165 -745,-265 -40,110 -180,330 l -235,365 -150,435 q -40,115 -85,180 v 60 l -30,595 q 0,495 60,745 l 40,150 10,5 60,35 55,-5 55,-30 q 65,-40 135,-40 v 15 l -35,35 145,-10 105,10 -5,30 -370,60 -90,25 -20,5 v 5 l -35,655 50,670 v 5 q 145,75 755,195 l 105,20 200,30 195,40 10,-10 50,5 q 65,0 185,-115 150,-130 150,-275 l -40,-130 -5,-10 -5,-15 85,15 30,10 h 5 v -15 l -5,-50 210,-30 265,-80 45,30 25,55 v 5 l -5,50 85,25 h -65 l -30,10 q -35,65 -120,95 l -25,10 95,105 q 225,225 480,350 150,80 315,125 l 450,50 75,25 90,-70 q 255,-160 535,-575 185,-270 280,-525 m -1715,1015 -25,-20 -395,-230 -35,-55 q -100,-130 -160,-140 l -10,-10 -20,20 -45,10 v -5 l -20,20 -20,20 -210,110 -110,70 -120,70 -5,5 -100,80 -30,20 v 30 l -45,10 -10,5 150,155 65,75 245,195 q 425,350 665,365 h 30 q 85,0 235,-80 h 5 l 340,-235 265,-210 q -160,-30 -385,-140 l -255,-135"
     fill="#000000"
     fill-rule="evenodd"
     stroke="none"
     id="path2"
     style="stroke-width:100" />
  <path
     d="m 630,5390 -50,-670 35,-655 v -5 l 20,-5 90,-25 370,-60 5,-30 -105,-10 -145,10 35,-35 v -15 q -70,0 -135,40 l -55,30 -55,5 -60,-35 -10,-5 -40,-150 q -60,-250 -60,-745 l 30,-595 v -60 q 45,-65 85,-180 l 150,-435 235,-365 q 140,-220 180,-330 235,100 745,265 840,275 1210,550 765,550 1095,840 135,110 525,740 355,555 425,820 h -5 q -15,225 -95,465 l -35,-5 q -85,0 -560,155 l -115,40 10,-50 q 0,-35 -35,-75 l -45,-50 q 190,-105 190,-220 0,-50 -35,-100 -35,-40 -75,-40 -130,0 -370,235 -240,240 -305,440 -80,175 -370,635 v 5 q -255,-125 -480,-350 l -95,-105 25,-10 q 85,-30 120,-95 l 30,-10 h 65 l -85,-25 5,-50 v -5 l -25,-55 -45,-30 -265,80 -210,30 5,50 -35,5 -85,-15 5,15 5,10 -185,40 -780,140 -385,35 -260,20 m 2470,1170 q -240,-15 -665,-365 l -245,-195 -65,-75 -150,-155 10,-5 45,-10 v -30 l 30,-20 100,-80 5,-5 120,-70 110,-70 210,-110 20,-20 20,-20 v 5 l 45,-10 20,-20 10,10 q 60,10 160,140 l 35,55 395,230 25,20 -125,385 -110,415 m 270,-80 h -5 v -5 l 5,5"
     fill="#52524b"
     fill-rule="evenodd"
     stroke="none"
     id="path4"
     style="stroke-width:100" />
  <path
     d="m 630,5390 260,-20 385,-35 780,-140 185,-40 40,130 q 0,145 -150,275 -120,115 -185,115 l -50,-5 -10,10 -195,-40 -200,-30 -105,-20 Q 775,5470 630,5395 v -5 m 1685,-245 35,-5 v 15 h -5 l -30,-10 m 990,570 v -5 q 290,-460 370,-635 65,-200 305,-440 240,-235 370,-235 40,0 75,40 35,50 35,100 0,115 -190,220 l 45,50 q 35,40 35,75 l -10,50 115,-40 q 475,-155 560,-155 l 35,5 q -95,255 -280,525 -280,415 -535,575 l -90,70 -75,-25 -450,-50 q -165,-45 -315,-125 m 30,45 255,135 q 225,110 385,140 l -265,210 -340,235 -5,-5 v 5 q -150,80 -235,80 h -30 l 110,-415 125,-385"
     fill="#2c2c27"
     fill-rule="evenodd"
     stroke="none"
     id="path6"
     style="stroke-width:100" />
  <defs
     id="defs37">
    <linearGradient
       gradientTransform="matrix(0.96,-3.51,1.5,0.42,4630,-625)"
       gradientUnits="userSpaceOnUse"
       id="gradient0"
       spreadMethod="pad"
       x1="-819.2"
       x2="819.2">
      <stop
         offset="0.0"
         stop-color="#635b58"
         id="stop32" />
      <stop
         offset="1.0"
         stop-color="#d3cebc"
         id="stop34" />
    </linearGradient>
  </defs>
</svg>
