<?xml version="1.0" encoding="UTF-8" standalone="no"?>
<svg
   xmlns:dc="http://purl.org/dc/elements/1.1/"
   xmlns:cc="http://creativecommons.org/ns#"
   xmlns:rdf="http://www.w3.org/1999/02/22-rdf-syntax-ns#"
   xmlns:svg="http://www.w3.org/2000/svg"
   xmlns="http://www.w3.org/2000/svg"
   xmlns:sodipodi="http://sodipodi.sourceforge.net/DTD/sodipodi-0.dtd"
   xmlns:inkscape="http://www.inkscape.org/namespaces/inkscape"
   height="7905.0px"
   width="8810.0px"
   version="1.1"
   id="svg41"
   sodipodi:docname="1068.svg"
   inkscape:version="1.0.2-2 (e86c870879, 2021-01-15)">
  <metadata
     id="metadata45">
    <rdf:RDF>
      <cc:Work
         rdf:about="">
        <dc:format>image/svg+xml</dc:format>
        <dc:type
           rdf:resource="http://purl.org/dc/dcmitype/StillImage" />
      </cc:Work>
    </rdf:RDF>
  </metadata>
  <sodipodi:namedview
     pagecolor="#ffffff"
     bordercolor="#666666"
     borderopacity="1"
     objecttolerance="10"
     gridtolerance="10"
     guidetolerance="10"
     inkscape:pageopacity="0"
     inkscape:pageshadow="2"
     inkscape:window-width="1920"
     inkscape:window-height="1017"
     id="namedview43"
     showgrid="false"
     inkscape:zoom="0.10752688"
     inkscape:cx="4405"
     inkscape:cy="3952.5"
     inkscape:window-x="-8"
     inkscape:window-y="-8"
     inkscape:window-maximized="1"
     inkscape:current-layer="svg41" />
  <path
     d="m 5780,5265 q 60,25 105,60 -160,145 -480,265 l -315,100 q 175,160 260,415 125,380 -330,695 -230,160 -480,240 -185,30 -640,0 l -80,115 -5,-25 -840,-120 -340,-50 -370,-65 -590,-400 -230,-135 Q 1015,6065 665,5880 L 615,5765 Q 440,5200 430,4790 v -180 l 55,-30 255,-15 -110,-80 -35,-30 L 35,4100 15,3975 q -40,-415 20,-730 15,-260 85,-470 l 50,-180 85,-20 655,35 40,5 5,10 h 15 l 55,-15 85,20 75,10 q 125,35 245,160 l 135,85 q -285,-300 -555,-515 v -140 q 75,-600 290,-990 l 90,-180 85,-10 625,105 40,5 5,10 25,5 50,-5 75,30 75,15 q 120,50 215,190 l 230,205 220,170 335,255 175,140 h 10 q 410,285 730,385 l 95,40 190,35 200,-5 50,-5 h 5 l 60,-20 q 180,-40 250,-70 l 85,-260 -25,15 5,-135 -50,-210 v -10 q 0,-250 -475,-750 l -315,-305 -30,-145 250,-440 60,-50 140,-140 80,-85 115,-20 225,5 h 35 l 465,60 165,45 45,10 200,60 480,560 130,245 485,770 95,235 270,555 h 5 q 45,35 85,225 l -30,15 5,15 15,30 v 20 l 70,235 85,360 h -10 l 50,160 25,155 -25,135 -25,10 -60,-165 -35,40 -5,-10 -55,-105 -15,-30 -80,-160 -60,-230 -50,-115 -50,-150 h -30 q -55,0 -70,-35 l -10,-50 -10,10 -25,10 -190,190 v 30 l -65,125 -140,220 -20,35 -115,25 40,175 v 120 l -5,40 q -50,400 -755,590 60,125 75,275 20,205 -175,380 l -170,125 -120,-60 185,-130 q 160,-145 145,-305 -10,-145 -60,-255 l -645,75 q -245,-15 -775,-165 l -20,-5 q -65,50 -170,90 l 5,-25 -515,-200 -275,-125 -370,-170 -360,-155 -160,-15 -35,5 -610,-40 -10,20 -20,50 -40,130 -10,70 25,10 -40,115 -5,55 -15,65 -5,310 5,265 10,80 q 15,150 70,180 l 35,20 15,5 15,-15 90,45 85,30 105,25 390,115 145,15 345,125 495,80 100,15 h 10 l 920,100 100,-10 95,-15 120,-30 350,-120 q 280,-120 435,-235 m 1150,-2270 35,-85 10,-25 10,-20 60,-175 30,275 h 10 5 q 50,-90 195,-220 l -5,-15 v -130 l -20,-90 -20,-185 q -110,-155 -200,-340 l -200,-230 q -145,-110 -250,-135 l -20,-25 -260,-20 -385,50 -200,50 -65,30 -5,5 -15,45 -100,225 -25,50 -10,20 -5,10 -30,75 -40,80 -10,15 -10,30 v 5 l -10,10 v 5 l -35,125 q 15,30 15,95 -15,105 -105,185 l -15,35 -10,50 v 20 l 20,10 v 20 l 125,25 25,10 45,10 490,70 300,80 -5,10 30,20 -420,-55 420,60 35,20 70,40 55,30 85,65 q 110,90 165,210 l 145,-230 85,-180 150,-35 v 5 l 5,-10 -145,30 m -5305,-1660 -35,-5 -90,75 -235,840 85,70 955,985 245,230 v -25 l 15,-50 265,-1000 5,-35 70,-5 v -15 h 290 l 315,40 25,10 -20,-25 -310,-255 q -810,-670 -895,-680 l -35,-25 -350,-75 -195,-25 -5,-15 -100,-15 m 320,2400 v -10 l 300,-25 310,10 h 5 l -30,-30 -320,-210 Q 1270,2910 1180,2910 l -40,-20 -365,-40 -205,5 -10,-15 -50,-5 v 5 l -85,-10 -50,30 -25,50 -10,140 15,20 -20,35 q 0,5 -10,5 l -55,850 90,50 725,535 455,325 265,180 -5,-15 v -10 l 10,-115 5,-70 40,-820 15,5 10,-215 5,-60 60,-10 v -5 m 75,1815 10,-5 -10,-20 210,-50 245,-25 25,-5 -30,-10 -165,-85 -435,-125 -5,-5 -70,-45 -65,-40 -50,-40 -5,-5 -130,-95 -340,-275 h -5 v -5 l -20,-15 -95,-5 -190,10 -100,35 -135,20 v 25 40 l -25,80 170,820 85,40 1325,860 -10,-20 -225,-1035 40,-20 m 885,-3100 -95,190 q -120,275 -170,695 l -10,150 q 5,95 30,130 l 35,25 15,5 20,-15 75,50 q 85,55 175,80 160,85 360,150 l 115,35 30,5 305,160 470,135 q 735,220 995,235 205,15 585,-80 l 105,-30 h 10 q 640,-175 680,-490 20,-170 -20,-300 l -45,-115 -15,-20 -5,-10 105,20 -95,-20 -95,-135 -145,-100 -50,-25 -160,-60 h -5 l -10,5 q 135,65 240,160 l -115,70 Q 5650,3170 5185,2765 l -15,10 -80,15 h -5 q 525,385 1110,560 -15,10 -20,10 -40,0 -700,-285 l -75,-35 h -5 l -30,-10 -30,-10 -40,-10 -90,-15 -80,-20 -55,-15 -75,-20 -35,-5 v -5 l -80,-20 -45,-10 -55,-20 -575,-125 q -130,-30 -220,-80 -145,-30 -265,-90 h -5 l -180,-35 -35,-10 q -375,-115 -590,-100 l -5,10 m 2820,-795 45,-5 60,-15 95,-15 10,-5 155,-40 95,-15 215,-50 125,5 270,30 -40,-60 v -5 l -5,-60 -255,-430 -30,-50 Q 6340,770 6110,540 l -125,-120 -345,-80 -275,-65 -80,-25 -80,-5 h -10 -10 l -35,-15 h -150 l -45,50 -70,70 -130,110 -70,100 -70,90 -15,45 -15,70 100,105 280,345 120,160 95,150 190,245 -5,5 50,265 -25,55 35,-65 v 15 l 25,-75 q 85,-70 160,-215 l 15,-80 100,-20 m -670,1145 h -5 5 M 2045,5605 v 165 q 30,275 155,670 70,205 125,240 l 30,20 h 20 l 5,-15 75,30 150,40 320,65 h 120 l 275,90 385,35 q 610,45 800,10 165,-35 455,-240 395,-290 295,-580 -95,-275 -275,-415 l -285,45 -830,-85 -145,110 v -25 l -465,-115 -10,-5 -145,-45 h -15 l -185,-30 -220,-25 h -5 -155 l -20,5 -455,20 v 35 m 145,1160 h 5 l -15,-15 h -5 l 15,15"
     fill="#000000"
     fill-rule="evenodd"
     stroke="none"
     id="path2"
     style="stroke-width:100" />
  <path
     d="m 5745,5245 35,20 q -155,115 -435,235 l -350,120 -120,30 -95,15 -100,10 -920,-100 h -10 l -100,-15 -495,-80 -345,-125 -145,-15 -390,-115 -105,-25 -85,-30 -90,-45 -15,15 -15,-5 -35,-20 q -55,-30 -70,-180 l -10,-80 -5,-265 5,-310 15,-65 5,-55 40,-115 -25,-10 10,-70 40,-130 20,-50 295,120 q 1270,530 1380,530 20,0 100,-50 l 90,-50 q 360,155 455,155 l 110,-5 q 65,-20 90,-80 530,150 775,165 l 645,-75 q 50,110 60,255 15,160 -145,305 l -185,130 120,60 m -20,-3570 55,80 70,260 55,320 15,175 30,90 15,80 -70,-80 -95,-90 -40,-60 -65,-90 q -50,-55 -275,-130 l 10,-15 40,-80 30,-75 5,-10 10,-20 25,-50 100,-225 15,-45 5,-5 65,-30 m 745,1325 40,45 h -85 l 45,-45 m 55,205 -85,-65 -55,-30 5,-10 40,-45 h 85 l 25,15 45,25 -60,110 m -3695,-750 -265,1000 -15,50 v 25 l -245,-230 -955,-985 -85,-70 235,-840 90,-75 35,5 100,100 q 690,675 1105,1020 m -885,1280 v 5 l -60,10 -5,60 -10,215 -15,-5 -40,820 -5,70 -10,115 v 10 l 5,15 -265,-180 -455,-325 -725,-535 -90,-50 55,-850 q 10,0 10,-5 l 20,-35 -15,-20 10,-140 25,-50 50,-30 85,10 1435,895 m 75,1815 -40,20 225,1035 10,20 -1325,-860 -85,-40 -170,-820 25,-80 v -40 q 830,525 1360,765 m 4530,-2115 5,10 15,20 45,115 q 40,130 20,300 -40,315 -680,490 h -10 l -105,30 q -380,95 -585,80 -260,-15 -995,-235 l -470,-135 -305,-160 -30,-5 -115,-35 q -200,-65 -360,-150 -90,-25 -175,-80 l -75,-50 -20,15 -15,-5 -35,-25 q -25,-35 -30,-130 l 10,-150 q 50,-420 170,-695 l 95,-190 q 1175,700 1650,700 l 215,-15 q 200,-40 200,-170 l -10,-30 35,5 75,20 55,15 80,20 90,15 40,10 30,10 30,10 h 5 l 75,35 q 660,285 700,285 5,0 20,-10 l 355,85 m -330,-85 115,-70 q -105,-95 -240,-160 l 10,-5 h 5 l 160,60 50,25 145,100 95,135 -340,-85 M 4955,280 l 20,60 220,325 160,240 30,70 340,680 -100,20 -15,80 q -75,145 -160,215 l -25,75 v -15 l -35,65 25,-55 -50,-265 5,-5 -190,-245 -95,-150 -120,-160 -280,-345 -100,-105 15,-70 15,-45 70,-90 70,-100 130,-110 70,-70 m -1700,5370 465,115 v 25 l 145,-110 830,85 285,-45 q 180,140 275,415 100,290 -295,580 -290,205 -455,240 -190,35 -800,-10 l -385,-35 -275,-90 h -120 l -320,-65 -150,-40 -75,-30 -5,15 h -20 l -30,-20 q -55,-35 -125,-240 -125,-395 -155,-670 v -165 q 540,205 1100,205 l 190,-10 30,-40 q 15,-15 15,-70 l -125,-40"
     fill="#52524b"
     fill-rule="evenodd"
     stroke="none"
     id="path4"
     style="stroke-width:100" />
  <path
     d="m 1955,3785 10,-20 610,40 35,-5 160,15 360,155 370,170 275,125 515,200 -5,25 q 105,-40 170,-90 l 20,5 q -25,60 -90,80 l -110,5 q -95,0 -455,-155 l -90,50 q -80,50 -100,50 -110,0 -1380,-530 l -295,-120 m 3770,-2110 200,-50 385,-50 260,20 20,25 q 105,25 250,135 l 200,230 q 90,185 200,340 l 20,185 20,90 v 130 l 5,15 q -145,130 -195,220 h -5 -10 l -30,-275 -60,175 -10,20 -10,25 -35,85 -60,-80 -20,-10 -120,120 -220,20 -40,-45 -10,-30 q -85,55 -125,75 h -55 l -30,-20 5,-10 -300,-80 -490,-70 -45,-10 -25,-10 -125,-25 v -20 l -20,-10 v -20 l 10,-50 15,-35 q 90,-80 105,-185 0,-65 -15,-95 l 35,-125 v -5 l 10,-10 v -5 l 10,-30 q 225,75 275,130 l 65,90 40,60 95,90 70,80 -15,-80 -30,-90 -15,-175 -55,-320 -70,-260 -55,-80 m 1350,1290 -5,10 v -5 l 5,-5 m -760,105 -35,-20 55,5 -25,5 5,10 m -4690,-1735 100,15 5,15 195,25 350,75 35,25 q 85,10 895,680 l 310,255 20,25 -25,-10 -315,-40 h -290 v 15 l -70,5 -5,35 Q 2415,2110 1725,1435 L 1625,1335 M 510,2840 v -5 l 50,5 10,15 205,-5 365,40 40,20 q 90,0 1030,560 l 320,210 30,30 h -5 l -310,-10 -300,25 v 10 L 510,2840 m 150,1945 v -25 l 135,-20 100,-35 190,-10 95,5 20,15 v 5 h 5 l 340,275 130,95 5,5 50,40 65,40 70,45 5,5 435,125 165,85 30,10 -25,5 -245,25 -210,50 10,20 -10,5 Q 1490,5310 660,4785 m 2245,-2335 5,-10 q 215,-15 590,100 l 35,10 180,35 h 5 q 120,60 265,90 90,50 220,80 l 575,125 55,20 45,10 80,20 v 5 l 10,30 q 0,130 -200,170 l -215,15 q -475,0 -1650,-700 m 2050,-2170 45,-50 h 150 l 35,15 h 10 10 l 80,5 80,25 275,65 345,80 125,120 q 230,230 355,400 l 30,50 255,430 5,60 v 5 l 40,60 -270,-30 -125,-5 -215,50 -95,15 -155,40 -10,5 -95,15 -60,15 -45,5 -340,-680 -30,-70 -160,-240 -220,-325 -20,-60 m 1630,2815 -45,-25 -25,-15 215,-20 -30,40 -50,35 -65,-15 m -3330,2555 125,40 q 0,55 -15,70 l -30,40 -190,10 q -560,0 -1100,-205 v -35 l 455,-20 20,-5 h 155 5 l 220,25 185,30 h 15 l 145,45 10,5"
     fill="#2c2c27"
     fill-rule="evenodd"
     stroke="none"
     id="path6"
     style="stroke-width:100" />
  <defs
     id="defs39">
    <linearGradient
       gradientTransform="matrix(0.94,-3.38,1.47,0.41,5605,3090)"
       gradientUnits="userSpaceOnUse"
       id="gradient0"
       spreadMethod="pad"
       x1="-819.2"
       x2="819.2">
      <stop
         offset="0.0"
         stop-color="#635b58"
         id="stop34" />
      <stop
         offset="1.0"
         stop-color="#d3cebc"
         id="stop36" />
    </linearGradient>
  </defs>
</svg>
