<?xml version="1.0" encoding="UTF-8" standalone="no"?>
<svg
   xmlns:dc="http://purl.org/dc/elements/1.1/"
   xmlns:cc="http://creativecommons.org/ns#"
   xmlns:rdf="http://www.w3.org/1999/02/22-rdf-syntax-ns#"
   xmlns:svg="http://www.w3.org/2000/svg"
   xmlns="http://www.w3.org/2000/svg"
   xmlns:sodipodi="http://sodipodi.sourceforge.net/DTD/sodipodi-0.dtd"
   xmlns:inkscape="http://www.inkscape.org/namespaces/inkscape"
   height="6510.0px"
   width="8905.0px"
   version="1.1"
   id="svg41"
   sodipodi:docname="1096.svg"
   inkscape:version="1.0.2-2 (e86c870879, 2021-01-15)">
  <metadata
     id="metadata45">
    <rdf:RDF>
      <cc:Work
         rdf:about="">
        <dc:format>image/svg+xml</dc:format>
        <dc:type
           rdf:resource="http://purl.org/dc/dcmitype/StillImage" />
      </cc:Work>
    </rdf:RDF>
  </metadata>
  <sodipodi:namedview
     pagecolor="#ffffff"
     bordercolor="#666666"
     borderopacity="1"
     objecttolerance="10"
     gridtolerance="10"
     guidetolerance="10"
     inkscape:pageopacity="0"
     inkscape:pageshadow="2"
     inkscape:window-width="1920"
     inkscape:window-height="1017"
     id="namedview43"
     showgrid="false"
     inkscape:zoom="0.11701291"
     inkscape:cx="4452.5"
     inkscape:cy="3255"
     inkscape:window-x="-8"
     inkscape:window-y="-8"
     inkscape:window-maximized="1"
     inkscape:current-layer="svg41" />
  <path
     d="m 1865,250 -70,10 -5,10 -30,50 -145,225 -85,340 -40,195 -10,40 v 20 q 890,440 1300,525 l 215,60 85,-130 120,-430 -5,5 65,-185 80,-165 v -5 l 40,-35 h 15 l 160,-20 150,-25 h 310 v -5 l 5,-25 -110,-40 -815,-250 -705,-185 -75,-15 -10,-5 -125,-10 -140,20 -115,20 -60,10 m 85,-160 v 5 l 15,-5 h -15 m 2515,4970 v 15 l -5,110 -215,40 q -55,265 -580,475 l -270,95 165,40 -25,30 -80,10 -170,5 110,35 10,35 -50,20 -100,-20 -230,-25 -40,-15 -310,-25 -465,-90 q -190,-285 -240,-430 h -15 -35 l -30,5 h -15 l -195,15 -275,25 -70,10 -105,25 -765,105 -140,-20 -155,-330 Q 100,4825 85,4400 l 95,-95 h -5 l 435,-315 80,-30 135,-35 405,-120 90,-30 85,-10 30,-5 440,-80 15,-5 65,-5 365,-20 -60,-10 -280,-50 -90,-20 L 1180,3465 230,3345 90,3285 0,2925 q 5,-390 90,-815 l 120,-70 -5,-5 380,-135 170,-10 q 15,-5 35,-15 l 80,5 60,-5 410,-30 h 330 l 220,10 90,10 h 5 20 q 895,175 1100,175 l 60,-5 75,10 -10,-5 -40,-15 20,-20 -25,-30 -260,-55 -675,-245 q -610,-175 -845,-305 l -110,-85 10,-370 q 110,-380 305,-785 l 130,-45 v -5 l 535,-80 85,25 145,25 410,75 675,195 510,140 205,135 110,55 q 570,290 705,330 l 635,110 q 390,60 625,215 -35,25 -110,25 h -95 l 135,90 120,25 q 210,45 210,110 0,80 -60,100 l -70,5 h -10 l 20,120 q 0,195 -260,385 -130,95 -310,205 -130,160 -300,245 -150,75 -270,75 l 20,65 q 55,185 -150,420 l -225,240 -25,20 q -90,180 -230,295 320,175 320,395 l -5,175 65,75 -15,25 q -35,200 -145,355 -90,135 -200,200 l -140,65 -5,-115 v -15 l 85,-40 q 125,-75 275,-460 l -5,-10 15,-30 q -45,-430 -230,-540 l -80,-30 -180,75 q -215,40 -580,0 l -150,-20 -80,5 q -305,-120 -655,-130 290,55 545,190 l -800,-50 -145,15 -705,320 -30,10 v 10 l 5,5 25,180 5,15 v 60 h 10 l -15,60 -5,15 5,60 10,40 45,110 q 15,175 120,380 l 45,30 455,-10 315,20 580,-10 q 650,-20 940,-100 M 3210,865 l 10,-10 -10,15 v -5 m -1125,1530 285,-105 310,-60 v -5 l -5,-25 -115,-20 -575,-60 h -5 l -90,-15 -200,-15 -530,-25 -305,-20 h -35 l -125,15 -140,45 -5,5 -20,10 -85,30 -35,15 -15,5 -80,25 -5,10 -20,55 -80,250 5,345 15,195 5,40 5,20 q 1025,245 1475,245 l 175,15 55,15 35,-90 5,-20 10,-35 5,-435 -5,5 15,-195 35,-180 30,-40 h 10 M 420,2005 v 5 l 15,-5 h -15 m 2935,-1145 -55,150 -25,50 5,5 -45,65 q -50,95 -50,205 -65,175 -70,400 l 30,40 415,175 275,135 425,165 210,-15 q 395,-15 665,90 -30,30 -95,45 l -105,20 165,60 h 125 q 215,0 230,65 v 40 q 185,-65 500,-355 l 335,-320 q 55,-70 55,-95 v -15 l -5,-45 -30,-80 -55,-10 h -5 Q 5890,1560 5345,1320 4935,1140 4330,830 l -135,-35 -825,20 -15,45 m -1200,1555 -80,15 -20,205 -10,50 10,5 -30,70 q -25,100 5,210 -20,180 35,400 l 40,35 455,85 305,75 265,45 q 705,-110 1255,145 l 105,-15 q 170,-35 470,-465 v -5 q 285,-415 265,-480 l -60,-120 -25,-5 -345,-15 -310,-45 -355,-65 -1115,-280 -145,-10 -715,165 m 1890,-155 h 5 l -5,-5 v 5 m -390,-35 110,25 -85,-35 -25,10 m 2075,-935 -65,-10 90,20 -25,-10 m -2210,2370 110,-15 -100,-5 -10,20 m 90,1600 -400,-10 q 10,40 -30,55 l -40,25 -765,35 -205,5 q 25,155 110,225 95,80 270,90 l 315,20 45,10 315,45 250,-85 q 420,-135 660,-435 l -525,20 m -1705,-1060 15,-40 35,-15 40,-20 200,-120 275,-115 v -5 l -15,-25 h -115 l -330,30 h -55 l -65,10 -15,5 -105,15 -10,10 -255,45 -100,20 -175,40 -505,120 -115,50 -15,10 h -5 l -35,25 -50,35 -200,150 v 15 5 l -10,45 -15,260 75,325 45,180 15,40 15,25 800,-40 175,-20 285,-40 110,-30 75,-10 15,-5 40,-5 h 25 60 l 10,-95 5,-60 -65,-310 -10,-30 -20,-80 q -25,-50 -30,-200 l -5,-180 5,-15 m -1535,0 -10,10 v 5 l 10,-15"
     fill="#000000"
     fill-rule="evenodd"
     stroke="none"
     id="path2"
     style="stroke-width:100" />
  <path
     d="m 1865,250 -45,10 115,40 635,225 605,260 150,60 15,-25 -80,165 -65,185 5,-5 -120,430 -85,130 -215,-60 q -410,-85 -1300,-525 v -20 l 10,-40 40,-195 85,-340 145,-225 30,-50 5,-10 70,-10 m 2780,4640 q -20,-320 -235,-555 -265,-300 -605,-455 l 140,-25 q 365,40 580,0 l 180,-75 80,30 q 185,110 230,540 l -15,30 5,10 q -150,385 -275,460 l -85,40 m -955,-940 q 330,195 575,530 200,260 200,580 -290,80 -940,100 l -580,10 -315,-20 -455,10 -45,-30 q -105,-205 -120,-380 l -45,-110 -10,-40 -5,-60 5,-15 15,-60 h -10 v -60 l -5,-15 -25,-180 h 25 l 75,-5 h 560 l 625,-5 q 415,-20 420,-130 0,-30 -30,-55 l -15,-10 45,-50 55,-5 M 3210,865 v 5 l 10,-15 -10,10 m -2815,1305 725,90 770,95 195,40 h -10 l -30,40 -35,180 -15,195 5,-5 -5,435 -10,35 -5,20 -35,90 -55,-15 -175,-15 q -450,0 -1475,-245 l -5,-20 -5,-40 -15,-195 -5,-345 80,-250 20,-55 5,-10 80,-25 m 5895,-290 -335,320 q -315,290 -500,355 v -40 q -15,-65 -230,-65 h -125 l -165,-60 105,-20 q 65,-15 95,-45 -270,-105 -665,-90 l -210,15 -425,-165 -275,-135 -415,-175 -30,-40 q 5,-225 70,-400 0,-110 50,-205 l 45,-65 -5,-5 25,-50 55,-150 340,160 q 1265,615 1305,615 h 15 l 20,15 q 615,390 795,390 55,0 100,-45 l -460,-310 35,-30 55,-35 q 605,255 690,255 l 40,5 m -35,-245 55,10 30,80 -85,-90 m -1460,1015 345,15 25,5 60,120 q 20,65 -265,480 v 5 q -300,430 -470,465 l -105,15 Q 3835,3500 3130,3610 l -265,-45 -305,-75 -455,-85 -40,-35 q -55,-220 -35,-400 -30,-110 -5,-210 l 30,-70 -10,-5 10,-50 20,-205 80,-15 145,30 315,45 305,40 595,165 q 510,140 675,140 h 60 v -45 l -290,-135 985,175 160,-30 q -145,-85 -310,-150 m -1185,2610 525,-20 q -240,300 -660,435 l -250,85 -315,-45 -45,-10 -315,-20 q -175,-10 -270,-90 -85,-70 -110,-225 l 205,-5 765,-35 40,-25 q 40,-15 30,-55 l 400,10 m -3305,-815 605,-90 320,-55 175,-30 470,-65 15,-5 h 10 5 l -5,15 5,180 q 5,150 30,200 l 20,80 10,30 65,310 -5,60 -10,95 h -60 -25 l -40,5 -15,5 -75,10 -110,30 -285,40 -175,20 -800,40 -15,-25 -15,-40 -45,-180 -75,-325 15,-260 10,-45"
     fill="#52524b"
     fill-rule="evenodd"
     stroke="none"
     id="path4"
     style="stroke-width:100" />
  <path
     d="m 3340,820 -15,25 -150,-60 -605,-260 -635,-225 -115,-40 45,-10 60,-10 115,-20 140,-20 125,10 10,5 75,15 705,185 815,250 110,40 -5,25 v 5 h -310 l -150,25 -160,20 h -15 l -40,35 v 5 m 465,3060 -90,-40 80,-5 150,20 -140,25 m -200,20 85,50 -55,5 -45,50 15,10 q 30,25 30,55 -5,110 -420,130 l -625,5 h -560 l -75,5 h -25 l -5,-5 v -10 l 30,-10 705,-320 145,-15 800,50 M 395,2170 l 15,-5 35,-15 85,-30 20,-10 5,-5 140,-45 125,-15 h 35 l 305,20 530,25 200,15 90,15 h 5 l 575,60 115,20 5,25 v 5 l -310,60 -285,105 -195,-40 -770,-95 -725,-90 m 2960,-1310 15,-45 825,-20 135,35 q 605,310 1015,490 545,240 905,315 h 5 l 85,90 5,45 v 15 q 0,25 -55,95 l -40,-5 q -85,0 -690,-255 l -55,35 -35,30 460,310 q -45,45 -100,45 -180,0 -795,-390 l -20,-15 h -15 q -40,0 -1305,-615 L 3355,860 m -1200,1555 715,-165 145,10 1115,280 355,65 310,45 q 165,65 310,150 l -160,30 -985,-175 290,135 v 45 h -60 q -165,0 -675,-140 l -595,-165 -305,-40 -315,-45 -145,-30 M 305,4445 v -5 -15 l 200,-150 50,-35 35,-25 h 5 l 15,-10 115,-50 505,-120 175,-40 100,-20 255,-45 10,-10 105,-15 15,-5 65,-10 h 55 l 330,-30 h 115 l 15,25 v 5 l -275,115 -200,120 -40,20 -35,15 -15,40 h -5 -10 l -15,5 -470,65 -175,30 -320,55 -605,90 m 65,-245 -10,15 v -5 l 10,-10"
     fill="#2c2c27"
     fill-rule="evenodd"
     stroke="none"
     id="path6"
     style="stroke-width:100" />
  <defs
     id="defs39">
    <linearGradient
       gradientTransform="matrix(0.94,-3.38,1.47,0.41,5700,1695)"
       gradientUnits="userSpaceOnUse"
       id="gradient0"
       spreadMethod="pad"
       x1="-819.2"
       x2="819.2">
      <stop
         offset="0.0"
         stop-color="#635b58"
         id="stop34" />
      <stop
         offset="1.0"
         stop-color="#d3cebc"
         id="stop36" />
    </linearGradient>
  </defs>
</svg>
