<?xml version="1.0" encoding="UTF-8" standalone="no"?>
<svg
   xmlns:dc="http://purl.org/dc/elements/1.1/"
   xmlns:cc="http://creativecommons.org/ns#"
   xmlns:rdf="http://www.w3.org/1999/02/22-rdf-syntax-ns#"
   xmlns:svg="http://www.w3.org/2000/svg"
   xmlns="http://www.w3.org/2000/svg"
   xmlns:sodipodi="http://sodipodi.sourceforge.net/DTD/sodipodi-0.dtd"
   xmlns:inkscape="http://www.inkscape.org/namespaces/inkscape"
   height="6335.0px"
   width="8000.0px"
   version="1.1"
   id="svg33"
   sodipodi:docname="1110.svg"
   inkscape:version="1.0.2-2 (e86c870879, 2021-01-15)">
  <metadata
     id="metadata37">
    <rdf:RDF>
      <cc:Work
         rdf:about="">
        <dc:format>image/svg+xml</dc:format>
        <dc:type
           rdf:resource="http://purl.org/dc/dcmitype/StillImage" />
      </cc:Work>
    </rdf:RDF>
  </metadata>
  <sodipodi:namedview
     pagecolor="#ffffff"
     bordercolor="#666666"
     borderopacity="1"
     objecttolerance="10"
     gridtolerance="10"
     guidetolerance="10"
     inkscape:pageopacity="0"
     inkscape:pageshadow="2"
     inkscape:window-width="1920"
     inkscape:window-height="1017"
     id="namedview35"
     showgrid="false"
     inkscape:zoom="0.13025"
     inkscape:cx="4000"
     inkscape:cy="3167.5"
     inkscape:window-x="-8"
     inkscape:window-y="-8"
     inkscape:window-maximized="1"
     inkscape:current-layer="svg33" />
  <path
     d="m 4560,2757.6775 175,230 130,200 h 20 l 90,150 5,10 v 5 l 30,65 75,185 50,-5 20,45 q 95,90 275,330 l 175,245 60,80 115,320 45,115 -205,100 -5,5 -345,100 -375,90 -100,35 -290,60 h -30 l -70,10 -370,15 -730,70 25,50 -25,30 q 120,30 150,50 l -65,30 -255,-45 h -15 -30 -35 -275 l -565,-25 -120,-5 -305,-5 h -45 -20 l -190,-10 h -100 -85 l -420,-790 -95,-230 -90,-15 -180,5 h -85 l -355,-790 -75,-245 H 40 l -20,-60 -20,-105 215,-405 -70,-285 -35,-315 -5,-105 235,-365 35,-70 95,-135 5,-10 h 5 l 110,-65 925,75 h 995 l 835,35 595,-15 50,-80 -85,-135 -105,-240 -10,-10 5,-15 q -15,-85 30,-105 50,-135 130,-175 200,-300 600,-630 l 400,85 30,10 90,25 195,90 q 310,75 1055,625 190,60 470,280 l 150,90 80,80 230,290 40,210 v 25 l 10,45 q 15,130 15,290 l 10,170 20,300 5,10 145,290 180,290 -10,15 -25,-25 145,220 -390,-445 q -135,-165 -175,-275 l -125,30 q -320,15 -625,150 l -465,200 -115,-50 -290,-125 -70,-55 q -350,-265 -615,-350 l -155,-65 5,5 q 195,255 265,460 l -205,-265 -10,-20 q -65,-190 -290,-515 -240,-340 -365,-415 l 105,210 100,230 50,145 5,10 v 5 l 20,65 q 50,210 40,265 l -5,30 5,25 75,85 m -3935,-1185 h -30 l -90,95 -10,15 -5,15 -35,50 q -85,150 -75,220 l -25,55 v 25 l 30,310 40,150 25,95 h 245 170 70 l 350,40 1035,45 h 265 q 75,-115 90,-210 l -60,-135 -45,-105 -75,-270 q -75,-190 -135,-255 v -5 l -5,-30 -10,-5 -25,-5 h -40 l -420,-50 -475,-5 -295,5 -180,-25 -285,-20 m -65,1100 h -70 l -20,10 -65,90 -15,15 v 15 l -30,50 -50,160 v 65 l -15,55 5,25 10,30 h 10 l 10,35 60,235 75,155 q 120,260 165,395 l 15,5 105,30 165,5 110,-260 80,-185 65,-5 195,-20 40,5 820,5 435,50 350,35 5,-15 v -10 l 10,-80 -95,-135 -70,-115 -40,-95 -15,-35 h -15 l -70,-120 -40,-65 -35,-50 -110,-140 -10,-5 -5,-5 -5,-20 -5,-10 -10,-5 -35,-5 h -45 l -485,-45 -540,-5 -335,5 -180,-25 -320,-20 m 1930,-960 5,35 -5,10 q 35,250 160,575 l 60,145 -100,210 110,-5 100,-10 555,-20 65,-5 360,5 495,-10 q 45,-45 105,-40 v -10 q 5,-160 -30,-325 l -15,-25 q -25,-115 -95,-270 -85,-190 -145,-260 l -10,-50 -10,-35 -5,-30 h -10 -15 l -140,-20 -495,30 -295,25 -125,15 -495,45 -25,20 m 190,1130 -5,10 35,95 20,50 95,190 h 15 l 20,35 105,185 100,160 -30,105 310,10 310,-15 h 155 l 400,-45 h 270 l 515,-15 q -25,-135 -80,-270 l -25,-30 -40,-85 -15,-35 h -20 l -80,-125 -210,-265 -55,-115 -110,-5 -80,-20 h -5 l -1580,130 q -30,5 -25,20 l 10,35 m 2075,-2580 -45,-10 -95,20 q -150,150 -270,255 l -175,185 q -80,155 -120,320 l 45,85 195,360 v 10 l 115,165 20,30 25,15 20,15 35,15 30,5 h 35 l 5,15 -5,5 235,65 185,45 q 25,25 55,25 110,0 400,-345 260,-305 315,-545 l 65,-80 -10,-20 -10,-20 -5,-5 -35,-35 -25,-55 -70,-50 h -5 l -10,-10 -170,-185 -465,-190 -125,-60 h -10 l -115,-25 h -15 m 635,1675 265,55 165,5 q 155,0 605,-195 260,-115 415,-200 h -5 l 55,-130 -190,-160 -340,-205 -85,-60 q -250,-180 -315,-180 l -170,240 -75,125 -280,355 -210,325 165,25 m -595,430 q 135,105 235,150 l 325,190 115,80 q 345,225 505,225 l 45,-5 5,5 v 25 l 410,-185 q 365,-160 670,-190 l 75,-105 -15,-85 q -60,-185 -95,-515 -20,-230 -115,-385 -25,15 -60,25 -160,120 -485,265 -400,180 -580,180 l -315,-25 25,-15 -50,-10 h -15 l 10,30 -65,-10 q -190,-70 -545,-75 l -255,-75 -120,-45 -15,10 -40,-10 60,100 255,415 v 10 l 35,25 m 2370,-1195 -10,-10 v -10 l 10,20 m -1655,850 -5,5 h -5 l 10,-5 m 250,2650 q -35,-155 -115,-305 l -25,-30 q -60,-120 -180,-285 -150,-205 -230,-275 l -70,-125 h -40 l -100,-15 -45,-10 -1555,135 -20,25 15,35 -5,10 90,195 45,85 205,325 115,160 -5,40 -75,235 -105,245 280,-20 290,-35 120,-15 360,-25 900,-225 30,-10 h 5 l 65,-55 60,-15 -10,-45 m -1960,20 5,-95 -110,-140 -80,-115 -125,-230 -35,-55 -20,-25 q -120,-185 -200,-245 l -5,-5 -15,-35 -10,-5 -35,-5 h -45 l -110,-15 h -20 l -350,-30 -535,-5 -330,5 -310,-40 -180,-10 h -55 -25 q -30,0 -75,105 l -15,15 5,20 -20,50 q -50,145 -35,220 l 5,15 -10,60 10,25 40,115 75,220 85,155 205,390 30,15 90,25 1830,60 180,-10 10,-75 q 150,-200 180,-355"
     fill="#000000"
     fill-rule="evenodd"
     stroke="none"
     id="path18"
     style="stroke-width:100" />
  <path
     d="M 865,2602.6775 H 695 450 l -25,-95 -40,-150 -30,-310 v -25 l 25,-55 q -10,-70 75,-220 l 35,-50 5,-15 10,-15 90,-95 h 30 l 115,470 160,485 -35,75 m 2150,1045 v 10 l -5,15 -350,-35 -435,-50 -820,-5 -40,-5 -195,20 -65,5 -80,185 -110,260 -165,-5 -105,-30 -15,-5 q -45,-135 -165,-395 l -75,-155 -60,-235 -10,-35 h -10 l -10,-30 -5,-25 15,-55 v -65 l 50,-160 30,-50 v -15 l 15,-15 65,-90 20,-10 h 70 l 10,15 365,660 55,85 -15,-25 985,110 1055,130 m 1390,-1995 -115,-165 v -10 l -195,-360 -45,-85 q 40,-165 120,-320 l 175,-185 q 120,-105 270,-255 l 95,-20 45,10 145,120 275,220 -385,500 -385,550 m -565,2985 1920,35 10,45 -60,15 -65,55 h -5 l -30,10 -900,225 -360,25 -120,15 -290,35 -280,20 105,-245 75,-235 m -40,55 q -30,155 -180,355 l -10,75 -180,10 -1830,-60 -90,-25 -30,-15 -205,-390 -85,-155 -75,-220 -40,-115 -10,-25 10,-60 -5,-15 q -15,-75 35,-220 l 20,-50 -5,-20 15,-15 q 45,-105 75,-105 h 25 55 l 200,345 40,80 285,380 h 5 l 60,10 985,155 935,80"
     fill="#52524b"
     fill-rule="evenodd"
     stroke="none"
     id="path20"
     style="stroke-width:100" />
  <path
     d="m 4830,2637.6775 q 220,285 295,425 v 30 l -30,10 -20,-5 -15,5 -45,-50 -170,-170 v 5 q 0,50 -10,30 l -10,10 -35,5 q -50,0 -230,-175 l -75,-85 -5,-25 5,-30 q 10,-55 -40,-265 l -20,-65 v -5 l -5,-10 -50,-145 -100,-230 -105,-210 q 125,75 365,415 225,325 290,515 l 10,20 m -4205,-1065 285,20 180,25 295,-5 475,5 420,50 h 40 l 25,5 10,5 5,30 v 5 q 60,65 135,255 l 75,270 45,105 60,135 q -15,95 -90,210 h -265 l -1035,-45 -350,-40 h -70 l 35,-75 -160,-485 -115,-470 m -65,1100 320,20 180,25 335,-5 540,5 485,45 h 45 l 35,5 10,5 5,10 5,20 5,5 10,5 110,140 35,50 40,65 70,120 h 15 l 15,35 40,95 70,115 95,135 -10,80 -1055,-130 -985,-110 15,25 -55,-85 -365,-660 -10,-15 m 2120,170 -10,-35 q -5,-15 25,-20 l 1580,-130 h 5 l 80,20 110,5 55,115 210,265 80,125 h 20 l 15,35 40,85 25,30 q 55,135 80,270 l -515,15 h -270 l -400,45 h -155 l -310,15 -310,-10 30,-105 -100,-160 -105,-185 -20,-35 h -15 l -95,-190 -20,-50 -35,-95 5,-10 m -190,-1130 25,-20 495,-45 125,-15 295,-25 495,-30 140,20 h 15 10 l 5,30 10,35 10,50 q 60,70 145,260 70,155 95,270 l 15,25 q 35,165 30,325 v 10 q -60,-5 -105,40 l -495,10 -360,-5 -65,5 -555,20 -100,10 -110,5 100,-210 -60,-145 q -125,-325 -160,-575 l 5,-10 -5,-35 m 2265,-1450 h 15 l 115,25 h 10 l 125,60 465,190 170,185 10,10 h 5 l 70,50 25,55 35,35 5,5 10,20 10,20 -65,80 q -55,240 -315,545 -290,345 -400,345 -30,0 -55,-25 l -185,-45 -235,-65 5,-5 -5,-15 h -35 l -30,-5 -35,-15 -20,-15 -25,-15 -20,-30 385,-550 385,-500 -275,-220 -145,-120 m 40,2105 -35,-25 v -10 l -255,-415 -60,-100 40,10 15,-10 120,45 255,75 q 355,5 545,75 l 65,10 -10,-30 h 15 l 50,10 -25,15 315,25 q 180,0 580,-180 325,-145 485,-265 35,-10 60,-25 95,155 115,385 35,330 95,515 l 15,85 -75,105 q -305,30 -670,190 l -410,185 v -25 l -5,-5 -45,5 q -160,0 -505,-225 l -115,-80 -325,-190 q -100,-45 -235,-150 m 595,-430 -165,-25 210,-325 280,-355 75,-125 170,-240 q 65,0 315,180 l 85,60 340,205 190,160 -55,130 h 5 q -155,85 -415,200 -450,195 -605,195 l -165,-5 -265,-55 m 120,85 -10,5 h 5 l 5,-5 m -1670,2615 5,-40 -115,-160 -205,-325 -45,-85 -90,-195 5,-10 -15,-35 20,-25 1555,-135 45,10 100,15 h 40 l 70,125 q 80,70 230,275 120,165 180,285 l 25,30 q 80,150 115,305 l -1920,-35 m -2550,-995 180,10 310,40 330,-5 535,5 350,30 h 20 l 110,15 h 45 l 35,5 10,5 15,35 5,5 q 80,60 200,245 l 20,25 35,55 125,230 80,115 110,140 -5,95 -935,-80 -985,-155 -60,-10 h -5 l -285,-380 -40,-80 -200,-345"
     fill="#2c2c27"
     fill-rule="evenodd"
     stroke="none"
     id="path22"
     style="stroke-width:100" />
  <defs
     id="defs31">
    <linearGradient
       gradientTransform="matrix(0.94,-3.38,1.47,0.41,-1655,-8327.3225)"
       gradientUnits="userSpaceOnUse"
       id="gradient0"
       spreadMethod="pad"
       x1="-819.2"
       x2="819.2">
      <stop
         offset="0.0"
         stop-color="#635b58"
         id="stop26" />
      <stop
         offset="1.0"
         stop-color="#d3cebc"
         id="stop28" />
    </linearGradient>
  </defs>
</svg>
