<?xml version="1.0" encoding="UTF-8" standalone="no"?>
<svg
   xmlns:dc="http://purl.org/dc/elements/1.1/"
   xmlns:cc="http://creativecommons.org/ns#"
   xmlns:rdf="http://www.w3.org/1999/02/22-rdf-syntax-ns#"
   xmlns:svg="http://www.w3.org/2000/svg"
   xmlns="http://www.w3.org/2000/svg"
   xmlns:sodipodi="http://sodipodi.sourceforge.net/DTD/sodipodi-0.dtd"
   xmlns:inkscape="http://www.inkscape.org/namespaces/inkscape"
   height="6385.0px"
   width="7730.0px"
   version="1.1"
   id="svg35"
   sodipodi:docname="1124.svg"
   inkscape:version="1.0.2-2 (e86c870879, 2021-01-15)">
  <metadata
     id="metadata39">
    <rdf:RDF>
      <cc:Work
         rdf:about="">
        <dc:format>image/svg+xml</dc:format>
        <dc:type
           rdf:resource="http://purl.org/dc/dcmitype/StillImage" />
      </cc:Work>
    </rdf:RDF>
  </metadata>
  <sodipodi:namedview
     pagecolor="#ffffff"
     bordercolor="#666666"
     borderopacity="1"
     objecttolerance="10"
     gridtolerance="10"
     guidetolerance="10"
     inkscape:pageopacity="0"
     inkscape:pageshadow="2"
     inkscape:window-width="1920"
     inkscape:window-height="1017"
     id="namedview37"
     showgrid="false"
     inkscape:zoom="0.13312451"
     inkscape:cx="1476.2588"
     inkscape:cy="3853.5353"
     inkscape:window-x="-8"
     inkscape:window-y="-8"
     inkscape:window-maximized="1"
     inkscape:current-layer="svg35" />
  <path
     d="m 5350,4755 h 10 l -185,70 -265,85 v 5 l -140,40 -45,15 -490,120 -25,25 -10,5 -40,-5 -5,-10 -315,-455 q -200,-250 -440,-470 l -15,-10 -35,-35 -35,-30 q -500,-425 -920,-500 -20,30 -65,30 l -500,-75 -475,-65 H 820 L 590,3520 90,3495 65,3390 0,3040 20,2470 40,2410 v -15 q 20,-85 70,-130 l -15,-5 v -25 q 205,-70 595,-110 l 375,-45 h 15 l 10,-5 q 55,-40 355,-405 l 35,-10 60,-35 q 35,0 55,20 l 40,-5 q 245,0 720,110 l 480,135 20,-20 h 25 l 65,-5 5,-10 100,-50 85,-60 105,40 375,140 30,20 q 75,-55 200,-90 -150,-50 -365,-150 -340,-160 -425,-265 l -65,-190 q -40,-255 -45,-585 l 15,-35 260,-260 20,-15 Q 3655,80 3790,10 l 25,-10 q 290,130 620,230 l 150,85 25,15 300,155 60,30 295,120 55,20 45,15 55,30 345,100 q 215,75 395,180 l 385,200 130,75 80,80 230,290 40,210 v 25 l 10,45 q 15,130 15,290 l 10,170 20,300 5,10 145,290 180,290 -10,15 -25,-25 145,220 -390,-445 -155,-230 -25,-15 -25,-25 -95,25 q -320,15 -625,150 l -440,190 -20,20 -335,315 -170,150 10,5 q 125,70 140,150 l -10,10 q -105,-90 -205,-125 l -115,40 30,75 45,105 105,250 75,185 85,205 40,100 5,10 -60,105 -15,30 h -5 l -25,5 20,-20 20,-50 v -15 l -15,-90 -90,-275 -120,-295 -35,-85 -50,-120 -55,-125 -5,-5 h 5 l -45,-110 -270,-365 -200,-290 -25,-40 -5,-5 -15,-25 -5,-5 -80,-120 -205,-190 10,10 230,345 15,30 q 110,225 110,420 0,40 -35,100 l 5,-5 -45,60 -210,205 q -175,145 -320,235 l -85,50 10,5 -5,35 h -85 q -410,-255 -620,-425 l 185,195 125,140 335,490 135,235 65,90 q 125,255 250,285 v 5 5 l 20,-5 h 15 10 25 l 40,-5 40,-10 h 25 l 185,-50 225,-55 435,-135 75,-10 20,-5 m -4270,-2095 20,-245 v -45 q 0,-50 -10,-40 l -10,-5 10,-25 20,-45 -20,5 -125,30 -290,30 -325,70 -125,50 -10,10 v 30 l -50,375 5,125 25,230 45,140 h 85 1145 l 90,-10 130,15 310,60 390,70 145,45 -335,-170 q -480,-250 -705,-330 l -130,-65 -130,-55 -145,-100 -30,-20 20,-130 m 780,-795 -95,-10 q -190,0 -360,140 l -85,85 v 5 q 0,20 -35,45 -145,210 -145,560 0,120 140,175 l 270,70 360,195 560,255 40,15 40,25 20,15 25,5 55,10 q 45,0 85,-40 l 105,-95 -120,-135 -115,-130 -390,-405 q -40,-105 -5,-150 l 330,-295 45,-30 225,-155 -205,-30 -235,-40 -355,-60 -155,-25 m 1920,2090 55,10 45,-30 40,-30 300,-240 q 240,-215 240,-340 0,-210 -80,-415 l -15,-30 q -75,-175 -205,-340 l -45,-60 -315,-210 -190,-115 -10,-10 h -5 l -35,-20 q -270,-160 -345,-160 l -105,40 -15,10 v 5 l -20,5 -55,20 -130,70 -260,120 -50,35 -165,140 q -75,80 -75,165 v 5 q 5,70 165,285 l 255,290 250,300 370,290 q 240,170 400,210 m -175,-3800 30,-20 h 5 v -5 l -35,25 m 280,35 -35,15 -300,155 -270,235 -165,135 60,475 40,40 25,45 30,35 80,60 145,85 90,55 h 5 l 10,5 10,5 280,125 100,25 160,35 120,20 285,65 70,-10 150,-20 15,-5 35,-5 45,-5 40,-10 q 185,-35 295,-105 l 10,-25 55,-70 10,-10 -30,100 -60,25 -210,105 -50,25 -250,35 h -5 l 25,10 -145,15 q 140,225 310,305 l 190,50 140,15 240,-60 q 210,-55 420,-130 v -5 l 415,-220 185,-110 q 105,-55 125,-140 l 30,-20 10,-25 -190,-160 -340,-205 -5,-5 -25,-5 -200,-55 -295,-105 -115,-45 -190,-75 35,80 5,5 -65,-65 -10,-5 -70,-45 -5,-15 -485,-220 -395,-190 -10,-5 -225,-125 -150,-85 m 245,2190 245,270 180,210 45,50 15,20 105,105 250,370 -10,-10 55,90 q 55,15 130,55 l 110,-35 15,10 165,-155 80,-75 10,-10 140,-115 40,-30 h -5 l 10,-10 85,-55 20,-10 350,-160 q 365,-160 670,-190 l 75,-105 -15,-85 q -60,-185 -95,-515 -15,-200 -90,-340 l -25,5 -65,-25 q -45,0 -410,235 l -125,85 -20,5 q -100,55 -175,85 l -190,85 -640,145 q -155,-30 -280,-120 l -70,-50 -35,-40 q -155,-195 -235,-195 l -40,5 q -90,10 -620,220 65,100 150,130 l 200,150 m 1210,-1235 5,-50 v -40 l 25,100 v 20 l 5,10 -5,25 q -5,110 -35,200 l -50,120 v 5 q 65,-115 65,-295 l -10,-95 m -1440,980 10,5 -15,-5 h 5 m 1285,1450 h 5 -5 m -2350,-240 -45,55 -70,95 -10,-5 10,10 h -5 l -35,5 -10,20 q 255,255 495,375 l 30,20 q 210,170 250,170 l 30,-5 15,5 -15,-15 v -5 l -5,-5 -60,-70 -45,-55 -80,-95 -440,-510 -10,10 m 1215,1550 5,5 15,10 -35,-45 15,30"
     fill="#000000"
     fill-rule="evenodd"
     stroke="none"
     id="path18"
     style="stroke-width:100" />
  <path
     d="m 4235,5020 q -125,-30 -250,-285 l -65,-90 -135,-235 -335,-490 -125,-140 -185,-195 q 210,170 620,425 h 85 l 5,-35 -10,-5 85,-50 q 145,-90 320,-235 l 210,-205 45,-60 -5,5 q -65,155 -305,365 l -355,260 -20,-30 70,130 q 70,105 225,555 l 120,315 h 5 M 225,2440 l 10,115 q 15,90 75,95 l 10,15 10,15 740,35 10,-55 -20,130 30,20 145,100 130,55 130,65 q 225,80 705,330 l 335,170 -145,-45 -390,-70 -310,-60 -130,-15 -90,10 H 325 240 l -45,-140 -25,-230 -5,-125 50,-375 v -30 l 10,-10 m 2615,880 -105,95 q -40,40 -85,40 l -55,-10 -25,-5 -20,-15 -40,-25 -40,-15 -560,-255 -360,-195 -270,-70 q -140,-55 -140,-175 0,-350 145,-560 35,-25 35,-45 v -5 l 85,-85 q 170,-140 360,-140 l 95,10 -30,130 v 45 q 0,155 -85,510 l -55,220 q 85,85 205,145 l 390,160 400,200 130,65 25,-20 m -500,-740 40,5 q 195,0 675,435 l 460,405 265,530 q -160,-40 -400,-210 l -370,-290 -250,-300 -255,-290 q -160,-215 -165,-285 m 900,-1290 -25,-45 -40,-40 -60,-475 165,-135 270,-235 300,-155 35,-15 30,85 235,545 -230,175 q -265,205 -415,250 l -200,35 -65,10 m 45,2545 80,95 45,55 60,70 5,5 v 5 l 15,15 -15,-5 -30,5 q -40,0 -250,-170 l -30,-20 q -240,-120 -495,-375 l 10,-20 35,-5 h 5 l -10,-10 10,5 70,-95 45,-55 -35,45 530,510 -45,-55"
     fill="#52524b"
     fill-rule="evenodd"
     stroke="none"
     id="path22"
     style="stroke-width:100" />
  <path
     d="m 5370,4745 -20,10 -20,5 -75,10 -435,135 -225,55 -185,50 h -25 l -40,10 -40,5 h -25 -10 -15 l -20,5 v -5 -5 h -5 l -120,-315 q -155,-450 -225,-555 l -70,-130 20,30 355,-260 q 240,-210 305,-365 35,-60 35,-100 0,-195 -110,-420 l -15,-30 -230,-345 -10,-10 205,190 80,120 5,5 15,25 5,5 25,40 200,290 270,365 45,110 h -5 l 5,5 55,125 50,120 35,85 120,295 90,275 15,90 v 15 l -20,50 -20,20 25,-5 h 5 M 225,2440 l 125,-50 325,-70 290,-30 125,-30 20,-5 -20,45 -10,25 10,5 q 10,-10 10,40 v 45 l -20,245 -10,55 -740,-35 -10,-15 -10,-15 q -60,-5 -75,-95 l -10,-115 m 2615,880 -25,20 -130,-65 -400,-200 -390,-160 q -120,-60 -205,-145 l 55,-220 q 85,-355 85,-510 v -45 l 30,-130 155,25 355,60 235,40 205,30 -225,155 -45,30 -330,295 q -35,45 5,150 l 390,405 115,130 120,135 m -500,-740 v -5 q 0,-85 75,-165 l 165,-140 50,-35 260,-120 130,-70 55,-20 20,-5 v -5 l 15,-10 105,-40 q 75,0 345,160 l 35,20 h 5 l 10,10 190,115 315,210 45,60 q 130,165 205,340 l 15,30 q 80,205 80,415 0,125 -240,340 l -300,240 -40,30 -45,30 -55,-10 -265,-530 -460,-405 q -480,-435 -675,-435 l -40,-5 m 900,-1290 65,-10 200,-35 q 150,-45 415,-250 l 230,-175 -235,-545 -30,-85 150,85 225,125 10,5 395,190 485,220 5,15 70,45 10,5 65,65 -5,-5 -35,-80 190,75 115,45 295,105 200,55 25,5 5,5 340,205 190,160 -10,25 -30,20 q -20,85 -125,140 l -185,110 -415,220 v 5 q -210,75 -420,130 l -240,60 -140,-15 -190,-50 q -170,-80 -310,-305 l 145,-15 h 5 l -25,-10 250,-35 50,-25 210,-105 60,-25 30,-100 -10,10 -55,70 -10,25 q -110,70 -295,105 l -40,10 -45,5 -35,5 -15,5 -150,20 -70,10 -285,-65 -120,-20 -160,-35 -100,-25 -280,-125 -10,-5 -10,-5 h -5 l -90,-55 -145,-85 -80,-60 -30,-35 m 890,1090 -200,-150 q -85,-30 -150,-130 530,-210 620,-220 l 40,-5 q 80,0 235,195 l 35,40 70,50 q 125,90 280,120 l 640,-145 190,-85 q 75,-30 175,-85 l 20,-5 125,-85 q 365,-235 410,-235 l 65,25 25,-5 q 75,140 90,340 35,330 95,515 l 15,85 -75,105 q -305,30 -670,190 l -350,160 -20,10 -85,55 -10,10 h 5 l -40,30 -140,115 -10,10 -80,75 -165,155 -15,-10 -110,35 q -75,-40 -130,-55 l -55,-90 10,10 -250,-370 -105,-105 -15,-20 -45,-50 -180,-210 -245,-270 m -230,-255 h -5 l 15,5 -10,-5 m 1440,-980 10,95 q 0,180 -65,295 v -5 l 50,-120 q 30,-90 35,-200 l 5,-25 -5,-10 v -20 l -25,-100 v 40 l -5,50 m -2055,2690 45,55 -530,-510 35,-45 10,-10 440,510"
     fill="#2c2c27"
     fill-rule="evenodd"
     stroke="none"
     id="path24"
     style="stroke-width:100" />
  <defs
     id="defs33">
    <linearGradient
       gradientTransform="matrix(0.94,-3.38,1.47,0.41,-5240,-5635)"
       gradientUnits="userSpaceOnUse"
       id="gradient0"
       spreadMethod="pad"
       x1="-819.2"
       x2="819.2">
      <stop
         offset="0.0"
         stop-color="#635b58"
         id="stop28" />
      <stop
         offset="1.0"
         stop-color="#d3cebc"
         id="stop30" />
    </linearGradient>
  </defs>
</svg>
