<?xml version="1.0" encoding="UTF-8" standalone="no"?>
<svg
   xmlns:dc="http://purl.org/dc/elements/1.1/"
   xmlns:cc="http://creativecommons.org/ns#"
   xmlns:rdf="http://www.w3.org/1999/02/22-rdf-syntax-ns#"
   xmlns:svg="http://www.w3.org/2000/svg"
   xmlns="http://www.w3.org/2000/svg"
   xmlns:sodipodi="http://sodipodi.sourceforge.net/DTD/sodipodi-0.dtd"
   xmlns:inkscape="http://www.inkscape.org/namespaces/inkscape"
   height="6415.0px"
   width="7860.0px"
   version="1.1"
   id="svg29"
   sodipodi:docname="1138.svg"
   inkscape:version="1.0.2-2 (e86c870879, 2021-01-15)">
  <metadata
     id="metadata33">
    <rdf:RDF>
      <cc:Work
         rdf:about="">
        <dc:format>image/svg+xml</dc:format>
        <dc:type
           rdf:resource="http://purl.org/dc/dcmitype/StillImage" />
      </cc:Work>
    </rdf:RDF>
  </metadata>
  <sodipodi:namedview
     pagecolor="#ffffff"
     bordercolor="#666666"
     borderopacity="1"
     objecttolerance="10"
     gridtolerance="10"
     guidetolerance="10"
     inkscape:pageopacity="0"
     inkscape:pageshadow="2"
     inkscape:window-width="1920"
     inkscape:window-height="1017"
     id="namedview31"
     showgrid="false"
     inkscape:zoom="0.13250195"
     inkscape:cx="3930"
     inkscape:cy="3207.5"
     inkscape:window-x="-8"
     inkscape:window-y="-8"
     inkscape:window-maximized="1"
     inkscape:current-layer="svg29" />
  <path
     d="m 7460,1390 -140,-290 -15,-10 -20,-10 -35,10 q -120,395 -770,695 l -95,45 -270,35 -190,-15 h -30 q -100,0 -310,-80 l -225,-20 -115,-10 80,160 260,640 -40,-60 55,135 h 5 l 5,10 v 10 l 5,5 q 85,145 505,380 440,250 660,310 l 120,40 255,-105 190,-85 5,-55 10,10 75,-215 70,-340 q 120,-450 150,-820 l -195,-370 m 210,0 40,55 25,65 125,230 -10,165 -90,325 q -150,560 -210,860 l -145,75 -490,280 h -15 q -115,0 -660,-310 l -530,-315 -20,5 -130,-280 -390,-815 h -5 l -75,15 v 80 l -40,410 -40,500 q 0,400 545,1460 l 570,1025 Q 5840,4875 5485,4200 4970,3220 4970,2580 l 35,-345 q 35,-315 35,-420 v -75 l -140,20 -140,20 -155,5 -50,395 q -10,75 -110,275 l -115,215 -5,20 h -95 l -450,10 -55,10 -350,55 -55,50 -90,-5 -50,25 h 225 v -5 l 365,5 520,-15 q 50,35 115,55 l 85,50 25,55 h -5 l 60,180 30,215 q 25,170 25,360 v 85 q -15,185 -45,335 l 15,5 -35,35 h 20 l -5,15 -40,60 -5,10 v -5 l -145,45 -125,-5 -675,55 -20,45 -45,45 1130,-35 15,25 225,675 -5,200 -85,495 -40,50 -30,-15 -90,25 -115,20 -125,20 -365,60 -140,15 -140,10 -15,5 125,95 q 0,40 -155,60 l -160,15 -475,-5 -55,-5 h -35 l -65,10 h -150 l -165,15 -350,-30 -295,-20 -755,-60 q -120,-375 -160,-790 l -20,-295 -10,-120 20,-200 10,-40 -395,20 h -40 -10 l -85,-10 -15,5 -230,-10 h -5 l -30,-35 -45,-135 Q 105,4225 25,4040 l -25,-815 45,-300 5,-15 515,-85 -50,-35 -115,-110 -45,-45 -5,-10 -45,-705 -25,-335 10,-45 -10,10 -10,-50 15,-120 45,-50 v -5 l 255,-65 845,-90 h 95 130 l 150,-15 500,-20 440,-20 280,-20 230,-50 -5,-55 -15,-275 15,-120 5,-15 200,-80 15,-10 45,-15 345,-155 15,-5 70,-30 5,-5 130,-65 40,-5 25,-5 110,-15 v 5 l 350,-15 490,-45 85,-10 15,-5 h 5 l 70,-10 h 5 l 75,-10 430,-50 65,-10 115,-25 65,-15 80,15 q 70,0 225,80 l 10,5 515,435 35,30 395,290 h 15 15 l 100,70 15,10 240,455 m -4615,160 -20,-15 q -65,-95 -155,-155 h -40 l -35,-30 -145,-20 -145,5 -5,-5 -490,40 -500,15 -30,-5 -940,115 -15,60 30,595 -5,120 45,195 25,95 95,110 135,95 15,25 q 25,35 75,45 l 5,5 40,-10 170,-20 325,-45 v 5 l 425,-50 20,-5 55,-15 50,-5 545,-10 265,-40 v 5 l 10,-5 15,-50 v -5 l 15,-5 45,-100 v -10 l 15,-95 50,-200 45,-195 40,-95 q 45,-100 25,-200 l 10,-10 -15,-20 v -5 l -40,-90 -10,-15 m -380,1410 v -10 h -45 l -275,-35 -980,85 -890,65 -140,5 -80,5 q -60,185 -80,620 20,270 140,525 l 5,5 15,45 q 55,115 145,185 h 55 l 5,-15 255,5 35,-10 h 5 l 180,-20 670,-75 1015,-65 h 10 l 10,-5 20,-15 h 5 15 20 l 30,-60 20,-40 10,-25 30,55 -25,70 v 10 h 10 l 15,10 10,40 495,-10 h 5 l 725,-35 h 45 l 245,-20 120,-35 q 55,-40 15,-180 50,-95 20,-305 5,-320 -75,-755 l -15,5 v -5 l -30,-55 h -55 l -60,-5 -530,-25 h -280 -40 -75 v 5 l -280,10 -140,10 h -5 l -30,5 v 20 h -10 l -20,5 -15,5 v 15 h -5 l -10,-5 v 10 l -5,20 -10,-5 -30,55 -5,35 5,30 25,85 5,95 -10,110 v -45 l -20,-110 v -80 l -5,-15 q 5,-40 -5,-70 -25,-95 -110,-90 l -35,-5 -10,-20 m 765,-1555 -55,-110 v -5 h -165 l -60,-5 h -130 l -40,5 -60,20 30,35 q -10,10 -15,5 l 25,20 160,200 10,10 5,15 35,60 -75,245 -20,105 -95,370 q -20,130 -55,265 l 40,-15 450,20 h 40 60 l -15,15 760,25 q 15,5 25,-25 10,10 20,10 l 40,-130 50,-45 q 75,-105 110,-335 l 5,-90 50,-260 5,-25 -430,15 -520,-10 -185,-385 M 5970,250 v 20 q 80,140 125,255 l 25,85 10,35 -20,85 -55,140 -150,255 -30,45 -105,105 -10,5 -160,160 -100,95 -100,95 q 50,20 125,75 l 85,35 v 25 l 5,5 25,10 v -5 l 280,45 55,5 h 95 l 200,-25 q 80,-15 130,-40 l 25,25 -5,5 160,-80 110,-65 q 295,-185 450,-585 l -30,-35 20,-15 -310,-290 -40,-30 Q 6460,440 6330,295 l -80,-55 -95,-30 -90,5 -90,5 15,20 -20,10 M 3665,1650 v 5 q 15,15 40,20 l 220,20 h 170 l 65,-5 315,15 h 105 30 l 435,-35 45,-10 15,-5 60,-15 20,-5 30,-10 65,-20 35,-15 q 155,-65 260,-155 l 25,-5 -5,-10 100,-120 15,-20 225,-230 q 50,-75 80,-220 l 10,-15 q 50,-75 50,-175 0,-90 -35,-180 v -25 l -15,-10 -25,-55 -65,-95 -10,-15 -50,-35 h -30 -10 l -10,5 h -5 l -5,-5 -260,25 -50,10 h -5 l -70,10 -85,15 -140,30 -285,55 h -215 -65 l -210,20 -55,10 -10,-10 h -15 l -155,25 -5,5 -15,-5 -45,20 -255,110 -120,60 -140,50 -195,115 -5,35 -5,80 5,10 55,260 45,130 5,20 35,80 110,265 m 835,2615 q 30,-15 20,-40 l -35,35 q 5,-5 15,5 m -1100,265 h -60 v 5 l -205,5 15,35 q 50,150 35,245 v 25 q 180,955 175,995 v 5 h 5 v -5 h 5 l 5,5 10,15 -10,20 -10,10 v 10 l -15,15 -10,30 h 20 10 l 130,10 15,-5 140,-10 40,5 520,-40 q 425,-35 510,-100 l 5,15 v -5 h 10 l 30,-35 35,-180 30,-630 -90,-225 -100,-265 -905,30 -340,20 m -555,-960 15,-140 15,615 -5,-50 -10,-160 -5,-120 -10,-145 m -30,695 v -15 15 m 70,80 v -10 l -5,10 h 5 m 345,1575 35,-20 10,-5 h 5 l 5,-10 10,-100 v -15 l -5,-20 5,-20 q 15,-130 -90,-625 l -110,-425 -40,-90 -35,5 -5,-45 -575,20 -295,10 h -130 -100 -90 -50 l -450,-5 -15,45 -30,55 -60,320 -10,50 v 30 q 75,450 195,810 l 30,5 655,70 190,-5 495,-10 h 170 l 235,-5 50,-20"
     fill="#000000"
     fill-rule="evenodd"
     stroke="none"
     id="path14"
     style="stroke-width:100" />
  <path
     d="m 955,2840 -5,-5 q -50,-10 -75,-45 l -15,-25 -135,-95 -95,-110 -25,-95 -45,-195 5,-120 -30,-595 15,-60 940,-115 30,5 500,-15 490,-40 5,5 145,-5 145,20 35,30 h 40 q 90,60 155,155 l 20,15 -180,10 -680,25 -180,15 -500,35 -565,15 25,655 -20,480 v 55 m -150,1605 -255,-5 -5,15 h -55 q -90,-70 -145,-185 l -15,-45 -5,-5 q -120,-255 -140,-525 20,-435 80,-620 l 80,-5 140,-5 890,-65 980,-85 275,35 h 45 v 10 Q 740,3060 730,3220 l -20,280 q -5,300 90,425 l 20,260 q 0,180 -15,260 m 2165,-3075 -25,-20 q 5,5 15,-5 l -30,-35 60,-20 40,-5 h 130 l 60,5 h 165 v 5 l 55,110 -280,60 -45,15 10,10 -155,-120 m 695,280 -110,-265 -35,-80 -5,-20 -45,-130 -55,-260 -5,-10 5,-80 5,-35 195,-115 140,-50 120,-60 255,-110 45,-20 15,5 5,-5 155,-25 75,75 h -10 l 155,300 125,255 55,125 q 0,35 -240,160 l -25,10 -40,20 -230,105 -50,20 -145,75 40,-10 -115,35 -280,90 m -1750,2930 40,55 65,175 q 40,155 50,325 30,545 100,645 25,50 205,85 l 625,55 h 230 l -50,20 -235,5 h -170 l -495,10 -190,5 -655,-70 -30,-5 q -120,-360 -195,-810 v -30 l 10,-50 60,-320 30,-55 15,-45 450,5 h 50 90"
     fill="#52524b"
     fill-rule="evenodd"
     stroke="none"
     id="path16"
     style="stroke-width:100" />
  <path
     d="m 7460,1390 195,370 q -30,370 -150,820 l -70,340 -75,215 -10,-10 -5,55 -190,85 -255,105 -120,-40 q -220,-60 -660,-310 -420,-235 -505,-380 l -5,-5 v -10 l -5,-10 h -5 l -55,-135 40,60 -260,-640 -80,-160 115,10 225,20 q 210,80 310,80 h 30 l 190,15 270,-35 95,-45 q 650,-300 770,-695 l 35,-10 20,10 15,10 140,290 M 955,2840 v -55 l 20,-480 -25,-655 565,-15 500,-35 180,-15 680,-25 180,-10 10,15 40,90 v 5 l 15,20 -10,10 q 20,100 -25,200 l -40,95 -45,195 -50,200 -15,95 v 10 l -45,100 -15,5 v 5 l -15,50 -10,5 v -5 l -265,40 -545,10 -50,5 -55,15 -20,5 -425,50 v -5 l -325,45 -170,20 -40,10 m 1720,120 10,20 35,5 q 85,-5 110,90 10,30 5,70 l 5,15 v 80 l 20,110 v 45 l 10,-110 -5,-95 -25,-85 -5,-30 5,-35 30,-55 10,5 5,-20 v -10 l 10,5 h 5 v -15 l 15,-5 20,-5 h 10 v -20 l 30,-5 h 5 l 140,-10 280,-10 v -5 h 75 40 280 l 530,25 60,5 h 55 l 30,55 v 5 l 15,-5 q 80,435 75,755 30,210 -20,305 40,140 -15,180 l -120,35 -245,20 h -45 l -725,35 h -5 l -495,10 -10,-40 -15,-10 h -10 v -10 l 25,-70 -30,-55 -10,25 -20,40 -30,60 h -20 -15 -5 l -20,15 -10,5 h -10 l -1015,65 -670,75 -180,20 h -5 l -35,10 q 15,-80 15,-260 l -20,-260 q -95,-125 -90,-425 l 20,-280 q 10,-160 1945,-260 m 295,-1590 155,120 -10,-10 45,-15 280,-60 185,385 520,10 430,-15 -5,25 -50,260 -5,90 q -35,230 -110,335 l -50,45 -40,130 q -10,0 -20,-10 -10,30 -25,25 l -760,-25 15,-15 h -60 -40 l -450,-20 -40,15 q 35,-135 55,-265 l 95,-370 20,-105 75,-245 -35,-60 -5,-15 -10,-10 -160,-200 m 3000,-1120 20,-10 -15,-20 90,-5 90,-5 95,30 80,55 q 130,145 450,395 l 40,30 310,290 -20,15 30,35 q -155,400 -450,585 l -110,65 -160,80 5,-5 -25,-25 q -50,25 -130,40 l -200,25 h -95 l -55,-5 -280,-45 v 5 l -25,-10 -5,-5 v -25 l -85,-35 q -75,-55 -125,-75 l 100,-95 100,-95 160,-160 10,-5 105,-105 30,-45 150,-255 55,-140 20,-85 -10,-35 -25,-85 Q 6050,410 5970,270 V 250 M 4350,390 h 15 l 10,10 55,-10 210,-20 h 65 215 l 285,-55 140,-30 85,-15 70,-10 h 5 l 50,-10 260,-25 5,5 h 5 l 10,-5 h 10 30 l 50,35 10,15 65,95 25,55 15,10 v 25 q 35,90 35,180 0,100 -50,175 l -10,15 q -30,145 -80,220 l -225,230 -15,20 -100,120 5,10 -25,5 q -105,90 -260,155 l -35,15 -65,20 -30,10 -20,5 -60,15 -15,5 -45,10 -435,35 h -30 -105 l -315,-15 -65,5 h -170 l -220,-20 q -25,-5 -40,-20 v -5 l 280,-90 115,-35 -40,10 145,-75 50,-20 230,-105 40,-20 25,-10 q 240,-125 240,-160 L 4695,1020 4570,765 4415,465 h 10 l -75,-75 m -950,4140 340,-20 905,-30 100,265 90,225 -30,630 -35,180 -30,35 h -10 v 5 l -5,-15 q -85,65 -510,100 l -520,40 -40,-5 -140,10 -15,5 -130,-10 h -10 -20 l 10,-30 15,-15 v -10 l 10,-10 10,-20 -10,-15 -5,-5 h -5 v 5 h -5 v -5 q 5,-40 -175,-995 v -25 q 15,-95 -35,-245 l -15,-35 205,-5 v -5 h 60 m -555,-960 10,145 5,120 10,160 5,50 -15,-615 -15,140 m 40,775 h -5 l 5,-10 v 10 m -970,235 h 100 130 l 295,-10 575,-20 5,45 35,-5 40,90 110,425 q 105,495 90,625 l -5,20 5,20 v 15 l -10,100 -5,10 h -5 l -10,5 -35,20 h -230 l -625,-55 q -180,-35 -205,-85 -70,-100 -100,-645 -10,-170 -50,-325 l -65,-175 -40,-55"
     fill="#2c2c27"
     fill-rule="evenodd"
     stroke="none"
     id="path18"
     style="stroke-width:100" />
  <defs
     id="defs27">
    <linearGradient
       gradientTransform="matrix(0.94,-3.38,1.47,0.41,-7060,-5690)"
       gradientUnits="userSpaceOnUse"
       id="gradient0"
       spreadMethod="pad"
       x1="-819.2"
       x2="819.2">
      <stop
         offset="0.0"
         stop-color="#635b58"
         id="stop22" />
      <stop
         offset="1.0"
         stop-color="#d3cebc"
         id="stop24" />
    </linearGradient>
  </defs>
</svg>
