<?xml version="1.0" encoding="UTF-8" standalone="no"?>
<svg xmlns:xlink="http://www.w3.org/1999/xlink" height="5320.0px" width="5750.0px" xmlns="http://www.w3.org/2000/svg">
  <g transform="matrix(100.0, 0.0, 0.0, 100.0, 2075.0, 3410.0)">
    <path d="M23.8 -32.85 Q26.3 -31.4 28.3 -28.35 L30.4 -24.45 Q31.55 -21.35 32.05 -17.35 L32.05 -11.7 32.05 -8.7 31.9 -8.55 31.8 -8.45 32.05 -8.05 Q32.15 -5.8 32.6 -3.6 L33.05 -2.3 34.4 2.5 Q35.35 4.95 36.75 7.3 L34.35 8.8 31.95 10.25 Q30.35 11.15 28.9 12.0 L24.85 14.05 25.0 14.15 24.65 14.3 Q20.2 16.5 17.35 17.15 L10.85 18.65 3.25 19.1 0.95 18.95 -3.1 17.9 -5.9 17.0 Q-7.45 16.7 -9.1 15.7 L-9.65 15.25 -13.55 12.2 -14.15 11.35 -14.05 11.25 -14.9 10.3 Q-21.5 2.35 -20.65 -7.15 -20.45 -15.15 -16.35 -20.8 -15.45 -22.6 -12.95 -25.95 -8.5 -31.8 -6.5 -31.8 L-3.35 -31.35 Q-0.4 -34.1 1.0 -34.1 L4.55 -32.95 9.25 -31.6 13.25 -31.5 16.35 -30.9 17.25 -31.1 20.2 -31.95 21.9 -32.4 23.8 -32.85 M5.9 -11.45 L6.55 -10.75 7.6 -10.3 Q7.95 -10.7 7.95 -11.4 L7.8 -12.2 Q8.15 -13.8 8.75 -15.25 9.85 -19.15 13.9 -23.1 16.45 -25.6 19.4 -27.35 22.1 -28.95 23.2 -28.95 L24.35 -28.8 25.05 -28.2 25.45 -27.9 25.7 -27.7 25.6 -27.45 24.9 -27.55 24.55 -27.8 23.75 -28.2 23.5 -28.3 23.2 -28.35 23.05 -28.35 22.55 -28.2 21.4 -27.7 21.0 -27.45 20.8 -27.35 20.55 -27.2 20.45 -27.15 18.65 -26.1 14.45 -23.15 12.2 -20.75 11.45 -19.8 11.35 -19.65 11.45 -19.7 11.65 -19.85 Q13.2 -20.7 14.3 -20.7 16.4 -20.7 18.5 -19.15 20.85 -17.4 21.6 -14.25 20.3 -13.55 28.5 -9.9 L28.85 -9.75 29.5 -9.8 29.55 -9.75 29.8 -10.55 30.45 -13.2 Q30.45 -16.95 29.6 -20.25 28.9 -23.15 27.55 -25.7 L27.5 -25.8 27.45 -25.9 26.75 -27.1 26.65 -27.25 26.2 -27.9 25.45 -28.9 25.0 -29.4 24.35 -30.0 24.2 -30.1 23.55 -30.55 23.45 -30.6 23.3 -30.55 22.35 -30.3 21.2 -30.0 20.45 -29.8 20.4 -29.8 17.7 -29.15 Q14.3 -28.35 11.5 -27.9 L6.4 -26.6 5.7 -26.4 Q3.15 -24.6 1.55 -20.7 2.0 -17.8 3.0 -15.5 L3.75 -14.05 5.9 -11.45 M1.7 -32.15 L1.05 -32.25 0.3 -31.75 -0.3 -31.35 -3.8 -28.6 -4.15 -28.0 Q-6.4 -27.85 -6.0 -24.95 L-6.1 -24.55 -5.9 -22.8 Q-6.0 -19.6 -1.8 -15.0 L1.8 -11.55 2.95 -10.6 Q5.3 -8.8 6.0 -8.8 L7.25 -8.9 7.25 -9.5 5.0 -11.6 3.6 -13.4 2.2 -15.2 Q1.2 -17.7 0.7 -20.8 0.2 -23.8 0.4 -26.05 L0.9 -26.7 Q2.55 -28.75 3.75 -28.75 L6.7 -28.6 7.4 -28.6 9.15 -28.75 10.05 -28.75 10.2 -28.75 11.3 -28.9 11.5 -28.95 Q12.7 -29.3 13.1 -29.9 L2.05 -31.9 1.95 -32.0 1.7 -32.15 M10.0 -7.6 L10.4 -7.4 8.5 -8.85 10.0 -7.6 M-19.0 -0.1 L-19.0 0.0 -19.0 0.05 -18.95 0.15 -18.95 0.2 Q-18.45 2.3 -17.6 4.15 L-17.05 5.3 -16.95 5.4 -16.9 5.5 -16.85 5.65 -16.3 6.55 -16.2 6.65 -15.6 7.5 -15.05 8.15 Q-15.6 6.25 -14.25 6.25 -12.55 6.25 -9.5 5.1 L-8.8 4.95 -5.1 3.85 Q-3.7 3.45 -1.1 1.95 1.75 0.3 1.75 -0.4 L1.55 -1.2 1.65 -1.4 -2.4 -4.25 -5.05 -6.35 -7.5 -8.5 -8.9 -9.95 -9.55 -10.7 -10.0 -11.25 -12.15 -13.9 Q-14.8 -17.75 -14.5 -21.15 L-15.05 -20.1 Q-16.65 -18.35 -17.7 -16.25 L-18.3 -14.9 Q-19.7 -11.5 -19.75 -7.5 L-19.75 -7.15 -19.7 -5.9 -19.3 -1.55 -19.0 -0.1 M30.95 3.95 L30.55 3.8 29.05 3.55 Q28.25 3.15 27.25 2.7 L17.6 -1.4 9.45 -5.6 Q7.45 -6.6 5.95 -7.35 -5.1 -15.75 -6.55 -21.65 -8.0 -24.6 -8.1 -26.2 L-7.3 -28.0 -7.1 -28.2 -6.1 -29.25 -4.9 -29.7 -4.95 -29.75 -4.8 -29.9 Q-5.3 -30.6 -5.9 -30.6 -8.45 -30.6 -12.5 -24.4 L-12.75 -23.95 Q-13.25 -23.0 -13.25 -22.0 -13.25 -17.7 -11.1 -13.75 -3.9 -5.55 5.0 -0.15 L5.5 0.1 6.1 0.45 7.9 1.5 8.2 1.65 8.65 1.9 10.55 2.85 10.6 2.85 11.8 3.25 12.5 3.45 17.4 5.65 17.75 5.85 17.75 5.9 21.4 7.1 Q27.3 9.0 28.45 9.0 L30.8 8.55 32.35 7.7 33.1 7.3 Q33.3 7.15 33.55 7.05 L33.6 7.1 34.25 6.15 34.25 6.1 33.95 5.55 34.1 5.45 33.8 5.0 Q33.15 3.85 32.8 1.2 L31.15 -4.2 Q30.75 -5.55 29.45 -7.6 L28.6 -9.05 25.6 -11.1 Q23.7 -12.1 21.9 -12.25 L21.9 -11.65 21.9 -11.35 21.9 -11.25 21.9 -11.2 22.0 -10.3 21.75 -8.4 Q20.8 -5.4 16.9 -3.1 L16.7 -2.7 Q19.3 -1.4 23.05 0.05 27.5 1.8 30.5 3.6 L30.85 3.8 31.15 4.0 31.1 4.0 30.95 3.9 30.95 3.95 M30.9 6.8 L31.0 6.85 30.7 6.85 30.9 6.8 M26.8 6.3 L26.2 6.1 25.3 5.75 27.3 6.4 26.8 6.3 M13.9 13.35 L16.4 13.45 21.35 13.6 22.3 13.25 Q24.55 11.9 28.35 9.85 L25.5 9.45 Q22.7 8.8 18.7 7.15 L11.45 13.25 13.9 13.35 M14.6 5.4 L13.95 5.1 13.65 5.0 13.65 5.25 Q13.65 6.2 10.15 9.2 L6.35 12.2 6.35 12.25 6.25 12.3 4.8 13.15 -1.5 16.3 -0.4 16.6 1.1 16.95 1.85 16.95 3.9 17.25 4.6 17.0 Q5.95 16.35 7.5 15.35 L7.5 15.25 7.5 15.1 8.05 15.0 8.25 14.9 8.3 14.85 8.4 14.8 10.05 13.55 10.05 13.5 10.15 13.3 10.4 13.25 16.65 8.25 18.25 7.0 17.8 6.8 17.45 6.7 16.5 6.25 14.6 5.4 M11.9 4.1 L11.85 4.1 9.55 2.9 8.15 2.25 Q0.4 7.2 -9.25 8.95 L-8.1 9.1 -8.8 9.25 Q1.75 11.8 4.1 11.8 L5.2 11.45 6.15 11.4 6.25 11.5 7.9 10.3 8.65 9.85 Q13.05 7.45 13.1 4.75 L11.9 4.1 M-10.25 11.85 L-10.5 11.65 -10.25 11.7 Q-12.0 10.25 -11.5 9.45 L-11.8 9.35 Q-11.05 9.3 -10.85 8.8 L-10.45 8.8 -8.75 8.5 Q-5.1 7.9 -0.25 5.75 L7.55 2.0 5.45 0.9 2.75 -0.7 Q2.45 1.1 -2.6 3.25 L-8.0 5.1 Q-8.8 5.1 -14.0 7.25 L-13.85 8.3 -13.4 9.75 -13.3 9.9 -12.7 10.45 -11.6 11.5 -10.2 12.65 -10.1 12.7 Q-6.4 15.45 -2.35 16.45 L-5.15 14.95 -1.7 16.25 Q0.15 15.2 1.75 14.3 L0.6 14.35 -5.65 13.3 -8.9 12.4 -9.15 12.35 -9.2 12.3 -9.45 12.2 -9.6 12.15 -9.7 12.1 -9.55 12.25 -9.8 12.05 -9.95 12.0 -10.25 11.85 M4.4 12.75 L5.0 12.35 4.75 12.35 -1.75 11.5 -5.0 10.45 Q-8.8 9.35 -9.3 9.35 L-9.6 9.4 -9.9 9.25 -10.35 9.55 -10.35 9.7 -10.65 9.65 -10.85 9.6 -10.85 9.75 Q-10.85 10.75 -10.05 11.7 L-9.45 11.8 Q-7.05 13.4 1.05 14.0 L1.9 14.1 1.9 14.2 4.2 12.85 4.25 12.85 4.45 12.75 4.4 12.75 M16.85 13.95 L16.0 13.75 15.45 13.8 15.35 13.8 11.55 13.4 10.75 13.45 Q10.2 13.65 9.9 14.4 L9.95 14.45 9.8 14.55 9.75 14.55 9.35 14.9 9.1 15.05 10.75 15.3 13.1 15.75 13.1 15.9 11.6 16.0 8.45 15.5 5.35 17.25 8.0 17.0 10.95 16.6 11.9 16.6 12.1 16.55 13.3 16.2 13.8 16.1 17.35 14.9 18.85 14.45 18.75 14.4 17.95 14.25 17.85 14.2 17.05 14.05 17.0 13.9 16.9 14.0 16.85 13.95 M-6.65 -22.1 L-6.75 -22.15 -6.6 -21.85 -6.65 -22.1" fill="#000000" fill-rule="evenodd" stroke="none"/>
    <path d="M-5.05 -6.35 L-2.4 -4.25 1.65 -1.4 1.55 -1.2 1.75 -0.4 Q1.75 0.3 -1.1 1.95 -3.7 3.45 -5.1 3.85 L-8.8 4.95 -9.5 5.1 Q-12.55 6.25 -14.25 6.25 -15.6 6.25 -15.05 8.15 L-15.6 7.5 -16.2 6.65 -16.3 6.55 -16.85 5.65 -16.9 5.5 -16.95 5.4 -17.05 5.3 -17.6 4.15 Q-18.45 2.3 -18.95 0.2 L-18.95 0.15 -19.0 0.05 -19.0 0.0 -19.0 -0.1 -18.85 -0.7 Q-16.35 -6.8 -7.3 -6.8 L-5.05 -6.35 M-19.75 -7.5 Q-19.7 -11.5 -18.3 -14.9 L-17.7 -16.25 Q-16.65 -18.35 -15.05 -20.1 L-14.5 -21.15 Q-14.8 -17.75 -12.15 -13.9 -12.7 -11.05 -13.35 -11.05 L-14.7 -11.55 Q-15.65 -11.8 -16.55 -10.85 L-18.2 -8.85 Q-19.3 -7.5 -19.75 -7.5" fill="#52524b" fill-rule="evenodd" stroke="none"/>
    <path d="M-0.4 16.6 L-1.5 16.3 4.8 13.15 6.25 12.3 6.35 12.25 6.35 12.2 10.15 9.2 Q13.65 6.2 13.65 5.25 L13.65 5.0 13.95 5.1 14.6 5.4 Q10.6 11.05 6.9 12.85 5.45 13.6 2.9 14.9 L-0.4 16.6 M7.5 15.35 Q5.95 16.35 4.6 17.0 L7.5 15.35 M5.45 0.9 L1.7 2.4 -4.25 5.0 -12.35 7.25 -13.95 7.75 -13.85 8.3 -14.0 7.25 Q-8.8 5.1 -8.0 5.1 L-2.6 3.25 Q2.45 1.1 2.75 -0.7 L5.45 0.9 M-10.65 9.65 L-10.35 9.7 -10.35 9.55 -9.9 9.25 -9.6 9.4 -9.3 9.35 Q-8.8 9.35 -5.0 10.45 L-1.75 11.5 4.75 12.35 5.0 12.35 4.4 12.75 4.3 12.7 -2.35 11.85 -8.6 10.15 -10.4 9.7 -10.65 9.65" fill="#d3cebc" fill-rule="evenodd" stroke="none"/>
    <path d="M22.35 -30.3 L23.3 -30.55 23.45 -30.6 23.55 -30.55 24.2 -30.1 24.35 -30.0 25.0 -29.4 25.45 -28.9 26.2 -27.9 26.65 -27.25 26.75 -27.1 27.45 -25.9 27.5 -25.8 27.55 -25.7 Q28.9 -23.15 29.6 -20.25 30.45 -16.95 30.45 -13.2 L29.8 -10.55 29.55 -9.75 29.5 -9.8 28.85 -9.75 28.5 -9.9 Q20.3 -13.55 21.6 -14.25 20.85 -17.4 18.5 -19.15 16.4 -20.7 14.3 -20.7 13.2 -20.7 11.65 -19.85 L11.45 -19.7 11.35 -19.65 11.45 -19.8 12.2 -20.75 14.45 -23.15 18.65 -26.1 20.45 -27.15 20.55 -27.2 20.8 -27.35 21.0 -27.45 21.4 -27.7 22.55 -28.2 23.05 -28.35 23.2 -28.35 23.5 -28.3 23.75 -28.2 24.55 -27.8 24.9 -27.55 25.6 -27.45 25.7 -27.7 25.45 -27.9 25.05 -28.2 24.35 -28.8 23.2 -28.95 Q22.1 -28.95 19.4 -27.35 16.45 -25.6 13.9 -23.1 9.85 -19.15 8.75 -15.25 8.15 -13.8 7.8 -12.2 L7.95 -11.4 Q7.95 -10.7 7.6 -10.3 L6.55 -10.75 5.9 -11.45 Q5.7 -16.5 8.1 -19.25 10.6 -22.65 13.75 -25.75 14.65 -26.6 18.9 -28.75 L22.0 -30.2 22.35 -30.3 M3.0 -15.5 Q2.0 -17.8 1.55 -20.7 3.15 -24.6 5.7 -26.4 L6.4 -26.6 4.9 -24.75 Q3.6 -22.5 3.0 -18.6 L3.0 -15.5 M1.7 -32.15 L1.95 -32.0 2.05 -31.9 13.1 -29.9 Q12.7 -29.3 11.5 -28.95 L11.3 -28.9 10.2 -28.75 10.05 -28.75 9.15 -28.75 8.75 -28.8 6.7 -28.6 3.75 -28.75 Q2.55 -28.75 0.9 -26.7 L0.4 -26.05 Q0.2 -23.8 0.7 -20.8 1.2 -17.7 2.2 -15.2 L3.6 -13.4 5.0 -11.6 7.25 -9.5 7.25 -8.9 6.0 -8.8 Q5.3 -8.8 2.95 -10.6 L1.8 -11.55 Q0.1 -14.9 -0.85 -19.15 -2.1 -24.6 -1.3 -28.2 -0.6 -31.5 1.7 -32.15 M30.95 3.95 L30.95 3.9 31.1 4.0 31.15 4.0 30.85 3.8 30.5 3.6 Q27.5 1.8 23.05 0.05 19.3 -1.4 16.7 -2.7 L16.9 -3.1 Q20.8 -5.4 21.75 -8.4 L22.0 -10.3 21.9 -11.2 21.9 -11.25 21.9 -11.35 21.9 -11.65 Q23.95 -11.15 25.25 -10.1 29.1 -7.0 32.05 2.9 L31.85 3.85 31.25 4.0 31.1 4.0 30.95 3.95 M34.25 6.1 L34.25 6.15 33.6 7.1 33.55 7.05 Q33.3 7.15 33.1 7.3 L32.35 7.7 30.8 8.55 28.45 9.0 Q27.3 9.0 21.4 7.1 L17.75 5.9 17.75 5.85 17.4 5.65 12.5 3.45 11.8 3.25 10.6 2.85 10.55 2.85 8.65 1.9 8.2 1.65 7.9 1.5 6.1 0.45 5.5 0.1 Q9.05 -1.0 12.3 -1.0 13.55 -1.0 18.05 0.6 20.25 1.1 22.1 2.05 L23.75 2.7 27.7 4.25 27.8 4.25 34.15 5.85 34.25 6.1 M26.8 6.3 L27.3 6.4 25.3 5.75 26.2 6.1 26.8 6.3 M30.9 6.8 L30.7 6.85 31.0 6.85 30.9 6.8" fill="#761432" fill-rule="evenodd" stroke="none"/>
    <path d="M25.5 9.45 L28.35 9.85 Q24.55 11.9 22.3 13.25 L21.35 13.6 16.4 13.45 13.9 13.35 17.25 12.6 Q20.6 12.0 25.5 9.45 M-0.4 16.6 L2.9 14.9 6.6 15.25 7.5 15.25 7.5 15.35 4.6 17.0 3.9 17.25 1.85 16.95 1.1 16.95 -0.4 16.6 M-11.6 11.5 L-10.25 11.85 -9.95 12.0 -9.8 12.05 -9.55 12.25 -9.7 12.1 -9.6 12.15 -9.45 12.2 -9.2 12.3 -9.15 12.35 -8.9 12.4 -5.65 13.3 0.6 14.35 1.75 14.3 Q0.15 15.2 -1.7 16.25 L-5.15 14.95 -2.35 16.45 Q-6.4 15.45 -10.1 12.7 L-10.2 12.65 -11.6 11.5 M16.85 13.95 L16.9 14.0 17.0 13.9 17.05 14.05 17.85 14.2 17.95 14.25 18.75 14.4 18.85 14.45 17.35 14.9 13.8 16.1 13.3 16.2 12.1 16.55 11.9 16.6 10.95 16.6 8.0 17.0 5.35 17.25 8.45 15.5 11.6 16.0 13.1 15.9 13.1 15.75 10.75 15.3 9.1 15.05 9.35 14.9 9.75 14.55 9.8 14.55 13.15 14.3 16.3 13.8 16.85 13.95" fill="#807571" fill-rule="evenodd" stroke="none"/>
    <path d="M-19.0 -0.1 L-19.3 -1.55 -19.7 -5.9 -19.75 -7.15 -19.75 -7.5 Q-19.3 -7.5 -18.2 -8.85 L-16.55 -10.85 Q-15.65 -11.8 -14.7 -11.55 L-13.35 -11.05 Q-12.7 -11.05 -12.15 -13.9 L-10.0 -11.25 -9.55 -10.7 -8.9 -9.95 -7.5 -8.5 -5.05 -6.35 -7.3 -6.8 Q-16.35 -6.8 -18.85 -0.7 L-19.0 -0.1" fill="#808279" fill-rule="evenodd" stroke="none"/>
    <path d="M22.35 -30.3 L22.0 -30.2 18.9 -28.75 Q14.65 -26.6 13.75 -25.75 10.6 -22.65 8.1 -19.25 5.7 -16.5 5.9 -11.45 L3.75 -14.05 3.0 -15.5 3.0 -18.6 Q3.6 -22.5 4.9 -24.75 L6.4 -26.6 11.5 -27.9 Q14.3 -28.35 17.7 -29.15 L20.4 -29.8 20.45 -29.8 21.2 -30.0 22.35 -30.3 M1.8 -11.55 L-1.8 -15.0 Q-6.0 -19.6 -5.9 -22.8 L-6.1 -24.55 -6.0 -24.95 Q-6.4 -27.85 -4.15 -28.0 L-3.8 -28.6 -0.3 -31.35 0.3 -31.75 1.05 -32.25 1.7 -32.15 Q-0.6 -31.5 -1.3 -28.2 -2.1 -24.6 -0.85 -19.15 0.1 -14.9 1.8 -11.55 M9.15 -28.75 L7.4 -28.6 6.7 -28.6 8.75 -28.8 9.15 -28.75 M5.5 0.1 L5.0 -0.15 Q-3.9 -5.55 -11.1 -13.75 -13.25 -17.7 -13.25 -22.0 -13.25 -23.0 -12.75 -23.95 L-12.5 -24.4 Q-8.45 -30.6 -5.9 -30.6 -5.3 -30.6 -4.8 -29.9 L-4.95 -29.75 -4.9 -29.7 -6.1 -29.25 -7.1 -28.2 -7.3 -28.0 -8.1 -26.2 Q-8.0 -24.6 -6.55 -21.65 -5.1 -15.75 5.95 -7.35 7.45 -6.6 9.45 -5.6 L17.6 -1.4 27.25 2.7 Q28.25 3.15 29.05 3.55 L30.55 3.8 30.95 3.95 31.1 4.0 31.25 4.0 31.85 3.85 32.05 2.9 Q29.1 -7.0 25.25 -10.1 23.95 -11.15 21.9 -11.65 L21.9 -12.25 Q23.7 -12.1 25.6 -11.1 L28.6 -9.05 29.45 -7.6 Q30.75 -5.55 31.15 -4.2 L32.8 1.2 Q33.15 3.85 33.8 5.0 L34.1 5.45 33.95 5.55 34.25 6.1 34.15 5.85 27.8 4.25 27.7 4.25 23.75 2.7 22.1 2.05 Q20.25 1.1 18.05 0.6 13.55 -1.0 12.3 -1.0 9.05 -1.0 5.5 0.1" fill="url(#gradient0)" fill-rule="evenodd" stroke="none"/>
    <path d="M25.5 9.45 Q20.6 12.0 17.25 12.6 L13.9 13.35 11.45 13.25 18.7 7.15 Q22.7 8.8 25.5 9.45 M2.9 14.9 Q5.45 13.6 6.9 12.85 10.6 11.05 14.6 5.4 L16.5 6.25 17.45 6.7 17.8 6.8 18.25 7.0 16.65 8.25 10.4 13.25 10.15 13.3 10.05 13.5 10.05 13.55 8.4 14.8 8.3 14.85 8.25 14.9 8.05 15.0 7.5 15.1 7.5 15.25 6.6 15.25 2.9 14.9 M11.9 4.1 L13.1 4.75 Q13.05 7.45 8.65 9.85 L7.9 10.3 6.25 11.5 6.15 11.4 5.2 11.45 4.1 11.8 Q1.75 11.8 -8.8 9.25 L-8.1 9.1 -9.25 8.95 Q0.4 7.2 8.15 2.25 L9.55 2.9 11.85 4.1 11.9 4.1 M5.45 0.9 L7.55 2.0 -0.25 5.75 Q-5.1 7.9 -8.75 8.5 L-10.45 8.8 -10.85 8.8 Q-11.05 9.3 -11.8 9.35 L-11.5 9.45 Q-12.0 10.25 -10.25 11.7 L-10.5 11.65 -10.25 11.85 -11.6 11.5 -12.7 10.45 -13.3 9.9 -13.4 9.75 -13.85 8.3 -13.95 7.75 -12.35 7.25 -4.25 5.0 1.7 2.4 5.45 0.9 M-10.65 9.65 L-10.4 9.7 -8.6 10.15 -2.35 11.85 4.3 12.7 4.4 12.75 4.45 12.75 4.25 12.85 4.2 12.85 1.9 14.2 1.9 14.1 1.05 14.0 Q-7.05 13.4 -9.45 11.8 L-10.05 11.7 Q-10.85 10.75 -10.85 9.75 L-10.85 9.6 -10.65 9.65 M9.8 14.55 L9.95 14.45 9.9 14.4 Q10.2 13.65 10.75 13.45 L11.55 13.4 15.35 13.8 15.45 13.8 16.0 13.75 16.85 13.95 16.3 13.8 13.15 14.3 9.8 14.55" fill="url(#gradient1)" fill-rule="evenodd" stroke="none"/>
  </g>
  <defs>
    <linearGradient gradientTransform="matrix(-0.0245, -0.0276, 0.0156, -0.0138, -0.6, -36.35)" gradientUnits="userSpaceOnUse" id="gradient0" spreadMethod="pad" x1="-819.2" x2="819.2">
      <stop offset="0.0" stop-color="#cf0e48"/>
      <stop offset="1.0" stop-color="#f3a68b"/>
    </linearGradient>
    <linearGradient gradientTransform="matrix(0.0023, -0.031, 0.0156, 0.0013, 17.95, -6.5)" gradientUnits="userSpaceOnUse" id="gradient1" spreadMethod="pad" x1="-819.2" x2="819.2">
      <stop offset="0.0" stop-color="#635b58"/>
      <stop offset="1.0" stop-color="#d3cebc"/>
    </linearGradient>
  </defs>
</svg>
