<?xml version="1.0" encoding="UTF-8" standalone="no"?>
<svg
   xmlns:dc="http://purl.org/dc/elements/1.1/"
   xmlns:cc="http://creativecommons.org/ns#"
   xmlns:rdf="http://www.w3.org/1999/02/22-rdf-syntax-ns#"
   xmlns:svg="http://www.w3.org/2000/svg"
   xmlns="http://www.w3.org/2000/svg"
   xmlns:sodipodi="http://sodipodi.sourceforge.net/DTD/sodipodi-0.dtd"
   xmlns:inkscape="http://www.inkscape.org/namespaces/inkscape"
   height="98.65px"
   width="115.65px"
   version="1.1"
   id="svg22"
   sodipodi:docname="7.svg"
   inkscape:version="1.0.2-2 (e86c870879, 2021-01-15)">
  <metadata
     id="metadata28">
    <rdf:RDF>
      <cc:Work
         rdf:about="">
        <dc:format>image/svg+xml</dc:format>
        <dc:type
           rdf:resource="http://purl.org/dc/dcmitype/StillImage" />
      </cc:Work>
    </rdf:RDF>
  </metadata>
  <defs
     id="defs26" />
  <sodipodi:namedview
     pagecolor="#ffffff"
     bordercolor="#666666"
     borderopacity="1"
     objecttolerance="10"
     gridtolerance="10"
     guidetolerance="10"
     inkscape:pageopacity="0"
     inkscape:pageshadow="2"
     inkscape:window-width="1920"
     inkscape:window-height="1017"
     id="namedview24"
     showgrid="false"
     inkscape:zoom="6.0926584"
     inkscape:cx="53.990626"
     inkscape:cy="46.440612"
     inkscape:window-x="-8"
     inkscape:window-y="-8"
     inkscape:window-maximized="1"
     inkscape:current-layer="svg22" />
  <g
     transform="matrix(1.0, 0.0, 0.0, 1.0, 68.4, 125.05)"
     id="g20">
    <path
       d="M43.25 -70.6 Q45.8 -67.65 46.8 -63.8 L47.25 -61.7 46.25 -61.6 Q46.7 -59.05 46.65 -56.35 L46.3 -52.95 Q46.25 -51.85 44.85 -48.9 L45.4 -49.55 44.7 -48.65 Q38.65 -41.45 29.7 -38.05 L26.0 -36.9 Q14.85 -33.85 4.0 -37.0 1.45 -37.75 -0.65 -39.4 -3.85 -41.9 -6.95 -46.05 L-7.95 -47.4 -12.55 -47.7 -16.55 -46.0 Q-19.25 -44.65 -21.6 -42.85 L-23.8 -41.35 -29.55 -37.0 -32.35 -35.05 Q-38.6 -30.1 -43.15 -28.15 -47.4 -26.4 -51.55 -26.4 -55.65 -26.45 -59.65 -28.1 -62.35 -29.2 -64.5 -30.9 L-64.9 -31.55 -65.0 -32.25 -64.9 -32.8 -64.55 -33.25 -64.0 -33.4 -63.6 -33.3 Q-57.8 -32.55 -52.2 -37.3 -49.25 -39.95 -47.0 -43.2 L-46.75 -43.55 -46.8 -43.5 -45.8 -45.05 -45.75 -45.2 -45.7 -45.3 -44.9 -46.75 -41.4 -53.6 -41.4 -53.55 -40.9 -54.55 -40.9 -54.5 -40.05 -56.1 Q-41.5 -57.35 -43.45 -57.9 -48.6 -59.25 -56.45 -59.2 L-57.15 -59.45 -57.45 -60.1 -57.25 -60.8 Q-51.5 -68.65 -44.7 -71.0 L-44.75 -70.95 -44.05 -71.2 -29.3 -76.75 -28.85 -77.1 -27.8 -77.65 -27.25 -78.15 -27.3 -78.1 -26.9 -78.7 -26.9 -78.8 -26.9 -78.9 -26.95 -79.3 -26.95 -79.45 -27.35 -79.8 Q-27.8 -80.35 -29.0 -80.3 L-34.55 -79.8 -35.0 -79.85 -35.4 -80.1 -36.35 -81.0 -36.65 -81.55 -36.6 -82.15 -34.45 -86.3 Q-33.3 -88.4 -32.5 -90.7 L-32.4 -91.15 Q-32.2 -92.6 -32.3 -93.6 -32.45 -94.6 -32.8 -95.15 L-32.75 -95.15 -36.3 -99.15 -36.35 -99.15 Q-39.4 -102.5 -41.8 -104.15 L-41.9 -104.25 -45.35 -106.45 -45.35 -106.5 Q-50.1 -109.65 -53.8 -112.65 L-60.8 -118.3 Q-63.45 -120.5 -68.2 -123.25 L-68.4 -123.65 -68.3 -123.9 -66.15 -124.65 -62.6 -125.0 -61.0 -125.0 -60.9 -125.0 Q-56.7 -125.05 -52.5 -124.0 -48.7 -123.25 -44.9 -121.95 L-44.45 -121.8 -44.15 -121.65 -43.4 -121.35 -43.2 -121.25 Q-33.6 -118.35 -24.1 -114.35 -13.7 -109.95 -3.95 -104.05 L-4.0 -104.05 9.7 -95.75 9.9 -95.65 15.45 -92.15 Q23.8 -87.05 31.8 -81.25 L34.8 -78.85 36.55 -77.35 37.55 -76.5 39.25 -75.05 39.35 -75.0 43.3 -70.6 43.25 -70.6 M36.5 -42.3 L38.2 -43.4 Q40.5 -44.85 42.5 -46.65 L42.85 -47.0 43.5 -47.7 Q44.55 -49.4 45.2 -51.35 46.15 -54.7 46.05 -58.05 L45.6 -61.55 44.6 -65.1 Q43.1 -68.75 40.3 -71.6 L39.45 -72.45 35.6 -75.75 34.5 -76.65 34.1 -77.0 Q32.9 -77.95 32.15 -78.6 L31.8 -78.9 31.0 -79.6 30.15 -80.25 29.3 -80.9 28.65 -81.3 21.3 -86.15 15.2 -90.6 11.6 -92.9 10.0 -93.8 10.8 -93.0 11.1 -92.65 12.2 -91.3 13.55 -88.85 14.8 -85.55 14.85 -85.3 12.75 -86.8 Q10.6 -88.4 8.5 -89.6 L8.25 -89.7 8.2 -89.75 7.3 -90.3 7.25 -90.3 7.15 -90.4 6.9 -90.55 6.75 -90.7 6.7 -90.7 6.25 -91.05 5.45 -91.55 5.4 -91.55 4.75 -92.05 4.8 -92.1 4.7 -92.1 -0.75 -92.45 -0.9 -92.5 -2.45 -92.7 -8.75 -93.7 -13.1 -94.6 -13.5 -94.7 -15.95 -95.3 -17.95 -95.9 -18.9 -96.2 Q-20.2 -96.65 -21.4 -97.2 L-21.5 -97.2 -21.55 -97.7 -21.4 -97.65 -20.45 -97.45 -19.8 -97.5 -19.6 -97.5 -14.2 -97.6 -8.95 -97.55 -7.05 -97.55 -5.5 -97.55 -3.55 -97.65 -1.0 -97.65 -1.5 -99.05 Q-1.85 -100.0 -2.5 -100.75 L-2.8 -101.1 Q-6.35 -103.15 -9.55 -105.3 L-10.25 -105.65 -9.95 -105.5 Q-9.05 -105.0 -9.45 -105.15 L-15.05 -108.0 Q-20.25 -110.75 -23.2 -112.0 -26.05 -113.2 -30.35 -115.15 -34.65 -117.1 -36.3 -117.55 L-39.95 -118.85 -42.85 -119.95 -43.05 -120.0 -43.15 -120.0 -43.95 -120.15 -44.75 -120.35 -45.0 -120.45 -45.1 -120.5 -45.25 -120.55 -45.85 -121.0 -54.35 -122.7 -54.4 -122.7 -55.45 -122.85 -57.05 -123.05 -62.7 -123.3 -66.45 -123.0 Q-62.45 -121.95 -59.35 -119.25 L-52.75 -113.9 -45.5 -108.25 Q-43.2 -107.1 -41.15 -105.4 L-37.05 -102.3 -35.3 -100.8 -33.6 -98.95 -33.4 -98.7 Q-31.75 -96.6 -31.05 -94.15 L-30.8 -93.15 -30.75 -93.15 Q-30.4 -90.75 -31.3 -88.6 L-33.3 -84.6 -34.85 -82.1 -34.8 -81.95 -34.75 -81.8 -34.85 -81.7 -34.95 -81.7 -33.75 -81.6 -30.1 -81.95 -27.85 -81.8 -27.6 -81.75 -27.3 -81.6 -27.15 -81.55 -26.65 -81.15 -26.65 -81.2 -26.5 -81.0 -26.4 -80.85 -26.3 -80.7 -26.2 -80.55 -26.1 -80.4 -25.9 -80.2 -25.8 -80.05 -25.75 -79.55 -25.65 -78.85 -25.7 -78.15 Q-25.85 -77.6 -26.25 -77.15 -26.65 -76.75 -27.2 -76.45 L-27.65 -76.15 Q-32.4 -73.55 -35.1 -72.85 L-39.45 -71.65 Q-42.5 -70.65 -45.05 -69.3 -49.45 -67.15 -52.1 -64.3 L-55.25 -61.1 -51.25 -61.05 -45.3 -60.3 Q-42.35 -59.75 -39.9 -57.85 L-39.0 -57.1 -38.7 -56.8 -38.55 -56.65 -37.9 -57.95 -37.3 -59.2 -35.5 -62.75 -35.3 -63.2 -34.55 -64.65 -32.35 -68.35 -30.8 -68.05 -28.9 -67.75 Q-28.0 -67.6 -27.6 -67.75 L-26.75 -67.95 Q-25.4 -68.15 -24.25 -68.75 L-23.65 -69.1 -22.0 -70.45 -21.85 -70.65 -21.05 -71.6 -19.3 -73.6 -18.65 -74.2 Q-18.2 -74.5 -18.75 -73.65 L-19.1 -73.2 -19.15 -73.1 -19.6 -72.55 -20.05 -72.0 -20.9 -71.0 -20.95 -70.95 -21.55 -70.3 -21.65 -70.25 -22.65 -69.35 -24.05 -68.45 -26.05 -67.6 -26.15 -67.6 -27.0 -67.4 -31.5 -67.6 -31.95 -67.75 -33.9 -64.25 -34.4 -63.45 -34.6 -63.05 -35.9 -60.7 -36.4 -59.65 -39.7 -53.0 -39.75 -52.85 -40.15 -52.0 Q-42.05 -48.25 -44.3 -44.6 L-44.45 -44.35 -45.5 -42.8 -45.75 -42.45 -47.7 -39.7 -49.8 -37.2 -51.05 -35.95 -53.6 -33.95 -54.6 -33.4 Q-56.05 -32.6 -57.5 -32.25 -61.6 -31.25 -62.85 -31.7 -60.2 -30.05 -57.0 -29.05 -54.1 -28.15 -51.25 -28.1 -48.1 -28.1 -45.0 -29.15 L-43.65 -29.7 -40.45 -31.1 Q-34.2 -34.15 -28.6 -38.35 L-27.35 -39.35 -23.2 -42.15 -22.85 -42.4 -19.85 -44.5 -16.05 -46.6 -13.85 -47.5 -10.95 -48.5 Q-8.75 -48.15 -9.3 -49.35 L-9.4 -49.5 -9.45 -49.65 -9.45 -49.9 -9.5 -49.9 -9.45 -49.65 -10.1 -50.85 -10.2 -51.3 -8.4 -56.3 -7.2 -58.85 -6.85 -59.5 -6.5 -60.15 Q-5.25 -62.45 -3.65 -64.45 -1.9 -66.85 0.1 -68.65 L0.8 -69.3 Q3.2 -71.35 5.9 -72.6 L5.05 -72.0 3.4 -70.65 3.3 -70.45 3.25 -70.45 3.25 -70.4 1.55 -69.0 0.3 -67.85 Q-3.3 -64.6 -5.5 -60.6 L-6.05 -59.6 -7.0 -57.5 -7.45 -56.4 -9.15 -51.8 -9.25 -51.6 -9.25 -51.55 -9.15 -51.25 -9.1 -51.15 -9.05 -50.85 Q-6.2 -45.4 -1.45 -41.1 3.95 -36.2 11.35 -36.15 17.75 -36.15 24.0 -37.5 L25.35 -37.8 25.4 -37.8 25.6 -37.85 Q30.5 -39.1 34.9 -41.4 L36.5 -42.3 M12.0 -91.0 L10.3 -93.2 9.95 -93.55 9.6 -93.9 9.05 -94.4 4.3 -97.15 -2.15 -100.75 -1.95 -100.5 -1.15 -99.0 -0.5 -96.95 -2.4 -97.0 -5.05 -97.1 -6.65 -97.15 -9.95 -97.2 -15.05 -97.2 -19.95 -97.25 Q-17.6 -96.35 -15.1 -95.75 L-13.05 -95.25 -12.45 -95.1 -7.55 -94.05 -2.9 -93.2 -1.4 -93.0 0.2 -92.85 4.6 -92.4 4.65 -92.45 4.75 -92.45 4.9 -92.4 5.2 -92.25 5.45 -92.1 5.7 -92.0 6.0 -91.8 6.1 -91.7 6.25 -91.6 6.65 -91.35 6.75 -91.3 7.05 -91.1 7.1 -91.1 7.7 -90.7 8.15 -90.45 9.75 -89.35 13.5 -86.7 14.25 -86.15 13.35 -88.3 12.0 -91.0 M5.3 -92.35 L5.25 -92.35 5.3 -92.35 M-44.1 -120.5 L-44.2 -120.55 -44.7 -120.7 -44.1 -120.5 M-44.95 -120.95 L-45.0 -120.95 -45.0 -120.9 -44.6 -120.75 -44.95 -120.95 M-26.8 -78.65 L-26.85 -78.8 -26.8 -78.65 M-35.3 -50.65 L-35.35 -50.7 -35.35 -50.75 -35.3 -50.65 M-8.75 -48.5 L-8.8 -48.4 -8.55 -48.2 -8.75 -48.5"
       fill="#000000"
       fill-rule="evenodd"
       stroke="none"
       id="path2" />
    <path
       d="M-14.95 -83.45 L-14.7 -82.65 -14.4 -81.8 -16.7 -80.35 -17.05 -80.1 Q-16.9 -81.2 -17.1 -82.4 -17.6 -85.3 -18.55 -88.1 -19.55 -90.9 -20.8 -93.55 L-21.95 -96.0 -21.05 -95.65 -20.65 -95.45 -20.25 -95.25 Q-22.45 -98.45 -24.95 -101.4 -29.0 -106.2 -33.65 -110.35 -40.35 -116.4 -48.8 -119.5 -53.15 -121.1 -57.05 -123.05 L-55.45 -122.85 -54.4 -122.7 -54.35 -122.7 -45.85 -121.0 -45.25 -120.55 -45.1 -120.5 -45.0 -120.45 -44.75 -120.35 -43.7 -119.65 -42.55 -119.0 -42.3 -118.9 -40.85 -118.25 -32.3 -115.0 Q-25.1 -112.15 -19.0 -107.7 -13.75 -103.85 -8.9 -99.3 L-7.05 -97.55 -8.95 -97.55 -14.2 -97.6 -19.6 -97.5 -19.8 -97.5 -20.45 -97.45 -21.4 -97.65 -21.55 -97.7 -21.5 -97.2 -21.4 -97.2 Q-20.2 -96.65 -18.9 -96.2 L-17.95 -95.9 -15.95 -95.3 -13.8 -94.1 -14.15 -93.6 -14.4 -93.0 -14.6 -92.75 -14.8 -92.4 -15.65 -92.95 -16.35 -93.35 -16.45 -93.4 -16.65 -93.5 -17.1 -93.75 -17.35 -93.9 -17.5 -93.95 -17.85 -94.15 -18.0 -94.2 -18.5 -94.45 -18.6 -94.5 -19.2 -94.8 -19.4 -94.9 -19.8 -95.05 -19.95 -95.1 -19.1 -93.65 -17.8 -91.0 -16.6 -88.35 -15.45 -85.6 -15.1 -84.55 -15.15 -84.5 -15.4 -84.25 -16.75 -82.3 -15.4 -83.15 -15.3 -83.2 -14.95 -83.45 M0.95 -81.3 L1.05 -81.4 1.1 -81.35 1.05 -81.3 0.95 -81.3 M-12.35 -79.6 L-12.35 -79.45 -12.35 -79.15 -13.0 -79.1 -13.65 -79.1 -13.65 -79.15 -13.05 -79.35 -12.35 -79.6 M-11.75 -79.2 L-11.35 -79.2 -10.9 -79.25 -10.65 -79.25 -10.6 -79.25 -10.3 -79.25 -9.35 -79.3 -8.7 -79.3 -8.6 -79.3 -8.1 -79.3 -7.95 -79.3 -5.65 -79.35 -1.85 -79.2 -1.55 -79.15 -0.65 -79.1 -0.7 -79.05 -0.55 -79.05 -1.3 -78.45 -1.45 -78.35 -3.45 -76.7 -3.85 -76.4 -5.6 -74.95 -7.1 -73.75 -7.35 -73.5 -8.8 -72.35 -10.05 -71.35 -10.75 -70.75 -10.75 -70.8 -10.95 -71.85 -11.2 -71.65 -11.45 -71.45 -12.0 -71.0 -12.55 -70.6 -13.3 -70.05 -14.25 -69.35 Q-17.85 -66.6 -21.7 -64.35 L-22.6 -63.8 -23.9 -65.6 -24.0 -65.7 Q-21.4 -67.0 -17.85 -69.55 L-14.0 -72.55 -13.0 -73.35 -12.85 -73.45 -12.2 -74.0 -11.85 -74.3 -11.8 -74.35 -11.35 -74.75 -11.2 -74.85 -11.15 -74.4 -10.85 -71.95 -9.3 -73.15 -8.3 -73.95 -8.0 -74.2 -7.5 -74.6 -7.3 -74.8 -7.2 -74.85 -6.3 -75.65 -3.75 -78.2 -5.1 -78.2 -5.55 -78.2 -6.95 -78.1 -7.75 -78.05 -7.85 -78.05 -9.65 -77.9 -10.6 -77.8 -11.85 -77.65 -11.85 -77.55 -11.75 -76.7 -11.65 -76.35 -11.6 -76.15 -11.65 -76.15 -11.75 -76.15 -12.05 -76.1 -12.1 -76.1 -12.15 -76.1 -12.2 -76.1 -12.5 -76.05 -12.55 -76.05 -12.55 -76.1 -12.75 -76.05 -13.05 -76.05 -13.3 -76.0 -14.2 -75.95 -14.8 -75.9 Q-19.2 -75.55 -20.9 -74.75 L-20.8 -76.15 -19.75 -76.6 -18.85 -77.0 Q-18.2 -76.5 -17.3 -76.7 L-15.0 -77.15 -13.7 -77.4 -13.4 -77.45 -13.25 -77.45 -13.15 -77.5 -13.0 -76.95 -13.1 -77.5 -12.85 -77.5 -12.6 -77.55 -12.55 -77.55 -12.45 -77.6 -12.2 -77.6 -12.15 -77.6 -12.1 -77.6 -12.0 -77.65 -11.95 -77.65 -11.85 -77.65 -11.95 -78.0 -12.15 -79.15 -11.75 -79.2 M-10.8 -70.75 L-10.6 -69.9 Q-9.6 -65.65 -7.5 -61.85 L-6.5 -60.15 -6.85 -59.5 -7.2 -58.85 -8.4 -56.3 -10.2 -51.3 Q-11.4 -50.55 -13.2 -49.7 -15.05 -48.9 -16.8 -49.05 L-16.65 -50.0 -15.65 -54.2 -15.3 -55.65 -14.45 -58.85 -14.6 -58.7 -14.75 -58.45 -17.3 -55.45 -19.0 -53.5 -19.65 -52.75 -25.35 -45.55 Q-29.1 -40.6 -34.2 -36.5 -39.3 -32.4 -45.0 -29.15 -48.1 -28.1 -51.25 -28.1 -54.1 -28.15 -57.0 -29.05 -60.2 -30.05 -62.85 -31.7 -61.6 -31.25 -57.5 -32.25 -56.05 -32.6 -54.6 -33.4 -55.1 -33.1 -55.55 -32.9 L-51.95 -32.7 Q-47.05 -33.2 -42.4 -34.85 -37.35 -36.65 -33.5 -40.35 L-30.0 -44.0 -30.0 -44.05 -30.2 -43.8 -30.95 -44.25 Q-34.3 -40.2 -39.0 -37.6 -46.4 -33.5 -53.6 -33.95 L-51.05 -35.95 -47.8 -36.05 Q-43.4 -36.6 -39.55 -38.9 -35.2 -41.5 -31.95 -45.0 -32.95 -45.6 -34.25 -45.9 L-34.4 -45.95 -34.0 -46.3 -34.35 -46.45 -34.1 -46.75 -34.45 -46.45 -34.5 -46.5 -35.0 -46.75 Q-36.95 -47.9 -38.25 -49.7 -39.3 -51.15 -39.75 -52.85 L-39.7 -53.0 -36.4 -59.65 Q-34.05 -61.85 -30.7 -61.6 -29.9 -61.55 -29.25 -61.1 L-28.3 -60.3 -27.65 -59.6 Q-26.45 -58.1 -26.25 -56.05 -25.85 -52.5 -28.9 -50.65 -31.45 -49.1 -33.5 -50.0 -34.15 -50.25 -34.75 -50.8 L-35.05 -51.05 -35.65 -51.75 -35.85 -52.2 -35.9 -52.3 -35.9 -52.5 -35.95 -52.65 -36.1 -53.0 -36.1 -53.2 -36.15 -53.4 -36.15 -53.5 -36.2 -53.7 -36.35 -53.9 -36.35 -54.0 -36.35 -54.1 -36.35 -54.2 -36.25 -54.3 -36.4 -54.75 -36.6 -54.7 -36.65 -54.65 -36.65 -54.3 -36.65 -53.25 -36.5 -52.85 -36.5 -52.8 -36.4 -52.5 -36.3 -52.2 -36.3 -52.15 -36.25 -51.85 -36.15 -51.65 -36.1 -51.5 -35.9 -51.05 -35.75 -50.65 -35.6 -50.25 -35.55 -50.15 -35.2 -49.95 -35.15 -49.9 -35.1 -49.8 -35.1 -49.75 -35.05 -49.7 -34.95 -49.5 -34.7 -49.1 -34.4 -49.15 -34.35 -49.1 -34.25 -49.0 -34.2 -48.95 -34.05 -48.8 -33.9 -48.65 -33.55 -48.55 -33.35 -48.45 -33.15 -48.25 -33.0 -48.2 -32.5 -48.25 Q-30.55 -48.15 -28.95 -48.9 -27.05 -49.8 -25.95 -51.55 L-25.85 -51.55 -24.8 -51.75 -24.5 -51.8 -22.9 -52.3 -22.0 -52.5 -22.0 -52.45 -21.5 -52.6 -21.5 -52.65 -21.3 -52.7 -21.15 -54.2 Q-20.65 -57.2 -21.25 -60.2 -21.5 -61.6 -22.1 -62.85 L-19.4 -64.55 Q-15.9 -66.75 -12.65 -69.3 L-12.05 -69.75 -10.8 -70.75 M-14.15 -91.95 L-14.1 -91.95 -13.5 -91.55 -13.05 -91.0 -14.15 -91.95 M-33.6 -98.95 L-30.95 -98.7 Q-29.05 -97.6 -25.6 -92.85 L-25.6 -92.8 -23.6 -96.5 -22.3 -94.0 Q-21.0 -91.35 -20.0 -88.6 -19.0 -85.9 -18.5 -83.05 L-17.9 -79.5 -18.05 -79.4 -19.6 -78.3 -20.5 -77.6 -21.0 -77.2 -20.75 -77.4 Q-20.5 -77.8 -20.5 -79.7 -20.55 -81.65 -21.7 -85.45 -22.85 -89.3 -24.2 -90.7 -24.4 -93.25 -24.95 -87.55 -25.5 -81.9 -28.6 -81.95 L-27.85 -81.8 -30.1 -81.95 -33.75 -81.6 -34.95 -81.7 -34.85 -81.7 -34.75 -81.8 -34.8 -81.95 -34.85 -82.1 -33.3 -84.6 -31.3 -88.6 Q-30.4 -90.75 -30.75 -93.15 L-30.8 -93.15 -31.05 -94.15 Q-31.75 -96.6 -33.4 -98.7 L-33.6 -98.95 M-11.15 -76.2 L-10.9 -76.2 -10.2 -76.3 -9.6 -76.4 -9.45 -76.4 -10.45 -75.5 -10.8 -75.2 -11.05 -75.0 -11.05 -75.1 -11.15 -76.2 M-7.95 -78.4 L-7.95 -78.45 -7.95 -78.5 -7.95 -78.4 M-27.0 -67.4 Q-25.4 -66.35 -24.25 -64.8 L-26.05 -64.0 -28.0 -63.25 -28.4 -63.0 Q-30.6 -64.15 -33.25 -63.8 L-33.7 -63.65 -34.4 -63.45 -33.9 -64.25 -31.95 -67.75 -31.5 -67.6 -27.0 -67.4 M-24.2 -63.65 L-23.9 -64.35 -23.3 -63.35 Q-21.8 -60.7 -21.55 -57.65 -21.4 -55.65 -21.75 -53.65 L-21.85 -53.7 -22.65 -54.1 -23.45 -54.55 -24.3 -55.15 -24.7 -55.45 Q-24.6 -56.8 -24.85 -58.2 -25.05 -59.4 -25.6 -60.35 L-25.6 -60.4 -25.1 -61.5 -24.6 -62.6 -24.2 -63.65 M-30.45 -57.3 L-31.45 -57.2 -31.9 -57.2 -32.45 -57.0 -32.55 -56.95 -32.7 -56.8 -33.15 -56.25 -33.5 -55.85 Q-33.75 -54.75 -33.35 -53.65 -32.9 -52.25 -31.4 -52.15 -30.0 -52.0 -29.3 -53.1 -28.5 -54.3 -28.95 -55.65 -29.35 -57.05 -30.2 -57.2 L-30.45 -57.3 M-33.9 -46.25 L-33.95 -46.25 Q-34.2 -46.0 -33.3 -46.45 L-33.9 -46.25"
       fill="#3c4157"
       fill-rule="evenodd"
       stroke="none"
       id="path4" />
    <path
       d="M35.6 -75.75 L32.45 -76.1 Q30.2 -76.5 28.5 -78.25 L27.8 -79.0 Q25.45 -82.0 22.25 -84.2 18.2 -87.0 14.35 -90.3 L11.1 -92.65 10.8 -93.0 10.0 -93.8 11.6 -92.9 15.2 -90.6 21.3 -86.15 28.65 -81.3 29.3 -80.9 30.15 -80.25 31.0 -79.6 31.8 -78.9 32.15 -78.6 Q32.9 -77.95 34.1 -77.0 L34.5 -76.65 35.6 -75.75 M8.5 -89.6 L9.4 -88.5 Q11.9 -85.35 14.0 -83.65 16.15 -81.95 18.2 -80.55 L22.05 -77.65 22.05 -77.6 Q22.15 -77.2 22.4 -76.85 L19.75 -77.15 18.9 -77.3 14.4 -78.25 9.75 -78.95 9.1 -78.9 8.85 -79.25 8.8 -79.35 8.65 -79.5 8.7 -79.5 Q4.0 -84.85 -1.25 -86.0 -6.55 -87.2 -8.45 -86.6 L-10.7 -85.9 -11.25 -85.65 -12.8 -84.9 -13.1 -84.65 -13.55 -84.45 -13.65 -84.4 -14.05 -84.1 -14.1 -84.1 -14.95 -83.5 -14.95 -83.45 -15.3 -83.2 -15.4 -83.15 -16.75 -82.3 -15.4 -84.25 -15.15 -84.5 -15.1 -84.55 -14.4 -85.35 -14.35 -85.4 -14.1 -85.65 -13.95 -85.8 -13.65 -86.15 -13.6 -86.25 -13.2 -86.75 -12.6 -87.9 -12.1 -88.9 -12.45 -90.15 -13.05 -91.0 -13.5 -91.55 -14.1 -91.95 -14.15 -91.95 -14.4 -92.0 -14.6 -92.05 -14.75 -92.1 -14.8 -92.25 -14.8 -92.4 -14.6 -92.75 -14.4 -93.0 -14.15 -93.6 -13.8 -94.1 -13.75 -94.2 -13.5 -94.7 -13.1 -94.6 -8.75 -93.7 -2.45 -92.7 -0.9 -92.5 -0.75 -92.45 4.7 -92.1 4.8 -92.1 4.75 -92.05 5.4 -91.55 5.45 -91.55 6.25 -91.05 6.7 -90.7 6.75 -90.7 6.9 -90.55 7.15 -90.4 7.2 -90.3 7.25 -90.3 7.3 -90.3 8.2 -89.75 8.25 -89.7 8.5 -89.6 M-14.4 -81.8 L-14.15 -81.95 -13.8 -82.15 -13.5 -82.35 -12.8 -82.7 -12.55 -82.9 Q-10.45 -84.05 -8.1 -84.5 L-8.05 -84.3 -7.65 -83.5 -7.25 -82.7 -7.05 -82.4 -6.75 -82.45 -5.95 -82.4 -1.7 -81.95 0.95 -81.3 1.05 -81.3 2.0 -81.0 1.1 -81.35 1.05 -81.4 1.15 -81.4 1.25 -81.35 1.4 -81.3 2.0 -81.0 2.1 -80.9 2.05 -80.9 2.1 -80.9 1.7 -80.7 1.3 -80.85 0.8 -80.85 0.75 -80.85 0.45 -80.9 0.25 -80.9 0.2 -80.9 -2.2 -81.05 -8.1 -80.65 -12.35 -79.6 -13.05 -79.35 -13.65 -79.15 -13.9 -79.05 -18.85 -77.0 -19.75 -76.6 -20.8 -76.15 -21.25 -75.95 -21.9 -75.65 -22.9 -75.15 -23.0 -75.45 -21.75 -76.6 -21.0 -77.2 -20.5 -77.6 -19.6 -78.3 -18.05 -79.4 -17.9 -79.5 -17.05 -80.1 -16.7 -80.35 -14.4 -81.8 M3.1 -80.05 L2.95 -80.15 3.1 -80.05 M-44.75 -120.35 L-43.95 -120.15 -43.15 -120.0 -43.05 -120.0 -42.85 -119.95 -39.95 -118.85 -36.3 -117.55 Q-34.65 -117.1 -30.35 -115.15 -26.05 -113.2 -23.2 -112.0 -20.25 -110.75 -15.05 -108.0 L-9.45 -105.15 Q-9.05 -105.0 -9.95 -105.5 L-10.25 -105.65 -9.55 -105.3 Q-6.35 -103.15 -2.8 -101.1 L-2.5 -100.75 Q-1.85 -100.0 -1.5 -99.05 L-1.0 -97.65 -3.55 -97.65 -5.5 -97.55 -7.05 -97.55 -8.9 -99.3 Q-13.75 -103.85 -19.0 -107.7 -25.1 -112.15 -32.3 -115.0 L-40.85 -118.25 -42.3 -118.9 -42.55 -119.0 -43.7 -119.65 -44.75 -120.35 M-44.95 -120.95 L-44.6 -120.75 -45.0 -120.9 -45.0 -120.95 -44.95 -120.95 M-44.1 -120.5 L-44.7 -120.7 -44.2 -120.55 -44.1 -120.5 M-24.0 -65.7 L-23.9 -65.6 -22.6 -63.8 -22.1 -62.85 Q-21.5 -61.6 -21.25 -60.2 -20.65 -57.2 -21.15 -54.2 L-21.3 -52.7 -21.5 -52.65 -21.5 -52.6 -22.0 -52.45 -22.0 -52.5 -22.9 -52.3 -24.5 -51.8 -24.8 -51.75 -25.85 -51.55 -25.95 -51.55 Q-27.05 -49.8 -28.95 -48.9 -30.55 -48.15 -32.5 -48.25 L-33.0 -48.2 -33.15 -48.25 -33.35 -48.45 -33.55 -48.55 -33.9 -48.65 -34.05 -48.8 -34.2 -48.95 -34.25 -49.0 -34.35 -49.1 -34.4 -49.15 -34.7 -49.1 -34.95 -49.5 -35.05 -49.7 -35.1 -49.75 -35.1 -49.8 -35.15 -49.9 -35.2 -49.95 -35.55 -50.15 -35.6 -50.25 -35.75 -50.65 -35.9 -51.05 -36.1 -51.5 -36.15 -51.65 -36.25 -51.85 -36.3 -52.15 -36.3 -52.2 -36.4 -52.5 -36.5 -52.8 -36.5 -52.85 -36.65 -53.25 -36.65 -54.3 -36.65 -54.65 -36.6 -54.7 -36.4 -54.75 -36.25 -54.3 -36.35 -54.2 -36.35 -54.1 -36.35 -54.0 -36.35 -53.9 -36.2 -53.7 -36.15 -53.5 -36.15 -53.4 -36.1 -53.2 -36.1 -53.0 -35.95 -52.65 -35.9 -52.5 -35.9 -52.3 -35.85 -52.2 -35.65 -51.75 -35.05 -51.05 -34.75 -50.8 Q-34.15 -50.25 -33.5 -50.0 -31.45 -49.1 -28.9 -50.65 -25.85 -52.5 -26.25 -56.05 -26.45 -58.1 -27.65 -59.6 L-28.3 -60.3 -29.25 -61.1 Q-29.9 -61.55 -30.7 -61.6 -34.05 -61.85 -36.4 -59.65 L-35.9 -60.7 -34.6 -63.05 -34.4 -63.45 -33.7 -63.65 -33.25 -63.8 Q-30.6 -64.15 -28.4 -63.0 L-28.0 -63.25 -26.05 -64.0 -24.25 -64.8 Q-25.4 -66.35 -27.0 -67.4 L-26.15 -67.6 -25.55 -67.15 -25.5 -67.1 -24.9 -66.6 -24.75 -66.5 -24.0 -65.7 M-7.1 -84.7 L-7.05 -84.7 -7.1 -84.65 -7.1 -84.7 M-24.2 -63.65 L-24.6 -62.6 -25.1 -61.5 -25.6 -60.4 -25.6 -60.35 Q-25.05 -59.4 -24.85 -58.2 -24.6 -56.8 -24.7 -55.45 L-24.3 -55.15 -23.45 -54.55 -22.65 -54.1 -21.85 -53.7 -21.75 -53.65 Q-21.4 -55.65 -21.55 -57.65 -21.8 -60.7 -23.3 -63.35 L-23.9 -64.35 -24.2 -63.65 M-30.45 -57.3 L-30.2 -57.2 Q-29.35 -57.05 -28.95 -55.65 -28.5 -54.3 -29.3 -53.1 -30.0 -52.0 -31.4 -52.15 -32.9 -52.25 -33.35 -53.65 -33.75 -54.75 -33.5 -55.85 L-33.15 -56.25 -32.7 -56.8 -32.55 -56.95 -32.45 -57.0 -31.9 -57.2 -31.45 -57.2 -30.45 -57.3 M-39.75 -52.85 Q-39.3 -51.15 -38.25 -49.7 -36.95 -47.9 -35.0 -46.75 L-34.5 -46.5 -34.45 -46.45 -34.1 -46.75 -34.35 -46.45 -34.0 -46.3 -34.4 -45.95 -34.45 -45.95 -34.95 -45.55 -35.45 -45.15 Q-37.3 -43.75 -38.85 -43.05 -41.4 -41.8 -44.25 -42.1 L-45.75 -42.45 -45.5 -42.8 -44.45 -44.35 -44.3 -44.6 -42.35 -44.4 -39.5 -44.65 Q-38.0 -44.9 -36.7 -45.7 L-35.25 -46.35 -35.65 -46.6 Q-38.0 -48.0 -39.35 -50.35 L-40.15 -52.0 -39.75 -52.85 M-35.3 -50.65 L-35.35 -50.75 -35.35 -50.7 -35.3 -50.65 M-33.8 -49.45 L-33.85 -49.45 -33.75 -49.4 -33.8 -49.45 M-33.9 -46.25 L-33.3 -46.45 Q-34.2 -46.0 -33.95 -46.25 L-33.9 -46.25"
       fill="#55dee3"
       fill-rule="evenodd"
       stroke="none"
       id="path6" />
    <path
       d="M12.0 -91.0 L13.35 -88.3 14.25 -86.15 13.5 -86.7 9.75 -89.35 8.15 -90.45 7.7 -90.7 7.1 -91.1 7.05 -91.1 6.75 -91.3 6.65 -91.35 6.25 -91.6 6.1 -91.7 6.0 -91.8 5.7 -92.0 5.45 -92.1 5.2 -92.25 4.9 -92.4 4.75 -92.45 4.65 -92.45 4.6 -92.4 0.2 -92.85 -1.4 -93.0 -2.9 -93.2 -7.55 -94.05 -12.45 -95.1 -13.05 -95.25 -15.1 -95.75 Q-17.6 -96.35 -19.95 -97.25 L-15.05 -97.2 -9.95 -97.2 -6.65 -97.15 -5.05 -97.1 -2.4 -97.0 -0.5 -96.95 -1.15 -99.0 -1.95 -100.5 -2.15 -100.75 4.3 -97.15 9.05 -94.4 9.6 -93.9 9.95 -93.55 10.3 -93.2 12.0 -91.0 M5.3 -92.35 L5.25 -92.35 5.3 -92.35"
       fill="#ffbbbb"
       fill-rule="evenodd"
       stroke="none"
       id="path8" />
    <path
       d="M0.1 -68.65 L0.15 -68.75 0.8 -69.3 0.1 -68.65 M5.9 -72.6 L10.75 -73.95 Q13.05 -74.6 23.0 -69.45 L33.25 -60.35 Q38.6 -55.45 38.05 -55.25 39.5 -51.6 39.4 -48.9 28.6 -46.65 17.65 -46.5 10.5 -46.35 4.5 -50.05 -2.2 -54.2 -5.5 -60.6 -3.3 -64.6 0.3 -67.85 L1.55 -69.0 3.25 -70.4 3.25 -70.45 3.3 -70.45 3.4 -70.65 5.05 -72.0 5.9 -72.6"
       fill="#aeb7be"
       fill-rule="evenodd"
       stroke="none"
       id="path10" />
    <path
       d="M35.6 -75.75 L39.45 -72.45 40.3 -71.6 Q43.1 -68.75 44.6 -65.1 L45.6 -61.55 46.05 -58.05 Q46.15 -54.7 45.2 -51.35 44.55 -49.4 43.5 -47.7 L42.85 -47.0 42.5 -46.65 Q40.5 -44.85 38.2 -43.4 L36.5 -42.3 38.7 -46.0 Q39.2 -47.0 39.35 -48.2 L39.4 -48.9 Q39.5 -51.6 38.05 -55.25 38.6 -55.45 33.25 -60.35 L23.0 -69.45 Q13.05 -74.6 10.75 -73.95 L5.9 -72.6 Q3.2 -71.35 0.8 -69.3 L0.15 -68.75 0.1 -68.65 Q-1.9 -66.85 -3.65 -64.45 -5.25 -62.45 -6.5 -60.15 L-7.5 -61.85 Q-9.6 -65.65 -10.6 -69.9 L-10.8 -70.75 -10.75 -70.8 -10.75 -70.75 -10.05 -71.35 -8.8 -72.35 -7.35 -73.5 -7.1 -73.75 -5.6 -74.95 -3.85 -76.4 -3.45 -76.7 -1.45 -78.35 -1.3 -78.45 -0.55 -79.05 -0.7 -79.05 -0.65 -79.1 -1.55 -79.15 -1.85 -79.2 -5.65 -79.35 -7.95 -79.3 -8.1 -79.3 -8.6 -79.3 -8.7 -79.3 -9.35 -79.3 -10.3 -79.25 -10.6 -79.25 -10.65 -79.25 -10.9 -79.25 -11.35 -79.2 -11.75 -79.2 -12.35 -79.15 -12.35 -79.45 -12.35 -79.6 -8.1 -80.65 -2.2 -81.05 0.2 -80.9 0.25 -80.9 0.45 -80.9 0.75 -80.85 0.8 -80.85 1.3 -80.85 1.7 -80.7 2.1 -80.9 2.05 -80.9 2.1 -80.9 2.0 -81.0 1.4 -81.3 1.25 -81.35 1.15 -81.4 1.05 -81.4 0.95 -81.3 -1.7 -81.95 -5.95 -82.4 -6.75 -82.45 -7.05 -82.4 -7.25 -82.7 -7.65 -83.5 -8.05 -84.3 -8.1 -84.5 Q-10.45 -84.05 -12.55 -82.9 L-12.8 -82.7 -13.5 -82.35 -13.8 -82.15 -14.15 -81.95 -14.4 -81.8 -14.7 -82.65 -14.95 -83.45 -14.95 -83.5 -14.1 -84.1 -14.05 -84.1 -13.65 -84.4 -13.55 -84.45 -13.1 -84.65 -12.8 -84.9 -11.25 -85.65 -10.7 -85.9 -8.45 -86.6 Q-6.55 -87.2 -1.25 -86.0 4.0 -84.85 8.7 -79.5 L8.65 -79.5 8.8 -79.35 8.85 -79.25 9.1 -78.9 9.75 -78.95 14.4 -78.25 18.9 -77.3 19.75 -77.15 22.4 -76.85 Q22.15 -77.2 22.05 -77.6 L22.05 -77.65 18.2 -80.55 Q16.15 -81.95 14.0 -83.65 11.9 -85.35 9.4 -88.5 L8.5 -89.6 Q10.6 -88.4 12.75 -86.8 L14.85 -85.3 14.8 -85.55 13.55 -88.85 12.2 -91.3 11.1 -92.65 14.35 -90.3 Q18.2 -87.0 22.25 -84.2 25.45 -82.0 27.8 -79.0 L28.5 -78.25 Q30.2 -76.5 32.45 -76.1 L35.6 -75.75 M3.25 -70.45 L3.3 -70.45 3.25 -70.45 M-13.5 -94.7 L-13.75 -94.2 -13.8 -94.1 -15.95 -95.3 -13.5 -94.7 M-14.8 -92.4 L-14.8 -92.25 -14.75 -92.1 -14.6 -92.05 -14.4 -92.0 -14.15 -91.95 -13.05 -91.0 -12.45 -90.15 -12.1 -88.9 -12.6 -87.9 -13.2 -86.75 -13.6 -86.25 -13.65 -86.15 -13.95 -85.8 -14.1 -85.65 -14.35 -85.4 -14.4 -85.35 -15.1 -84.55 -15.45 -85.6 -16.6 -88.35 -17.8 -91.0 -19.1 -93.65 -19.95 -95.1 -19.8 -95.05 -19.4 -94.9 -19.2 -94.8 -18.6 -94.5 -18.5 -94.45 -18.0 -94.2 -17.85 -94.15 -17.5 -93.95 -17.35 -93.9 -17.1 -93.75 -16.65 -93.5 -16.45 -93.4 -16.35 -93.35 -15.65 -92.95 -14.8 -92.4 M1.05 -81.3 L1.1 -81.35 2.0 -81.0 1.05 -81.3 M3.1 -80.05 L2.95 -80.15 3.1 -80.05 M-11.6 -76.15 L-11.65 -76.35 -11.75 -76.7 -11.85 -77.55 -11.85 -77.65 -10.6 -77.8 -9.65 -77.9 -7.85 -78.05 -7.75 -78.05 -6.95 -78.1 -5.55 -78.2 -5.1 -78.2 -3.75 -78.2 -6.3 -75.65 -7.2 -74.85 -7.3 -74.8 -7.5 -74.6 -8.0 -74.2 -8.3 -73.95 -9.3 -73.15 -10.85 -71.95 -11.15 -74.4 -11.2 -74.85 -11.35 -74.75 -11.05 -75.0 -10.8 -75.2 -10.45 -75.5 -9.45 -76.4 -9.6 -76.4 -10.2 -76.3 -10.9 -76.2 -11.15 -76.2 -11.6 -76.15 M-13.1 -77.5 L-13.0 -76.95 -13.15 -77.5 -13.1 -77.5 M-13.0 -79.1 L-13.9 -79.05 -13.65 -79.15 -13.65 -79.1 -13.0 -79.1 M-7.1 -84.7 L-7.1 -84.65 -7.05 -84.7 -7.1 -84.7 M-23.5 -96.65 L-24.4 -97.0 -24.05 -96.85 -22.85 -96.4 -23.5 -96.65 M-28.3 -98.2 L-28.2 -98.05 -28.35 -98.2 -28.05 -98.15 -28.3 -98.2 M-20.05 -72.0 L-19.85 -72.1 -20.05 -71.85 -20.9 -71.0 -20.05 -72.0"
       fill="#4d5266"
       fill-rule="evenodd"
       stroke="none"
       id="path12"
       style="fill:#ffff00;fill-opacity:1" />
    <path
       d="M-9.45 -49.5 L-9.45 -49.55 -9.45 -49.65 -9.5 -49.9 -9.45 -49.9 -9.45 -49.65 -9.4 -49.5 -9.45 -49.5"
       fill="#ff0000"
       fill-rule="evenodd"
       stroke="none"
       id="path14" />
    <path
       d="M39.4 -48.9 L39.35 -48.2 Q39.2 -47.0 38.7 -46.0 L36.5 -42.3 34.9 -41.4 Q30.5 -39.1 25.6 -37.85 L25.4 -37.8 25.35 -37.8 24.0 -37.5 Q17.75 -36.15 11.35 -36.15 3.95 -36.2 -1.45 -41.1 -6.2 -45.4 -9.05 -50.85 L-9.1 -51.15 -9.15 -51.25 -9.25 -51.55 -9.25 -51.6 -9.15 -51.8 -7.45 -56.4 -7.0 -57.5 -6.05 -59.6 -5.5 -60.6 Q-2.2 -54.2 4.5 -50.05 10.5 -46.35 17.65 -46.5 28.6 -46.65 39.4 -48.9 M-45.0 -29.15 Q-39.3 -32.4 -34.2 -36.5 -29.1 -40.6 -25.35 -45.55 L-19.65 -52.75 -19.0 -53.5 -17.3 -55.45 -14.75 -58.45 -14.6 -58.7 -14.45 -58.85 -15.3 -55.65 -15.65 -54.2 -16.65 -50.0 -16.8 -49.05 Q-15.05 -48.9 -13.2 -49.7 -11.4 -50.55 -10.2 -51.3 L-10.1 -50.85 -9.45 -49.65 -9.45 -49.55 -9.6 -49.75 -9.65 -49.2 -9.6 -49.35 -9.55 -49.45 -9.45 -49.5 -9.4 -49.5 -9.3 -49.35 Q-8.75 -48.15 -10.95 -48.5 L-13.85 -47.5 -16.05 -46.6 -19.85 -44.5 -22.85 -42.4 -23.2 -42.15 -27.35 -39.35 -28.6 -38.35 Q-34.2 -34.15 -40.45 -31.1 L-43.65 -29.7 -45.0 -29.15"
       fill="#8194a3"
       fill-rule="evenodd"
       stroke="none"
       id="path16" />
    <path
       d="M-12.35 -79.15 L-11.75 -79.2 -12.15 -79.15 -11.95 -78.0 -11.85 -77.65 -11.95 -77.65 -12.0 -77.65 -12.1 -77.6 -12.15 -77.6 -12.2 -77.6 -12.45 -77.6 -12.55 -77.55 -12.6 -77.55 -12.85 -77.5 -13.1 -77.5 -13.15 -77.5 -13.25 -77.45 -13.4 -77.45 -13.7 -77.4 -15.0 -77.15 -17.3 -76.7 Q-18.2 -76.5 -18.85 -77.0 L-13.9 -79.05 -13.0 -79.1 -12.35 -79.15 M-10.75 -70.8 L-10.8 -70.75 -12.05 -69.75 -12.65 -69.3 Q-15.9 -66.75 -19.4 -64.55 L-22.1 -62.85 -22.6 -63.8 -21.7 -64.35 Q-17.85 -66.6 -14.25 -69.35 L-13.3 -70.05 -12.55 -70.6 -12.0 -71.0 -11.45 -71.45 -11.2 -71.65 -10.95 -71.85 -10.75 -70.8 M-33.6 -98.95 L-35.3 -100.8 -37.05 -102.3 -41.15 -105.4 Q-43.2 -107.1 -45.5 -108.25 L-52.75 -113.9 -59.35 -119.25 Q-62.45 -121.95 -66.45 -123.0 L-62.7 -123.3 -57.05 -123.05 Q-53.15 -121.1 -48.8 -119.5 -40.35 -116.4 -33.65 -110.35 -29.0 -106.2 -24.95 -101.4 -22.45 -98.45 -20.25 -95.25 L-20.65 -95.45 -21.05 -95.65 -21.95 -96.0 -20.8 -93.55 Q-19.55 -90.9 -18.55 -88.1 -17.6 -85.3 -17.1 -82.4 -16.9 -81.2 -17.05 -80.1 L-17.9 -79.5 -18.5 -83.05 Q-19.0 -85.9 -20.0 -88.6 -21.0 -91.35 -22.3 -94.0 L-23.6 -96.5 -25.6 -92.8 -25.6 -92.85 Q-29.05 -97.6 -30.95 -98.7 L-33.6 -98.95 M-20.8 -76.15 L-20.9 -74.75 Q-19.2 -75.55 -14.8 -75.9 L-14.2 -75.95 -13.3 -76.0 -13.05 -76.05 -12.75 -76.05 -12.55 -76.1 -12.55 -76.05 -12.5 -76.05 -12.2 -76.1 -12.15 -76.1 -12.1 -76.1 -12.05 -76.1 -11.75 -76.15 -11.65 -76.15 -11.6 -76.15 -11.15 -76.2 -11.05 -75.1 -11.05 -75.0 -11.35 -74.75 -11.8 -74.35 -11.85 -74.3 -12.2 -74.0 -12.85 -73.45 -13.0 -73.35 -14.0 -72.55 -17.85 -69.55 Q-21.4 -67.0 -24.0 -65.7 L-24.75 -66.5 -24.9 -66.6 -25.5 -67.1 -25.55 -67.15 -26.15 -67.6 -26.05 -67.6 -24.05 -68.45 -22.65 -69.35 -21.65 -70.25 -21.55 -70.3 -20.95 -70.95 -20.9 -71.0 -20.05 -71.85 -19.85 -72.1 -20.05 -72.0 -19.6 -72.55 -19.15 -73.1 -19.1 -73.2 -18.75 -73.65 Q-18.2 -74.5 -18.65 -74.2 L-19.3 -73.6 -21.05 -71.6 -21.85 -70.65 -22.0 -70.45 -23.65 -69.1 -24.25 -68.75 Q-25.4 -68.15 -26.75 -67.95 L-27.6 -67.75 Q-28.0 -67.6 -28.9 -67.75 L-30.8 -68.05 -32.35 -68.35 -34.55 -64.65 -35.3 -63.2 -35.5 -62.75 -37.3 -59.2 -37.9 -57.95 -38.55 -56.65 -38.7 -56.8 -39.0 -57.1 -39.9 -57.85 Q-42.35 -59.75 -45.3 -60.3 L-51.25 -61.05 -55.25 -61.1 -52.1 -64.3 Q-49.45 -67.15 -45.05 -69.3 -42.5 -70.65 -39.45 -71.65 L-35.1 -72.85 Q-32.4 -73.55 -27.65 -76.15 L-27.2 -76.45 Q-26.65 -76.75 -26.25 -77.15 -25.85 -77.6 -25.7 -78.15 L-25.65 -78.85 -25.75 -79.55 -25.8 -80.05 -25.9 -80.2 -26.1 -80.4 -26.2 -80.55 -26.3 -80.7 -26.4 -80.85 -26.5 -81.0 -26.65 -81.2 -26.65 -81.15 -27.15 -81.55 -27.3 -81.6 -27.6 -81.75 -27.85 -81.8 -28.6 -81.95 Q-25.5 -81.9 -24.95 -87.55 -24.4 -93.25 -24.2 -90.7 -22.85 -89.3 -21.7 -85.45 -20.55 -81.65 -20.5 -79.7 -20.5 -77.8 -20.75 -77.4 L-21.0 -77.2 -21.75 -76.6 -23.0 -75.45 -22.9 -75.15 -21.9 -75.65 -21.25 -75.95 -20.8 -76.15 M-7.95 -78.4 L-7.95 -78.5 -7.95 -78.45 -7.95 -78.4 M-23.5 -96.65 L-22.85 -96.4 -24.05 -96.85 -24.4 -97.0 -23.5 -96.65 M-28.3 -98.2 L-28.05 -98.15 -28.35 -98.2 -28.2 -98.05 -28.3 -98.2 M-34.4 -45.95 L-34.25 -45.9 Q-32.95 -45.6 -31.95 -45.0 -35.2 -41.5 -39.55 -38.9 -43.4 -36.6 -47.8 -36.05 L-51.05 -35.95 -49.8 -37.2 -47.7 -39.7 -45.75 -42.45 -44.25 -42.1 Q-41.4 -41.8 -38.85 -43.05 -37.3 -43.75 -35.45 -45.15 L-34.95 -45.55 -34.45 -45.95 -34.4 -45.95 M-53.6 -33.95 Q-46.4 -33.5 -39.0 -37.6 -34.3 -40.2 -30.95 -44.25 L-30.2 -43.8 -30.0 -44.05 -30.0 -44.0 -33.5 -40.35 Q-37.35 -36.65 -42.4 -34.85 -47.05 -33.2 -51.95 -32.7 L-55.55 -32.9 Q-55.1 -33.1 -54.6 -33.4 L-53.6 -33.95 M-40.15 -52.0 L-39.35 -50.35 Q-38.0 -48.0 -35.65 -46.6 L-35.25 -46.35 -36.7 -45.7 Q-38.0 -44.9 -39.5 -44.65 L-42.35 -44.4 -44.3 -44.6 Q-42.05 -48.25 -40.15 -52.0"
       fill="#2b3148"
       fill-rule="evenodd"
       stroke="none"
       id="path18" />
  </g>
</svg>
