<?xml version="1.0" encoding="UTF-8" standalone="no"?>
<svg
   xmlns:dc="http://purl.org/dc/elements/1.1/"
   xmlns:cc="http://creativecommons.org/ns#"
   xmlns:rdf="http://www.w3.org/1999/02/22-rdf-syntax-ns#"
   xmlns:svg="http://www.w3.org/2000/svg"
   xmlns="http://www.w3.org/2000/svg"
   xmlns:sodipodi="http://sodipodi.sourceforge.net/DTD/sodipodi-0.dtd"
   xmlns:inkscape="http://www.inkscape.org/namespaces/inkscape"
   height="147.5123"
   width="165.15804"
   version="1.1"
   id="svg22"
   sodipodi:docname="_Torso1_.svg"
   inkscape:version="1.0.2-2 (e86c870879, 2021-01-15)">
  <metadata
     id="metadata28">
    <rdf:RDF>
      <cc:Work
         rdf:about="">
        <dc:format>image/svg+xml</dc:format>
        <dc:type
           rdf:resource="http://purl.org/dc/dcmitype/StillImage" />
      </cc:Work>
    </rdf:RDF>
  </metadata>
  <defs
     id="defs26" />
  <sodipodi:namedview
     pagecolor="#ffffff"
     bordercolor="#666666"
     borderopacity="1"
     objecttolerance="10"
     gridtolerance="10"
     guidetolerance="10"
     inkscape:pageopacity="0"
     inkscape:pageshadow="2"
     inkscape:window-width="1920"
     inkscape:window-height="1017"
     id="namedview24"
     showgrid="false"
     inkscape:zoom="3.6093419"
     inkscape:cx="33.650107"
     inkscape:cy="57.35915"
     inkscape:window-x="-8"
     inkscape:window-y="-8"
     inkscape:window-maximized="1"
     inkscape:current-layer="svg22"
     inkscape:document-rotation="0" />
  <g
     transform="matrix(-0.88461623,2.1455638,-1.2551498,-0.51749842,45.426724,68.459094)"
     id="g20">
    <path
       d="m 3.35,-75.5 0.15,0.45 0.2,2.05 q 0.1,1.3 2,1.4 L 5.75,-72 q -1,-1.9 -2.4,-3.5 m 0,10.5 v -0.1 q 0,-1.4 -0.95,-3.15 L 0.35,-71.6 q 0.5,-0.65 1.9,-0.7 1.1,-0.05 1.25,-1.15 -0.8,-3.05 -2.6,-4.75 -3.5,-3.3 -11,-3.3 -5.75,0 -9.75,2.2 l -10.6,7.5 v -0.05 l -3.85,4.5 q -2.7,3.55 -3.75,7 0.65,-0.8 5.25,-2.95 l 0.35,0.05 -1.1,3.1 -0.35,2.85 -0.15,1.85 0.15,2.65 0.55,1.15 2.05,-2.5 1.5,5.75 0.5,0.75 0.8,0.75 0.15,0.1 1.9,-1.7 1.45,-1.8 0.75,-0.8 q -0.15,1.45 0.15,2.75 l 1.2,2.8 0.65,0.9 q 2.1,2.4 4.2,2.4 1.7,0 3.3,-7.75 l 0.7,-2.6 0.9,-2.75 5.05,3.7 q 0.65,0 1.3,-0.35 l 1.25,-0.9 -0.2,0.35 q -0.65,1.2 -2.05,1.2 -0.6,0 -2.05,-0.9 l -1.95,-1.3 -1.35,-1.1 -0.35,1.45 q -3.15,11.55 -5.6,16.8 -1.25,2.8 -1.25,4.95 0,2.2 1.65,4.15 1.5,1.75 2.85,1.75 0.6,0 0.65,-0.2 l 0.05,-0.25 q 2.8,-2.9 4.35,-7.05 1.1,-2.8 2.15,-8.05 l -0.15,3.15 q -0.3,1.4 -2.2,5.6 -2.05,4.6 -3.3,5.85 0.4,-0.3 0.55,0.35 l 0.7,2.4 1.45,2.1 2.2,2.95 q 0.8,0.95 1.4,4.05 0.7,3.45 1.25,4.5 l 0.45,0.55 q 0.15,0.2 0.7,0.2 1.05,0 6.8,7.85 1.35,-1.5 1.15,-2.8 L 2,-9.2 l -0.05,-1.55 0.15,-3.8 0.25,-3.35 4.4,3.3 3.2,3 3.6,3.7 q 2.5,-1.45 4.55,-3.45 l 1.45,-1.65 -0.95,1.4 -5.5,5.2 -3.7,2.9 0.6,0.7 4.45,3.1 q 2,1.3 3.7,1.3 L 18.6,1.55 V 1.6 q 0,1 0.85,2.1 l 0.8,4.45 0.35,3.5 -0.2,4.7 L 19.5,15.8 17.25,13.9 14.55,11.35 14.3,11 20.1,15.85 20.15,13.5 Q 20.15,8.4 18.5,1.8 16.55,1.95 13.15,-0.05 10.15,-1.8 8.9,-3.3 l 3.75,-3.8 0.05,0.1 0.1,-0.2 -0.05,-0.7 q 0,-0.7 -4.15,-4.3 l -5.95,-4.85 v 0.2 l -0.2,5.45 0.35,4.85 0.65,6 L 3.8,0.25 1.65,3.2 -1.3,6.75 h 0.05 Q 1.9,8.25 3.05,8.4 4,6.6 5.4,5.85 6.3,5.35 7,5.35 H 8.8 Q 9.85,5.45 9.85,6.1 L 10.05,6.35 8.8,6.05 7.45,5.7 q -1,0 -2.35,0.8 -1.6,1 -1.6,2.3 0,1.4 0.35,4 L 3.05,9.1 1.15,8.3 1.2,8.35 1.15,8.6 0.45,13.3 -0.6,18.05 q -0.3,0.95 -0.75,1.8 l -0.15,1.2 1.55,2.05 1.5,1.9 -0.6,2.05 0.2,-1.7 -1.6,-1.75 q -1.6,-1.7 -1.6,-2.2 l 0.25,-0.9 0.1,-0.4 -0.1,0.4 -0.6,0.7 1.5,-4.45 q 0.75,-2.4 1.1,-4.9 L 0.7,8.1 -1.75,6.8 -0.7,5.8 0.7,4 3.3,0.7 2.65,-2.4 l -1,1 -0.5,0.65 -0.05,0.05 -1.5,2.3 -3.5,6.6 -0.95,2.5 -1.75,4.1 -2.8,-0.95 q -2.4,-0.95 -2.8,-1.4 l 0.1,0.15 q 0.55,3.5 4.1,9.1 l 3.45,5.05 q 0,0.6 0.7,1.25 l 2.4,2.35 1,-1.15 0.25,-0.45 1.05,-1.5 -0.2,0.4 -1.65,3.1 2.4,2.05 1.7,-8.5 1.2,-7.05 -0.05,-1.4 0.5,3.65 q 0,4.5 -0.65,8.15 L 3.25,32.05 3,33.65 Q 2.65,34.7 1.65,34.7 l -8.35,-7.65 -5.6,-10.45 0.05,1.75 q 0.6,5.45 0.9,10.7 l -0.4,0.1 q -1.9,-0.65 -4.95,-3.25 -4.8,-4.2 -6.45,-9.75 -0.5,-1.75 -3.05,-4.1 -2.65,-2.5 -3.3,-4.15 -1.6,-4 -1.6,-4.7 0,-0.85 2.25,-1.55 0.7,-0.15 1.5,-0.85 1.35,-1.2 1.65,-3.1 l 0.8,-4.05 q -6,-6.25 -8.9,-12.4 -3.4,-7.1 -3.4,-15.55 0,-5.9 0.55,-6.95 l -2.65,-3.45 -1.55,-2.8 q -0.35,-1.45 -0.35,-6.85 0,-1.35 0.5,-3.1 l 1.4,-3.85 2.4,-4.75 1.95,-2.75 q 2.8,-3.55 7.4,-7.1 9.1,-7.15 18.3,-7.15 4.75,0 9.75,3.05 4.9,3 6.7,6.7 l 2.5,6.15 q 2.05,1.15 4.35,2.9 4.6,3.4 5.95,6.2 3.45,6.2 4.35,8.55 1.35,3.5 1.35,10.1 0,9.95 -2.05,18.65 L 27,-25.15 Q 28.45,-27 28.75,-27 l 0.65,0.25 q 0.5,0.3 0.5,0.8 l 0.95,1.65 q 0.95,2.1 0.95,6.35 0,1.9 -0.65,4.75 l -0.75,2.8 -0.7,0.85 -0.7,0.45 -1.75,1.1 -1.6,0.95 q -6.7,6.75 -7,8.5 L 18.6,1.4 18.4,1.15 20.85,-2.2 23.3,-5.7 q 3.95,-3.6 5.2,-5.3 2.05,-2.85 2.05,-6.2 -1,-5.65 -2.2,-7.7 l -4.15,6.3 q -2.6,3.9 -3.2,3.9 l -0.8,0.65 0.2,-0.95 q -1.8,2.15 -4.75,2.15 -2.25,0 -4.35,-1.65 -1.65,-1.35 -4.35,-4.8 l -1.25,-2.45 -0.5,-1.4 0.15,-0.15 1.35,0.9 q 5.35,2.65 7.6,2.65 3.6,0 6.15,-2.5 2.9,-2.9 2.95,-7.9 -1.1,2.55 -3.55,4.2 -2.1,1.35 -3.7,1.35 l -1.8,-0.3 1.25,0.05 q 3.5,0 5.7,-3 2.75,-3.75 2.75,-11.4 l -0.15,0.65 q -1.1,1.45 -1.8,3.5 l -1.1,2.75 -1.05,1.05 q -2.2,1.45 -7.55,1.45 l -3.35,-0.25 -4.25,-0.6 1.05,0.95 4,3.2 0.8,0.55 q -2.5,-1 -3.55,-2.2 l -0.35,-0.35 -1.15,-1.1 -1.65,-1.85 0.1,0.05 0.95,0.2 1.7,0.35 0.5,0.1 3.6,0.35 q 6.35,1.05 9.35,-2.3 0.55,-0.6 3.75,-7 0.45,-2.2 0.25,-3.05 l -1,-4.55 -0.75,-3.1 q -0.5,-1.5 -1.4,-2.6 l -1.25,-2.25 -1.15,-1.65 q -1.35,-2.55 -4.3,-4.95 l -5.7,-3.9 q 0.55,3.15 -0.75,6.5 -0.9,2.45 -3.15,5.65 -2.55,3.55 -5.95,6.6 -2.9,2.35 -2.95,2.35 l -0.3,0.2 -1.9,1.1 -1.7,1.3 0.6,-1.2 q -1.4,-0.65 -2.25,-2.05 -0.65,-1.1 -0.65,-1.85 l 0.25,-2.35 -0.05,0.7 0.95,3.35 q 0.8,1.95 2.15,1.95 1.35,0 5.1,-3.25 3.35,-2.9 5,-5.45 L 4.25,-54 q 0.5,0 2.05,-3.7 1.75,-4.15 1.75,-7.05 0,-3.75 -0.95,-5.3 -1.15,-1.9 -4.35,-1.9 l -2,0.4 0.2,0.2 3,5.05 0.3,1 q 0.1,0.2 -0.45,0.2 L 3.35,-65 m 0,0.3 0.15,0.4 q -0.3,1.2 -1.6,3.5 l -1.25,2.1 0.5,0.75 q -0.35,-0.4 -0.8,-0.4 -0.55,0 -0.65,0.3 l 0.1,-0.45 q 0,-0.4 -0.3,-0.55 L 0.2,-59 q 0.3,0 1.65,-2.15 1.3,-2.1 1.5,-3.55 m -8.2,4.95 -1.35,-0.1 q -0.15,0.4 0.1,1.75 l 0.75,3.8 -0.15,1.2 -1.5,-6.9 2.15,0.25 m 6.3,2.2 q 0.75,1.2 0.75,1.75 0,2.1 -2,3.3 -1.7,0.95 -2.8,0.6 2.45,0 3.6,-1.55 0.8,-1.05 0.8,-2.45 0,-0.9 -0.35,-1.6 l -0.1,-0.15 0.1,0.1 m 17.35,37.2 q -2.1,1 -4.45,1 l -1.85,-0.2 Q 9,-20.4 5.75,-22.3 q 2.4,4.55 4.95,6.95 2.45,2.25 4.8,2.25 2.05,0 3.7,-1.4 3.2,-2.75 3.4,-10 -1.1,2.8 -3.8,4.15 M -0.7,1.2 0.4,-0.05 q 0.5,-0.5 0.5,-1.1 0,-1.55 -5.2,-6.2 -5.3,-4.75 -7.6,-4.8 l -1.7,5.65 q -1.3,4.95 -1.3,8 0,2.75 0.8,4.95 l 1.05,2.4 -0.2,0.15 -0.15,-0.25 -0.35,-0.7 V 8.2 Q -14.8,5.95 -17.1,2.6 l -4.75,-6.25 v -0.05 0.05 l -0.1,-0.2 -0.8,-1 -0.6,-0.8 -0.7,4.2 -0.4,4.5 0.25,2.75 0.5,3.15 L -24,8.6 Q -24.7,7 -25.15,2.05 l -4.35,1.4 q 0.85,0.6 1.2,2.3 0.45,2.05 0.9,2.8 l 2.1,2.15 2.65,2.1 2.6,5.75 q 2.85,5.75 6.35,7.8 l 1.4,0.9 -1.25,-8.75 0.2,-4.15 1.4,-0.05 -0.85,-2.75 v -0.1 l 2.5,1.45 q 2.25,1.2 3.1,1.3 L -5.45,11.1 -0.7,1.25 V 1.2 m -32.9,-52.65 q -0.5,-1.05 -0.85,-4.3 l -1.25,1.35 0.75,-1.65 q 0.75,-2.05 1.75,-6.85 -1.2,0.4 -3.55,2.65 l -2.2,2.2 q -0.9,0 -0.55,2.05 l 0.75,3.65 h 0.05 l -0.2,0.15 -0.1,-0.05 v -0.05 l -0.7,-0.85 0.05,1.25 1.4,5.9 q 1.4,2.45 4,4.8 l 0.6,0.4 1.7,0.65 -1.35,-0.25 q 3.3,2 4.75,2.35 l 1.7,0.3 v 0.15 l -4.05,-0.8 -3.65,-2.1 -0.6,7.4 q 0,4.6 0.7,7.55 l 0.8,2.4 v 0.05 l 2.55,4.95 2.7,5 2.5,-4.75 1.75,-2.95 h 0.05 l 0.45,9.65 q 0.3,4.65 1.6,6.05 V -6.3 q 0.9,-5.45 1.4,-6.65 l 0.4,-0.7 q 0.2,0.6 1.1,9.55 0.6,5.8 4,8.8 -0.7,-5.5 0.85,-11.2 1.05,-3.9 2.5,-6.1 l 3.9,1.7 -0.6,-3.75 q -0.55,-2.6 -1.7,-3.9 l -2.25,-3.85 -2.1,-3.9 -0.35,0.9 q -0.1,0.3 -0.65,0.3 -1.35,0 -2.8,-1.65 l -4.65,-5.5 q -3.1,-3.15 -3.75,-5.35 l -0.7,-1.8 q -0.55,-1.6 -0.75,-3.3 0.45,-0.25 0.65,0.65 0.3,3.1 2.4,6.5 1.9,3.05 4.45,5.1 0.5,-4.3 3.05,-11.45 -2.95,0.2 -4.4,-1.95 -1.05,-0.95 -1.65,-2.3 l -0.65,-1.9 -0.4,-1.65 -0.05,-0.35 -0.05,-0.1 -2.7,3.65 -0.85,-0.3 -1.15,-0.6 -0.05,-0.05 -0.1,0.4 -0.5,1.1 -1.3,2.45 -0.4,1.55 h -0.15 l -0.05,-0.75 0.05,-0.65 q 0,-0.2 0.1,0 0.35,-1.1 1.3,-2.45 l 0.8,-1.4 q 0,-1 -0.15,-1.25 l -1.4,-5.1 -1.05,1.25 -1,1.25 -1.6,3.5 -0.75,2.25 q 0,1.85 0.95,2.95 l 1.1,0.9 0.4,0.2 -0.65,-0.05 -1.25,-1 q -0.95,-0.95 -0.95,-2.8 l 0.95,-2.85 1.65,-3.5 m 29.9,-0.55 -0.05,0.25 -0.15,-0.45 0.2,0.2 m -20.1,39.05 -0.6,-7.05 q -3.65,6 -3.15,7.65 0.2,0.65 1.3,1.7 l 2.25,2.45 0.2,-0.65 v -4.1 m 2.3,5.8 -0.1,1.1 q 0.05,2.45 2.65,5.05 v -0.5 l -1.6,-11.1 -0.95,5.45"
       fill="#000000"
       fill-rule="evenodd"
       stroke="none"
       id="path2" />
    <path
       d="m 3.35,-75.5 q 1.4,1.6 2.4,3.5 L 5.7,-71.6 Q 3.8,-71.7 3.7,-73 L 3.5,-75.05 3.35,-75.5 M -1.45,30.35 -3.85,28 q -0.7,-0.65 -0.7,-1.25 L -8,21.7 q -3.55,-5.6 -4.1,-9.1 l -0.1,-0.15 q 0.4,0.45 2.8,1.4 l 2.8,0.95 1.75,-4.1 1.5,5.55 q 1.3,6.1 1.9,14.1 M -0.4,1.6 l 1.5,-2.3 0.05,-0.05 0.5,-0.65 1,-1 L 3.3,0.7 0.7,4 -0.4,1.6 M -1.25,6.75 H -1.3 L 1.65,3.2 3.8,0.25 l -0.35,-0.8 -0.65,-6 -0.35,-4.85 0.2,-5.45 v -0.2 l 5.95,4.85 q 4.15,3.6 4.15,4.3 l 0.05,0.7 -0.1,0.2 -0.05,-0.1 q -3,-4.75 -8,-5.25 l 1.2,3.35 -0.2,0.85 q -0.1,0.85 0.5,0.85 0.6,0 1,1.85 l 0.8,4.1 0.1,0.45 -3.8,3.05 -5.5,4.6 M 10,-2.8 9.4,-3.5 l 3.7,-2.9 5.5,-5.2 q 3.8,0.35 4.55,0.85 l -5.3,3.9 Q 13,-3.6 10,-2.8 m -25.15,-23.2 -0.05,0.25 q -0.05,0.2 -0.65,0.2 -1.35,0 -2.85,-1.75 -1.65,-1.95 -1.65,-4.15 0,-2.15 1.25,-4.95 2.45,-5.25 5.6,-16.8 l 0.35,-1.45 1.35,1.1 -0.6,-0.45 -0.8,7.9 -1.25,9.3 -0.95,6.8 0.1,2.3 0.15,1.7 m 8.95,-33.85 q 5.05,2.55 5.05,6.1 0,0.6 -0.4,1.1 -0.55,0.65 -1.65,0.65 -0.65,0 -1.45,-0.95 -0.65,-0.85 -0.7,-1.35 l -0.75,-3.8 q -0.25,-1.35 -0.1,-1.75 m -7.2,68.6 0.15,0.25 0.2,-0.15 -1.05,-2.4 q -0.8,-2.2 -0.8,-4.95 0,-3.05 1.3,-8 l 1.7,-5.65 q 2.3,0.05 7.6,4.8 5.2,4.65 5.2,6.2 0,0.6 -0.5,1.1 L -0.7,1.2 q 0.35,-0.5 0.35,-1.5 0,-2.9 -4.25,-5.65 -3.2,-2.1 -5.45,-2.5 3.2,11.85 4.6,19.55 l -1.75,3.1 q -0.85,-0.1 -3.1,-1.3 l -2.5,-1.45 -0.6,-2.7 m -0.3,17.6 q -3.5,-2.05 -6.35,-7.8 l -2.6,-5.75 -2.65,-2.1 -2.1,-2.15 q -0.45,-0.75 -0.9,-2.8 -0.35,-1.7 -1.2,-2.3 l 4.35,-1.4 Q -24.7,7 -24,8.6 l 0.3,0.35 -0.5,-3.15 -0.25,-2.75 0.4,-4.5 0.7,-4.2 0.6,0.8 0.8,1 0.05,0.2 h 0.05 V -3.7 -3.65 L -17.1,2.6 -20.65,0.65 -22,0.45 q 2.1,12 4.7,19.75 l 1.65,3.3 1.95,2.85 m -19.9,-77.8 -1.65,3.5 -0.95,2.85 q 0,1.85 0.95,2.8 l 1.25,1 -0.25,0.1 q -2.6,-2.35 -4,-4.8 0.6,-1.3 2.4,-3.3 l 2.25,-2.15 m 0.25,10.2 -0.4,-0.2 -1.1,-0.9 q -0.95,-1.1 -0.95,-2.95 l 0.75,-2.25 1.6,-3.5 1,-1.25 q 0,1.25 -0.7,4.05 l -0.75,3.6 0.4,0.75 0.65,0.65 0.8,-0.1 -0.05,0.65 0.05,0.75 h 0.15 l 0.4,-1.55 q 0.55,0 0.95,-0.7 0.35,-0.75 0.35,-1.75 l 0.5,-1.1 0.15,-0.35 1.15,0.6 0.85,0.3 2.7,-3.65 0.05,0.1 0.05,0.35 0.4,1.65 0.65,1.9 q 0.6,1.35 1.65,2.3 1.45,2.15 4.4,1.95 -2.55,7.15 -3.05,11.45 -2.55,-2.05 -4.45,-5.1 -2.1,-3.4 -2.4,-6.5 -0.2,-0.9 -0.65,-0.65 0.2,1.7 0.75,3.3 l 0.7,1.8 h -0.1 v -0.15 l -1.7,-0.3 Q -30,-38.4 -33.3,-40.4 l 1.35,0.25 -1.7,-0.65 0.3,-0.45 m -6.3,-10.65 -0.05,-1.25 0.7,0.85 v 0.05 l 0.1,0.05 0.05,0.05 -0.8,0.25 m 5.9,10.45 0.8,-0.4 0.45,-0.7 -1.05,0.8 -0.2,0.3"
       fill="#989898"
       fill-rule="evenodd"
       stroke="none"
       id="path4" />
    <path
       d="m -8.1,-42.1 1.7,-1.3 -0.35,3.15 q 0,3.9 1.4,7.45 1.35,3.55 3.3,4.4 l -7,1.3 2,2.1 q 2.25,1.85 5.25,1.85 2.1,0 4.85,-1.7 l 3,-2.25 0.65,4.7 -1.35,-0.9 -0.15,0.15 0.5,1.4 1.25,2.45 -0.2,4.7 -4.4,-3.3 -0.25,3.35 -0.15,3.8 0.05,1.55 -7.35,-3.9 -0.7,1 -0.7,1.95 q -0.55,-1.05 -1.25,-4.5 -0.6,-3.1 -1.4,-4.05 l -2.2,-2.95 -1.45,-2.1 -0.7,-2.4 q -0.15,-0.65 -0.55,-0.35 1.25,-1.25 3.3,-5.85 1.9,-4.2 2.2,-5.6 l 0.7,-4.15 m 3.6,-2.4 0.3,-0.2 2.4,3.6 -0.15,0.55 -0.75,6.6 -0.35,-0.95 -0.35,-0.6 0.7,1.75 -0.15,1.1 q -1,-2.25 -1,-3.8 l 0.7,-4.15 0.25,-0.4 -2.35,0.2 v 0.15 l -0.05,-0.6 0.2,-1.25 0.6,-2 M -14.75,-50 q -1.6,7.75 -3.3,7.75 -2.1,0 -4.2,-2.4 l -0.65,-0.9 -1.2,-2.8 q -0.3,-1.3 -0.15,-2.75 l -0.75,0.8 -2.15,-3.25 -0.2,-0.35 2.4,-3.45 10.2,7.35 m -12,12.4 q 0.65,2.2 3.75,5.35 l 4.65,5.5 q 1.45,1.65 2.8,1.65 0.55,0 0.65,-0.3 l 0.35,-0.9 2.1,3.9 2.25,3.85 q 1.15,1.3 1.7,3.9 l 0.6,3.75 -3.9,-1.7 q -1.45,2.2 -2.5,6.1 -1.55,5.7 -0.85,11.2 -3.4,-3 -4,-8.8 -0.9,-8.95 -1.1,-9.55 l -0.4,0.7 q -0.5,1.2 -1.4,6.65 v 1.15 q -1.3,-1.4 -1.6,-6.05 l -0.45,-9.65 h -0.05 l -1.75,2.95 -2.5,4.75 -2.7,-5 -2.55,-4.95 v -0.05 q 0.6,-12 2.75,-15.25 l 4.05,0.8 h 0.1"
       fill="#aeb7be"
       fill-rule="evenodd"
       stroke="none"
       id="path6"
       style="fill:#ffff00;fill-opacity:1" />
    <path
       d="m -6.4,-43.4 1.9,-1.1 -0.6,2 -0.2,1.25 0.05,0.6 v -0.15 l 2.35,-0.2 -0.25,0.4 -0.7,4.15 q 0,1.55 1,3.8 l 0.5,0.5 1.25,-2.8 4.9,-0.9 1.6,3.65 -0.4,0.95 -0.95,-0.2 -0.1,-0.05 -4.55,2.15 0.65,0.4 0.65,0.4 3.5,-0.15 1.4,-0.95 1.15,1.1 -0.15,0.9 -0.55,0.55 -3,2.25 q -2.75,1.7 -4.85,1.7 -3,0 -5.25,-1.85 l -2,-2.1 7,-1.3 q -1.95,-0.85 -3.3,-4.4 -1.4,-3.55 -1.4,-7.45 L -6.4,-43.4 M 21,-53.05 q 0.9,1.1 1.4,2.6 l 0.75,3.1 q -1.65,0.3 -7.3,2.6 Q 9,-41.9 9,-40.35 l -0.15,0.6 -0.2,-0.15 -0.5,0.45 q -0.3,0.25 -0.3,0.85 v 0.05 l 9.35,0.75 q 1.25,0 2.85,-1.95 h 0.05 l 4.05,-3.05 q 0.2,0.85 -0.25,3.05 -7.05,3.95 -8.65,4.05 -3.6,-0.55 -10.5,-0.2 -0.85,-1.5 -1.55,-1.7 2.5,0.2 3.65,-0.9 0.6,-0.6 0.8,-1.55 1.5,-2.7 5.3,-6.6 4.4,-4.6 8.05,-6.4 M 7.2,-30.8 6.7,-30.9 6.2,-32.55 10.05,-34.4 q -1.1,2.5 -2.85,3.6 m -37,-17.6 -1.5,-5.75 -2.05,2.5 -0.55,-1.15 -0.15,-2.65 0.15,-1.85 0.35,-2.85 1.1,-3.1 -0.35,-0.05 q -4.6,2.15 -5.25,2.95 1.05,-3.45 3.75,-7 l 3.85,-4.5 v 0.05 l -0.2,2.4 q 0,4.1 0.7,8 0.85,4.9 2.6,7.5 l 0.2,0.35 -2.65,5.15 m 28.7,5.5 3.45,5.35 -4.35,0.4 0.2,-2.05 0.45,-2.8 0.25,-0.9"
       fill="#3c4157"
       fill-rule="evenodd"
       stroke="none"
       id="path8" />
    <path
       d="m 6.7,-30.9 -1.7,-0.35 0.4,-0.95 0.8,-0.35 0.5,1.65 m -2.75,-0.6 1.65,1.85 -1.4,0.95 -3.5,0.15 -0.65,-0.4 -0.65,-0.4 4.55,-2.15 M -25,-50.3 l -1.45,1.8 -1.9,1.7 -0.15,-0.1 -0.8,-0.75 -0.5,-0.75 2.65,-5.15 2.15,3.25 M 2.35,-37.55 2.9,-37.6 h 0.3 q 0.7,0.2 1.55,1.7 l -0.95,0.05 -4.9,0.9 -1.25,2.8 -0.5,-0.5 0.15,-1.1 v -0.2 l 0.75,-6.6 0.55,-1.5 0.05,0.05 -0.45,2.8 -0.2,2.05 4.35,-0.4 m -36,14.4 -0.8,-2.4 q -0.7,-2.95 -0.7,-7.55 l 0.6,-7.4 3.65,2.1 q -2.15,3.25 -2.75,15.25"
       fill="#4d5266"
       fill-rule="evenodd"
       stroke="none"
       id="path10"
       style="fill:#feff00;fill-opacity:1" />
    <path
       d="m 10.65,-26 -0.8,-0.55 -4,-3.2 -1.05,-0.95 4.25,0.6 3.35,0.25 q 5.35,0 7.55,-1.45 l 1.05,-1.05 1.1,-2.75 q 0.7,-2.05 1.8,-3.5 l 0.15,-0.65 q 0,7.65 -2.75,11.4 -2.2,3 -5.7,3 L 14.35,-24.9 12.4,-25.45 10.65,-26 m 8.15,5.65 q 2.7,-1.35 3.8,-4.15 -0.2,7.25 -3.4,10 -1.65,1.4 -3.7,1.4 -2.35,0 -4.8,-2.25 -2.55,-2.4 -4.95,-6.95 3.25,1.9 6.75,2.75 l 1.85,0.2 q 2.35,0 4.45,-1 m -42.6,7.4 v 4.1 l -0.2,0.65 -2.25,-2.45 q -1.1,-1.05 -1.3,-1.7 -0.5,-1.65 3.15,-7.65 l 0.6,7.05 m 2.3,5.8 0.95,-5.45 1.6,11.1 V -1 q -2.6,-2.6 -2.65,-5.05 l 0.1,-1.1"
       fill="#55dee3"
       fill-rule="evenodd"
       stroke="none"
       id="path12" />
    <path
       d="m -30.45,-71.8 10.6,-7.5 q 4,-2.2 9.75,-2.2 7.5,0 11,3.3 1.8,1.7 2.6,4.75 -0.15,1.1 -1.25,1.15 -1.4,0.05 -1.9,0.7 l 2.05,3.35 q 0.95,1.75 0.95,3.15 v 0.1 l -0.05,0.25 0.05,0.05 q -0.2,1.45 -1.5,3.55 Q 0.5,-59 0.2,-59 l -0.7,-0.05 -2.65,-0.45 -1.7,-0.25 L -7,-60 l 1.5,6.9 v 0.1 l -0.05,0.1 -1.25,0.9 q -0.65,0.35 -1.3,0.35 l -5.05,-3.7 -0.9,2.75 -0.7,2.6 -10.2,-7.35 -2.4,3.45 q -1.75,-2.6 -2.6,-7.5 -0.7,-3.9 -0.7,-8 l 0.2,-2.4 m 26.25,27.1 q 0.05,0 2.95,-2.35 3.4,-3.05 5.95,-6.6 l 0.05,1.85 q 1.4,-0.8 7,-2.75 l 6.85,-2.4 1.15,1.65 q -2.6,3.25 -4.45,3.05 -3.35,-0.35 -8.15,2.05 L 7,-50.1 10.05,-46.55 8.6,-44 8.4,-43.9 q 0,-1 -0.15,-0.45 -0.25,0 -1.1,-2.5 -0.85,-2.5 -1.9,-2.5 -3.5,0 -4.4,1.6 -0.8,2.65 -1.95,4.85 l -0.25,0.9 -0.05,-0.05 -0.55,1.5 0.15,-0.55 -2.4,-3.6 m 11.3,16.5 q 1.05,1.2 3.55,2.2 l 1.75,0.55 1.95,0.55 1.8,0.3 q 1.6,0 3.7,-1.35 2.45,-1.65 3.55,-4.2 -0.05,5 -2.95,7.9 -2.55,2.5 -6.15,2.5 -2.25,0 -7.6,-2.65 l -0.65,-4.7 0.55,-0.55 0.5,-0.55 m -0.15,8.9 q 2.7,3.45 4.35,4.8 2.1,1.65 4.35,1.65 2.95,0 4.75,-2.15 l -0.2,0.95 -0.3,0.45 -0.35,0.6 -1.45,1.65 q -2.05,2 -4.55,3.45 l -3.6,-3.7 -3.2,-3 0.2,-4.7 M 2,-9.2 2.35,-4.35 q 0.2,1.3 -1.15,2.8 -5.75,-7.85 -6.8,-7.85 -0.55,0 -0.7,-0.2 l -0.45,-0.55 0.7,-1.95 0.7,-1 7.35,3.9 m 0.55,-37.65 q 0.3,0 1.25,0.6 l 1.9,1.55 -1.7,2.35 0.3,0.05 3.7,-0.85 0.1,-0.05 q -0.85,1.4 -2.6,2.75 -1.4,1.05 -1.7,1.05 -1.5,0 -2.05,-0.9 Q 1.3,-41 1.3,-42.6 l 0.05,-4 1.2,-0.25 m -5.25,12.9 v 0.2 l -0.7,-1.75 0.35,0.6 0.35,0.95"
       fill="#8194a3"
       fill-rule="evenodd"
       stroke="none"
       id="path14" />
    <path
       d="m 4.7,-53.65 q 2.25,-3.2 3.15,-5.65 1.3,-3.35 0.75,-6.5 l 5.7,3.9 q 2.95,2.4 4.3,4.95 l -6.85,2.4 q -5.6,1.95 -7,2.75 L 4.7,-53.65 m 15.05,-1.65 1.25,2.25 q -3.65,1.8 -8.05,6.4 -3.8,3.9 -5.3,6.6 -0.2,0.95 -0.8,1.55 -1.15,1.1 -3.65,0.9 H 2.9 l -0.55,0.05 -3.45,-5.35 q 1.15,-2.2 1.95,-4.85 0.9,-1.6 4.4,-1.6 1.05,0 1.9,2.5 0.85,2.5 1.1,2.5 0.15,-0.55 0.15,0.45 L 8.6,-44 10.05,-46.55 7,-50.1 7.15,-50.2 q 4.8,-2.4 8.15,-2.05 1.85,0.2 4.45,-3.05 m 3.4,7.95 1,4.55 -4.05,3.05 h -0.05 q -1.6,1.95 -2.85,1.95 l -9.35,-0.75 v -0.05 q 0,-0.6 0.3,-0.85 l 0.5,-0.45 0.2,0.15 0.15,-0.6 q 0,-1.55 6.85,-4.4 5.65,-2.3 7.3,-2.6 m 0.75,7.6 q -3.2,6.4 -3.75,7 -3,3.35 -9.35,2.3 L 7.2,-30.8 q 1.75,-1.1 2.85,-3.6 l -3.85,1.85 -0.8,0.35 -1.6,-3.65 0.95,-0.05 q 6.9,-0.35 10.5,0.2 1.6,-0.1 8.65,-4.05 m -17.15,11.2 0.35,0.35 -0.5,0.55 0.15,-0.9 m -4.2,-18.3 -1.2,0.25 -0.05,4 q 0,1.6 0.45,2.3 0.55,0.9 2.05,0.9 0.3,0 1.7,-1.05 1.75,-1.35 2.6,-2.75 L 8,-43.15 4.3,-42.3 4,-42.35 5.7,-44.7 3.8,-46.25 q -0.95,-0.6 -1.25,-0.6"
       fill="#2b3148"
       fill-rule="evenodd"
       stroke="none"
       id="path16" />
    <path
       d="m 3.35,-65 0.45,-0.1 q 0.55,0 0.45,-0.2 l -0.3,-1 -3,-5.05 -0.2,-0.2 2,-0.4 q 3.2,0 4.35,1.9 0.95,1.55 0.95,5.3 0,2.9 -1.75,7.05 Q 4.75,-54 4.25,-54 L 3,-52.25 q -1.65,2.55 -5,5.45 -3.75,3.25 -5.1,3.25 -1.35,0 -2.15,-1.95 l -0.95,-3.35 0.05,-0.7 -0.25,2.35 q 0,0.75 0.65,1.85 0.85,1.4 2.25,2.05 l -0.6,1.2 -0.7,4.15 0.15,-3.15 q -1.05,5.25 -2.15,8.05 -1.55,4.15 -4.35,7.05 l -0.15,-1.7 -0.1,-2.3 0.95,-6.8 1.25,-9.3 0.8,-7.9 0.6,0.45 1.95,1.3 q 1.45,0.9 2.05,0.9 1.4,0 2.05,-1.2 l 0.2,-0.35 0.05,-0.1 v -0.1 l 0.15,-1.2 q 0.05,0.5 0.7,1.35 0.8,0.95 1.45,0.95 1.1,0 1.65,-0.65 0.4,-0.5 0.4,-1.1 0,-3.55 -5.05,-6.1 l 1.35,0.1 1.7,0.25 2.65,0.45 q 0.3,0.15 0.3,0.55 l -0.1,0.45 q 0.1,-0.3 0.65,-0.3 0.45,0 0.8,0.4 l -0.5,-0.75 1.25,-2.1 q 1.3,-2.3 1.6,-3.5 L 3.35,-64.7 3.3,-64.75 3.35,-65 M 20.2,-14.05 21,-14.7 q 0.6,0 3.2,-3.9 l 4.15,-6.3 q 1.2,2.05 2.2,7.7 0,3.35 -2.05,6.2 -1.25,1.7 -5.2,5.3 l -2.45,3.5 -2.45,3.35 0.2,0.25 0.05,0.05 -0.05,0.1 -0.45,0.05 q -1.7,0 -3.7,-1.3 L 10,-2.8 q 3,-0.8 7.85,-4.05 l 5.3,-3.9 q -0.75,-0.5 -4.55,-0.85 l 0.95,-1.4 0.35,-0.6 0.3,-0.45 M 4.25,15.85 4.3,17.25 3.1,24.3 1.4,32.8 -1,30.75 l 1.65,-3.1 0.2,-0.4 -1.05,1.5 -0.25,0.45 -1,1.15 q -0.6,-8 -1.9,-14.1 L -4.85,10.7 -3.9,8.2 -0.4,1.6 0.7,4 -0.7,5.8 -1.75,6.8 0.7,8.1 0.2,11.85 q -0.35,2.5 -1.1,4.9 l -1.5,4.45 0.6,-0.7 0.1,-0.4 -0.1,0.4 -0.25,0.9 q 0,0.5 1.6,2.2 l 1.6,1.75 -0.2,1.7 0.6,-2.05 -1.5,-1.9 -1.55,-2.05 0.15,-1.2 Q -0.9,19 -0.6,18.05 L 0.45,13.3 1.15,8.6 1.2,8.35 1.15,8.3 l 1.9,0.8 0.8,3.7 0.3,2.25 0.1,0.8 M 10.05,6.35 9.85,6.1 Q 9.85,5.45 8.8,5.35 H 7 Q 6.3,5.35 5.4,5.85 4,6.6 3.05,8.4 1.9,8.25 -1.25,6.75 l 5.5,-4.6 3.8,-3.05 -0.1,-0.45 -0.8,-4.1 q -0.4,-1.85 -1,-1.85 -0.6,0 -0.5,-0.85 L 5.85,-9 4.65,-12.35 q 5,0.5 8,5.25 L 8.9,-3.3 q 1.25,1.5 4.25,3.25 3.4,2 5.35,1.85 1.65,6.6 1.65,11.7 L 20.1,15.85 14.3,11 10.6,7 10.5,6.9 10.3,6.65 10.25,6.55 v -0.2 h -0.1 -0.1 m -8.6,-63.9 -0.1,-0.1 0.1,0.15 q 0.35,0.7 0.35,1.6 0,1.4 -0.8,2.45 -1.15,1.55 -3.6,1.55 1.1,0.35 2.8,-0.6 2,-1.2 2,-3.3 0,-0.55 -0.75,-1.75 M -0.7,1.2 v 0.05 l -4.75,9.85 q -1.4,-7.7 -4.6,-19.55 2.25,0.4 5.45,2.5 4.25,2.75 4.25,5.65 0,1 -0.35,1.5 m -12.1,10.25 v 0.1 l 0.85,2.75 -1.4,0.05 -0.2,4.15 1.25,8.75 -1.4,-0.9 -1.95,-2.85 -1.65,-3.3 Q -19.9,12.45 -22,0.45 l 1.35,0.2 3.55,1.95 q 2.3,3.35 3.35,5.6 V 8.05 l 0.35,0.7 0.6,2.7 m -9.15,-15.3 0.1,0.2 h -0.05 l -0.05,-0.2 m -16.95,-48.35 0.2,-0.15 h -0.05 L -39.5,-56 q -0.35,-2.05 0.55,-2.05 l 2.2,-2.2 q 2.35,-2.25 3.55,-2.65 -1,4.8 -1.75,6.85 l -0.75,1.65 1.25,-1.35 q 0.35,3.25 0.85,4.3 l -2.25,2.15 q -1.8,2 -2.4,3.3 l -1.4,-5.9 0.8,-0.25 -0.05,-0.05 m 4.9,10.9 0.65,0.05 -0.3,0.45 -0.6,-0.4 0.25,-0.1 m 1.55,-11 1.05,-1.25 1.4,5.1 q 0.15,0.25 0.15,1.25 l -0.8,1.4 q -0.95,1.35 -1.3,2.45 -0.1,-0.2 -0.1,0 l -0.8,0.1 -0.65,-0.65 -0.4,-0.75 0.75,-3.6 q 0.7,-2.8 0.7,-4.05 m 0.95,8.8 1.3,-2.45 q 0,1 -0.35,1.75 -0.4,0.7 -0.95,0.7 m 1.8,-3.55 0.1,-0.4 0.05,0.05 -0.15,0.35 m 26,-4.95 -0.2,-0.2 0.15,0.45 0.05,-0.25 m -30.05,10.55 0.2,-0.3 1.05,-0.8 -0.45,0.7 -0.8,0.4"
       fill="#6d6d6d"
       fill-rule="evenodd"
       stroke="none"
       id="path18" />
  </g>
</svg>
