<?xml version="1.0" encoding="UTF-8" standalone="no"?>
<svg
   xmlns:dc="http://purl.org/dc/elements/1.1/"
   xmlns:cc="http://creativecommons.org/ns#"
   xmlns:rdf="http://www.w3.org/1999/02/22-rdf-syntax-ns#"
   xmlns:svg="http://www.w3.org/2000/svg"
   xmlns="http://www.w3.org/2000/svg"
   xmlns:sodipodi="http://sodipodi.sourceforge.net/DTD/sodipodi-0.dtd"
   xmlns:inkscape="http://www.inkscape.org/namespaces/inkscape"
   height="55.25px"
   width="154.75px"
   version="1.1"
   id="svg18"
   sodipodi:docname="168.svg"
   inkscape:version="1.0.2-2 (e86c870879, 2021-01-15)">
  <metadata
     id="metadata24">
    <rdf:RDF>
      <cc:Work
         rdf:about="">
        <dc:format>image/svg+xml</dc:format>
        <dc:type
           rdf:resource="http://purl.org/dc/dcmitype/StillImage" />
      </cc:Work>
    </rdf:RDF>
  </metadata>
  <defs
     id="defs22" />
  <sodipodi:namedview
     pagecolor="#ffffff"
     bordercolor="#666666"
     borderopacity="1"
     objecttolerance="10"
     gridtolerance="10"
     guidetolerance="10"
     inkscape:pageopacity="0"
     inkscape:pageshadow="2"
     inkscape:window-width="1920"
     inkscape:window-height="1017"
     id="namedview20"
     showgrid="false"
     inkscape:zoom="6.733441"
     inkscape:cx="77.375"
     inkscape:cy="27.625"
     inkscape:window-x="-8"
     inkscape:window-y="-8"
     inkscape:window-maximized="1"
     inkscape:current-layer="g16" />
  <g
     transform="matrix(1.0, 0.0, 0.0, 1.0, 12.05, 40.95)"
     id="g16">
    <path
       d="M61.9 -15.0 Q63.7 -16.65 65.7 -19.6 L68.7 -24.3 Q68.2 -24.35 68.3 -24.5 60.7 -20.9 54.6 -18.4 42.95 -13.6 38.5 -13.6 L37.15 -13.75 Q36.1 -14.15 36.1 -15.5 L37.15 -18.0 Q37.15 -19.0 36.7 -19.5 L34.1 -19.5 Q32.2 -18.45 29.95 -15.85 28.5 -14.2 26.3 -14.2 25.9 -14.2 23.9 -15.6 L21.9 -17.05 20.05 -16.65 17.95 -16.45 Q16.25 -16.8 14.0 -17.7 L11.45 -18.4 14.25 -14.4 15.05 -11.55 Q15.35 -10.2 16.7 -9.45 L15.1 -9.85 Q14.55 -6.8 13.6 -5.0 13.05 -4.05 12.3 -3.25 14.3 -4.3 16.45 -5.0 18.2 -5.55 25.7 -5.0 L31.4 -3.95 35.05 -3.2 35.85 -3.05 38.7 -2.5 39.25 -2.35 39.3 -2.35 41.7 -2.35 Q49.4 -2.95 50.3 -0.1 51.7 4.15 56.65 8.1 61.2 11.7 64.8 12.25 L66.35 12.35 64.15 5.7 62.35 -0.4 Q62.35 -2.5 73.9 -10.25 79.7 -14.15 85.65 -17.75 88.8 -19.8 101.9 -24.9 111.6 -28.05 115.95 -28.9 L125.15 -30.35 131.55 -34.65 Q138.45 -37.95 139.5 -38.9 140.1 -39.4 139.85 -39.75 L136.25 -39.8 Q127.1 -39.8 117.2 -37.7 99.4 -33.95 68.5 -22.65 L61.2 -13.55 Q55.35 -7.55 52.1 -6.35 L51.35 -6.1 55.6 -9.35 Q60.1 -13.0 61.95 -15.0 L61.9 -15.0 M17.45 -17.2 L19.3 -17.85 Q20.7 -18.5 22.3 -18.5 L23.9 -16.9 Q25.6 -15.3 26.2 -15.3 27.2 -15.3 28.85 -16.2 29.7 -16.65 30.75 -17.35 L34.45 -20.55 36.3 -19.85 38.85 -18.2 37.6 -16.05 38.05 -15.1 38.8 -15.0 39.95 -14.9 Q42.05 -14.9 48.65 -17.8 L69.65 -27.2 Q71.2 -26.5 71.3 -25.7 85.85 -30.9 98.65 -34.75 109.7 -38.05 114.35 -38.85 L123.75 -40.25 132.55 -40.95 142.7 -40.8 141.25 -38.4 139.6 -37.8 Q136.55 -36.25 131.9 -33.1 127.15 -29.95 125.55 -29.1 L117.05 -27.3 Q107.25 -25.25 98.55 -22.25 92.7 -20.25 80.35 -12.65 66.95 -4.35 63.65 0.25 64.6 4.7 65.9 9.1 L66.95 11.55 67.4 13.25 67.15 14.1 66.75 14.3 61.95 13.05 57.45 11.6 54.85 9.55 52.6 7.6 50.4 4.55 48.55 1.85 Q47.55 0.45 47.55 -0.1 47.55 -0.7 45.35 -0.85 L41.7 -1.1 24.6 -3.95 18.8 -4.85 Q15.75 -4.5 13.3 -3.15 11.8 -2.3 10.25 -1.6 9.05 -0.9 8.25 -0.65 L6.25 0.0 3.5 0.45 1.1 0.55 Q-5.75 0.6 -10.2 -4.2 L-10.85 -5.0 Q-11.4 -6.1 -12.05 -9.4 -12.05 -14.65 -7.9 -18.25 -3.8 -21.8 1.9 -21.8 L8.0 -21.2 9.95 -20.35 Q16.35 -17.2 17.45 -17.2 M7.95 -1.25 Q9.5 -1.6 10.75 -2.45 12.0 -3.35 12.9 -4.75 L13.1 -5.0 14.0 -7.25 Q14.4 -8.6 14.4 -9.4 L14.6 -10.35 14.0 -10.6 Q13.05 -13.3 11.4 -15.95 8.1 -21.35 4.15 -21.35 -1.85 -21.35 -6.0 -19.0 -11.35 -16.0 -11.35 -9.85 L-10.9 -7.75 -10.05 -5.0 Q-7.65 -0.7 -1.45 -0.35 3.25 -0.05 7.9 -1.2 L7.95 -1.25 M50.7 -5.7 L50.6 -5.0 50.55 -4.4 49.75 -4.55 46.0 -6.0 47.75 -7.2 Q49.25 -8.6 48.95 -9.95 48.8 -10.35 47.6 -10.35 L45.4 -9.45 41.7 -7.75 Q41.05 -7.4 38.15 -6.85 L34.2 -6.25 30.05 -6.5 25.7 -6.9 25.55 -6.9 25.45 -6.95 21.9 -8.0 19.75 -8.65 21.0 -8.5 Q25.05 -7.35 27.45 -7.0 L32.05 -6.75 Q38.95 -6.75 43.15 -8.95 L47.5 -11.2 Q48.55 -11.2 49.15 -10.65 49.55 -10.25 49.55 -9.7 L49.1 -8.6 Q48.35 -7.45 46.7 -6.35 L49.85 -5.25 50.7 -5.7 M30.7 -1.95 L30.6 -1.95 30.75 -1.95 30.7 -1.95"
       fill="#000000"
       fill-rule="evenodd"
       stroke="none"
       id="path2" />
    <path
       d="M14.25 -14.4 L11.45 -18.4 14.0 -17.7 Q16.25 -16.8 17.95 -16.45 L20.05 -16.65 21.9 -17.05 23.9 -15.6 Q25.9 -14.2 26.3 -14.2 28.5 -14.2 29.95 -15.85 32.2 -18.45 34.1 -19.5 L36.7 -19.5 Q37.15 -19.0 37.15 -18.0 L36.1 -15.5 Q36.1 -14.15 37.15 -13.75 L38.5 -13.6 Q42.95 -13.6 54.6 -18.4 60.7 -20.9 68.3 -24.5 68.2 -24.35 68.7 -24.3 L65.7 -19.6 Q63.7 -16.65 61.9 -15.0 46.3 -11.7 37.95 -10.35 L31.65 -9.85 Q25.4 -9.85 20.2 -11.5 16.25 -12.75 14.25 -14.4"
       fill="#989898"
       fill-rule="evenodd"
       stroke="none"
       id="path4" />
    <path
       d="M7.95 -1.25 L7.9 -1.2 Q3.25 -0.05 -1.45 -0.35 -7.65 -0.7 -10.05 -5.0 L-10.9 -7.75 -11.35 -9.85 Q-11.35 -16.0 -6.0 -19.0 -1.85 -21.35 4.15 -21.35 8.1 -21.35 11.4 -15.95 13.05 -13.3 14.0 -10.6 L14.6 -10.35 14.4 -9.4 Q14.4 -8.6 14.0 -7.25 L13.1 -5.0 12.9 -4.75 Q12.0 -3.35 10.75 -2.45 9.5 -1.6 7.95 -1.25"
       fill="#292a2f"
       fill-rule="evenodd"
       stroke="none"
       id="path6" />
    <path
       d="M61.2 -13.55 L68.5 -22.65 Q99.4 -33.95 117.2 -37.7 127.1 -39.8 136.25 -39.8 L139.85 -39.75 Q140.1 -39.4 139.5 -38.9 138.45 -37.95 131.55 -34.65 L125.15 -30.35 115.95 -28.9 Q111.6 -28.05 101.9 -24.9 82.35 -21.65 72.3 -18.1 64.6 -14.65 61.2 -13.55"
       fill="#4d5266"
       fill-rule="evenodd"
       stroke="none"
       id="path8" />
    <path
       d="M51.35 -6.1 L52.1 -6.35 Q55.35 -7.55 61.2 -13.55 64.6 -14.65 72.3 -18.1 82.35 -21.65 101.9 -24.9 88.8 -19.8 85.65 -17.75 79.7 -14.15 73.9 -10.25 62.35 -2.5 62.35 -0.4 L64.15 5.7 66.35 12.35 64.8 12.25 Q58.75 9.85 56.25 5.6 55.05 3.55 53.8 -1.95 L57.7 -3.85 55.75 -4.0 41.7 -4.4 39.95 -4.55 36.55 -5.0 25.7 -6.9 30.05 -6.5 34.2 -6.25 38.15 -6.85 Q41.05 -7.4 41.7 -7.75 L45.4 -9.45 47.6 -10.35 Q48.8 -10.35 48.95 -9.95 49.25 -8.6 47.75 -7.2 L46.0 -6.0 49.75 -4.55 50.55 -4.4 50.6 -5.0 50.7 -5.7 50.85 -5.95 51.35 -6.1"
       fill="#3c4157"
       fill-rule="evenodd"
       stroke="none"
       id="path10"
       style="fill:#ffff00;fill-opacity:1" />
    <path
       d="M64.8 12.25 Q61.2 11.7 56.65 8.1 51.7 4.15 50.3 -0.1 49.4 -2.95 41.7 -2.35 L39.3 -2.35 39.25 -2.35 38.7 -2.5 35.85 -3.05 35.05 -3.2 31.4 -3.95 25.7 -5.0 Q18.2 -5.55 16.45 -5.0 14.3 -4.3 12.3 -3.25 13.05 -4.05 13.6 -5.0 14.55 -6.8 15.1 -9.85 L16.7 -9.45 17.65 -9.1 19.75 -8.65 21.9 -8.0 25.45 -6.95 25.55 -6.9 25.7 -6.9 36.55 -5.0 39.95 -4.55 41.7 -4.4 55.75 -4.0 57.7 -3.85 53.8 -1.95 Q55.05 3.55 56.25 5.6 58.75 9.85 64.8 12.25"
       fill="#8194a3"
       fill-rule="evenodd"
       stroke="none"
       id="path12" />
    <path
       d="M61.9 -15.0 L61.95 -15.0 Q60.1 -13.0 55.6 -9.35 L51.35 -6.1 50.85 -5.95 50.7 -5.7 49.85 -5.25 46.7 -6.35 Q48.35 -7.45 49.1 -8.6 L49.55 -9.7 Q49.55 -10.25 49.15 -10.65 48.55 -11.2 47.5 -11.2 L43.15 -8.95 Q38.95 -6.75 32.05 -6.75 L27.45 -7.0 Q25.05 -7.35 21.0 -8.5 L19.75 -8.65 17.65 -9.1 16.7 -9.45 Q15.35 -10.2 15.05 -11.55 L14.25 -14.4 Q16.25 -12.75 20.2 -11.5 25.4 -9.85 31.65 -9.85 L37.95 -10.35 Q46.3 -11.7 61.9 -15.0"
       fill="#6d6d6d"
       fill-rule="evenodd"
       stroke="none"
       id="path14" />
  </g>
</svg>
