<?xml version="1.0" encoding="UTF-8" standalone="no"?>
<svg
   xmlns:dc="http://purl.org/dc/elements/1.1/"
   xmlns:cc="http://creativecommons.org/ns#"
   xmlns:rdf="http://www.w3.org/1999/02/22-rdf-syntax-ns#"
   xmlns:svg="http://www.w3.org/2000/svg"
   xmlns="http://www.w3.org/2000/svg"
   xmlns:sodipodi="http://sodipodi.sourceforge.net/DTD/sodipodi-0.dtd"
   xmlns:inkscape="http://www.inkscape.org/namespaces/inkscape"
   height="117.75px"
   width="73.0px"
   version="1.1"
   id="svg22"
   sodipodi:docname="269.svg"
   inkscape:version="1.0.2-2 (e86c870879, 2021-01-15)">
  <metadata
     id="metadata28">
    <rdf:RDF>
      <cc:Work
         rdf:about="">
        <dc:format>image/svg+xml</dc:format>
        <dc:type
           rdf:resource="http://purl.org/dc/dcmitype/StillImage" />
      </cc:Work>
    </rdf:RDF>
  </metadata>
  <defs
     id="defs26" />
  <sodipodi:namedview
     pagecolor="#ffffff"
     bordercolor="#666666"
     borderopacity="1"
     objecttolerance="10"
     gridtolerance="10"
     guidetolerance="10"
     inkscape:pageopacity="0"
     inkscape:pageshadow="2"
     inkscape:window-width="1920"
     inkscape:window-height="1017"
     id="namedview24"
     showgrid="false"
     inkscape:zoom="7.2186837"
     inkscape:cx="36.5"
     inkscape:cy="58.875"
     inkscape:window-x="-8"
     inkscape:window-y="-8"
     inkscape:window-maximized="1"
     inkscape:current-layer="svg22" />
  <g
     transform="matrix(1.0, 0.0, 0.0, 1.0, 41.2, 83.05)"
     id="g20">
    <path
       d="M3.35 -75.5 L3.5 -75.05 3.7 -73.0 Q3.8 -71.7 5.7 -71.6 L5.75 -72.0 Q4.75 -73.9 3.35 -75.5 M3.35 -65.0 L3.35 -65.1 Q3.35 -66.5 2.4 -68.25 L0.35 -71.6 Q0.85 -72.25 2.25 -72.3 3.35 -72.35 3.5 -73.45 2.7 -76.5 0.9 -78.2 -2.6 -81.5 -10.1 -81.5 -15.85 -81.5 -19.85 -79.3 L-30.45 -71.8 -30.45 -71.85 -34.3 -67.35 Q-37.0 -63.8 -38.05 -60.35 -37.4 -61.15 -32.8 -63.3 L-32.45 -63.25 -33.55 -60.15 -33.9 -57.3 -34.05 -55.45 -33.9 -52.8 -33.35 -51.65 -31.3 -54.15 -29.8 -48.4 -29.3 -47.65 -28.5 -46.9 -28.35 -46.8 -26.45 -48.5 -25.0 -50.3 -24.25 -51.1 Q-24.4 -49.65 -24.1 -48.35 L-22.9 -45.55 -22.25 -44.65 Q-20.15 -42.25 -18.05 -42.25 -16.35 -42.25 -14.75 -50.0 L-14.05 -52.6 -13.15 -55.35 -8.1 -51.65 Q-7.45 -51.65 -6.8 -52.0 L-5.55 -52.9 -5.75 -52.55 Q-6.4 -51.35 -7.8 -51.35 -8.4 -51.35 -9.85 -52.25 L-11.8 -53.55 -13.15 -54.65 -13.5 -53.2 Q-16.65 -41.65 -19.1 -36.4 -20.35 -33.6 -20.35 -31.45 -20.35 -29.25 -18.7 -27.3 -17.2 -25.55 -15.85 -25.55 -15.25 -25.55 -15.2 -25.75 L-15.15 -26.0 Q-12.35 -28.9 -10.8 -33.05 -9.7 -35.85 -8.65 -41.1 L-8.8 -37.95 Q-9.1 -36.55 -11.0 -32.35 -13.05 -27.75 -14.3 -26.5 -13.9 -26.8 -13.75 -26.15 L-13.05 -23.75 -11.6 -21.65 -9.4 -18.7 Q-8.6 -17.75 -8.0 -14.65 -7.3 -11.2 -6.75 -10.15 L-6.3 -9.6 Q-6.15 -9.4 -5.6 -9.4 -4.55 -9.4 1.2 -1.55 2.55 -3.05 2.35 -4.35 L2.0 -9.2 1.95 -10.75 2.1 -14.55 2.35 -17.9 6.75 -14.6 9.95 -11.6 13.55 -7.9 Q16.05 -9.35 18.1 -11.35 L19.55 -13.0 18.6 -11.6 13.1 -6.4 9.4 -3.5 10.0 -2.8 14.45 0.3 Q16.45 1.6 18.15 1.6 L18.6 1.55 18.6 1.6 Q18.6 2.6 19.45 3.7 L20.25 8.15 20.6 11.65 20.4 16.35 19.5 15.8 17.25 13.9 14.55 11.35 14.3 11.0 20.1 15.85 20.15 13.5 Q20.15 8.4 18.5 1.8 16.55 1.95 13.15 -0.05 10.15 -1.8 8.9 -3.3 L12.65 -7.1 12.7 -7.0 12.8 -7.2 12.75 -7.9 Q12.75 -8.6 8.6 -12.2 L2.65 -17.05 2.65 -16.85 2.45 -11.4 2.8 -6.55 3.45 -0.55 3.8 0.25 1.65 3.2 -1.3 6.75 -1.25 6.75 Q1.9 8.25 3.05 8.4 4.0 6.6 5.4 5.85 6.3 5.35 7.0 5.35 L8.8 5.35 Q9.85 5.45 9.85 6.1 L10.05 6.35 8.8 6.05 7.45 5.7 Q6.45 5.7 5.1 6.5 3.5 7.5 3.5 8.8 3.5 10.2 3.85 12.8 L3.05 9.1 1.15 8.3 1.2 8.35 1.15 8.6 0.45 13.3 -0.6 18.05 Q-0.9 19.0 -1.35 19.85 L-1.5 21.05 0.05 23.1 1.55 25.0 0.95 27.05 1.15 25.35 -0.45 23.6 Q-2.05 21.9 -2.05 21.4 L-1.8 20.5 -1.7 20.1 -1.8 20.5 -2.4 21.2 -0.9 16.75 Q-0.15 14.35 0.2 11.85 L0.7 8.1 -1.75 6.8 -0.7 5.8 0.7 4.0 3.3 0.7 2.65 -2.4 1.65 -1.4 1.15 -0.75 1.1 -0.7 -0.4 1.6 -3.9 8.2 -4.85 10.7 -6.6 14.8 -9.4 13.85 Q-11.8 12.9 -12.2 12.45 L-12.1 12.6 Q-11.55 16.1 -8.0 21.7 L-4.55 26.75 Q-4.55 27.35 -3.85 28.0 L-1.45 30.35 -0.45 29.2 -0.2 28.75 0.85 27.25 0.65 27.65 -1.0 30.75 1.4 32.8 3.1 24.3 4.3 17.25 4.25 15.85 4.75 19.5 Q4.75 24.0 4.1 27.65 L3.25 32.05 3.0 33.65 Q2.65 34.7 1.65 34.7 L-6.7 27.05 -12.3 16.6 -12.25 18.35 Q-11.65 23.8 -11.35 29.05 L-11.75 29.15 Q-13.65 28.5 -16.7 25.9 -21.5 21.7 -23.15 16.15 -23.65 14.4 -26.2 12.05 -28.85 9.55 -29.5 7.9 -31.1 3.9 -31.1 3.2 -31.1 2.35 -28.85 1.65 -28.15 1.5 -27.35 0.8 -26.0 -0.4 -25.7 -2.3 L-24.9 -6.35 Q-30.9 -12.6 -33.8 -18.75 -37.2 -25.85 -37.2 -34.3 -37.2 -40.2 -36.65 -41.25 L-39.3 -44.7 -40.85 -47.5 Q-41.2 -48.95 -41.2 -54.35 -41.2 -55.7 -40.7 -57.45 L-39.3 -61.3 -36.9 -66.05 -34.95 -68.8 Q-32.15 -72.35 -27.55 -75.9 -18.45 -83.05 -9.25 -83.05 -4.5 -83.05 0.5 -80.0 5.4 -77.0 7.2 -73.3 L9.7 -67.15 Q11.75 -66.0 14.05 -64.25 18.65 -60.85 20.0 -58.05 23.45 -51.85 24.35 -49.5 25.7 -46.0 25.7 -39.4 25.7 -29.45 23.65 -20.75 L27.0 -25.15 Q28.45 -27.0 28.75 -27.0 L29.4 -26.75 Q29.9 -26.45 29.9 -25.95 L30.85 -24.3 Q31.8 -22.2 31.8 -17.95 31.8 -16.05 31.15 -13.2 L30.4 -10.4 29.7 -9.55 29.0 -9.1 27.25 -8.0 25.65 -7.05 Q18.95 -0.3 18.65 1.45 L18.6 1.4 18.4 1.15 20.85 -2.2 23.3 -5.7 Q27.25 -9.3 28.5 -11.0 30.55 -13.85 30.55 -17.2 29.55 -22.85 28.35 -24.9 L24.2 -18.6 Q21.6 -14.7 21.0 -14.7 L20.2 -14.05 20.4 -15.0 Q18.6 -12.85 15.65 -12.85 13.4 -12.85 11.3 -14.5 9.65 -15.85 6.95 -19.3 L5.7 -21.75 5.2 -23.15 5.35 -23.3 6.7 -22.4 Q12.05 -19.75 14.3 -19.75 17.9 -19.75 20.45 -22.25 23.35 -25.15 23.4 -30.15 22.3 -27.6 19.85 -25.95 17.75 -24.6 16.15 -24.6 L14.35 -24.9 15.6 -24.85 Q19.1 -24.85 21.3 -27.85 24.05 -31.6 24.05 -39.25 L23.9 -38.6 Q22.8 -37.15 22.1 -35.1 L21.0 -32.35 19.95 -31.3 Q17.75 -29.85 12.4 -29.85 L9.05 -30.1 4.8 -30.7 5.85 -29.75 9.85 -26.55 10.65 -26.0 Q8.15 -27.0 7.1 -28.2 L6.75 -28.55 5.6 -29.65 3.95 -31.5 4.05 -31.45 5.0 -31.25 6.7 -30.9 7.2 -30.8 10.8 -30.45 Q17.15 -29.4 20.15 -32.75 20.7 -33.35 23.9 -39.75 24.35 -41.95 24.15 -42.8 L23.15 -47.35 22.4 -50.45 Q21.9 -51.95 21.0 -53.05 L19.75 -55.3 18.6 -56.95 Q17.25 -59.5 14.3 -61.9 L8.6 -65.8 Q9.15 -62.65 7.85 -59.3 6.95 -56.85 4.7 -53.65 2.15 -50.1 -1.25 -47.05 -4.15 -44.7 -4.2 -44.7 L-4.5 -44.5 -6.4 -43.4 -8.1 -42.1 -7.5 -43.3 Q-8.9 -43.95 -9.75 -45.35 -10.4 -46.45 -10.4 -47.2 L-10.15 -49.55 -10.2 -48.85 -9.25 -45.5 Q-8.45 -43.55 -7.1 -43.55 -5.75 -43.55 -2.0 -46.8 1.35 -49.7 3.0 -52.25 L4.25 -54.0 Q4.75 -54.0 6.3 -57.7 8.05 -61.85 8.05 -64.75 8.05 -68.5 7.1 -70.05 5.95 -71.95 2.75 -71.95 L0.75 -71.55 0.95 -71.35 3.95 -66.3 4.25 -65.3 Q4.35 -65.1 3.8 -65.1 L3.35 -65.0 M3.35 -64.7 L3.5 -64.3 Q3.2 -63.1 1.9 -60.8 L0.65 -58.7 1.15 -57.95 Q0.8 -58.35 0.35 -58.35 -0.2 -58.35 -0.3 -58.05 L-0.2 -58.5 Q-0.2 -58.9 -0.5 -59.05 L0.2 -59.0 Q0.5 -59.0 1.85 -61.15 3.15 -63.25 3.35 -64.7 M-4.85 -59.75 L-6.2 -59.85 Q-6.35 -59.45 -6.1 -58.1 L-5.35 -54.3 -5.5 -53.1 -7.0 -60.0 -4.85 -59.75 M1.45 -57.55 Q2.2 -56.35 2.2 -55.8 2.2 -53.7 0.2 -52.5 -1.5 -51.55 -2.6 -51.9 -0.15 -51.9 1.0 -53.45 1.8 -54.5 1.8 -55.9 1.8 -56.8 1.45 -57.5 L1.35 -57.65 1.45 -57.55 M18.8 -20.35 Q16.7 -19.35 14.35 -19.35 L12.5 -19.55 Q9.0 -20.4 5.75 -22.3 8.15 -17.75 10.7 -15.35 13.15 -13.1 15.5 -13.1 17.55 -13.1 19.2 -14.5 22.4 -17.25 22.6 -24.5 21.5 -21.7 18.8 -20.35 M-0.7 1.2 L0.4 -0.05 Q0.9 -0.55 0.9 -1.15 0.9 -2.7 -4.3 -7.35 -9.6 -12.1 -11.9 -12.15 L-13.6 -6.5 Q-14.9 -1.55 -14.9 1.5 -14.9 4.25 -14.1 6.45 L-13.05 8.85 -13.25 9.0 -13.4 8.75 -13.75 8.05 -13.75 8.2 Q-14.8 5.95 -17.1 2.6 L-21.85 -3.65 -21.85 -3.7 -21.85 -3.65 -21.95 -3.85 -22.75 -4.85 -23.35 -5.65 -24.05 -1.45 -24.45 3.05 -24.2 5.8 -23.7 8.95 -24.0 8.6 Q-24.7 7.0 -25.15 2.05 L-29.5 3.45 Q-28.65 4.05 -28.3 5.75 -27.85 7.8 -27.4 8.55 L-25.3 10.7 -22.65 12.8 -20.05 18.55 Q-17.2 24.3 -13.7 26.35 L-12.3 27.25 -13.55 18.5 -13.35 14.35 -11.95 14.3 -12.8 11.55 -12.8 11.45 -10.3 12.9 Q-8.05 14.1 -7.2 14.2 L-5.45 11.1 -0.7 1.25 -0.7 1.2 M-33.6 -51.45 Q-34.1 -52.5 -34.45 -55.75 L-35.7 -54.4 -34.95 -56.05 Q-34.2 -58.1 -33.2 -62.9 -34.4 -62.5 -36.75 -60.25 L-38.95 -58.05 Q-39.85 -58.05 -39.5 -56.0 L-38.75 -52.35 -38.7 -52.35 -38.9 -52.2 -39.0 -52.25 -39.0 -52.3 -39.7 -53.15 -39.65 -51.9 -38.25 -46.0 Q-36.85 -43.55 -34.25 -41.2 L-33.65 -40.8 -31.95 -40.15 -33.3 -40.4 Q-30.0 -38.4 -28.55 -38.05 L-26.85 -37.75 -26.85 -37.6 -30.9 -38.4 -34.55 -40.5 -35.15 -33.1 Q-35.15 -28.5 -34.45 -25.55 L-33.65 -23.15 -33.65 -23.1 -31.1 -18.15 -28.4 -13.15 -25.9 -17.9 -24.15 -20.85 -24.1 -20.85 -23.65 -11.2 Q-23.35 -6.55 -22.05 -5.15 L-22.05 -6.3 Q-21.15 -11.75 -20.65 -12.95 L-20.25 -13.65 Q-20.05 -13.05 -19.15 -4.1 -18.55 1.7 -15.15 4.7 -15.85 -0.8 -14.3 -6.5 -13.25 -10.4 -11.8 -12.6 L-7.9 -10.9 -8.5 -14.65 Q-9.05 -17.25 -10.2 -18.55 L-12.45 -22.4 -14.55 -26.3 -14.9 -25.4 Q-15.0 -25.1 -15.55 -25.1 -16.9 -25.1 -18.35 -26.75 L-23.0 -32.25 Q-26.1 -35.4 -26.75 -37.6 L-27.45 -39.4 Q-28.0 -41.0 -28.2 -42.7 -27.75 -42.95 -27.55 -42.05 -27.25 -38.95 -25.15 -35.55 -23.25 -32.5 -20.7 -30.45 -20.2 -34.75 -17.65 -41.9 -20.6 -41.7 -22.05 -43.85 -23.1 -44.8 -23.7 -46.15 L-24.35 -48.05 -24.75 -49.7 -24.8 -50.05 -24.85 -50.15 -27.55 -46.5 -28.4 -46.8 -29.55 -47.4 -29.6 -47.45 -29.7 -47.05 -30.2 -45.95 -31.5 -43.5 -31.9 -41.95 -32.05 -41.95 -32.1 -42.7 -32.05 -43.35 Q-32.05 -43.55 -31.95 -43.35 -31.6 -44.45 -30.65 -45.8 L-29.85 -47.2 Q-29.85 -48.2 -30.0 -48.45 L-31.4 -53.55 -32.45 -52.3 -33.45 -51.05 -35.05 -47.55 -35.8 -45.3 Q-35.8 -43.45 -34.85 -42.35 L-33.75 -41.45 -33.35 -41.25 -34.0 -41.3 -35.25 -42.3 Q-36.2 -43.25 -36.2 -45.1 L-35.25 -47.95 -33.6 -51.45 M-3.7 -52.0 L-3.75 -51.75 -3.9 -52.2 -3.7 -52.0 M-23.8 -12.95 L-24.4 -20.0 Q-28.05 -14.0 -27.55 -12.35 -27.35 -11.7 -26.25 -10.65 L-24.0 -8.2 -23.8 -8.85 -23.8 -12.95 M-21.5 -7.15 L-21.6 -6.05 Q-21.55 -3.6 -18.95 -1.0 L-18.95 -1.5 -20.55 -12.6 -21.5 -7.15"
       fill="#000000"
       fill-rule="evenodd"
       stroke="none"
       id="path2" />
    <path
       d="M3.35 -75.5 Q4.75 -73.9 5.75 -72.0 L5.7 -71.6 Q3.8 -71.7 3.7 -73.0 L3.5 -75.05 3.35 -75.5 M-1.45 30.35 L-3.85 28.0 Q-4.55 27.35 -4.55 26.75 L-8.0 21.7 Q-11.55 16.1 -12.1 12.6 L-12.2 12.45 Q-11.8 12.9 -9.4 13.85 L-6.6 14.8 -4.85 10.7 -3.35 16.25 Q-2.05 22.35 -1.45 30.35 M-0.4 1.6 L1.1 -0.7 1.15 -0.75 1.65 -1.4 2.65 -2.4 3.3 0.7 0.7 4.0 -0.4 1.6 M-1.25 6.75 L-1.3 6.75 1.65 3.2 3.8 0.25 3.45 -0.55 2.8 -6.55 2.45 -11.4 2.65 -16.85 2.65 -17.05 8.6 -12.2 Q12.75 -8.6 12.75 -7.9 L12.8 -7.2 12.7 -7.0 12.65 -7.1 Q9.65 -11.85 4.65 -12.35 L5.85 -9.0 5.65 -8.15 Q5.55 -7.3 6.15 -7.3 6.75 -7.3 7.15 -5.45 L7.95 -1.35 8.05 -0.9 4.25 2.15 -1.25 6.75 M10.0 -2.8 L9.4 -3.5 13.1 -6.4 18.6 -11.6 Q22.4 -11.25 23.15 -10.75 L17.85 -6.85 Q13.0 -3.6 10.0 -2.8 M-15.15 -26.0 L-15.2 -25.75 Q-15.25 -25.55 -15.85 -25.55 -17.2 -25.55 -18.7 -27.3 -20.35 -29.25 -20.35 -31.45 -20.35 -33.6 -19.1 -36.4 -16.65 -41.65 -13.5 -53.2 L-13.15 -54.65 -11.8 -53.55 -12.4 -54.0 -13.2 -46.1 -14.45 -36.8 -15.4 -30.0 -15.3 -27.7 -15.15 -26.0 M-6.2 -59.85 Q-1.15 -57.3 -1.15 -53.75 -1.15 -53.15 -1.55 -52.65 -2.1 -52.0 -3.2 -52.0 -3.85 -52.0 -4.65 -52.95 -5.3 -53.8 -5.35 -54.3 L-6.1 -58.1 Q-6.35 -59.45 -6.2 -59.85 M-13.4 8.75 L-13.25 9.0 -13.05 8.85 -14.1 6.45 Q-14.9 4.25 -14.9 1.5 -14.9 -1.55 -13.6 -6.5 L-11.9 -12.15 Q-9.6 -12.1 -4.3 -7.35 0.9 -2.7 0.9 -1.15 0.9 -0.55 0.4 -0.05 L-0.7 1.2 Q-0.35 0.7 -0.35 -0.3 -0.35 -3.2 -4.6 -5.95 -7.8 -8.05 -10.05 -8.45 -6.85 3.4 -5.45 11.1 L-7.2 14.2 Q-8.05 14.1 -10.3 12.9 L-12.8 11.45 -13.4 8.75 M-13.7 26.35 Q-17.2 24.3 -20.05 18.55 L-22.65 12.8 -25.3 10.7 -27.4 8.55 Q-27.85 7.8 -28.3 5.75 -28.65 4.05 -29.5 3.45 L-25.15 2.05 Q-24.7 7.0 -24.0 8.6 L-23.7 8.95 -24.2 5.8 -24.45 3.05 -24.05 -1.45 -23.35 -5.65 -22.75 -4.85 -21.95 -3.85 -21.9 -3.65 -21.85 -3.65 -21.85 -3.7 -21.85 -3.65 -17.1 2.6 -20.65 0.65 -22.0 0.45 Q-19.9 12.45 -17.3 20.2 L-15.65 23.5 -13.7 26.35 M-33.6 -51.45 L-35.25 -47.95 -36.2 -45.1 Q-36.2 -43.25 -35.25 -42.3 L-34.0 -41.3 -34.25 -41.2 Q-36.85 -43.55 -38.25 -46.0 -37.65 -47.3 -35.85 -49.3 L-33.6 -51.45 M-33.35 -41.25 L-33.75 -41.45 -34.85 -42.35 Q-35.8 -43.45 -35.8 -45.3 L-35.05 -47.55 -33.45 -51.05 -32.45 -52.3 Q-32.45 -51.05 -33.15 -48.25 L-33.9 -44.65 -33.5 -43.9 -32.85 -43.25 -32.05 -43.35 -32.1 -42.7 -32.05 -41.95 -31.9 -41.95 -31.5 -43.5 Q-30.95 -43.5 -30.55 -44.2 -30.2 -44.95 -30.2 -45.95 L-29.7 -47.05 -29.55 -47.4 -28.4 -46.8 -27.55 -46.5 -24.85 -50.15 -24.8 -50.05 -24.75 -49.7 -24.35 -48.05 -23.7 -46.15 Q-23.1 -44.8 -22.05 -43.85 -20.6 -41.7 -17.65 -41.9 -20.2 -34.75 -20.7 -30.45 -23.25 -32.5 -25.15 -35.55 -27.25 -38.95 -27.55 -42.05 -27.75 -42.95 -28.2 -42.7 -28.0 -41.0 -27.45 -39.4 L-26.75 -37.6 -26.85 -37.6 -26.85 -37.75 -28.55 -38.05 Q-30.0 -38.4 -33.3 -40.4 L-31.95 -40.15 -33.65 -40.8 -33.35 -41.25 M-39.65 -51.9 L-39.7 -53.15 -39.0 -52.3 -39.0 -52.25 -38.9 -52.2 -38.85 -52.15 -39.65 -51.9 M-33.75 -41.45 L-32.95 -41.85 -32.5 -42.55 -33.55 -41.75 -33.75 -41.45"
       fill="#989898"
       fill-rule="evenodd"
       stroke="none"
       id="path4" />
    <path
       d="M-8.1 -42.1 L-6.4 -43.4 -6.75 -40.25 Q-6.75 -36.35 -5.35 -32.8 -4.0 -29.25 -2.05 -28.4 L-9.05 -27.1 -7.05 -25.0 Q-4.8 -23.15 -1.8 -23.15 0.3 -23.15 3.05 -24.85 L6.05 -27.1 6.7 -22.4 5.35 -23.3 5.2 -23.15 5.7 -21.75 6.95 -19.3 6.75 -14.6 2.35 -17.9 2.1 -14.55 1.95 -10.75 2.0 -9.2 -5.35 -13.1 -6.05 -12.1 -6.75 -10.15 Q-7.3 -11.2 -8.0 -14.65 -8.6 -17.75 -9.4 -18.7 L-11.6 -21.65 -13.05 -23.75 -13.75 -26.15 Q-13.9 -26.8 -14.3 -26.5 -13.05 -27.75 -11.0 -32.35 -9.1 -36.55 -8.8 -37.95 L-8.1 -42.1 M-4.5 -44.5 L-4.2 -44.7 -1.8 -41.1 -1.95 -40.55 -2.7 -33.95 -3.05 -34.9 -3.4 -35.5 -2.7 -33.75 -2.85 -32.65 Q-3.85 -34.9 -3.85 -36.45 L-3.15 -40.6 -2.9 -41.0 -5.25 -40.8 -5.25 -40.65 -5.3 -41.25 -5.1 -42.5 -4.5 -44.5 M-14.75 -50.0 Q-16.35 -42.25 -18.05 -42.25 -20.15 -42.25 -22.25 -44.65 L-22.9 -45.55 -24.1 -48.35 Q-24.4 -49.65 -24.25 -51.1 L-25.0 -50.3 -27.15 -53.55 -27.35 -53.9 -24.95 -57.35 -14.75 -50.0 M-26.75 -37.6 Q-26.1 -35.4 -23.0 -32.25 L-18.35 -26.75 Q-16.9 -25.1 -15.55 -25.1 -15.0 -25.1 -14.9 -25.4 L-14.55 -26.3 -12.45 -22.4 -10.2 -18.55 Q-9.05 -17.25 -8.5 -14.65 L-7.9 -10.9 -11.8 -12.6 Q-13.25 -10.4 -14.3 -6.5 -15.85 -0.8 -15.15 4.7 -18.55 1.7 -19.15 -4.1 -20.05 -13.05 -20.25 -13.65 L-20.65 -12.95 Q-21.15 -11.75 -22.05 -6.3 L-22.05 -5.15 Q-23.35 -6.55 -23.65 -11.2 L-24.1 -20.85 -24.15 -20.85 -25.9 -17.9 -28.4 -13.15 -31.1 -18.15 -33.65 -23.1 -33.65 -23.15 Q-33.05 -35.15 -30.9 -38.4 L-26.85 -37.6 -26.75 -37.6"
       fill="#aeb7be"
       fill-rule="evenodd"
       stroke="none"
       id="path6"
       style="fill:#ffff00;fill-opacity:1" />
    <path
       d="M-6.4 -43.4 L-4.5 -44.5 -5.1 -42.5 -5.3 -41.25 -5.25 -40.65 -5.25 -40.8 -2.9 -41.0 -3.15 -40.6 -3.85 -36.45 Q-3.85 -34.9 -2.85 -32.65 L-2.35 -32.15 -1.1 -34.95 3.8 -35.85 5.4 -32.2 5.0 -31.25 4.05 -31.45 3.95 -31.5 -0.6 -29.35 0.05 -28.95 0.7 -28.55 4.2 -28.7 5.6 -29.65 6.75 -28.55 6.6 -27.65 6.05 -27.1 3.05 -24.85 Q0.3 -23.15 -1.8 -23.15 -4.8 -23.15 -7.05 -25.0 L-9.05 -27.1 -2.05 -28.4 Q-4.0 -29.25 -5.35 -32.8 -6.75 -36.35 -6.75 -40.25 L-6.4 -43.4 M21.0 -53.05 Q21.9 -51.95 22.4 -50.45 L23.15 -47.35 Q21.5 -47.05 15.85 -44.75 9.0 -41.9 9.0 -40.35 L8.85 -39.75 8.65 -39.9 8.15 -39.45 Q7.85 -39.2 7.85 -38.6 L7.85 -38.55 17.2 -37.8 Q18.45 -37.8 20.05 -39.75 L20.1 -39.75 24.15 -42.8 Q24.35 -41.95 23.9 -39.75 16.85 -35.8 15.25 -35.7 11.65 -36.25 4.75 -35.9 3.9 -37.4 3.2 -37.6 5.7 -37.4 6.85 -38.5 7.45 -39.1 7.65 -40.05 9.15 -42.75 12.95 -46.65 17.35 -51.25 21.0 -53.05 M7.2 -30.8 L6.7 -30.9 6.2 -32.55 10.05 -34.4 Q8.95 -31.9 7.2 -30.8 M-29.8 -48.4 L-31.3 -54.15 -33.35 -51.65 -33.9 -52.8 -34.05 -55.45 -33.9 -57.3 -33.55 -60.15 -32.45 -63.25 -32.8 -63.3 Q-37.4 -61.15 -38.05 -60.35 -37.0 -63.8 -34.3 -67.35 L-30.45 -71.85 -30.45 -71.8 -30.65 -69.4 Q-30.65 -65.3 -29.95 -61.4 -29.1 -56.5 -27.35 -53.9 L-27.15 -53.55 -29.8 -48.4 M-1.1 -42.9 L2.35 -37.55 -2.0 -37.15 -1.8 -39.2 -1.35 -42.0 -1.1 -42.9"
       fill="#3c4157"
       fill-rule="evenodd"
       stroke="none"
       id="path8" />
    <path
       d="M6.7 -30.9 L5.0 -31.25 5.4 -32.2 6.2 -32.55 6.7 -30.9 M3.95 -31.5 L5.6 -29.65 4.2 -28.7 0.7 -28.55 0.05 -28.95 -0.6 -29.35 3.95 -31.5 M-25.0 -50.3 L-26.45 -48.5 -28.35 -46.8 -28.5 -46.9 -29.3 -47.65 -29.8 -48.4 -27.15 -53.55 -25.0 -50.3 M2.35 -37.55 L2.9 -37.6 3.2 -37.6 Q3.9 -37.4 4.75 -35.9 L3.8 -35.85 -1.1 -34.95 -2.35 -32.15 -2.85 -32.65 -2.7 -33.75 -2.7 -33.95 -1.95 -40.55 -1.4 -42.05 -1.35 -42.0 -1.8 -39.2 -2.0 -37.15 2.35 -37.55 M-33.65 -23.15 L-34.45 -25.55 Q-35.15 -28.5 -35.15 -33.1 L-34.55 -40.5 -30.9 -38.4 Q-33.05 -35.15 -33.65 -23.15"
       fill="#4d5266"
       fill-rule="evenodd"
       stroke="none"
       id="path10"
       style="fill:#feff00;fill-opacity:1" />
    <path
       d="M10.65 -26.0 L9.85 -26.55 5.85 -29.75 4.8 -30.7 9.05 -30.1 12.4 -29.85 Q17.75 -29.85 19.95 -31.3 L21.0 -32.35 22.1 -35.1 Q22.8 -37.15 23.9 -38.6 L24.05 -39.25 Q24.05 -31.6 21.3 -27.85 19.1 -24.85 15.6 -24.85 L14.35 -24.9 12.4 -25.45 10.65 -26.0 M18.8 -20.35 Q21.5 -21.7 22.6 -24.5 22.4 -17.25 19.2 -14.5 17.55 -13.1 15.5 -13.1 13.15 -13.1 10.7 -15.35 8.15 -17.75 5.75 -22.3 9.0 -20.4 12.5 -19.55 L14.35 -19.35 Q16.7 -19.35 18.8 -20.35 M-23.8 -12.95 L-23.8 -8.85 -24.0 -8.2 -26.25 -10.65 Q-27.35 -11.7 -27.55 -12.35 -28.05 -14.0 -24.4 -20.0 L-23.8 -12.95 M-21.5 -7.15 L-20.55 -12.6 -18.95 -1.5 -18.95 -1.0 Q-21.55 -3.6 -21.6 -6.05 L-21.5 -7.15"
       fill="#55dee3"
       fill-rule="evenodd"
       stroke="none"
       id="path12" />
    <path
       d="M-30.45 -71.8 L-19.85 -79.3 Q-15.85 -81.5 -10.1 -81.5 -2.6 -81.5 0.9 -78.2 2.7 -76.5 3.5 -73.45 3.35 -72.35 2.25 -72.3 0.85 -72.25 0.35 -71.6 L2.4 -68.25 Q3.35 -66.5 3.35 -65.1 L3.35 -65.0 3.3 -64.75 3.35 -64.7 Q3.15 -63.25 1.85 -61.15 0.5 -59.0 0.2 -59.0 L-0.5 -59.05 -3.15 -59.5 -4.85 -59.75 -7.0 -60.0 -5.5 -53.1 -5.5 -53.0 -5.55 -52.9 -6.8 -52.0 Q-7.45 -51.65 -8.1 -51.65 L-13.15 -55.35 -14.05 -52.6 -14.75 -50.0 -24.95 -57.35 -27.35 -53.9 Q-29.1 -56.5 -29.95 -61.4 -30.65 -65.3 -30.65 -69.4 L-30.45 -71.8 M-4.2 -44.7 Q-4.15 -44.7 -1.25 -47.05 2.15 -50.1 4.7 -53.65 L4.75 -51.8 Q6.15 -52.6 11.75 -54.55 L18.6 -56.95 19.75 -55.3 Q17.15 -52.05 15.3 -52.25 11.95 -52.6 7.15 -50.2 L7.0 -50.1 10.05 -46.55 8.6 -44.0 8.4 -43.9 Q8.4 -44.9 8.25 -44.35 8.0 -44.35 7.15 -46.85 6.3 -49.35 5.25 -49.35 1.75 -49.35 0.85 -47.75 0.05 -45.1 -1.1 -42.9 L-1.35 -42.0 -1.4 -42.05 -1.95 -40.55 -1.8 -41.1 -4.2 -44.7 M7.1 -28.2 Q8.15 -27.0 10.65 -26.0 L12.4 -25.45 14.35 -24.9 16.15 -24.6 Q17.75 -24.6 19.85 -25.95 22.3 -27.6 23.4 -30.15 23.35 -25.15 20.45 -22.25 17.9 -19.75 14.3 -19.75 12.05 -19.75 6.7 -22.4 L6.05 -27.1 6.6 -27.65 7.1 -28.2 M6.95 -19.3 Q9.65 -15.85 11.3 -14.5 13.4 -12.85 15.65 -12.85 18.6 -12.85 20.4 -15.0 L20.2 -14.05 19.9 -13.6 19.55 -13.0 18.1 -11.35 Q16.05 -9.35 13.55 -7.9 L9.95 -11.6 6.75 -14.6 6.95 -19.3 M2.0 -9.2 L2.35 -4.35 Q2.55 -3.05 1.2 -1.55 -4.55 -9.4 -5.6 -9.4 -6.15 -9.4 -6.3 -9.6 L-6.75 -10.15 -6.05 -12.1 -5.35 -13.1 2.0 -9.2 M2.55 -46.85 Q2.85 -46.85 3.8 -46.25 L5.7 -44.7 4.0 -42.35 4.3 -42.3 8.0 -43.15 8.1 -43.2 Q7.25 -41.8 5.5 -40.45 4.1 -39.4 3.8 -39.4 2.3 -39.4 1.75 -40.3 1.3 -41.0 1.3 -42.6 L1.35 -46.6 2.55 -46.85 M-2.7 -33.95 L-2.7 -33.75 -3.4 -35.5 -3.05 -34.9 -2.7 -33.95"
       fill="#8194a3"
       fill-rule="evenodd"
       stroke="none"
       id="path14" />
    <path
       d="M4.7 -53.65 Q6.95 -56.85 7.85 -59.3 9.15 -62.65 8.6 -65.8 L14.3 -61.9 Q17.25 -59.5 18.6 -56.95 L11.75 -54.55 Q6.15 -52.6 4.75 -51.8 L4.7 -53.65 M19.75 -55.3 L21.0 -53.05 Q17.35 -51.25 12.95 -46.65 9.15 -42.75 7.65 -40.05 7.45 -39.1 6.85 -38.5 5.7 -37.4 3.2 -37.6 L2.9 -37.6 2.35 -37.55 -1.1 -42.9 Q0.05 -45.1 0.85 -47.75 1.75 -49.35 5.25 -49.35 6.3 -49.35 7.15 -46.85 8.0 -44.35 8.25 -44.35 8.4 -44.9 8.4 -43.9 L8.6 -44.0 10.05 -46.55 7.0 -50.1 7.15 -50.2 Q11.95 -52.6 15.3 -52.25 17.15 -52.05 19.75 -55.3 M23.15 -47.35 L24.15 -42.8 20.1 -39.75 20.05 -39.75 Q18.45 -37.8 17.2 -37.8 L7.85 -38.55 7.85 -38.6 Q7.85 -39.2 8.15 -39.45 L8.65 -39.9 8.85 -39.75 9.0 -40.35 Q9.0 -41.9 15.85 -44.75 21.5 -47.05 23.15 -47.35 M23.9 -39.75 Q20.7 -33.35 20.15 -32.75 17.15 -29.4 10.8 -30.45 L7.2 -30.8 Q8.95 -31.9 10.05 -34.4 L6.2 -32.55 5.4 -32.2 3.8 -35.85 4.75 -35.9 Q11.65 -36.25 15.25 -35.7 16.85 -35.8 23.9 -39.75 M6.75 -28.55 L7.1 -28.2 6.6 -27.65 6.75 -28.55 M2.55 -46.85 L1.35 -46.6 1.3 -42.6 Q1.3 -41.0 1.75 -40.3 2.3 -39.4 3.8 -39.4 4.1 -39.4 5.5 -40.45 7.25 -41.8 8.1 -43.2 L8.0 -43.15 4.3 -42.3 4.0 -42.35 5.7 -44.7 3.8 -46.25 Q2.85 -46.85 2.55 -46.85"
       fill="#2b3148"
       fill-rule="evenodd"
       stroke="none"
       id="path16" />
    <path
       d="M3.35 -65.0 L3.8 -65.1 Q4.35 -65.1 4.25 -65.3 L3.95 -66.3 0.95 -71.35 0.75 -71.55 2.75 -71.95 Q5.95 -71.95 7.1 -70.05 8.05 -68.5 8.05 -64.75 8.05 -61.85 6.3 -57.7 4.75 -54.0 4.25 -54.0 L3.0 -52.25 Q1.35 -49.7 -2.0 -46.8 -5.75 -43.55 -7.1 -43.55 -8.45 -43.55 -9.25 -45.5 L-10.2 -48.85 -10.15 -49.55 -10.4 -47.2 Q-10.4 -46.45 -9.75 -45.35 -8.9 -43.95 -7.5 -43.3 L-8.1 -42.1 -8.8 -37.95 -8.65 -41.1 Q-9.7 -35.85 -10.8 -33.05 -12.35 -28.9 -15.15 -26.0 L-15.3 -27.7 -15.4 -30.0 -14.45 -36.8 -13.2 -46.1 -12.4 -54.0 -11.8 -53.55 -9.85 -52.25 Q-8.4 -51.35 -7.8 -51.35 -6.4 -51.35 -5.75 -52.55 L-5.55 -52.9 -5.5 -53.0 -5.5 -53.1 -5.35 -54.3 Q-5.3 -53.8 -4.65 -52.95 -3.85 -52.0 -3.2 -52.0 -2.1 -52.0 -1.55 -52.65 -1.15 -53.15 -1.15 -53.75 -1.15 -57.3 -6.2 -59.85 L-4.85 -59.75 -3.15 -59.5 -0.5 -59.05 Q-0.2 -58.9 -0.2 -58.5 L-0.3 -58.05 Q-0.2 -58.35 0.35 -58.35 0.8 -58.35 1.15 -57.95 L0.65 -58.7 1.9 -60.8 Q3.2 -63.1 3.5 -64.3 L3.35 -64.7 3.3 -64.75 3.35 -65.0 M20.2 -14.05 L21.0 -14.7 Q21.6 -14.7 24.2 -18.6 L28.35 -24.9 Q29.55 -22.85 30.55 -17.2 30.55 -13.85 28.5 -11.0 27.25 -9.3 23.3 -5.7 L20.85 -2.2 18.4 1.15 18.6 1.4 18.65 1.45 18.6 1.55 18.15 1.6 Q16.45 1.6 14.45 0.3 L10.0 -2.8 Q13.0 -3.6 17.85 -6.85 L23.15 -10.75 Q22.4 -11.25 18.6 -11.6 L19.55 -13.0 19.9 -13.6 20.2 -14.05 M4.25 15.85 L4.3 17.25 3.1 24.3 1.4 32.8 -1.0 30.75 0.65 27.65 0.85 27.25 -0.2 28.75 -0.45 29.2 -1.45 30.35 Q-2.05 22.35 -3.35 16.25 L-4.85 10.7 -3.9 8.2 -0.4 1.6 0.7 4.0 -0.7 5.8 -1.75 6.8 0.7 8.1 0.2 11.85 Q-0.15 14.35 -0.9 16.75 L-2.4 21.2 -1.8 20.5 -1.7 20.1 -1.8 20.5 -2.05 21.4 Q-2.05 21.9 -0.45 23.6 L1.15 25.35 0.95 27.05 1.55 25.0 0.05 23.1 -1.5 21.05 -1.35 19.85 Q-0.9 19.0 -0.6 18.05 L0.45 13.3 1.15 8.6 1.2 8.35 1.15 8.3 3.05 9.1 3.85 12.8 4.15 15.05 4.25 15.85 M10.05 6.35 L9.85 6.1 Q9.85 5.45 8.8 5.35 L7.0 5.35 Q6.3 5.35 5.4 5.85 4.0 6.6 3.05 8.4 1.9 8.25 -1.25 6.75 L4.25 2.15 8.05 -0.9 7.95 -1.35 7.15 -5.45 Q6.75 -7.3 6.15 -7.3 5.55 -7.3 5.65 -8.15 L5.85 -9.0 4.65 -12.35 Q9.65 -11.85 12.65 -7.1 L8.9 -3.3 Q10.15 -1.8 13.15 -0.05 16.55 1.95 18.5 1.8 20.15 8.4 20.15 13.5 L20.1 15.85 14.3 11.0 10.6 7.0 10.5 6.9 10.3 6.65 10.25 6.55 10.25 6.35 10.15 6.35 10.05 6.35 M1.45 -57.55 L1.35 -57.65 1.45 -57.5 Q1.8 -56.8 1.8 -55.9 1.8 -54.5 1.0 -53.45 -0.15 -51.9 -2.6 -51.9 -1.5 -51.55 0.2 -52.5 2.2 -53.7 2.2 -55.8 2.2 -56.35 1.45 -57.55 M-0.7 1.2 L-0.7 1.25 -5.45 11.1 Q-6.85 3.4 -10.05 -8.45 -7.8 -8.05 -4.6 -5.95 -0.35 -3.2 -0.35 -0.3 -0.35 0.7 -0.7 1.2 M-12.8 11.45 L-12.8 11.55 -11.95 14.3 -13.35 14.35 -13.55 18.5 -12.3 27.25 -13.7 26.35 -15.65 23.5 -17.3 20.2 Q-19.9 12.45 -22.0 0.45 L-20.65 0.65 -17.1 2.6 Q-14.8 5.95 -13.75 8.2 L-13.75 8.05 -13.4 8.75 -12.8 11.45 M-21.95 -3.85 L-21.85 -3.65 -21.9 -3.65 -21.95 -3.85 M-38.9 -52.2 L-38.7 -52.35 -38.75 -52.35 -39.5 -56.0 Q-39.85 -58.05 -38.95 -58.05 L-36.75 -60.25 Q-34.4 -62.5 -33.2 -62.9 -34.2 -58.1 -34.95 -56.05 L-35.7 -54.4 -34.45 -55.75 Q-34.1 -52.5 -33.6 -51.45 L-35.85 -49.3 Q-37.65 -47.3 -38.25 -46.0 L-39.65 -51.9 -38.85 -52.15 -38.9 -52.2 M-34.0 -41.3 L-33.35 -41.25 -33.65 -40.8 -34.25 -41.2 -34.0 -41.3 M-32.45 -52.3 L-31.4 -53.55 -30.0 -48.45 Q-29.85 -48.2 -29.85 -47.2 L-30.65 -45.8 Q-31.6 -44.45 -31.95 -43.35 -32.05 -43.55 -32.05 -43.35 L-32.85 -43.25 -33.5 -43.9 -33.9 -44.65 -33.15 -48.25 Q-32.45 -51.05 -32.45 -52.3 M-31.5 -43.5 L-30.2 -45.95 Q-30.2 -44.95 -30.55 -44.2 -30.95 -43.5 -31.5 -43.5 M-29.7 -47.05 L-29.6 -47.45 -29.55 -47.4 -29.7 -47.05 M-3.7 -52.0 L-3.9 -52.2 -3.75 -51.75 -3.7 -52.0 M-33.75 -41.45 L-33.55 -41.75 -32.5 -42.55 -32.95 -41.85 -33.75 -41.45"
       fill="#6d6d6d"
       fill-rule="evenodd"
       stroke="none"
       id="path18" />
  </g>
</svg>
